<svg width="628" height="939" viewBox="0 0 628 939" fill="none" xmlns="http://www.w3.org/2000/svg">
<path d="M223.828 348.092C250.269 341.445 245.834 304.043 262.348 287.092C277.929 271.395 302.85 273.362 323.182 267.044C357.597 257.557 367.309 228.727 383.922 201.131C414.977 150.17 478.589 122.444 538.01 130.578C636.315 144.24 704.995 241.108 674.501 337.307C670.345 350.781 664.463 363.947 660.936 377.889C651.331 426.286 695.723 465.143 716.616 504.065C742.586 554.556 747.149 615.438 730.523 669.334C707.571 740.936 643.805 797.779 571.688 817.231C475.951 843.479 334.088 800.35 304.065 696.176C300.063 680.532 296.831 662.539 284.246 653.181C265.207 638.049 242.705 648.599 221.884 651.63C199.339 654.353 177.706 651.908 156.355 643.826C115.378 627.971 81.9647 591.432 70.1421 549.512C51.4323 480.059 97.4003 348.595 182.937 347.891C198.603 347.848 212.566 351.41 223.828 348.092Z" fill="#9CCDEE"/>
<circle cx="448.839" cy="347.985" r="46.5408" fill="white"/>
<circle cx="508.437" cy="628.241" r="13.0576" fill="white"/>
</svg>
