<svg width="290" height="256" viewBox="0 0 290 256" fill="none" xmlns="http://www.w3.org/2000/svg">
<path fill-rule="evenodd" clip-rule="evenodd" d="M8.30595 88.0965C16.2229 83.2381 24.8892 81.0657 34.2736 81.711L34.7244 82.4455L30.0722 85.3005C35.5817 94.2784 43.3172 104.137 53.2471 115.009C52.468 115.937 52.1342 117.04 52.1453 118.157L56.1855 118.15C73.3277 135.831 83.5582 147.192 86.7637 152.416C86.5189 152.566 86.5374 152.779 86.6877 153.024C87.259 152.674 90.0527 156.127 94.937 163.354C100.797 167.96 109.054 177.387 119.707 191.635L123.514 197.838C124.82 197.036 129.049 201.182 136.184 210.062C136.935 211.286 138.591 211.056 141.203 209.453C141.454 209.861 142.42 209.605 144.216 208.503L144.666 209.238C141.771 212.026 138.951 214.206 136.176 215.908L131.851 218.563C124.913 222.82 110.214 208.022 87.6714 174.217C85.4064 174.371 82.3124 175.371 78.5709 177.33C70.5075 183.964 64.4103 188.492 60.4111 190.946L58.6155 192.048C57.9366 193.139 57.7975 194.011 58.2483 194.745L57.5953 195.146C57.3505 195.296 57.1372 195.315 56.9869 195.07C56.7291 195.565 56.3711 195.897 56.2078 195.997C56.5083 196.487 56.9851 196.532 57.638 196.131C59.2817 201.189 59.7603 204.716 58.9553 206.333L59.2057 206.741C59.9403 206.29 60.417 206.335 60.6675 206.743L61.3186 207.804C61.6692 208.375 60.0739 209.804 56.633 212.252C56.9651 212.61 57.3602 212.705 57.6867 212.505L58.7477 211.854L59.2318 210.995C60.9922 212.948 62.3779 213.558 63.4389 212.907C66.305 218.676 67.6184 221.915 67.3291 222.542C67.4793 222.787 67.8114 223.145 68.3883 223.352C70.9223 228.763 71.822 231.694 71.2507 232.045L70.5978 232.445L71.4493 233.833C71.6941 233.683 72.2024 233.595 72.7607 233.59C74.3301 237.795 75.7066 240.77 76.8085 242.566C80.4499 245.387 82.5368 247.14 82.9375 247.793L82.4533 248.652C78.8751 250.511 75.8367 252.151 73.4698 253.603L73.019 252.869L71.7948 253.62L72.6036 254.022L72.8039 254.349L70.5186 255.751C70.0289 256.052 69.7154 255.907 69.465 255.499C69.2533 249.112 68.105 244.312 66.1516 241.129L66.8046 240.728L66.5541 240.32L65.2501 239.659C36.5855 179.95 20.2978 140.959 16.337 122.604C16.0365 122.115 16.3388 121.143 17.1123 119.657C16.3778 120.108 15.901 120.063 15.6506 119.655L14.7935 117.709L17.6056 116.433L16.4537 114.556C15.1292 115.144 14.3576 115.168 14.007 114.596C11.8643 107.26 10.076 102.515 8.77371 100.393C8.57337 100.067 7.20624 99.6697 4.6408 99.334C2.80434 97.9892 1.52623 96.6388 0.67476 95.2513C1.76914 93.0067 4.22507 90.6008 8.30595 88.0965ZM17.2991 95.6107C19.4788 103.374 22.6344 113.459 26.7973 125.735L26.3892 125.986L23.4584 126.885L23.6587 127.212C23.809 127.457 25.0759 127.69 27.5412 127.863C31.333 135.873 32.3626 140.297 30.8118 141.248L31.0623 141.656C31.552 141.356 32.2235 141.169 32.7818 141.163L42.8012 165.912L42.3987 166.721L43.9086 168.266C50.1732 180.488 52.9948 186.734 52.4235 187.084C52.084 187.63 51.8076 187.912 51.5628 188.062L51.8132 188.47C52.0135 188.796 52.8854 188.935 54.5103 188.837C56.6324 187.535 64.2488 182.187 77.6044 172.643L78.671 172.55C80.6558 170.658 81.9245 169.43 82.4959 169.079L17.7071 95.3603L17.2991 95.6107ZM18.0566 122.111L20.0525 121.335L20.0098 120.35L18.9933 120.525L18.3403 120.926C17.9007 121.308 17.8061 121.703 18.0566 122.111ZM34.9885 112.17L36.5504 112.335C36.9585 112.084 37.0345 111.476 36.9603 110.623L35.9753 110.665L35.3224 111.066C34.8327 111.366 34.7381 111.762 34.9885 112.17ZM40.2158 110.984C40.5479 111.342 40.943 111.437 41.3511 111.186C41.9224 110.836 42.017 110.441 41.7665 110.033C41.466 109.543 41.0709 109.448 40.4996 109.799C40.11 110.263 39.9654 110.576 40.2158 110.984ZM38.5779 111.428L38.8283 111.836L39.8893 111.185L39.6389 110.776L38.5779 111.428ZM42.1766 113.264L42.427 113.672L43.488 113.021L42.7868 111.878L42.3787 112.129C42.0207 112.461 41.9261 112.856 42.1766 113.264ZM42.2361 120.867C42.6183 121.307 42.9633 121.32 43.3714 121.07L43.7795 120.819L43.3788 120.166L42.2361 120.867ZM49.6987 123.141L49.9492 123.55L51.9952 122.856L50.8432 120.979L50.027 121.479C49.7321 121.548 49.6561 122.156 49.6987 123.141ZM54.9668 119.459L55.3675 120.112L56.102 119.661C55.77 119.303 55.3749 119.209 54.9668 119.459ZM26.7642 137.216C27.1964 137.737 27.5915 137.832 28.0812 137.531L28.4077 137.331L27.9068 136.515L26.7642 137.216ZM34.1752 150.757L34.3755 151.083C34.8077 151.605 35.2028 151.699 35.5293 151.499L35.4365 150.432L34.5832 150.506L34.1752 150.757ZM61.0275 139.222L62.0941 139.129C62.5838 138.829 62.6784 138.434 62.3278 137.862L61.3929 137.987C60.8716 138.419 60.777 138.814 61.0275 139.222ZM66.4885 136.77L66.9392 137.504C67.3214 137.944 67.7666 138.12 68.1747 137.87C68.6644 137.569 68.8406 137.124 68.49 136.552C68.1895 136.063 67.7943 135.968 67.223 136.319L66.4885 136.77ZM73.276 142.154L75.4036 141.41L75.2292 140.394L74.2943 140.518L73.6414 140.919C73.1702 141.433 73.0756 141.828 73.276 142.154ZM35.359 167.333C35.5093 167.578 35.5965 168.086 35.6021 168.644L36.6687 168.552L36.9952 168.351C37.4849 168.051 37.4978 167.706 37.2474 167.298L35.7671 167.082L35.359 167.333ZM75.194 143.449L75.4445 143.857L76.0974 143.456L75.847 143.048L75.194 143.449ZM37.3699 169.694L37.8207 170.429C38.2028 170.868 38.5979 170.963 39.006 170.713L38.1045 169.243L37.3699 169.694ZM37.78 177.869L38.2809 178.685L39.0155 178.234L38.5146 177.418L37.78 177.869ZM39.1751 181.058L39.6759 181.874C40.1656 181.573 40.3419 181.128 39.9912 180.557L39.1751 181.058ZM45.0164 180.507L46.4781 180.508L46.8046 180.308C47.2127 180.058 47.3072 179.663 47.0568 179.255C46.3612 178.67 45.9475 178.362 45.7027 178.513C44.9737 179.522 44.816 180.18 45.0164 180.507ZM78.3497 158.478C78.3609 159.595 78.4666 160.316 78.7171 160.724L79.4516 160.274C79.8597 160.023 79.9543 159.628 79.7039 159.22L79.5035 158.893C79.203 158.404 78.7578 158.228 78.3497 158.478ZM83.3006 157.575L84.3617 156.923L83.961 156.27L83.5529 156.521C83.1448 156.771 83.0502 157.166 83.3006 157.575ZM44.1244 191.503C44.5065 191.943 44.9833 191.987 45.3914 191.737L45.7178 191.536C46.2075 191.236 46.3837 190.791 46.0832 190.301C45.5935 190.601 45.217 190.72 45.0667 190.475C44.7273 191.021 44.3693 191.353 44.1244 191.503ZM84.8183 168.103C85.0687 168.511 85.8589 168.701 87.1889 168.671L90.0455 166.918L89.7951 166.51C87.4671 166.927 85.9108 167.32 85.0946 167.821L84.7682 168.022L84.8183 168.103ZM49.1904 193.899L50.7022 193.983L51.4368 193.532C51.8449 193.282 51.9394 192.887 51.6389 192.397L50.9878 191.336L50.6613 191.536C49.3239 192.469 48.8398 193.328 49.1904 193.899ZM69.439 180.575L69.8397 181.228C70.2218 181.667 70.6169 181.762 71.025 181.511L71.1901 179.95C70.142 180.256 69.5206 180.525 69.439 180.575ZM76.0426 177.421L76.4934 178.156L77.8809 177.304C77.7306 177.059 77.6434 176.551 77.6379 175.993L76.9033 176.443C76.5638 176.989 76.2875 177.271 76.0426 177.421ZM50.2181 194.842L50.1346 196.354C50.335 196.68 51.025 196.706 52.2549 196.513C51.9859 195.892 52.0805 195.497 52.4886 195.246C51.9747 194.775 51.1029 194.636 50.2181 194.842ZM54.3418 198.266C54.5922 198.674 55.3008 198.913 56.6308 198.884L55.937 196.838L55.0336 196.83L54.6256 197.081C54.1859 197.463 54.0913 197.858 54.3418 198.266ZM53.0473 210.071L53.2977 210.479C54.0323 210.028 54.4088 209.91 54.509 210.073C54.8986 209.609 55.1749 209.327 55.4198 209.177L55.1694 208.769C54.4348 209.22 54.0082 209.257 53.8579 209.012C53.5185 209.557 53.2922 209.921 53.0473 210.071ZM58.3562 208.836L58.7569 209.488L60.1444 208.637L59.894 208.229L59.1167 207.695C58.8775 208.403 58.6011 208.685 58.3562 208.836ZM55.2159 216.717L55.4664 217.125L56.5274 216.474L56.0265 215.658C55.6871 216.204 55.4608 216.567 55.2159 216.717ZM58.1209 221.451L58.3714 221.859L59.4324 221.208L59.182 220.8L58.1209 221.451ZM60.3693 224.566L60.4936 225.501L61.3969 225.508L61.805 225.258L61.5546 224.849C61.3357 224.31 60.9406 224.215 60.3693 224.566ZM61.0186 227.088C61.5138 227.346 61.9275 227.654 62.0778 227.899L63.1388 227.248L62.4877 226.187L61.0186 227.088Z" fill="#9CCDEE"/>
<path fill-rule="evenodd" clip-rule="evenodd" d="M52.3535 61.7399C59.2002 59.8977 62.771 58.9423 62.9342 58.8421C68.9739 55.1357 76.787 53.0376 86.2919 52.5977C95.2051 53.7568 102.332 58.5963 107.541 67.0845L105.608 67.5965C105.645 68.0232 105.714 68.3181 105.814 68.4814C106.014 68.8078 107.018 68.9785 108.693 68.9617L108.843 69.2066C112.5 75.1647 113.368 83.1707 111.398 93.1431C114.817 93.4046 118.725 93.3655 123.174 93.1076C129.412 96.1329 133.016 98.5276 134.118 100.323C133.792 100.523 133.729 100.787 133.929 101.113L134.229 101.603C135.372 100.902 137.815 103.784 141.772 110.232C143.963 114.168 145.233 116.422 145.584 116.994C145.439 117.307 145.163 117.589 144.755 117.839L145.055 118.329L145.79 117.878C150.24 126.046 150.778 132.232 147.223 136.324C145.457 138.756 142.982 140.949 139.799 142.902C138.248 143.854 135.342 145.525 131.079 147.916C121.504 154.466 115.483 158.386 112.952 159.939C109.933 161.792 107.837 162.404 106.877 161.757L106.527 161.186C107.566 158.301 108.076 156.752 107.925 156.507L61.3451 80.6029L60.6884 78.9835C60.3749 78.8388 60.0929 78.5624 59.7423 77.9911C59.1913 77.0933 58.0709 75.0844 56.3809 71.9644C55.8801 71.1482 53.604 70.1855 49.4896 69.3398C49.6343 69.0263 50.4968 66.587 52.3535 61.7399ZM64.2292 66.8111C67.7742 71.4892 71.7941 77.6736 76.5523 85.4273L76.7025 85.6721C81.9616 94.242 84.5216 98.9628 84.4641 99.7846C87.089 102.78 88.9885 103.862 90.2944 103.06C90.4947 103.387 92.1141 102.73 94.9392 101.109L96.1634 100.357C101.305 97.2021 105.243 93.5495 107.864 89.5816L108.599 89.1309C108.298 88.6412 108.361 88.3778 108.688 88.1774L107.692 87.1034C95.6006 68.6819 88.2787 59.1309 85.7077 58.2368C84.7672 57.8028 84.2534 57.3316 84.0531 57.0052L85.2773 56.2539C85.2402 55.8272 85.1215 55.4507 84.9212 55.1242L83.8861 55.0853C83.5967 55.7123 83.2072 56.176 82.7991 56.4265C79.2431 55.5751 74.8375 56.8181 69.614 60.0236C65.4571 63.1363 63.7042 65.2232 64.3052 66.2026L64.2292 66.8111ZM79.1874 54.9351L79.2932 55.6567L79.9331 55.6011L80.178 55.4508L80.0277 55.2059C79.7773 54.7979 79.5139 54.7348 79.1874 54.9351ZM60.9479 72.083C61.2298 72.3594 61.4933 72.4224 61.7381 72.2722L62.391 71.8715L62.0905 71.3818L60.9479 72.083ZM88.9427 54.9034C89.1431 55.2298 89.4065 55.2929 89.733 55.0926L89.7589 54.4025L88.9427 54.9034ZM90.8125 54.6547L90.9628 54.8996L91.4525 54.5991L91.0518 53.9461C90.7253 54.1465 90.6623 54.4099 90.8125 54.6547ZM62.8919 72.6877L63.5319 72.632L64.2664 72.1812L64.1162 71.9364C63.9158 71.6099 63.6524 71.5468 63.2443 71.7973L62.9995 71.9475C62.8047 72.1794 62.7417 72.4428 62.8919 72.6877ZM89.8981 58.4742L90.5381 58.4185L90.1374 57.7656C89.7293 58.016 89.7479 58.2293 89.8981 58.4742ZM68.4087 75.8187C68.6906 76.0951 68.9541 76.1582 69.1989 76.0079L69.1432 75.3679L68.4087 75.8187ZM94.9587 65.2558L95.9381 64.6548L95.7878 64.4099C95.5875 64.0835 95.3241 64.0204 94.916 64.2708L94.5079 64.5213L94.9587 65.2558ZM97.8097 62.9445C98.0101 63.2709 97.947 63.5343 97.6205 63.7347C97.9841 63.961 98.216 64.1557 98.3162 64.319L99.2956 63.7179C99.622 63.5176 99.6851 63.2542 99.4848 62.9277L99.3345 62.6829C99.0525 62.4065 98.6259 62.4436 97.8097 62.9445ZM68.8522 82.4002L68.9079 83.0401L69.6424 82.5894C69.392 82.1813 69.1787 82.1998 68.8522 82.4002ZM101.718 62.9054L102.019 63.3951L102.672 62.9944C102.471 62.6679 102.208 62.6049 101.881 62.8052L101.718 62.9054ZM71.2508 85.7595L71.4956 85.6092C72.3118 85.1083 72.6512 84.563 72.5139 83.9731L72.3637 83.7282L71.7107 84.1289C71.3843 84.3293 71.2582 84.8561 71.2508 85.7595ZM96.6728 69.1475L96.8731 69.474L97.7709 68.923L97.5706 68.5966L96.6728 69.1475ZM105.15 72.7089L105.3 72.9537C105.464 72.8535 105.759 72.7849 106.104 72.7979L106.13 72.1078C105.929 71.7813 105.666 71.7183 105.258 71.9687C105.063 72.2006 105 72.464 105.15 72.7089ZM103.445 76.3391C103.646 76.6656 103.909 76.7286 104.236 76.5283L104.275 75.4932L104.03 75.6435C103.803 76.007 103.609 76.2389 103.445 76.3391ZM75.0223 99.9611L75.3228 100.451L76.5471 99.6995C76.3467 99.373 76.0833 99.3099 75.7568 99.5103L75.0223 99.9611ZM110.311 79.6538L111.535 78.9025L111.235 78.4128L110.5 78.8635C110.174 79.0639 110.11 79.3273 110.311 79.6538ZM80.7838 97.9984L80.8394 98.6383L81.4794 98.5826L81.4237 97.9427L80.7838 97.9984ZM106.412 82.2712C106.512 82.4345 106.581 82.7294 106.568 83.0744L107.289 82.9687L107.534 82.8184C107.86 82.6181 107.924 82.3547 107.723 82.0282L106.77 81.9392L106.362 82.1896L106.412 82.2712ZM108.495 82.0041L108.795 82.4938L109.285 82.1932L108.985 81.7035L108.495 82.0041ZM107.708 83.8349L107.959 84.243C108.159 84.5695 108.423 84.6326 108.749 84.4322L108.198 83.5344L107.708 83.8349ZM81.7466 100.666L82.0471 101.155L82.5368 100.855L82.2363 100.365L81.7466 100.666ZM78.2723 104.708C78.3725 104.871 78.341 105.003 78.1777 105.103C78.6916 105.574 79.2184 105.7 79.7582 105.481L79.1571 104.502C78.8121 104.489 78.5172 104.558 78.2723 104.708ZM109.845 85.6695C110.046 85.9959 110.359 86.1406 110.686 85.9403L110.335 85.3689L109.845 85.6695ZM80.7376 104.88L80.8878 105.125L81.6224 104.674L81.4721 104.43L80.7376 104.88ZM89.2575 104.483L89.4077 104.728L89.9791 104.377L89.8288 104.133L89.2575 104.483ZM89.5673 107.551L93.7245 114.326C93.8247 114.489 93.7931 114.62 93.6299 114.721L94.1753 115.06L96.6295 119.059C100.987 126.16 106.465 135.27 113.114 146.47C115.518 150.388 117.862 151.645 120.229 150.193C135.436 140.187 142.338 134.041 140.986 131.837C139.975 127.626 138.361 123.898 136.307 120.552L136.157 120.307C134.805 118.103 131.905 113.928 127.459 107.78C127.83 107.103 128.383 106.539 129.036 106.139L128.735 105.649C128.001 106.1 127.342 105.942 126.891 105.207C127.054 105.107 127.086 104.976 126.986 104.812C126.019 105.068 125.461 105.074 125.311 104.829L124.76 103.931L126.229 103.03C126.129 102.867 126.06 102.572 126.073 102.227C125.383 102.201 124.875 102.288 124.63 102.438C124.73 102.601 124.699 102.733 124.454 102.883C118.575 98.0642 115.008 96.0961 113.621 96.9476C111.45 96.7065 109.272 97.3688 106.906 98.8213L102.417 101.576C100.131 102.978 96.158 104.743 90.6284 106.9L89.5673 107.551ZM106.273 97.9736L106.913 97.9179L107.403 97.6174L107.002 96.9645L106.512 97.265C106.104 97.5154 106.073 97.6471 106.273 97.9736ZM84.598 113.185L84.7482 113.43L85.8909 112.729L85.4401 111.994L84.7872 112.395C84.3791 112.645 84.3976 112.858 84.598 113.185ZM85.0767 116.711L85.3772 117.201C85.6591 117.477 85.9226 117.54 86.1674 117.39L86.4939 117.19C86.8203 116.989 86.8834 116.726 86.6831 116.4L86.3826 115.91L85.0767 116.711ZM122.944 96.3946L122.999 97.0345L123.15 97.2794L123.802 96.8787L123.652 96.6339C123.452 96.3074 123.188 96.2443 122.944 96.3946ZM121.68 98.181L121.831 98.4258C121.981 98.6707 122.376 98.7653 123.016 98.7096L122.905 97.4297L121.87 97.3907C121.593 97.6727 121.53 97.9361 121.68 98.181ZM87.2434 119.876C87.5253 120.152 87.8388 120.297 88.1653 120.096L88.4101 119.946C88.2098 119.62 87.8963 119.475 87.5698 119.675L87.2434 119.876ZM92.6766 119.575C92.9585 119.851 93.2219 119.915 93.5484 119.714L93.7933 119.564C94.1197 119.364 94.1828 119.1 93.9825 118.774L93.8322 118.529L92.6766 119.575ZM90.165 121.341C90.3152 121.586 90.3523 122.013 90.2763 122.621L91.2298 122.71L91.9643 122.259L92.3167 121.369C91.6712 120.866 91.226 120.69 91.0628 120.79L90.165 121.341ZM127.481 100.127L127.781 100.616L128.271 100.316L127.971 99.8262L127.481 100.127ZM130.243 98.7688L130.544 99.2585L131.033 98.958L130.733 98.4682L130.243 98.7688ZM93.2925 123.691L93.4428 123.936C93.6431 124.263 93.9065 124.326 94.233 124.125L94.3962 124.025C94.246 123.78 93.9325 123.636 93.2925 123.691ZM93.9492 125.311L94.2498 125.8C94.4 126.045 94.7951 126.14 95.3535 126.134L95.8432 125.834C96.1696 125.633 96.2327 125.37 96.0324 125.043L95.8821 124.799C95.6818 124.472 95.4183 124.409 95.0919 124.609L93.9492 125.311ZM128.41 104.388L128.711 104.877L129.446 104.426L129.145 103.937L128.41 104.388ZM131.662 102.729L131.963 103.219L132.452 102.918L132.152 102.429L131.662 102.729ZM94.1144 128.692L94.6041 128.392L94.2535 127.82L93.7638 128.121L94.1144 128.692ZM131.508 110.351L131.564 110.991L131.965 111.644L133.339 111.138L133.033 110.09C132.261 110.114 131.753 110.201 131.508 110.351ZM135.018 108.197L135.318 108.687C135.645 108.487 135.708 108.223 135.508 107.897L135.018 108.197ZM99.8 132.282C101.154 133.023 102.352 132.962 103.413 132.311L103.658 132.161C103.439 131.621 102.109 131.651 99.8 132.282ZM138.435 109.921L139.088 109.52L138.938 109.275C138.737 108.949 138.424 108.804 138.097 109.004L137.934 109.104L138.435 109.921ZM96.4574 136.355L96.5131 136.995L97.2476 136.544C97.0473 136.218 96.7839 136.155 96.4574 136.355ZM140.279 110.362C140.561 110.638 140.824 110.702 141.151 110.501L141.395 110.351L141.095 109.861L140.279 110.362ZM141.974 118.984L142.464 118.683C142.791 118.483 142.854 118.22 142.653 117.893L142.164 118.194C141.937 118.557 141.874 118.821 141.974 118.984ZM107.869 141.037L108.509 140.981L108.754 140.831L108.303 140.096L108.059 140.247C107.65 140.497 107.669 140.71 107.869 141.037ZM141.631 127.396L141.982 127.968C142.208 127.604 142.353 127.291 142.435 127.24L142.284 126.996L141.631 127.396ZM142.585 127.485L142.986 128.138L143.557 127.788C143.883 127.587 143.946 127.324 143.746 126.997L142.585 127.485ZM141.891 130.383L142.292 131.036L143.19 130.485L142.789 129.832L141.891 130.383ZM143.794 133.484L143.945 133.729C144.271 133.529 144.648 133.41 144.993 133.423L144.937 132.783L144.787 132.538L143.794 133.484ZM145.933 133.857C146.215 134.133 146.479 134.197 146.723 134.046L147.05 133.846C147.376 133.646 147.439 133.382 147.239 133.056L146.204 133.017C145.764 133.399 145.733 133.531 145.933 133.857ZM133.142 143.954L133.876 143.503L133.576 143.014L133.331 143.164C133.054 143.446 132.941 143.628 133.142 143.954Z" fill="#9CCDEE"/>
<path fill-rule="evenodd" clip-rule="evenodd" d="M149.935 8.37348C151.567 7.37176 156.223 6.53689 164.016 5.68712L164.424 5.4367L164.925 6.25287C163.782 6.95409 163.461 7.71278 163.962 8.52895L166.428 8.7014L167.815 7.84993L166.763 6.13596L165.854 5.57022L166.262 5.31978C169.959 3.83756 172.15 2.83026 172.803 2.42957L174.016 0.561586C178.9 2.84493 182.66 6.04281 185.215 10.2053C184.888 10.4057 184.649 11.1143 184.66 12.231C185.558 11.68 186.217 11.8377 186.717 12.6538C190.799 20.0365 192.268 24.0785 191.207 24.7296C189.493 25.7814 186.176 24.2215 181.257 20.0498C181.583 19.8494 181.564 19.6361 181.414 19.3912C180.479 19.5156 177.671 17.8684 173.202 14.4313C168.492 13.1644 165.337 12.966 163.949 13.8175L159.624 16.4721L156.808 15.7283L156.4 15.9787L157.309 16.5445L156.743 17.4534L149.479 21.9111C151.099 31.1414 151.475 35.9662 150.741 36.417C150.333 36.6674 150.175 37.3259 150.318 38.4742C150.939 38.2052 151.384 38.3814 151.635 38.7895C152.65 45.0203 155.579 55.4693 160.241 70.0233C161.239 74.5791 161.575 76.9572 161.004 77.3078C159.961 78.1722 159.64 78.9309 160.141 79.7471L160.391 80.1552L164.224 80.7246L166.027 83.6628C166.628 84.6422 166.916 85.477 166.971 86.1169L168.682 87.9885C181.292 112.383 189.291 127.249 192.697 132.799C206.22 154.835 221.719 172.402 239.112 185.547C244.304 187.417 249.047 187.09 253.21 184.536C256.556 182.482 260.62 178.303 265.434 171.866C266.124 171.892 266.745 171.623 267.48 171.172C267.329 170.928 267.311 170.714 267.637 170.514L266.678 169.867L266.428 169.458C271.584 159.553 273.092 152.673 270.838 149C270.779 146.34 269.204 141.576 266.245 134.741L267.143 134.19C272.483 137.766 278.535 145.063 285.246 156L288.953 162.04L289.014 163.238C286.159 163.529 284.07 163.238 282.716 162.496L282.215 161.68C282.015 161.354 282.128 161.172 282.373 161.022C281.527 160.192 280.16 159.796 278.158 160.013L277.75 160.263C275.489 172.324 269.763 181.119 260.541 186.779C245.033 196.295 227.32 193.795 207.533 179.31C200.565 172.35 194.377 164.463 188.867 155.485C187.715 153.608 180.66 141.196 167.753 118.332L168.161 118.082C167.961 117.755 167.747 117.774 167.503 117.924C151.588 86.6812 142.722 67.2914 141.001 59.3596C136.198 47.1391 134.673 37.5137 136.244 30.3701C137.974 21.1064 139.386 16.083 140.529 15.3818C145.351 11.5234 148.548 9.22495 149.935 8.37348ZM144.224 15.3613L144.474 15.7694C144.956 16.3723 145.402 16.5485 145.891 16.2479L147.763 14.5376C147.412 13.9663 146.886 13.8402 146.396 14.1407L144.274 15.4429L144.224 15.3613ZM154.712 11.397L155.778 11.3042L156.186 11.0538C155.509 10.6828 155.177 10.3248 155.027 10.0799C154.537 10.3805 154.411 10.9073 154.712 11.397ZM157.331 13.8344L157.581 14.2424L159.954 13.3483L159.453 12.5321C158.882 12.8827 158.455 12.9198 158.305 12.675C157.965 13.2203 157.657 13.634 157.331 13.8344ZM142.395 23.0002L142.645 23.4082C143.298 23.0076 143.97 22.8202 144.61 22.7645L144.517 21.6979L142.395 23.0002ZM148.396 25.2724L149.462 25.1796L148.711 23.9553C148.221 24.2558 148.095 24.7827 148.396 25.2724ZM178.034 8.2077C178.234 8.53417 178.121 8.71595 177.876 8.86622C178.472 9.28728 178.886 9.5952 179.036 9.84005L180.75 8.78822C180.55 8.46175 180.512 8.03511 180.407 7.31353L178.034 8.2077ZM147.826 29.1048L148.327 29.9209L149.225 29.37L148.724 28.5538L147.826 29.1048ZM144.312 40.5871L145.113 41.893C145.684 41.5424 145.81 41.0156 145.46 40.4443L145.209 40.0362L144.312 40.5871ZM138.385 49.0552C138.636 49.4633 139.344 49.7026 140.361 49.5282C140.932 49.1776 140.976 48.7009 140.676 48.2112L140.125 47.3134L138.085 48.5655L138.385 49.0552ZM143.034 49.1238L143.85 48.6229L143.299 47.7251C142.859 48.1072 142.733 48.6341 143.034 49.1238ZM149.326 64.1378C150.945 63.4811 151.862 63.1434 152.107 62.9932L151.606 62.177C151.255 61.6057 150.81 61.4295 150.239 61.7801C149.428 62.8393 149.076 63.7297 149.326 64.1378ZM151.1 70.6895C151.927 71.3053 152.422 71.5632 152.749 71.3628C153.12 70.6857 153.478 70.3537 153.723 70.2034L153.222 69.3872C152.871 68.8159 152.344 68.6898 151.773 69.0404C151.157 69.8677 150.949 70.4446 151.1 70.6895ZM154.663 75.581L155.214 76.4788L156.438 75.7275C156.088 75.1561 155.561 75.03 155.071 75.3305L154.663 75.581ZM157.257 88.5954L157.507 89.0035C157.758 89.4116 158.466 89.6509 159.665 89.5896L159.314 89.0183C159.164 88.7734 158.505 88.6158 157.257 88.5954ZM166.752 90.5206L166.845 91.5872L168.069 90.8359C167.719 90.2646 167.324 90.17 166.752 90.5206ZM168.326 106.633L168.877 107.531L170.183 106.729L169.632 105.832L168.326 106.633ZM170.999 106.228C171.513 106.7 171.908 106.794 172.316 106.544L172.887 106.193L172.386 105.377L170.999 106.228ZM184.235 142.261L184.485 142.669L186.281 141.567L186.782 142.383L186.374 142.634C185.652 142.74 185.144 142.827 184.736 143.077C185.086 143.649 185.726 143.593 186.624 143.042C186.914 142.415 187.272 142.083 187.68 141.832L187.179 141.016C186.828 140.445 186.27 140.451 185.372 141.001C184.951 141.597 184.643 142.011 184.235 142.261ZM191.326 140.269L191.469 141.417L191.72 141.825C192.202 142.428 192.647 142.604 193.137 142.303C193.708 141.953 193.753 141.476 193.352 140.823L192.851 140.007C192.556 140.076 192.048 140.163 191.326 140.269ZM190.581 149.49L191.332 150.714L193.297 150.07L193.597 150.56L193.582 152.367L193.833 152.775L194.649 152.274C195.057 152.023 195.296 151.315 195.122 150.298L193.519 147.687C193.169 147.115 192.723 146.939 192.152 147.29L190.928 148.041C190.375 148.605 190.281 149 190.581 149.49ZM196.32 150.237L196.821 151.053C197.148 150.853 197.574 150.816 198.296 150.71L198.045 150.302C197.695 149.731 197.218 149.686 196.728 149.987L196.32 150.237ZM201.817 149.673L202.368 150.571L202.776 150.32L202.225 149.423L201.817 149.673ZM201.687 158.067L202.754 157.974L204.141 157.123C204.712 156.772 204.839 156.245 204.538 155.755L202.6 155.709C201.757 156.9 201.437 157.659 201.687 158.067ZM199.088 164.268C199.389 164.758 200.311 164.978 201.904 165.012L202.72 164.511L203.394 162.862C202.234 161.888 201.476 161.567 201.068 161.818L200.251 162.318C199.917 163.422 199.496 164.018 199.088 164.268ZM208.163 161.845L208.664 162.661L209.888 161.91C209.537 161.339 209.061 161.294 208.489 161.645L208.163 161.845ZM272.28 145.307L273.031 146.531L274.255 145.779L273.504 144.555L272.28 145.307ZM276.963 147.263L277.514 148.161L278.331 147.66L277.78 146.763L276.963 147.263ZM230.087 183.108L230.588 183.924L232.302 182.873C231.952 182.301 231.475 182.257 230.985 182.557L230.087 183.108ZM269.071 172.667L270.219 172.525L271.444 171.773L271.193 171.365C270.843 170.794 270.366 170.749 269.795 171.1L269.386 171.35C268.865 171.783 268.771 172.178 269.071 172.667ZM245.719 189.357L246.471 190.582C246.892 189.986 247.2 189.572 247.444 189.422L247.194 189.014C246.868 189.214 246.359 189.302 245.719 189.357Z" fill="#9CCDEE"/>
</svg>
