<svg width="89" height="89" viewBox="0 0 89 89" fill="none" xmlns="http://www.w3.org/2000/svg">
<path d="M9.72023 53.9403C10.6787 51.8316 12.5421 50.4477 14.1326 49.2333C15.6478 48.1412 16.9459 46.5785 18.3386 45.4112C19.7313 44.2438 21.4442 43.1047 22.4973 41.3914C22.7982 40.9019 23.8621 40.5441 24.6057 40.1581C25.4246 39.6497 25.9984 38.9907 26.9871 38.7554C28.8419 38.2093 27.9929 36.8444 27.6339 35.7806C26.9912 33.5308 25.2846 31.6388 24.2465 29.4832C23.4254 27.7982 22.9246 26.1414 22.3012 24.4094C22.0841 23.9387 22.0648 23.421 21.7725 23.0727C21.1406 22.1784 20.6784 21.5572 21.9207 20.6346C23.0404 19.6367 23.653 20.0132 24.8308 20.5685C26.2537 21.2745 27.4981 22.5452 28.9016 22.7334C31.2658 23.0063 32.8026 24.6253 34.7155 25.6325C35.8933 26.1878 36.8175 27.4304 38.0427 28.1834C38.9002 28.7105 39.2957 28.6163 39.9168 28.155C41.0839 27.3548 42.1284 26.4793 43.2954 25.6791C43.9918 25.0954 45.0084 24.54 45.9497 24.1069C47.4843 23.5326 48.8491 22.6853 49.6292 21.1414C49.7797 20.8967 50.0805 20.4072 50.203 20.4825C52.1718 20.8495 53.1776 18.9385 55.0045 18.7125C56.1157 18.5524 57.4052 17.8275 58.252 16.999C58.9483 16.4154 59.3159 16.6413 59.8811 16.8201C60.4937 17.1966 61.1062 17.5731 60.8999 18.458C60.6936 19.3429 60.4121 20.3501 60.0833 21.1597C59.2 23.146 58.882 25.3112 57.8009 27.3445C56.8424 29.4532 56.374 31.8631 55.538 34.0471C54.8524 35.9863 55.3339 37.1253 56.7761 38.349C58.8781 40.1469 60.9049 42.0671 62.8565 44.1098C64.0064 44.9852 65.3541 45.8135 66.3256 47.2537C66.835 48.0727 67.7398 48.7974 68.4749 49.2493C70.8972 51.0754 72.1997 53.8993 74.4243 55.7725C75.4517 56.5726 75.0756 57.1845 73.9365 57.6647C71.7335 58.5026 69.7733 57.2978 67.7573 56.7331C65.8637 56.2436 63.7446 56.1214 61.8983 55.8297C59.7318 55.5097 57.4901 55.3121 55.3236 54.9922C53.7977 54.7287 52.4135 55.0582 51.038 54.55C50.2277 54.2206 49.6732 55.3973 49.5701 55.8397C48.4719 59.5487 46.7612 62.8812 45.418 66.4396C44.2531 69.4331 43.1635 72.3043 42.2437 75.4485C42.0654 76.0133 42.0568 76.8511 41.8032 77.5383C41.5496 78.2255 41.4658 79.1857 40.6276 79.1763C39.9871 79.1199 39.2993 78.8658 38.5922 78.0939C37.423 76.7007 37.1951 74.8745 37.3541 73.792C37.7473 71.5045 36.6812 69.6689 36.4061 67.645C36.2449 66.5342 36.5264 65.5269 36.2426 64.3408C35.9589 63.1547 36.0706 61.8745 35.2689 60.7073C35.0991 60.4343 34.8068 60.086 34.9099 59.6436C35.9437 57.4125 34.3875 55.2757 34.5078 53.1577C34.5358 52.8376 34.2907 52.687 34.093 52.7341C31.9373 53.7697 29.4312 52.9038 27.153 53.8641C25.5432 54.5607 23.6497 54.0713 21.9174 54.6927C18.9235 55.719 15.8909 55.7097 12.9249 56.4159C12.2565 56.6795 11.0228 56.7643 9.91161 56.9244C9.12068 57.1127 8.40497 57.1786 8.06537 56.6326C7.89557 56.3597 8.54463 55.5783 8.723 55.0135C8.90137 54.4487 9.73959 54.458 9.72023 53.9403ZM55.8928 40.3353C55.0158 39.2905 53.8939 38.095 52.7246 36.7019C52.2625 36.0806 51.9702 35.7323 52.3742 34.8003C52.9287 33.6236 53.4832 32.4469 54.0377 31.2702C54.2913 30.583 53.5562 30.1312 54.13 29.4722C55.325 28.3519 54.8048 26.1774 56.2448 25.2077C56.32 25.0854 56.348 24.7653 56.3007 24.5676C56.1867 23.6545 56.1953 22.8167 56.9669 22.1107C57.2398 21.9412 57.8889 21.1598 57.229 20.5857C56.6917 20.0868 56.1931 20.6234 55.7224 20.8399C54.0847 21.8566 52.2772 22.6004 50.762 23.6925C49.322 24.6621 47.4951 24.8881 46.2249 26.1308C45.8015 26.545 45.5952 27.4299 44.8322 27.2982C43.3535 27.2323 42.2338 28.2302 41.2645 28.9834C38.9304 30.5838 37.3292 30.4427 35.1519 28.7672C33.8795 27.8165 32.5598 26.6681 30.8361 26.4517C29.3101 26.1882 29.1187 23.2041 26.8599 24.6821C26.8599 24.6821 26.7373 24.6068 26.6148 24.5315C26.445 24.2586 26.1527 23.9103 25.8045 24.2021C25.3812 24.6163 25.5982 25.087 25.768 25.36C25.8626 25.7553 26.1549 26.1036 26.127 26.4237C26.8084 29.709 29.0996 32.2976 30.3742 35.4416C30.5913 35.9123 31.4768 36.1193 31.148 36.9289C30.8944 37.6161 30.7354 38.6987 30.1895 39.0376C28.0811 40.2709 26.8024 42.3513 24.7692 43.4622C20.7501 45.8817 18.2678 49.9203 14.296 52.5374C14.2681 52.8575 14.1176 53.1022 14.2874 53.3752C14.382 53.7706 14.7302 53.4788 14.9279 53.4317C17.5178 53.3374 19.796 52.3771 22.2913 51.8875C24.2686 51.4167 26.3964 50.7012 28.421 50.4281C29.9276 50.1738 31.632 49.8725 33.2332 50.0136C34.6367 50.2018 36.3024 48.865 37.4157 50.8983C37.5855 51.1712 38.0562 50.9547 37.6801 51.5666C37.2761 52.4986 36.8441 53.7506 38.1445 54.3812C38.757 54.7577 38.3615 54.8519 38.2111 55.0967C37.8737 56.744 37.3386 58.4385 39.0258 59.8128C39.2708 59.9634 39.1677 60.4058 38.8947 60.5753C38.4713 60.9895 38.6884 61.4602 38.7078 61.9779C38.437 64.3407 39.6729 66.4493 39.7977 68.7179C39.7891 69.5557 39.7999 70.9113 40.3093 71.7302C40.3566 71.9279 40.3286 72.248 40.7241 72.1538C40.9218 72.1068 41.0444 72.1821 41.0723 71.862C41.184 70.5818 41.7385 69.405 42.4155 68.3036C43.8447 65.9784 44.1434 63.2955 45.3275 60.8197C46.286 58.711 46.9243 56.5741 47.5153 54.2395C47.7968 53.2323 48.2482 52.498 49.4818 52.4132C52.0996 51.9989 54.6337 52.5447 57.2429 52.9682C59.3621 53.0905 61.5286 53.4104 63.6198 53.8527C64.1851 54.0316 64.6085 53.6173 65.4188 53.9468C66.7943 54.455 68.3397 55.2363 70.0161 55.255C70.3364 55.2832 70.5814 55.4338 70.8071 55.0667C70.835 54.7466 70.59 54.596 70.4202 54.323C68.8361 52.5063 66.9511 51.1791 65.2166 49.6071C64.1892 48.807 63.9807 47.4986 62.9533 46.6985C60.286 44.7218 58.2119 42.6038 55.8928 40.3353Z" fill="white"/>
<path d="M43.9492 38.8956C43.6011 39.1875 43.3281 39.3569 42.8381 39.0557C42.4232 38.6321 42.2512 36.1658 42.8724 35.7045C43.2205 35.4127 43.9083 35.6668 44.2758 35.8927C44.6434 36.1186 44.4479 38.359 43.9492 38.8956Z" fill="white"/>
<path d="M43.5044 46.2101C44.7467 45.2875 45.4345 45.5416 45.7655 46.9254C44.8241 47.3585 44.1363 47.1043 43.5044 46.2101Z" fill="white"/>
</svg>
