<svg width="261" height="247" viewBox="0 0 261 247" fill="none" xmlns="http://www.w3.org/2000/svg">
<path fill-rule="evenodd" clip-rule="evenodd" d="M73.7057 7.46817C82.371 9.19153 89.8242 13.2741 95.9582 19.7874L95.7983 20.5914L90.7063 19.5787C88.7519 29.4054 87.7823 41.2852 87.6902 55.2898C86.5471 55.4339 85.601 55.9887 84.8873 56.7754L87.7125 59.3803C88.2557 82.7979 88.057 97.3385 86.92 103.056C86.652 103.003 86.5271 103.163 86.4738 103.431C87.0991 103.556 86.8179 107.772 85.5584 115.972C86.6735 122.973 86.3469 134.888 84.5788 151.717L83.2285 158.506C84.6578 158.79 84.9318 164.417 84.1754 175.225C83.9089 176.565 85.2139 177.474 88.0725 178.043C87.9837 178.489 88.8237 178.935 90.7891 179.326L90.6292 180.13C86.8066 180.206 83.4302 179.905 80.3929 179.301L75.6582 178.36C68.0649 176.85 67.3647 157.023 73.4684 118.861C71.7878 117.505 68.982 116.204 65.1046 115.155C55.1901 114.576 48.0084 113.798 43.6311 112.927L41.6658 112.536C40.4872 112.859 39.8268 113.378 39.6669 114.182L38.9522 114.04C38.6842 113.986 38.5233 113.861 38.5766 113.593C38.0767 113.773 37.6122 113.773 37.4336 113.738C37.327 114.274 37.631 114.613 38.3457 114.755C36.2249 119.348 34.2809 122.119 32.6739 122.728L32.585 123.174C33.389 123.334 33.6931 123.673 33.6042 124.12L33.3733 125.281C33.2489 125.907 31.2125 125.873 27.2285 125.359C27.229 125.824 27.4437 126.145 27.8011 126.216L28.9624 126.447L29.8552 126.16C29.8222 128.661 30.3952 129.982 31.5566 130.213C29.8302 136.092 28.6546 139.202 28.0476 139.452C27.9943 139.72 27.9948 140.185 28.2633 140.702C26.5364 146.117 25.271 148.744 24.6456 148.62L23.931 148.477L23.6289 149.996C23.8969 150.049 24.3081 150.317 24.7014 150.674C23.0802 154.623 22.1188 157.589 21.7279 159.555C22.4471 163.877 22.7714 166.449 22.6292 167.163L21.7364 167.45C18.0377 166.436 14.8572 165.618 12.2666 165.102L12.4265 164.298L11.0865 164.032L11.391 164.835L11.3199 165.193L8.81861 164.695C8.28261 164.589 8.15725 164.285 8.24608 163.838C12.2245 159.243 14.5244 155.15 15.2173 151.666L15.932 151.809L16.0208 151.362L15.5371 150.058C34.1032 89.8585 47.9241 52.1173 57.0176 36.7455C57.1242 36.2095 57.9632 35.7263 59.4631 35.1888C58.6591 35.0289 58.3551 34.6898 58.4439 34.2431L59.1028 32.3311L61.8904 33.257L62.299 31.2023C60.9946 30.7571 60.4403 30.2754 60.5647 29.6501C63.8087 23.1445 65.6259 18.6769 66.0878 16.3542C66.1589 15.9969 65.461 14.8365 63.887 12.9448C63.4739 10.8195 63.4541 9.05114 63.7561 7.53248C65.9702 6.67268 69.239 6.57984 73.7057 7.46817ZM75.1287 18.5237C71.635 25.3511 67.322 34.4301 62.2968 45.6891L61.8501 45.6002L59.2229 44.3348L59.1518 44.6921C59.0985 44.9601 59.832 45.9418 61.4415 47.6549C58.9136 55.6959 56.7741 59.4494 55.0768 59.1118L54.9879 59.5585C55.5239 59.6651 56.1137 59.9681 56.5071 60.325L47.512 84.0743L46.7085 84.3789L46.7643 86.4331C43.241 99.0123 41.1756 105.195 40.5502 105.071C39.9609 105.232 39.5858 105.25 39.3178 105.197L39.229 105.644C39.1579 106.001 39.6767 106.661 40.8745 107.643C43.1972 108.105 51.9691 109.292 67.4583 111.258L68.2628 111.882C70.8707 111.844 72.5498 111.806 73.1751 111.931L75.5754 18.6126L75.1287 18.5237ZM58.5368 37.5119L60.431 38.2601L61.0376 37.545L60.2153 37.01L59.5007 36.8678C58.9469 36.8506 58.6256 37.0653 58.5368 37.5119ZM76.779 41.5114L77.7627 42.6357C78.2094 42.7246 78.6555 42.349 79.155 41.7053L78.4398 41.0988L77.7252 40.9567C77.1892 40.8501 76.8679 41.0648 76.779 41.5114ZM81.1939 44.061C81.1944 44.5255 81.4091 44.8468 81.8558 44.9356C82.4811 45.06 82.8024 44.8453 82.8912 44.3986C82.9978 43.8626 82.7831 43.5413 82.1578 43.4169C81.5863 43.489 81.2827 43.6144 81.1939 44.061ZM79.7641 43.3123L79.6752 43.759L80.8366 43.99L80.9254 43.5433L79.7641 43.3123ZM81.0898 46.9192L81.001 47.3659L82.1623 47.5968L82.411 46.3462L81.9644 46.2573C81.4999 46.2578 81.1786 46.4725 81.0898 46.9192ZM76.219 52.2654C76.2017 52.8192 76.4342 53.0512 76.8809 53.14L77.3275 53.2288L77.4697 52.5142L76.219 52.2654ZM79.9592 58.6742L79.8704 59.1208L81.7469 59.9584L82.1555 57.9037L81.2622 57.726C81.012 57.5834 80.5658 57.959 79.9592 58.6742ZM86.0156 59.5072L85.8735 60.2219L86.6775 60.3818C86.677 59.9173 86.4623 59.596 86.0156 59.5072ZM54.8566 53.6818C54.8215 54.3249 55.0362 54.6462 55.5722 54.7528L55.9296 54.8238L56.1072 53.9305L54.8566 53.6818ZM51.2815 67.9223L51.2104 68.2796C51.1754 68.9227 51.3901 69.244 51.7474 69.3151L52.3718 68.5106L51.7282 68.0111L51.2815 67.9223ZM77.4784 77.2185L78.2829 77.8428C78.8189 77.9494 79.1402 77.7347 79.2646 77.1094L78.5317 76.5921C77.8886 76.5571 77.5673 76.7718 77.4784 77.2185ZM82.875 79.0347L82.7151 79.8387C82.6978 80.3924 82.8947 80.8031 83.3414 80.8919C83.8774 80.9985 84.288 80.8016 84.4124 80.1762C84.519 79.6402 84.3043 79.3189 83.6789 79.1946L82.875 79.0347ZM84.1341 87.1788L86.1 88.0341L86.635 87.2118L85.902 86.6946L85.1874 86.5524C84.5265 86.6067 84.2052 86.8214 84.1341 87.1788ZM41.3988 80.2583C41.3455 80.5263 41.078 80.9374 40.7211 81.3308L41.5256 81.9551L41.883 82.0262C42.419 82.1328 42.6509 81.9003 42.7398 81.4537L41.8454 80.3471L41.3988 80.2583ZM84.6366 89.3218L84.5478 89.7684L85.2624 89.9106L85.3513 89.4639L84.6366 89.3218ZM41.2769 83.2058L41.117 84.0098C41.0997 84.5636 41.3144 84.8849 41.7611 84.9737L42.0809 83.3657L41.2769 83.2058ZM36.2817 89.1774L36.1041 90.0707L36.9081 90.2306L37.0857 89.3373L36.2817 89.1774ZM35.1955 92.3045L35.0178 93.1979C35.5538 93.3045 35.9644 93.1075 36.0888 92.4822L35.1955 92.3045ZM39.6291 95.6937L40.6483 96.6393L41.0057 96.7104C41.4523 96.7992 41.7736 96.5845 41.8624 96.1379C41.7543 95.2806 41.6645 94.7984 41.3965 94.7451C40.2357 94.9785 39.7002 95.3364 39.6291 95.6937ZM77.1298 101.852C76.4162 102.638 76.0238 103.21 75.935 103.657L76.739 103.817C77.1856 103.906 77.5069 103.691 77.5958 103.244L77.6668 102.887C77.7734 102.351 77.5765 101.941 77.1298 101.852ZM81.1696 104.42L82.3309 104.651L82.4731 103.936L82.0264 103.847C81.5797 103.758 81.2584 103.973 81.1696 104.42ZM31.9022 102.794C31.8849 103.347 32.1889 103.686 32.6356 103.775L32.9929 103.846C33.5289 103.953 33.9396 103.756 34.0462 103.22C33.5102 103.113 33.1706 102.953 33.2239 102.685C32.6346 102.846 32.1702 102.847 31.9022 102.794ZM75.4267 112.75C75.3379 113.197 75.7673 113.839 76.7149 114.678L79.8416 115.299L79.9304 114.853C78.0357 113.64 76.6952 112.909 75.8018 112.732L75.4445 112.661L75.4267 112.75ZM33.8903 107.739L34.8917 108.774L35.6957 108.934C36.1424 109.023 36.4637 108.808 36.5703 108.272L36.8012 107.111L36.4439 107.04C34.9075 106.827 34.0146 107.114 33.8903 107.739ZM56.6337 111.52L56.4916 112.234C56.4743 112.788 56.689 113.109 57.1357 113.198L58.26 112.215C57.3306 111.751 56.7231 111.537 56.6337 111.52ZM63.2809 113.585L63.121 114.389L64.6397 114.691C64.693 114.423 64.9605 114.012 65.3173 113.618L64.5133 113.458C63.924 113.62 63.5489 113.638 63.2809 113.585ZM33.9989 109.061L32.9639 110.063C32.8928 110.42 33.3578 110.884 34.3409 111.544C34.5546 110.936 34.8759 110.721 35.3226 110.81C35.2683 110.149 34.7496 109.489 33.9989 109.061ZM34.6652 114.116C34.5764 114.562 34.9165 115.187 35.8641 116.026L36.7016 114.149L36.0758 113.56L35.6291 113.472C35.0754 113.454 34.7541 113.669 34.6652 114.116ZM26.1348 121.52L26.0459 121.967C26.8499 122.127 27.1895 122.287 27.154 122.466C27.7255 122.394 28.1006 122.375 28.3686 122.429L28.4574 121.982C27.6534 121.822 27.3316 121.572 27.3849 121.304C26.7956 121.466 26.4028 121.573 26.1348 121.52ZM30.639 124.087L30.4968 124.802L32.0155 125.104L32.1043 124.657L31.9069 123.782C31.2821 124.122 30.907 124.141 30.639 124.087ZM23.3547 127.561L23.2658 128.007L24.4272 128.238L24.6048 127.345C24.0155 127.506 23.6227 127.614 23.3547 127.561ZM22.3242 132.742L22.2354 133.189L23.3967 133.42L23.4855 132.973L22.3242 132.742ZM21.8816 136.369L21.3643 137.102L21.9902 137.69L22.4368 137.779L22.5257 137.333C22.7216 136.814 22.5069 136.493 21.8816 136.369ZM20.705 138.549C20.8841 139.049 20.974 139.531 20.9207 139.799L22.082 140.03L22.313 138.869L20.705 138.549Z" fill="white"/>
<path fill-rule="evenodd" clip-rule="evenodd" d="M121.482 17.5271C127.451 20.6645 130.561 22.3045 130.74 22.3401C137.351 23.6548 144.16 27.2379 151.079 33.0716C156.552 39.6392 158.401 47.6219 156.553 56.9126L154.873 56.0212C154.623 56.343 154.481 56.5933 154.445 56.7719C154.374 57.1293 154.964 57.8967 156.145 58.9672L156.091 59.2352C154.794 65.7565 150.228 71.9063 142.41 77.5951C144.628 79.9863 147.381 82.4841 150.653 85.1779C153.053 91.3201 154.022 95.3204 153.631 97.2857C153.274 97.2146 153.06 97.3578 152.989 97.7151L152.882 98.2511C154.133 98.4998 153.976 102.09 152.572 109.148C151.559 113.311 150.99 115.705 150.865 116.33C150.562 116.456 150.187 116.474 149.74 116.385L149.633 116.921L150.437 117.081C148.267 125.658 144.646 130.324 139.52 130.883C136.716 131.44 133.572 131.372 130.088 130.679C128.391 130.341 125.282 129.63 120.762 128.545C109.846 126.932 103.11 125.778 100.341 125.227C97.0356 124.57 95.1769 123.643 94.9257 122.571L95.0501 121.946C97.6387 120.603 98.9955 119.852 99.0488 119.584L115.572 36.5038L116.16 34.9491C116.034 34.6455 116.016 34.2704 116.14 33.6451C116.336 32.6624 116.851 30.5362 117.687 27.2664C117.865 26.3731 116.898 24.2306 114.573 20.982C114.876 20.8567 117.054 19.7111 121.482 17.5271ZM126.495 28.7395C125.948 34.2955 124.758 41.2097 123.07 49.6963L123.017 49.9643C121.152 59.3443 119.889 64.2937 119.318 64.8302C119.215 68.6172 119.842 70.5993 121.271 70.8836C121.2 71.2409 122.755 71.8287 125.774 72.5221L127.114 72.7886C132.742 73.9079 137.851 73.9024 142.244 72.8259L143.048 72.9858C143.155 72.4498 143.369 72.3067 143.726 72.3777L143.725 70.9844C147.186 50.3134 148.245 38.9158 147.028 36.6306C146.652 35.72 146.598 35.0592 146.669 34.7018L148.009 34.9683C148.259 34.6465 148.419 34.307 148.49 33.9496L147.793 33.2537C147.186 33.5045 146.614 33.5765 146.167 33.4877C144.235 30.596 140.357 28.6174 134.639 27.4803C129.727 26.9676 127.155 27.2919 126.942 28.3639L126.495 28.7395ZM144.61 30.1133L144.217 30.6853L144.7 31.0599L144.968 31.1132L145.021 30.8452C145.11 30.3986 144.967 30.1844 144.61 30.1133ZM120.799 30.2997C120.817 30.6748 120.96 30.889 121.228 30.9423L121.943 31.0845L122.049 30.5485L120.799 30.2997ZM151.44 36.3937C151.369 36.751 151.512 36.9652 151.87 37.0363L152.333 36.5713L151.44 36.3937ZM152.906 37.4281L152.853 37.6961L153.389 37.8027L153.531 37.0881C153.174 37.017 152.959 37.1601 152.906 37.4281ZM121.765 31.9778L122.248 32.3524L123.052 32.5123L123.105 32.2443C123.176 31.887 123.033 31.6728 122.586 31.5839L122.318 31.5306C122.033 31.5667 121.819 31.7098 121.765 31.9778ZM149.8 39.5036L150.283 39.8782L150.425 39.1635C149.978 39.0747 149.853 39.2356 149.8 39.5036ZM123.593 37.7277C123.612 38.1028 123.755 38.317 124.023 38.3703L124.397 37.8876L123.593 37.7277ZM148.951 47.507L150.023 47.7202L150.077 47.4522C150.148 47.0949 150.005 46.8807 149.558 46.7919L149.111 46.703L148.951 47.507ZM152.435 47.7355C152.364 48.0928 152.15 48.236 151.792 48.1649C151.9 48.5578 151.936 48.8435 151.9 49.0222L152.972 49.2354C153.33 49.3065 153.544 49.1633 153.615 48.806L153.668 48.538C153.65 48.1629 153.328 47.9132 152.435 47.7355ZM119.651 42.6085L119.276 43.0912L120.08 43.2511C120.169 42.8044 120.008 42.6795 119.651 42.6085ZM155.188 50.2333L155.082 50.7693L155.796 50.9115C155.868 50.5541 155.724 50.3399 155.367 50.2689L155.188 50.2333ZM119.155 46.5031L119.423 46.5564C120.316 46.7341 120.906 46.5727 121.191 46.0722L121.244 45.8042L120.53 45.6621C120.172 45.591 119.744 45.8773 119.155 46.5031ZM147.634 51.3311L147.563 51.6884L148.545 51.8839L148.616 51.5265L147.634 51.3311ZM151.25 59.294L151.197 59.562C151.376 59.5976 151.626 59.7402 151.859 59.9722L152.322 59.5072C152.394 59.1499 152.25 58.9357 151.804 58.8469C151.518 58.8829 151.304 59.026 151.25 59.294ZM147.715 60.7269C147.644 61.0842 147.787 61.2984 148.145 61.3695L148.84 60.6721L148.572 60.6188C148.18 60.7264 147.894 60.7624 147.715 60.7269ZM112.613 58.8534L112.506 59.3894L113.846 59.6558C113.917 59.2985 113.774 59.0843 113.417 59.0133L112.613 58.8534ZM150.366 67.4762L151.706 67.7427L151.813 67.2067L151.009 67.0468C150.651 66.9757 150.437 67.1188 150.366 67.4762ZM117.903 61.2055L117.528 61.6882L118.011 62.0628L118.385 61.5801L117.903 61.2055ZM145.953 66.7843C145.918 66.9629 145.775 67.2132 145.543 67.4456L146.115 67.838L146.383 67.8913C146.741 67.9624 146.955 67.8192 147.026 67.4619L146.418 66.7838L145.971 66.6949L145.953 66.7843ZM147.58 67.9436L147.473 68.4796L148.009 68.5862L148.116 68.0502L147.58 67.9436ZM145.848 68.7136L145.759 69.1602C145.688 69.5176 145.831 69.7318 146.189 69.8028L146.384 68.8202L145.848 68.7136ZM116.851 63.6896L116.745 64.2256L117.281 64.3322L117.387 63.7962L116.851 63.6896ZM111.815 64.2666C111.779 64.4453 111.672 64.5169 111.493 64.4813C111.548 65.1422 111.834 65.5706 112.352 65.7665L112.565 64.6945C112.333 64.4626 112.083 64.3199 111.815 64.2666ZM146.155 71.3748C146.084 71.7321 146.209 72.0357 146.566 72.1067L146.691 71.4814L146.155 71.3748ZM113.424 65.9797L113.371 66.2477L114.175 66.4076L114.228 66.1396L113.424 65.9797ZM119.628 71.2069L119.575 71.4749L120.2 71.5992L120.254 71.3312L119.628 71.2069ZM117.862 73.5488L116.388 80.9635C116.352 81.1421 116.245 81.2137 116.066 81.1782L116.228 81.7675L115.357 86.1448C113.812 93.9168 111.75 103.815 109.155 115.929C108.302 120.217 109.127 122.61 111.717 123.125C128.797 125.964 137.586 126.134 138.066 123.722C140.08 120.129 141.362 116.484 142.091 112.821L142.144 112.553C142.624 110.141 143.298 105.353 144.165 98.189C144.862 97.9561 145.612 97.9195 146.326 98.0617L146.433 97.5257C145.629 97.3658 145.271 96.8303 145.431 96.0263C145.61 96.0618 145.717 95.9902 145.752 95.8116C144.912 95.3659 144.519 95.0091 144.572 94.7411L144.768 93.7584L146.376 94.0782C146.411 93.8995 146.554 93.6493 146.786 93.4168C146.321 92.9529 145.91 92.6854 145.642 92.6321C145.606 92.8108 145.499 92.8823 145.231 92.829C144.241 85.6671 143.022 81.9887 141.504 81.6867C140.144 80.1162 138.196 79.1716 135.606 78.6563L130.692 77.6792C128.191 77.1817 124.278 75.8462 119.024 73.7798L117.862 73.5488ZM135.712 77.6559L136.194 78.0305L136.73 78.1371L136.873 77.4224L136.337 77.3158C135.89 77.227 135.783 77.2986 135.712 77.6559ZM110.754 74.271L110.7 74.539L111.951 74.7877L112.111 73.9837L111.396 73.8416C110.95 73.7527 110.825 73.9136 110.754 74.271ZM108.81 77.0418L108.703 77.5778C108.721 77.9529 108.864 78.1671 109.132 78.2204L109.49 78.2915C109.847 78.3625 110.061 78.2194 110.132 77.8621L110.239 77.3261L108.81 77.0418ZM148.369 87.3239L147.994 87.8066L147.941 88.0746L148.656 88.2167L148.709 87.9487C148.78 87.5914 148.637 87.3772 148.369 87.3239ZM146.333 87.7548L146.28 88.0228C146.227 88.2908 146.441 88.6121 146.924 88.9867L147.673 88.0213L146.976 87.3254C146.601 87.3437 146.386 87.4868 146.333 87.7548ZM108.278 80.6507C108.296 81.0258 108.421 81.3293 108.779 81.4004L109.047 81.4537C109.118 81.0963 108.992 80.7928 108.635 80.7217L108.278 80.6507ZM112.265 83.951C112.283 84.3261 112.426 84.5403 112.783 84.6114L113.051 84.6647C113.409 84.7357 113.623 84.5926 113.694 84.2353L113.747 83.9673L112.265 83.951ZM109.37 83.5611C109.317 83.8291 109.067 84.1509 108.621 84.5265L109.229 85.2047L110.033 85.3646L110.855 84.9707C110.729 84.2027 110.532 83.7921 110.353 83.7566L109.37 83.5611ZM149.125 92.8606L149.019 93.3966L149.555 93.5032L149.661 92.9672L149.125 92.8606ZM151.931 93.6971L151.824 94.2331L152.36 94.3397L152.467 93.8037L151.931 93.6971ZM110.035 87.2223L109.982 87.4903C109.911 87.8476 110.054 88.0618 110.411 88.1329L110.59 88.1684C110.643 87.9004 110.518 87.5969 110.035 87.2223ZM109.447 88.777L109.341 89.313C109.288 89.581 109.502 89.9023 109.896 90.2591L110.432 90.3657C110.789 90.4368 111.003 90.2937 111.074 89.9363L111.128 89.6683C111.199 89.311 111.055 89.0968 110.698 89.0257L109.447 88.777ZM147.021 96.4354L146.915 96.9714L147.719 97.1313L147.825 96.5953L147.021 96.4354ZM150.363 97.3785L150.256 97.9145L150.792 98.0211L150.899 97.4851L150.363 97.3785ZM107.378 91.2443L107.914 91.3509L108.038 90.7256L107.502 90.619L107.378 91.2443ZM145.331 102.6L144.956 103.083L144.814 103.797L146.101 104.332L146.564 103.402C146.01 102.921 145.599 102.653 145.331 102.6ZM149.172 103.364L149.066 103.9C149.423 103.971 149.637 103.828 149.708 103.47L149.172 103.364ZM109.028 97.4231C109.494 98.8159 110.37 99.5473 111.531 99.7783L111.799 99.8316C111.995 99.3133 111.048 98.4748 109.028 97.4231ZM150.444 106.774L151.159 106.916L151.212 106.648C151.283 106.291 151.158 105.988 150.801 105.916L150.622 105.881L150.444 106.774ZM104.063 98.1072L103.688 98.5899L104.492 98.7498C104.563 98.3925 104.42 98.1783 104.063 98.1072ZM151.446 108.274C151.464 108.649 151.608 108.863 151.965 108.934L152.233 108.987L152.339 108.451L151.446 108.274ZM147.06 115.388L147.596 115.494C147.953 115.565 148.167 115.422 148.238 115.065L147.702 114.958C147.309 115.066 147.095 115.209 147.06 115.388ZM109.005 108.748L109.487 109.123L109.755 109.176L109.915 108.372L109.647 108.319C109.2 108.23 109.076 108.391 109.005 108.748ZM141.385 121.039L141.261 121.664C141.654 121.556 141.957 121.431 142.047 121.449L142.1 121.181L141.385 121.039ZM141.993 121.717L141.851 122.431L142.477 122.556C142.834 122.627 143.048 122.484 143.119 122.126L141.993 121.717ZM139.637 123.291L139.495 124.006L140.478 124.201L140.62 123.487L139.637 123.291ZM138.962 126.686L138.909 126.954C139.266 127.025 139.606 127.185 139.838 127.417L140.213 126.935L140.266 126.667L138.962 126.686ZM140.214 128.328C140.232 128.703 140.376 128.917 140.644 128.97L141.001 129.042C141.358 129.113 141.572 128.969 141.643 128.612L140.946 127.916C140.392 127.899 140.285 127.971 140.214 128.328ZM124.762 127.112L125.566 127.272L125.672 126.736L125.404 126.683C125.029 126.701 124.833 126.755 124.762 127.112Z" fill="white"/>
<path fill-rule="evenodd" clip-rule="evenodd" d="M224.078 43.3176C225.865 43.673 229.654 46.0982 235.643 50.5396L236.09 50.6285L235.912 51.5218C234.661 51.2731 233.947 51.5954 233.769 52.4887L235.379 54.2018L236.898 54.5038L237.271 52.6278L237.002 51.6457L237.448 51.7345C240.987 53.0883 243.167 53.8004 243.881 53.9426L245.935 53.4223C247.869 58.1718 248.428 62.8334 247.522 67.3893C247.165 67.3183 246.54 67.6583 245.826 68.4451C246.809 68.6405 247.167 69.176 246.989 70.0693C245.068 77.8596 243.482 81.6304 242.321 81.3994C240.445 81.0263 239.138 77.7945 238.399 71.7041C238.756 71.7752 238.881 71.6143 238.934 71.3463C238.201 70.8291 237.305 67.8648 236.406 62.5784C233.937 58.6512 231.862 56.4742 230.344 56.1721L225.609 55.2305L224.124 52.8921L223.677 52.8032L223.946 53.7854L222.964 54.0544L215.013 52.4732C210.181 59.9629 207.327 63.5743 206.523 63.4144C206.076 63.3255 205.54 63.6834 204.898 64.5772C205.506 64.7909 205.703 65.2015 205.614 65.6482C202.297 70.6534 197.591 79.8399 191.442 93.0115C189.196 96.8365 187.894 98.7135 187.269 98.5892C185.982 98.5191 185.268 98.8414 185.091 99.7347L185.002 100.181L187.309 103.055L186.669 106.271C186.456 107.343 186.118 108.111 185.743 108.594L185.728 111.006C178.771 136.182 174.75 151.727 173.542 157.801C168.745 181.921 168.215 204.197 171.864 224.61C174.28 229.27 177.802 232.106 182.358 233.012C186.021 233.741 191.558 233.449 199.077 232.065C199.542 232.529 200.149 232.743 200.953 232.903C201.007 232.635 201.131 232.474 201.489 232.545L201.238 231.474L201.326 231.027C211.326 227.444 216.823 223.615 217.623 219.595C219.3 217.7 221.278 213.357 223.629 206.674L224.611 206.869C226.029 212.816 225.538 221.819 223.158 233.79L221.843 240.401L221.112 241.277C218.931 239.636 217.661 238.083 217.195 236.69L217.372 235.797C217.443 235.44 217.64 235.386 217.908 235.439C217.853 234.314 217.155 233.153 215.618 232.012L215.171 231.923C205.801 238.882 196.122 241.322 186.027 239.314C169.054 235.938 158.304 222.749 153.849 199.854C153.482 190.494 154.257 180.99 156.212 171.164C156.62 169.109 159.714 155.887 165.476 131.587L165.922 131.676C165.993 131.319 165.833 131.194 165.565 131.141C174.64 99.0494 180.978 79.7864 184.901 73.1372C189.444 61.5036 194.598 53.7992 200.309 49.8275C207.502 44.4787 211.733 41.8841 212.984 42.1328C218.843 42.5552 222.559 43.0156 224.078 43.3176ZM215.576 44.5058L215.488 44.9524C215.435 45.6848 215.632 46.0955 216.168 46.2021L218.579 46.2173C218.704 45.592 218.417 45.1636 217.881 45.057L215.559 44.5951L215.576 44.5058ZM225.459 48.5142L226.263 49.1386L226.71 49.2274C226.477 48.531 226.477 48.0666 226.53 47.7986C225.994 47.692 225.566 47.9782 225.459 48.5142ZM225.713 51.9079L225.624 52.3546L227.858 53.2632L228.035 52.3698C227.41 52.2455 227.088 51.9957 227.142 51.7277C226.552 51.8891 226.07 51.979 225.713 51.9079ZM209.365 48.6566L209.276 49.1033C209.991 49.2454 210.58 49.5485 211.063 49.923L211.687 49.1186L209.365 48.6566ZM212.086 54.1197L212.89 54.744L213.157 53.404C212.621 53.2974 212.192 53.5837 212.086 54.1197ZM243.8 61.3557C243.729 61.7131 243.533 61.7669 243.265 61.7136C243.408 62.3922 243.498 62.8744 243.445 63.1424L245.321 63.5155C245.392 63.1582 245.642 62.8364 246.034 62.2643L243.8 61.3557ZM209.212 56.4271L209.035 57.3204L210.017 57.5159L210.195 56.6226L209.212 56.4271ZM199.34 62.1717L199.056 63.6011C199.681 63.7254 200.11 63.4392 200.234 62.8138L200.323 62.3672L199.34 62.1717ZM189.732 64.2542C189.644 64.7008 189.984 65.3257 190.806 65.8607C191.431 65.985 191.77 65.681 191.877 65.145L192.072 64.1623L189.839 63.7182L189.732 64.2542ZM192.933 67.3053L193.826 67.4829L194.022 66.5003C193.468 66.483 193.04 66.7693 192.933 67.3053ZM187.626 81.8513C189.18 82.4391 190.038 82.7954 190.306 82.8487L190.484 81.9554C190.608 81.3301 190.411 80.9195 189.786 80.7951C188.536 81.0108 187.714 81.4047 187.626 81.8513ZM184.631 87.5706C184.811 88.5351 184.99 89.035 185.347 89.1061C186.043 88.8731 186.508 88.8726 186.776 88.9259L186.954 88.0326C187.078 87.4072 186.792 86.9789 186.166 86.8545C185.202 87.0342 184.684 87.3027 184.631 87.5706ZM183.958 93.2875L183.763 94.2701L185.103 94.5366C185.227 93.9113 184.941 93.4829 184.405 93.3763L183.958 93.2875ZM177.361 104.048L177.272 104.495C177.183 104.941 177.523 105.566 178.399 106.298L178.523 105.672C178.577 105.404 178.219 104.869 177.361 104.048ZM182.745 111.527L182.121 112.331L183.461 112.598C183.585 111.972 183.371 111.651 182.745 111.527ZM173.434 123.791L173.239 124.773L174.668 125.058L174.863 124.075L173.434 123.791ZM175.561 125.235C175.616 125.896 175.83 126.217 176.277 126.306L176.902 126.431L177.08 125.537L175.561 125.235ZM161.522 158.94L161.433 159.386L163.398 159.777L163.221 160.671L162.774 160.582C162.202 160.189 161.791 159.922 161.344 159.833C161.22 160.458 161.702 160.833 162.685 161.028C163.292 160.778 163.757 160.777 164.203 160.866L164.381 159.973C164.505 159.347 164.112 158.991 163.129 158.795C162.451 158.939 161.968 159.029 161.522 158.94ZM167.759 162.13L167.117 163.024L167.028 163.471C166.976 164.203 167.173 164.614 167.709 164.721C168.334 164.845 168.673 164.541 168.815 163.826L168.993 162.933C168.742 162.79 168.331 162.523 167.759 162.13ZM161.282 168.086L161.015 169.426L162.802 170.245L162.696 170.781L161.518 172.033L161.429 172.48L162.323 172.657C162.769 172.746 163.394 172.406 163.929 171.584L164.498 168.725C164.622 168.1 164.425 167.689 163.8 167.565L162.46 167.298C161.709 167.335 161.388 167.55 161.282 168.086ZM164.805 172.315L164.627 173.209C164.985 173.28 165.307 173.53 165.879 173.922L165.967 173.475C166.092 172.85 165.788 172.511 165.252 172.404L164.805 172.315ZM169.006 175.473L168.811 176.455L169.257 176.544L169.453 175.561L169.006 175.473ZM163.493 181.248L164.297 181.873L165.816 182.175C166.441 182.299 166.87 182.013 166.976 181.477L165.653 180.192C164.296 180.479 163.582 180.802 163.493 181.248ZM157.672 183.898C157.566 184.434 158.067 185.184 159.158 186.237L160.051 186.414L161.586 185.698C161.406 184.269 161.084 183.555 160.637 183.466L159.744 183.289C158.798 183.843 158.119 183.987 157.672 183.898ZM165.572 188.07L165.395 188.963L166.735 189.229C166.859 188.604 166.555 188.265 165.93 188.141L165.572 188.07ZM221.015 217.948L220.749 219.288L222.088 219.554L222.355 218.215L221.015 217.948ZM223.02 222.34L222.825 223.323L223.718 223.5L223.914 222.518L223.02 222.34ZM167.14 217.077L166.962 217.97L168.838 218.344C168.962 217.718 168.658 217.379 168.122 217.273L167.14 217.077ZM201.098 234.975L201.992 235.617L203.332 235.883L203.421 235.437C203.545 234.811 203.241 234.472 202.616 234.348L202.169 234.259C201.526 234.224 201.205 234.439 201.098 234.975ZM174.015 231.539L173.748 232.879C174.427 232.735 174.909 232.645 175.177 232.698L175.266 232.252C174.909 232.181 174.497 231.913 174.015 231.539Z" fill="white"/>
</svg>
