<svg width="312" height="310" viewBox="0 0 312 310" fill="none" xmlns="http://www.w3.org/2000/svg">
<path d="M33.4709 209.86C35.7057 201.556 41.6939 195.359 46.7848 189.947C51.6742 185.03 55.4835 178.52 59.8785 173.401C64.2736 168.282 69.8588 163.072 72.6794 156.158C73.4853 154.183 77.1659 152.229 79.6563 150.365C82.3482 148.007 84.0514 145.245 87.5305 143.785C93.9944 140.662 90.0582 136.176 88.0994 132.496C84.3833 124.644 76.9867 118.746 71.879 111.478C67.8514 105.803 65.014 100.037 61.6822 94.0698C60.6021 92.477 60.2178 90.5922 58.9362 89.4933C56.0801 86.6 54.0113 84.604 58.0034 80.4725C61.5012 76.1393 63.9729 77.1477 68.6236 78.4691C74.263 80.1938 79.5908 84.0955 84.8458 83.9354C93.6714 83.5039 100.281 88.5045 107.898 91.036C112.548 92.3573 116.686 96.3495 121.629 98.3664C125.09 99.7782 126.482 99.1939 128.478 97.1282C132.268 93.4905 135.565 89.6511 139.355 86.0135C141.553 83.4539 144.94 80.8039 148.127 78.6477C153.4 75.6151 157.887 71.6852 159.81 65.5577C160.213 64.57 161.019 62.5948 161.513 62.7964C168.947 62.9492 171.475 55.3402 178.03 53.4065C182.004 52.1475 186.289 48.7115 188.889 45.1643C191.087 42.6047 192.57 43.2098 194.749 43.5227C197.22 44.5311 199.692 45.5395 199.472 48.9059C199.252 52.2722 198.83 56.1323 198.116 59.297C196.083 67.1077 196.228 75.2313 193.499 83.3342C191.264 91.6387 191.007 100.75 189.266 109.256C187.929 116.775 190.382 120.656 196.406 124.265C205.194 129.579 213.781 135.386 222.166 141.687C226.908 144.198 232.346 146.417 236.777 151.104C239.138 153.796 242.892 155.903 245.858 157.113C255.836 162.336 262.317 171.893 271.6 177.408C275.847 179.717 274.84 182.186 270.958 184.634C263.395 189.037 255.486 185.81 247.759 184.962C240.526 184.315 232.689 185.15 225.75 185.199C217.62 185.338 209.289 185.971 201.159 186.111C195.41 186.069 190.539 188.114 185.192 187.085C182.025 186.369 180.706 191.015 180.596 192.698C178.818 206.949 174.569 220.192 171.802 234.04C169.347 245.711 167.094 256.888 165.627 268.962C165.316 271.139 165.792 274.213 165.279 276.884C164.766 279.555 165.04 283.123 161.964 283.596C159.583 283.777 156.91 283.262 153.853 280.863C148.726 276.467 146.786 269.915 146.713 265.853C146.769 257.236 141.753 251.157 139.52 243.91C138.257 239.939 138.679 236.079 136.921 231.906C135.164 227.732 134.798 222.975 131.155 219.185C130.368 218.287 129.086 217.189 129.196 215.505C131.633 206.707 124.639 199.822 123.797 191.99C123.706 190.801 122.717 190.397 122.022 190.689C114.752 195.788 105.048 194.133 97.2834 199.029C91.8082 202.556 84.5757 201.909 78.6062 205.234C68.2603 210.805 57.1457 212.607 46.7084 216.989C44.4194 218.359 39.9516 219.417 35.9781 220.676C33.1948 221.844 30.613 222.519 29.0385 220.725C28.2513 219.827 30.1559 216.572 30.4675 214.395C30.779 212.218 33.8552 211.745 33.4709 209.86ZM194.372 132.076C190.527 128.779 185.694 125.079 180.568 120.684C178.499 118.688 177.217 117.589 178.133 113.93C179.452 109.284 180.771 104.638 182.09 99.9922C182.603 97.3214 179.637 96.1113 181.34 93.35C185.039 88.523 181.817 80.8724 186.505 76.4488C186.707 75.9549 186.615 74.7656 186.322 74.0701C185.352 70.7942 184.877 67.7201 187.276 64.6667C188.173 63.8807 190.078 60.6256 187.313 58.9217C185.043 57.4194 183.541 59.6869 181.948 60.765C176.564 65.4807 170.393 69.2993 165.504 74.2167C160.816 78.6404 154.26 80.5741 150.36 85.8949C149.059 87.6685 148.839 91.0348 145.965 91.0141C140.508 91.668 137.01 96.0012 133.916 99.3467C126.334 106.622 120.383 107.074 111.394 102.255C106.157 99.5422 100.628 96.1344 94.1826 96.3849C88.4332 96.3434 85.926 85.5281 78.5461 92.3096C78.5461 92.3096 78.0518 92.1079 77.5574 91.9063C76.7702 91.0091 75.4886 89.9102 74.3898 91.1899C73.0896 92.9635 74.1697 94.5563 74.957 95.4535C75.5427 96.8445 76.8243 97.9434 76.9157 99.1327C81.4004 110.755 91.3602 118.85 97.9324 129.596C99.0125 131.189 102.382 131.411 101.667 134.576C101.154 137.246 101.227 141.308 99.4322 142.88C92.4554 148.674 89.0304 157.069 82.2549 162.369C68.997 173.665 62.3485 189.961 49.3834 201.952C49.4748 203.141 49.0719 204.129 49.8591 205.026C50.4449 206.417 51.5437 205.137 52.2395 204.845C61.6695 202.932 69.4336 198.036 78.2778 194.732C85.2361 191.81 92.5973 187.901 99.8484 185.675C105.214 183.832 111.274 181.697 117.225 181.244C122.48 181.084 127.773 175.179 133.082 181.953C133.869 182.851 135.462 181.773 134.455 184.242C133.539 187.9 132.714 192.748 137.859 194.271C140.331 195.279 138.94 195.864 138.537 196.851C138.298 203.09 137.363 209.621 144.376 213.634C145.364 214.037 145.254 215.721 144.357 216.507C143.057 218.28 144.137 219.873 144.521 221.758C144.96 230.577 150.763 237.553 152.593 245.788C153.069 248.862 153.929 253.821 156.291 256.512C156.584 257.208 156.675 258.397 158.067 257.813C158.762 257.521 159.257 257.723 159.165 256.533C158.8 251.776 160.119 247.13 161.932 242.685C165.76 233.303 165.23 223.294 168.069 213.508C170.304 205.204 171.349 196.99 172.1 188.08C172.522 184.22 173.731 181.257 178.199 180.199C187.537 177.097 197.15 177.563 206.964 177.535C214.801 176.7 222.931 176.561 230.859 176.915C233.038 177.228 234.338 175.454 237.506 176.171C242.852 177.2 248.986 179.126 255.139 178.18C256.329 178.09 257.317 178.493 257.922 177.012C257.83 175.822 256.842 175.419 256.054 174.522C249.152 168.826 241.444 165.105 234.139 160.397C229.891 158.088 228.335 153.421 224.088 151.112C213.12 145.485 204.241 138.982 194.372 132.076Z" fill="white"/>
<path d="M149.75 134.032C148.651 135.311 147.754 136.097 145.777 135.291C144.001 133.99 141.878 125.06 143.874 122.994C144.972 121.714 147.646 122.229 149.129 122.834C150.612 123.439 151.252 131.764 149.75 134.032Z" fill="white"/>
<path d="M152.548 161.095C156.54 156.963 159.213 157.478 161.263 162.346C158.077 164.503 155.404 163.988 152.548 161.095Z" fill="white"/>
</svg>
