<svg width="230" height="224" viewBox="0 0 230 224" fill="none" xmlns="http://www.w3.org/2000/svg">
<path d="M36.8253 167.785C39.1579 152.121 38.7908 136.289 39.3235 120.513C39.618 112.175 38.2944 97.1862 45.0434 90.3798C44.8886 89.2409 45.1838 88.13 47.0678 86.8925C48.2348 86.2878 49.5846 86.372 50.6674 87.1171C56.953 91.3488 61.7764 97.2961 66.8389 103.032C85.3408 81.6019 119.241 70.3918 145.885 66.8602C175.047 62.8071 207.318 70.4675 227.117 93.3844C227.961 94.3404 227.666 95.4512 227.16 96.3231C227.076 97.6729 226.33 98.7557 224.953 99.1214C179.93 103.991 135.823 112.305 105.961 149.289L105.722 149.499C113.99 154.532 121.189 162.209 127.518 169.38C129.416 171.531 128.137 173.935 126.492 174.961C126.619 176.55 125.578 178.743 123.329 178.603C95.9522 179.38 65.6657 179.748 39.3288 171.104C37.9786 171.019 36.5021 169.346 36.8253 167.785ZM50.4084 167.278C59.7447 169.667 69.6439 170.285 79.5428 170.902C93.0409 171.745 106.652 170.787 120.122 172.08C114.427 165.626 108.971 158.962 102.586 152.691C101.954 151.974 101.771 151.285 102.038 150.624C100.055 149.823 98.607 147.7 100.097 145.534C128.215 107.539 174.798 95.7654 220.129 93.1741C197.982 75.305 171.631 70.4987 143.158 74.3683C114.685 78.2378 93.9327 92.301 71.2682 108.051L71.4791 108.29C73.4056 109.991 70.5094 112.973 68.5548 111.721C68.1329 111.243 67.6834 111.215 67.2615 110.737C65.1946 111.286 63.0291 109.795 63.5914 108.024C59.4993 104.832 55.8854 101.219 52.0324 97.8165C51.3995 97.0995 50.1059 96.1154 48.8118 95.1316C49.2905 101.937 47.1962 110.163 46.7751 116.912C46.1718 130.2 46.4684 143.543 45.626 157.042C44.7556 163.763 43.0826 165.239 50.4084 167.278Z" fill="white"/>
</svg>
