<svg width="352" height="352" viewBox="0 0 352 352" fill="none" xmlns="http://www.w3.org/2000/svg">
<path fill-rule="evenodd" clip-rule="evenodd" d="M33.1257 167.923C37.2534 131.741 13.0971 90.1792 35.4323 61.3714C57.7457 32.5918 97.6475 48.5483 133.2 40.3188C168.956 32.042 204.331 8.65024 238.88 21.0514C273.888 33.6178 294.394 69.7632 309.568 103.627C323.425 134.551 324.79 160.385 325.051 194.244C325.346 232.534 340.989 276.714 316.199 305.952C291.404 335.196 245.335 328.99 207.155 333.293C173.56 337.078 140.75 338.794 108.279 329.381C71.8821 318.831 26.8531 310.675 10.9006 276.403C-5.07919 242.072 28.837 205.515 33.1257 167.923Z" fill="#9CCDEE"/>
</svg>
