<svg width="113" height="144" viewBox="0 0 113 144" fill="none" xmlns="http://www.w3.org/2000/svg">
<path fill-rule="evenodd" clip-rule="evenodd" d="M24.8823 13.8736C40.5435 5.68994 48.7859 2.44987 49.6617 4.12599L50.7018 6.11639C54.224 13.8779 55.4161 18.4561 54.2779 19.851C52.6211 18.8497 51.2191 17.3151 50.1517 15.2724L46.922 9.09167L46.6601 9.22852C32.2333 16.9672 24.1693 21.3143 22.4932 22.1901C22.2884 22.5638 22.0015 22.7804 21.792 22.8899C21.6552 22.628 21.2564 22.503 20.516 22.4898L20.9539 23.3278L16.1875 25.8185C15.6113 26.1196 17.0129 30.5883 20.3921 39.2247C21.8414 43.4018 24.0701 48.3051 26.9987 53.9097C28.2209 55.7382 28.8481 56.8108 28.9849 57.0727L26.9945 58.1127L27.323 58.7413L29.3134 57.7012C31.603 61.5725 33.2155 64.5308 34.2282 66.4688L34.365 66.7307C32.9282 67.6815 32.3341 68.4587 32.6351 69.0349C34.3113 68.1591 36.0228 69.2651 37.6924 72.4602C41.0863 78.9552 43.6486 81.8172 45.2724 80.9687C47.2448 80.4048 49.4245 79.5992 51.8386 78.6045C52.3345 73.8111 53.055 71.2341 53.8407 70.8235L54.6788 70.3856C55.8835 69.7561 58.3817 71.9848 62.1757 77.2038L63.9 80.5036C65.4601 83.4892 65.9919 85.1451 65.4158 85.4461C65.2242 85.0795 64.8528 85.0068 64.2766 85.3079C63.8921 85.9756 63.5301 86.4315 63.1635 86.6231C60.8649 86.6906 59.4545 86.1607 58.8523 85.0083L60.351 84.5586C60.6129 84.4217 60.763 83.9433 60.7238 83.2302C60.5048 82.8112 59.5252 82.723 57.8123 83.0179C57.5551 83.419 57.2682 83.6356 57.111 83.7177C56.7826 83.0892 55.4137 83.4044 52.8698 84.5337L47.6319 87.2707L56.0892 103.456L54.6023 104.566L54.876 105.09L56.6366 104.503L64.0813 118.75C63.6287 120.054 63.4037 120.771 63.431 120.824C63.5131 120.981 64.2035 121.154 65.5045 121.474L70.3216 130.693L72.0068 133.28C92.5992 119.985 103.024 113.138 103.176 112.791C103.255 111.283 102.659 108.994 101.336 105.951C101.519 104.389 101.69 103.566 101.899 103.457L102.423 103.183C104.41 103.412 105.8 104.286 106.539 105.7C108.371 110.61 108.503 113.542 106.879 114.391C97.2482 122.757 87.2995 129.623 77.1381 134.933C71.7954 137.724 67.7363 138.378 65.0404 136.92C61.7041 135.129 58.818 131.903 56.3821 127.241L55.6705 125.879C54.822 124.256 51.4366 116.756 45.4643 103.54L39.0597 91.2832L39.6358 90.9822L39.1979 90.1441C38.9884 90.2536 38.6194 90.3131 38.223 90.3201C30.6486 76.2076 25.2888 66.2056 22.2233 60.3392C20.6633 57.3536 17.6205 51.2753 13.0152 42.0792C12.6415 41.8744 12.3975 41.5352 12.1785 41.1161C12.9071 40.4687 13.1869 39.8557 12.9656 39.3046L12.4418 39.5783L12.0549 40.1138L11.5193 39.7269L10.8898 38.5222L9.20466 35.9353C9.57131 35.7438 9.67135 35.4248 9.47976 35.0581L9.34291 34.7962C8.17404 34.4735 7.17788 33.4603 6.27467 31.7318L7.16511 31.2665C6.97352 30.8999 6.6819 30.8522 6.26287 31.0712C6.45446 31.4378 6.37943 31.6771 6.01278 31.8687C4.72027 30.5436 3.21824 29.3281 1.47933 28.1696L1.34248 27.9077C6.27221 24.1982 14.0922 19.5118 24.8823 13.8736ZM22.118 15.9848L21.8547 17.5227L22.9547 16.9479C23.2165 16.8111 23.394 16.385 23.3548 15.672L22.118 15.9848ZM8.43391 23.8688L8.70761 24.3926L8.9695 24.2557C9.33615 24.0641 9.46356 23.7975 9.27197 23.4309L8.43391 23.8688ZM7.43828 27.323L9.06202 26.4745C8.87043 26.1079 8.55144 26.0078 8.23716 26.1721L7.661 26.4731C7.37409 26.6897 7.24669 26.9563 7.43828 27.323ZM8.03527 31.1453C8.68034 31.7417 9.50048 31.7799 10.5481 31.2325L10.8099 31.0957C10.6731 30.8338 10.691 30.3576 10.759 29.722C10.4626 29.4101 9.852 29.2624 8.82234 29.3337C8.17587 30.1383 7.92342 30.8036 8.03527 31.1453ZM14.4269 26.4051C14.3887 27.2252 14.4505 27.7264 14.6147 28.0406L15.1385 27.7669C15.5052 27.5753 15.5528 27.2837 15.3612 26.9171L15.2244 26.6552C15.0601 26.3409 14.7935 26.2135 14.4269 26.4051ZM11.876 34.5395L12.8887 36.4775C13.1326 36.8168 13.3719 36.8918 13.7385 36.7002L14.0004 36.5634C14.3147 36.3991 14.5624 35.4695 14.6639 33.7495C14.4543 33.859 14.3472 33.7816 14.2651 33.6245L13.8782 34.16L13.0401 34.598L12.7664 34.0742L11.876 34.5395ZM19.7718 48.8842L20.2097 49.7222L20.4716 49.5854C20.8382 49.3938 20.8859 49.1022 20.7217 48.7879L20.061 48.7997L19.7991 48.9366L19.7718 48.8842ZM24.2707 52.1345L24.4076 52.3964L25.298 51.9311L25.1612 51.6692L24.2707 52.1345ZM22.5843 58.3502L23.245 58.3384C23.6116 58.1468 23.7116 57.8278 23.5474 57.5135L22.8344 57.5527C22.5475 57.7693 22.4201 58.0359 22.5843 58.3502ZM25.5143 62.5537L25.788 63.0775L26.888 62.5027C26.6964 62.136 26.4047 62.0884 26.0905 62.2526L25.5143 62.5537ZM29.0006 63.8659L29.3017 64.4421L29.8255 64.1684L29.5244 63.5922L29.0006 63.8659ZM30.5658 64.1816L30.8669 64.7578L31.4955 64.4293L31.1944 63.8532L30.5658 64.1816ZM28.6264 66.5953L28.6656 67.3083L29.3263 67.2965L29.3144 66.6359L28.6264 66.5953ZM29.7671 72.734L29.9039 72.9959L30.742 72.558L30.3041 71.72L29.9898 71.8842C29.7303 72.1532 29.6028 72.4198 29.7671 72.734ZM34.3704 78.8638L34.5072 79.1257L35.031 78.852L34.8942 78.5901L34.3704 78.8638ZM53.9035 72.8578L54.0677 73.1721L54.5915 72.8984C54.9582 72.7068 55.0582 72.3878 54.8392 71.9688L54.1262 72.008C53.8667 72.2769 53.7666 72.5959 53.9035 72.8578ZM53.4553 77.3596L53.729 77.8834L54.2528 77.6097L53.9791 77.0859L53.4553 77.3596ZM47.3907 84.1294L47.5275 84.3912L48.6799 83.7891L48.543 83.5272L47.3907 84.1294ZM60.8884 80.6103C61.1324 80.9496 61.399 81.077 61.7657 80.8854L61.4646 80.3093L60.8884 80.6103ZM44.4241 94.148L44.7252 94.7241L45.1645 94.1612C45.5585 94.022 45.7978 94.097 45.9893 94.4636C45.7798 94.5731 45.7548 94.6529 45.8643 94.8624L46.4405 94.5613C46.331 94.3518 46.2989 94.0352 46.3168 93.559L45.5514 93.6256L44.4515 94.2004L44.4241 94.148ZM44.8894 95.0384L45.0262 95.3003L45.6024 94.9992L45.4656 94.7373L44.8894 95.0384ZM48.8414 94.3069C49.0854 94.6462 49.352 94.7736 49.6663 94.6094L49.9282 94.4726C50.2948 94.281 50.3425 93.9893 50.1509 93.6227C49.9593 93.256 49.72 93.181 49.3534 93.3726L49.0915 93.5095C48.8046 93.726 48.6772 93.9927 48.8414 94.3069ZM46.7897 99.3132L46.9266 99.5751L47.5027 99.274L47.3659 99.0121L46.7897 99.3132ZM47.9289 99.4514C48.0383 99.661 48.7561 99.886 50.0547 100.074C49.7928 100.211 49.6154 100.637 49.6022 101.378C49.8117 101.268 49.9188 101.346 50.0009 101.503C50.6998 100.671 50.9796 100.058 50.8404 99.6638L50.5667 99.14L49.5932 97.915L48.1266 98.6813C47.8123 98.8455 47.7646 99.1372 47.9289 99.4514ZM51.6332 99.6496L52.0711 100.488L52.9091 100.05C52.7449 99.7354 52.2938 99.6378 51.6332 99.6496ZM52.8828 108.932C53.1292 109.403 53.8969 109.469 55.1861 109.129L55.272 108.017L53.8318 107.303L52.8828 108.932ZM54.7507 123.226C55.0518 123.802 56.4802 123.856 59.0633 123.44C57.4886 122.595 56.1126 122.514 55.0126 123.089L54.7507 123.226ZM62.7805 133.233L63.0815 133.809L63.9196 133.371L63.6185 132.795L62.7805 133.233Z" fill="white"/>
</svg>
