<svg width="178" height="171" viewBox="0 0 178 171" fill="none" xmlns="http://www.w3.org/2000/svg">
<path d="M41.1055 18.701C47.5948 16.5799 54.2594 15.5194 60.924 16.0497C69.167 16.7567 76.8839 19.2313 83.5485 24.0036C90.3885 28.9528 96.1762 35.4927 103.893 38.851C111.435 42.2094 117.047 38.851 125.29 38.851C143.679 36.1082 165.278 51.5774 156.333 77.7371C154.93 81.9792 150.019 84.6305 148.441 88.8726C145.459 96.6498 149.318 104.427 150.545 112.027C151.948 120.688 151.422 129.703 148.09 137.834C143.881 148.262 135.638 155.156 125.29 158.867C112.662 163.286 99.3331 159.751 86.8808 164.17C75.3055 168.235 64.607 174.422 52.1548 168.412C44.7886 164.877 39.0009 157.807 37.0717 149.853C35.4933 143.49 37.7732 136.596 35.6686 130.41C33.9148 124.754 29.004 121.572 24.6194 118.037C6.02871 102.836 -4.49435 81.8024 2.6964 57.587C7.78255 39.9116 23.3917 24.7107 41.1055 18.701Z" fill="#9CCDEE"/>
<path d="M76.2824 74.3382C75.9447 74.3382 75.6146 74.4384 75.3337 74.626C75.0529 74.8137 74.8341 75.0804 74.7048 75.3924C74.5756 75.7044 74.5418 76.0477 74.6077 76.379C74.6735 76.7102 74.8362 77.0145 75.075 77.2533C75.3138 77.4921 75.6181 77.6548 75.9493 77.7206C76.2806 77.7865 76.6239 77.7527 76.9359 77.6235C77.2479 77.4942 77.5146 77.2754 77.7023 76.9945C77.8899 76.7137 77.99 76.3836 77.99 76.0459C77.9896 75.5931 77.8095 75.1591 77.4894 74.8389C77.1692 74.5188 76.7352 74.3387 76.2824 74.3382Z" fill="white"/>
<path d="M86.5281 74.3382C86.1903 74.3382 85.8602 74.4384 85.5794 74.626C85.2986 74.8137 85.0797 75.0804 84.9505 75.3924C84.8212 75.7044 84.7874 76.0477 84.8533 76.379C84.9192 76.7102 85.0818 77.0145 85.3206 77.2533C85.5594 77.4921 85.8637 77.6548 86.1949 77.7206C86.5262 77.7865 86.8695 77.7527 87.1815 77.6235C87.4936 77.4942 87.7603 77.2754 87.9479 76.9945C88.1355 76.7137 88.2357 76.3836 88.2357 76.0459C88.2352 75.5931 88.0551 75.1591 87.735 74.8389C87.4149 74.5188 86.9808 74.3387 86.5281 74.3382Z" fill="white"/>
<path d="M81.4053 81.1687C81.1034 81.1683 80.8141 81.0483 80.6007 80.8349C80.3872 80.6214 80.2672 80.3321 80.2669 80.0303H77.99C77.99 80.936 78.3499 81.8047 78.9903 82.4452C79.6308 83.0857 80.4995 83.4455 81.4053 83.4455C82.311 83.4455 83.1797 83.0857 83.8202 82.4452C84.4606 81.8047 84.8205 80.936 84.8205 80.0303H82.5437C82.5433 80.3321 82.4233 80.6214 82.2099 80.8349C81.9964 81.0483 81.7071 81.1683 81.4053 81.1687Z" fill="white"/>
<path d="M114.016 98.5151C113.89 98.4083 113.742 98.3302 113.583 98.2863C113.424 98.2423 113.257 98.2336 113.093 98.2606L102.801 99.9761C102.124 100.088 101.476 100.334 100.894 100.699L100.11 98.7179C99.8003 97.9225 99.3587 97.1851 98.8036 96.5368L99.1006 93.8449C99.1768 93.1589 99.2168 92.4694 99.2207 91.7791C99.219 89.2566 98.7036 86.7609 97.7059 84.444C96.7272 82.15 96.2832 79.6634 96.4074 77.1724L96.6011 73.232C96.6129 72.9837 96.6251 72.7268 96.6251 72.472C96.6193 68.4382 95.0135 64.5714 92.1602 61.72C89.3069 58.8686 85.4391 57.2654 81.4053 57.2622C79.3437 57.2626 77.3037 57.6819 75.409 58.4946C73.5144 59.3073 71.8047 60.4965 70.3836 61.99C68.9625 63.4835 67.8597 65.2502 67.1421 67.1828C66.4244 69.1155 66.107 71.1738 66.209 73.2329L66.402 77.1604C66.4133 77.4536 66.4239 77.7305 66.4239 78.0046C66.4278 80.2185 65.9788 82.4097 65.1043 84.4436C63.832 87.4059 63.3514 90.6481 63.7098 93.8522L64.0059 96.5069C63.6615 96.9095 63.3593 97.3464 63.1043 97.8107L61.5502 93.9259C61.3825 93.506 61.1315 93.1243 60.8125 92.8039C60.4934 92.4835 60.1128 92.2309 59.6936 92.0614C59.2744 91.8918 58.8253 91.8088 58.3732 91.8174C57.9211 91.8259 57.4753 91.9258 57.0628 92.1111C56.6503 92.2963 56.2796 92.5631 55.9728 92.8953C55.6661 93.2276 55.4297 93.6184 55.278 94.0444C55.1262 94.4703 55.0621 94.9226 55.0897 95.3739C55.1172 95.8253 55.2357 96.2664 55.4381 96.6707L55.6569 97.1063H53.4192C52.5357 97.1053 51.6644 96.8996 50.8737 96.5054L49.7393 95.9382C49.3575 95.7472 48.9332 95.6571 48.5067 95.6763C48.0802 95.6955 47.6657 95.8234 47.3026 96.0478C46.9394 96.2722 46.6397 96.5858 46.4318 96.9587C46.2239 97.3315 46.1148 97.7513 46.1148 98.1783V101.391C46.1126 102.026 46.2883 102.648 46.622 103.188C46.9557 103.728 47.434 104.164 48.0027 104.446L49.8556 105.372C50.9625 105.924 52.1823 106.212 53.4192 106.214H54.0836V109.585L53.2658 120.216C53.2133 120.899 53.3025 121.585 53.5278 122.231C53.753 122.878 54.1094 123.471 54.5747 123.973C55.04 124.476 55.604 124.877 56.2315 125.151C56.8589 125.425 57.5362 125.566 58.221 125.566C58.3052 125.566 58.389 125.564 58.4723 125.56C58.5448 125.563 58.6173 125.566 58.6894 125.566C59.6289 125.566 60.5458 125.278 61.3158 124.739C62.0858 124.201 62.6716 123.439 62.994 122.556L68.1907 112.894C68.5002 114.335 69.1254 115.688 70.0212 116.858V125.566H72.298V116.459C72.298 116.193 72.2047 115.935 72.0342 115.73C70.7201 114.15 70.0866 112.113 70.2727 110.066C70.4588 108.019 71.4493 106.129 73.0269 104.811L71.5692 103.062C71.0503 103.495 70.5765 103.978 70.1548 104.506C70.1119 104.55 70.0726 104.598 70.0372 104.648L70.0346 104.647L70.0144 104.682C70.0093 104.69 70.0051 104.699 70.0002 104.707C69.3639 105.545 68.8644 106.479 68.5202 107.474L63.1908 117.384V103.554L64.8085 99.5254C65.0793 98.8382 65.4869 98.2131 66.0065 97.688C66.5399 97.1461 67.1753 96.715 67.8761 96.4198C68.5768 96.1246 69.3291 95.971 70.0895 95.9679H73.8991L80.4059 107.897C80.5038 108.077 80.6483 108.226 80.8242 108.331C81 108.435 81.2008 108.49 81.4053 108.49C81.6098 108.49 81.8105 108.435 81.9863 108.331C82.1622 108.226 82.3067 108.077 82.4046 107.897L84.8205 103.468V118.736C84.8205 118.999 84.9116 119.254 85.0785 119.458C85.2453 119.661 85.4775 119.801 85.7356 119.852L90.5125 120.808V125.566H92.7893V121.263L97.1448 122.133C97.1733 122.138 97.3052 122.151 97.3429 122.151H99.4966L99.7152 122.558C100.043 123.441 100.632 124.202 101.404 124.74C102.177 125.277 103.096 125.566 104.037 125.566C104.288 125.568 104.539 125.547 104.787 125.504C105.591 125.368 106.344 125.021 106.97 124.499C107.596 123.977 108.072 123.298 108.35 122.532L111.378 122.027C111.89 121.943 112.358 121.686 112.703 121.298C113.049 120.911 113.251 120.416 113.275 119.898L113.503 119.852C113.761 119.801 113.994 119.662 114.161 119.458C114.328 119.254 114.419 118.999 114.419 118.736V99.3831C114.419 99.2179 114.383 99.0546 114.313 98.9047C114.244 98.7548 114.142 98.6219 114.016 98.5151ZM76.3637 95.7324C76.8472 95.5181 77.2581 95.1682 77.5468 94.725C77.8355 94.2819 77.9894 93.7646 77.99 93.2357V89.7518C80.2132 90.4506 82.5973 90.4506 84.8205 89.7518V93.2357C84.8212 93.7645 84.9752 94.2817 85.2638 94.7247C85.5524 95.1677 85.9633 95.5175 86.4467 95.7318L85.0766 98.2447H77.7339L76.3637 95.7324ZM81.4053 87.9991C78.9907 87.9964 76.6758 87.036 74.9685 85.3286C73.2611 83.6213 72.3007 81.3064 72.298 78.8919V73.7952C74.3479 72.3142 76.0329 70.3851 77.225 68.1549C81.0806 71.2411 85.6495 73.3095 90.5125 74.1703V78.8919C90.5098 81.3064 89.5494 83.6213 87.842 85.3286C86.1347 87.036 83.8198 87.9964 81.4053 87.9991ZM96.7901 97.7075L96.8111 97.7292C97.327 98.2483 97.7292 98.8691 97.9922 99.552L98.4813 100.787C97.8662 100.373 97.1695 100.097 96.4383 99.9757L87.535 98.4917L88.9115 95.9679H92.7096C93.472 95.967 94.2267 96.1207 94.928 96.4197C95.6294 96.7187 96.2628 97.1568 96.7901 97.7075ZM97.4556 103.937L87.0961 101.865V100.727L96.0628 102.221C96.5425 102.299 96.9945 102.498 97.377 102.798C97.7594 103.098 98.0598 103.49 98.2502 103.937H97.4556ZM103.176 102.221L112.142 100.727V101.865L101.784 103.937H100.989C101.18 103.49 101.48 103.098 101.862 102.798C102.244 102.498 102.696 102.3 103.176 102.221H103.176ZM50.8737 103.336L49.0208 102.409C48.8313 102.315 48.6719 102.17 48.5607 101.99C48.4494 101.81 48.3909 101.603 48.3916 101.391V98.1783C48.3906 98.1393 48.4002 98.1007 48.4192 98.0667C48.4381 98.0326 48.4659 98.0043 48.4996 97.9846C48.5322 97.9632 48.57 97.951 48.6089 97.9492C48.6479 97.9475 48.6866 97.9562 48.721 97.9746L49.8556 98.5418C50.9625 99.0937 52.1823 99.3816 53.4192 99.3831H57.4988C57.6928 99.3831 57.8837 99.3335 58.0532 99.239C58.2226 99.1445 58.3652 99.0082 58.4672 98.8432C58.5692 98.6781 58.6273 98.4897 58.636 98.2958C58.6447 98.102 58.6037 97.9091 58.517 97.7356L57.4749 95.6511C57.4028 95.507 57.364 95.3486 57.3614 95.1875C57.3587 95.0264 57.3923 94.8667 57.4596 94.7203C57.527 94.5739 57.6263 94.4445 57.7504 94.3417C57.8744 94.2388 58.02 94.1652 58.1763 94.1261C58.4287 94.0638 58.6951 94.0947 58.9265 94.213C59.158 94.3314 59.339 94.5292 59.4364 94.7703L60.914 98.464V103.937H53.4192C52.5357 103.936 51.6644 103.73 50.8737 103.336ZM60.914 106.214V108.49H56.3604V106.214H60.914ZM55.536 120.39L56.2761 110.767H60.914V120.597C60.9129 121.276 60.6549 121.931 60.1916 122.428C59.7283 122.926 59.094 123.23 58.4159 123.28C58.3731 123.28 58.3304 123.282 58.2879 123.286C58.2654 123.286 58.2436 123.29 58.221 123.29C57.8499 123.29 57.4829 123.213 57.1428 123.064C56.8028 122.916 56.4971 122.699 56.245 122.426C55.9929 122.154 55.7998 121.833 55.6778 121.482C55.5558 121.132 55.5075 120.76 55.536 120.39ZM70.0394 104.65C70.0621 104.619 70.0863 104.59 70.1119 104.562C70.0885 104.591 70.0659 104.622 70.0429 104.651L70.0394 104.65ZM66.1031 94.7666L65.9726 93.5968C65.6581 90.7851 66.0798 87.9399 67.1964 85.3403C68.193 83.0231 68.7049 80.5264 68.7007 78.0039C68.7007 77.6859 68.6887 77.3739 68.6765 77.06L68.483 73.1206C68.3973 71.3966 68.6575 69.6728 69.2481 68.0509C69.8387 66.4289 70.7478 64.9415 71.9219 63.6762C73.096 62.4108 74.5114 61.3932 76.0848 60.6832C77.6581 59.9731 79.3576 59.585 81.0832 59.5417C82.8088 59.4984 84.5256 59.8007 86.1326 60.4309C87.7396 61.0611 89.2043 62.0065 90.4404 63.2113C91.6766 64.4161 92.6592 65.856 93.3304 67.4463C94.0016 69.0366 94.3479 70.7451 94.3489 72.4713C94.3489 72.6719 94.3385 72.8909 94.3276 73.1212L94.1342 77.0575C93.9928 79.8941 94.4985 82.7257 95.613 85.3381C96.4894 87.3723 96.9424 89.5636 96.9445 91.7786C96.9406 92.3872 96.9049 92.9952 96.8374 93.6L96.7081 94.7732C95.4941 94.066 94.1146 93.6927 92.7096 93.6911H87.5526C87.4324 93.6895 87.3175 93.641 87.2324 93.556C87.1473 93.4709 87.0989 93.356 87.0973 93.2357V88.7443C88.8267 87.7454 90.263 86.3093 91.262 84.58C92.2611 82.8507 92.7878 80.889 92.7893 78.8919V73.1998C92.7893 72.9258 92.6904 72.6609 92.5109 72.4539C92.3313 72.2469 92.0831 72.1116 91.8118 72.0728C86.8109 71.3594 82.1071 69.2684 78.227 66.0337L77.5805 65.4949C77.4486 65.3849 77.2936 65.3063 77.127 65.2648C76.9605 65.2233 76.7867 65.22 76.6186 65.2551C76.4506 65.2902 76.2927 65.3629 76.1567 65.4677C76.0208 65.5725 75.9103 65.7067 75.8335 65.8603L75.3924 66.7425C74.2771 68.9705 72.6007 70.8696 70.5282 72.2526C70.3723 72.3565 70.2444 72.4974 70.1559 72.6626C70.0675 72.8279 70.0212 73.0124 70.0212 73.1998V78.8919C70.0227 80.889 70.5494 82.8507 71.5485 84.58C72.5476 86.3093 73.9838 87.7454 75.7132 88.7443V93.2357C75.7117 93.356 75.6632 93.4709 75.5781 93.556C75.4931 93.641 75.3782 93.6895 75.2579 93.6911H70.0895C68.6896 93.6955 67.3153 94.0663 66.1031 94.7666ZM81.4053 104.975L78.9763 100.522H83.8342L81.4053 104.975ZM87.0973 104.187L96.2045 106.008V119.624L87.0973 117.803V104.187ZM98.4813 106.214H100.758V119.874H98.4813V106.214ZM104.396 123.261C104.278 123.281 104.157 123.291 104.037 123.29C103.631 123.289 103.233 123.183 102.881 122.982C102.53 122.781 102.236 122.492 102.03 122.142C102.052 122.14 102.073 122.137 102.094 122.133C102.103 122.131 102.111 122.131 102.119 122.129H102.121L104.469 121.66C104.724 122.115 105.129 122.468 105.616 122.658C105.277 122.974 104.853 123.183 104.396 123.261ZM111.004 119.781L106.45 120.54V116.309C106.45 116.228 106.479 116.149 106.531 116.087C106.584 116.025 106.657 115.983 106.737 115.97L110.604 115.326C110.623 115.323 110.643 115.321 110.662 115.321C110.753 115.321 110.84 115.358 110.904 115.422C110.968 115.487 111.004 115.574 111.004 115.665L111.005 119.781L111.004 119.781ZM110.229 113.08L106.363 113.724C105.75 113.825 105.193 114.14 104.792 114.614C104.391 115.087 104.172 115.688 104.173 116.309V119.397L103.035 119.625V106.008L112.142 104.187V113.505C111.584 113.12 110.898 112.968 110.229 113.08Z" fill="white"/>
<circle cx="166.419" cy="99.9146" r="11" fill="#9CCDEE"/>
<circle cx="19.9189" cy="138.415" r="6.5" fill="#9CCDEE"/>
<circle cx="112.419" cy="16.9146" r="16" fill="#9CCDEE"/>
</svg>
