<svg width="196" height="186" viewBox="0 0 196 186" fill="none" xmlns="http://www.w3.org/2000/svg">
<path d="M105.073 29.671C109.038 34.5786 116.463 30.0129 121.628 31.8343C126.439 33.5816 128.448 39.0071 131.75 42.6638C137.087 48.9704 144.086 48.2089 151.497 49.0166C165.218 50.5874 177.223 61.2543 181.288 74.5254C187.971 96.5009 174.299 120.339 151.13 123.282C147.896 123.718 144.559 123.762 141.288 124.376C130.19 127.061 126.342 140.161 120.197 148.331C112.115 158.692 99.771 165.567 86.8353 167.312C69.5659 169.448 51.4306 161.578 40.3372 148.321C25.5213 130.763 20.7953 96.7758 39.7585 80.3472C42.6553 77.9865 46.1206 75.5593 46.8633 72.0068C48.1915 66.5373 43.7891 62.8361 41.1293 58.7576C38.3666 54.2868 36.7781 49.5054 36.4009 44.2356C35.7493 34.0882 40.1771 23.5197 47.8333 16.9631C60.603 6.28452 92.6822 3.16522 101.142 21.0627C102.673 24.3491 103.282 27.628 105.073 29.671Z" fill="#9CCDEE"/>
<circle cx="141.482" cy="139.049" r="6.5" fill="#9CCDEE"/>
<circle cx="148.982" cy="25.5493" r="12" fill="#9CCDEE"/>
<circle cx="17.9824" cy="67.887" r="17" fill="#9CCDEE"/>
<path d="M128.407 100.841H63.6027C62.986 100.841 62.4854 101.34 62.4854 101.958C62.4854 114.896 73.0106 125.422 85.9491 125.422H106.061C118.998 125.422 129.525 114.896 129.525 101.958C129.525 101.34 129.025 100.841 128.407 100.841ZM106.061 123.187H85.9491C74.6183 123.187 65.3322 114.264 64.749 103.076H127.261C126.678 114.264 117.392 123.187 106.061 123.187Z" fill="white"/>
<path d="M119.473 74.0321C119.473 73.9505 119.472 73.8689 119.464 73.7449C119.292 71.8924 118.019 70.3706 116.337 69.7997L117.602 68.5349C119.795 66.3863 120.015 62.9494 118.096 60.5226C116.04 58.0243 112.335 57.6689 109.837 59.7237C109.696 59.841 109.558 59.9651 109.421 60.1025L108.046 61.497C107.47 59.8243 105.945 58.5595 104.065 58.3852C101.591 58.2501 99.4956 60.1494 99.3627 62.6097C99.3582 62.6913 99.357 62.7729 99.357 62.8533V64.5662C98.7001 64.1851 97.9392 63.9662 97.1269 63.965C97.0465 63.965 96.9637 63.9672 96.8397 63.9739C94.4509 64.1963 92.613 66.2488 92.6532 68.6286V70.1482C91.9827 69.7605 91.2185 69.5527 90.4231 69.5515C90.3427 69.5515 90.2611 69.5537 90.1371 69.5604C87.7471 69.7828 85.9091 71.8353 85.9493 74.2152V90.7851C85.9493 91.403 86.4499 91.9025 87.0667 91.9025H106.061C108.526 91.9025 110.53 89.898 110.529 87.4354C110.529 86.622 110.311 85.8588 109.929 85.2008H111.439C113.839 85.2667 115.891 83.4019 116.116 80.9695C116.164 80.06 115.936 79.1997 115.505 78.469C116.508 78.3573 117.437 77.9136 118.161 77.1919C119.005 76.3494 119.472 75.2276 119.473 74.0321ZM116.583 75.6097C116.16 76.0297 115.601 76.2611 115.003 76.2611C115.002 76.2611 115.001 76.2611 114.999 76.2611H111.647C111.03 76.2611 110.53 76.7617 110.53 77.3785C110.53 77.9952 111.03 78.4958 111.647 78.4958L111.77 78.4992C113.002 78.5651 113.949 79.6199 113.887 80.8065C113.773 82.0377 112.728 82.9909 111.458 82.9651H106.061C105.443 82.9651 104.944 83.4657 104.944 84.0825C104.944 84.6992 105.443 85.1998 106.061 85.1998C107.293 85.1998 108.296 86.2021 108.296 87.4345C108.296 88.667 107.293 89.6692 106.061 89.6692H88.1838V74.1963C88.1626 72.9594 89.1123 71.9013 90.3 71.7895L90.4218 71.7861C91.652 71.7871 92.6519 72.7883 92.653 74.0174V74.0252C92.653 74.642 93.1525 75.1426 93.7692 75.1426C93.7704 75.1426 93.7704 75.1426 93.7704 75.1426C94.3871 75.1426 94.8866 74.6432 94.8878 74.0264V68.6096C94.8665 67.3727 95.8163 66.3147 97.0039 66.2029L97.1247 66.1995C98.356 66.2017 99.356 67.2028 99.3572 68.433V68.4397C99.3572 69.0564 99.8566 69.557 100.473 69.557C100.475 69.557 100.475 69.557 100.475 69.557C101.091 69.557 101.591 69.0576 101.592 68.4408V62.8532L101.595 62.7292C101.66 61.4989 102.69 60.5516 103.901 60.613C105.135 60.7281 106.084 61.7861 106.06 63.0442V63.9716C106.06 64.4241 106.334 64.8331 106.754 65.0051C107.171 65.1772 107.656 65.0788 107.973 64.7549L111.004 61.6789C111.087 61.5973 111.172 61.5202 111.26 61.4476C112.806 60.1761 115.098 60.3973 116.358 61.9258C117.552 63.4364 117.414 65.5906 116.031 66.946L113.092 69.8845C112.773 70.204 112.677 70.6844 112.85 71.1024C113.022 71.5192 113.431 71.7918 113.882 71.7918H114.81C114.833 71.7918 114.85 71.7918 114.869 71.7918C116.089 71.7918 117.126 72.7327 117.235 73.908L117.239 74.031C117.237 74.6276 117.005 75.1884 116.583 75.6097Z" fill="white"/>
<path d="M110.858 65.4117L79.5741 96.6961L81.1541 98.2762L112.439 66.9918L110.858 65.4117Z" fill="white"/>
<path d="M106.059 67.3281H103.824V72.9147H106.059V67.3281Z" fill="white"/>
<path d="M99.3548 72.9147H97.1201V79.6187H99.3548V72.9147Z" fill="white"/>
<path d="M92.6508 78.4901H90.4161V86.3113H92.6508V78.4901Z" fill="white"/>
<path d="M110.528 71.7973H104.941V74.0319H110.528V71.7973Z" fill="white"/>
<path d="M104.941 78.4901H98.2374V80.7246H104.941V78.4901Z" fill="white"/>
<path d="M99.3547 85.194H91.5335V87.4287H99.3547V85.194Z" fill="white"/>
<path d="M83.3401 63.547C83.3391 63.5448 83.3367 63.5426 83.3357 63.5404C81.7591 61.1794 78.5546 60.5381 76.1949 62.1146C76.1211 62.1627 76.0485 62.214 75.9658 62.2756L75.5636 62.5817L75.177 62.3035C73.1323 60.3963 69.9178 60.4734 67.9714 62.4935C67.0184 63.4812 66.5067 64.7817 66.5323 66.1549C66.558 67.5282 67.1156 68.8085 68.1022 69.7605C68.3894 70.0376 68.7089 70.2811 69.053 70.4845L69.9939 71.2198V71.7918C69.9939 74.8723 72.5 77.3785 75.5805 77.3785C78.661 77.3785 81.1671 74.8711 81.1659 71.7908V71.2187L82.1548 70.4467C84.2943 68.8231 84.8139 65.7918 83.3401 63.547ZM80.7916 68.6767L79.3614 69.794C79.091 70.0052 78.9323 70.3304 78.9323 70.6745V71.7918C78.9323 73.6399 77.4284 75.1438 75.5803 75.1438C73.7323 75.1438 72.2284 73.6399 72.2284 71.7918V70.6745C72.2284 70.3304 72.0709 70.0052 71.7993 69.794L70.3691 68.6767C70.3267 68.6432 70.2809 68.613 70.234 68.5862C70.024 68.4666 69.8295 68.3214 69.6552 68.1526C69.0966 67.6141 68.7814 66.8901 68.7669 66.1146C68.7524 65.3392 69.0418 64.604 69.5803 64.0453C70.149 63.4554 70.9099 63.1581 71.6719 63.1581C72.3981 63.1581 73.1255 63.4274 73.6887 63.9716C73.7267 64.0073 73.7669 64.042 73.8105 64.0732L74.9278 64.8777C75.3257 65.1649 75.8653 65.1582 76.2564 64.8609L77.4341 63.975C78.0822 63.5414 78.8587 63.3895 79.623 63.5404C80.385 63.6923 81.0431 64.1315 81.4755 64.7773C82.3045 66.0443 82.0095 67.7515 80.7916 68.6767Z" fill="white"/>
<path d="M89.2989 59.4956H87.0642V61.7302H89.2989V59.4956Z" fill="white"/>
<path d="M96.0027 95.2499H93.7682V97.4845H96.0027V95.2499Z" fill="white"/>
<path d="M122.821 65.0879V67.3226C124.053 67.3226 125.055 68.3248 125.055 69.5571C125.055 70.7895 124.053 71.7918 122.821 71.7918V74.0264C125.286 74.0264 127.29 72.0219 127.29 69.5571C127.29 67.0924 125.286 65.0879 122.821 65.0879Z" fill="white"/>
<path d="M66.9524 75.1493H64.7178V77.384H66.9524V75.1493Z" fill="white"/>
<path d="M64.7199 70.68H62.4854V72.9147H64.7199V70.68Z" fill="white"/>
<path d="M106.061 94.137C103.596 94.137 101.592 96.1415 101.592 98.6063H103.826C103.826 97.3739 104.829 96.3716 106.061 96.3716C107.293 96.3716 108.296 97.3739 108.296 98.6063H110.53C110.53 96.1415 108.526 94.137 106.061 94.137Z" fill="white"/>
<path d="M75.8933 84.0811H75.7525C75.2542 82.156 73.5033 80.7292 71.424 80.7292C69.3448 80.7292 67.5927 82.156 67.0955 84.0811H66.9548C64.49 84.0811 62.4855 86.0856 62.4855 88.5504C62.4855 91.0152 64.49 93.0197 66.9548 93.0197H75.8933C78.3581 93.0197 80.3626 91.0152 80.3626 88.5504C80.3626 86.0856 78.3581 84.0811 75.8933 84.0811ZM75.8933 90.7862H66.9546C65.7222 90.7862 64.7199 89.7839 64.7199 88.5516C64.7199 87.3191 65.7222 86.3169 66.9546 86.3169H68.072C68.6887 86.3169 69.1893 85.8163 69.1893 85.1995C69.1893 83.9671 70.1916 82.965 71.424 82.965C72.6565 82.965 73.6587 83.9672 73.6587 85.1995C73.6587 85.8163 74.1593 86.3169 74.7761 86.3169H75.8934C77.1259 86.3169 78.1281 87.3191 78.1281 88.5516C78.1279 89.784 77.1256 90.7862 75.8933 90.7862Z" fill="white"/>
<path d="M73.6586 90.7851H69.1893C68.5726 90.7851 68.072 91.2857 68.072 91.9025V96.3717C68.072 96.9897 68.5726 97.4891 69.1893 97.4891H73.6586C74.2754 97.4891 74.776 96.9897 74.776 96.3717V91.9025C74.776 91.2857 74.2754 90.7851 73.6586 90.7851ZM70.3067 95.2544V93.0198H72.5414V95.2544H70.3067Z" fill="white"/>
<path d="M121.703 87.4332C119.855 87.4332 118.351 88.9371 118.351 90.7851C118.351 92.6331 119.855 94.137 121.703 94.137C123.551 94.137 125.055 92.6331 125.055 90.7851C125.055 88.9371 123.551 87.4332 121.703 87.4332ZM121.703 91.9035C121.087 91.9035 120.586 91.4019 120.586 90.7862C120.586 90.1705 121.087 89.6688 121.703 89.6688C122.32 89.6688 122.821 90.1694 122.821 90.7862C122.821 91.403 122.32 91.9035 121.703 91.9035Z" fill="white"/>
<path d="M121.703 82.9639C117.392 82.9639 113.882 86.4723 113.882 90.7851C113.882 95.0979 117.392 98.6063 121.703 98.6063C126.015 98.6063 129.525 95.0979 129.525 90.7851C129.525 86.4723 126.015 82.9639 121.703 82.9639ZM121.703 96.3728C118.623 96.3728 116.117 93.8656 116.117 90.7862C116.117 87.7057 118.623 85.1995 121.703 85.1995C124.784 85.1995 127.29 87.7057 127.29 90.7862C127.29 93.8666 124.784 96.3728 121.703 96.3728Z" fill="white"/>
</svg>
