<svg width="232" height="236" viewBox="0 0 232 236" fill="none" xmlns="http://www.w3.org/2000/svg">
<path d="M195.322 98.6648C194.687 105.462 193.01 111.999 189.873 117.903C185.946 125.185 180.607 131.281 173.578 135.498C166.316 139.806 158.014 142.515 151.864 148.26C145.783 153.844 146.633 160.329 143.355 167.892C138.558 185.855 115.775 199.521 95.3305 180.91C91.9962 177.936 91.5166 172.376 88.2521 169.24C82.302 163.412 73.6318 163.859 66.17 161.963C57.6654 159.806 49.6037 155.738 43.4688 149.447C35.5744 141.438 32.5277 131.133 33.2372 120.163C34.2046 106.82 42.749 95.9956 43.6468 82.8131C44.5201 70.5757 43.0986 58.2994 53.5647 49.2642C59.7377 43.9115 68.5264 41.4129 76.5916 42.806C83.0576 43.8883 88.4758 48.7217 94.9889 49.2509C100.876 49.8911 105.748 46.6507 110.735 44.0336C132.076 33.0214 155.56 31.7312 174.918 47.9591C189.113 59.655 196.853 80.022 195.322 98.6648Z" fill="#9CCDEE"/>
<circle cx="62.9709" cy="181.345" r="11" transform="rotate(113.434 62.9709 181.345)" fill="#9CCDEE"/>
<circle cx="93.908" cy="31.6169" r="6.5" transform="rotate(113.434 93.908 31.6169)" fill="#9CCDEE"/>
<circle cx="172.601" cy="164.807" r="16" transform="rotate(113.434 172.601 164.807)" fill="#9CCDEE"/>
<path d="M75.9385 93.8429C76.4409 94.1734 77.1165 94.0341 77.4475 93.5317C77.6961 93.1538 77.993 92.8042 78.3296 92.4927C80.4222 90.5568 83.7219 90.5309 85.8416 92.4342C86.9486 93.4281 87.6057 94.7891 87.692 96.2669C87.7752 97.6927 88.4019 99.0589 89.4562 100.114C89.712 100.369 90.0477 100.497 90.3834 100.497C90.7193 100.497 91.0549 100.369 91.3107 100.114L98.7042 92.7198C99.158 92.2658 99.8784 92.2372 100.366 92.6341C100.396 92.6666 100.423 92.7007 100.454 92.7323L107.169 99.4469C106.633 99.7908 106.031 99.9931 105.415 100.029C104.194 100.1 102.994 100.464 101.945 101.08C101.426 101.384 101.252 102.052 101.557 102.571C101.76 102.916 102.123 103.109 102.497 103.109C102.685 103.109 102.874 103.06 103.048 102.959C103.801 102.516 104.664 102.255 105.542 102.204C106.968 102.12 108.334 101.494 109.389 100.44C110.065 99.7906 109.756 98.8017 109.097 98.2747L102.001 91.179C101.501 90.7309 101.517 89.9083 101.995 89.435L108.701 82.7293C109.026 83.2533 109.217 83.8375 109.252 84.4349C109.372 86.4895 110.285 88.381 111.822 89.761C114.77 92.4083 119.358 92.373 122.268 89.6816C123.836 88.2313 124.722 86.2595 124.764 84.1291C124.805 81.9979 123.998 79.9944 122.491 78.4874C121.15 77.146 119.369 76.3439 117.476 76.2291C116.87 76.1923 116.28 76.0005 115.754 75.6757L122.459 68.971C122.694 68.7363 123.006 68.6071 123.338 68.6071C123.669 68.6071 123.981 68.7363 124.216 68.971L131.766 76.5215C132.192 76.9467 132.881 76.9467 133.307 76.5215L133.612 76.216C134.663 75.1652 135.29 73.7949 135.377 72.3574C135.46 70.9965 136.037 69.7157 137.001 68.751C138.085 67.6667 139.525 67.088 141.06 67.1161C142.592 67.1459 144.011 67.7838 145.055 68.9125C146.991 71.0049 147.017 74.3045 145.114 76.4243C144.12 77.5313 142.759 78.1884 141.281 78.2747C139.855 78.3582 138.489 78.9848 137.434 80.0391L137.13 80.344C136.704 80.7695 136.704 81.4591 137.13 81.8846L144.68 89.4352C145.164 89.9195 145.164 90.7072 144.68 91.1917L143.023 92.8484C142.598 93.2738 142.598 93.9635 143.023 94.3889C143.449 94.8141 144.138 94.8141 144.564 94.3887L146.221 92.7322C147.554 91.3983 147.554 89.2283 146.221 87.8945L139.478 81.1515C140.057 80.7347 140.724 80.4896 141.408 80.4496C143.463 80.3294 145.354 79.4167 146.735 77.8798C149.382 74.9314 149.346 70.3425 146.654 67.4328C145.204 65.8654 143.232 64.9793 141.102 64.9378C138.97 64.8961 136.967 65.7033 135.461 67.2104C134.119 68.5518 133.317 70.3328 133.202 72.2255C133.16 72.9196 132.915 73.593 132.499 74.1729L125.756 67.4303C124.422 66.0967 122.252 66.0966 120.919 67.4303L113.485 74.8635C113.248 75.1006 113.118 75.4159 113.118 75.751C113.118 76.0862 113.248 76.4016 113.486 76.6392C114.537 77.6898 115.907 78.3164 117.344 78.4037C118.705 78.4864 119.986 79.0633 120.951 80.028C122.035 81.1121 122.616 82.5534 122.586 84.0867C122.556 85.6192 121.918 87.0382 120.789 88.0823C118.696 90.0179 115.397 90.0434 113.277 88.1402C112.171 87.1463 111.513 85.7854 111.427 84.3076C111.344 82.8816 110.717 81.5157 109.663 80.4614C109.173 79.9721 108.377 79.972 107.887 80.4614L100.454 87.8945C99.8202 88.5288 99.4913 89.3522 99.4603 90.1848C98.6254 90.2143 97.7993 90.5434 97.1635 91.1792L90.4488 97.8941C90.1049 97.3577 89.9027 96.7554 89.8668 96.1399C89.7466 94.0851 88.8339 92.1934 87.297 90.8133C84.3487 88.1664 79.7601 88.2016 76.8501 90.8934C76.3841 91.3244 75.9727 91.8089 75.6272 92.3341C75.2967 92.8365 75.4361 93.5121 75.9385 93.8429Z" fill="white"/>
<path d="M141.277 100.03C140.653 99.9922 140.045 99.7892 139.507 99.4461L141.008 97.9451C141.433 97.5196 141.433 96.83 141.008 96.4045C140.582 95.9793 139.893 95.9793 139.467 96.4045L137.13 98.7421C136.628 99.2357 136.754 100.023 137.287 100.44C138.338 101.491 139.708 102.117 141.145 102.205C142.507 102.287 143.788 102.864 144.752 103.829C145.836 104.913 146.417 106.354 146.387 107.888C146.357 109.42 145.719 110.839 144.59 111.883C142.497 113.819 139.198 113.844 137.078 111.941C135.972 110.947 135.315 109.586 135.228 108.109C135.145 106.683 134.518 105.317 133.464 104.262C133.048 103.729 132.26 103.604 131.767 104.105L124.216 111.656C123.762 112.11 123.042 112.138 122.554 111.741C122.524 111.709 122.497 111.675 122.466 111.644L115.075 104.253C114.567 103.769 113.726 103.741 113.211 104.263C112.16 105.314 111.534 106.684 111.446 108.121C111.364 109.482 110.787 110.763 109.822 111.728C108.738 112.812 107.297 113.393 105.763 113.362C104.231 113.333 102.812 112.695 101.768 111.566C100.499 110.195 100.009 108.279 100.455 106.441C100.597 105.856 100.238 105.267 99.6532 105.125C99.0682 104.983 98.4796 105.342 98.3376 105.927C97.7187 108.476 98.4032 111.137 100.169 113.046C101.619 114.613 103.591 115.499 105.721 115.541C105.773 115.542 105.825 115.542 105.877 115.542C107.95 115.542 109.892 114.738 111.363 113.268C112.704 111.927 113.506 110.146 113.621 108.253C113.659 107.628 113.861 107.021 114.205 106.482L120.919 113.197C120.953 113.231 120.988 113.263 121.023 113.296C121.406 113.782 121.374 114.492 120.925 114.941L113.374 122.491C112.786 123.066 113.093 123.898 113.68 124.337C114.731 125.388 116.101 126.014 117.538 126.102C118.899 126.184 120.18 126.761 121.145 127.726C122.229 128.81 122.81 130.251 122.78 131.785C122.75 133.317 122.112 134.736 120.983 135.78C118.891 137.716 115.592 137.742 113.472 135.839C112.365 134.845 111.707 133.484 111.621 132.006C111.538 130.579 110.911 129.213 109.857 128.16C109.43 127.576 108.574 127.268 108.011 127.854L100.461 135.405C99.9764 135.889 99.1885 135.889 98.7042 135.405L91.1537 127.854C90.6752 127.355 89.8576 127.482 89.4558 128.012C88.4051 129.062 87.7786 130.433 87.6913 131.87C87.6086 133.231 87.0317 134.512 86.0668 135.477C84.9829 136.561 83.5452 137.138 82.008 137.111C80.4755 137.082 79.0568 136.444 78.0126 135.315C76.0769 133.222 76.0514 129.923 77.9549 127.803C78.9485 126.696 80.3093 126.039 81.7873 125.953C83.2134 125.869 84.5793 125.243 85.6336 124.189C86.1668 123.772 86.2923 122.984 85.7906 122.491L78.2402 114.941C77.7557 114.456 77.7557 113.668 78.2402 113.184L85.6339 105.79C85.8815 105.543 86.0178 105.213 86.0178 104.863C86.0178 104.513 85.8815 104.184 85.6333 103.936C84.5825 102.885 83.2122 102.258 81.7749 102.171C80.4139 102.088 79.133 101.511 78.1683 100.547C77.445 99.8234 76.9348 98.9188 76.693 97.9313C76.55 97.3469 75.9602 96.9898 75.3758 97.1322C74.7914 97.2752 74.4337 97.865 74.5767 98.4494C74.9132 99.824 75.6223 101.082 76.6277 102.088C77.9691 103.429 79.7503 104.231 81.6428 104.346C82.2675 104.384 82.8752 104.586 83.4134 104.93L76.6994 111.644C75.3658 112.978 75.3658 115.148 76.6994 116.481L83.4143 123.196C82.8781 123.54 82.2758 123.742 81.6601 123.778C79.6054 123.898 77.7138 124.811 76.334 126.348C73.6867 129.296 73.7216 133.885 76.4134 136.794C77.8635 138.362 79.8354 139.248 81.9656 139.29C84.0978 139.331 86.1006 138.524 87.6075 137.017C88.9489 135.676 89.7511 133.895 89.8659 132.002C89.9037 131.377 90.1065 130.77 90.4499 130.231L97.1636 136.945C98.4975 138.279 100.668 138.279 102.001 136.945L108.744 130.202C109.161 130.781 109.406 131.449 109.446 132.133C109.566 134.188 110.479 136.079 112.016 137.459C113.474 138.769 115.334 139.422 117.193 139.422C119.093 139.422 120.992 138.74 122.463 137.379C124.031 135.929 124.917 133.957 124.958 131.827C125 129.696 124.192 127.692 122.685 126.186C121.344 124.844 119.563 124.042 117.67 123.927C116.976 123.885 116.303 123.639 115.723 123.224L122.466 116.481C123.099 115.848 123.427 115.026 123.459 114.195C124.327 114.165 125.139 113.814 125.756 113.197L132.471 106.482C132.815 107.018 133.017 107.62 133.053 108.236C133.173 110.29 134.086 112.182 135.623 113.562C138.571 116.209 143.159 116.174 146.069 113.483C147.637 112.032 148.523 110.061 148.565 107.93C148.606 105.799 147.799 103.795 146.292 102.289C144.951 100.947 143.17 100.145 141.277 100.03Z" fill="white"/>
</svg>
