<svg width="245" height="244" viewBox="0 0 245 244" fill="none" xmlns="http://www.w3.org/2000/svg">
<path d="M59.2801 141.505C62.8336 135.945 55.844 130.094 55.9387 124.367C56.0773 119.016 60.793 115.225 63.3254 110.738C67.812 103.354 64.7369 96.664 63.0818 89.0458C60.0921 74.9152 66.6935 59.4725 78.5094 51.0412C98.0917 37.1292 126.268 42.7895 136.866 64.7949C138.371 67.858 139.52 71.1531 141.213 74.1941C147.555 84.3127 161.824 83.7874 171.965 87.1744C184.92 91.7565 195.83 101.722 201.849 113.974C209.692 130.395 207.897 150.992 198.424 166.389C185.919 186.905 153.774 202.857 131.193 189.493C127.892 187.402 124.336 184.77 120.566 185.21C114.7 185.706 112.488 191.299 109.324 195.289C105.806 199.511 101.589 202.672 96.4874 204.792C86.6384 208.802 74.688 207.913 65.647 202.492C50.8227 193.365 37.0962 162.58 52.0447 148.257C54.7968 145.649 57.8474 143.959 59.2801 141.505Z" fill="#9CCDEE"/>
<circle cx="122.474" cy="204.628" r="6.79769" transform="rotate(-108.477 122.474 204.628)" fill="#9CCDEE"/>
<circle cx="49.8945" cy="94.0194" r="12.5496" transform="rotate(-108.477 49.8945 94.0194)" fill="#9CCDEE"/>
<circle cx="165.369" cy="59.5234" r="17.7786" transform="rotate(-108.477 165.369 59.5234)" fill="#9CCDEE"/>
<path d="M172.698 124.877L120.749 94.8858C119.257 94.0276 117.486 93.7957 115.824 94.241C114.162 94.6863 112.744 95.7725 111.881 97.2615L101.919 114.515C101.06 116.007 100.828 117.779 101.274 119.442C101.72 121.105 102.807 122.523 104.297 123.386L122.108 133.668L119.338 138.391C118.969 139.017 118.444 139.535 117.815 139.896C117.185 140.257 116.472 140.447 115.747 140.449H105.348V132.523C105.348 132.214 105.225 131.918 105.006 131.699C104.788 131.48 104.491 131.358 104.182 131.358H97.8551V129.854C97.8535 128.485 97.3092 127.173 96.3416 126.206C95.3739 125.238 94.062 124.694 92.6935 124.692H89.197C89.0439 124.692 88.8923 124.722 88.7509 124.781C88.6094 124.839 88.4809 124.925 88.3727 125.033C88.2644 125.142 88.1786 125.27 88.12 125.412C88.0615 125.553 88.0314 125.705 88.0315 125.858V165.363C88.0314 165.516 88.0615 165.668 88.12 165.809C88.1786 165.951 88.2644 166.079 88.3727 166.188C88.4809 166.296 88.6094 166.382 88.7509 166.44C88.8923 166.499 89.0439 166.529 89.197 166.529H92.6935C94.062 166.527 95.3739 165.983 96.3416 165.015C97.3092 164.048 97.8535 162.736 97.8551 161.367V157.665H104.182C104.491 157.665 104.788 157.542 105.006 157.324C105.225 157.105 105.348 156.809 105.348 156.499V150.772H115.747C118.272 150.766 120.751 150.104 122.942 148.849C125.133 147.594 126.96 145.791 128.242 143.616L131.048 138.831L140.811 144.467C141.794 145.038 142.91 145.339 144.047 145.34C144.618 145.34 145.187 145.264 145.738 145.116C146.798 144.834 147.769 144.286 148.559 143.525C149.836 144.117 151.226 144.425 152.634 144.427C153.497 144.426 154.356 144.312 155.189 144.088C157.314 143.524 159.185 142.256 160.498 140.492L162.885 141.87C163.017 141.947 163.164 141.996 163.315 142.016C163.467 142.036 163.621 142.026 163.769 141.987C163.917 141.947 164.056 141.879 164.177 141.785C164.299 141.692 164.401 141.576 164.477 141.443L173.122 126.471C173.199 126.338 173.249 126.192 173.269 126.04C173.289 125.888 173.279 125.734 173.24 125.586C173.2 125.438 173.132 125.299 173.039 125.177C172.946 125.056 172.83 124.954 172.698 124.877ZM95.5241 161.367C95.5234 162.118 95.2249 162.837 94.6942 163.368C94.1636 163.899 93.444 164.197 92.6935 164.198H90.3625V127.023H92.6935C93.444 127.024 94.1636 127.322 94.6942 127.853C95.2249 128.384 95.5234 129.103 95.5241 129.854V161.367ZM103.017 155.334H97.8551V133.689H103.017V155.334ZM126.231 142.436C125.155 144.261 123.623 145.775 121.784 146.828C119.946 147.881 117.865 148.437 115.747 148.441H105.348V142.78H115.747C116.879 142.778 117.99 142.481 118.973 141.918C119.955 141.355 120.774 140.547 121.348 139.572L124.129 134.835L129.032 137.665L126.231 142.436ZM141.978 142.449L105.462 121.367C104.507 120.814 103.81 119.905 103.524 118.839C103.239 117.773 103.388 116.637 103.938 115.681L107.335 109.795L151.06 135.039L147.662 140.928L147.658 140.935C147.569 141.085 147.471 141.23 147.364 141.368V141.372C146.749 142.174 145.864 142.726 144.873 142.924C143.883 143.122 142.854 142.953 141.978 142.449ZM154.59 141.837C153.064 142.249 151.445 142.164 149.97 141.594L153.082 136.204L158.472 139.315C157.48 140.548 156.119 141.431 154.589 141.837H154.59ZM163.045 139.266L108.502 107.776L113.9 98.427C114.453 97.472 115.362 96.7753 116.428 96.4899C117.494 96.2045 118.63 96.3536 119.586 96.9045L170.522 126.313L163.045 139.266Z" fill="white"/>
<path d="M158.065 132.931C158.743 133.325 159.514 133.533 160.299 133.534C160.693 133.533 161.086 133.481 161.466 133.379C162.468 133.111 163.345 132.503 163.95 131.661C164.554 130.818 164.847 129.792 164.779 128.757C164.711 127.722 164.287 126.743 163.578 125.986C162.869 125.229 161.92 124.741 160.892 124.606C159.864 124.47 158.821 124.695 157.94 125.243C157.059 125.79 156.396 126.626 156.062 127.608C155.729 128.59 155.746 129.657 156.111 130.628C156.476 131.598 157.167 132.412 158.065 132.931ZM158.444 127.974C158.585 127.729 158.773 127.515 158.997 127.344C159.221 127.172 159.477 127.047 159.75 126.975C159.932 126.926 160.12 126.901 160.309 126.901C160.783 126.901 161.244 127.057 161.62 127.346C161.996 127.634 162.266 128.039 162.389 128.497C162.511 128.955 162.48 129.44 162.298 129.878C162.117 130.316 161.796 130.682 161.385 130.919C160.975 131.156 160.497 131.251 160.028 131.189C159.558 131.127 159.121 130.911 158.786 130.576C158.451 130.241 158.236 129.805 158.174 129.335C158.112 128.865 158.207 128.387 158.444 127.977L158.444 127.974Z" fill="white"/>
<path d="M118.335 121.127L108.784 115.612C108.652 115.534 108.505 115.483 108.353 115.463C108.2 115.442 108.046 115.451 107.897 115.491C107.748 115.53 107.609 115.598 107.487 115.692C107.365 115.785 107.262 115.902 107.185 116.035C107.109 116.168 107.059 116.315 107.039 116.467C107.019 116.62 107.03 116.774 107.07 116.923C107.11 117.071 107.18 117.21 107.274 117.332C107.368 117.453 107.485 117.555 107.619 117.631L117.172 123.145C117.439 123.285 117.749 123.315 118.038 123.231C118.326 123.147 118.572 122.955 118.722 122.694C118.872 122.434 118.916 122.125 118.843 121.833C118.771 121.541 118.589 121.288 118.335 121.127Z" fill="white"/>
</svg>
