<svg width="131" height="167" viewBox="0 0 131 167" fill="none" xmlns="http://www.w3.org/2000/svg">
<path d="M72.7498 134.587C74.0801 135.293 74.9929 136.529 75.5017 137.755C76.2699 139.391 77.3207 140.495 78.503 141.737C78.6344 141.875 79.5339 143.65 79.5239 144.054C79.4972 145.131 80.4267 145.693 81.0902 146.114C81.885 146.673 82.5452 147.228 82.6565 148.175C82.6532 148.309 82.6499 148.444 82.7812 148.582C85.061 149.043 85.4051 151.477 87.1295 152.598C87.7929 153.019 87.7596 154.366 88.5511 155.059C90.0027 156.308 91.037 158.086 91.9432 159.591C92.9807 161.234 94.2877 162.884 95.4599 164.53C96.3694 165.9 99.9695 167.472 102.145 166.717C104.32 165.962 106.754 165.618 108.798 164.725C109.481 164.338 110.441 163.688 111.128 163.166C112.912 161.862 114.963 160.7 116.612 159.393C117.851 158.345 119.353 157.574 120.464 156.253C121.713 154.802 123.103 153.084 124.749 151.912C125.436 151.39 125.729 150.454 126.284 149.793C127.812 147.944 129.341 146.095 129.936 143.819C130.387 141.943 130.972 140.071 128.999 138.135C127.291 136.341 126.001 134.018 124.158 132.22C122.841 130.974 121.935 129.469 120.891 128.096C120.237 127.271 119.867 125.914 119.082 124.951C117.506 123.295 116.478 121.248 115.04 119.46C113.992 118.221 113.493 116.591 112.722 115.09C111.826 113.181 109.691 112.319 108.525 110.403C107.75 109.036 106.975 107.67 106.062 106.434C105.015 105.195 104.654 103.434 103.065 102.316C102.135 101.754 100.677 100.775 100.582 99.1551L100.585 99.0204C98.0528 97.8796 98.0014 94.5089 95.4723 93.2333C94.6741 92.8092 94.8388 91.6003 94.4547 90.7821C93.8079 89.6879 93.1578 88.7284 92.2316 88.0316C90.9046 87.1901 90.8066 85.7051 90.1631 84.4762C89.6477 83.52 88.4521 82.8165 88.3307 82.2744C88.2427 80.3853 85.9529 80.3287 85.7302 78.4363C85.6155 77.6248 84.5746 76.1165 83.5204 75.147C82.6009 74.1808 81.0045 73.3326 81.4553 71.4569C81.6 71.0561 81.3306 71.0495 81.0645 70.9081C79.9936 70.6121 79.3402 69.7872 78.9594 68.8344C78.0699 66.6559 75.9515 65.1209 74.9239 63.0739C73.6336 60.7507 70.9697 59.4718 70.639 56.4985C68.5072 55.5023 68.0251 53.1992 66.5801 51.6809C65.1385 50.0279 63.5555 48.641 62.942 46.1998C62.5713 44.8429 60.8403 43.9914 59.7927 42.7524C58.6171 41.2408 57.5796 39.5978 56.8147 37.8268C56.306 36.6012 55.2484 35.7664 54.6049 34.5374C53.318 32.0796 51.0682 30.4066 49.5052 28.2115C47.9389 26.1511 46.1098 23.8146 43.1666 22.9331C42.3651 22.6437 41.8429 21.9569 41.1795 21.5362C39.051 20.4053 37.0606 19.143 34.9322 18.0121C33.868 17.4467 32.6624 17.1473 31.7362 16.4505C28.9576 14.3601 25.4755 13.4653 22.5556 11.6409C20.0331 10.0959 17.5039 8.82035 15.1194 7.14401C13.1323 5.74707 10.7112 5.55237 8.86877 3.75468C7.56183 2.10501 5.14066 1.91032 3.28161 0.786097C2.48678 0.22732 1.39256 0.874124 0.453031 0.716096C0.0522811 0.571401 0.0356141 1.24487 0.0289473 1.51426C0.113641 3.53801 -0.0777216 5.82448 0.68711 7.5955C1.32391 9.09381 1.15255 10.5721 1.79269 11.9357C2.68221 14.1142 2.89494 16.4106 3.64977 18.5857C4.15188 20.0807 4.2399 21.9698 4.87671 23.4681C5.76957 25.5118 5.7129 27.8016 7.01317 29.7207C7.40392 30.2695 7.51528 31.2156 7.50195 31.7544C7.59664 33.3741 9.321 34.495 8.6042 36.2293C10.5846 37.8957 9.70977 40.5696 10.872 42.62C11.5222 43.5795 11.6135 45.3339 12.119 46.6941C13.1432 48.8759 14.1641 51.1924 15.323 53.3775C15.7104 54.061 16.3705 54.6164 16.7546 55.4346C17.6608 56.9395 18.4256 58.7106 19.6046 60.0875C20.7801 61.5991 21.6797 63.3735 22.9933 64.7538C23.256 65.0298 24.0542 65.4539 23.098 65.9694C22.9599 66.1007 22.9566 66.2354 23.0913 66.2388C25.0917 67.0969 25.5772 69.2654 26.7527 70.777C27.6689 71.8779 28.7265 72.7127 29.3633 74.211C29.8687 75.5713 31.0376 77.3523 32.4959 78.3318C32.6273 78.4699 32.7553 78.7426 32.752 78.8773C33.2441 80.7763 34.423 82.1533 35.8747 83.4022C36.5348 83.9577 36.6428 85.0385 37.0269 85.8567C37.6704 87.0856 38.3072 88.5839 39.5028 89.2874C40.3009 89.7115 40.4123 90.6577 40.537 91.0651C40.9144 92.1526 42.3994 92.0546 42.6388 93.2735C42.8748 94.6271 44.3498 94.9332 44.8619 96.0241C45.8828 98.3406 47.8632 100.007 49.4329 101.933C50.6084 103.444 51.5113 105.084 53.0943 106.471C54.2799 107.578 54.9033 109.615 56.0823 110.992C55.1061 112.316 57.1298 112.231 57.0998 113.444C57.2112 114.39 58.2621 115.494 59.0502 116.322C59.5723 117.009 60.5019 117.571 60.8859 118.389C62.3076 120.85 64.416 122.789 65.7063 125.113C66.3498 126.342 67.6867 126.779 68.0641 127.867C68.5696 129.227 69.6238 130.196 70.4053 131.294C71.0554 132.253 71.5709 133.21 72.6351 133.775C74.2381 134.354 72.7598 134.182 72.7498 134.587ZM23.59 40.6435C22.5357 39.674 22.1517 38.8558 22.185 37.5089C22.205 36.7007 22.491 36.0339 22.6457 35.2291C22.9718 32.9459 23.6886 31.2116 26.0051 30.1907C28.1835 29.3012 32.7431 30.2227 33.9054 32.2731C35.1956 34.5962 36.8967 36.66 38.0522 38.9798C38.4363 39.7979 39.3792 39.8213 39.6352 40.3667C40.3967 42.2724 41.4343 43.9154 42.6065 45.5618C43.6508 46.9354 44.5603 48.3056 45.4698 49.6759C47.0261 52.1404 48.9965 54.2108 50.6876 56.6787C52.9007 59.8333 55.1172 62.8532 57.6064 65.7452C59.9642 68.499 61.7699 71.7784 63.993 74.5289C65.9535 77.0034 67.9139 79.4779 69.7396 81.9491C71.1746 83.8715 72.6062 85.9286 73.9031 87.9823C75.7189 90.8576 77.8106 93.4701 79.761 96.3487C80.6706 97.7189 81.9842 99.0992 82.7557 100.601C84.1773 103.062 85.5989 105.523 87.1619 107.718C89.3784 110.738 91.4569 113.89 94.2188 116.653C96.0578 118.586 97.6242 120.646 99.1872 122.841C99.5779 123.39 100.376 123.814 100.353 124.757C100.323 125.969 99.1171 125.67 98.5684 126.061C98.4303 126.192 98.2923 126.323 98.1576 126.32C95.6798 128.415 93.0706 130.372 90.9868 132.881C90.5694 133.41 90.0207 133.801 89.5052 132.845C88.737 131.208 87.4168 130.098 86.3759 128.589C84.2941 125.573 82.0776 122.553 79.7231 119.664C76.9746 116.361 74.502 112.796 71.8915 109.362C70.3252 107.302 68.7622 105.107 67.1958 103.046C65.6328 100.851 64.2079 98.5245 62.6449 96.3294C61.3413 94.545 60.3104 92.6326 58.8687 90.9797C57.5585 89.4647 56.5276 87.5523 55.3587 85.7713C53.5463 82.7613 51.1885 80.0074 49.2414 76.9942C46.5161 72.7486 43.2421 68.8939 40.3822 64.645C38.8192 62.4499 37.2595 60.1201 35.6965 57.925C34.5276 56.144 32.8099 54.7537 31.7757 52.976C29.4579 48.6058 25.9078 45.0137 23.59 40.6435ZM37.9842 36.2825C36.8053 34.9056 35.3937 32.0404 34.8949 30.4107C34.1567 27.5621 35.0116 25.6964 37.7354 24.5508C39.5065 23.786 41.3789 24.3714 42.7058 25.2129C43.9014 25.9164 45.235 26.4885 46.1512 27.5894C47.0674 28.6903 48.2596 29.5284 49.0378 30.7607C50.7188 33.6326 52.3998 36.5045 54.3569 39.1137C54.7477 39.6625 55.2731 40.2146 55.6605 40.8981C57.3315 44.1741 59.0059 47.3154 61.0877 50.332C62.1286 51.8403 63.0314 53.48 64.3517 54.5908C65.0085 55.281 64.7158 56.2172 65.2479 56.4999C67.3763 57.6308 68.2659 59.8092 69.8422 61.4656C71.0244 62.7078 72.2067 63.9501 72.9815 65.317C74.0157 67.0947 75.05 68.8724 76.3569 70.5221C76.6163 70.9328 77.0137 71.2122 77.0037 71.6163C77.0884 73.64 79.3615 74.3702 79.5809 76.3972C81.0592 76.5686 81.2953 77.9222 81.5413 78.8717C81.7874 79.8213 82.1815 80.2353 82.7069 80.7875C83.6298 81.619 84.4113 82.7165 84.92 83.9421C85.4222 85.4371 86.2037 86.5346 87.5306 87.3761C88.4568 88.0729 89.6424 89.1805 89.619 90.1233C89.4343 92.1404 92.1182 92.6112 91.7988 94.6249C94.1967 95.7625 94.9415 98.3417 96.7905 99.87C98.5082 101.26 99.1284 103.432 100.705 105.088C101.756 106.193 102.254 107.822 103.713 108.802C104.11 109.081 104.632 109.768 104.757 110.175C104.852 111.795 106.182 112.502 106.967 113.465C107.098 113.603 107.364 113.744 107.357 114.013C107.193 115.222 107.465 115.094 108.254 115.923C108.907 116.747 110.109 117.181 110.352 118.266C110.473 118.808 110.332 119.074 111.009 118.956C111.278 118.962 111.548 118.969 111.538 119.373C111.531 119.643 111.521 120.047 111.252 120.04C109.369 119.859 108.117 121.445 106.491 121.809C105.137 122.045 104.039 122.827 102.807 123.605C102.258 123.996 101.854 123.986 101.194 123.43C100.537 122.74 100.426 121.794 99.904 121.107C97.9502 118.363 95.5857 115.879 93.632 113.135C92.5911 111.626 91.1394 110.377 90.1019 108.734C89.4551 107.64 88.6736 106.543 87.8921 105.445C86.9759 104.344 86.2011 102.977 85.4196 101.88C83.8599 99.55 82.2969 97.3549 80.7372 95.025C78.7868 92.1465 76.6984 89.3992 74.748 86.5207C74.2259 85.8339 73.9798 84.8843 73.4577 84.1975C71.76 81.9991 70.059 79.9353 68.3613 77.7369C66.9263 75.8145 65.6227 74.0302 64.3258 71.9764C62.9008 69.6499 60.7924 67.7109 59.2327 65.3811C57.673 63.0513 56.1167 60.5868 54.2777 58.6544C51.9098 56.3046 50.3635 53.436 48.2717 50.8235C46.7021 48.8978 45.4118 46.5746 44.2529 44.3895C43.4747 43.1573 42.4205 42.1877 41.777 40.9588C40.332 39.4405 39.1598 37.7942 37.9842 36.2825ZM87.3534 132.657C88.4043 133.761 88.9198 134.717 87.6742 136.034C87.1221 136.56 86.5666 137.22 86.1492 137.748C85.1763 138.937 84.3348 140.264 83.0993 141.177C82.8232 141.44 82.005 141.824 82.0117 141.555C82.1797 140.211 80.8361 140.043 80.452 139.225C79.8152 137.726 79.5859 136.103 77.9895 135.255C77.0567 134.828 76.6759 133.875 76.2952 132.922C75.7864 131.697 74.8702 130.596 73.9507 129.63C73.1625 128.801 72.5124 127.842 71.9969 126.886C71.3501 125.791 70.7033 124.697 69.7871 123.596C68.6115 122.085 66.8905 120.829 66.267 118.792C66.1457 118.25 65.4822 117.829 65.2228 117.418C64.5794 116.189 63.3838 115.486 62.6056 114.254C61.8241 113.156 60.9113 111.921 60.1298 110.823C59.3516 109.591 58.028 108.615 57.7919 107.261C57.5559 105.907 56.633 105.076 55.7102 104.244C55.05 103.689 54.6659 102.871 54.0025 102.45C52.5475 101.336 52.8669 99.3221 51.4119 98.2078C51.0145 97.9284 50.351 97.5077 49.9603 96.9589C49.0441 95.858 48.8114 94.3697 47.8885 93.5382C46.4402 92.1546 45.5373 90.515 44.3618 89.0033C42.536 86.5322 41.1211 83.8016 39.026 81.3238C38.5005 80.7717 37.7057 80.2129 37.5843 79.6708C37.473 78.7246 36.9542 77.9031 36.156 77.479C35.3579 77.0549 35.5126 76.2501 34.9871 75.698C32.8853 73.4895 31.0563 71.1531 29.5033 68.5539C27.8189 65.8166 25.8585 63.3421 23.9014 60.733C21.9477 57.9891 19.8593 55.2418 18.1782 52.3699C17.272 50.865 16.3658 49.36 15.0456 48.2491C14.1194 47.5523 14.2674 47.0169 14.2874 46.2087C14.3407 44.0536 15.5963 42.3326 16.3165 40.4635C16.7472 39.3959 18.1075 38.8905 19.185 38.9172C19.7238 38.9305 21.2021 39.1019 21.1821 39.91C21.1421 41.5264 22.331 42.4992 23.1159 43.4621C25.201 46.344 27.1514 49.2226 29.2365 52.1045C30.9342 54.3029 32.3592 56.6294 33.9222 58.8245C34.835 60.0601 35.8826 61.299 36.7954 62.5346C37.8363 64.0429 38.7392 65.6826 39.9181 67.0595C40.9656 68.2984 41.7338 69.9348 42.6467 71.1703C44.469 73.7762 46.7055 75.988 48.2518 78.8566C48.6393 79.54 48.892 80.2202 49.4174 80.7723C51.9133 83.3948 53.5843 86.6708 55.8041 89.556C57.3704 91.6165 58.2533 94.0643 59.9577 95.9934C60.8738 97.0942 62.0594 98.2018 62.4368 99.2893C62.8109 100.512 63.7371 101.208 64.2492 102.299C64.5019 102.979 65.4415 103.137 65.6975 103.683C66.5804 106.131 68.1467 108.191 69.7197 109.982C72.2089 112.874 74.2907 115.891 76.6452 118.779C78.6089 121.119 80.2999 123.587 82.1257 126.058C84.0894 128.398 86.0632 130.334 87.3534 132.657ZM98.0591 162.977C96.3214 162.395 96.5061 160.378 95.0478 159.398C93.7209 158.557 93.9089 156.405 92.0332 155.954C91.8985 155.951 91.9051 155.681 91.9085 155.547C90.8742 153.769 89.9781 151.86 88.1223 150.601C87.5902 150.318 87.2028 149.635 88.4151 149.665C88.5498 149.668 88.8225 149.54 88.9638 149.274C89.6806 147.54 91.1889 146.499 92.1718 144.906C94.1309 141.989 96.4873 139.352 99.0999 137.26C101.854 134.902 104.874 132.686 108.15 131.015C109.513 130.375 110.752 129.327 112.122 128.418C113.217 127.771 114.446 127.127 115.665 126.888C116.611 126.777 118.22 127.086 117.77 128.962C117.77 128.962 117.904 128.965 118.036 129.103C119.514 129.275 120.157 130.503 120.804 131.598C121.323 132.419 121.845 133.106 122.364 133.928C123.273 135.298 124.87 136.146 125.497 138.048C125.749 138.728 125.611 138.86 125.211 138.715C124.544 138.429 124.402 138.695 124.123 139.093C123.568 139.753 122.749 140.137 122.066 140.524C119.066 141.932 116.851 144.304 114.11 146.123C112.329 147.292 110.939 149.009 109.417 150.589C108.724 151.38 107.374 151.482 107.074 152.687C106.785 153.489 106.229 154.149 105.549 154.402C103.637 155.433 103.048 157.44 101.398 158.747C99.8935 159.653 99.1733 161.522 98.0591 162.977ZM33.6926 29.9766C32.369 29.0004 31.0321 28.563 29.8265 28.2636C27.9541 27.6782 25.7923 27.8942 23.87 29.3292C21.1294 31.1482 20.7967 33.7008 20.5953 36.3913C20.5687 37.4689 20.434 37.4655 19.4944 37.3075C17.2113 36.9814 14.5988 39.0732 14.2727 41.3564C14.118 42.1612 13.4445 42.1445 13.1652 42.5419C12.6164 42.9327 12.9091 41.9965 12.5084 41.8518C11.4441 41.2864 12.545 40.3702 12.0262 39.5487C11.1134 38.3131 11.1567 36.5621 10.5166 35.1984C10.0045 34.1076 10.4486 32.5012 9.65706 31.8078C8.86889 30.9796 8.62617 29.8954 8.38012 28.9458C7.63529 26.3666 6.62107 23.7808 6.14896 21.0736C5.90957 19.8547 4.99671 18.6191 5.56882 17.2855C5.85488 16.6187 6.26896 16.2246 6.55501 15.5578C8.13332 11.6883 11.672 10.2933 15.3388 9.17109C15.7462 9.0464 16.0123 9.18776 16.1336 9.72987C16.2616 10.0026 16.521 10.4133 16.7871 10.5547C19.4476 11.9683 22.2562 12.8465 24.6374 14.6575C26.3551 16.0478 28.3588 16.7713 30.2245 17.6261C31.4235 18.1949 32.481 19.0297 33.6799 19.5985C34.8788 20.1673 36.0811 20.6013 37.28 21.1701C37.5461 21.3115 38.0815 21.4595 37.9335 21.995C37.7854 22.5304 37.378 22.6551 36.9773 22.5104C36.0411 22.2177 35.6237 22.7464 34.9335 23.4033C33.2672 25.3837 33.0825 27.4007 33.6926 29.9766ZM113.373 121.44C113.077 122.511 113.33 123.191 113.859 123.609C115.843 125.14 115.29 125.666 113.135 125.613C113.001 125.609 112.863 125.741 112.725 125.872C111.765 126.522 110.678 126.899 109.718 127.55C107.94 128.584 105.63 129.335 104.116 130.646C101.776 132.609 98.7824 133.748 96.5707 135.985C95.6011 137.039 94.4936 138.225 93.3894 139.275C92.4232 140.195 91.7097 141.795 90.8715 142.987C89.7573 144.442 88.7745 146.035 87.7949 147.493C87.5155 147.891 87.2228 148.827 86.5693 148.002C84.6056 145.662 84.2582 143.362 86.2006 141.119C88.9745 137.953 91.883 134.79 94.9196 131.901C98.2323 128.748 102.07 126.147 106.299 124.096C108.481 123.071 110.788 122.455 113.373 121.44ZM110.172 152.764C111.799 152.4 112.381 150.662 113.61 150.019C115.657 148.991 117.05 147.139 118.835 145.835C121.174 143.872 123.511 142.043 126.373 140.766C127.053 140.513 127.184 140.651 127.716 140.934C128.515 141.358 127.966 141.748 127.956 142.153C127.646 143.762 126.805 145.089 125.963 146.416C123.863 149.599 121.372 152.233 118.214 154.58C116.568 155.753 114.918 157.06 112.756 157.276C110.864 157.498 108.965 157.99 107.197 158.621C106.244 159.001 105.167 158.975 104.086 159.083C105.338 157.496 107.375 156.873 107.964 154.866C107.97 154.596 108.108 154.465 108.513 154.475C110.412 153.983 112.304 153.76 114.065 153.4C115.015 153.153 116.23 153.049 117.065 151.991C114.644 151.797 112.462 152.821 110.172 152.764ZM100.329 163.842C101.847 162.397 102.456 159.582 105.403 160.328C105.537 160.332 105.813 160.069 105.948 160.072C107.847 159.58 109.743 159.223 111.777 158.734C110.787 160.596 109.029 160.822 107.534 161.325C106.447 161.702 105.875 163.036 104.669 162.736C103.73 162.578 103.181 162.969 102.763 163.498C102.067 164.424 101.258 164.404 100.329 163.842Z" fill="white"/>
<path d="M38.8745 54.769C39.5913 53.0346 38.5304 52.3345 37.6075 51.503C37.3448 51.2269 37.2035 51.493 37.0688 51.4897C36.6613 51.6144 36.786 52.0218 36.9141 52.2945C37.4328 53.116 37.9516 53.9375 38.8745 54.769Z" fill="white"/>
<path d="M76.285 106.101C75.7329 106.627 75.989 107.172 76.2484 107.583C76.5078 107.994 77.0432 108.142 77.592 107.751C78.1441 107.226 77.8847 106.815 77.4906 106.401C77.2246 106.259 76.8372 105.576 76.285 106.101Z" fill="white"/>
<path d="M65.8348 87.2435C65.9462 88.1897 64.9766 89.2439 66.3103 89.816C66.711 89.9607 66.9904 89.5633 67.1318 89.2973C67.5692 87.9603 66.2222 87.927 65.8348 87.2435Z" fill="white"/>
<path d="M67.1863 65.3084C65.8994 62.8505 64.3397 60.5207 62.7801 58.1909C61.4798 56.2719 60.3175 54.2215 59.0173 52.3024C58.8892 52.0297 59.0406 51.3595 58.3605 51.6123C58.0877 51.7403 57.677 51.9997 57.5323 52.4004C57.2462 53.0672 57.9264 52.8145 58.0544 53.0872C58.9773 53.9187 59.348 55.2757 60.2675 56.2419C60.921 57.0667 61.2984 58.1543 61.9519 58.9791C63.5116 61.3089 65.0746 63.504 66.6342 65.8338C66.7756 65.5677 66.9136 65.4364 67.1863 65.3084Z" fill="white"/>
<path d="M51.0576 41.7276C51.0242 43.0745 52.0818 43.9094 52.7286 45.0036C53.8909 47.054 55.7366 48.717 56.6261 50.8955C56.7475 51.4376 57.2762 51.855 57.8217 51.5989C58.3705 51.2082 58.1177 50.528 57.7203 50.2486C56.5314 49.2758 56.2987 47.7875 55.2478 46.6833C54.0689 45.3063 53.4354 43.6733 52.3912 42.2997C51.9971 41.8856 51.8824 41.0741 51.0576 41.7276Z" fill="white"/>
<path d="M51.0576 41.7276C51.0642 41.4582 51.3403 41.1955 51.0809 40.7847C49.6426 38.997 48.8845 36.9566 47.5842 35.0376C47.4562 34.7649 47.2034 34.0847 46.6547 34.4755C46.3786 34.7382 46.5033 35.1456 46.628 35.553C47.9249 37.6068 49.0905 39.5225 50.3874 41.5762C50.6502 41.8523 50.7849 41.8556 51.0576 41.7276Z" fill="white"/>
<path d="M67.1863 65.3084C67.0483 65.4397 66.9103 65.5711 66.6376 65.6991C67.6751 67.3421 68.7127 68.9851 69.7502 70.6281C69.8782 70.9008 70.1443 71.0422 70.4203 70.7795C70.5584 70.6481 70.565 70.3787 70.5684 70.244C70.5817 69.7052 70.0563 69.1531 69.7935 68.8771C68.6046 67.9042 68.5133 66.1499 67.1863 65.3084Z" fill="white"/>
<path d="M69.9929 71.7123C71.9833 72.9746 72.3308 75.2744 74.1831 76.668C73.9671 74.5062 72.1047 73.5167 71.6093 71.7523C71.4879 71.2102 70.6764 71.3249 69.9929 71.7123Z" fill="white"/>
<path d="M33.3081 67.3003C34.2643 66.7848 34.7564 68.6839 35.8639 67.4983C36.2813 66.9695 36.4294 66.4341 36.032 66.1547C35.5032 65.7373 34.7083 65.1785 34.0215 65.7006C33.6075 66.0947 33.0587 66.4854 33.3081 67.3003Z" fill="white"/>
<path d="M99.1186 158.286C97.8217 156.232 96.5214 154.313 95.2245 152.259C94.7024 151.573 94.0422 151.017 93.6581 150.199C93.3987 149.788 93.0013 149.509 92.7286 149.637C92.1832 149.893 92.7119 150.31 92.7053 150.58C93.1941 152.613 94.9117 154.004 95.9493 155.647C96.4714 156.334 97.1282 157.024 97.6503 157.71C98.0344 158.529 98.4385 158.539 99.1186 158.286Z" fill="white"/>
<path d="M107.13 145.007C106.765 143.38 105.658 144.566 105.112 144.822C104.294 145.206 105.22 145.903 105.483 146.179C105.874 146.728 106.534 147.283 107.359 146.629C107.908 146.239 108.059 145.569 107.13 145.007Z" fill="white"/>
<path d="M27.8647 20.398C26.0357 18.0615 23.5032 16.9206 21.2534 15.2476C20.4585 14.6889 19.3843 14.5275 18.4481 14.2348C18.1821 14.0934 17.9093 14.2215 17.768 14.4875C17.6233 14.8883 17.8927 14.8949 18.024 15.0329C20.6746 16.8506 23.3285 18.5336 26.1204 20.0853C26.7872 20.3713 27.1846 20.6507 27.8647 20.398Z" fill="white"/>
<path d="M9.25026 21.0155C9.90706 21.7057 10.7252 21.3216 11.3987 21.3383C11.166 19.85 11.166 19.85 9.25026 21.0155Z" fill="white"/>
<path d="M15.2182 24.937C14.9588 24.5262 14.4167 24.6476 14.2753 24.9137C13.8612 25.3077 14.1173 25.8532 14.242 26.2606C14.5014 26.6713 14.9154 26.2773 15.1882 26.1492C15.8716 25.7618 14.6694 25.3277 15.2182 24.937Z" fill="white"/>
</svg>
