<svg width="111" height="132" viewBox="0 0 111 132" fill="none" xmlns="http://www.w3.org/2000/svg">
<path d="M48.5754 34.038C47.9658 32.8737 46.6941 32.3615 47.9009 31.2496L47.751 30.63C46.0095 30.8873 47.1413 29.4657 46.799 28.7286C46.3818 27.6818 46.1994 26.2501 45.5898 25.0858C43.9858 22.5223 43.3537 19.2318 41.4398 16.7433C40.253 15.2267 39.3436 12.8231 38.5091 10.7293C38.0919 9.68245 37.2474 8.9029 36.9051 8.16584C35.8782 5.95465 33.6445 4.8553 32.7351 2.45172C32.6602 2.14191 32.7776 1.94953 33.0124 1.56476C34.7214 0.495406 38.9739 0.450462 39.4236 2.30936C40.0232 4.78788 42.0645 5.76981 43.2513 7.28641C44.0533 8.56815 45.41 8.07595 46.5643 8.78054C48.1034 9.71999 49.9523 10.5845 51.7262 11.1392C53.3827 11.8862 55.2416 11.4365 55.5614 10.0473C56.351 7.88864 58.4447 7.05415 60.0363 6.17719C62.29 4.64811 64.9284 3.3539 67.5668 2.05969C70.2053 0.765482 72.9836 1.40512 75.5795 0.613107C77.6733 -0.221381 80.6865 0.03349 83.1875 1.5601C84.1494 2.14725 85.0789 1.92239 86.1582 2.31716C90.7105 3.51148 94.6756 5.66772 98.7157 8.13378C101.986 10.1301 105.097 12.821 109.147 13.9729C109.842 14.1328 110.878 15.0297 110.761 15.2221C109.864 16.259 110.004 18.1928 108.53 18.8774C106.628 19.8293 105.262 21.6358 103.628 23.0149C102.111 24.2017 100.594 25.3885 99.0029 26.2655C97.6037 27.2599 95.9372 27.827 94.613 29.1312C93.6411 29.8583 92.2094 30.0407 91.1625 30.4579C87.9045 31.902 84.2717 31.7971 80.8312 31.8095C78.3952 31.907 76.0441 31 73.9603 30.5203C71.4918 29.8057 68.9058 29.2835 66.6397 27.3721C65.2181 26.2402 63.0594 25.4507 61.6377 24.3189C59.8313 22.9522 58.0249 21.5855 56.6882 19.4492C55.6938 18.0501 54.7419 16.1487 53.0854 15.4016C50.7343 14.4947 48.5006 13.3953 45.7972 13.0655C47.4437 15.1268 47.7336 17.6802 48.7604 19.8914C49.1027 20.6285 49.3701 21.0557 49.8298 21.6004C50.8666 22.4974 50.7392 24.004 50.6543 25.0084C50.6767 27.1346 52.793 28.4264 52.3132 30.5101C53.9373 30.4452 52.7305 31.557 52.9978 31.9842C53.1802 33.4159 54.7617 33.8531 55.5738 33.8207C57.8174 33.6058 59.4315 34.8551 61.3978 35.5272C63.1717 36.0819 64.9457 36.6365 66.9544 36.8065C67.9589 36.8914 68.8458 37.1687 69.6154 37.6385C70.5773 38.2256 71.2719 38.3855 72.4686 38.5879C73.2807 38.5555 74.1676 38.8328 75.0121 39.6123C76.1989 41.1289 78.2827 41.6087 79.9392 42.3557C82.9848 43.4226 85.1335 45.5264 87.2822 47.6301C88.5115 48.6445 90.0181 48.772 90.9375 49.8613C92.7764 52.04 93.8783 54.561 95.952 56.355C94.8102 59.0908 98.9027 59.7405 98.3805 62.3264C98.2631 62.5188 98.6379 64.0679 99.8771 63.7681C100.187 63.6931 100.379 63.8106 100.262 64.0029C99.9321 66.7063 100.532 69.1849 101.324 71.7808C102.383 74.804 102.011 78.0096 102.76 81.1078C103.36 83.5863 102.913 86.482 101.888 89.0255C101.611 89.9125 101.718 91.0343 101.826 92.1562C101.933 93.278 101.304 94.7421 100.984 96.1313C100.706 97.0182 99.8519 97.5529 99.8844 98.3649C99.7469 101.186 98.0279 103.569 96.5438 105.568C95.2946 107.182 94.9647 109.886 92.5612 110.795C91.5143 111.212 92.1989 112.686 91.1095 113.606C89.4755 114.985 88.6859 117.144 86.4748 118.171C85.7377 118.513 85.0756 119.165 84.6808 120.244C84.0087 122.211 81.6801 123.43 80.0136 123.997C78.1547 124.447 76.6381 125.634 74.9716 126.201C71.8309 127.452 68.5829 127.582 65.2174 127.905C62.1617 128.152 59.3834 127.512 56.5201 127.877C52.8447 128.274 49.4793 128.597 45.8364 129.806C42.9307 130.673 39.2878 131.882 35.8574 130.58C34.778 130.186 33.4638 130.176 32.1496 130.165C28.2069 130.135 25.2462 128.064 21.7408 126.453C17.4659 124.371 15.0599 120.526 11.6394 117.91C8.79612 115.647 8.04659 112.548 6.98724 109.525C6.64496 108.788 6.53753 107.666 5.45818 107.271C4.95598 107.229 4.80607 106.609 4.73112 106.3C4.75112 103.671 3.22205 101.417 2.62242 98.9389C1.75546 96.0332 1.8929 93.2124 0.716119 90.3815C0.223924 89.0248 0.82108 86.7487 0.563745 85.0072C-0.100832 80.9047 0.858629 76.7372 1.00607 72.6021C1.11103 68.9693 2.60516 65.6563 3.52214 61.991C4.00187 59.9072 4.79141 57.7485 6.04068 56.1345C7.09756 54.403 8.34682 52.789 9.28627 51.2499C10.3432 49.5185 12.0521 48.4491 12.9916 46.9101C13.5787 45.9481 14.4008 44.6014 16.0997 44.8463C16.2921 44.9637 16.4096 44.7714 16.4096 44.7714C15.725 43.2972 16.9218 43.4996 17.5414 43.3497C18.4708 43.1249 19.1005 41.6607 20.5646 42.2904C21.2367 40.324 23.3629 40.3016 24.7621 39.3072C27.6779 37.126 31.4706 36.5364 34.8036 35.4021C39.6108 33.5832 43.9807 33.3459 48.5754 34.038ZM51.9283 50.6081C51.3712 47.6274 51.0064 44.7641 50.3318 41.9758C50.2244 40.8539 50.3094 39.8495 50.3943 38.8451C50.5218 37.3385 49.5598 36.7514 48.363 36.549C45.6597 36.2192 42.9888 36.7014 40.2754 37.6858C38.4914 38.4453 36.675 38.3928 35.0085 38.96C33.6518 39.4521 32.3376 39.4421 31.0559 40.2442C30.2014 40.7788 29.0695 42.2005 27.5729 40.7588C27.1132 40.2141 27.0283 41.2186 26.526 41.1761C26.7834 42.9175 25.8215 42.3304 24.892 42.5552C24.2724 42.7051 23.2255 43.1224 22.7558 43.8919C21.1542 46.0831 18.9006 47.6122 17.0317 49.3761C15.8249 50.4879 14.1159 51.5573 12.9091 52.6691C11.7023 53.7809 11.2226 55.8647 9.89836 57.1689C9.00139 58.2058 8.75653 59.9048 8.05194 61.0591C7.07001 63.1004 7.28487 65.344 5.99313 67.4603C5.40597 68.4222 5.97312 70.0887 5.81321 70.7833C4.67137 73.5191 4.91871 76.5748 4.78127 79.3956C4.68631 81.7142 4.1641 84.3002 4.88116 86.5863C5.03107 87.206 3.79181 87.5058 4.32648 88.3603C4.97859 89.0224 5.36335 89.2572 5.04353 90.6464C4.72372 92.0356 5.67564 93.9369 6.16783 95.2936C7.30214 98.6267 8.319 102.152 9.26092 105.368C10.3203 108.391 12.2341 110.879 13.1011 113.785C13.3259 114.715 14.0955 115.184 14.6301 116.039C16.7364 118.645 19.932 120.331 22.3905 122.36C22.5829 122.478 22.8502 122.905 23.16 122.83C25.0514 123.192 26.2382 124.709 28.0121 125.263C29.5936 125.701 31.0153 126.832 32.3295 126.842C36.9667 127.032 41.7963 127.34 46.3686 125.906C48.345 125.264 50.5137 124.739 52.5649 124.407C56.0479 123.892 59.6707 125.311 62.8538 123.557C64.5428 125.116 66.1768 123.737 67.9932 123.79C70.4293 123.692 73.1002 123.21 75.3114 122.183C77.5226 121.156 79.3165 119.082 81.4528 117.746C81.9974 117.286 82.7345 116.944 82.8944 116.249C82.9144 113.621 86.9745 113.458 86.4173 110.478L86.5348 110.285C88.2338 110.53 88.1688 108.906 89.0233 108.371C90.3475 107.067 90.5924 105.368 91.6068 104.139C95.6969 100.034 95.5445 94.6596 97.2835 89.6476C97.9556 87.6813 98.093 84.8605 97.4934 82.382C96.7014 79.786 98.1531 76.9752 96.4741 74.1019C96.2817 73.9845 96.5166 73.5997 96.4416 73.2899C96.6115 71.2811 95.9269 69.807 94.8576 68.098C94.1305 67.126 93.7558 65.577 93.6483 64.4551C93.5409 63.3333 93.3585 61.9017 92.8988 61.357C90.985 58.8684 89.7332 55.7278 86.8475 53.9663C86.4627 53.7315 86.3877 53.4217 86.1204 52.9944C85.136 50.281 82.635 48.7544 80.5513 48.2747C78.7773 47.72 77.4731 46.3958 76.4362 45.4988C74.2451 43.8973 71.7016 42.8729 69.4679 41.7735C66.8495 40.4393 63.7513 41.1888 61.2928 39.16C60.908 38.9251 60.2235 37.451 59.0592 38.0607C57.8948 38.6703 57.0504 37.8907 55.971 37.496C55.2764 37.3361 54.8592 36.2892 54.0047 36.8239C52.7229 37.6259 54.4219 37.8707 54.3794 38.3729C53.7823 40.6491 55.5462 42.518 54.9491 44.7941C54.3944 46.568 56.4681 48.362 55.4862 50.4033C55.3688 50.5956 55.6361 51.0229 56.1383 51.0654C57.7623 51.0004 59.5363 51.5551 60.9679 51.3727C62.3996 51.1903 63.5964 51.3927 63.8962 52.632C64.3884 53.9887 63.8762 55.2604 62.2846 56.1374C61.2377 56.5546 61.0129 55.6252 60.2009 55.6577C57.8822 55.5627 55.4462 55.6601 53.3624 55.1804C49.4623 54.6482 45.6046 53.6138 41.7044 53.0816C40.8174 52.8042 40.4327 52.5694 40.4002 51.7574C40.3677 50.9453 40.7625 49.866 41.7669 49.9509C43.5833 50.0034 45.6346 49.6711 47.0987 50.3008C48.1781 50.6955 48.8726 50.8554 49.6097 50.5132C50.4642 49.9785 51.0414 50.3308 51.9283 50.6081ZM104.447 16.9136C103.283 17.5232 102.311 18.2503 101.382 18.4751C96.7018 18.7874 92.0546 19.9117 87.225 19.6044C82.203 19.1796 77.106 18.445 72.074 19.3344C69.7129 19.7417 67.042 20.2238 64.9683 18.4299C64.7759 18.3125 64.4661 18.3874 64.4661 18.3874C63.2917 20.3113 61.9975 17.6728 60.7158 18.4749C60.5984 18.6672 59.9138 17.1931 59.2517 17.8452C58.782 18.6148 59.5515 19.0845 60.0112 19.6292C60.5459 20.4836 61.3904 21.2632 62.1599 21.7329C66.4773 23.312 69.7379 26.6225 74.2901 27.8169C77.7631 28.6164 81.3534 29.2236 84.7189 28.9013C86.6527 28.7614 88.5966 27.3073 90.8727 27.9044C90.8727 27.9044 91.3 27.6371 91.4174 27.4447C92.1645 25.7882 94.1408 25.1461 95.5725 24.9637C97.1215 24.5889 97.0241 22.1529 98.873 23.0174C101.094 20.6763 104.042 19.3071 106.339 17.2759C106.573 16.8911 107.161 15.9292 105.889 15.417C104.425 14.7873 102.576 13.9228 101.539 13.0259C97.0817 9.51294 92.1121 7.27175 87.0252 5.22293C83.21 3.68633 78.9575 3.73127 74.705 3.77622C70.8798 3.55382 67.5793 5.50014 64.3212 6.94426C62.11 7.97113 60.2411 9.73506 58.6396 11.9262C57.7001 13.4653 59.2492 13.0906 59.3991 13.7102C60.8732 13.0256 61.9851 14.2324 63.1819 14.4348C66.5373 15.4267 70.0203 14.912 73.3758 15.904C75.1497 16.4586 77.3609 15.4318 78.9424 15.869C82.1055 16.7435 85.3536 16.6136 88.2919 16.5587C91.2301 16.5037 94.3183 17.0684 97.4914 16.6287C99.4252 16.4888 101.711 15.7717 104.447 16.9136Z" fill="white"/>
<path d="M24.2295 104.206C21.5461 101.248 19.1726 98.2145 17.696 94.1444C16.6366 91.1212 16.4318 87.5633 14.3255 84.9574C14.0582 84.5301 13.9183 82.5963 13.8858 81.7843C14.2481 79.8929 12.9439 78.5687 13.3062 76.6773C13.5935 74.4761 13.8059 71.9651 14.0183 69.4541C14.1458 67.9475 13.8884 66.2061 14.8279 64.667C15.6499 63.3203 16.2795 61.8562 17.219 60.3171C17.3364 60.1247 18.031 60.2846 18.5332 60.3271C19.2278 60.487 18.6831 60.9467 18.758 61.2565C18.3958 63.1479 17.7236 65.1142 17.0515 67.0806C16.5393 68.3523 16.7542 70.596 17.1289 72.145C18.1883 75.1682 17.4312 78.139 17.9884 81.1197C18.2457 82.8611 19.1227 84.4527 19.38 86.1942C19.6698 88.7476 20.152 91.4185 21.3713 93.7472C23.3176 97.0477 22.7854 100.948 24.2295 104.206Z" fill="white"/>
<path d="M46.5864 71.9054C46.3515 72.2901 46.4589 73.412 45.5295 73.6368C44.2902 73.9366 41.5644 71.4806 41.8417 70.5936C42.1615 69.2045 43.101 67.6654 44.2228 67.5579C45.8893 66.9908 46.8412 68.8922 46.5864 71.9054Z" fill="white"/>
<path d="M74.2398 75.0537C74.0799 75.7483 71.399 77.5447 70.6295 77.0749C69.9349 76.915 69.5926 76.178 69.5601 75.366C69.72 74.6714 72.4434 72.3728 72.9456 72.4152C73.9825 73.3122 74.2074 74.2417 74.2398 75.0537Z" fill="white"/>
<path d="M67.4812 104.728C67.8984 105.775 67.4287 106.545 66.3069 106.652C64.8003 106.525 63.6135 105.008 63.8583 103.309C63.9433 102.305 65.0651 102.197 65.8772 102.165C66.6892 102.132 67.6836 103.532 67.4812 104.728Z" fill="white"/>
<path d="M44.9497 88.8627C45.1096 88.1681 45.5044 87.0888 46.199 87.2487C47.2783 87.6435 46.9585 89.0326 47.1834 89.9621C47.4082 90.8915 46.5962 90.924 46.2115 90.6892C45.2071 90.6042 44.4375 90.1345 44.9497 88.8627Z" fill="white"/>
<path d="M78.4771 107.479C78.0074 108.249 77.8475 108.943 76.9605 108.666C75.7637 108.464 75.4214 107.727 75.1966 106.797C75.1216 106.487 75.9011 105.643 76.7132 105.61C77.7925 106.005 78.1348 106.742 78.4771 107.479Z" fill="white"/>
<path d="M56.0606 86.6666C56.338 85.7797 57.0001 85.1275 57.8121 85.0951C58.2393 84.8277 58.0045 85.2125 57.887 85.4049C59.0413 86.1095 58.9564 87.1139 58.1768 87.9584C57.7496 88.2257 57.4723 89.1127 56.7027 88.6429C55.7408 88.0558 56.5203 87.2113 56.0606 86.6666Z" fill="white"/>
<path d="M85.7354 93.4253C85.5955 91.4914 87.1445 91.1167 88.0415 90.0798C88.1589 89.8874 88.6611 89.9299 88.7361 90.2397C89.0034 90.667 89.0784 90.9768 88.8435 91.3615C88.1389 92.5159 87.167 93.2429 85.7354 93.4253Z" fill="white"/>
<path d="M42.1637 114.625C41.5016 115.277 40.7221 116.121 39.7926 116.346C39.4828 116.421 38.5958 116.144 38.8732 115.257C39.1505 114.37 39.4279 113.483 40.5072 113.878C41.2018 114.038 41.779 114.39 42.1637 114.625Z" fill="white"/>
<path d="M31.9427 60.8544C33.2469 62.1786 33.3543 63.3004 32.6497 64.4547C32.2974 65.0319 31.3355 64.4447 31.3355 64.4447C30.7259 63.2804 31.8153 62.361 31.9427 60.8544Z" fill="white"/>
</svg>
