<svg width="132" height="121" viewBox="0 0 132 121" fill="none" xmlns="http://www.w3.org/2000/svg">
<path d="M4.37157 67.3603C6.52248 63.367 10.3456 60.9092 13.6131 58.7464C16.7175 56.8127 19.4598 53.9309 22.3348 51.834C25.2097 49.7371 28.7066 47.7376 30.9902 44.5292C31.6426 43.6126 33.7683 43.054 35.2721 42.398C36.939 41.5128 38.1471 40.3011 40.1097 39.9716C43.8055 39.1495 42.3269 36.3708 41.766 34.2452C40.8072 29.765 37.7226 25.8433 35.9788 21.4948C34.597 18.0945 33.8371 14.7916 32.8478 11.3254C32.4858 10.3772 32.5163 9.36315 31.9912 8.64413C30.8746 6.81363 30.0537 5.53887 32.6025 3.90031C34.9218 2.09846 36.0689 2.91488 38.2967 4.15526C40.9834 5.72221 43.2471 8.36912 45.9642 8.92199C50.5472 9.76706 53.336 13.133 56.9404 15.3531C59.1682 16.5934 60.8099 19.143 63.1041 20.7758C64.71 21.9188 65.4951 21.787 66.7694 20.9677C69.1551 19.5583 71.3113 17.9857 73.6969 16.5763C75.1344 15.5278 77.1938 14.5768 79.0901 13.8549C82.164 12.9353 84.9422 11.46 86.6701 8.54671C86.9963 8.08838 87.6487 7.1717 87.8781 7.33498C91.6761 8.31182 93.8933 4.71099 97.4923 4.51047C99.6843 4.34432 102.299 3.09821 104.063 1.59141C105.501 0.542957 106.189 1.03281 107.27 1.45677C108.417 2.27319 109.564 3.0896 109.044 4.79119C108.524 6.49277 107.841 8.42354 107.092 9.96184C105.104 13.726 104.197 17.914 101.817 21.744C99.6659 25.7373 98.4327 30.3837 96.5112 34.5403C94.9159 38.2385 95.7063 40.5274 98.3625 43.1084C102.232 46.8983 105.938 50.9173 109.482 55.1656C111.613 57.0276 114.136 58.8237 115.845 61.7657C116.732 63.4329 118.404 64.9683 119.78 65.948C124.272 69.8353 126.444 75.5244 130.543 79.4776C132.445 81.1763 131.629 82.3222 129.34 83.11C124.926 84.4563 121.255 81.8438 117.391 80.4745C113.756 79.2685 109.632 78.75 106.063 77.9365C101.873 77.0255 97.5193 76.3437 93.3288 75.4328C90.3822 74.7166 87.6345 75.1778 85.0142 74.0033C83.4746 73.2528 82.236 75.4786 81.9761 76.3294C79.3412 83.4308 75.5592 89.7158 72.4654 96.4906C69.7947 102.185 67.2871 107.651 65.0752 113.673C64.6522 114.753 64.5249 116.388 63.9388 117.697C63.3527 119.007 63.0622 120.871 61.4258 120.742C60.182 120.548 58.8718 119.96 57.5921 118.359C55.4915 115.483 55.2873 111.885 55.7408 109.791C56.8109 105.374 54.9703 101.647 54.6998 97.6565C54.5313 95.4651 55.2143 93.5343 54.8164 91.1796C54.4186 88.8249 54.8058 86.3384 53.3935 83.9522C53.0977 83.3964 52.5726 82.6774 52.8325 81.8266C55.1465 77.6042 52.3882 73.2242 52.9027 69.102C52.9995 68.4803 52.5407 68.1538 52.1482 68.2197C47.7999 69.9585 43.018 67.9361 38.4403 69.5116C35.2033 70.6603 31.5685 69.4543 28.1021 70.4398C22.1174 72.0497 16.1937 71.6314 10.3059 72.6197C8.9652 73.0466 6.54375 73.0494 4.35172 73.2156C2.78162 73.4791 1.37463 73.5135 0.783186 72.402C0.487464 71.8463 1.85864 70.4054 2.28166 69.3254C2.70467 68.2455 4.34108 68.3744 4.37157 67.3603ZM96.3747 46.8725C94.7993 44.7154 92.765 42.2318 90.6645 39.3557C89.8436 38.081 89.3185 37.3619 90.2308 35.5945C91.4694 33.3687 92.7079 31.1429 93.9465 28.917C94.5326 27.6079 93.1561 26.6282 94.3642 25.4165C96.8466 23.3855 96.1172 19.0685 99.0585 17.364C99.2216 17.1349 99.3184 16.5132 99.2521 16.1208C99.15 14.3218 99.2773 12.6861 100.878 11.4085C101.434 11.1134 102.805 9.67251 101.591 8.46364C100.607 7.41805 99.5624 8.40062 98.6142 8.76157C95.2804 10.5319 91.6509 11.7465 88.5465 13.6801C85.6053 15.3846 82.0062 15.5851 79.3607 17.8453C78.4788 18.5987 77.959 20.3003 76.4857 19.9422C73.6054 19.6185 71.2861 21.4203 69.293 22.7638C64.5217 25.5826 61.412 25.0956 57.3793 21.5349C55.0189 19.5096 52.5921 17.0919 49.253 16.4416C46.3064 15.7255 46.3263 9.87018 41.7181 12.4598C41.7181 12.4598 41.4887 12.2965 41.2593 12.1332C40.9635 11.5775 40.4384 10.8585 39.7197 11.3827C38.8378 12.1361 39.1998 13.0843 39.4956 13.64C39.6282 14.4249 40.1533 15.144 40.0565 15.7656C40.9543 22.274 45.0891 27.6337 47.1645 33.9445C47.5265 34.8927 49.2292 35.414 48.48 36.9523C47.8939 38.2615 47.4404 40.3555 46.3291 40.9456C42.0471 43.0769 39.2743 46.9728 35.1555 48.8749C26.9841 53.0715 21.6015 60.6341 13.4964 65.2233C13.3996 65.8449 13.0734 66.3032 13.3691 66.859C13.5017 67.6439 14.2205 67.1197 14.613 67.0538C19.6853 67.2113 24.263 65.6358 29.2027 65.0084C33.1279 64.3496 37.3794 63.2324 41.371 62.966C44.348 62.668 47.7176 62.3042 50.8273 62.7912C53.5445 63.3441 56.9751 60.9521 58.8821 65.0714C59.1778 65.6272 60.1259 65.2662 59.3104 66.4121C58.3981 68.1796 57.3889 70.5687 59.8462 71.9723C60.9933 72.7887 60.2082 72.9205 59.882 73.3788C59.0055 76.5528 57.7364 79.7927 60.8514 82.7003C61.3103 83.0269 61.0503 83.8777 60.4947 84.1727C59.6129 84.9261 59.9749 85.8743 59.9444 86.8884C59.1037 91.4689 61.24 95.7515 61.1844 100.2C61.0571 101.836 60.8993 104.486 61.7865 106.153C61.8528 106.545 61.756 107.167 62.541 107.035C62.9335 106.969 63.163 107.133 63.2598 106.511C63.647 104.025 64.8855 101.799 66.3535 99.7362C69.4526 95.382 70.3901 90.1799 73.0303 85.4991C75.1812 81.5058 76.7102 77.4151 78.1728 72.932C78.8558 71.0012 79.8344 69.6262 82.2559 69.6233C87.425 69.1593 92.3037 70.5601 97.3455 71.7317C101.47 72.2502 105.66 73.1611 109.688 74.3012C110.768 74.7252 111.65 73.9718 113.19 74.7223C115.81 75.8968 118.726 77.6271 121.999 77.8849C122.621 77.9823 123.08 78.3088 123.569 77.6213C123.666 76.9997 123.207 76.6732 122.911 76.1174C120.056 72.359 116.549 69.5173 113.367 66.2173C111.466 64.5186 111.231 61.9347 109.329 60.2359C104.379 56.0221 100.606 51.6106 96.3747 46.8725Z" fill="white"/>
<path d="M73.2304 42.4839C72.5116 43.0081 71.956 43.3031 71.0383 42.65C70.2838 41.7677 70.2731 36.9265 71.5475 36.1072C72.2663 35.583 73.5765 36.1702 74.2647 36.6601C74.9529 37.1499 74.2753 41.5013 73.2304 42.4839Z" fill="white"/>
<path d="M71.3962 56.7155C73.9449 55.0769 75.2551 55.6642 75.7193 58.4114C73.823 59.1332 72.5128 58.546 71.3962 56.7155Z" fill="white"/>
</svg>
