<svg width="114" height="165" viewBox="0 0 114 165" fill="none" xmlns="http://www.w3.org/2000/svg">
<path d="M1.15691 89.7958C0.0639106 87.7224 0.888538 86.0649 1.42323 84.0506C2.26246 81.1964 4.03825 78.7656 4.34975 75.748C4.372 75.5325 4.4909 75.4358 4.72869 75.2426C6.52674 72.5963 8.03484 69.5933 10.1228 67.3037C12.2108 65.014 14.5143 62.7467 17.3011 61.0738C20.3256 59.2076 23.5956 58.1292 27.0589 57.2886C28.85 56.82 30.8865 57.1392 32.8264 57.3394C34.8852 57.443 36.6839 57.9554 38.6759 58.7057C40.5713 59.337 42.3255 60.2805 43.6042 61.6106C44.3996 62.3463 46.5029 62.0188 45.9682 64.0331C48.4136 64.6122 48.8154 67.05 50.0718 68.5956C51.6404 70.2824 52.9712 72.1625 54.4209 73.9459C55.0008 74.6593 55.7218 75.0605 56.6584 75.4839C57.0672 75.744 57.2904 76.7473 58.0038 76.1674C58.4794 75.7808 58.7839 74.9409 58.5162 74.3687C57.9287 72.6742 57.9878 71.0465 58.0469 69.4189C58.017 68.6533 58.106 67.7912 57.4295 66.9589C56.9463 66.3644 56.7231 65.3611 57.1465 64.4245C57.8745 62.648 56.2836 61.1768 56.5805 59.3558C56.8552 57.7504 56.0299 56.2492 56.639 54.5694C56.9212 53.945 56.2746 53.8783 55.9624 53.7371C53.9259 53.418 53.0039 51.7979 52.0597 50.3934C51.4055 49.3456 50.2534 48.8999 49.5024 47.7332C47.6363 44.7087 46.2234 41.5131 45.5761 38.2876C45.0331 36.1621 44.4157 33.7021 45.4259 31.3012C45.5671 30.989 45.6338 30.3424 45.4183 30.3202C43.9241 28.9678 45.2542 27.6892 45.5066 26.2993C45.8258 24.2627 46.3604 22.2485 47.2073 20.3753C47.8908 19.0299 48.3587 17.6623 48.9233 16.4135C49.2279 15.5736 53.2919 8.91335 53.8641 8.64566C56.5841 7.61941 57.9733 4.71307 60.8122 3.59017C61.8378 3.15144 63.4356 2.44503 64.238 1.00298C64.5203 0.3786 65.3824 0.467595 66.0291 0.534345C67.3001 0.883388 67.2632 2.29554 67.2931 3.06106C68.0225 7.60205 69.1085 11.8531 70.5067 16.2453C72.2992 22.0941 73.0661 28.3817 72.3242 34.5136C72.0127 37.5311 70.1924 40.393 69.6654 43.3883C68.8115 47.4391 65.9358 49.9742 63.6622 53.0071C63.2832 53.5125 62.7854 54.1147 62.2354 54.1668C59.6044 54.3309 59.9764 56.0031 60.4673 57.5786C60.7127 58.3664 60.6237 59.2286 60.5569 59.8752C59.9555 62.5361 60.3574 64.9738 61.6437 67.285C61.9114 67.8572 61.2425 68.006 61.2946 68.556C62.1206 73.2159 62.85 77.7569 63.5794 82.2979C63.6538 82.6323 63.9437 82.989 64.1592 83.0112C64.5903 83.0557 64.6348 82.6247 64.776 82.3125C64.9171 82.0003 65.1549 81.807 65.0805 81.4725C64.1808 79.637 65.5332 78.1428 65.8078 76.5373C66.2382 73.4231 67.8207 70.7545 69.3066 67.9671C70.1089 66.5251 69.7147 65.0684 69.6327 63.7529C69.2829 61.8652 68.8143 60.0741 68.3457 58.283C68.0481 56.9452 68.7538 55.3843 68.8129 53.7566C69.0125 48.658 72.6983 45.662 75.663 42.2647C77.2532 40.5773 78.94 39.0087 81.4743 38.7257C82.2399 38.6958 82.2545 37.4992 83.1389 37.3726C87.9399 36.2344 92.7632 34.8807 97.6762 35.8235C100.025 36.2838 100.969 37.6883 100.94 40.0816C100.866 42.9059 101.008 45.7524 100.384 48.6288C99.9762 51.5275 99.6647 54.5451 98.0523 56.4482C96.581 58.039 96.2174 60.5066 93.9284 61.5774C93.2373 61.9417 92.7694 63.3094 92.0338 64.1048C88.4968 67.7697 84.179 69.5023 79.5413 70.1128C78.1069 70.2915 76.256 69.2291 74.6506 68.9544C73.6918 68.7465 73.6695 68.9621 73.1495 69.7797C72.0126 71.2962 71.6191 72.9983 71.3222 74.8193C71.211 75.897 69.3754 76.7967 69.5318 78.4466C69.6291 81.7243 68.121 84.7272 68.2184 88.0049C68.1148 90.0636 67.7734 92.3157 68.8664 94.3891C69.8627 96.3436 68.9713 98.6478 69.5144 100.773C69.8342 101.896 70.1019 102.468 71.343 102.051C73.5874 101.412 75.9062 101.106 78.0019 99.7978C79.1686 99.0469 80.9673 99.5594 82.424 99.1651C84.5495 98.6221 86.7049 98.8446 88.7338 98.1827C92.1004 97.2232 95.5269 97.7947 98.9011 97.8163C104.141 97.7037 107.085 100.839 107.628 106.124C107.837 108.324 108.499 110.353 109.161 112.381C109.726 114.291 108.976 116.283 109.972 118.238C110.337 118.929 110.107 120.103 110.999 120.958C111.407 121.218 111.244 121.746 111.318 122.08C110.643 124.407 111.617 126.577 112.16 128.702C112.651 130.278 112.926 131.831 112.867 133.459C112.83 134.871 113.224 136.327 113.522 137.665C113.819 139.003 113.396 139.94 112.854 140.973C112.69 141.5 111.471 141.701 112.579 142.578C112.007 142.846 111.65 143.136 111.152 143.738C110.394 144.749 110.09 145.589 109.956 146.882C109.637 148.919 108.768 151.007 107.081 152.576C104.562 154.821 102.236 157.304 98.9664 158.382C96.3653 159.312 94.1285 160.933 91.2597 161.29C89.6097 161.446 87.5586 162.324 86.0053 162.599C83.5676 163.001 81.2342 164.503 78.5955 163.686C78.4989 163.567 78.2833 163.545 78.1644 163.641C75.9944 164.616 73.5192 163.271 71.468 164.148C67.7447 165.398 64.3774 163.199 60.9586 163.608C58.0898 163.965 55.5179 162.502 52.9981 161.588C49.4229 160.348 47.8689 157.464 45.6461 154.73C42.6723 150.828 42.2774 146.213 40.5447 141.895C38.3733 136.552 37.5619 130.695 35.0561 125.426C34.0597 123.472 33.6578 121.034 35.1958 118.797C35.7159 117.979 35.6116 116.879 36.6817 116.009C37.1573 115.623 36.8896 115.05 37.685 115.786C37.7817 115.905 38.5694 115.66 38.7106 115.347C40.3897 112.798 43.2509 111.459 45.5175 110.604C47.7842 109.749 50.6009 108.842 53.0608 108.224C54.6141 107.949 56.1598 106.692 57.9509 106.224C59.7642 105.54 61.3843 104.618 63.5174 105.056C64.3796 105.145 65.8362 104.75 65.4643 103.078C64.7648 99.3028 63.9687 95.4084 62.8381 91.5884C61.8786 88.2218 59.4924 86.0149 57.8195 83.2282C57.4552 82.537 56.3775 82.4258 56.0576 81.3036C55.8866 80.8502 55.3366 80.9024 55.151 81.6457C54.5718 84.091 52.6917 85.4218 51.0049 86.9904C49.3181 88.559 47.8246 90.3654 45.6768 91.1239C43.8635 91.8081 42.1245 92.8267 40.6755 94.202C39.9622 94.7819 38.81 94.3362 37.8811 94.8938C34.8788 96.5444 31.8689 97.214 28.5092 95.9958C27.6693 95.6913 27.1715 96.2934 26.5026 96.4422C23.7527 96.7029 21.0918 96.1015 18.3342 95.3812C13.6591 94.2451 9.40731 92.1724 5.17782 89.8841C3.87692 88.7696 2.48702 88.5172 1.15691 89.7958ZM37.3672 124.14C37.806 125.166 38.0514 125.953 38.4157 126.645C40.3195 131.416 42.9143 135.823 44.5802 140.787C45.0711 142.362 46.2309 143.789 46.7217 145.365C47.1681 147.371 47.5178 149.259 48.5364 150.998C49.2651 152.38 49.3249 153.911 50.1502 155.413C51.7265 158.08 55.0708 157.336 57.0705 159.068C57.1672 159.187 57.925 158.176 58.6238 158.792C59.4192 159.528 60.5192 159.424 61.6935 159.654C63.5145 159.951 65.5956 159.839 67.5577 159.824C69.8542 159.734 72.2551 160.744 74.6407 159.792C74.9751 159.718 75.2797 158.878 75.904 159.16C77.4427 160.082 79.286 160.163 80.7871 159.338C82.0505 158.706 83.4626 158.742 84.6592 158.757C87.2902 158.593 89.8691 157.879 92.0614 156.689C94.707 155.329 98.2002 155.253 100.117 152.51C100.496 152.005 100.778 151.381 101.209 151.425C103.722 151.358 103.58 148.511 105.512 147.73C104.932 147.017 106.389 146.623 105.809 145.909C105.013 145.174 105.705 144.809 106.18 144.423C108.224 142.564 109.568 140.089 109.166 137.651C108.861 135.332 109.753 133.028 109.21 130.903C108.815 129.446 109.09 127.841 108.792 126.503C108.562 124.519 106.777 122.809 106.784 120.632C106.814 118.239 105.193 116.002 106.01 113.363C106.173 112.835 106.024 112.167 105.734 111.81C104.381 110.145 104.463 108.302 104.879 106.384C105.064 105.641 104.507 104.712 104.165 103.806C104.068 103.687 103.183 103.813 103.065 103.91C102.284 105.136 100.828 105.531 99.78 106.185C97.6843 107.493 95.5665 109.018 93.1809 109.969C92.2742 110.311 91.2709 110.535 90.4609 110.996C86.7452 113.226 82.7396 115.1 78.4886 116.186C78.1541 116.26 77.8419 116.119 77.4852 116.409C76.1329 117.903 74.2674 118.038 72.5952 118.41C68.2475 119.377 64.1452 121.132 59.8942 122.218C58.1031 122.686 56.1931 123.252 54.231 123.267C51.4067 123.193 48.3446 123.313 45.6913 123.692C42.9192 124.169 40.2882 124.333 37.3672 124.14ZM53.5747 78.9778C52.675 77.1422 50.9952 76.5331 49.4342 75.8274C47.0334 74.8171 44.4691 74.3346 41.9494 73.421C38.783 72.4406 35.5276 72.3224 32.2799 73.1852C31.4921 73.4307 31.0687 74.3672 30.1098 74.1593C28.2889 73.8624 26.3789 74.4277 24.6844 75.0152C20.0767 76.3912 15.5656 77.8861 11.4487 80.8376C9.44975 82.2651 7.83735 84.1681 5.64507 85.3577C4.95394 85.7221 4.46376 87.3053 5.54147 87.4165C8.63345 88.0625 10.9231 90.1504 13.9928 91.0119C18.3335 92.2224 22.6444 92.6674 27.0296 93.4469C29.7128 93.8328 32.4105 93.0221 34.7739 92.2858C38.5938 91.1552 42.3616 89.4747 45.4752 86.7463C46.0697 86.2631 47.1919 85.9433 46.7754 84.7022C49.5774 84.9914 50.5133 82.2561 52.3934 80.9253C52.8912 80.3232 53.1958 79.4833 53.5747 78.9778ZM49.3293 71.5687C49.3439 70.3721 48.5039 70.0675 48.1396 69.3764C46.1768 66.233 43.0994 64.3904 39.9031 62.6445C37.4279 61.2998 34.4325 60.7728 31.5338 60.3646C28.8507 59.9787 26.5096 60.4995 24.0052 61.548C22.8607 62.0834 21.6418 62.2843 20.4974 62.8197C18.8029 63.4072 17.4207 64.1359 16.3061 65.4368C15.5705 66.2322 14.8349 67.0276 14.0992 67.8231C12.6502 69.1983 10.7701 70.5291 10.2355 72.5434C9.88641 73.8144 8.71205 73.5843 8.48191 74.7586C8.25941 76.9141 5.94824 78.2004 6.15682 80.4003C6.13457 80.6158 5.99342 80.928 5.87453 81.0247C5.08676 81.2701 4.68557 81.9911 5.1688 82.5856C5.74867 83.299 6.46205 82.7191 7.03428 82.4514C8.17874 81.916 8.64668 80.5484 9.79114 80.013C11.8868 78.7045 13.9824 77.3959 16.1747 76.2063C20.3437 73.8047 24.788 72.9565 29.2769 71.6771C32.3091 70.792 35.5422 71.1258 38.671 70.3596C40.2466 69.8687 42.0599 69.1845 43.7398 69.7936C45.5607 70.0905 47.6418 69.9785 49.3293 71.5687ZM63.7109 3.99832C62.8787 4.67484 62.2098 4.82363 61.7342 5.21022C58.4941 7.05414 57.0382 10.6071 54.4968 13.0678C52.0744 15.4318 51.2873 18.8359 50.307 22.0023C49.9802 23.0578 48.8656 24.3587 50.1665 25.4733C48.1898 26.6852 49.9294 28.8253 48.5993 30.1039C48.1237 30.4905 48.1091 31.6871 48.3768 32.2594C48.9643 33.9538 49.9085 35.3583 49.2772 37.2537C49.1138 37.7814 49.2848 38.2347 50.0058 38.6359C50.6302 38.9182 50.779 39.5871 50.7123 40.2337C50.2151 43.9946 53.508 45.8594 55.0843 48.5272C55.2776 48.765 55.8797 49.2629 56.3553 48.8763C56.712 48.5863 56.972 48.1775 56.8976 47.8431C56.518 45.1898 56.785 42.6033 57.2675 40.0391C57.7501 37.4748 57.3927 34.606 57.9719 32.1606C58.8035 28.3254 59.3229 24.349 59.9389 20.4915C61.0451 15.0508 62.248 9.72896 63.7109 3.99832ZM80.2839 67.1397C85.4194 65.9271 89.1274 62.7156 92.4266 59.2439C94.1357 57.4598 94.8337 54.9178 96.1339 52.8736C97.9765 49.7962 98.4069 46.682 98.644 43.33C98.7552 42.2523 98.0342 41.8511 97.551 41.2566C97.3577 41.0188 96.4288 41.5764 96.0498 42.0819C95.6932 42.3719 95.552 42.684 95.1953 42.974C91.8141 45.1301 89.035 47.784 86.2336 50.6535C82.5555 54.6306 79.9849 59.4845 76.2102 63.3427C75.5934 64.0415 76.1288 65.1859 74.9844 65.7213C74.4121 65.989 75.3042 66.8435 77.2441 67.0438C78.3218 67.155 79.444 66.8352 80.2839 67.1397ZM60.9491 51.8556C61.2015 50.4657 63.0969 51.0971 63.327 49.9227C63.6761 48.6517 64.3373 47.5219 64.9985 46.392C65.3997 45.671 66.9975 44.9646 65.7189 43.6345C67.4877 43.3814 65.9191 41.6946 66.7514 41.0181C68.4159 39.665 68.9506 37.6507 68.9353 35.6886C68.7191 32.5076 69.6995 29.3412 69.3866 26.0413C69.1259 23.2914 69.3185 20.3705 68.6044 17.7916C67.6672 14.2095 66.9455 10.6495 66.4393 7.11186C66.3649 6.77743 66.2905 6.44299 65.8372 6.61403C65.5027 6.68843 65.1905 6.54728 65.2204 7.31281C65.6299 10.7316 64.1962 14.069 63.6469 17.2799C63.1644 19.8441 62.6819 22.4084 62.7493 24.9205C62.7722 27.8637 61.1897 30.5323 61.8593 33.5422L61.837 33.7577C59.6302 36.144 61.3997 39.0497 60.7983 41.7106C59.9368 44.7803 60.2274 48.2957 60.9491 51.8556ZM83.3773 40.3381C81.5564 40.0412 81.2817 41.6466 80.3751 41.9887C77.8483 43.2528 75.4704 45.1857 74.148 47.4454C72.142 51.0505 69.6605 55.0422 72.352 59.5679C72.6419 59.9246 72.1218 60.7423 73.1029 60.7346C73.8684 60.7047 74.1285 60.2959 74.2919 59.7682C74.433 59.456 74.1431 59.0993 74.5964 58.9282C76.7887 57.7386 77.8956 55.4566 79.7013 53.7914C81.3881 52.2228 83.0005 50.3198 84.6873 48.7512C87.1097 46.3872 89.651 43.9265 92.6756 42.0604C93.9612 41.2128 95.0757 39.9119 96.6513 39.421C97.1046 39.25 97.3202 39.2722 97.3647 38.8411C97.5503 38.0979 96.8814 38.2467 96.6659 38.2244C94.3617 37.333 91.9462 37.5194 89.6795 38.3746C87.3162 39.1109 84.6553 38.5095 83.3773 40.3381ZM66.8555 109.648C66.4982 106.779 65.2494 106.215 62.916 107.717C60.8204 109.025 58.3826 109.427 56.0416 109.948C55.2538 110.193 54.4883 110.223 53.7749 110.803C53.1804 111.286 52.7792 112.007 51.8204 111.799C50.4305 111.547 49.3382 112.632 48.216 112.952C45.6149 113.882 43.1848 115.265 40.5615 116.41C40.227 116.484 40.1081 116.581 40.3981 116.938C40.5914 117.175 41.3124 117.577 40.3313 117.584C38.3914 117.384 37.879 119.183 37.7677 120.26C37.7531 121.457 39.3064 121.182 40.3097 120.958C40.6442 120.884 40.8375 121.122 41.053 121.144C43.2752 120.72 45.7727 121.849 47.7717 120.422C49.1762 119.477 50.6773 118.652 52.1785 117.827C56.4219 115.76 60.5686 113.574 65.1541 112.413C66.923 112.16 67.4431 111.343 66.8555 109.648ZM70.3557 107.395C71.2477 108.25 70.7874 110.599 72.1474 110.085C74.0797 109.305 76.1607 109.193 77.8996 108.174C79.5197 107.252 82.166 109.05 82.983 106.412L83.1985 106.434C84.5217 107.333 86.0006 106.723 87.2194 106.522C88.9883 106.269 90.586 105.563 92.5037 105.978C92.9348 106.023 93.158 107.026 93.7747 106.327C95.7215 104.35 99.0958 104.372 100.678 101.703C100.819 101.391 101.563 101.576 101.295 101.004C101.102 100.766 100.381 100.365 100.381 100.365C98.4784 101.912 96.4711 99.1992 94.4721 100.627C93.8776 101.11 92.5176 101.623 92.1088 101.363C89.0835 100.07 86.5123 101.766 83.6658 101.907C82.1347 101.967 81.2134 103.506 79.7269 103.135C78.337 102.882 77.1925 103.418 75.8548 103.715C74.7326 104.035 73.6848 104.689 72.4882 104.675C70.4294 104.571 71.1135 106.384 70.3557 107.395Z" fill="white"/>
<path d="M63.7169 133.722C63.687 132.957 65.7896 129.47 66.5551 129.44C66.8896 129.366 67.7962 129.024 68.0194 130.027C68.1237 131.127 65.9022 134.71 64.8989 134.933C64.1334 134.963 63.3679 134.993 63.7169 133.722Z" fill="white"/>
<path d="M95.5421 133.522C95.5942 134.072 93.2239 136.986 93.0307 136.748C92.5252 136.369 91.8563 136.518 91.7298 135.634C91.7666 134.221 93.208 131.865 94.189 131.857C95.1478 132.065 95.2521 133.165 95.5421 133.522Z" fill="white"/>
<path d="M55.0528 142.739C56.2494 142.754 57.5872 142.456 56.4058 144.404C56.0046 145.125 57.8924 144.775 57.09 146.217C56.5477 147.25 56.0943 147.422 55.2767 146.901C54.0502 146.121 53.7303 144.999 53.8638 143.706C54.1684 142.866 54.4062 142.673 55.0528 142.739Z" fill="white"/>
<path d="M50.7322 131.837C51.6987 133.026 49.982 133.829 50.3018 134.951C50.3985 135.07 49.5662 135.747 49.0607 135.368C48.5552 134.989 47.8342 134.588 47.8043 133.822C47.7445 132.291 49.2457 131.466 50.078 130.789C50.8136 129.994 50.6801 131.287 50.7322 131.837Z" fill="white"/>
<path d="M73.9468 147.522C72.9435 147.745 73.3892 146.593 72.8614 146.429C73.3815 145.612 72.7495 144.348 74.1839 144.17C75.6183 143.991 75.797 145.425 75.9458 146.094C76.0501 147.194 74.0803 146.228 73.9468 147.522Z" fill="white"/>
</svg>
