<svg width="494" height="398" viewBox="0 0 494 398" fill="none" xmlns="http://www.w3.org/2000/svg">
<path d="M644.854 -57.3027C632.53 -30.9319 666.483 -9.38632 669.383 15.7143C671.873 39.1964 653.443 58.5016 644.964 79.5932C629.615 114.48 646.934 141.959 658.58 174.318C679.831 234.387 659.895 305.742 613.098 349.451C535.508 421.623 409.009 413.171 349.928 323.066C341.576 310.54 334.642 296.795 325.478 284.475C291.887 243.892 229.788 254.445 183.48 245.5C124.171 232.957 70.6921 195.686 37.2829 145.585C-6.51951 78.3078 -10.585 -12.8068 21.9342 -85.6254C64.7521 -182.58 196.105 -270.945 302.589 -225.563C318.238 -218.33 335.313 -208.874 351.545 -212.983C376.91 -218.542 383.347 -244.284 394.875 -263.564C407.821 -284.065 424.432 -300.326 445.517 -312.553C486.271 -335.786 539.048 -338.813 581.724 -320.336C651.836 -288.999 729.678 -162.307 672.59 -91.0197C662.063 -78.021 649.7 -68.8633 644.854 -57.3027Z" fill="#9CCDEE"/>
</svg>
