<svg width="579" height="292" viewBox="0 0 579 292" fill="none" xmlns="http://www.w3.org/2000/svg">
<path d="M428.647 474.748C401.341 484.832 410.331 524.026 394.742 543.912C380 562.358 353.321 563.124 332.461 572.158C297.015 586.169 290.006 617.885 275.531 649.082C248.401 706.734 184.05 743.449 120.041 741.618C14.124 738.371 -69.8726 643.408 -48.5172 537.798C-45.6479 523.019 -40.9122 508.37 -38.7644 493.167C-34.1095 440.692 -85.6824 404.527 -112.317 365.604C-145.666 314.979 -157.48 250.874 -146.003 191.759C-129.838 113.124 -68.6568 45.4827 5.67002 16.5763C104.291 -22.2486 259.821 7.29103 303.619 114.436C309.658 130.584 315.149 149.314 329.579 157.807C351.523 171.69 374.202 157.915 395.956 152.313C419.576 146.841 442.821 146.96 466.41 153.094C511.724 165.232 551.376 200.193 568.726 243.339C596.539 314.923 562.796 459.738 472.077 470.28C455.452 472.119 440.222 469.936 428.647 474.748Z" fill="#9CCDEE"/>
</svg>
