<svg width="173" height="593" viewBox="0 0 173 593" fill="none" xmlns="http://www.w3.org/2000/svg">
<path d="M172.436 360.122C172.436 353.931 172.126 347.739 171.815 341.547C172.126 341.237 172.126 341.237 172.126 340.928V340.618C172.126 340.618 172.126 340.308 171.815 340.308C170.263 312.754 165.917 285.201 158.466 258.575C151.326 232.879 142.633 203.777 113.14 197.895C113.14 197.585 112.83 197.276 112.83 197.276C112.83 191.084 112.83 184.892 112.519 178.7C115.003 176.842 117.176 174.675 119.039 171.889C126.49 161.053 129.284 147.121 130.215 134.118C130.836 134.428 131.457 134.118 131.767 133.809C131.767 133.809 132.078 133.809 132.078 133.499C136.734 129.165 138.287 123.592 139.218 117.4C140.149 107.493 140.149 97.5862 140.46 87.6792C141.081 67.8651 140.77 47.7414 134.872 28.5466C134.561 26.689 134.251 24.8314 133.63 22.9739C134.251 22.3547 133.63 21.7355 133.319 21.7355C132.699 20.1875 132.078 18.33 131.457 17.0916C131.767 16.4724 131.457 15.8532 130.836 15.8532C130.215 14.9244 129.904 13.9956 129.284 13.0668C129.594 12.4477 128.973 11.8285 128.663 11.8285C127.731 10.5901 126.8 9.35171 125.558 8.42292C125.558 7.80374 125.248 7.18455 124.316 7.49414C123.075 6.25576 121.833 5.32698 120.281 4.70779C120.591 4.0886 119.66 3.15982 119.039 3.77901C114.692 1.61184 109.725 0.373464 103.827 0.0638693C85.5101 -0.55532 67.1936 6.56536 59.4324 23.5931C50.7398 42.7879 50.4293 66.3171 47.6353 86.7504C46.083 98.8246 38.3218 123.283 52.292 131.022C51.3607 144.954 51.0502 159.505 57.8801 172.198C59.4324 174.985 60.9846 177.152 62.8473 178.7C62.8473 184.892 63.1577 191.393 63.1577 197.585C62.8473 197.585 62.8473 197.585 62.5369 197.895C39.5636 213.684 22.4888 236.594 13.1753 262.6C1.99914 294.179 1.37824 328.853 0.446886 361.98C0.136436 362.909 0.136436 364.147 1.37824 364.457C0.757336 370.029 0.757336 375.912 5.41408 379.936C11.0022 384.89 19.3843 386.748 26.5247 387.676C26.8351 387.676 27.456 387.676 27.7665 387.367C29.9396 448.047 33.9755 508.728 49.498 567.86C49.1875 568.17 49.1875 568.17 48.8771 568.48H48.5666C43.289 570.956 31.4919 575.6 30.2501 582.411C28.6978 590.151 41.4263 590.151 46.083 590.771C53.2234 591.699 65.3309 594.486 71.5399 589.842C77.4385 585.507 75.8862 575.6 75.2653 569.408C75.2653 568.789 74.9548 568.48 74.6444 568.17C74.6444 566.932 74.9548 566.003 74.9548 564.764C74.9548 564.764 74.9548 564.765 74.9548 564.455C74.9548 564.145 74.9548 563.836 74.9548 563.836C77.4385 544.331 79.3011 524.517 80.8534 504.703C80.8534 504.394 81.1638 504.394 81.1638 504.084C81.4743 503.774 81.1638 503.155 80.8534 503.155C81.1638 499.13 81.4743 494.796 81.4743 490.771L81.7847 490.462C82.4056 490.152 82.0952 489.533 81.4743 489.223C82.7161 463.837 83.337 438.45 82.7161 413.063C83.9579 412.754 84.8893 412.754 86.1311 412.444C87.9937 453.31 91.4087 493.867 96.9968 534.424C96.6863 534.734 96.9968 535.043 96.9968 535.353C98.549 547.427 100.412 559.501 102.274 571.266C102.274 571.885 102.585 572.195 102.895 572.504C102.895 578.696 102.585 587.055 109.104 589.532C113.451 591.08 119.349 591.08 123.695 591.08C128.352 591.39 134.251 591.699 138.908 589.532C143.875 587.055 146.358 581.483 142.943 576.839C138.908 571.576 130.836 569.408 124.006 568.48C124.937 565.074 124.627 561.359 124.937 558.263C126.179 548.975 127.421 539.378 128.352 530.09C130.836 510.895 133.319 491.391 135.493 472.196C139.218 443.713 143.875 414.921 145.117 385.819C151.946 384.58 158.155 382.413 164.364 379.317C167.779 377.46 169.021 377.15 170.263 373.435C171.505 369.72 171.505 366.005 171.194 362.29C171.194 361.98 171.194 361.98 171.505 361.67C172.126 361.67 172.436 361.051 172.436 360.122ZM101.964 539.068C109.725 533.495 118.418 529.78 125.248 523.588C124.937 524.827 124.937 526.684 124.627 528.542C117.486 534.115 110.036 539.068 102.274 543.402C102.274 541.854 102.274 540.307 101.964 539.068ZM124.627 530.709C124.627 531.947 124.316 533.186 124.006 534.734C117.486 539.997 109.415 542.474 103.206 548.046C103.206 547.118 102.895 546.189 102.895 545.26C110.346 540.616 117.486 535.972 124.627 530.709ZM120.281 568.48C119.97 568.48 119.97 568.48 119.66 568.48C119.039 568.48 118.107 568.789 117.797 569.408C115.934 569.718 114.072 569.718 111.898 570.028C113.761 568.48 115.313 567.241 117.176 565.693C118.107 565.074 119.349 564.145 120.591 563.217C120.591 565.384 120.591 566.932 120.281 568.48ZM106.931 570.647L106.621 570.337C106.621 569.718 106.621 569.408 106.31 568.789C111.277 565.074 116.245 561.669 121.212 557.953C121.212 558.882 120.901 560.121 120.901 561.049C119.97 561.669 119.039 562.288 118.418 562.907C116.866 564.145 115.624 565.384 114.072 566.622C112.519 567.86 110.657 569.408 109.104 570.647C108.483 570.337 107.552 570.337 106.931 570.647ZM121.522 555.477C116.245 559.192 111.277 562.907 106 566.622C105.689 565.693 105.689 564.455 105.379 563.526C109.725 560.74 114.072 557.953 118.418 555.477C119.349 554.857 120.281 554.548 121.522 553.619C121.833 554.238 121.522 554.857 121.522 555.477ZM107.242 574.672C109.725 574.362 111.898 574.362 114.382 574.052C112.209 575.6 109.725 577.148 107.242 578.696C107.242 577.458 107.242 576.22 107.242 574.672ZM122.143 551.452C119.66 553.619 115.003 555.786 113.761 556.405C110.967 558.263 108.173 559.811 105.379 561.669C105.068 560.43 105.068 559.192 104.758 557.953C111.277 554.548 117.176 550.523 122.764 545.879C122.454 548.046 122.143 549.594 122.143 551.452ZM123.075 542.164C122.454 542.474 122.454 543.093 122.764 543.402C117.176 548.356 110.967 552.69 104.448 556.405C104.448 555.786 104.137 555.167 104.137 554.857C110.346 550.214 116.866 545.57 123.075 540.926C123.075 541.545 123.075 541.855 123.075 542.164ZM123.385 538.759C116.866 543.402 110.346 548.356 103.827 553C103.827 552.071 103.516 551.142 103.516 549.904C109.415 544.331 117.176 541.545 123.695 536.901C123.695 537.52 123.695 538.139 123.385 538.759ZM125.869 519.254C125.869 519.564 125.869 520.183 125.558 520.802C118.418 527.923 109.725 531.638 101.654 537.211C101.654 536.282 101.343 535.043 101.343 534.115C110.657 528.852 119.039 522.66 126.49 514.92C126.179 516.468 126.179 518.016 125.869 519.254ZM126.8 512.443C119.039 520.492 110.657 526.994 101.033 532.567C100.722 531.019 100.722 529.78 100.412 528.232C109.104 521.112 119.97 516.777 127.11 508.109C127.11 509.347 126.8 510.895 126.8 512.443ZM128.042 502.846C127.421 502.846 127.11 504.084 127.731 504.394C127.731 504.394 127.731 504.394 127.731 504.703C126.8 505.632 121.833 511.205 120.901 512.133C118.418 514.301 115.624 516.158 112.83 517.706C108.483 520.492 104.448 522.969 100.412 526.065C100.101 524.208 100.101 522.66 99.7908 520.802C106.931 516.468 114.072 512.133 120.591 506.561C122.143 505.322 125.869 502.846 128.352 500.369C128.042 501.607 128.042 502.226 128.042 502.846ZM128.663 497.273C125.869 500.678 114.072 509.657 113.451 510.276C109.104 513.372 104.137 516.468 99.4804 519.254C99.1699 517.397 99.1699 515.539 98.8595 513.681C109.104 506.251 119.349 498.821 129.594 491.391C128.973 493.558 128.973 495.415 128.663 497.273ZM97.9281 507.18C104.758 502.536 111.588 497.582 118.418 492.939C122.764 490.152 126.8 487.366 130.215 483.651C129.904 485.508 129.904 487.056 129.594 488.914C127.421 490.152 123.695 493.248 122.764 494.177C119.66 496.344 116.555 498.511 113.451 500.988C108.483 504.703 103.206 508.418 98.2386 512.133C98.2386 510.276 98.2386 508.728 97.9281 507.18ZM130.836 480.864C126.179 486.747 119.349 490.462 113.451 494.796C108.173 498.202 103.206 501.917 97.9281 505.322C97.6177 503.465 97.6177 501.917 97.3072 500.059C109.725 492.629 120.901 484.27 131.767 474.363C131.146 476.53 130.836 478.697 130.836 480.864ZM132.388 467.861C132.078 469.1 132.078 470.338 131.767 471.577C120.901 481.484 109.415 490.152 96.9968 497.892C96.6863 496.035 96.6863 494.177 96.3759 492.319C108.483 483.96 122.454 478.078 132.388 467.242C132.388 467.552 132.388 467.861 132.388 467.861ZM132.699 464.456C123.075 476.22 108.483 482.103 96.0654 490.771C95.755 488.604 95.755 486.127 95.4445 483.96C108.794 475.292 121.833 465.694 133.94 455.168C133.63 457.954 133.319 461.36 132.699 464.456ZM77.7489 484.889C67.1936 495.725 52.292 500.988 41.7367 511.824C41.4263 509.347 41.1158 507.18 40.8054 504.703C52.292 494.177 66.5727 487.985 78.3698 477.459C78.0593 479.936 78.0593 482.412 77.7489 484.889ZM42.0472 513.991C52.292 503.155 66.8832 497.892 77.7489 487.675C77.7489 489.223 77.4384 491.081 77.4384 492.629C66.2623 501.607 54.4652 510.276 42.6681 518.635C42.6681 517.087 42.3576 515.539 42.0472 513.991ZM78.3698 475.292C66.8832 486.127 52.292 492.629 40.4949 502.846C40.1845 500.369 39.874 497.892 39.5636 495.725C53.5338 486.437 66.5727 475.911 78.6802 464.456C78.6802 467.861 78.3698 471.577 78.3698 475.292ZM4.79318 353.931C9.44993 348.358 14.4171 342.785 19.6948 337.832C20.3157 337.832 21.247 337.832 22.1784 337.832C16.2798 344.333 10.3813 350.835 4.79318 357.336C4.79318 356.407 4.79318 355.169 4.79318 353.931ZM4.79318 351.454C4.79318 350.525 4.79318 349.596 4.79318 348.667C8.20813 345.262 11.6231 341.856 15.038 338.141C15.038 338.141 15.038 338.141 15.038 337.832C15.6589 337.832 16.2798 337.832 16.5903 337.832C12.8649 342.166 8.82903 346.81 4.79318 351.454ZM5.10363 346.191C5.10363 344.952 5.10363 343.714 5.41408 342.476C6.96633 340.928 8.51858 339.38 10.0708 337.832C10.0708 337.832 10.0708 337.832 10.0708 337.522C11.0022 337.832 11.9335 337.832 13.1753 337.832C10.3813 340.618 7.89768 343.404 5.10363 346.191ZM5.41408 339.999C5.41408 338.76 5.41408 337.832 5.72453 336.593C6.65588 336.903 7.58723 337.212 8.51858 337.212C7.27678 338.141 6.34543 339.07 5.41408 339.999ZM4.48273 360.742C4.48273 360.432 4.48273 360.122 4.48273 359.813C10.6917 352.383 17.5216 344.952 24.0411 337.522C24.0411 337.522 24.3515 337.522 24.3515 337.212C24.9724 337.212 25.2829 336.903 25.5933 336.903C25.5933 337.522 25.5933 338.141 25.5933 338.76C25.5933 338.76 25.2829 338.76 25.2829 339.07C19.0739 346.191 12.8649 353.621 6.65588 361.051C6.03498 361.051 5.41408 361.051 4.48273 360.742ZM142.943 349.906C142.943 353.621 142.943 357.336 142.633 360.742C142.322 360.742 141.702 361.051 141.391 361.361C106 375.602 65.9518 365.695 29.6292 359.813C29.6292 356.717 29.3187 353.621 29.3187 350.525C67.1936 356.407 105.379 356.407 142.943 349.906ZM167.469 338.451C164.364 340.308 161.881 342.785 159.397 345.881C155.361 350.525 151.636 355.169 147.6 359.503C147.29 359.503 147.29 359.503 146.979 359.194C146.979 358.884 146.979 358.574 146.979 358.265C151.946 351.454 157.535 345.262 163.744 339.689C164.054 339.38 164.054 338.76 163.744 338.451C164.985 338.141 166.227 338.141 167.469 337.832C167.469 338.141 167.469 338.451 167.469 338.451ZM141.391 383.032C140.46 383.961 140.46 385.509 141.391 386.128C141.081 391.701 140.77 397.583 140.46 403.156C132.078 406.252 123.075 405.942 114.382 406.562C106.931 406.871 99.7908 407.49 92.34 407.8C90.1669 395.726 88.6146 383.652 87.3728 371.577C87.3728 370.339 86.4415 369.72 85.5101 369.72C104.448 371.268 123.385 370.339 141.391 363.218C141.391 369.72 141.391 376.531 141.391 383.032ZM91.0982 426.376C97.6177 420.803 104.448 415.54 111.588 410.896C113.451 410.896 115.003 410.586 116.866 410.586C108.483 417.397 99.7908 424.209 91.4087 431.02C91.4087 429.472 91.4087 427.924 91.0982 426.376ZM91.7191 432.877C101.033 425.447 110.657 417.707 119.97 410.277C122.764 410.277 125.248 409.967 128.042 409.658C116.245 418.945 104.137 427.924 92.0296 436.902C91.7191 435.664 91.7191 434.425 91.7191 432.877ZM81.4743 409.038C80.8534 408.729 80.2325 409.038 79.6116 409.348C79.3011 409.038 78.9907 408.729 78.6802 408.729C78.6802 408.11 78.9907 407.8 78.9907 407.181C79.3011 407.181 79.6116 407.181 79.9221 406.871C82.0952 404.704 84.2683 402.227 86.4415 400.06C86.7519 401.299 86.7519 402.227 87.0624 403.466C85.5101 405.323 83.6475 407.181 81.4743 409.038ZM78.9907 428.543C68.125 444.332 51.0502 455.787 36.4591 467.861C36.1486 465.385 36.1486 463.217 35.8382 460.741C51.6711 449.286 66.2623 435.973 78.9907 421.113C78.9907 423.589 78.9907 426.066 78.9907 428.543ZM65.3309 413.373C68.4354 413.373 71.5399 413.373 74.6444 413.063C71.8503 415.849 68.4354 417.707 65.3309 420.184C61.916 422.97 59.1219 426.376 56.3279 429.781C49.8084 437.212 42.3576 444.023 34.9068 450.524C34.5964 448.357 34.5964 446.19 34.2859 444.023C39.874 438.45 45.4621 433.187 51.0502 427.614C53.8443 424.828 56.6383 422.041 59.4324 419.565C61.2951 417.397 63.7787 415.54 65.3309 413.373ZM32.7337 417.397C35.2173 414.921 37.7009 412.444 40.1845 409.967C42.0472 410.277 43.9099 410.586 45.7726 410.896C41.4263 414.302 37.08 418.017 33.0441 422.041C33.0441 420.803 33.0441 419.255 32.7337 417.397ZM33.3546 424.518C38.0113 419.874 42.9785 415.54 48.2562 411.515C50.4293 411.825 52.292 412.134 54.4652 412.444C47.0144 418.636 40.1845 425.757 33.9755 432.877C33.665 430.091 33.3546 427.305 33.3546 424.518ZM32.1128 404.395C31.4919 391.082 31.1814 377.46 30.5605 364.147C30.5605 363.528 30.2501 362.909 29.9396 362.599C29.9396 362.29 29.9396 361.67 29.9396 361.361C47.6353 364.457 66.5727 368.172 85.1997 369.72C84.2683 369.72 83.337 370.029 83.0266 371.268C80.2325 383.652 77.128 396.345 74.3339 409.038C60.3637 410.586 46.3935 406.871 32.1128 404.395ZM85.5101 392.011C84.2683 393.249 83.0265 394.487 81.7847 395.726C82.7161 391.701 83.6474 387.986 84.5788 383.961C84.8893 386.748 85.1997 389.534 85.5101 392.011ZM81.1638 398.512C82.7161 396.964 84.2683 395.726 85.8206 394.178C86.1311 395.416 86.131 396.655 86.4415 397.893C84.2683 400.06 82.0952 402.537 79.9221 404.704C80.2325 402.537 80.5429 400.679 81.1638 398.512ZM147.29 355.479C147.29 353.931 147.29 352.383 147.29 351.144C150.394 346.81 153.809 342.785 158.466 340.308C159.087 339.999 159.087 339.689 158.776 339.07C160.018 339.07 161.26 338.76 162.502 338.76C156.914 344.023 151.636 349.596 147.29 355.479ZM147.29 348.048C147.29 346.81 147.29 345.262 147.29 344.023C148.531 342.166 150.084 340.618 151.636 339.38C151.946 339.38 151.946 339.07 151.946 339.07C153.499 339.07 155.051 339.38 156.914 339.07C152.878 341.547 149.773 344.643 147.29 348.048ZM146.979 341.547C146.979 340.618 146.979 339.689 146.979 338.76C147.911 338.76 148.842 339.07 149.773 339.07C148.842 339.689 147.911 340.618 146.979 341.547ZM25.9038 341.547C25.9038 342.785 25.9038 344.333 25.5933 345.571C21.247 351.144 16.5903 356.407 11.6231 361.67C10.6917 361.67 9.76038 361.361 8.82903 361.361C14.4171 354.859 20.0052 348.048 25.9038 341.547ZM25.5933 348.358C25.5933 349.287 25.5933 349.906 25.5933 350.835C24.3515 352.073 23.1097 353.931 22.1784 355.169C20.3157 357.336 18.453 359.503 16.5903 361.67C16.5903 361.98 16.2798 361.98 16.2798 362.29C15.3485 362.29 14.4171 361.98 13.7962 361.98C17.8321 357.646 21.8679 353.002 25.5933 348.358ZM22.7993 357.027C23.7306 356.098 24.3515 355.169 25.2829 354.24C25.2829 353.931 25.5933 353.931 25.5933 353.621C25.5933 355.169 25.5933 356.407 25.5933 357.955C24.0411 359.813 22.1784 361.361 20.3157 362.909C19.3843 362.909 18.7634 362.599 17.8321 362.599C19.6948 360.742 21.247 358.884 22.7993 357.027ZM25.5933 360.432C25.5933 361.67 25.5933 362.599 25.9038 363.838C24.9724 363.838 23.7306 363.528 22.7993 363.528C23.7306 362.29 24.662 361.361 25.5933 360.432ZM38.3218 409.658C36.4591 411.515 34.5964 413.373 32.7337 415.23C32.7337 413.063 32.4232 410.896 32.4232 408.729C34.2859 409.038 36.4591 409.348 38.3218 409.658ZM33.9755 435.354C40.8054 426.995 48.2562 419.565 56.6383 412.754C59.1219 413.063 61.6055 413.373 64.0891 413.373C63.1578 413.992 61.916 414.611 61.2951 415.23C59.7428 416.469 58.1906 418.326 56.6383 419.874C53.8443 422.661 51.0502 425.447 48.2562 427.924C43.5994 432.568 38.9427 436.902 34.2859 441.546C33.9755 439.379 33.9755 437.521 33.9755 435.354ZM36.4591 470.029C51.0502 458.264 67.8145 446.809 78.9907 431.639C78.9907 434.425 78.9907 436.902 78.9907 439.688C67.1936 453.93 50.7398 463.217 37.08 475.292C37.08 473.434 36.7695 471.886 36.4591 470.029ZM38.3218 485.818C52.6025 475.911 66.2623 465.075 78.9907 453.31C78.9907 456.097 78.9907 458.883 78.6802 461.67C66.5727 473.434 53.2234 484.27 39.2531 493.558C38.9427 491.081 38.6322 488.604 38.3218 485.818ZM78.9907 451.143C66.2623 463.217 52.6025 474.053 38.0113 483.96C37.7009 481.793 37.3904 479.626 37.3904 477.149C51.0502 465.075 67.1936 455.787 78.9907 441.855C78.9907 444.951 78.9907 448.047 78.9907 451.143ZM35.5277 458.883C35.2173 456.716 35.2173 454.549 34.9068 452.382C43.289 444.642 51.3607 437.212 59.1219 428.543C63.1578 423.899 67.1936 420.493 72.1608 417.088C74.0235 415.849 75.5757 414.302 77.128 412.444C77.4384 412.444 77.4384 412.444 77.7489 412.444C78.0593 413.063 78.3698 413.373 78.9907 413.682C78.9907 415.23 78.9907 417.088 78.9907 418.636C66.2623 433.806 51.6711 447.428 35.5277 458.883ZM87.3728 405.323C87.3728 406.252 87.6833 407.181 87.6833 408.11C87.3728 408.11 87.0624 408.11 87.0624 408.11C86.4415 408.11 86.1311 408.419 85.8206 408.419C85.1997 408.729 84.5788 408.729 83.6474 408.729C85.1997 407.8 86.4415 406.562 87.3728 405.323ZM95.755 411.825C94.2027 413.373 92.34 414.611 90.7878 416.159C90.7878 414.921 90.7878 413.373 90.4773 412.134C92.34 412.134 93.8923 411.825 95.755 411.825ZM90.7878 418.326C93.2714 416.159 95.755 413.992 98.2386 411.825C101.654 411.515 105.068 411.515 108.173 411.206C102.274 415.23 96.3759 419.565 90.7878 424.209C91.0982 422.041 90.7878 420.184 90.7878 418.326ZM92.0296 439.069C105.068 429.472 118.107 419.565 131.146 409.658C133.319 409.348 135.803 409.038 137.976 408.419C123.385 420.803 107.863 431.948 92.34 442.784C92.0296 441.546 92.0296 440.307 92.0296 439.069ZM94.8236 475.292C108.794 466.313 123.385 457.954 135.182 446.19C134.872 448.357 134.561 450.215 134.251 452.382C121.833 463.217 108.794 472.815 95.1341 481.793C95.1341 479.626 94.8236 477.459 94.8236 475.292ZM135.493 443.403C123.695 455.478 108.794 464.146 94.5132 473.434C94.2027 471.577 94.2027 470.029 94.2027 468.171C108.483 458.883 124.627 450.214 136.424 437.831C136.113 439.688 135.803 441.546 135.493 443.403ZM136.734 435.044C124.937 448.047 108.794 457.026 93.8923 466.313C93.5818 464.456 93.5818 462.598 93.5818 460.741C109.725 450.834 124.316 439.379 137.976 426.376C137.355 429.162 137.045 431.948 136.734 435.044ZM137.976 423.28C124.316 436.592 109.415 448.357 93.2714 458.574C92.9609 456.406 92.9609 454.549 92.6505 452.382C109.104 442.165 124.627 430.4 138.597 417.088C138.597 419.255 138.287 421.422 137.976 423.28ZM139.218 414.921C124.937 428.543 109.725 440.617 92.9609 450.834C92.9609 448.667 92.6505 446.809 92.6505 444.642C108.794 433.187 124.937 421.732 139.839 409.038C139.528 410.896 139.218 412.754 139.218 414.921ZM158.466 349.596C161.26 346.191 164.054 342.476 167.779 340.308C167.779 340.618 167.779 341.237 167.779 341.547C164.985 343.714 162.812 347.429 160.949 349.596C158.155 353.311 155.051 357.026 151.946 360.122C151.326 360.122 150.394 359.813 149.773 359.813C152.567 356.407 155.361 353.002 158.466 349.596ZM153.809 360.742C155.982 358.265 158.155 355.788 160.329 353.311C161.881 351.454 163.123 349.596 164.675 347.739C165.296 346.81 166.227 345.881 167.158 345.262C167.469 344.952 167.469 344.643 167.779 344.333C167.779 346.5 168.09 348.358 168.09 350.525C163.743 353.621 160.018 357.026 156.603 361.051C155.672 360.742 154.74 360.742 153.809 360.742ZM168.09 352.383C168.09 353.311 168.09 353.931 168.09 354.859C165.917 356.407 163.743 358.265 161.881 360.432C161.881 360.432 161.881 360.432 161.881 360.742C160.949 360.742 160.018 360.742 159.087 360.742C161.57 357.646 164.675 354.859 168.09 352.383ZM168.09 357.027C168.09 357.955 168.09 358.884 168.09 359.503C166.848 359.813 165.606 360.122 164.054 360.122C165.606 359.194 166.848 357.955 168.09 357.027ZM167.469 336.284C160.639 337.832 153.809 337.832 146.979 336.903C145.737 303.157 139.528 269.411 128.663 237.213C127.731 234.737 123.695 235.665 124.627 238.452C136.734 273.746 142.943 310.897 142.943 348.048C123.075 351.454 103.206 353.311 83.0266 353.002V352.692C83.6474 303.776 84.2683 254.86 84.8892 205.944C91.4087 206.254 97.6177 205.635 103.827 203.777C103.827 203.777 103.827 204.087 104.137 204.087C113.451 210.279 126.49 213.065 131.146 224.21C131.146 224.21 131.146 224.52 131.457 224.52C131.457 225.139 132.078 225.449 132.699 225.139C134.872 223.901 137.045 222.353 139.218 220.805C148.531 234.427 152.878 253.312 156.914 269.102C162.502 291.083 165.917 313.683 167.469 336.284ZM71.8504 183.963C72.4713 184.273 73.0921 184.273 74.0235 184.582C73.0921 185.201 72.4712 186.13 72.1608 186.749C70.6086 188.607 69.0563 190.465 67.5041 192.013C67.5041 191.084 67.5041 190.155 67.5041 189.226C68.4354 187.059 69.9877 185.511 71.8504 183.963ZM67.1936 194.18C68.7458 192.941 69.9877 191.393 71.5399 189.845C72.1608 188.917 73.0921 187.988 74.0235 187.059C74.3339 186.749 74.9549 186.13 75.2653 185.821C75.5758 185.511 75.8862 185.511 76.1966 185.201C76.1966 185.201 76.1967 185.201 76.5071 185.201C77.4385 185.201 78.6803 185.511 79.6116 185.511C75.5758 189.536 71.5399 193.561 67.5041 197.585C67.1936 196.347 67.1936 195.108 67.1936 194.18ZM81.1638 185.821C81.4743 185.821 82.0952 185.821 82.0952 185.201C83.337 185.201 84.2683 185.201 85.5101 185.201C80.8534 190.155 76.1966 194.799 71.5399 199.443C70.2981 199.133 69.3667 198.824 68.1249 198.514C72.4712 194.489 76.8176 190.155 81.1638 185.821ZM73.4026 200.062C78.3698 195.418 83.0265 190.465 87.9937 185.511C88.3042 185.511 88.3042 185.511 88.6146 185.511C89.546 185.511 90.4773 185.511 91.7191 185.511C87.3728 190.774 83.0266 196.037 78.0593 200.991C76.5071 200.681 74.9548 200.372 73.4026 200.062ZM93.5818 185.201C95.1341 185.201 96.3759 184.892 97.9281 184.582C93.2714 190.465 88.3042 196.347 83.337 201.61C82.0952 201.61 81.1638 201.3 79.9221 201.3C84.5788 196.037 89.2355 190.774 93.5818 185.201ZM90.1669 201.92C88.6146 201.92 87.0624 201.92 85.5101 201.92C89.8564 196.966 94.2027 192.013 98.2386 187.059C98.549 187.059 98.8595 187.059 99.1699 186.749C99.4804 186.13 99.7908 185.511 100.101 184.582V184.273C101.033 183.963 102.274 183.653 103.206 183.344C98.8595 189.536 94.5132 195.728 90.1669 201.92ZM108.173 187.059H108.483C108.483 188.297 108.483 189.536 108.483 190.465C106.31 193.561 104.137 196.966 101.654 200.062C100.412 200.372 99.1699 200.681 97.9281 200.991C101.343 196.347 104.758 191.703 108.173 187.059ZM104.448 199.133C105.689 197.276 107.242 195.418 108.483 193.251C108.483 194.489 108.483 195.728 108.483 196.966C107.242 197.895 106 198.514 104.448 199.133ZM138.287 219.257C136.424 220.805 134.561 222.043 132.699 223.282C127.731 212.446 115.624 209.04 106 203.158C107.242 202.539 108.794 201.92 110.036 201.3C110.346 201.3 110.346 201.61 110.657 201.61C123.385 203.777 132.078 210.279 138.287 219.257ZM108.483 183.963C108.483 183.963 108.173 183.963 108.173 184.273C104.137 190.155 99.7908 195.728 95.755 201.61C94.5132 201.92 93.2714 201.92 92.0296 201.92C96.6863 195.418 101.343 189.226 105.689 182.725C106 182.725 106.621 182.725 106.621 182.106V181.796C107.242 181.486 107.552 181.486 107.863 181.177C108.483 182.106 108.483 183.034 108.483 183.963ZM92.34 169.412C91.0982 167.555 88.9251 167.864 87.0624 167.864C84.8892 167.864 82.0952 168.174 80.2325 169.722C78.6802 170.96 78.0593 173.437 77.4384 175.294C65.6414 171.579 62.5368 163.839 61.6055 152.075C60.9846 144.335 60.6742 136.595 60.9846 128.855C70.6086 122.973 85.5101 124.211 96.0654 125.45C104.137 126.378 111.898 128.546 119.349 130.713C117.486 138.762 115.313 146.812 112.83 154.861C109.415 165.387 105.068 172.198 94.2027 175.294C93.8923 173.437 93.5818 170.96 92.34 169.412ZM48.8771 118.639C60.9846 103.159 76.8176 91.7039 91.7191 78.7009C106.621 65.6979 118.418 49.9086 133.009 36.9056C133.319 37.8344 133.319 39.0728 133.63 40.0016C120.591 54.5525 107.863 69.7227 92.6505 82.1065C77.7489 94.7998 63.4682 107.803 49.8084 122.044C49.498 121.115 49.1875 119.877 48.8771 118.639ZM60.0533 34.4289C60.3637 33.8097 60.3637 33.1905 60.6742 32.5713C60.6742 32.5713 60.6742 32.5713 60.9846 32.2617C68.125 21.4259 79.6116 13.3764 89.8564 5.63657C89.8564 5.63657 89.8564 5.63657 90.1669 5.32698C92.0296 5.01738 93.5818 4.70779 95.4445 4.39819C82.7161 14.6148 70.919 25.4506 59.7428 37.2152C59.4324 36.596 59.7428 35.3577 60.0533 34.4289ZM56.6383 50.2182C73.4026 35.3577 89.8564 20.1875 105.689 4.39819C107.863 4.70779 110.036 5.01738 112.209 5.63657C95.1341 24.2122 76.1966 40.9304 56.0174 55.7909C56.3279 53.9333 56.3279 52.0758 56.6383 50.2182ZM54.1547 68.7939C54.4652 68.4843 54.4652 68.7939 54.1547 68.7939C63.4682 56.1005 76.8176 48.051 88.6146 38.144C99.1699 28.8562 108.483 18.33 117.486 7.80374C118.728 8.42292 119.66 9.04211 120.591 9.6613C116.555 12.4477 113.14 16.1628 109.725 20.4971C103.827 27.6178 98.2386 33.8097 91.0982 39.3824C77.7489 49.599 65.3309 60.4348 53.5338 72.509C54.1547 70.961 54.1547 70.0323 54.1547 68.7939ZM53.5338 74.9858C66.2623 61.9828 79.922 50.2182 94.5132 39.0728C105.068 31.0233 111.588 18.0204 122.454 10.8997C123.695 11.8285 124.627 13.0668 125.558 14.3052C120.591 18.0204 116.555 22.3547 112.83 27.3082C106.621 34.7385 99.7908 40.9304 92.0296 47.1223C78.3698 56.7197 65.3309 67.5555 52.9129 79.0105C53.2234 77.7721 53.5338 76.2242 53.5338 74.9858ZM128.042 18.33C103.827 42.7879 78.3698 66.0075 51.9816 87.6792C52.292 85.8216 52.6025 83.6544 52.9129 81.7969C66.2623 69.1035 80.5429 57.6485 95.1341 46.5031C100.722 42.1687 106 37.5248 110.657 32.2617C115.624 26.3794 120.281 20.1875 126.49 15.5436C127.11 16.1628 127.421 17.4012 128.042 18.33ZM51.3607 90.1559C78.3698 68.1747 104.137 44.6455 128.663 19.8779C129.284 21.4259 129.594 22.6643 129.904 24.2123C103.206 48.6702 76.8176 73.4378 50.1189 97.8958C50.7398 95.419 51.0502 92.9423 51.3607 90.1559ZM49.8084 100.682C76.8176 75.9146 103.516 51.147 130.525 26.0698C130.836 26.9986 130.836 27.9274 131.146 29.1658C131.146 29.4754 131.146 29.4754 131.146 29.785V30.0945C116.555 44.0263 103.206 60.4348 87.0624 72.8186C73.4026 83.6544 60.9846 95.419 48.8771 107.803C49.1875 105.636 49.498 103.159 49.8084 100.682ZM48.8771 110.589C61.916 97.2766 75.2653 84.8928 89.8564 73.4378C105.068 61.3636 118.107 45.8839 132.078 32.2617C132.388 33.1905 132.699 34.1193 132.699 35.3577C117.486 48.3606 105.689 64.4595 90.4773 77.4625C76.1966 89.8463 60.6742 101.301 48.5666 116.162C48.5666 114.304 48.5666 112.447 48.8771 110.589ZM135.803 54.8621C110.967 76.2242 91.4087 103.468 64.0891 122.044C63.7787 122.354 63.7787 122.663 63.7787 122.973C61.6055 123.902 59.4324 124.831 57.2592 126.069C70.6086 112.137 83.6474 98.515 98.8595 86.7504C112.83 75.605 120.901 59.1964 134.872 48.3606C135.493 50.5278 135.803 52.695 135.803 54.8621ZM130.836 129.165C130.836 128.855 130.836 128.546 130.525 128.236C131.457 126.998 132.388 126.069 133.319 125.14C132.699 126.688 131.767 127.926 130.836 129.165ZM114.382 124.831C121.833 118.329 128.973 111.518 136.113 104.397C136.113 105.016 136.113 105.636 136.113 106.564C136.113 107.184 136.113 108.112 136.113 108.732C130.525 114.923 124.316 120.806 118.107 126.069C116.555 125.45 115.313 125.14 114.382 124.831ZM136.424 89.5367C136.424 91.0847 136.424 92.6327 136.424 94.1806C126.49 104.088 116.245 113.685 105.689 122.973C104.448 122.663 103.516 122.663 102.274 122.354C114.072 112.137 125.558 100.992 136.424 89.5367ZM136.113 96.6574C136.113 98.515 136.113 100.063 135.803 101.921C128.352 109.66 120.281 117.091 112.209 124.521C110.967 124.211 109.725 123.902 108.483 123.592C108.173 123.592 107.863 123.592 107.863 123.592C117.486 114.614 126.8 105.636 136.113 96.6574ZM136.424 87.06C136.424 87.3696 136.424 87.3696 136.424 87.06C135.493 87.6792 134.872 88.2983 134.251 88.9175L133.94 89.2271C123.075 100.682 111.898 111.518 99.7908 121.735C98.549 121.425 96.9968 121.425 95.755 121.115C110.036 109.041 123.385 96.0382 136.424 82.7256C136.734 84.2736 136.424 85.8216 136.424 87.06ZM136.734 70.6514C120.281 87.9887 103.206 104.707 85.5101 120.806C83.337 120.806 80.8534 120.806 78.3698 120.806C88.3042 113.376 98.549 106.255 106.931 97.2766C116.866 86.7504 126.179 76.5337 136.734 66.9363C136.734 67.8651 136.734 69.1035 136.734 70.6514ZM136.734 72.8186C136.734 75.2954 136.734 77.7721 136.734 79.9393C136.734 79.9393 136.734 79.9393 136.424 80.2489C136.113 80.2489 136.113 80.5585 136.113 80.8681C135.803 80.8681 135.493 81.4873 135.182 81.7969C134.561 82.416 133.63 83.3448 133.009 83.964C131.146 85.8216 129.284 87.6791 127.731 89.5367C124.006 93.2519 120.281 96.967 116.555 100.373C109.104 107.493 101.343 114.304 93.5818 121.115C92.0296 121.115 90.1669 120.806 88.6146 120.806C88.3042 120.806 87.9937 120.806 87.9937 120.806C104.758 105.326 121.212 89.5367 136.734 72.8186ZM136.424 64.4596C126.179 73.7474 116.866 83.3448 107.552 93.5615C98.2386 104.088 86.4415 112.137 75.2653 120.496C72.4713 120.806 69.6772 121.115 67.1936 121.735C93.2714 103.468 112.209 77.4625 136.113 56.7197C136.424 59.506 136.424 61.9828 136.424 64.4596ZM119.349 126.378C124.937 121.735 130.525 116.471 135.493 110.899C135.493 112.447 135.493 113.685 135.182 115.233C133.94 115.852 132.699 117.4 131.767 118.639C128.973 122.044 125.869 124.831 122.454 127.307C121.522 126.998 120.591 126.688 119.349 126.378ZM129.904 123.592C130.525 122.973 133.319 118.948 135.493 117.4C135.182 118.948 135.182 120.187 134.561 121.735C132.699 123.592 130.836 125.45 129.284 127.307C128.352 126.998 127.421 127.617 126.8 128.546C126.179 128.236 125.558 128.236 124.627 127.926C126.49 126.688 128.042 125.14 129.904 123.592ZM85.1997 38.7632C74.6444 47.4319 63.1578 54.8621 54.7756 65.6979C55.0861 63.2212 55.3965 60.7444 55.707 58.2677C76.8176 42.7879 96.3759 25.4506 114.382 6.25576C115.003 6.25576 115.624 6.56536 115.934 6.87495C106.31 18.0204 96.6863 29.1658 85.1997 38.7632ZM103.827 4.39819C88.6146 18.9491 73.0921 33.5001 57.2592 47.4319C57.5697 45.2647 58.1906 42.7879 58.501 40.6208C70.919 27.6178 83.9579 15.5436 98.2386 4.39819C100.101 4.39819 101.964 4.39819 103.827 4.39819ZM85.5101 6.87495C77.4384 12.7572 69.0563 19.2587 62.8473 26.9986C67.5041 16.782 75.2653 10.2805 85.5101 6.87495ZM50.7398 123.902C64.3996 109.351 78.6802 96.0382 94.2027 83.3448C108.794 70.961 121.522 56.1005 134.251 42.1687C134.561 43.7167 134.872 45.2647 134.872 46.8127C121.212 57.0293 113.451 73.1282 100.412 83.964C84.5788 97.2766 69.9876 111.208 55.707 126.069C55.707 126.069 55.707 126.069 55.707 126.378C54.7756 126.069 53.8443 126.378 53.2234 127.307C51.9816 125.759 51.3607 124.831 50.7398 123.902ZM58.8115 164.459C55.3965 153.932 55.707 142.787 56.3279 131.951C56.6383 131.951 56.9488 131.642 56.9488 131.642C57.5697 131.022 58.1906 130.403 58.8115 130.094C58.501 140.929 57.5697 153.932 61.6055 163.839C64.71 171.889 69.0563 174.366 76.8176 176.842C77.128 176.842 77.128 176.842 77.4384 176.842C77.7489 177.152 78.6802 177.152 78.9907 176.533C79.3011 175.294 79.6116 174.056 80.2325 172.818C81.4743 170.341 83.6474 170.031 86.1311 169.722C88.3042 169.722 90.1669 169.412 91.4087 171.889C92.0296 173.437 92.0296 175.294 92.0296 176.842C92.0296 177.462 92.6505 177.771 93.2714 177.462C101.964 175.294 107.552 171.889 111.277 163.53C115.624 153.623 118.107 142.168 120.591 131.642C122.454 132.261 124.316 132.57 125.869 133.19C124.937 144.025 123.075 155.171 118.107 164.768C111.898 177.152 101.343 181.177 87.9937 181.486C82.4056 181.486 76.1966 182.106 70.919 179.938C64.71 177.152 61.2951 170.96 58.8115 164.459ZM69.9877 183.344C69.0563 184.273 68.125 185.201 67.1936 186.13C67.1936 184.582 67.1936 183.344 67.1936 181.796C68.125 182.725 69.0563 183.034 69.9877 183.344ZM64.3996 202.229C66.2623 202.848 68.125 203.158 69.9877 203.777C60.9846 209.35 51.3607 217.09 47.0144 226.997C44.8412 226.068 42.3576 225.139 40.1845 224.52C46.7039 215.851 54.7756 208.731 64.3996 202.229ZM38.9427 225.449C41.7367 226.378 43.9099 227.306 46.3935 228.235C46.3935 228.854 47.6353 229.164 47.9457 228.235C51.9816 218.018 62.8473 209.659 72.1608 204.087C75.8862 205.016 79.6116 205.635 83.6474 205.944C83.0265 254.86 82.4056 303.776 81.7847 353.002V353.311C64.3996 353.002 47.0144 351.763 29.9396 348.977C30.5605 310.278 43.289 273.126 56.0174 236.904C56.9488 234.427 52.9129 233.189 51.9816 235.975C40.4949 267.863 29.0083 300.99 26.2142 335.045C25.9038 335.045 25.9038 335.355 25.5933 335.355C25.2829 335.045 24.662 334.736 24.3515 335.355C24.0411 335.664 24.0411 335.664 23.7306 335.974C20.6261 336.593 16.2798 336.284 14.7276 336.284C11.6231 336.284 8.82903 335.664 5.72453 334.736C7.89768 295.417 14.7276 255.479 38.9427 225.449ZM26.2142 383.652C20.6261 383.032 14.7276 381.484 9.76038 378.389C4.79318 375.293 4.79318 370.339 5.41408 365.076C12.5544 366.005 19.6948 366.934 26.8351 367.862C27.1456 373.125 27.1456 378.698 27.456 383.961C26.8351 383.961 26.5247 383.652 26.2142 383.652ZM76.5071 507.799C72.1608 512.443 66.8832 516.158 62.2264 519.873C56.6383 524.208 51.0502 528.542 45.4621 532.876C45.1517 531.328 44.8412 529.471 44.5308 527.923C55.707 519.564 66.5727 510.895 76.8176 501.917C76.8176 504.084 76.5071 505.942 76.5071 507.799ZM70.6086 567.551C69.6772 568.17 69.0563 568.789 68.1249 569.408C65.9518 569.099 63.7786 569.099 61.6055 568.789C65.0204 566.312 68.4354 563.526 71.5399 560.43C71.2295 562.907 70.919 565.074 70.6086 567.551ZM73.713 539.997C70.919 542.474 62.8473 547.427 61.916 548.356C58.1906 551.142 54.4652 553.619 50.4293 556.096C50.1189 555.167 49.8084 553.929 49.8084 553C55.3965 548.046 61.2951 543.403 67.5041 539.068C69.6772 537.52 72.1608 536.282 74.3339 534.734C74.0235 536.591 74.0235 538.449 73.713 539.997ZM75.2653 525.446C69.6772 527.613 63.7787 533.805 59.1219 537.211C55.3965 539.997 51.6711 542.474 48.2562 545.879C47.9457 544.331 47.6353 542.783 47.3248 541.545C54.4652 536.282 61.2951 530.709 67.8145 524.827C69.0563 523.898 72.7817 521.421 75.5757 518.945C75.5757 521.112 75.2653 523.279 75.2653 525.446ZM61.6055 537.211C65.9518 533.805 70.2981 530.4 74.9548 527.304C74.9548 528.852 74.6444 530.4 74.6444 531.948C70.919 533.805 62.5369 540.926 60.9846 541.855C56.9488 544.951 53.2234 548.046 49.498 551.142C49.1875 549.904 48.8771 548.975 48.5666 547.737C52.292 543.712 57.2592 540.616 61.6055 537.211ZM72.1608 553C68.4354 555.786 64.71 558.263 60.9846 561.049C58.501 562.907 55.3965 564.455 52.9129 566.312C52.6025 565.074 52.292 563.836 51.9816 562.597C59.1219 557.953 65.9518 553.31 72.7817 548.046C72.7817 549.904 72.4712 551.452 72.1608 553ZM53.5338 568.17C56.6383 565.693 60.0533 563.836 63.1577 561.669C65.9518 559.501 69.0563 557.334 71.8504 555.167C71.8504 556.096 71.5399 556.715 71.5399 557.644C67.5041 561.669 63.1577 565.074 58.501 568.48C56.9488 568.48 55.3965 568.17 53.5338 568.17ZM73.0922 545.879C66.2623 551.142 59.1219 556.096 51.6711 561.049C51.3607 560.121 51.0502 559.192 51.0502 557.953C56.9488 553.929 62.8473 549.904 68.4354 545.879C69.3668 545.26 71.5399 544.022 73.4026 542.783C73.4026 543.712 73.0922 544.951 73.0922 545.879ZM75.8862 516.158C71.8503 520.183 63.7787 525.756 62.5369 526.994C57.2592 531.328 51.9816 535.353 46.7039 539.687C46.3935 538.139 46.083 536.591 45.7726 535.043C52.9129 529.471 60.0533 523.898 67.1936 518.016C70.2981 515.539 73.4026 513.062 76.1966 510.276C76.1966 512.443 76.1966 514.301 75.8862 516.158ZM50.4293 572.504C50.7398 572.814 51.3607 573.124 51.9816 573.124C47.3248 576.22 42.6681 579.006 38.0113 582.102C38.9427 577.148 46.3935 574.362 50.4293 572.504ZM37.08 584.579C43.289 580.554 49.8084 576.839 56.0174 572.504C58.1906 572.814 60.6742 572.814 62.8473 573.124C60.9846 574.672 59.1219 575.91 56.9488 577.148C51.6711 580.554 46.083 583.34 40.4949 586.127H40.1845C38.0113 586.746 36.7695 586.127 37.08 584.579ZM43.5994 586.746C49.8084 583.34 56.3279 580.244 62.2264 575.91C63.4682 574.981 64.3996 574.052 65.6414 573.124C67.5041 573.124 69.0563 573.433 70.919 573.433C69.3668 574.362 67.8145 575.6 67.1936 576.22C65.6414 577.458 63.7787 578.387 62.2264 579.625C58.8115 582.102 55.0861 584.269 51.6711 586.746C51.3607 587.055 51.3607 587.365 51.3607 587.674C48.5666 587.365 46.083 587.055 43.5994 586.746ZM52.9129 587.984C56.6383 585.507 60.3637 583.031 64.3996 580.554C66.5727 579.006 69.3668 577.767 71.5399 575.91C71.5399 576.839 71.5399 577.768 71.5399 578.696C66.8832 581.792 62.5369 585.198 57.8801 588.294C56.3279 588.294 54.7756 587.984 53.5338 587.984C53.2234 587.984 52.9129 587.984 52.9129 587.984ZM70.6086 583.65C69.0563 587.984 64.71 588.603 60.3637 588.603C64.0891 586.127 67.5041 583.34 71.2295 580.863C71.2295 581.792 71.2294 582.721 70.6086 583.65ZM77.128 499.75C66.5727 509.037 55.707 518.016 44.2203 526.375C43.9099 524.517 43.5994 522.35 42.9785 520.492C54.4652 512.133 65.9518 503.774 77.128 494.796C77.128 496.344 77.128 498.202 77.128 499.75ZM131.457 574.362C125.869 579.006 120.281 583.031 113.761 586.436C113.14 586.436 112.519 586.127 112.209 585.817C111.588 585.507 110.967 585.198 110.657 584.888C116.555 581.483 121.833 577.458 127.11 573.124C128.352 573.433 129.904 573.743 131.457 574.362ZM135.803 576.22C131.457 579.935 126.8 583.65 122.143 587.055C120.281 587.055 118.107 587.055 116.245 586.746C122.143 583.34 127.731 579.315 133.009 574.981C134.251 575.291 134.872 575.91 135.803 576.22ZM124.937 587.055C128.973 583.959 133.319 580.554 137.045 577.148C137.355 577.148 137.355 577.458 137.666 577.768C134.872 581.173 132.078 584.269 128.973 587.365C127.731 587.365 126.49 587.365 125.558 587.365C125.248 587.055 124.937 587.055 124.937 587.055ZM133.319 586.746C132.699 587.055 132.078 587.055 131.457 587.055C133.63 584.888 135.493 583.031 137.355 580.554C137.045 580.863 137.045 581.173 136.734 581.792C137.355 585.817 136.113 587.365 133.319 586.746ZM124.937 573.124C119.97 577.148 114.692 580.554 109.415 583.959C108.794 583.031 108.173 581.792 107.863 580.863C111.277 578.696 114.692 576.529 117.797 574.052C118.418 574.052 118.728 574.052 119.349 574.052C119.97 574.362 120.901 574.362 121.522 574.052C121.833 573.743 122.143 573.433 122.454 573.124C123.075 572.814 124.006 572.814 124.937 573.124ZM166.848 370.958C166.227 374.673 164.054 375.293 160.949 376.841C155.982 379.008 151.015 380.865 145.737 381.794C145.737 375.912 145.737 370.029 145.737 364.147C146.048 364.147 146.358 363.838 146.669 363.528C149.152 364.147 151.636 364.766 154.12 364.766C154.43 365.386 155.361 365.695 155.672 365.076C159.708 365.386 163.433 365.076 167.469 364.147C167.469 366.314 167.158 368.791 166.848 370.958Z" fill="white"/>
<path d="M91.4082 222.972C91.0977 222.972 91.0977 222.972 90.7873 223.282C88.6141 222.972 86.7514 224.52 86.441 226.687C86.441 227.616 86.1305 228.854 87.0619 229.783C87.6828 230.402 89.235 230.712 90.1664 230.712C92.3395 230.712 94.5127 229.164 94.8231 226.997C95.1336 224.83 93.5813 222.972 91.4082 222.972ZM93.2709 226.997C92.9604 228.235 91.7186 228.854 90.7873 228.854C89.5455 228.854 88.6141 228.854 88.6141 227.306C88.6141 226.068 89.5455 224.52 90.7873 224.52C91.0977 224.52 91.4082 224.52 91.4082 224.52C91.4082 224.52 91.4082 224.52 91.7186 224.52C92.65 224.83 93.5813 226.068 93.2709 226.997Z" fill="white"/>
<path d="M91.0983 256.408C90.7879 256.408 90.7879 256.408 90.4774 256.718C88.3043 256.408 86.4416 257.956 86.1311 260.123C86.1311 261.052 85.8207 262.291 86.752 263.219C87.3729 263.839 88.9252 264.148 89.8565 264.148C92.0297 264.148 94.2028 262.6 94.5133 260.433C95.1342 258.266 93.2715 256.408 91.0983 256.408ZM92.961 260.433C92.6506 261.671 91.4088 262.291 90.4774 262.291C89.2356 262.291 88.3043 262.291 88.3043 260.743C88.3043 259.504 89.2356 257.956 90.4774 257.956C90.7879 257.956 91.0983 257.956 91.0983 257.956C91.0983 257.956 91.0983 257.956 91.4088 257.956C92.6506 257.956 93.2715 259.195 92.961 260.433Z" fill="white"/>
<path d="M91.7195 293.25C91.4091 293.25 91.409 293.25 91.0986 293.56C88.9255 293.25 87.0628 294.798 86.7523 296.965C86.7523 297.894 86.4418 299.132 87.3732 300.061C87.9941 300.68 89.5464 300.99 90.4777 300.99C92.6509 300.99 94.824 299.442 95.1345 297.275C95.4449 295.107 93.8927 293.25 91.7195 293.25ZM93.2718 297.584C92.9613 298.823 91.7195 299.442 90.7882 299.442C89.5464 299.442 88.615 299.442 88.615 297.894C88.615 296.655 89.5464 295.107 90.7882 295.107C91.0986 295.107 91.4091 295.107 91.4091 295.107C91.4091 295.107 91.4091 295.107 91.7195 295.107C92.9613 295.107 93.8927 296.346 93.2718 297.584Z" fill="white"/>
<path d="M90.1674 336.593C89.857 336.593 89.857 336.593 89.5465 336.903C87.3734 336.593 85.5107 338.141 85.2002 340.308C85.2002 341.237 84.8898 342.475 85.8212 343.404C86.442 344.023 87.9943 344.333 88.9257 344.333C91.0988 344.333 93.2719 342.785 93.5824 340.618C93.8928 338.451 92.3406 336.593 90.1674 336.593ZM91.7197 340.618C91.4092 341.856 90.1674 342.475 89.2361 342.475C87.9943 342.475 87.063 342.475 87.063 340.927C87.063 339.689 87.9943 338.141 89.2361 338.141C89.5465 338.141 89.857 338.141 89.857 338.141C89.857 338.141 89.857 338.141 90.1674 338.141C91.4092 338.141 92.3406 339.379 91.7197 340.618Z" fill="white"/>
</svg>
