<svg width="639" height="735" viewBox="0 0 639 735" fill="none" xmlns="http://www.w3.org/2000/svg">
<path d="M848.091 426.571C821.151 437.594 831.493 476.454 816.602 496.867C802.508 515.814 775.871 517.503 755.337 527.254C720.398 542.485 714.492 574.425 701.107 606.104C675.99 664.661 612.949 703.584 548.916 703.972C442.95 704.396 355.714 612.4 373.397 506.114C375.753 491.244 379.978 476.44 381.598 461.171C384.432 408.567 331.637 374.21 303.67 336.233C268.588 286.794 254.56 223.137 263.982 163.659C277.414 84.5114 336.214 14.7915 409.495 -16.6726C506.712 -58.8908 663.171 -34.757 710.655 70.8068C717.25 86.7352 723.387 105.264 738.103 113.252C760.514 126.367 782.702 111.814 804.249 105.462C827.665 99.1746 850.9 98.488 874.688 103.801C920.395 114.363 961.235 147.929 980.069 190.448C1010.35 261.025 981.639 406.922 891.34 420.6C874.789 423.015 859.492 421.361 848.091 426.571Z" fill="#9CCDEE"/>
<circle cx="223.342" cy="56.5071" r="21.7793" transform="rotate(171.858 223.342 56.5071)" fill="#9CCDEE"/>
<circle cx="267.549" cy="617.513" r="61.2654" transform="rotate(171.858 267.549 617.513)" fill="#9CCDEE"/>
</svg>
