<svg width="116" height="106" viewBox="0 0 116 106" fill="none" xmlns="http://www.w3.org/2000/svg">
<path d="M4.10548 58.717C5.98475 55.228 9.32505 53.0806 12.1799 51.1909C14.8922 49.5015 17.2882 46.9836 19.8001 45.1516C22.312 43.3195 25.3673 41.5725 27.3624 38.7693C27.9325 37.9684 29.7897 37.4803 31.1036 36.9072C32.56 36.1338 33.6155 35.0751 35.3303 34.7873C38.5593 34.0689 37.2675 31.6412 36.7773 29.7841C35.9396 25.8696 33.2447 22.4432 31.721 18.6439C30.5137 15.673 29.8498 12.7872 28.9855 9.75876C28.6692 8.93032 28.6958 8.04431 28.237 7.41609C27.2614 5.81678 26.5442 4.70301 28.7711 3.27137C30.7975 1.69708 31.7997 2.4104 33.7462 3.49413C36.0936 4.86319 38.0714 7.17582 40.4454 7.65887C44.4496 8.39721 46.8862 11.3381 50.0354 13.2778C51.9819 14.3615 53.4163 16.589 55.4207 18.0157C56.8238 19.0143 57.5097 18.8992 58.6231 18.1833C60.7075 16.952 62.5914 15.5779 64.6758 14.3465C65.9317 13.4304 67.731 12.5995 69.3879 11.9688C72.0735 11.1654 74.5009 9.87639 76.0105 7.33099C76.2955 6.93053 76.8656 6.12963 77.066 6.27229C80.3843 7.12576 82.3215 3.97968 85.466 3.80448C87.3812 3.65932 89.666 2.57057 91.207 1.25407C92.4629 0.338024 93.0643 0.766019 94.0085 1.13644C95.0108 1.84975 96.013 2.56306 95.5588 4.04975C95.1046 5.53645 94.5079 7.22337 93.8533 8.5674C92.1166 11.8561 91.3241 15.5153 89.2444 18.8616C87.3651 22.3506 86.2876 26.4102 84.6088 30.0418C83.215 33.273 83.9056 35.2728 86.2263 37.5279C89.6072 40.8391 92.8455 44.3506 95.9414 48.0624C97.8033 49.6892 100.008 51.2585 101.501 53.8289C102.276 55.2856 103.737 56.6271 104.939 57.4831C108.864 60.8795 110.761 65.8501 114.343 69.304C116.004 70.7882 115.292 71.7894 113.292 72.4777C109.435 73.654 106.228 71.3714 102.852 70.175C99.6758 69.1213 96.0725 68.6683 92.9546 67.9575C89.2933 67.1616 85.4896 66.5659 81.8283 65.77C79.2539 65.1443 76.8532 65.5473 74.5638 64.5211C73.2186 63.8654 72.1364 65.8101 71.9094 66.5534C69.6072 72.758 66.3028 78.2492 63.5998 84.1685C61.2664 89.1441 59.0754 93.9196 57.1429 99.1806C56.7733 100.124 56.6621 101.553 56.15 102.697C55.6379 103.841 55.3841 105.47 53.9544 105.358C52.8676 105.187 51.7229 104.674 50.6048 103.275C48.7695 100.762 48.5911 97.6188 48.9873 95.7892C49.9223 91.9298 48.3141 88.6736 48.0777 85.1871C47.9306 83.2725 48.5273 81.5855 48.1797 79.5282C47.8321 77.4709 48.1704 75.2984 46.9364 73.2135C46.678 72.728 46.2192 72.0997 46.4463 71.3564C48.4681 67.6672 46.0581 63.8403 46.5076 60.2387C46.5922 59.6956 46.1913 59.4103 45.8484 59.4679C42.0493 60.9871 37.8713 59.2201 33.8717 60.5966C31.0435 61.6003 27.8677 60.5466 24.8391 61.4076C19.6102 62.8142 14.4346 62.4488 9.29035 63.3122C8.11898 63.6852 6.00334 63.6877 4.08813 63.8328C2.71632 64.0631 1.48702 64.0931 0.970271 63.122C0.711896 62.6365 1.9099 61.3775 2.2795 60.434C2.6491 59.4904 4.07884 59.603 4.10548 58.717ZM84.4895 40.8166C83.1131 38.932 81.3357 36.762 79.5005 34.2491C78.7833 33.1354 78.3244 32.5072 79.1216 30.9629C80.2037 29.0182 81.2859 27.0735 82.368 25.1288C82.8801 23.985 81.6774 23.129 82.7329 22.0703C84.9019 20.2958 84.2646 16.524 86.8344 15.0348C86.9769 14.8345 87.0615 14.2914 87.0036 13.9485C86.9144 12.3767 87.0256 10.9476 88.424 9.83134C88.9095 9.57355 90.1075 8.31461 89.0474 7.25841C88.1877 6.34487 87.2747 7.20336 86.4462 7.51871C83.5335 9.06547 80.3623 10.1267 77.65 11.8161C75.0802 13.3053 71.9357 13.4805 69.6242 15.4552C68.8538 16.1135 68.3996 17.6002 67.1124 17.2873C64.5958 17.0045 62.5694 18.5788 60.828 19.7526C56.6593 22.2154 53.9423 21.79 50.4189 18.6789C48.3565 16.9094 46.2362 14.797 43.3188 14.2289C40.7444 13.6031 40.7617 8.48731 36.7355 10.7499C36.7355 10.7499 36.5351 10.6072 36.3346 10.4646C36.0763 9.97902 35.6174 9.35079 34.9895 9.80882C34.219 10.4671 34.5353 11.2955 34.7937 11.7811C34.9095 12.4668 35.3684 13.0951 35.2838 13.6382C36.0682 19.3247 39.6808 24.0075 41.4941 29.5213C41.8104 30.3497 43.2981 30.8052 42.6435 32.1493C42.1314 33.2931 41.7351 35.1226 40.7642 35.6382C37.023 37.5003 34.6004 40.9042 31.0017 42.5661C23.8623 46.2328 19.1594 52.8403 12.078 56.8499C11.9934 57.393 11.7084 57.7935 11.9667 58.279C12.0826 58.9648 12.7106 58.5068 13.0535 58.4492C17.4853 58.5869 21.4848 57.2103 25.8007 56.6622C29.2302 56.0865 32.9448 55.1104 36.4322 54.8776C39.0333 54.6173 41.9774 54.2995 44.6944 54.725C47.0684 55.208 50.0657 53.1181 51.7319 56.7172C51.9902 57.2028 52.8186 56.8874 52.1061 57.8886C51.309 59.4328 50.4273 61.5202 52.5742 62.7466C53.5764 63.4599 52.8905 63.575 52.6055 63.9755C51.8397 66.7486 50.7309 69.5794 53.4525 72.1198C53.8534 72.4051 53.6263 73.1484 53.1408 73.4062C52.3704 74.0645 52.6867 74.8929 52.66 75.7789C51.9255 79.781 53.7921 83.5227 53.7434 87.4097C53.6322 88.8388 53.4943 91.1539 54.2695 92.6106C54.3274 92.9535 54.2428 93.4966 54.9287 93.3815C55.2717 93.3239 55.4721 93.4666 55.5567 92.9234C55.895 90.751 56.9771 88.8063 58.2597 87.0042C60.9674 83.1999 61.7865 78.6547 64.0933 74.565C65.9726 71.0761 67.3085 67.502 68.5864 63.585C69.1831 61.8981 70.0381 60.6968 72.1538 60.6942C76.6701 60.2888 80.9327 61.5127 85.3378 62.5363C88.9411 62.9894 92.6024 63.7853 96.1211 64.7814C97.0654 65.1518 97.8359 64.4936 99.181 65.1493C101.47 66.1755 104.018 67.6872 106.878 67.9125C107.421 67.9976 107.822 68.2829 108.25 67.6822C108.334 67.1391 107.933 66.8538 107.675 66.3682C105.18 63.0845 102.116 60.6016 99.3362 57.7184C97.6748 56.2342 97.4697 53.9766 95.8082 52.4924C91.483 48.8107 88.1867 44.9563 84.4895 40.8166Z" fill="#9CCDEE"/>
<path d="M64.2681 36.9822C63.6402 37.4402 63.1547 37.698 62.3529 37.1274C61.6937 36.3565 61.6844 32.1267 62.7978 31.4109C63.4258 30.9529 64.5705 31.4659 65.1718 31.8939C65.7732 32.3219 65.1811 36.1237 64.2681 36.9822Z" fill="#9CCDEE"/>
<path d="M62.6656 49.4166C64.8925 47.9849 66.0372 48.498 66.4427 50.8982C64.7859 51.5289 63.6412 51.0159 62.6656 49.4166Z" fill="#9CCDEE"/>
</svg>
