<svg width="60" height="59" viewBox="0 0 60 59" fill="none" xmlns="http://www.w3.org/2000/svg">
<path d="M1.33131 40.3081C1.89021 38.3154 3.34694 36.8394 4.58575 35.5502C5.77482 34.3793 6.70804 32.8224 7.77866 31.6018C8.84929 30.3811 10.2065 29.1417 10.9029 27.4853C11.1018 27.012 11.9925 26.551 12.5965 26.1088C13.2502 25.5483 13.6671 24.8882 14.508 24.5455C16.0714 23.8104 15.1356 22.7209 14.6736 21.8306C13.7994 19.9316 12.0345 18.4936 10.8239 16.7317C9.86919 15.3557 9.20108 13.9611 8.41452 12.5166C8.15866 12.1306 8.07098 11.6761 7.76538 11.4084C7.08548 10.7049 6.59272 10.2193 7.56388 9.23529C8.41658 8.20148 9.00881 8.45043 10.1246 8.78023C11.4772 9.20961 12.7493 10.162 14.0143 10.1369C16.1391 10.0555 17.7168 11.2757 19.5433 11.9042C20.659 12.234 21.6445 13.2052 22.829 13.7031C23.6581 14.0516 23.9945 13.9145 24.48 13.4225C25.4014 12.5568 26.2044 11.6413 27.1258 10.7756C27.6611 10.1653 28.4831 9.53624 29.2553 9.02549C30.532 8.30916 31.6216 7.37493 32.1 5.90531C32.1995 5.66868 32.3985 5.19541 32.5169 5.2452C34.3054 5.30088 34.933 3.47632 36.5153 3.02768C37.4747 2.73483 38.5146 1.91891 39.1493 1.07195C39.6847 0.461615 40.04 0.610988 40.5635 0.691833C41.1557 0.940785 41.748 1.18974 41.6864 1.99923C41.6249 2.80872 41.5136 3.73653 41.3337 4.49623C40.8245 6.37059 40.8388 8.32579 40.1615 10.2687C39.6026 12.2613 39.5175 14.4532 39.077 16.4956C38.736 18.3015 39.3165 19.2416 40.7568 20.1255C42.858 21.4265 44.9095 22.8458 46.9113 24.3834C48.046 24.9996 49.3489 25.5473 50.4031 26.6866C50.9646 27.3403 51.8624 27.8569 52.5731 28.1557C54.961 29.4379 56.4961 31.754 58.7158 33.1047C59.7321 33.6712 59.4834 34.2628 58.543 34.842C56.712 35.8823 54.8169 35.0856 52.9597 34.8618C51.2209 34.6878 49.333 34.8688 47.663 34.8629C45.7063 34.8757 43.6999 35.0069 41.7433 35.0197C40.3599 34.9951 39.1826 35.4748 37.8987 35.2135C37.1382 35.0331 36.8091 36.1478 36.7783 36.5525C36.3142 39.9773 35.258 43.1532 34.557 46.4784C33.9366 49.2806 33.3659 51.9644 32.9824 54.8662C32.9018 55.3892 33.0085 56.1302 32.8783 56.7716C32.748 57.413 32.8049 58.2722 32.0635 58.3782C31.4902 58.4157 30.8483 58.2851 30.1186 57.6999C28.8962 56.6291 28.446 55.0476 28.4389 54.07C28.4743 51.9965 27.2826 50.521 26.7637 48.7714C26.4699 47.8125 26.5812 46.8847 26.1689 45.8761C25.7567 44.8674 25.6808 43.7217 24.8138 42.8003C24.6266 42.5824 24.321 42.3147 24.3518 41.91C24.9604 39.799 23.295 38.1243 23.1125 36.2377C23.0935 35.9512 22.8566 35.8517 22.6884 35.9202C20.9261 37.1285 18.5951 36.7056 16.7144 37.8641C15.3879 38.6988 13.6491 38.5248 12.2042 39.3096C9.70043 40.624 7.0213 41.0292 4.49857 42.0572C3.94428 42.3811 2.86648 42.6241 1.90712 42.917C1.23439 43.1911 0.611399 43.3469 0.237092 42.9111C0.0499388 42.6932 0.516544 41.9147 0.597047 41.3917C0.67755 40.8686 1.41899 40.7626 1.33131 40.3081ZM40.2476 21.9999C39.3308 21.1968 38.1771 20.2941 36.9547 19.2234C36.462 18.7378 36.1564 18.4701 36.3861 17.5921C36.7153 16.4774 37.0445 15.3628 37.3737 14.2481C37.5039 13.6067 36.7932 13.308 37.2101 12.6479C38.1125 11.4958 37.3567 9.64655 38.4961 8.594C38.5458 8.47568 38.5268 8.18926 38.4581 8.02115C38.233 7.2304 38.1264 6.48943 38.7114 5.76079C38.9294 5.57394 39.396 4.7955 38.735 4.37844C38.1925 4.01117 37.8254 4.55297 37.4393 4.80835C36.1318 5.92942 34.6371 6.8326 33.4481 8.00347C32.3087 9.05602 30.7264 9.50466 29.7742 10.7751C29.4568 11.1986 29.3953 12.0081 28.7036 11.9958C27.3889 12.1392 26.5362 13.1731 25.7829 13.9702C23.9401 15.7016 22.507 15.7953 20.356 14.6127C19.1028 13.9467 17.7809 13.1125 16.2294 13.1564C14.846 13.1318 14.2701 10.5229 12.477 12.136C12.477 12.136 12.3586 12.0862 12.2402 12.0364C12.053 11.8185 11.7474 11.5508 11.4797 11.856C11.1624 12.2795 11.4182 12.6655 11.6054 12.8834C11.7428 13.2196 12.0484 13.4873 12.0674 13.7737C13.1169 16.5818 15.493 18.5552 17.0472 21.1577C17.303 21.5437 18.1132 21.6058 17.9332 22.3655C17.803 23.0069 17.8101 23.9844 17.3743 24.3581C15.6807 25.7346 14.8351 27.746 13.1913 29.0041C9.97221 31.6885 8.33088 35.593 5.18053 38.4455C5.19951 38.7319 5.10003 38.9686 5.28718 39.1865C5.4246 39.5227 5.69226 39.2175 5.86044 39.149C8.13449 38.7127 10.0153 37.5541 12.1519 36.7816C13.8337 36.0963 15.615 35.1744 17.3656 34.6572C18.6613 34.2273 20.1252 33.7289 21.5583 33.6352C22.8233 33.61 24.1118 32.2025 25.3722 33.8461C25.5593 34.064 25.9454 33.8087 25.6967 34.4003C25.467 35.2783 25.2563 36.4427 26.4905 36.8223C27.0827 37.0713 26.7463 37.2083 26.6468 37.4449C26.5735 38.9456 26.332 40.5148 28.0092 41.4983C28.2461 41.5979 28.2153 42.0026 27.9974 42.1895C27.68 42.613 27.9359 42.999 28.0236 43.4535C28.1066 45.5768 29.4854 47.2702 29.9048 49.2565C30.0115 49.9974 30.2058 51.1929 30.7673 51.8466C30.836 52.0147 30.855 52.3012 31.1913 52.1641C31.3595 52.0956 31.4779 52.1454 31.459 51.8589C31.3831 50.7132 31.7123 49.5986 32.1599 48.5337C33.1049 46.2857 33.0029 43.8759 33.711 41.5283C34.2699 39.5356 34.5422 37.5617 34.7458 35.4196C34.857 34.4918 35.1554 33.7819 36.2332 33.5389C38.4883 32.8161 40.8003 32.9526 43.162 32.9708C45.05 32.7899 47.0067 32.777 48.9136 32.8825C49.4371 32.9634 49.7545 32.5399 50.5149 32.7203C51.7988 32.9816 53.2699 33.4607 54.7528 33.2487C55.0394 33.23 55.2763 33.3296 55.4255 32.9746C55.4065 32.6882 55.1696 32.5886 54.9825 32.3707C53.3361 30.9825 51.4907 30.0675 49.7448 28.9159C48.7285 28.3495 48.366 27.2225 47.3497 26.6561C44.7249 25.2743 42.6047 23.6869 40.2476 21.9999Z" fill="#9CCDEE"/>
<path d="M29.505 22.3569C29.2373 22.6621 29.0194 22.8489 28.5456 22.6498C28.1216 22.3323 27.6335 20.1779 28.119 19.6859C28.3867 19.3807 29.0287 19.5114 29.384 19.6607C29.7393 19.8101 29.8721 21.8151 29.505 22.3569Z" fill="#9CCDEE"/>
<path d="M30.1094 28.8763C31.0806 27.8923 31.7225 28.0229 32.2035 29.1997C31.4313 29.7104 30.7893 29.5798 30.1094 28.8763Z" fill="#9CCDEE"/>
</svg>
