<svg width="66" height="63" viewBox="0 0 66 63" fill="none" xmlns="http://www.w3.org/2000/svg">
<path d="M45.5976 1.68042C34.9045 1.71037 26.3074 10.5196 26.3074 21.2127V40.4675H55.8442C60.8388 40.4675 64.8877 36.4185 64.8877 31.4239V21.2127C64.8877 10.5196 56.2907 1.71037 45.5976 1.68042Z" fill="#5C586F"/>
<path d="M34.753 22.609C34.753 14.1452 38.6852 6.60086 44.8214 1.69971C34.4916 2.14174 26.3074 10.7798 26.3074 21.2128V40.4675H41.59C37.3398 35.732 34.753 29.4729 34.753 22.609Z" fill="#423E4F"/>
<path d="M41.4467 33.3262L37.7893 34.0404C37.7893 34.0404 22.0168 40.0052 22.0168 57.064V60.2827H21.1225L20.0854 61.3197H22.0168H55.5343V44.9293C55.5343 37.491 48.7471 31.9008 41.4467 33.3262Z" fill="#04237E"/>
<path d="M16.0595 54.0659C24.0787 54.0659 30.5796 47.5651 30.5796 39.5459C30.5796 31.5267 24.0787 25.0259 16.0595 25.0259C8.04036 25.0259 1.53952 31.5267 1.53952 39.5459C1.53952 47.5651 8.04036 54.0659 16.0595 54.0659Z" fill="#FFDCCE"/>
<path d="M31.5008 15.4172C30.7956 17.1954 30.4155 19.138 30.4349 21.1718C30.5133 29.3959 37.2022 36.1216 45.4259 36.2424C53.937 36.3676 60.8756 29.5059 60.8756 21.0234C60.8756 18.8041 60.4 16.6961 59.5459 14.7949C59.2788 14.2003 58.769 13.748 58.1521 13.5375C44.9155 9.0191 41.6111 13.9608 33.7127 13.9316C32.7412 13.9279 31.859 14.514 31.5008 15.4172Z" fill="#FFDCCE"/>
<path d="M34.753 22.609C34.753 19.5109 35.2815 16.5367 36.2503 13.7694C35.4495 13.8734 34.6109 13.9349 33.7127 13.9315C32.741 13.928 31.859 14.5139 31.5008 15.4171C30.7956 17.1953 30.4155 19.1378 30.4349 21.1717C30.4839 26.3207 33.1244 30.882 37.1102 33.6032C35.5959 30.2495 34.753 26.5277 34.753 22.609Z" fill="#FFCABD"/>
<path d="M36.4139 26.932C38.2504 26.932 39.7392 25.7465 39.7392 24.284C39.7392 22.8215 38.2504 21.636 36.4139 21.636C34.5775 21.636 33.0887 22.8215 33.0887 24.284C33.0887 25.7465 34.5775 26.932 36.4139 26.932Z" fill="#FF9DB0"/>
<path d="M54.4379 26.932C56.2744 26.932 57.7631 25.7465 57.7631 24.284C57.7631 22.8215 56.2744 21.636 54.4379 21.636C52.6015 21.636 51.1127 22.8215 51.1127 24.284C51.1127 25.7465 52.6015 26.932 54.4379 26.932Z" fill="#FF9DB0"/>
<path d="M7.32 45.7634C9.15646 45.7634 10.6452 44.5779 10.6452 43.1154C10.6452 41.653 9.15646 40.4674 7.32 40.4674C5.48353 40.4674 3.99478 41.653 3.99478 43.1154C3.99478 44.5779 5.48353 45.7634 7.32 45.7634Z" fill="#FF9DB0"/>
<path d="M25.3433 45.7634C27.1797 45.7634 28.6685 44.5779 28.6685 43.1154C28.6685 41.653 27.1797 40.4674 25.3433 40.4674C23.5068 40.4674 22.018 41.653 22.018 43.1154C22.018 44.5779 23.5068 45.7634 25.3433 45.7634Z" fill="#FF9DB0"/>
<path d="M28.492 27.8836C26.3688 24.3793 21.8339 23.3107 14.8923 23.3107C9.8404 23.3107 6.9757 22.7595 5.37797 22.2144C4.28244 21.8406 3.12637 22.6073 3.06378 23.7631C2.8601 27.5291 4.07239 34.0404 14.8923 34.0404H24.9577C28.1174 34.0402 30.1292 30.5859 28.492 27.8836Z" fill="#FBC072"/>
<path d="M32.4514 57.4016C31.0976 58.3556 29.653 59.1429 28.1459 59.7536L23.878 57.2282L24.2524 52.0475C25.4014 51.6539 26.494 51.0959 27.507 50.3834C29.4445 49.0185 32.1228 49.4821 33.4877 51.4208C34.8526 53.3584 34.389 56.0354 32.4514 57.4016Z" fill="#FFDCCE"/>
<path d="M28.1457 59.7537C25.6037 60.7862 22.8788 61.3197 20.0852 61.3197C15.1211 61.3197 9.95585 60.8083 5.79742 57.1012C4.02787 55.5241 3.87211 52.8103 5.45034 51.0408C7.02742 49.2725 9.7412 49.1168 11.5095 50.6937C13.425 52.402 16.1045 52.7355 20.0851 52.7355C21.5186 52.7355 22.9215 52.5012 24.2521 52.0476L28.1457 59.7537Z" fill="#9CCDEE"/>
<path d="M42.0837 48.0944C40.8185 48.0944 39.5446 47.9608 38.2811 47.6879C35.9641 47.1874 34.4915 44.9034 34.9921 42.5863C35.4928 40.2693 37.777 38.7971 40.0937 39.2972C43.1353 39.9544 46.2989 39.0665 48.5568 36.9228L50.7324 34.857C52.4514 33.2248 55.1681 33.2952 56.8004 35.0144C58.4325 36.7333 58.3621 39.4501 56.6431 41.0822L54.4674 43.1478C51.0875 46.3572 46.6447 48.0944 42.0837 48.0944Z" fill="#FFCABD"/>
<path d="M7.68104 49.7183C6.84745 49.9115 6.06292 50.3538 5.45034 51.0408C3.87211 52.8104 4.02787 55.5241 5.79742 57.1012C9.88791 60.7479 14.9526 61.3018 19.8418 61.3189C14.3589 59.2154 9.95853 55.0097 7.68104 49.7183Z" fill="#C6E7FE"/>
<path d="M16.3319 23.3279C15.8637 23.3167 15.3847 23.3106 14.8923 23.3106C9.84039 23.3106 6.97569 22.7594 5.37796 22.2143C4.28243 21.8404 3.12636 22.6072 3.06377 23.7631C2.91694 26.4777 3.50645 30.6184 7.89928 32.7189C9.69317 28.8281 12.6477 25.5585 16.3319 23.3279Z" fill="#EBB46B"/>
<path d="M36.7678 22.3557C37.2958 22.3557 37.7238 21.9277 37.7238 21.3997C37.7238 21.0542 38.005 20.773 38.3507 20.773C38.6963 20.773 38.9774 21.0542 38.9774 21.3997C38.9774 21.9278 39.4054 22.3557 39.9333 22.3557C40.4613 22.3557 40.8893 21.9277 40.8893 21.3997C40.8893 19.9998 39.7504 18.861 38.3505 18.861C36.9506 18.861 35.8118 19.9998 35.8118 21.3997C35.8118 21.9278 36.2398 22.3557 36.7678 22.3557Z" fill="black"/>
<path d="M50.9164 22.3557C51.4444 22.3557 51.8724 21.9277 51.8724 21.3997C51.8724 21.0542 52.1536 20.773 52.4991 20.773C52.8448 20.773 53.126 21.0542 53.126 21.3997C53.126 21.9278 53.554 22.3557 54.082 22.3557C54.6099 22.3557 55.0379 21.9277 55.0379 21.3997C55.0379 19.9998 53.899 18.861 52.4991 18.861C51.0992 18.861 49.9604 19.9998 49.9604 21.3997C49.9605 21.9278 50.3885 22.3557 50.9164 22.3557Z" fill="black"/>
<path d="M47.8243 23.8779C48.1713 23.4798 48.1299 22.876 47.7318 22.5291C47.3339 22.1821 46.7299 22.2236 46.383 22.6216C45.8761 23.2031 44.9748 23.205 44.4665 22.6216C44.1195 22.2236 43.5157 22.1821 43.1177 22.529C42.7196 22.8758 42.6782 23.4797 43.025 23.8778C44.2925 25.3321 46.5532 25.3363 47.8243 23.8779Z" fill="black"/>
<path d="M18.7304 42.7093C19.0773 42.3112 19.0359 41.7075 18.6378 41.3605C18.2399 41.0136 17.636 41.055 17.289 41.453C16.7821 42.0345 15.8808 42.0364 15.3725 41.453C15.0256 41.055 14.4218 41.0136 14.0237 41.3604C13.6257 41.7072 13.5842 42.3111 13.9311 42.7092C15.1985 44.1635 17.4592 44.1677 18.7304 42.7093Z" fill="black"/>
<path d="M8.30487 38.8238C8.83282 38.8238 9.26083 38.3957 9.26083 37.8678C9.26083 37.5887 9.48797 37.3615 9.76711 37.3615C10.0463 37.3615 10.2735 37.5887 10.2735 37.8678C10.2735 38.3957 10.7015 38.8238 11.2295 38.8238C11.7574 38.8238 12.1854 38.3957 12.1854 37.8678C12.1854 36.5343 11.1006 35.4495 9.76711 35.4495C8.43361 35.4495 7.34879 36.5343 7.34879 37.8678C7.34891 38.3957 7.77693 38.8238 8.30487 38.8238Z" fill="black"/>
<path d="M21.3765 38.8238C21.9044 38.8238 22.3325 38.3957 22.3325 37.8678C22.3325 37.5887 22.5596 37.3615 22.8387 37.3615C23.1179 37.3615 23.345 37.5887 23.345 37.8678C23.345 38.3957 23.773 38.8238 24.301 38.8238C24.8289 38.8238 25.2569 38.3957 25.2569 37.8678C25.2569 36.5343 24.1721 35.4495 22.8386 35.4495C21.5051 35.4495 20.4203 36.5343 20.4203 37.8678C20.4204 38.3957 20.8484 38.8238 21.3765 38.8238Z" fill="black"/>
<path d="M4.88117 50.2463C2.79132 52.4113 2.94542 55.8396 5.15942 57.8128C6.33551 58.8613 7.66289 59.7288 9.10461 60.3913C9.58463 60.6118 10.152 60.4015 10.3725 59.9217C10.593 59.4419 10.3827 58.8743 9.9029 58.6538C8.61592 58.0625 7.48049 57.3206 6.43161 56.3855C5.05529 55.159 4.93407 53.0515 6.16203 51.6749C7.03119 50.7004 8.154 50.5909 8.09868 50.606C9.05962 50.4456 10.0288 50.689 10.8716 51.4052C13.2873 53.5596 16.8061 53.6896 20.0836 53.6896C21.3158 53.6896 22.5942 53.5165 23.7609 53.1959L26.8094 59.2297C24.6487 59.9802 22.3834 60.3619 20.0835 60.3619C18.1997 60.3619 15.7318 60.2958 13.3478 59.7806C12.8316 59.6689 12.323 59.997 12.2115 60.513C12.1 61.0291 12.4279 61.5378 12.9439 61.6493C15.6927 62.2434 19.4456 62.3757 21.693 62.217C21.9953 62.3254 19.861 62.2519 55.5332 62.2737C56.0612 62.2737 56.4892 61.8457 56.4892 61.3178C56.4285 44.4791 56.6309 44.6398 56.2995 42.7231C57.1757 41.8743 57.4219 41.7011 57.7973 41.2284C62.4179 40.311 65.8433 36.2424 65.8433 31.4214V21.21C65.8433 16.3693 64.1277 11.6641 61.0125 7.96151C60.6727 7.55746 60.0696 7.50558 59.6655 7.84539C59.2615 8.18533 59.2096 8.78835 59.5494 9.19241C62.3752 12.551 63.9313 16.8189 63.9313 21.21V31.4214C63.9313 34.7436 61.9034 37.7096 58.8419 38.9338C59.2703 36.6319 58.1322 34.3802 56.1486 33.3326C61.6458 28.6424 63.3423 20.9122 60.4173 14.4002C60.0455 13.5726 59.3322 12.9274 58.4602 12.6298C44.9574 8.0204 41.4671 12.9725 33.7028 12.9725C32.3485 12.9725 31.1068 13.811 30.6108 15.0618C28.0008 21.643 29.9405 29.3363 35.852 33.8723C34.3303 34.646 32.7769 35.6107 31.2802 36.7525C30.9901 35.162 30.4244 33.5272 29.5775 32.0072C30.2919 30.4484 30.1327 28.7352 29.3079 27.3855C28.7723 26.5012 28.0883 25.7409 27.2619 25.1052V21.21C27.2619 10.995 35.488 2.66141 45.5939 2.63311C49.767 2.64471 53.6984 4.03787 56.9632 6.66204C57.3748 6.99281 57.9765 6.92729 58.3073 6.51584C58.638 6.10427 58.5727 5.50253 58.1611 5.17176C54.5546 2.27303 50.2108 0.734065 45.594 0.721191C34.4315 0.752292 25.3501 9.94354 25.3501 21.2099V23.9653C22.295 22.5645 18.2413 22.3517 14.8903 22.3517C9.8133 22.3517 7.0818 21.7833 5.68444 21.3066C3.9841 20.7264 2.20359 21.923 2.10685 23.7085C2.00615 25.5693 2.22921 28.0863 3.65436 30.2875C-0.869251 36.3488 -0.342452 44.7854 4.88117 50.2463ZM4.90973 31.8152C7.28306 34.1157 10.7629 34.8768 14.0565 34.9805C14.8061 35.0032 14.2677 34.9897 24.956 34.9937C26.3555 34.9658 27.4569 34.4915 28.3132 33.7289C31.3941 40.234 28.8998 48.1226 22.3535 51.5597C21.6215 51.7007 20.8355 51.7774 20.0836 51.7774C17.3056 51.7774 14.0681 51.6938 12.1441 49.978C10.5266 48.5367 8.28503 48.2869 6.45813 49.1263C1.84045 44.4962 1.16899 37.2135 4.90973 31.8152ZM32.6488 55.8886C32.2899 56.369 31.9483 56.5933 31.4523 56.9238C30.5732 57.5099 29.614 58.0488 28.5913 58.5162L25.5793 52.5545C27.0105 51.9332 27.9656 51.2153 28.1945 51.0701C31.3632 49.0625 34.8161 52.9854 32.6488 55.8886ZM54.5774 60.3618H29.1543C31.4023 59.366 33.1143 58.101 33.001 58.1809C35.373 56.5084 35.9284 53.2254 34.2681 50.8684C32.9361 48.9766 30.5564 48.21 28.4155 48.877C30.5473 46.0592 31.6478 42.5663 31.5244 39.0037C33.4894 37.3655 35.7651 35.9668 37.7121 35.1063C40.4401 36.6559 43.5558 37.3683 46.7163 37.1632C43.5618 39.253 40.2813 38.3606 40.294 38.3606C37.2916 37.7113 34.3162 39.7922 33.9688 42.9193C33.6783 45.5277 35.3867 48.0265 38.0567 48.6152C43.805 49.8869 49.9885 48.363 54.5626 44.352C54.5901 44.8845 54.5723 44.0111 54.5774 60.3618ZM56.106 35.6701C57.2524 36.9394 57.2543 38.6304 56.463 39.816C56.1055 40.3528 55.8672 40.4641 53.8082 42.4523C49.6477 46.4027 43.9141 47.9249 38.4814 46.7514C35.9906 46.2133 34.9797 43.1576 36.7175 41.2486C37.5467 40.3386 38.79 39.9809 39.8904 40.2294C43.2342 40.9519 46.7218 39.9798 49.2138 37.6136C51.6049 35.343 51.4296 35.5072 51.5215 35.429C52.7706 34.362 54.7274 34.2908 56.106 35.6701ZM32.3881 15.7666C32.5936 15.2487 33.1121 14.8845 33.7079 14.8845C41.8012 14.9148 44.9175 10.0269 57.8427 14.4392C58.122 14.5346 58.3621 14.711 58.5303 14.9393C58.7942 15.2974 60.2682 18.4817 59.8377 22.5314C59.4056 26.615 57.231 30.337 53.8125 32.7217C53.302 32.7094 52.7911 32.7733 52.3018 32.9062C50.8148 33.313 50.1912 34.0666 49.4221 34.7793C38.1667 37.8538 28.0447 26.7162 32.3881 15.7666ZM4.01609 23.812C4.03419 23.477 4.23813 23.291 4.35807 23.2101C5.24584 22.6107 5.7112 24.2638 14.8903 24.2638C20.9703 24.2638 24.6413 25.1378 26.6906 27.1385C27.1653 27.605 27.7003 28.2854 27.9309 28.9134C28.6191 30.7988 27.3059 32.8036 25.3697 33.0551C25.0024 33.0967 14.874 33.0816 14.8868 33.0816C6.7105 33.0816 3.72421 29.2056 4.01609 23.812Z" fill="black"/>
</svg>
