<svg width="63" height="60" viewBox="0 0 63 60" fill="none" xmlns="http://www.w3.org/2000/svg">
<path d="M36.1303 6.68467C39.4795 10.0339 40.693 14.7467 41.1299 17.9227C41.3864 19.7869 39.7858 21.3875 37.9216 21.131C34.7456 20.6941 30.0328 19.4805 26.6836 16.1314C23.3344 12.7822 22.1209 8.06938 21.684 4.89345C21.4275 3.02922 23.0281 1.4286 24.8924 1.68507C28.0683 2.12198 32.7811 3.33558 36.1303 6.68467Z" fill="#8DE1CE"/>
<path d="M37.122 19.3014C36.7537 19.3014 36.4073 19.0758 36.2711 18.7106C34.9753 15.2392 30.114 10.5403 28.4851 9.34012C28.0812 9.04259 27.995 8.47405 28.2925 8.07033C28.59 7.6666 29.1587 7.58038 29.5623 7.87779C31.3698 9.20933 36.5256 14.1979 37.9728 18.0755C38.1482 18.5454 37.9094 19.0685 37.4395 19.2439C37.3347 19.283 37.2274 19.3014 37.122 19.3014Z" fill="#6FCD90"/>
<path d="M39.2726 20.9134C37.8805 20.9134 36.7522 19.7849 36.7522 18.3929C36.7522 14.4321 37.8522 10.9277 40.0217 7.9774C41.6942 5.70302 44.0118 3.76019 46.9102 2.20281C48.1367 1.54393 49.6646 2.00385 50.3234 3.23004C50.9823 4.45624 50.5224 5.98444 49.2962 6.64331C44.2474 9.35605 41.7932 13.1994 41.7932 18.3929C41.7932 19.785 40.6647 20.9134 39.2726 20.9134Z" fill="#D2996F"/>
<path d="M39.2728 13.7889C38.7209 13.4324 38.1513 13.1122 37.5679 12.8254C37.0256 14.56 36.7522 16.4198 36.7522 18.3931C36.7522 19.7852 37.8807 20.9136 39.2726 20.9136C40.6646 20.9136 41.7931 19.7851 41.7931 18.3931C41.7931 15.9032 42.3588 13.7245 43.5026 11.8311C42.016 12.2792 40.5956 12.9341 39.2728 13.7889Z" fill="#CB775A"/>
<path d="M16.9936 27.9368C16.9936 38.8501 25.1959 53.6506 33.8181 53.6506C35.7913 53.6506 37.0794 53.452 38.4605 52.4863C38.9481 52.1453 39.597 52.1453 40.0847 52.4863C41.4658 53.4522 42.7539 53.6506 44.7271 53.6506C53.3493 53.6506 61.5516 38.8501 61.5516 27.9368C61.5516 20.6544 55.648 14.7509 48.3657 14.7509C45.3724 14.7509 42.614 15.7502 40.4014 17.4313C39.7355 17.9372 38.8096 17.9372 38.1437 17.4313C35.9311 15.7501 33.1727 14.7509 30.1794 14.7509C22.897 14.751 16.9936 20.6544 16.9936 27.9368Z" fill="#F6EE86"/>
<path d="M49.551 52.1698C29.5837 48.7654 26.1063 22.1613 28.8983 14.8131C22.2172 15.4575 16.9936 21.0869 16.9936 27.9369C16.9936 38.8502 25.1959 53.6508 33.8181 53.6508C35.7913 53.6508 37.0794 53.4522 38.4605 52.4865C38.9481 52.1455 39.597 52.1455 40.0847 52.4865C41.4658 53.4522 42.7539 53.6508 44.7271 53.6508C46.3683 53.6508 47.994 53.1134 49.551 52.1698Z" fill="#F2D98D"/>
<path d="M29.6284 32.0333C31.5938 32.0333 33.187 30.7645 33.187 29.1993C33.187 27.6342 31.5938 26.3654 29.6284 26.3654C27.6631 26.3654 26.0699 27.6342 26.0699 29.1993C26.0699 30.7645 27.6631 32.0333 29.6284 32.0333Z" fill="#EDA1AB"/>
<path d="M48.9175 32.0333C50.8829 32.0333 52.4761 30.7645 52.4761 29.1993C52.4761 27.6342 50.8829 26.3654 48.9175 26.3654C46.9521 26.3654 45.3589 27.6342 45.3589 29.1993C45.3589 30.7645 46.9521 32.0333 48.9175 32.0333Z" fill="#EDA1AB"/>
<path d="M42.1422 27.022C42.1422 25.2488 40.8576 25.0822 39.273 25.0822C37.6885 25.0822 36.4039 25.2488 36.4039 27.022C36.4039 28.7951 37.6885 30.2325 39.273 30.2325C40.8576 30.2324 42.1422 28.795 42.1422 27.022Z" fill="#4B5165"/>
<path d="M14.9722 45.3368C8.52845 43.6327 4.46527 35.8319 5.09109 26.3662C5.18384 24.9629 6.39854 23.8999 7.79995 23.9933C9.20331 24.0861 10.2657 25.2989 10.1729 26.7021C9.93968 30.2289 10.5091 33.5868 11.7763 36.1575C12.897 38.4311 14.4944 39.9425 16.2742 40.4131C17.6338 40.7726 18.4446 42.1663 18.085 43.5259C17.7266 44.8816 16.3356 45.6974 14.9722 45.3368Z" fill="#8DE1CE"/>
<path d="M18.0853 43.526C18.4448 42.1664 17.6341 40.7727 16.2745 40.4131C14.4948 39.9426 12.8973 38.4312 11.7766 36.1575C11.086 34.7565 10.6044 33.1204 10.3452 31.3517C8.52071 32.0212 6.96345 33.2087 5.84781 34.765C7.29791 40.1843 10.5825 44.1759 14.9726 45.3368C16.3359 45.6974 17.7269 44.8816 18.0853 43.526Z" fill="#6FCD90"/>
<path d="M22.1345 44.6374C25.7305 44.6374 28.6456 41.4131 28.6456 37.4357C28.6456 33.4583 25.7305 30.234 22.1345 30.234C18.5386 30.234 15.6234 33.4583 15.6234 37.4357C15.6234 41.4131 18.5386 44.6374 22.1345 44.6374Z" fill="#B0ADE2"/>
<path d="M42.9697 54.7781C45.512 52.2357 45.2934 47.8952 42.4814 45.0832C39.6694 42.2711 35.3288 42.0525 32.7865 44.5949C30.2441 47.1373 30.4627 51.4778 33.2747 54.2898C36.0867 57.1018 40.4273 57.3204 42.9697 54.7781Z" fill="#B0ADE2"/>
<path d="M37.476 45.9808C40.0183 43.4385 39.7997 39.0979 36.9877 36.2859C34.1757 33.4739 29.8351 33.2553 27.2928 35.7977C24.7504 38.34 24.969 42.6806 27.781 45.4926C30.5931 48.3046 34.9336 48.5232 37.476 45.9808Z" fill="#D1C4E9"/>
<path d="M19.6033 46.3258C22.1456 43.7835 21.927 39.4429 19.115 36.6309C16.303 33.8189 11.9624 33.6003 9.42008 36.1426C6.87773 38.685 7.09633 43.0256 9.90834 45.8376C12.7203 48.6496 17.0609 48.8682 19.6033 46.3258Z" fill="#D1C4E9"/>
<path d="M7.87925 56.0412C11.4752 56.0412 14.3903 52.8169 14.3903 48.8395C14.3903 44.8621 11.4752 41.6378 7.87925 41.6378C4.28328 41.6378 1.36816 44.8621 1.36816 48.8395C1.36816 52.8169 4.28328 56.0412 7.87925 56.0412Z" fill="#B0ADE2"/>
<path d="M32.245 54.7769C34.7873 52.2345 34.5687 47.8939 31.7567 45.0819C28.9447 42.2699 24.6041 42.0513 22.0618 44.5937C19.5194 47.136 19.738 51.4766 22.55 54.2886C25.362 57.1006 29.7026 57.3192 32.245 54.7769Z" fill="#B0ADE2"/>
<path d="M23.6881 54.4391C26.2304 51.8967 26.0118 47.5562 23.1998 44.7442C20.3878 41.9322 16.0472 41.7136 13.5049 44.2559C10.9625 46.7983 11.1811 51.1388 13.9931 53.9508C16.8052 56.7629 21.1457 56.9815 23.6881 54.4391Z" fill="#D1C4E9"/>
<path d="M41.7124 24.5771C41.0525 24.2425 40.26 24.174 39.2728 24.174C38.2857 24.174 37.4931 24.2425 36.8333 24.5771C36.2229 24.8866 35.4955 25.5619 35.4955 27.022C35.4955 29.2931 37.19 31.1407 39.2728 31.1407C41.3556 31.1407 43.0501 29.2931 43.0501 27.022C43.0501 25.5619 42.3226 24.8866 41.7124 24.5771ZM39.2728 29.3242C38.1916 29.3242 37.3119 28.2914 37.3119 27.0218C37.3119 26.3065 37.3913 25.9902 39.2728 25.9902C41.1545 25.9902 41.2337 26.3065 41.2337 27.0218C41.2337 28.2915 40.3541 29.3242 39.2728 29.3242ZM29.315 24.3629V25.816C29.315 26.3176 29.7217 26.7242 30.2232 26.7242C30.7248 26.7242 31.1314 26.3176 31.1314 25.816V24.3629C31.1314 23.8613 30.7248 23.4547 30.2232 23.4547C29.7217 23.4547 29.315 23.8613 29.315 24.3629ZM47.4141 24.3629V25.816C47.4141 26.3176 47.8207 26.7242 48.3223 26.7242C48.8238 26.7242 49.2305 26.3176 49.2305 25.816V24.3629C49.2305 23.8613 48.8238 23.4547 48.3223 23.4547C47.8207 23.4547 47.4141 23.8613 47.4141 24.3629ZM58.2707 17.9099C57.9137 17.5573 57.3387 17.561 56.9864 17.9177C56.6339 18.2745 56.6374 18.8495 56.9942 19.2021C59.3475 21.527 60.6436 24.629 60.6436 27.9367C60.6436 33.061 58.711 39.3728 55.6002 44.4088C52.4964 49.4334 48.7703 52.4229 45.2895 52.7165C46.6123 48.7343 44.3138 44.086 40.1084 42.4657C40.3826 40.1058 39.5483 37.5532 37.6388 35.6437C35.1469 33.1518 31.5605 32.4892 28.7362 33.7352C27.4806 31.0601 24.9394 29.3256 22.1345 29.3256C20.6479 29.3256 19.245 29.8012 18.0653 30.6456C17.957 29.7098 17.9021 28.8034 17.9021 27.9367C17.9021 21.1667 23.4098 15.659 30.1798 15.659C32.8728 15.659 35.439 16.5166 37.5946 18.1545C38.5827 18.9052 39.9629 18.9053 40.9512 18.1545C43.025 16.5787 45.5863 15.6591 48.366 15.6591C50.2309 15.6591 52.0217 16.0664 53.6883 16.8693C54.1405 17.0871 54.6831 16.8972 54.9007 16.4454C55.1184 15.9936 54.9287 15.4507 54.4767 15.233C52.5622 14.3104 50.5062 13.8427 48.366 13.8427C46.5622 13.8427 44.8128 14.18 43.1788 14.8288C44.0701 11.7516 46.226 9.32412 49.7261 7.44341C51.3953 6.54659 52.0207 4.46971 51.1236 2.80031C50.229 1.13503 48.1462 0.508009 46.4804 1.40289C43.337 3.09191 40.583 5.36314 38.6627 8.3544C38.0921 7.50565 37.4605 6.73065 36.7725 6.0426C33.2842 2.55437 28.4539 1.25843 25.0161 0.785314C22.5545 0.447099 20.4455 2.55461 20.7842 5.01718C21.1732 7.84484 22.144 11.756 24.542 15.0207C19.569 17.1999 16.0858 22.1688 16.0858 27.9367C16.0858 29.2897 16.2099 30.7272 16.452 32.2147C16.115 32.6551 15.8179 33.1383 15.5682 33.6596C14.2694 33.3701 12.9889 33.4063 11.8032 33.7399C11.164 31.6567 10.9141 29.2649 11.0795 26.7622C11.2052 24.8615 9.76105 23.213 7.86073 23.0873C6.52712 22.9981 5.24861 23.6987 4.60379 24.8715C4.36209 25.3109 4.52254 25.8632 4.96198 26.1049C5.40143 26.3465 5.95374 26.1862 6.19545 25.7467C6.50157 25.1901 7.10837 24.8583 7.74036 24.8997C8.64178 24.9594 9.32657 25.7412 9.26699 26.6425C9.0822 29.4374 9.37997 32.1203 10.1265 34.4589C9.0552 35.0979 8.19482 35.9948 7.60086 37.0919C6.66141 34.871 6.10123 32.3096 5.96767 29.5663C5.94321 29.0653 5.51926 28.68 5.01636 28.7034C4.51539 28.7278 4.12898 29.1537 4.15344 29.6547C4.33448 33.372 5.25031 36.8 6.80237 39.5972C6.75248 39.9982 6.73637 40.4083 6.75187 40.8233C3.19389 41.4186 0.459961 44.7867 0.459961 48.8395C0.459961 53.3113 3.78822 56.9494 7.87925 56.9494C9.90939 56.9494 11.8377 56.0363 13.226 54.4599C16.0205 57.376 20.2484 57.9012 23.2051 55.9988C26.3085 58.1093 30.4661 57.9822 33.0213 55.2904C36.5294 58.4161 41.7761 58.163 44.3564 54.5559C49.8518 54.641 54.2831 49.9974 57.1455 45.3635C60.4733 39.9764 62.46 33.4617 62.46 27.9367C62.46 24.1397 60.9722 20.5787 58.2707 17.9099ZM47.34 3.0029C48.1232 2.58222 49.1026 2.87672 49.5234 3.66008C49.9452 4.44501 49.6513 5.42163 48.8662 5.8434C44.3389 8.27605 41.7894 11.5601 41.0845 15.8723C40.6626 16.1284 40.2505 16.4056 39.8521 16.7083C39.511 16.9677 39.0344 16.9674 38.6933 16.7084C38.4024 16.4874 38.1044 16.2797 37.8007 16.0834C38.5236 10.1461 42.03 5.85611 47.34 3.0029ZM22.5835 4.76966C22.409 3.50157 23.4987 2.40967 24.7683 2.58477C30.4969 3.37284 33.7597 5.59855 35.4879 7.32692C36.2989 8.13788 37.0253 9.08871 37.6528 10.157C36.9018 11.7085 36.3819 13.3749 36.0997 15.1445C34.2606 14.2888 32.256 13.8427 30.1796 13.8427C28.8477 13.8427 27.5583 14.0286 26.336 14.3755C23.9202 11.3407 22.9605 7.51001 22.5835 4.76966ZM22.1344 31.1422C24.2885 31.1422 26.246 32.5444 27.1748 34.6905C26.9966 34.8358 26.8235 34.9899 26.6579 35.1556C24.896 36.9175 24.2349 39.5439 24.8481 42.0838C24.0424 42.2638 23.268 42.5802 22.5597 43.0387C22.4525 42.966 22.3444 42.8958 22.235 42.8286C22.6483 39.3256 20.5925 35.805 17.3013 34.2542C18.269 32.3934 20.0654 31.1422 22.1344 31.1422ZM10.0675 36.7872C10.7629 36.0919 11.4045 35.8421 11.6554 35.7133C15.5899 34.0281 20.5243 37.4142 20.4708 42.0037C17.9673 41.1687 15.2284 41.5733 13.2598 43.2586C12.0259 41.8394 10.3557 40.9481 8.56731 40.765C8.51076 39.2696 9.01802 37.8368 10.0675 36.7872ZM7.87925 55.1329C4.78979 55.1329 2.27637 52.3097 2.27637 48.8395C2.27637 45.2702 4.88158 42.5461 7.87925 42.5461C9.4651 42.5461 10.98 43.3158 12.0374 44.6298C10.4101 47.0444 10.4468 50.3301 12.0846 52.9889C11.0254 54.34 9.49101 55.1329 7.87925 55.1329ZM22.6343 54.1764C22.6334 54.1771 22.6326 54.1778 22.6317 54.1786C20.4083 55.9503 16.9442 55.6156 14.642 53.3132C12.1011 50.7723 12.0495 47.0053 14.1536 44.9012C16.3877 42.6673 20.1682 42.992 22.5656 45.3895C25.1671 47.9909 25.2563 52.0842 22.6343 54.1764ZM24.6434 54.7582C27.159 51.8907 26.9053 47.337 24.0258 44.2892C26.1443 43.2221 29.0415 43.644 31.1236 45.7261C32.27 46.8725 33.0273 48.4138 33.1111 50.0789C33.3385 54.5978 28.6574 57.087 24.6434 54.7582ZM32.4079 44.4417C30.7892 42.823 28.7149 41.9648 26.6793 41.9101C26.0914 39.8821 26.552 37.8303 27.9423 36.4399C30.127 34.2554 33.9005 34.4744 36.3543 36.9283C39.8572 40.4312 38.5184 45.9892 34.0752 46.7594C33.6584 45.9167 33.0986 45.1324 32.4079 44.4417ZM42.3377 54.1381C40.1189 56.3569 36.4546 56.0252 34.0928 53.8098C34.97 52.1757 35.1406 50.2729 34.7054 48.4835C36.942 47.9857 38.8101 46.4706 39.6702 44.2479C43.8314 46.0199 45.1782 51.2975 42.3377 54.1381Z" fill="black"/>
</svg>
