<svg width="59" height="59" viewBox="0 0 59 59" fill="none" xmlns="http://www.w3.org/2000/svg">
<path d="M29.4654 10.7749C22.7894 10.7749 15.8633 12.2024 10.1009 15.6844C-2.06171 23.0338 -0.629295 39.0815 7.67123 48.8533C10.8519 52.5977 18.6404 59.6728 24.1849 56.6575C28.059 54.5505 26.4326 51.5329 25.7606 49.2677C25.3588 47.9136 26.3757 46.5646 27.7881 46.5656C27.7995 46.5656 27.8111 46.5656 27.8226 46.5656C43.3443 46.5656 57.57 38.4625 57.57 28.6116C57.57 18.7607 44.9871 10.7749 29.4654 10.7749Z" fill="#FC2429"/>
<path d="M10.2795 47.8327C1.97901 38.0609 0.546596 22.0133 12.7092 14.664C13.8102 13.9987 14.9537 13.4091 16.1297 12.8895C14.0277 13.6133 12.0008 14.5366 10.1009 15.6846C-2.06171 23.0339 -0.629295 39.0815 7.67123 48.8534C10.8519 52.5979 18.6404 59.6729 24.1849 56.6575C24.3995 56.5407 24.5963 56.4211 24.7783 56.2991C19.4993 57.0501 13.0904 51.1417 10.2795 47.8327Z" fill="#F57275"/>
<path d="M13.7253 46.6734C16.3207 46.6734 18.4248 44.5693 18.4248 41.9739C18.4248 39.3784 16.3207 37.2744 13.7253 37.2744C11.1298 37.2744 9.02579 39.3784 9.02579 41.9739C9.02579 44.5693 11.1298 46.6734 13.7253 46.6734Z" fill="#FFCC4A"/>
<path d="M15.9931 45.5395C13.3978 45.5395 11.2939 43.4355 11.2939 40.8403C11.2939 39.4607 11.8883 38.2201 12.8352 37.3604C10.6655 37.7763 9.02579 39.6834 9.02579 41.9743C9.02579 44.5697 11.1298 46.6736 13.725 46.6736C14.9409 46.6736 16.0487 46.2119 16.883 45.4543C16.5947 45.5096 16.2975 45.5395 15.9931 45.5395Z" fill="#EAAE28"/>
<path d="M11.1657 32.8267C13.7612 32.8267 15.8652 30.7227 15.8652 28.1272C15.8652 25.5318 13.7612 23.4277 11.1657 23.4277C8.57028 23.4277 6.46625 25.5318 6.46625 28.1272C6.46625 30.7227 8.57028 32.8267 11.1657 32.8267Z" fill="#43C6B3"/>
<path d="M13.4343 31.693C10.839 31.693 8.73507 29.5891 8.73507 26.9937C8.73507 25.6141 9.32954 24.3734 10.2764 23.5137C8.1067 23.9298 6.46698 25.8368 6.46698 28.1278C6.46698 30.7231 8.57097 32.827 11.1662 32.827C12.382 32.827 13.4899 32.3653 14.3242 31.6078C14.0359 31.663 13.7387 31.693 13.4343 31.693Z" fill="#00AD94"/>
<path d="M24.3662 25.7094C26.9617 25.7094 29.0657 23.6054 29.0657 21.0099C29.0657 18.4145 26.9617 16.3104 24.3662 16.3104C21.7707 16.3104 19.6667 18.4145 19.6667 21.0099C19.6667 23.6054 21.7707 25.7094 24.3662 25.7094Z" fill="#D85C67"/>
<path d="M22.3784 21.8692C21.482 19.9552 21.9877 17.7448 23.4755 16.3955C23.1027 16.4677 22.7327 16.5861 22.3731 16.7545C20.0226 17.8553 19.0096 20.6528 20.1103 23.0032C21.211 25.3537 24.0086 26.3667 26.359 25.266C26.7954 25.0617 27.1855 24.7986 27.5247 24.491C25.4604 24.8909 23.3107 23.86 22.3784 21.8692Z" fill="#BD364B"/>
<path d="M39.0554 24.6037C41.6509 24.6037 43.7549 22.4996 43.7549 19.9042C43.7549 17.3087 41.6509 15.2047 39.0554 15.2047C36.46 15.2047 34.356 17.3087 34.356 19.9042C34.356 22.4996 36.46 24.6037 39.0554 24.6037Z" fill="#50C4DF"/>
<path d="M38.3138 22.3804C36.3203 20.7186 36.0513 17.7554 37.713 15.7617C37.8548 15.5917 38.0065 15.4353 38.1659 15.2905C37.1373 15.4881 36.1679 16.0286 35.4449 16.8958C33.7832 18.8894 34.0521 21.8526 36.0458 23.5144C37.8693 25.0345 40.5036 24.938 42.2116 23.3849C40.8759 23.6414 39.4402 23.3191 38.3138 22.3804Z" fill="#1AA5C4"/>
<path d="M48.5199 17.9466L44.6399 16.3099L40.7599 17.9466C40.7599 17.9466 40.4026 23.769 42.6311 29.6677L44.6399 32.2103L46.6488 29.6677C48.8773 23.769 48.5199 17.9466 48.5199 17.9466Z" fill="#F1F1F1"/>
<path d="M45.4662 29.6677C43.2377 23.7689 43.595 17.9466 43.595 17.9466L46.0575 16.9079L44.6399 16.3099L40.7599 17.9466C40.7599 17.9466 40.4026 23.769 42.6311 29.6677L44.6399 32.2103L46.0575 30.4162L45.4662 29.6677Z" fill="#CDD4D6"/>
<path d="M46.649 29.6677C49.7522 37.5402 48.6012 56.5209 44.6401 56.5209C40.679 56.5209 39.5281 37.5403 42.6313 29.6677H46.649Z" fill="#50C4DF"/>
<path d="M45.4664 29.6677H42.6313C39.5281 37.5402 40.679 56.5209 44.6401 56.5209C45.0519 56.5209 45.4333 56.3152 45.7828 55.9386C42.8658 52.6936 42.6858 36.7217 45.4664 29.6677Z" fill="#1AA5C4"/>
<path d="M48.8447 7.02798C47.1969 5.34687 46.3094 3.67609 45.8319 2.39167C45.3906 1.20466 44.059 0.842674 43.1689 1.67348C41.2262 3.48693 38.6042 6.88747 38.3325 12.1854C38.2153 14.4712 39.0201 16.1188 40.0718 17.2855C42.3895 19.8565 46.1263 20.0482 48.6948 17.7277C49.8603 16.6747 50.8295 15.118 50.9466 12.8323C50.9474 12.8166 50.9482 12.801 50.949 12.7853C51.055 10.6025 50.2767 8.48897 48.8447 7.02798Z" fill="#3A484A"/>
<path d="M42.3402 15.3578C41.2884 14.1911 40.4836 12.5435 40.6009 10.2576C40.8106 6.16967 42.4194 3.21242 44.036 1.24133C43.7315 1.28862 43.4312 1.42902 43.1693 1.67363C41.2265 3.48708 38.6046 6.88763 38.3329 12.1855C38.2156 14.4713 39.0205 16.1191 40.0722 17.2858C42.3898 19.8568 46.1266 20.0485 48.6951 17.728C49.0115 17.4421 49.3124 17.1177 49.5867 16.7531C47.1829 17.9879 44.27 17.4984 42.3402 15.3578Z" fill="#323E40"/>
<path d="M13.7251 36.4291C10.6648 36.4291 8.17526 38.9188 8.17526 41.9789C8.17526 45.0391 10.6649 47.5287 13.7251 47.5287C16.7852 47.5287 19.2748 45.039 19.2748 41.9789C19.2748 38.9186 16.7852 36.4291 13.7251 36.4291ZM13.7251 45.8276C11.6028 45.8276 9.87633 44.101 9.87633 41.9789C9.87633 39.8567 11.6029 38.1301 13.7251 38.1301C15.8472 38.1301 17.5738 39.8567 17.5738 41.9789C17.5738 44.1011 15.8472 45.8276 13.7251 45.8276Z" fill="black"/>
<path d="M11.1662 22.5823C8.10602 22.5823 5.61646 25.072 5.61646 28.1321C5.61646 31.1922 8.10614 33.6819 11.1662 33.6819C14.2264 33.6819 16.716 31.1922 16.716 28.1321C16.716 25.072 14.2265 22.5823 11.1662 22.5823ZM11.1662 31.9809C9.04399 31.9809 7.31752 30.2543 7.31752 28.1322C7.31752 26.0099 9.04411 24.2835 11.1662 24.2835C13.2884 24.2835 15.015 26.01 15.015 28.1322C15.015 30.2543 13.2885 31.9809 11.1662 31.9809Z" fill="black"/>
<path d="M24.3695 26.5657C26.6836 26.5657 28.798 25.0766 29.5846 22.9045C30.8754 19.3398 28.1392 15.4639 24.3633 15.4639C20.3859 15.4639 17.6538 19.767 19.3404 23.3684C20.2499 25.3107 22.224 26.5657 24.3695 26.5657ZM20.7477 19.7043C21.2909 18.2044 22.7675 17.1649 24.3633 17.1649C26.9832 17.1649 28.8787 19.8581 27.9853 22.3252C27.4404 23.8298 25.9706 24.8646 24.3696 24.8646C22.8812 24.8646 21.5119 23.9942 20.881 22.647C20.445 21.716 20.3976 20.6709 20.7477 19.7043Z" fill="black"/>
<path d="M42.589 1.0561C40.6157 2.89824 38.2498 6.01153 37.6199 10.6776C34.9806 10.1811 32.2425 9.92887 29.4659 9.92887C22.5242 9.92887 16.0886 11.4326 10.8548 14.2776C10.4422 14.5019 10.2895 15.0183 10.5138 15.431C10.7381 15.8437 11.2545 15.9965 11.6673 15.772C16.6524 13.0622 22.8071 11.6299 29.4659 11.6299C32.1965 11.6299 34.8869 11.8824 37.4745 12.3807C37.4561 13.0616 37.5132 13.7436 37.6579 14.4094C37.6669 14.4511 37.6749 14.4932 37.6846 14.5346C36.5617 14.8222 35.5421 15.456 34.7923 16.3556C33.8432 17.4943 33.3942 18.9344 33.5281 20.4107C33.7839 23.228 36.2217 25.4585 39.0515 25.4585C39.5442 25.4585 40.0361 25.3899 40.511 25.261C40.7838 26.655 41.1721 28.1531 41.7232 29.6682C41.7215 29.6728 41.7198 29.6774 41.7181 29.682C41.5843 30.0506 41.4629 30.4233 41.3529 30.7996C40.371 34.1535 39.8791 38.9916 40.0335 43.9868C36.159 45.1215 31.9525 45.7194 27.8231 45.7194C27.8231 45.7194 27.7892 45.7194 27.7868 45.7194C25.8398 45.7194 24.3907 47.6432 24.9457 49.514C25.0299 49.7976 25.1244 50.0808 25.2244 50.3805C25.944 52.5369 26.5654 54.3992 23.779 55.9146C22.989 56.3442 22.1331 56.5338 21.2397 56.5338C16.6278 56.5337 11.0162 51.4811 8.32013 48.3071C6.12587 45.7239 4.39792 42.6426 3.32319 39.396C2.23553 36.1106 1.83997 32.7168 2.17939 29.5815C2.71443 24.6385 5.01813 20.4861 8.84157 17.5737C9.21523 17.289 9.28736 16.7554 9.00271 16.3817C8.71807 16.008 8.18439 15.9359 7.81072 16.2205C3.60659 19.4229 1.07438 23.9797 0.487849 29.3985C-0.252569 36.2386 2.19062 43.719 7.02335 49.4084C7.84304 50.3733 10.8117 53.702 14.5979 56.0201C17.0005 57.4911 19.2454 58.2327 21.2438 58.2326C22.4574 58.2326 23.5803 57.959 24.5915 57.4091C28.63 55.2128 27.5515 51.9807 26.8378 49.8421C26.7425 49.5565 26.6524 49.2865 26.5763 49.0303C26.3379 48.2274 26.9637 47.4255 27.7884 47.4206H27.823C31.9734 47.4206 36.2001 46.8369 40.1191 45.7304C40.391 50.1684 41.1862 54.1248 42.4683 56.0082C43.2377 57.1386 44.0743 57.3759 44.6404 57.3759C45.2065 57.3759 46.0431 57.1387 46.8126 56.0082C48.4626 53.5842 49.3066 47.7269 49.2655 41.8275C52.0083 40.1581 54.1927 38.2403 55.7603 36.1209C57.5257 33.7341 58.4209 31.209 58.4209 28.6161C58.4209 23.947 55.7889 19.5254 50.992 16.0949C51.4653 15.1354 51.7361 14.0625 51.7967 12.8818L51.7993 12.831C51.9169 10.4089 51.0616 8.07833 49.4527 6.43703C48.1587 5.11689 47.2089 3.6576 46.6298 2.09976C46.2406 1.05292 45.314 0.376465 44.2692 0.376465C43.6553 0.376351 43.0587 0.61779 42.589 1.0561ZM46.0538 28.8216H43.2269C41.9261 25.1102 41.6447 21.4716 41.599 19.5042C42.1189 19.7609 42.6665 19.9497 43.2348 20.0656C43.7853 20.178 44.3515 20.2229 44.9128 20.1956C45.8653 20.1493 46.8292 19.8936 47.6826 19.4581C47.6401 21.4152 47.3644 25.0823 46.0538 28.8216ZM39.0514 23.7574C37.0861 23.7574 35.3994 22.2106 35.2221 20.2571C35.0482 18.3414 36.3811 16.5303 38.2654 16.1422C38.2945 16.2005 38.3246 16.2582 38.3537 16.3165C38.506 16.6023 38.6779 16.8757 38.8652 17.1397C39.1659 17.5639 39.5136 17.9661 39.8946 18.3206C39.8727 19.1485 39.8735 21.104 40.226 23.5747C39.8475 23.6949 39.4498 23.7574 39.0514 23.7574ZM47.5559 43.6235C47.4247 48.8398 46.581 53.3253 45.4063 55.051C45.2478 55.284 44.9373 55.6749 44.6404 55.6749C44.3435 55.6749 44.033 55.284 43.8745 55.051C42.7674 53.4247 41.9545 49.3467 41.7548 44.5163C41.6921 43.0162 41.6919 41.5136 41.7464 40.0132C41.8897 36.2689 42.408 32.8783 43.224 30.5227H46.0569C46.9579 33.1254 47.5049 37.0245 47.5681 41.3568C47.5681 41.3614 47.5691 41.366 47.5692 41.3707C47.5789 42.1113 47.5751 42.8635 47.5559 43.6235ZM56.7197 28.6161C56.7197 30.8369 55.9367 33.0217 54.3925 35.1093C53.119 36.8312 51.3856 38.4182 49.2285 39.8392C49.0667 35.7574 48.4899 32.2189 47.574 29.7132C47.5685 29.6982 47.5631 29.6833 47.5576 29.6684C49.4238 24.5381 49.4249 19.6015 49.3842 18.252C49.5529 18.0932 49.7154 17.9272 49.8697 17.7545C49.8907 17.731 50.0668 17.523 50.0691 17.5246C54.3651 20.6196 56.7197 24.534 56.7197 28.6161ZM45.0351 2.69241C45.6979 4.47547 46.7755 6.13594 48.2377 7.62778C49.5159 8.93181 50.1946 10.7983 50.1 12.7487L50.0978 12.7932C49.9413 15.8662 47.4547 18.7516 44.1849 18.4846C40.8321 18.2108 38.9638 14.8808 39.2133 11.7661C39.5864 7.10816 41.8678 4.05655 43.7498 2.29969C43.9056 2.15431 44.0852 2.07753 44.2691 2.07753C44.6005 2.07742 44.8941 2.31307 45.0351 2.69241Z" fill="black"/>
</svg>
