<svg width="51" height="62" viewBox="0 0 51 62" fill="none" xmlns="http://www.w3.org/2000/svg">
<path d="M44.9132 25.5269C47.4786 25.5269 49.5584 23.4472 49.5584 20.8817C49.5584 18.3162 47.4786 16.2365 44.9132 16.2365C42.3477 16.2365 40.2679 18.3162 40.2679 20.8817C40.2679 23.4472 42.3477 25.5269 44.9132 25.5269Z" fill="#FFBD86"/>
<path d="M9.05011 16.248L9.04892 16.2467C10.6331 7.87263 17.9886 1.53943 26.8232 1.53943C35.6578 1.53943 43.0133 7.87263 44.5976 16.2468L44.5964 16.2481H9.05011V16.248Z" fill="#FF9E8E"/>
<path d="M13.0724 31.3866C11.779 29.8756 9.45224 29.8502 8.13613 31.3414C7.06238 32.558 7.03897 34.3829 8.09336 35.6165C10.5116 38.4459 13.5587 40.7218 17.0155 42.2278L19.3144 39.4548L17.0155 34.8334L13.0724 31.3866Z" fill="#FED2A4"/>
<path d="M40.5733 31.3866C41.8667 29.8756 44.1935 29.8502 45.5096 31.3414C46.5834 32.558 46.6068 34.3829 45.5524 35.6165C43.1341 38.4459 40.0871 40.7218 36.6302 42.2278L34.3314 39.4548L36.6302 34.8334L40.5733 31.3866Z" fill="#FFBD86"/>
<path d="M31.6826 44.104L26.8229 46.1719L22.5611 44.104L17.64 46.1719C18.1993 47.6608 19.1121 48.977 20.2737 50.0207V53.1399L23.5483 56.8625L26.8229 53.1399L30.0974 56.8625L33.372 53.1399V50.0207C33.5042 49.9016 33.6327 49.7814 33.7577 49.6565C34.7359 48.6771 35.5094 47.4918 36.0058 46.1719L31.6826 44.104Z" fill="#5C586F"/>
<path d="M20.6473 44.9082L17.64 46.1719C18.1993 47.6607 19.1121 48.9769 20.2737 50.0207V53.14L23.5483 56.8626L23.6628 56.7324C21.8707 53.3731 20.7732 49.3072 20.6473 44.9082Z" fill="#4F4C5F"/>
<path d="M36.6302 29.1536V42.7206C36.6302 43.9358 36.4089 45.0985 36.0054 46.1719H17.6399C17.2364 45.0984 17.0151 43.9358 17.0151 42.7206V29.1536H36.6302Z" fill="#FF9DD3"/>
<path d="M26.823 42.3257C29.3666 42.3257 31.4286 40.2638 31.4286 37.7202C31.4286 35.1766 29.3666 33.1146 26.823 33.1146C24.2794 33.1146 22.2175 35.1766 22.2175 37.7202C22.2175 40.2638 24.2794 42.3257 26.823 42.3257Z" fill="#FFBD86"/>
<path d="M15.7307 5.3406C15.2323 3.2784 13.4283 1.70128 11.2575 1.55159C8.85221 1.38574 6.78075 2.9347 6.1436 5.09812C5.73195 6.49573 4.78627 7.68853 3.45685 8.28445C3.17077 8.41276 2.89681 8.50994 2.63734 8.58241C1.50027 8.89973 1.13316 10.3417 1.97216 11.1722C3.78047 12.9622 6.74784 14.5445 10.536 11.7509C9.85409 13.1578 9.34727 14.6653 9.04812 16.2468L9.04931 16.2481H12.8222C13.8839 10.3888 17.5135 5.31874 22.6245 2.03025C20.0748 2.63615 17.7351 3.78284 15.7307 5.3406Z" fill="#FB8978"/>
<path d="M20.6337 44.0585C20.6337 37.2234 20.7701 32.4526 21.7276 29.1536H17.0151V42.7206C17.0151 43.9358 17.2364 45.0985 17.6399 46.1719H20.7101C20.6601 45.4763 20.6337 44.7715 20.6337 44.0585Z" fill="#FF88CA"/>
<path d="M44.9136 19.6305C44.9136 22.7378 44.1306 25.6619 42.7513 28.2159C39.694 33.8747 33.7078 37.7199 26.8231 37.7199C19.9384 37.7199 13.9522 33.8747 10.8949 28.2159C9.51561 25.6619 8.73257 22.7379 8.73257 19.6305C8.73257 18.4737 8.84092 17.3432 9.04919 16.2471L9.05038 16.2483C9.05038 16.2483 15.8625 5.06025 26.8232 13.8943C37.784 5.06025 44.5961 16.2483 44.5961 16.2483L44.5972 16.2471C44.8053 17.3432 44.9136 18.4737 44.9136 19.6305Z" fill="#FED2A4"/>
<path d="M17.0149 26.8618C19.0135 26.8618 20.6337 25.5715 20.6337 23.9798C20.6337 22.3882 19.0135 21.0979 17.0149 21.0979C15.0162 21.0979 13.396 22.3882 13.396 23.9798C13.396 25.5715 15.0162 26.8618 17.0149 26.8618Z" fill="#FF889E"/>
<path d="M36.6305 26.8618C38.6292 26.8618 40.2494 25.5715 40.2494 23.9798C40.2494 22.3882 38.6292 21.0979 36.6305 21.0979C34.6319 21.0979 33.0116 22.3882 33.0116 23.9798C33.0116 25.5715 34.6319 26.8618 36.6305 26.8618Z" fill="#FF889E"/>
<path d="M33.3715 53.1399V57.31C33.3715 58.2145 33.005 59.0333 32.4123 59.626C31.8196 60.2187 31.0021 60.5852 30.0975 60.5852C28.2886 60.5852 26.8224 59.1191 26.8224 57.31V53.1399H33.3715Z" fill="#FFBD86"/>
<path d="M26.8225 53.1399V57.31C26.8225 58.2145 26.456 59.0333 25.8632 59.626C25.2705 60.2187 24.4519 60.5852 23.5473 60.5852C21.7396 60.5852 20.2733 59.1191 20.2733 57.31V53.1399H23.4961H26.8225Z" fill="#FED2A4"/>
<path d="M12.5009 19.8182C12.5009 16.8755 13.1435 14.07 14.3054 11.5096C10.9307 13.1599 9.05008 16.2481 9.05008 16.2481L9.04889 16.247C9.04877 16.2475 9.04865 16.2481 9.04854 16.2487C8.94541 16.2414 8.84075 16.2364 8.73252 16.2364C6.16694 16.2364 4.08728 18.3162 4.08728 20.8816C4.08728 23.4472 6.16706 25.527 8.73252 25.527C9.07384 25.527 9.38903 25.4891 9.68022 25.4192C10.0081 26.3907 10.4143 27.3261 10.8947 28.2157C13.1626 32.4134 17.0429 35.6112 21.7052 36.9837C16.1032 33.0008 12.5009 26.7929 12.5009 19.8182Z" fill="#FFBD86"/>
<path d="M22.1083 53.1399H20.2732V57.31C20.2732 59.1189 21.7394 60.5851 23.5471 60.5851C24.3502 60.5851 25.0854 60.2956 25.6552 59.8158C24.18 57.9206 22.9704 55.6588 22.1083 53.1399Z" fill="#FFBD86"/>
<path d="M17.4023 21.7351C17.8943 21.7351 18.2933 21.3361 18.2933 20.844C18.2933 20.3856 18.6663 20.0125 19.1248 20.0125C19.5833 20.0125 19.9563 20.3856 19.9563 20.844C19.9563 21.3361 20.3553 21.7351 20.8473 21.7351C21.3394 21.7351 21.7384 21.3361 21.7384 20.844C21.7384 19.4029 20.5659 18.2306 19.1248 18.2306C17.6837 18.2306 16.5114 19.4029 16.5114 20.844C16.5112 21.3361 16.9101 21.7351 17.4023 21.7351Z" fill="black"/>
<path d="M32.7998 21.7351C33.2918 21.7351 33.6908 21.3361 33.6908 20.844C33.6908 20.3856 34.0638 20.0125 34.5223 20.0125C34.9808 20.0125 35.3538 20.3856 35.3538 20.844C35.3538 21.3361 35.7527 21.7351 36.2448 21.7351C36.7369 21.7351 37.1359 21.3361 37.1359 20.844C37.1359 19.4029 35.9634 18.2306 34.5223 18.2306C33.0812 18.2306 31.9088 19.4029 31.9088 20.844C31.9087 21.3361 32.3077 21.7351 32.7998 21.7351Z" fill="black"/>
<path d="M29.3224 23.4427C29.6456 23.0717 29.607 22.5089 29.236 22.1855C28.865 21.8621 28.3022 21.9009 27.9788 22.2719C27.3678 22.9729 26.2808 22.975 25.668 22.2719C25.3446 21.9009 24.7818 21.8622 24.4109 22.1855C24.0399 22.5088 24.0013 23.0717 24.3245 23.4427C25.6443 24.9572 27.9987 24.9616 29.3224 23.4427Z" fill="black"/>
<path d="M8.7766 13.7312C8.60303 14.264 8.45215 14.8081 8.32491 15.3622C5.46221 15.572 3.19674 17.9665 3.19674 20.8819C3.19674 24.057 5.88266 26.6119 9.09001 26.4053C9.50844 27.5039 9.96987 28.4324 10.517 29.3493C9.34686 29.3685 8.24317 29.8741 7.46845 30.752C6.10589 32.2958 6.08344 34.636 7.41642 36.1956C8.24745 37.1679 9.16711 38.0916 10.1499 38.941C10.5222 39.2627 11.0848 39.222 11.4066 38.8497C11.7284 38.4773 11.6875 37.9147 11.3152 37.5928C10.4001 36.8017 9.54408 35.942 8.77114 35.0377C8.01162 34.1489 8.026 32.8135 8.80464 31.9312C9.74498 30.8657 11.4552 30.8842 12.3838 31.9526C13.4837 33.2414 14.7432 34.3686 16.1251 35.3111V40.8232C15.3783 40.444 14.6472 40.023 13.9403 39.5645C13.5273 39.2968 12.9756 39.4144 12.7078 39.8273C12.4402 40.2401 12.5578 40.792 12.9706 41.0598C13.9831 41.7163 15.0424 42.3014 16.1268 42.8043C16.1364 44.0697 16.364 45.3078 16.8067 46.4857C17.3597 47.9575 18.2466 49.3057 19.3833 50.4077V57.31C19.3833 59.6072 21.2517 61.4761 23.5483 61.4761C24.8148 61.4761 26.0132 60.9125 26.825 59.8821C27.5884 60.8517 28.7716 61.4761 30.0986 61.4761C32.3998 61.4761 34.2636 59.6129 34.2636 57.31C34.2636 55.0036 34.2636 52.7106 34.2636 50.4088C35.333 49.3812 36.265 48.015 36.8404 46.4854C37.2831 45.3075 37.5108 44.069 37.5203 42.8032C40.8412 41.2629 43.8435 38.9883 46.2305 36.1955C47.5634 34.636 47.5409 32.2957 46.1784 30.752C45.4036 29.8743 44.2958 29.367 43.13 29.3491C43.6762 28.4339 44.1378 27.5055 44.5569 26.4053C47.7634 26.6119 50.4502 24.0577 50.4502 20.8819C50.4502 17.9665 48.1845 15.5719 45.3217 15.3622C44.2897 10.8623 41.6676 6.9193 37.8786 4.19988C37.4788 3.91297 36.9221 4.00445 36.6352 4.40422C36.3483 4.804 36.4398 5.36071 36.8395 5.64762C39.336 7.43931 41.2739 9.81586 42.5053 12.5461C38.0625 8.7471 32.5843 8.40827 26.8236 12.7637C21.5707 8.79118 16.0029 8.39176 11.1467 12.5383C13.8719 6.5099 19.9556 2.43065 26.8236 2.43065C29.2494 2.43065 31.5943 2.92559 33.7936 3.90168C34.2434 4.10127 34.77 3.89859 34.9694 3.4488C35.1691 2.99901 34.9664 2.47247 34.5166 2.27288C32.0882 1.19509 29.4999 0.648591 26.8236 0.648591C22.9042 0.648591 19.2204 1.84958 16.1592 3.92877C15.2494 2.0936 13.403 0.806481 11.3201 0.662847C8.55052 0.472048 6.07167 2.19245 5.28994 4.84677C4.88435 6.22335 3.92691 7.29757 2.39885 7.72456C0.604671 8.2252 0.019205 10.4921 1.34636 11.8057C3.44836 13.8866 6.00229 14.7554 8.7766 13.7312ZM26.2643 14.5882C26.5907 14.8513 27.0563 14.8513 27.3826 14.5882C31.0196 11.657 35.1235 10.2721 39.2459 12.4658C41.7786 13.8153 43.3726 16.0212 43.7526 16.586C46.3418 31.0409 30.6318 42.2916 17.4953 34.0813C17.0191 33.722 15.7528 33.0649 13.7047 30.7561C10.2725 26.7096 9.01326 21.473 9.89431 16.5853C13.676 10.9485 19.9733 9.51933 26.2643 14.5882ZM17.9069 42.228V36.3891C18.953 36.9467 20.1131 37.4324 21.3288 37.7997C21.3716 40.7939 23.8192 43.217 26.8234 43.217C29.8277 43.217 32.2753 40.794 32.318 37.7997C33.4575 37.4555 34.6085 36.9918 35.7399 36.3891V42.7208C35.7399 43.5949 35.6145 44.4536 35.3667 45.281H18.28C17.8097 43.7108 17.9227 42.5095 17.9069 42.228ZM30.4999 38.253C30.2408 40.0498 28.6908 41.435 26.8234 41.435C24.9559 41.435 23.406 40.0498 23.147 38.253C25.5623 38.7281 28.1011 38.7263 30.4999 38.253ZM8.50882 24.6295C6.54273 24.5131 4.9788 22.8767 4.9788 20.8819C4.9788 19.0638 6.2778 17.5435 7.99642 17.2002C7.69216 19.5508 7.83271 22.147 8.50882 24.6295ZM23.5482 59.6942C22.2342 59.6942 21.1652 58.6247 21.1652 57.3101V54.0311H25.9323V57.3101C25.9324 58.6279 24.8662 59.6942 23.5482 59.6942ZM32.4813 57.3101C32.4813 58.6292 31.4136 59.6942 30.0984 59.6942C28.7838 59.6942 27.7143 58.6247 27.7143 57.3101V54.0311H32.4813V57.3101ZM33.128 49.0266C32.804 49.3506 32.4814 49.5293 32.4814 50.0208V52.249H27.7144V49.2698C27.7144 48.7777 27.3156 48.3788 26.8234 48.3788C26.3313 48.3788 25.9324 48.7777 25.9324 49.2698V52.249H21.1654V50.0208C21.1654 49.768 21.058 49.527 20.8699 49.358C20.1352 48.6978 19.5139 47.9186 19.0349 47.063H34.6115C34.2099 47.78 33.7085 48.4455 33.128 49.0266ZM44.8422 31.9312C45.6208 32.8135 45.6353 34.1489 44.8757 35.0377C42.8356 37.4246 40.3132 39.4059 37.5219 40.8233V35.3111C38.904 34.3684 40.1637 33.241 41.2636 31.952C42.2072 30.8672 43.8879 30.8502 44.8422 31.9312ZM48.6679 20.882C48.6679 22.8768 47.104 24.5132 45.1379 24.6297C45.844 22.0403 45.7787 19.9978 45.805 19.6307C45.805 18.8085 45.7454 17.9435 45.6504 17.2004C47.3689 17.5436 48.6679 19.0639 48.6679 20.882ZM2.87799 9.44092C5.02133 8.84238 6.4288 7.28724 6.9993 5.35026C7.54306 3.50404 9.26928 2.30805 11.1971 2.44087C12.7595 2.54862 14.1316 3.58341 14.6993 5.02474C12.6853 6.69488 11.0163 8.77942 9.82814 11.1635C7.2672 12.9624 4.83635 12.7529 2.59998 10.5393C2.24452 10.1875 2.40206 9.57374 2.87799 9.44092Z" fill="black"/>
</svg>
