<svg width="58" height="58" viewBox="0 0 58 58" fill="none" xmlns="http://www.w3.org/2000/svg">
<path d="M28.9029 28.0089C36.3629 28.0089 42.4105 21.9613 42.4105 14.5013C42.4105 7.04131 36.3629 0.993774 28.9029 0.993774C21.4429 0.993774 15.3954 7.04131 15.3954 14.5013C15.3954 21.9613 21.4429 28.0089 28.9029 28.0089Z" fill="#F9D888"/>
<path d="M28.9029 23.9284C34.1094 23.9284 38.33 19.7078 38.33 14.5013C38.33 9.29488 34.1094 5.07422 28.9029 5.07422C23.6965 5.07422 19.4758 9.29488 19.4758 14.5013C19.4758 19.7078 23.6965 23.9284 28.9029 23.9284Z" fill="#FCCB88"/>
<path d="M28.9029 19.848C31.8558 19.848 34.2496 17.4542 34.2496 14.5013C34.2496 11.5484 31.8558 9.15466 28.9029 9.15466C25.95 9.15466 23.5562 11.5484 23.5562 14.5013C23.5562 17.4542 25.95 19.848 28.9029 19.848Z" fill="#F9D888"/>
<path d="M23.6307 4.47308C23.6307 3.62898 23.6928 2.79936 23.8105 1.98779C18.8751 3.99849 15.3958 8.84314 15.3958 14.5011C15.3958 21.9611 21.4434 28.0087 28.9034 28.0087C33.7434 28.0087 37.9881 25.4625 40.3731 21.6371C31.0879 21.4104 23.6307 13.8127 23.6307 4.47308Z" fill="#FCCB88"/>
<path d="M23.7621 6.60535C21.1842 8.28954 19.4758 11.1988 19.4758 14.5013C19.4758 19.6994 23.7048 23.9284 28.9029 23.9284C31.63 23.9284 34.0892 22.7631 35.8121 20.9057C29.4194 18.9679 24.604 13.403 23.7621 6.60535Z" fill="#FBC072"/>
<path d="M24.9002 10.962C24.0649 11.9056 23.5562 13.1449 23.5562 14.5013C23.5562 17.4494 25.9547 19.8479 28.9029 19.8479C29.9349 19.8479 30.899 19.5532 31.717 19.0447C28.6754 17.1448 26.2719 14.3193 24.9002 10.962Z" fill="#FCCB88"/>
<path d="M40.0266 39.068C47.4866 39.068 53.5341 33.0204 53.5341 25.5604C53.5341 18.1004 47.4866 12.0529 40.0266 12.0529C32.5666 12.0529 26.519 18.1004 26.519 25.5604C26.519 33.0204 32.5666 39.068 40.0266 39.068Z" fill="#FCCB88"/>
<path d="M40.0266 34.9875C45.233 34.9875 49.4537 30.7669 49.4537 25.5604C49.4537 20.354 45.233 16.1333 40.0266 16.1333C34.8201 16.1333 30.5995 20.354 30.5995 25.5604C30.5995 30.7669 34.8201 34.9875 40.0266 34.9875Z" fill="#F9D888"/>
<path d="M34.7539 15.5323C34.7539 14.6882 34.816 13.8586 34.9336 13.047C29.9983 15.0577 26.519 19.9023 26.519 25.5603C26.519 33.0203 32.5666 39.0679 40.0266 39.0679C44.8665 39.0679 49.1112 36.5217 51.4962 32.6963C42.2111 32.4695 34.7539 24.8719 34.7539 15.5323Z" fill="#FBC072"/>
<path d="M34.8857 17.6644C32.3078 19.3486 30.5995 22.2579 30.5995 25.5603C30.5995 30.7585 34.8284 34.9874 40.0266 34.9874C42.7537 34.9874 45.2129 33.8222 46.9357 31.9648C40.5431 30.027 35.7277 24.4621 34.8857 17.6644Z" fill="#FCCB88"/>
<path d="M17.7797 39.068C25.2398 39.068 31.2873 33.0204 31.2873 25.5604C31.2873 18.1004 25.2398 12.0529 17.7797 12.0529C10.3197 12.0529 4.27219 18.1004 4.27219 25.5604C4.27219 33.0204 10.3197 39.068 17.7797 39.068Z" fill="#F9D888"/>
<path d="M12.5071 15.5323C12.5071 14.6882 12.5691 13.8586 12.6868 13.047C7.75145 15.0577 4.27219 19.9023 4.27219 25.5603C4.27219 33.0203 10.3198 39.0679 17.7797 39.0679C22.6197 39.0679 26.8644 36.5217 29.2494 32.6963C19.9643 32.4695 12.5071 24.8719 12.5071 15.5323Z" fill="#FCCB88"/>
<path d="M17.7797 34.9875C22.9862 34.9875 27.2068 30.7669 27.2068 25.5604C27.2068 20.354 22.9862 16.1333 17.7797 16.1333C12.5733 16.1333 8.35263 20.354 8.35263 25.5604C8.35263 30.7669 12.5733 34.9875 17.7797 34.9875Z" fill="#FCCB88"/>
<path d="M12.6389 17.6644C10.0609 19.3486 8.35263 22.2579 8.35263 25.5603C8.35263 30.7585 12.5816 34.9874 17.7797 34.9874C20.5068 34.9874 22.966 33.8222 24.6889 31.9648C18.2962 30.027 13.4809 24.4621 12.6389 17.6644Z" fill="#FBC072"/>
<path d="M17.7797 30.9071C20.7326 30.9071 23.1264 28.5133 23.1264 25.5604C23.1264 22.6075 20.7326 20.2137 17.7797 20.2137C14.8269 20.2137 12.4331 22.6075 12.4331 25.5604C12.4331 28.5133 14.8269 30.9071 17.7797 30.9071Z" fill="#F9D888"/>
<path d="M40.0261 30.9071C42.979 30.9071 45.3727 28.5133 45.3727 25.5604C45.3727 22.6075 42.979 20.2137 40.0261 20.2137C37.0732 20.2137 34.6794 22.6075 34.6794 25.5604C34.6794 28.5133 37.0732 30.9071 40.0261 30.9071Z" fill="#FCCB88"/>
<path d="M16.6572 49.2389V52.2608C16.6572 54.5335 18.4995 56.3758 20.7722 56.3758H37.0332C39.3058 56.3758 41.1482 54.5335 41.1482 52.2608V49.2389L28.9027 40.5844L16.6572 49.2389Z" fill="#FFEFE0"/>
<path d="M13.7766 22.021C12.9413 22.9646 12.4326 24.2039 12.4326 25.5602C12.4326 28.5084 14.8311 30.9069 17.7792 30.9069C18.8112 30.9069 19.7753 30.6121 20.5934 30.1037C17.5517 28.2037 15.1482 25.3782 13.7766 22.021Z" fill="#FCCB88"/>
<path d="M36.0234 22.0211C35.1881 22.9647 34.6794 24.204 34.6794 25.5603C34.6794 28.5085 37.0779 30.907 40.0261 30.907C41.0581 30.907 42.0222 30.6123 42.8402 30.1038C39.7984 28.2037 37.3949 25.3784 36.0234 22.0211Z" fill="#FBC072"/>
<path d="M53.0879 24.298H4.71821C2.63475 24.298 1.0075 26.1296 1.28909 28.194C1.46315 29.4702 1.72156 30.7177 2.05831 31.9299L28.903 40.5844L55.7479 31.9299C56.0845 30.7177 56.3429 29.4702 56.5171 28.194C56.7987 26.1296 55.1714 24.298 53.0879 24.298Z" fill="#FFEFE0"/>
<path d="M14.3962 32.6352C14.3962 29.5804 14.532 26.7833 15.0434 24.298H4.71821C2.63464 24.298 1.0075 26.1296 1.28909 28.1939C1.46315 29.4701 1.72156 30.7175 2.05831 31.9298L14.6003 35.9732C14.4664 34.8538 14.3962 33.7374 14.3962 32.6352Z" fill="#FBE5C8"/>
<path d="M18.5363 47.9109L16.6572 49.2389V52.2609C16.6572 54.5336 18.4995 56.3759 20.7722 56.3759H25.9559C22.9759 54.2652 20.4556 51.3011 18.5363 47.9109Z" fill="#FBE5C8"/>
<path d="M53.7076 37.1624C54.5516 35.5134 55.2396 33.7618 55.7479 31.9298H2.05826C2.56673 33.7617 3.2546 35.5133 4.09859 37.1624L8.64372 40.4351L10.4327 45.2603C12.3046 46.8803 14.3986 48.2261 16.6574 49.2384H41.1486C43.4074 48.2261 45.5014 46.8803 47.3734 45.2603L49.1624 40.4351L53.7076 37.1624Z" fill="#FC2429"/>
<path d="M32.8467 38.3098L32.8469 38.3049C32.9622 36.2188 30.6568 34.8874 28.9075 36.03L28.9031 36.0329L28.8985 36.0299C27.1493 34.8873 24.8438 36.2187 24.9591 38.3048L24.9593 38.3097C23.0947 39.253 23.0947 41.9158 24.9593 42.859L24.9591 42.8639C24.8438 44.9501 27.1492 46.2815 28.8985 45.1388L28.9031 45.1358L28.9076 45.1388C30.6568 46.2815 32.9623 44.9501 32.847 42.8639L32.8468 42.859C34.7113 41.9159 34.7113 39.2531 32.8467 38.3098Z" fill="#F9D888"/>
<path d="M14.3962 32.6352C14.3962 32.3984 14.3971 32.1635 14.3989 31.9298H2.05826C2.56673 33.7617 3.2546 35.5133 4.09859 37.1622L8.64372 40.435L10.4327 45.2602C12.3047 46.8802 14.3986 48.226 16.6575 49.2383H19.3338C16.2043 44.311 14.3962 38.2884 14.3962 32.6352Z" fill="#F57275"/>
<path d="M11.7897 42.8587L11.7908 42.8642C11.8498 43.9458 11.2589 44.8243 10.4328 45.2603C7.85498 43.0304 5.6953 40.2809 4.09869 37.1623C4.68405 35.7865 6.44123 35.1153 7.84161 36.0295L7.84607 36.0329L7.85053 36.0295C9.59991 34.8878 11.9057 36.2191 11.7908 38.3052L11.7897 38.3096C12.7229 38.7812 13.1889 39.6833 13.1889 40.5842C13.1889 41.485 12.7229 42.3871 11.7897 42.8587Z" fill="#FCCB88"/>
<path d="M53.7077 37.1623C52.1111 40.2809 49.9514 43.0304 47.3737 45.2603C46.5475 44.8243 45.9566 43.9457 46.0156 42.8642L46.0168 42.8587C45.0835 42.3871 44.6175 41.485 44.6175 40.5842C44.6175 39.6833 45.0835 38.7813 46.0168 38.3096L46.0156 38.3052C45.9008 36.2191 48.2065 34.8879 49.9559 36.0295L49.9604 36.0329L49.9648 36.0295C51.3652 35.1153 53.1224 35.7865 53.7077 37.1623Z" fill="#F9D888"/>
<path d="M33.6717 37.8347C33.4517 35.5332 31.015 34.1193 28.904 35.0812C26.8005 34.1209 24.3579 35.525 24.1358 37.8345C23.2552 38.4639 22.7256 39.4772 22.7256 40.5845C22.7256 41.6916 23.255 42.7048 24.1353 43.3343C24.2385 44.4138 24.8517 45.3815 25.812 45.9361C26.7718 46.4904 27.9154 46.5382 28.903 46.0879C29.8961 46.5413 31.0405 46.4871 31.9947 45.9361C32.9542 45.3821 33.5671 44.4159 33.671 43.3346C34.5517 42.7051 35.0812 41.6917 35.0812 40.5845C35.0813 39.4773 34.552 38.4642 33.6717 37.8347ZM32.4698 42.1133C32.1737 42.2631 31.9945 42.5787 32.0128 42.91C32.0492 43.5686 31.73 44.1586 31.1589 44.4885C30.5878 44.8182 29.9172 44.7998 29.359 44.4352C29.0813 44.2547 28.7188 44.2581 28.4418 44.4391C27.8897 44.7997 27.2192 44.8182 26.648 44.4884C26.0769 44.1585 25.7576 43.5685 25.7943 42.9051C25.8126 42.5738 25.6332 42.2631 25.3371 42.1133C24.7485 41.8155 24.397 41.244 24.397 40.5843C24.397 39.9246 24.7484 39.3532 25.3371 39.0555C25.6332 38.9057 25.8123 38.59 25.7941 38.2586C25.7173 36.8715 27.2481 35.9498 28.4472 36.733C28.7249 36.9139 29.0877 36.9107 29.3651 36.7295C30.5419 35.9609 32.0908 36.8529 32.0129 38.2586L32.0127 38.2635C31.9944 38.5949 32.1738 38.9056 32.4699 39.0555C33.0585 39.3532 33.4099 39.9247 33.4099 40.5843C33.4099 41.2439 33.0585 41.8155 32.4698 42.1133Z" fill="black"/>
<path d="M3.35481 37.5428C3.35481 37.5429 3.35481 37.5429 3.35481 37.5428C3.35481 37.5429 3.35492 37.5429 3.35481 37.5428C5.0009 40.7578 7.19824 43.5668 9.88589 45.8919C12.5735 48.2169 9.886 45.8919 9.886 45.892H9.88611C11.6982 47.4602 13.693 48.7636 15.822 49.7724V52.2605C15.822 54.9904 18.0429 57.2112 20.7728 57.2112H37.0337C39.7636 57.2112 41.9844 54.9904 41.9844 52.2605V49.7724C44.1134 48.7635 46.1082 47.4602 47.9203 45.892H47.9204C47.9204 45.892 47.9205 45.892 47.9205 45.8919C50.6081 43.5668 52.8056 40.7578 54.4516 37.5429C55.927 34.6602 56.9041 31.542 57.3452 28.3067C57.6341 26.1892 56.2972 24.1895 54.2379 23.6187C53.7898 20.3109 52.2015 17.2668 49.7225 14.991C47.7965 13.2229 45.4521 12.0327 42.9332 11.5134C42.2801 8.43851 40.6168 5.64066 38.2063 3.58427C35.6163 1.37456 32.3124 0.157715 28.9032 0.157715C27.1882 0.157715 25.5094 0.458026 23.9137 1.05029C23.481 1.21087 23.2604 1.69192 23.4211 2.12462C23.5817 2.55742 24.0627 2.77795 24.4954 2.61737C25.9042 2.09431 27.3873 1.82921 28.9032 1.82921C31.915 1.82921 34.8337 2.90409 37.1215 4.85583C39.0941 6.53858 40.5005 8.78228 41.1558 11.2613C40.7893 11.2326 40.3575 11.2169 40.0267 11.2169C39.5677 11.2169 39.095 11.241 38.647 11.2842C37.2691 7.10087 33.3636 4.23827 28.9032 4.23827C24.4433 4.23827 20.5381 7.10054 19.1598 11.2833C18.7281 11.2417 18.2232 11.2169 17.7799 11.2169C17.46 11.2169 17.032 11.2317 16.6515 11.2612C17.4077 8.41544 19.1674 5.86675 21.5935 4.14991C21.9702 3.88325 22.0595 3.36174 21.7929 2.98488C21.5263 2.60812 21.0047 2.51886 20.6279 2.78541C17.6916 4.8633 15.6188 8.01964 14.8742 11.5131C8.94573 12.7348 4.38568 17.5868 3.56854 23.6186C1.50915 24.1895 0.172403 26.1892 0.461236 28.3065C0.90251 31.5415 1.87866 34.6589 3.35481 37.5428ZM5.04725 37.1728C5.28594 36.8462 5.61367 36.625 5.96156 36.5195C6.20159 36.4465 6.44663 36.4279 6.68543 36.462C7.34935 36.5541 7.43214 36.9329 7.96267 36.8585C8.08491 36.8413 8.20415 36.7974 8.31068 36.7271C8.87999 36.3572 9.55159 36.3625 10.1021 36.6805C10.6646 37.0054 10.9829 37.5827 10.9579 38.2291C10.9237 38.5815 11.1202 38.9075 11.4129 39.0553C11.9959 39.3501 12.3533 39.9177 12.3533 40.584C12.3533 41.2434 12.0018 41.815 11.4129 42.1126C11.3141 42.1624 11.2096 42.2438 11.13 42.3473C10.8108 42.7629 11.0897 43.0487 10.8271 43.67C10.7429 43.8688 10.625 44.0405 10.4837 44.1877C8.29062 42.1897 6.4649 39.8343 5.04725 37.1728ZM40.313 52.2606C40.313 54.0688 38.8418 55.5398 37.0337 55.5398H20.7728C18.9645 55.5398 17.4935 54.0688 17.4935 52.2606V50.0743H40.313V52.2606ZM40.9685 48.4023H16.838C15.0354 47.5784 13.3317 46.5294 11.7602 45.2763C12.0652 44.9397 12.298 44.542 12.4398 44.1377C12.5593 43.7974 12.5831 43.5579 12.6158 43.3325C13.4816 42.7134 14.0248 41.7049 14.0248 40.5838C14.0248 39.4878 13.5044 38.4703 12.6151 37.8345C12.5117 36.7552 11.8961 35.7862 10.938 35.2329C9.95977 34.6678 8.80845 34.6414 7.84634 35.0802C7.10353 34.7414 6.26343 34.6806 5.47549 34.9201C5.47148 34.9213 5.46758 34.9227 5.46368 34.9241C5.00825 35.0643 4.59896 35.2948 4.26332 35.5753C3.85125 34.6604 3.48965 33.7212 3.18153 32.7652H54.6254C54.3173 33.7211 53.9557 34.6604 53.5436 35.5753C53.2099 35.2959 52.7977 35.063 52.3378 34.9223C52.3356 34.9216 52.3334 34.9207 52.3313 34.9201C51.5436 34.6807 50.7037 34.7413 49.9606 35.0802C48.9412 34.6152 47.7936 34.6988 46.8687 35.2329C45.9077 35.7879 45.295 36.7558 45.1917 37.8345C44.3112 38.4639 43.782 39.4768 43.782 40.5838C43.782 41.6904 44.3109 42.7031 45.191 43.3325V43.3327C45.26 44.0705 45.5721 44.7557 46.0466 45.2761C44.4748 46.5294 42.7711 47.5784 40.9685 48.4023ZM47.3224 44.1878C46.9931 43.8467 46.8298 43.4046 46.8488 42.9361C46.8805 42.599 46.7042 42.2693 46.3936 42.1124C45.8047 41.8148 45.4531 41.2433 45.4531 40.5838C45.4531 39.9341 45.7967 39.3566 46.3936 39.0551C46.699 38.9006 46.8722 38.5778 46.8495 38.2482C46.8171 37.5896 47.1402 37.0062 47.7044 36.6804C48.1119 36.445 48.5906 36.3774 49.0516 36.5186C49.0527 36.5189 49.0537 36.5191 49.0549 36.5195C49.5389 36.6686 49.8069 37.1114 50.4617 36.7055C51.2698 36.2065 52.2572 36.4673 52.7591 37.1727C51.3415 39.8344 49.5156 42.1901 47.3224 44.1878ZM28.9032 16.5054C27.7461 15.086 26.3067 13.8744 24.6592 12.9727C25.2956 11.2127 26.9915 9.98999 28.9031 9.98999C30.8151 9.98999 32.5112 11.213 33.1474 12.9733C31.4767 13.8886 30.0306 15.1229 28.9032 16.5054ZM36.0324 23.4619C36.7962 22.0011 38.3156 21.049 40.0266 21.049C41.7375 21.049 43.2569 22.001 44.0208 23.4619H36.0324ZM13.7857 23.4619C14.5496 22.0011 16.069 21.049 17.7799 21.049C19.4908 21.049 21.0102 22.001 21.7741 23.4619H13.7857ZM23.5938 23.4619C22.7193 21.0272 20.4161 19.3775 17.7799 19.3775C15.1436 19.3775 12.8404 21.0272 11.966 23.4619H9.45041C10.3979 19.7 13.823 16.9686 17.78 16.9686C21.737 16.9686 25.162 19.7 26.1096 23.4619H23.5938ZM52.5245 23.4619H50.0699C49.7505 21.936 49.0823 20.4934 48.114 19.2534C47.83 18.8897 47.3048 18.8249 46.941 19.1091C46.5772 19.3931 46.5126 19.9184 46.7967 20.2821C47.5347 21.2272 48.0649 22.3122 48.3556 23.4619H45.8406C44.9661 21.0272 42.6629 19.3775 40.0267 19.3775C37.3904 19.3775 35.0872 21.0272 34.2128 23.4619H31.9694C31.9497 23.3281 31.9032 23.0469 31.8706 22.8742C32.4156 21.2261 33.4744 19.7485 34.8689 18.6961C36.3665 17.566 38.15 16.9687 40.0267 16.9687C41.6236 16.9687 43.1841 17.4134 44.5397 18.2547C44.932 18.4981 45.4471 18.3775 45.6906 17.9854C45.934 17.5932 45.8134 17.078 45.4213 16.8345C43.8009 15.8288 41.9355 15.2973 40.0268 15.2973C37.7839 15.2973 35.6522 16.0113 33.8621 17.3621C32.7715 18.1851 31.8533 19.227 31.1663 20.4013C30.8329 19.5358 30.4152 18.705 29.92 17.9194C32.322 14.7483 36.0621 12.8884 40.0268 12.8884C43.1858 12.8884 46.2338 14.0572 48.5923 16.2223C50.687 18.1453 52.0622 20.6883 52.5245 23.4619ZM28.9032 5.90965C32.5432 5.90965 35.7432 8.18656 36.9705 11.5454C36.2022 11.7121 35.3592 11.9776 34.663 12.2587C33.7507 9.92625 31.4693 8.3185 28.9032 8.3185C26.3383 8.3185 24.0577 9.92491 23.1446 12.2558C22.3979 11.9546 21.626 11.7165 20.8362 11.5449C22.0636 8.18634 25.2635 5.90965 28.9032 5.90965ZM17.7799 12.8882C23.7567 12.8882 29.171 17.1202 30.2761 23.4619H27.8215C26.8401 18.7593 22.6481 15.2971 17.7799 15.2971C12.9116 15.2971 8.71964 18.7593 7.73836 23.4619H5.28204C6.29307 17.3958 11.5617 12.8882 17.7799 12.8882ZM4.71842 25.1334H53.0882C54.6696 25.1334 55.9016 26.5241 55.6892 28.0807C55.5511 29.0937 55.3551 30.1046 55.1052 31.0938H2.70137C2.45154 30.1047 2.25553 29.0939 2.11724 28.0807C1.90518 26.5254 3.13518 25.1334 4.71842 25.1334Z" fill="black"/>
</svg>
