<svg width="51" height="63" viewBox="0 0 51 63" fill="none" xmlns="http://www.w3.org/2000/svg">
<path d="M41.6987 28.0021C41.1417 25.8965 40.6048 23.0735 40.6048 20.0156C40.6048 9.76276 32.2634 1.42139 22.0104 1.42139C11.7574 1.42139 3.41603 9.76276 3.41603 20.0156C3.41603 23.0735 2.87906 25.8965 2.32209 28.0021C1.63489 30.5998 2.89014 33.3139 5.31873 34.4639C8.58174 36.0089 13.929 37.6279 22.0104 37.6279C30.0918 37.6279 35.439 36.0089 38.7021 34.4639C41.1306 33.3139 42.3859 30.5998 41.6987 28.0021Z" fill="#E7886E"/>
<path d="M11.2942 19.3383C11.2942 11.355 16.3057 4.4938 23.4797 1.47934C22.9948 1.44127 22.5049 1.42139 22.0103 1.42139C11.7574 1.42139 3.41598 9.76276 3.41598 20.0156C3.41598 23.0735 2.87901 25.8965 2.32205 28.0021C1.63496 30.5998 2.8901 33.3139 5.31868 34.4639C8.58169 36.0089 13.929 37.628 22.0103 37.628C22.8531 37.628 23.6644 37.6094 24.4483 37.5761C16.7609 34.7905 11.2942 27.6763 11.2942 19.3383Z" fill="#E27858"/>
<path d="M13.2752 31.4651C13.2752 31.4651 8.47285 32.4854 6.40762 37.2329V42.9844H29.4619V28.5685L13.2752 31.4651Z" fill="#80D8E6"/>
<path d="M17.6619 30.6801L13.2752 31.4651C13.2752 31.4651 8.47285 32.4854 6.40762 37.2329V42.9845H13.0567C13.1476 38.3688 14.8472 34.1156 17.6619 30.6801Z" fill="#3CCADD"/>
<path d="M36.4283 19.9461C36.4172 17.6026 35.0177 15.4899 32.8815 14.5261C29.879 13.1712 25.4647 10.9963 24.1996 9.40445C23.0839 8.00076 20.9369 8.00076 19.8213 9.40445C18.5563 10.9962 14.1423 13.1711 11.1398 14.5258C8.98495 15.4982 7.59464 17.6386 7.59259 20.0026C7.59259 20.0512 7.59271 20.0997 7.59319 20.1484C7.66476 28.0813 14.2198 34.5095 22.1528 34.4329C30.0501 34.3565 36.4284 27.931 36.4284 20.0157C36.4284 19.9925 36.4284 19.9692 36.4283 19.9461Z" fill="#FED2A4"/>
<path d="M37.5104 58.6422C44.5436 57.8922 50.0223 51.9404 50.0223 44.7072C50.0223 37.474 44.5436 31.5211 37.5104 30.771L33.7747 34.1409V55.2767L37.5104 58.6422Z" fill="#ED9B83"/>
<path d="M23.2583 38.8794C13.0947 37.5049 15.4999 36.8153 5.24382 36.8153H4.64276V56.8712L27.6733 55.9752L31.1655 56.8712L23.2583 38.8794Z" fill="#FC2429"/>
<path d="M41.928 44.7073C40.51 46.1885 39.4069 47.914 38.6568 49.7824C37.9067 51.6507 37.5107 53.6608 37.5107 55.7113V58.6423C37.0173 58.6954 36.5152 58.7219 36.0079 58.7219C28.2674 58.7219 21.9919 52.4476 21.9919 44.7073C21.9919 36.967 28.2674 30.6913 36.0079 30.6913C36.5151 30.6913 37.0173 30.7179 37.5107 30.7709V33.7031C37.5107 37.8029 39.0932 41.7446 41.928 44.7073Z" fill="#FED2A4"/>
<path d="M27.6728 56.8713C27.6728 59.3165 25.6906 61.2987 23.2454 61.2987H19.0634L16.7031 56.246L19.0634 52.4438H23.2454C25.6906 52.4438 27.6728 54.4261 27.6728 56.8713Z" fill="#FFBD86"/>
<path d="M17.1868 55.4667L16.7031 56.2459L19.0634 61.2986H23.2454C23.437 61.2986 23.6252 61.2851 23.8103 61.2615C21.2033 59.7569 18.9489 57.7826 17.1868 55.4667Z" fill="#F3AC76"/>
<path d="M19.0635 52.4438V61.2986C15.6923 61.2986 12.5678 59.62 10.7058 56.808C8.84504 53.9972 8.51987 50.4653 9.83681 47.3611C10.7918 45.1094 13.3902 44.0595 15.6418 45.0133C17.8922 45.9684 18.9433 48.5679 17.9883 50.8183C17.7859 51.2965 17.9315 51.681 18.0895 51.9201C18.2475 52.1592 18.5448 52.4438 19.0635 52.4438Z" fill="#FF748F"/>
<path d="M13.0515 43.3745C13.0515 41.2577 13.3915 39.2143 14.0213 37.2866C12.1509 36.9726 10.1406 36.8153 5.24346 36.8153H4.64227V56.8712H18.3531C15.0433 53.2134 13.0515 48.5084 13.0515 43.3745Z" fill="#F9496E"/>
<path d="M4.83717 41.2488H8.06825C9.79132 41.2488 11.1881 39.852 11.1881 38.1289C11.1881 35.5136 9.06797 33.3934 6.45265 33.3934C3.83732 33.3934 1.71716 35.5136 1.71716 38.1289C1.71728 39.852 3.1141 41.2488 4.83717 41.2488Z" fill="#FFBD86"/>
<path d="M11.2944 19.3383C11.2944 17.5296 11.5527 15.7788 12.034 14.1168C11.7258 14.2598 11.4263 14.3966 11.1398 14.5258C8.98495 15.4982 7.59464 17.6385 7.59259 20.0026C7.59259 20.0512 7.59271 20.0997 7.59319 20.1483C7.65211 26.6808 12.1078 32.1922 18.1087 33.8919C13.9279 30.3216 11.2944 25.125 11.2944 19.3383Z" fill="#FFBD86"/>
<path d="M13.1005 44.7377C11.6922 45.0019 10.4384 45.9427 9.83676 47.3611C8.51994 50.4654 8.84499 53.9972 10.7058 56.8079C12.5679 59.62 15.6923 61.2986 19.0634 61.2986V57.62C15.6417 54.1798 13.4436 49.6912 13.1005 44.7377Z" fill="#FC2429"/>
<path d="M14.5584 22.1106C15.0575 22.1106 15.462 21.7061 15.462 21.207V19.775C15.462 19.276 15.0575 18.8715 14.5584 18.8715C14.0594 18.8715 13.6548 19.276 13.6548 19.775V21.207C13.6548 21.7061 14.0594 22.1106 14.5584 22.1106Z" fill="black"/>
<path d="M29.4621 22.1106C29.9612 22.1106 30.3656 21.7061 30.3656 21.207V19.775C30.3656 19.276 29.9612 18.8715 29.4621 18.8715C28.963 18.8715 28.5585 19.276 28.5585 19.775V21.207C28.5585 21.7061 28.963 22.1106 29.4621 22.1106Z" fill="black"/>
<path d="M24.6562 21.7579C24.9841 21.3817 24.9449 20.811 24.5687 20.483C24.1924 20.1551 23.6217 20.1944 23.2938 20.5706C22.6139 21.3506 21.4061 21.3499 20.727 20.5706C20.3992 20.1944 19.8284 20.1552 19.4521 20.483C19.0759 20.8109 19.0367 21.3817 19.3645 21.7579C20.7619 23.3616 23.2549 23.3662 24.6562 21.7579Z" fill="black"/>
<path d="M34.3183 40.1557C33.7993 39.7035 33.7979 38.899 34.3183 38.4454C34.6946 38.1176 34.7337 37.5469 34.4059 37.1706C34.078 36.7943 33.5073 36.7551 33.131 37.083C31.7871 38.254 31.7831 40.3436 33.131 41.5181C33.5074 41.8459 34.0781 41.8068 34.4059 41.4305C34.7336 41.0544 34.6945 40.4837 34.3183 40.1557Z" fill="black"/>
<path d="M34.3183 51.1149C34.6945 50.7869 34.7337 50.2162 34.4059 49.84C34.0779 49.4637 33.5072 49.4246 33.131 49.7524C31.787 50.9236 31.7832 53.013 33.131 54.1875C33.3022 54.3367 33.5137 54.4099 33.7243 54.4099C34.5583 54.4099 34.9443 53.3706 34.3184 52.8252C34.0705 52.6092 33.9284 52.2975 33.9284 51.97C33.9284 51.6426 34.0703 51.3309 34.3183 51.1149Z" fill="black"/>
<path d="M31.6275 46.8232C32.3272 46.8232 32.8945 46.2914 32.8945 45.6353C32.8945 44.9792 32.3272 44.4474 31.6275 44.4474C30.9278 44.4474 30.3606 44.9792 30.3606 45.6353C30.3606 46.2914 30.9278 46.8232 31.6275 46.8232Z" fill="black"/>
<path d="M0.813477 38.1292C0.813477 39.967 2.05247 41.5198 3.73855 41.999V56.8715C3.73855 57.3705 4.14311 57.7751 4.64213 57.7751H10.2812C12.3383 60.5573 15.5794 62.2025 19.0633 62.2025H23.2453C25.9321 62.2025 28.1597 60.2044 28.5232 57.6163C33.8634 60.728 40.8107 60.2496 45.7263 56.025C46.1047 55.6997 46.1479 55.1293 45.8225 54.7507C45.4973 54.3723 44.9269 54.3292 44.5483 54.6545C42.7819 56.1726 40.678 57.1794 38.414 57.5986V55.7117C38.414 51.9142 39.8589 48.1753 42.5805 45.3325C42.9149 44.9832 42.9149 44.4324 42.5806 44.0829C37.4995 38.7728 38.5482 32.6746 38.414 31.8168C47.8473 33.5766 52.1095 44.4391 46.8163 52.1306C46.5335 52.5417 46.6374 53.1043 47.0485 53.3872C47.4594 53.6701 48.0222 53.5662 48.3051 53.1551C53.4238 45.7172 50.8058 35.3041 42.5175 31.2805C42.8547 30.1445 42.8777 28.927 42.572 27.7714C41.866 25.1026 41.5081 22.4933 41.5081 20.016C41.5081 9.26473 32.7614 0.518066 22.0102 0.518066C17.9957 0.518066 14.1366 1.73477 10.8501 4.03685C10.4413 4.3231 10.342 4.88658 10.6283 5.29536C10.9147 5.70414 11.4781 5.80329 11.8868 5.51704C14.868 3.42892 18.3686 2.32523 22.0102 2.32523C31.765 2.32523 39.7009 10.2613 39.7009 20.0159C39.7009 22.649 40.0791 25.4139 40.825 28.2334C41.0297 29.0075 41.0309 29.8199 40.8356 30.5877C38.4362 29.779 36.0104 29.6014 33.659 29.9734C37.6437 25.3217 37.3019 20.1048 37.3315 19.942C37.3189 17.2639 35.7178 14.8149 33.2529 13.7026C28.8103 11.6979 25.7682 9.92651 24.9067 8.84245C23.4302 6.98457 20.5923 6.9818 19.1136 8.84245C18.2522 9.92651 15.2103 11.6979 10.7679 13.7024C8.29235 14.8195 6.69109 17.2921 6.68868 20.0017C6.68868 20.0535 6.6888 20.1054 6.68928 20.1567C6.72627 24.262 8.38536 28.1832 11.4845 31.124C10.3812 31.5984 9.39376 32.215 8.56885 32.9016C7.21685 32.3534 5.72257 32.38 4.51081 32.8344C3.26471 31.6704 2.75003 29.9167 3.19531 28.2334C3.94107 25.4138 4.31937 22.6489 4.31937 20.0159C4.31937 15.4284 6.07581 11.0759 9.26521 7.76033C9.61122 7.4007 9.60014 6.82867 9.24039 6.48278C8.88064 6.13689 8.30874 6.14798 7.96285 6.5076C4.44816 10.1614 2.51245 14.9589 2.51245 20.0159C2.51245 22.493 2.15439 25.1023 1.44851 27.7713C0.879016 29.9237 1.44297 32.1597 2.89051 33.7615C1.62381 34.7964 0.813477 36.3697 0.813477 38.1292ZM13.0881 32.4546C16.5145 34.93 20.6598 35.7825 24.5717 35.1258C23.8591 35.9749 23.2414 36.9032 22.7317 37.8951C16.267 36.9903 15.1894 36.3777 11.7122 36.0934C11.3998 35.2892 10.8653 34.5102 10.2035 33.9196C11.0454 33.3059 12.0738 32.7735 13.0881 32.4546ZM5.54571 55.9679V42.1527H8.06802C10.2866 42.1527 12.0915 40.3478 12.0915 38.1292C12.0915 38.0667 12.0905 38.0041 12.0885 37.9418C14.9221 38.2221 16.2374 38.7915 21.9804 39.6144C20.5655 43.4992 20.8419 47.8644 22.7415 51.5406C18.7275 51.5213 18.9681 51.6116 18.8429 51.4221C18.7232 51.241 18.83 51.2359 19.0111 50.646C20.1125 47.0622 17.2496 43.5231 13.5682 43.7726C11.6949 43.8974 9.96795 45.0089 9.11799 46.7593C7.86068 49.3503 7.73081 52.9013 9.19437 55.9682H5.54571V55.9679ZM10.6684 47.7143C10.6684 47.7141 10.6684 47.7141 10.6685 47.714C11.314 46.192 12.9152 45.3571 14.4774 45.612C16.7376 45.9781 18.0421 48.3694 17.1559 50.4663C16.6831 51.583 17.2647 52.7213 18.1597 53.149V60.3509C12.0609 59.7487 8.26597 53.376 10.6684 47.7143ZM23.2453 60.3953H19.9669V53.3477C23.3965 53.3478 23.299 53.3422 23.5168 53.3592C25.355 53.5016 26.7691 55.0375 26.7691 56.8715C26.7691 58.8146 25.1883 60.3953 23.2453 60.3953ZM40.2233 44.1246C40.3795 44.3221 40.5404 44.5163 40.706 44.7075C35.6769 50.5139 36.7489 56.8328 36.607 57.8053C33.7204 57.9342 30.8345 57.1411 28.3563 55.3554C27.8431 53.6445 26.5603 52.3831 25.0059 51.8395C19.1812 42.8587 25.9908 31.1591 36.607 31.6094C36.6467 33.8289 36.09 38.9005 40.2233 44.1246ZM8.49596 20.0036C8.49777 18.0022 9.68134 16.1754 11.5113 15.3497C16.4145 13.1371 19.4483 11.3261 20.5285 9.96675C21.282 9.01871 22.7374 9.01727 23.492 9.96675C24.5722 11.3261 27.6062 13.1371 32.5098 15.3498C34.3319 16.1719 35.5152 17.9779 35.5245 19.9508L35.5247 20.0158C35.5247 24.5889 33.2417 28.8117 29.4151 31.3228C28.1616 31.9373 28.2869 32.0406 27.2337 32.484C18.4384 36.1826 8.49596 29.7082 8.49596 20.0036ZM4.93043 34.6133C7.46769 33.5089 10.2843 35.3951 10.2843 38.1291C10.2843 39.3512 9.29015 40.3454 8.06802 40.3454C7.81213 40.3454 4.68478 40.3454 4.83658 40.3454C3.6147 40.3451 2.62064 39.351 2.62064 38.1291C2.62064 36.5607 3.5694 35.2038 4.93043 34.6133Z" fill="black"/>
</svg>
