<svg width="58" height="64" viewBox="0 0 58 64" fill="none" xmlns="http://www.w3.org/2000/svg">
<path d="M29.8082 10.3903C28.7561 7.9821 24.8635 3.56471 20.6523 1.32077C19.5886 0.754016 18.2847 1.41973 18.1 2.6107C18.0192 3.13154 17.975 3.5954 18.0271 3.80093C14.3026 2.7961 10.7258 4.96281 7.11536 6.23911C6.77857 6.35821 6.51398 6.6228 6.39488 6.95958C5.11883 10.5699 2.95212 14.1467 3.95696 17.8712C3.7513 17.819 3.28756 17.8633 2.76672 17.9441C1.57575 18.1288 0.910037 19.4327 1.47679 20.4964C3.72085 24.7076 8.13824 28.6002 10.5463 29.6524L29.8082 10.3903Z" fill="#FBC072"/>
<path d="M56.2118 57.9918C55.7392 55.6288 50.7942 42.031 48.8623 37.9874C49.1712 35.5571 48.5536 33.2453 46.9357 31.6274C43.6983 28.3899 37.6817 29.1573 33.4974 33.3417C29.3132 37.5259 28.5457 43.5425 31.7832 46.78C31.8353 46.8322 31.8902 46.8804 31.9439 46.9305C29.6565 51.1285 27.0921 56.3447 26.6991 57.1472C25.8572 58.8659 26.5679 60.9417 28.2866 61.7835C30.0029 62.6244 32.0799 61.917 32.9229 60.196C34.0905 57.8125 36.9808 52.0506 38.9619 48.5667C40.8941 48.1603 42.8588 47.1818 44.576 45.6686C46.5974 50.8662 49.1561 58.1084 49.4158 59.3512C49.792 61.2325 51.621 62.4441 53.4933 62.0696C55.3701 61.6941 56.5873 59.8685 56.2118 57.9918Z" fill="#FFD3BD"/>
<path d="M55.4934 55.5207C53.9446 50.7404 50.4221 41.2516 48.8626 37.9874C49.1715 35.5571 48.5539 33.2453 46.9361 31.6274C43.6986 28.3899 37.682 29.1573 33.4978 33.3417C29.3135 37.5259 28.546 43.5425 31.7835 46.78C31.8357 46.8322 31.8906 46.8804 31.9442 46.9305C30.5185 49.5471 28.9853 52.5588 27.9373 54.6512C29.2813 54.9936 32.5004 56.1813 34.1074 57.8103C35.5044 55.0248 37.4857 51.1632 38.9622 48.5666C40.8944 48.1602 42.8591 47.1817 44.5764 45.6685C46.0906 49.5621 47.9063 54.6031 48.8313 57.4098C49.8951 56.2534 53.3265 55.092 55.4934 55.5207Z" fill="#FC2429"/>
<path d="M21.8062 52.7883C20.7766 54.4314 18.6099 54.9288 16.9668 53.8993C15.3239 52.8697 14.8265 50.703 15.8559 49.0599C17.0079 47.2215 21.8772 34.9193 22.1177 32.9002C22.3449 30.9766 24.0787 29.5915 26.0051 29.812C27.9316 30.0325 29.3145 31.7737 29.094 33.7001C28.699 37.1281 23.3131 50.3835 21.8062 52.7883Z" fill="#FFD3BD"/>
<path d="M36.9468 27.1969C35.5455 28.5369 33.3231 28.4873 31.9828 27.0859C30.6427 25.6845 30.6882 23.4586 32.0937 22.122C33.4966 20.7828 40.1264 11.7101 42.4469 7.8015C43.4365 6.13451 45.5909 5.58495 47.2582 6.5748C48.9254 7.56478 49.4747 9.71884 48.4849 11.3861C46.5693 14.6126 39.3514 24.8949 36.9468 27.1969Z" fill="#FFBE9D"/>
<path d="M41.5693 41.4135C43.4387 39.5441 49.4156 32.7463 46.1643 30.091C40.7551 25.6735 29.117 20.8863 25.0796 24.9237C21.0422 28.9611 25.8294 40.5992 30.2469 46.0084C32.9021 49.2597 39.7 43.2828 41.5693 41.4135Z" fill="#04237E"/>
<path d="M31.8799 31.7242C33.904 29.7001 35.4171 27.3075 36.3315 24.7387C31.8155 23.1519 27.2989 22.7041 25.0794 24.9236C22.8599 27.1431 23.3076 31.6597 24.8945 36.1757C27.4633 35.2615 29.8559 33.7482 31.8799 31.7242Z" fill="#FBC072"/>
<path d="M10.7579 34.5433C13.2048 34.5433 15.1884 32.5597 15.1884 30.1128C15.1884 27.6659 13.2048 25.6823 10.7579 25.6823C8.31098 25.6823 6.32736 27.6659 6.32736 30.1128C6.32736 32.5597 8.31098 34.5433 10.7579 34.5433Z" fill="#FFD3BD"/>
<path d="M30.2687 15.0327C32.7156 15.0327 34.6992 13.0491 34.6992 10.6022C34.6992 8.15525 32.7156 6.17163 30.2687 6.17163C27.8218 6.17163 25.8382 8.15525 25.8382 10.6022C25.8382 13.0491 27.8218 15.0327 30.2687 15.0327Z" fill="#FFBE9D"/>
<path d="M29.51 29.3593C34.9435 23.9257 35.5147 15.6872 30.7856 10.9581C26.0565 6.22905 17.818 6.80016 12.3844 12.2338C6.9508 17.6673 6.37969 25.9058 11.1088 30.6349C15.8379 35.364 24.0764 34.7929 29.51 29.3593Z" fill="#FFD3BD"/>
<path d="M32.4917 25.2349C19.0481 35.7346 9.88059 23.3497 8.79779 17.777C7.09593 22.3434 7.81751 27.3412 11.1123 30.636C15.8422 35.3659 24.0819 34.7946 29.5162 29.3602C30.7682 28.1083 31.7613 26.7074 32.4917 25.2349Z" fill="#FFBE9D"/>
<path d="M17.9477 26.5086C19.0686 27.6295 18.8363 29.6791 17.4287 31.0867C16.0212 32.4943 13.9715 32.7266 12.8506 31.6057C11.7298 30.4848 11.9621 28.4351 13.3696 27.0276C14.7772 25.62 16.8269 25.3877 17.9477 26.5086Z" fill="#EDA1AB"/>
<path d="M31.2371 17.2741C32.6444 15.8668 32.8768 13.8174 31.756 12.6967C30.6353 11.576 28.5859 11.8083 27.1786 13.2156C25.7713 14.6229 25.5389 16.6723 26.6597 17.7931C27.7804 18.9138 29.8298 18.6815 31.2371 17.2741Z" fill="#EDA1AB"/>
<path d="M25.3834 13.082C25.0236 12.7225 24.4407 12.7225 24.081 13.082C23.7214 13.4417 23.7214 14.0247 24.081 14.3843L25.1228 15.4261C25.4827 15.7857 26.0655 15.7856 26.4252 15.4261C26.7848 15.0663 26.7848 14.4834 26.4252 14.1238L25.3834 13.082ZM14.54 23.9253C14.1803 23.5658 13.5973 23.5658 13.2377 23.9253C12.8781 24.2851 12.8781 24.868 13.2377 25.2276L14.2795 26.2694C14.6393 26.6291 15.2222 26.6289 15.5818 26.2694C15.9414 25.9097 15.9414 25.3267 15.5818 24.9671L14.54 23.9253ZM57.1147 57.8115C57.0165 57.3205 56.7506 56.4154 56.3725 55.2476C54.818 50.4453 51.3606 41.183 49.8068 37.8324C50.0609 35.3355 49.4081 33.0673 47.9574 31.385C47.7951 30.5842 47.3832 29.8981 46.7465 29.3781C44.8538 27.8323 42.4273 26.3704 39.8906 25.1951C43.0986 21.1419 47.8152 14.3177 49.2764 11.8566C50.8618 9.18614 49.266 5.74301 46.2086 5.22426C45.707 5.13918 45.2317 5.47633 45.1467 5.97789C45.0615 6.4792 45.3989 6.95473 45.9003 7.03982C47.6854 7.34333 48.6201 9.35496 47.6929 10.9164C46.2079 13.4178 41.2962 20.511 38.1401 24.4368C36.8428 23.9141 35.5426 23.4775 34.293 23.1518C34.5791 22.1887 34.7666 21.2131 34.8533 20.2418C37.3398 17.026 41.1398 11.7047 42.9897 8.68434C43.2554 8.25068 43.1191 7.6838 42.6853 7.4181C42.252 7.15241 41.6849 7.28845 41.4191 7.72248C39.9214 10.1678 37.1152 14.158 34.7996 17.264C34.6711 16.2664 34.4288 15.2937 34.0725 14.3658C36.1388 12.2776 36.1327 8.8981 34.053 6.81832C32.3303 5.09559 29.7508 4.80841 27.7511 5.87745C25.7468 3.65046 23.3526 1.71643 21.0854 0.508267C19.4683 -0.35316 17.4724 0.649219 17.1902 2.46993C17.1781 2.5479 17.1671 2.62169 17.1574 2.69204C13.5091 2.22118 10.1078 4.20506 6.80853 5.37123C6.20654 5.58401 5.73923 6.05143 5.52695 6.65294C4.3593 9.95536 2.37701 13.354 2.84775 17.0017C2.77752 17.0114 2.70349 17.0224 2.62552 17.0345C0.811441 17.3157 -0.200638 19.3069 0.663982 20.9297C1.87251 23.1976 3.80728 25.5927 6.03513 27.5972C4.95872 29.6205 5.27119 32.1945 6.97404 33.8973C9.04988 35.9729 12.423 35.9858 14.5143 33.9236C16.3764 34.6437 18.4669 34.9186 20.6826 34.6772C19.3381 38.8118 15.9549 47.1683 15.0757 48.5715C13.3161 51.3801 15.1664 55.0473 18.4337 55.3392C18.9387 55.3847 19.3875 55.0117 19.4329 54.504C19.4782 53.9976 19.1044 53.55 18.5978 53.5048C16.7028 53.3349 15.6024 51.1998 16.6364 49.5492C17.7424 47.784 21.6314 37.9994 22.7248 34.3075C22.9206 34.2578 23.1156 34.204 23.3097 34.1463C23.8831 36.3425 24.8006 38.6956 25.9202 40.9103C24.3433 45.1483 22.3383 49.8852 21.2908 51.8364C20.9592 52.4541 21.4141 53.1929 22.1014 53.1929C22.4298 53.1929 22.7475 53.0168 22.9136 52.7074C23.8712 50.9235 25.5899 46.9222 27.0839 43.0378C27.8524 44.3373 28.68 45.546 29.5337 46.5913C29.8375 46.9633 30.1987 47.2576 30.6056 47.4713C29.0317 50.4095 27.1057 54.2236 25.8722 56.7424C24.8058 58.9191 25.7042 61.5443 27.8815 62.6108C30.0636 63.6803 32.6856 62.7743 33.7499 60.6014C35.2825 57.4727 37.8264 52.4664 39.5639 49.3735C41.1777 48.9731 42.7454 48.2244 44.1706 47.1771C46.1649 52.3933 48.3032 58.5288 48.5129 59.5321C48.9901 61.9193 51.308 63.4465 53.6739 62.9728C56.051 62.4972 57.5904 60.1886 57.1147 57.8115ZM32.7503 8.12065C33.9521 9.32231 34.0981 11.1856 33.1895 12.5484C32.7089 11.7437 32.1278 10.9902 31.4431 10.3054C30.4377 9.30008 29.2762 8.50152 28.0008 7.9247C29.3781 6.75411 31.4457 6.81587 32.7503 8.12065ZM2.2891 20.0633C2.02193 19.5619 2.33871 18.9423 2.9073 18.8541C3.50303 18.7619 3.71667 18.7684 3.76026 18.7709C4.43248 18.9181 5.02551 18.2985 4.84564 17.6315C3.93424 14.253 5.98443 10.8835 7.26306 7.26622C7.28934 7.19157 7.34741 7.13374 7.42206 7.10735C11.0289 5.83252 14.4072 3.77803 17.7871 4.68992C18.453 4.86967 19.0738 4.27799 18.9265 3.60418C18.9236 3.56071 18.9175 3.34695 19.0097 2.75171C19.0977 2.18385 19.7163 1.86573 20.2189 2.13339C22.2733 3.22822 24.452 4.98386 26.298 7.01649C26.2291 7.09274 26.1626 7.17131 26.0982 7.25149C17.3426 4.94936 7.67499 12.1789 7.01971 21.6346C6.91572 23.1352 7.05004 24.5845 7.40708 25.9426C7.32691 26.0069 7.24845 26.0734 7.1722 26.1422C5.13957 24.2964 3.38381 22.1177 2.2891 20.0633ZM8.27612 32.5947C6.97674 31.2955 6.91215 29.2227 8.08029 27.8453C9.06879 30.0309 10.6911 31.8298 12.6998 33.0366C11.3373 33.9424 9.47655 33.7953 8.27612 32.5947ZM11.7633 29.985C7.40008 25.6219 7.97236 17.9501 13.0391 12.8836C17.958 7.96448 25.6578 7.12441 30.1407 11.6076C34.504 15.9709 33.9317 23.6428 28.8649 28.7092C23.9067 33.6679 16.223 34.4448 11.7633 29.985ZM25.0482 33.5134C28.7582 31.9073 31.9752 28.7998 33.662 24.8907C37.6985 25.9164 42.4938 28.2826 45.5817 30.8043C47.9019 32.6993 43.0531 38.6277 40.9182 40.7624C38.7901 42.8906 32.8553 47.7464 30.96 45.426C28.4397 42.34 26.0749 37.5485 25.0482 33.5134ZM32.0959 59.791C31.4778 61.0524 29.9555 61.5761 28.6916 60.9566C27.429 60.3382 26.9072 58.8156 27.526 57.5523C27.6181 57.3644 27.943 56.7022 28.4169 55.7515C29.7014 56.1683 31.6827 56.9919 32.9695 58.0257C32.6306 58.7048 32.3333 59.3063 32.0959 59.791ZM49.2995 55.9108C48.2691 52.8917 46.6731 48.52 45.4344 45.3347C45.2017 44.7368 44.4454 44.556 43.9674 44.9776C42.4117 46.3485 40.6153 47.2778 38.7724 47.6654C38.5144 47.7197 38.2919 47.8821 38.1615 48.1115C36.861 50.3984 35.1671 53.6678 33.811 56.3506C32.3791 55.2963 30.5286 54.5239 29.2508 54.089C30.1763 52.2549 31.351 49.9657 32.4781 47.8777C36.409 47.7623 41.6228 42.6625 42.2205 42.0649C42.7185 41.5668 46.3417 37.8645 47.6037 34.3693C47.9871 35.4109 48.1104 36.6017 47.9488 37.8713C47.9265 38.0468 47.9552 38.2249 48.0314 38.3846C49.2459 40.9262 52.4605 49.3764 54.1981 54.5124C52.4971 54.5681 50.602 55.1532 49.2995 55.9108ZM53.3128 61.1666C51.943 61.4405 50.5971 60.5616 50.3172 59.1629C50.2599 58.8883 50.1115 58.3813 49.8965 57.7084C50.9379 56.9881 53.1605 56.2552 54.8034 56.3605C55.0544 57.1604 55.2318 57.7884 55.3086 58.1727C55.5846 59.5515 54.6919 60.8909 53.3128 61.1666ZM21.6875 17.8176C21.1802 17.8525 20.7971 18.292 20.832 18.7995C20.867 19.3083 20.681 19.8062 20.3214 20.1657C19.9619 20.5252 19.4625 20.7108 18.9551 20.6763C18.4455 20.6417 18.0082 21.0244 17.9732 21.5318C17.9383 22.0393 18.3214 22.4788 18.8287 22.5137C19.8961 22.5862 20.9056 22.1861 21.6238 21.468C22.3599 20.7319 22.741 19.7132 22.6695 18.673C22.6344 18.1657 22.1951 17.7827 21.6875 17.8176Z" fill="black"/>
</svg>
