<svg width="63" height="62" viewBox="0 0 63 62" fill="none" xmlns="http://www.w3.org/2000/svg">
<path d="M57.7092 20.7746C55.7719 19.2727 54.5007 17.0711 54.1687 14.6424C53.516 9.86718 49.3451 6.36746 44.5292 6.55388C42.0798 6.64871 39.6908 5.77923 37.8753 4.1321C34.3059 0.893631 28.8613 0.893631 25.292 4.1321C23.4765 5.77911 21.0876 6.64859 18.6381 6.55376C13.8222 6.36734 9.65128 9.86706 8.99863 14.6423C8.66662 17.071 7.39556 19.2727 5.45821 20.7745C1.64911 23.7273 0.703718 29.0893 3.27313 33.1667C4.57999 35.2405 5.02143 37.7442 4.50276 40.14C3.4829 44.8505 6.2052 49.5657 10.7945 51.0375C13.1286 51.7862 15.0761 53.4204 16.2187 55.5891C18.4652 59.853 23.5815 61.7152 28.0432 59.8929C30.3125 58.9661 32.8548 58.9661 35.1241 59.8929C39.5859 61.7152 44.7022 59.853 46.9486 55.5891C48.0912 53.4204 50.0387 51.7862 52.3729 51.0375C56.9621 49.5656 59.6844 44.8503 58.6646 40.14C58.1459 37.7442 58.5873 35.2405 59.8942 33.1667C62.4637 29.0892 61.5183 23.7273 57.7092 20.7746Z" fill="#EEECED"/>
<path d="M10.2491 42.9118C10.8286 40.2352 10.3354 37.4382 8.87543 35.1213C6.0049 30.5661 7.06116 24.5758 11.3166 21.277C13.481 19.5991 14.9011 17.1395 15.2719 14.4262C15.7896 10.6383 18.2899 7.57067 21.6219 6.18372C20.662 6.46376 19.6557 6.59319 18.6381 6.5538C13.8222 6.36738 9.65128 9.8671 8.99863 14.6423C8.66662 17.071 7.39556 19.2728 5.45821 20.7745C1.64911 23.7274 0.703718 29.0893 3.27313 33.1667C4.57999 35.2406 5.02143 37.7443 4.50276 40.1401C3.4829 44.8505 6.2052 49.5657 10.7945 51.0376C11.3287 51.2089 11.8414 51.4287 12.3301 51.6886C10.4086 49.3019 9.55729 46.1067 10.2491 42.9118Z" fill="#D4D2D3"/>
<path d="M31.5833 45.6444C39.5904 45.6444 46.0814 39.1534 46.0814 31.1463C46.0814 23.1393 39.5904 16.6483 31.5833 16.6483C23.5763 16.6483 17.0853 23.1393 17.0853 31.1463C17.0853 39.1534 23.5763 45.6444 31.5833 45.6444Z" fill="#FEDD00"/>
<path d="M35.1754 44.4468C27.1684 44.4468 20.6776 37.9559 20.6776 29.949C20.6776 24.218 24.0032 19.2644 28.8297 16.911C22.1399 18.1976 17.0858 24.0813 17.0858 31.1463C17.0858 39.1533 23.5768 45.6441 31.5836 45.6441C33.8596 45.6441 36.0128 45.1191 37.9294 44.1845C37.0376 44.3559 36.1172 44.4468 35.1754 44.4468Z" fill="#E6BB00"/>
<path d="M42.4924 21.5557C42.844 21.2059 42.8453 20.6373 42.4953 20.2859C39.5843 17.3613 35.7092 15.7509 31.5838 15.7509C23.0945 15.7509 16.188 22.6574 16.188 31.1466C16.188 39.6359 23.0943 46.5424 31.5837 46.5424C40.073 46.5424 46.9795 39.6359 46.9795 31.1466C46.9795 28.3922 46.2422 25.6881 44.8472 23.327C44.5949 22.9001 44.0441 22.7584 43.6173 23.0106C43.1905 23.2627 43.0487 23.8135 43.3009 24.2403C44.5325 26.3251 45.1835 28.7132 45.1835 31.1465C45.1835 38.6456 39.0826 44.7463 31.5837 44.7463C24.0847 44.7463 17.9839 38.6454 17.9839 31.1465C17.9839 23.6475 24.0846 17.5467 31.5837 17.5467C35.2279 17.5467 38.651 18.9694 41.2225 21.5527C41.5723 21.9043 42.1409 21.9056 42.4924 21.5557Z" fill="black"/>
<path d="M62.0779 26.3931C61.6343 23.8773 60.2782 21.63 58.2592 20.0649C56.497 18.6987 55.3602 16.7299 55.0582 14.5206C54.7123 11.9897 53.4441 9.69156 51.4872 8.04946C49.5304 6.40748 47.0468 5.55763 44.4943 5.65653C42.2669 5.74249 40.1299 4.9652 38.4784 3.4669C36.5866 1.75045 34.1378 0.805176 31.5833 0.805176C29.0287 0.805176 26.58 1.75057 24.6881 3.4669C23.0368 4.9652 20.9006 5.74273 18.6723 5.65653C16.1207 5.55787 13.6363 6.40748 11.6794 8.04946C9.72256 9.69144 8.45438 11.9897 8.10848 14.5206C7.80652 16.7298 6.66968 18.6987 4.90749 20.0649C2.88896 21.6302 1.53289 23.8774 1.08929 26.3931C0.645689 28.9087 1.15143 31.4845 2.51324 33.6456C3.70192 35.532 4.09667 37.7711 3.62494 39.9503C3.23102 41.7696 3.33986 43.662 3.93959 45.4231C4.09943 45.8926 4.6096 46.1434 5.07918 45.9837C5.54864 45.8239 5.7996 45.3136 5.63976 44.8441C5.14503 43.3917 5.05536 41.8309 5.3803 40.3303C5.95225 37.6888 5.47357 34.9748 4.03274 32.6882C1.69836 28.9836 2.54772 24.1671 6.00829 21.4845C8.14428 19.8285 9.52225 17.4418 9.88827 14.7641C10.4813 10.4257 14.2278 7.28175 18.6033 7.45128C21.3036 7.55557 23.8937 6.61329 25.8954 4.79722C29.1383 1.85497 34.0292 1.85509 37.272 4.79722C39.2738 6.61329 41.8631 7.55557 44.5641 7.45128C48.9387 7.28187 52.6861 10.4257 53.2792 14.7641C53.6453 17.4418 55.0231 19.8285 57.1592 21.4845C60.6199 24.1672 61.4692 28.9838 59.1348 32.6882C57.6939 34.9748 57.2154 37.6888 57.7873 40.3303C58.7139 44.6098 56.2684 48.8454 52.0989 50.1828C49.5253 51.0082 47.4143 52.7797 46.1545 55.1709C44.1135 59.0447 39.5174 60.7175 35.464 59.0619C32.962 58.04 30.206 58.04 27.7039 59.0619C23.6502 60.7176 19.0542 59.0446 17.0134 55.1707C15.7536 52.7796 13.6424 51.0082 11.0689 50.1828C9.57972 49.7052 8.25491 48.827 7.2378 47.6429C6.91465 47.2669 6.34772 47.2239 5.97153 47.547C5.59534 47.8702 5.55248 48.4372 5.87563 48.8133C7.10909 50.2489 8.71527 51.3139 10.5206 51.8928C12.6437 52.5738 14.3853 54.0352 15.4247 56.0078C16.6154 58.2678 18.5931 59.9936 20.9936 60.8673C23.3938 61.7408 26.0183 61.6902 28.3832 60.7243C30.4474 59.8812 32.721 59.8812 34.7851 60.7243C36.0298 61.2327 37.3463 61.4876 38.6644 61.4876C39.8504 61.4876 41.0378 61.2811 42.1747 60.8673C44.5751 59.9936 46.5529 58.2678 47.7436 56.0078C48.783 54.0351 50.5246 52.5737 52.6478 51.8928C55.0802 51.1126 57.1232 49.4645 58.4005 47.2523C59.6778 45.04 60.0834 42.4467 59.5429 39.95C59.0711 37.7708 59.4658 35.5319 60.6546 33.6454C62.0157 31.4845 62.5215 28.9089 62.0779 26.3931Z" fill="black"/>
<path d="M24.4585 30.1667V31.2936C24.4585 31.7895 24.8605 32.1915 25.3564 32.1915C25.8524 32.1915 26.2544 31.7895 26.2544 31.2936V30.1667C26.2544 29.6707 25.8524 29.2687 25.3564 29.2687C24.8605 29.2687 24.4585 29.6707 24.4585 30.1667Z" fill="black"/>
<path d="M36.9121 30.1667V31.2936C36.9121 31.7895 37.3141 32.1915 37.81 32.1915C38.306 32.1915 38.708 31.7895 38.708 31.2936V30.1667C38.708 29.6707 38.306 29.2687 37.81 29.2687C37.3141 29.2687 36.9121 29.6707 36.9121 30.1667Z" fill="black"/>
<path d="M32.7959 30.7C32.5023 31.0358 32.0605 31.2285 31.5836 31.2285C31.1067 31.2285 30.6649 31.0358 30.3713 30.7C30.0449 30.3265 29.4778 30.2885 29.1042 30.6148C28.7308 30.9412 28.6927 31.5085 29.0192 31.882C29.6539 32.608 30.5885 33.0244 31.5836 33.0244C32.5787 33.0244 33.5134 32.608 34.148 31.882C34.4744 31.5085 34.4363 30.9412 34.0628 30.6148C33.6894 30.2885 33.1222 30.3265 32.7959 30.7Z" fill="black"/>
</svg>
