<svg width="51" height="62" viewBox="0 0 51 62" fill="none" xmlns="http://www.w3.org/2000/svg">
<path d="M45.1734 25.5269C47.7389 25.5269 49.8186 23.4472 49.8186 20.8817C49.8186 18.3162 47.7389 16.2365 45.1734 16.2365C42.6079 16.2365 40.5282 18.3162 40.5282 20.8817C40.5282 23.4472 42.6079 25.5269 45.1734 25.5269Z" fill="#FFBD86"/>
<path d="M9.31036 16.248L9.30917 16.2467C10.8933 7.87263 18.2488 1.53943 27.0834 1.53943C35.9181 1.53943 43.2736 7.87263 44.8578 16.2468L44.8566 16.2481H9.31036V16.248Z" fill="#FF9E8E"/>
<path d="M13.3327 31.3866C12.0393 29.8756 9.71251 29.8502 8.3964 31.3414C7.32265 32.558 7.29924 34.3829 8.35363 35.6165C10.7719 38.4459 13.819 40.7218 17.2758 42.2278L19.5747 39.4548L17.2758 34.8334L13.3327 31.3866Z" fill="#FED2A4"/>
<path d="M40.8336 31.3866C42.127 29.8756 44.4538 29.8502 45.7699 31.3414C46.8436 32.558 46.867 34.3829 45.8127 35.6165C43.3944 38.4459 40.3473 40.7218 36.8905 42.2278L34.5916 39.4548L36.8905 34.8334L40.8336 31.3866Z" fill="#FFBD86"/>
<path d="M31.9429 44.104L27.0831 46.1719L22.8214 44.104L17.9003 46.1719C18.4596 47.6608 19.3724 48.977 20.5339 50.0207V53.1399L23.8085 56.8625L27.0831 53.1399L30.3577 56.8625L33.6323 53.1399V50.0207C33.7644 49.9016 33.8929 49.7814 34.0179 49.6565C34.9961 48.6771 35.7697 47.4918 36.266 46.1719L31.9429 44.104Z" fill="#5C586F"/>
<path d="M20.9075 44.9082L17.9003 46.1719C18.4596 47.6607 19.3724 48.9769 20.5339 50.0207V53.14L23.8085 56.8626L23.923 56.7324C22.131 53.3731 21.0335 49.3072 20.9075 44.9082Z" fill="#4F4C5F"/>
<path d="M36.8905 29.1536V42.7206C36.8905 43.9358 36.6691 45.0985 36.2657 46.1719H17.9001C17.4967 45.0984 17.2753 43.9358 17.2753 42.7206V29.1536H36.8905Z" fill="#FF9DD3"/>
<path d="M27.0833 42.3257C29.6269 42.3257 31.6888 40.2638 31.6888 37.7202C31.6888 35.1766 29.6269 33.1146 27.0833 33.1146C24.5397 33.1146 22.4777 35.1766 22.4777 37.7202C22.4777 40.2638 24.5397 42.3257 27.0833 42.3257Z" fill="#FFBD86"/>
<path d="M15.991 5.3406C15.4926 3.2784 13.6886 1.70128 11.5178 1.55159C9.11247 1.38574 7.041 2.9347 6.40386 5.09812C5.9922 6.49573 5.04652 7.68853 3.7171 8.28445C3.43102 8.41276 3.15706 8.50994 2.89759 8.58241C1.76052 8.89973 1.39342 10.3417 2.23241 11.1722C4.04073 12.9622 7.00809 14.5445 10.7963 11.7509C10.1143 13.1578 9.60753 14.6653 9.30838 16.2468L9.30956 16.2481H13.0824C14.1442 10.3888 17.7738 5.31874 22.8847 2.03025C20.3351 2.63615 17.9953 3.78284 15.991 5.3406Z" fill="#FB8978"/>
<path d="M20.894 44.0585C20.894 37.2234 21.0304 32.4526 21.9878 29.1536H17.2753V42.7206C17.2753 43.9358 17.4967 45.0985 17.9001 46.1719H20.9704C20.9204 45.4763 20.894 44.7715 20.894 44.0585Z" fill="#FF88CA"/>
<path d="M45.1739 19.6305C45.1739 22.7378 44.3908 25.6619 43.0115 28.2159C39.9542 33.8747 33.968 37.7199 27.0833 37.7199C20.1986 37.7199 14.2125 33.8747 11.1552 28.2159C9.77585 25.6619 8.99281 22.7379 8.99281 19.6305C8.99281 18.4737 9.10116 17.3432 9.30943 16.2471L9.31061 16.2483C9.31061 16.2483 16.1227 5.06025 27.0835 13.8943C38.0442 5.06025 44.8563 16.2483 44.8563 16.2483L44.8575 16.2471C45.0655 17.3432 45.1739 18.4737 45.1739 19.6305Z" fill="#FED2A4"/>
<path d="M17.2751 26.8618C19.2738 26.8618 20.894 25.5715 20.894 23.9798C20.894 22.3882 19.2738 21.0979 17.2751 21.0979C15.2765 21.0979 13.6562 22.3882 13.6562 23.9798C13.6562 25.5715 15.2765 26.8618 17.2751 26.8618Z" fill="#FF889E"/>
<path d="M36.8908 26.8618C38.8894 26.8618 40.5097 25.5715 40.5097 23.9798C40.5097 22.3882 38.8894 21.0979 36.8908 21.0979C34.8921 21.0979 33.2719 22.3882 33.2719 23.9798C33.2719 25.5715 34.8921 26.8618 36.8908 26.8618Z" fill="#FF889E"/>
<path d="M33.6318 53.1399V57.31C33.6318 58.2145 33.2653 59.0333 32.6726 59.626C32.0799 60.2187 31.2624 60.5852 30.3578 60.5852C28.5489 60.5852 27.0826 59.1191 27.0826 57.31V53.1399H33.6318Z" fill="#FFBD86"/>
<path d="M27.0827 53.1399V57.31C27.0827 58.2145 26.7162 59.0333 26.1235 59.626C25.5308 60.2187 24.7121 60.5852 23.8076 60.5852C21.9998 60.5852 20.5336 59.1191 20.5336 57.31V53.1399H23.7563H27.0827Z" fill="#FED2A4"/>
<path d="M12.7611 19.8182C12.7611 16.8755 13.4037 14.07 14.5656 11.5096C11.191 13.1599 9.31033 16.2481 9.31033 16.2481L9.30915 16.247C9.30903 16.2475 9.30891 16.2481 9.30879 16.2487C9.20567 16.2414 9.101 16.2364 8.99277 16.2364C6.4272 16.2364 4.34753 18.3162 4.34753 20.8816C4.34753 23.4472 6.42732 25.527 8.99277 25.527C9.33409 25.527 9.64928 25.4891 9.94047 25.4192C10.2684 26.3907 10.6746 27.3261 11.155 28.2157C13.4229 32.4134 17.3031 35.6112 21.9655 36.9837C16.3635 33.0008 12.7611 26.7929 12.7611 19.8182Z" fill="#FFBD86"/>
<path d="M22.3685 53.1399H20.5335V57.31C20.5335 59.1189 21.9997 60.5851 23.8074 60.5851C24.6105 60.5851 25.3456 60.2956 25.9154 59.8158C24.4402 57.9206 23.2307 55.6588 22.3685 53.1399Z" fill="#FFBD86"/>
<path d="M17.6625 21.7351C18.1546 21.7351 18.5535 21.3361 18.5535 20.844C18.5535 20.3856 18.9266 20.0125 19.3851 20.0125C19.8435 20.0125 20.2166 20.3856 20.2166 20.844C20.2166 21.3361 20.6155 21.7351 21.1076 21.7351C21.5997 21.7351 21.9986 21.3361 21.9986 20.844C21.9986 19.4029 20.8261 18.2306 19.3851 18.2306C17.944 18.2306 16.7716 19.4029 16.7716 20.844C16.7715 21.3361 17.1703 21.7351 17.6625 21.7351Z" fill="black"/>
<path d="M33.06 21.7351C33.5521 21.7351 33.951 21.3361 33.951 20.844C33.951 20.3856 34.3241 20.0125 34.7826 20.0125C35.241 20.0125 35.6141 20.3856 35.6141 20.844C35.6141 21.3361 36.013 21.7351 36.5051 21.7351C36.9972 21.7351 37.3961 21.3361 37.3961 20.844C37.3961 19.4029 36.2236 18.2306 34.7826 18.2306C33.3415 18.2306 32.1691 19.4029 32.1691 20.844C32.169 21.3361 32.5679 21.7351 33.06 21.7351Z" fill="black"/>
<path d="M29.5826 23.4427C29.9059 23.0717 29.8673 22.5089 29.4963 22.1855C29.1252 21.8621 28.5625 21.9009 28.2391 22.2719C27.6281 22.9729 26.541 22.975 25.9282 22.2719C25.6048 21.9009 25.0421 21.8622 24.6712 22.1855C24.3001 22.5088 24.2615 23.0717 24.5848 23.4427C25.9046 24.9572 28.2589 24.9616 29.5826 23.4427Z" fill="black"/>
<path d="M9.03686 13.7312C8.86329 14.264 8.7124 14.8081 8.58516 15.3622C5.72246 15.572 3.45699 17.9665 3.45699 20.8819C3.45699 24.057 6.14291 26.6119 9.35026 26.4053C9.76869 27.5039 10.2301 28.4324 10.7772 29.3493C9.60712 29.3685 8.50343 29.8741 7.72871 30.752C6.36614 32.2958 6.34369 34.636 7.67667 36.1956C8.5077 37.1679 9.42737 38.0916 10.4101 38.941C10.7824 39.2627 11.3451 39.222 11.6668 38.8497C11.9887 38.4773 11.9478 37.9147 11.5755 37.5928C10.6603 36.8017 9.80433 35.942 9.03139 35.0377C8.27188 34.1489 8.28625 32.8135 9.0649 31.9312C10.0052 30.8657 11.7154 30.8842 12.6441 31.9526C13.744 33.2414 15.0034 34.3686 16.3854 35.3111V40.8232C15.6386 40.444 14.9074 40.023 14.2006 39.5645C13.7876 39.2968 13.2359 39.4144 12.9681 39.8273C12.7004 40.2401 12.818 40.792 13.2309 41.0598C14.2433 41.7163 15.3027 42.3014 16.387 42.8043C16.3966 44.0697 16.6243 45.3078 17.0669 46.4857C17.62 47.9575 18.5068 49.3057 19.6436 50.4077V57.31C19.6436 59.6072 21.512 61.4761 23.8086 61.4761C25.075 61.4761 26.2734 60.9125 27.0852 59.8821C27.8486 60.8517 29.0318 61.4761 30.3588 61.4761C32.6601 61.4761 34.5239 59.6129 34.5239 57.31C34.5239 55.0036 34.5239 52.7106 34.5239 50.4088C35.5932 49.3812 36.5252 48.015 37.1006 46.4854C37.5434 45.3075 37.771 44.069 37.7805 42.8032C41.1015 41.2629 44.1038 38.9883 46.4908 36.1955C47.8236 34.636 47.8012 32.2957 46.4386 30.752C45.6639 29.8743 44.556 29.367 43.3902 29.3491C43.9365 28.4339 44.398 27.5055 44.8172 26.4053C48.0237 26.6119 50.7104 24.0577 50.7104 20.8819C50.7104 17.9665 48.4447 15.5719 45.5819 15.3622C44.55 10.8623 41.9279 6.9193 38.1388 4.19988C37.7391 3.91297 37.1824 4.00445 36.8954 4.40422C36.6085 4.804 36.7 5.36071 37.0998 5.64762C39.5962 7.43931 41.5341 9.81586 42.7655 12.5461C38.3228 8.7471 32.8446 8.40827 27.0839 12.7637C21.831 8.79118 16.2631 8.39176 11.407 12.5383C14.1321 6.5099 20.2158 2.43065 27.0839 2.43065C29.5096 2.43065 31.8546 2.92559 34.0539 3.90168C34.5037 4.10127 35.0302 3.89859 35.2297 3.4488C35.4294 2.99901 35.2266 2.47247 34.7768 2.27288C32.3485 1.19509 29.7602 0.648591 27.0839 0.648591C23.1644 0.648591 19.4807 1.84958 16.4195 3.92877C15.5097 2.0936 13.6632 0.806481 11.5803 0.662847C8.81077 0.472048 6.33193 2.19245 5.5502 4.84677C5.1446 6.22335 4.18716 7.29757 2.6591 7.72456C0.864925 8.2252 0.279459 10.4921 1.60662 11.8057C3.70862 13.8866 6.26255 14.7554 9.03686 13.7312ZM26.5246 14.5882C26.8509 14.8513 27.3165 14.8513 27.6429 14.5882C31.2798 11.657 35.3838 10.2721 39.5062 12.4658C42.0388 13.8153 43.6328 16.0212 44.0129 16.586C46.6021 31.0409 30.892 42.2916 17.7555 34.0813C17.2794 33.722 16.013 33.0649 13.965 30.7561C10.5327 26.7096 9.27351 21.473 10.1546 16.5853C13.9362 10.9485 20.2335 9.51933 26.5246 14.5882ZM18.1672 42.228V36.3891C19.2133 36.9467 20.3734 37.4324 21.5891 37.7997C21.6319 40.7939 24.0795 43.217 27.0837 43.217C30.088 43.217 32.5356 40.794 32.5782 37.7997C33.7178 37.4555 34.8688 36.9918 36.0001 36.3891V42.7208C36.0001 43.5949 35.8748 44.4536 35.627 45.281H18.5402C18.07 43.7108 18.183 42.5095 18.1672 42.228ZM30.7602 38.253C30.5011 40.0498 28.951 41.435 27.0837 41.435C25.2162 41.435 23.6663 40.0498 23.4073 38.253C25.8226 38.7281 28.3614 38.7263 30.7602 38.253ZM8.76907 24.6295C6.80299 24.5131 5.23905 22.8767 5.23905 20.8819C5.23905 19.0638 6.53805 17.5435 8.25667 17.2002C7.95241 19.5508 8.09296 22.147 8.76907 24.6295ZM23.8085 59.6942C22.4945 59.6942 21.4255 58.6247 21.4255 57.3101V54.0311H26.1925V57.3101C26.1926 58.6279 25.1265 59.6942 23.8085 59.6942ZM32.7416 57.3101C32.7416 58.6292 31.6739 59.6942 30.3586 59.6942C29.044 59.6942 27.9746 58.6247 27.9746 57.3101V54.0311H32.7416V57.3101ZM33.3882 49.0266C33.0643 49.3506 32.7417 49.5293 32.7417 50.0208V52.249H27.9747V49.2698C27.9747 48.7777 27.5759 48.3788 27.0837 48.3788C26.5916 48.3788 26.1926 48.7777 26.1926 49.2698V52.249H21.4256V50.0208C21.4256 49.768 21.3182 49.527 21.1302 49.358C20.3955 48.6978 19.7741 47.9186 19.2951 47.063H34.8717C34.4702 47.78 33.9687 48.4455 33.3882 49.0266ZM45.1024 31.9312C45.8811 32.8135 45.8956 34.1489 45.1359 35.0377C43.0958 37.4246 40.5735 39.4059 37.7822 40.8233V35.3111C39.1642 34.3684 40.4239 33.241 41.5238 31.952C42.4675 30.8672 44.1482 30.8502 45.1024 31.9312ZM48.9282 20.882C48.9282 22.8768 47.3642 24.5132 45.3981 24.6297C46.1043 22.0403 46.039 19.9978 46.0652 19.6307C46.0652 18.8085 46.0057 17.9435 45.9106 17.2004C47.6291 17.5436 48.9282 19.0639 48.9282 20.882ZM3.13824 9.44092C5.28158 8.84238 6.68905 7.28724 7.25955 5.35026C7.80332 3.50404 9.52954 2.30805 11.4574 2.44087C13.0198 2.54862 14.3918 3.58341 14.9596 5.02474C12.9455 6.69488 11.2766 8.77942 10.0884 11.1635C7.52745 12.9624 5.0966 12.7529 2.86024 10.5393C2.50478 10.1875 2.66231 9.57374 3.13824 9.44092Z" fill="black"/>
</svg>
