<svg width="58" height="58" viewBox="0 0 58 58" fill="none" xmlns="http://www.w3.org/2000/svg">
<path d="M28.7417 28.0089C36.2017 28.0089 42.2493 21.9613 42.2493 14.5013C42.2493 7.04131 36.2017 0.993774 28.7417 0.993774C21.2817 0.993774 15.2342 7.04131 15.2342 14.5013C15.2342 21.9613 21.2817 28.0089 28.7417 28.0089Z" fill="#F9D888"/>
<path d="M28.7417 23.9284C33.9482 23.9284 38.1688 19.7078 38.1688 14.5013C38.1688 9.29488 33.9482 5.07422 28.7417 5.07422C23.5353 5.07422 19.3146 9.29488 19.3146 14.5013C19.3146 19.7078 23.5353 23.9284 28.7417 23.9284Z" fill="#FCCB88"/>
<path d="M28.7417 19.848C31.6946 19.848 34.0884 17.4542 34.0884 14.5013C34.0884 11.5484 31.6946 9.15466 28.7417 9.15466C25.7888 9.15466 23.3951 11.5484 23.3951 14.5013C23.3951 17.4542 25.7888 19.848 28.7417 19.848Z" fill="#F9D888"/>
<path d="M23.4695 4.47308C23.4695 3.62898 23.5316 2.79936 23.6493 1.98779C18.7139 3.99849 15.2346 8.84314 15.2346 14.5011C15.2346 21.9611 21.2822 28.0087 28.7422 28.0087C33.5822 28.0087 37.8269 25.4625 40.2119 21.6371C30.9267 21.4104 23.4695 13.8127 23.4695 4.47308Z" fill="#FCCB88"/>
<path d="M23.6009 6.60535C21.023 8.28954 19.3146 11.1988 19.3146 14.5013C19.3146 19.6994 23.5436 23.9284 28.7417 23.9284C31.4688 23.9284 33.928 22.7631 35.6509 20.9057C29.2582 18.9679 24.4429 13.403 23.6009 6.60535Z" fill="#FBC072"/>
<path d="M24.739 10.962C23.9037 11.9056 23.3951 13.1449 23.3951 14.5013C23.3951 17.4494 25.7935 19.8479 28.7417 19.8479C29.7737 19.8479 30.7378 19.5532 31.5558 19.0447C28.5142 17.1448 26.1107 14.3193 24.739 10.962Z" fill="#FCCB88"/>
<path d="M39.8654 39.068C47.3254 39.068 53.3729 33.0204 53.3729 25.5604C53.3729 18.1004 47.3254 12.0529 39.8654 12.0529C32.4054 12.0529 26.3578 18.1004 26.3578 25.5604C26.3578 33.0204 32.4054 39.068 39.8654 39.068Z" fill="#FCCB88"/>
<path d="M39.8654 34.9875C45.0718 34.9875 49.2925 30.7669 49.2925 25.5604C49.2925 20.354 45.0718 16.1333 39.8654 16.1333C34.6589 16.1333 30.4382 20.354 30.4382 25.5604C30.4382 30.7669 34.6589 34.9875 39.8654 34.9875Z" fill="#F9D888"/>
<path d="M34.5927 15.5323C34.5927 14.6882 34.6548 13.8586 34.7724 13.047C29.8371 15.0577 26.3578 19.9023 26.3578 25.5603C26.3578 33.0203 32.4054 39.0679 39.8654 39.0679C44.7053 39.0679 48.95 36.5217 51.335 32.6963C42.0499 32.4695 34.5927 24.8719 34.5927 15.5323Z" fill="#FBC072"/>
<path d="M34.7245 17.6644C32.1466 19.3486 30.4382 22.2579 30.4382 25.5603C30.4382 30.7585 34.6672 34.9874 39.8654 34.9874C42.5925 34.9874 45.0517 33.8222 46.7745 31.9648C40.3818 30.027 35.5665 24.4621 34.7245 17.6644Z" fill="#FCCB88"/>
<path d="M17.6185 39.068C25.0786 39.068 31.1261 33.0204 31.1261 25.5604C31.1261 18.1004 25.0786 12.0529 17.6185 12.0529C10.1585 12.0529 4.11099 18.1004 4.11099 25.5604C4.11099 33.0204 10.1585 39.068 17.6185 39.068Z" fill="#F9D888"/>
<path d="M12.3459 15.5323C12.3459 14.6882 12.4079 13.8586 12.5256 13.047C7.59026 15.0577 4.11099 19.9023 4.11099 25.5603C4.11099 33.0203 10.1586 39.0679 17.6185 39.0679C22.4585 39.0679 26.7032 36.5217 29.0882 32.6963C19.8031 32.4695 12.3459 24.8719 12.3459 15.5323Z" fill="#FCCB88"/>
<path d="M17.6185 34.9875C22.825 34.9875 27.0456 30.7669 27.0456 25.5604C27.0456 20.354 22.825 16.1333 17.6185 16.1333C12.4121 16.1333 8.19144 20.354 8.19144 25.5604C8.19144 30.7669 12.4121 34.9875 17.6185 34.9875Z" fill="#FCCB88"/>
<path d="M12.4777 17.6644C9.8997 19.3486 8.19144 22.2579 8.19144 25.5603C8.19144 30.7585 12.4204 34.9874 17.6185 34.9874C20.3456 34.9874 22.8048 33.8222 24.5277 31.9648C18.135 30.027 13.3197 24.4621 12.4777 17.6644Z" fill="#FBC072"/>
<path d="M17.6185 30.9071C20.5714 30.9071 22.9652 28.5133 22.9652 25.5604C22.9652 22.6075 20.5714 20.2137 17.6185 20.2137C14.6657 20.2137 12.2719 22.6075 12.2719 25.5604C12.2719 28.5133 14.6657 30.9071 17.6185 30.9071Z" fill="#F9D888"/>
<path d="M39.8649 30.9071C42.8178 30.9071 45.2115 28.5133 45.2115 25.5604C45.2115 22.6075 42.8178 20.2137 39.8649 20.2137C36.912 20.2137 34.5182 22.6075 34.5182 25.5604C34.5182 28.5133 36.912 30.9071 39.8649 30.9071Z" fill="#FCCB88"/>
<path d="M16.496 49.2389V52.2608C16.496 54.5335 18.3384 56.3758 20.611 56.3758H36.872C39.1446 56.3758 40.987 54.5335 40.987 52.2608V49.2389L28.7415 40.5844L16.496 49.2389Z" fill="#FFEFE0"/>
<path d="M13.6154 22.021C12.7801 22.9646 12.2714 24.2039 12.2714 25.5602C12.2714 28.5084 14.6699 30.9069 17.6181 30.9069C18.65 30.9069 19.6141 30.6121 20.4322 30.1037C17.3905 28.2037 14.987 25.3782 13.6154 22.021Z" fill="#FCCB88"/>
<path d="M35.8622 22.0211C35.0269 22.9647 34.5182 24.204 34.5182 25.5603C34.5182 28.5085 36.9167 30.907 39.8649 30.907C40.8969 30.907 41.861 30.6123 42.679 30.1038C39.6372 28.2037 37.2337 25.3784 35.8622 22.0211Z" fill="#FBC072"/>
<path d="M52.9267 24.298H4.55702C2.47356 24.298 0.846304 26.1296 1.12789 28.194C1.30195 29.4702 1.56037 30.7177 1.89712 31.9299L28.7418 40.5844L55.5867 31.9299C55.9233 30.7177 56.1817 29.4702 56.3559 28.194C56.6375 26.1296 55.0102 24.298 52.9267 24.298Z" fill="#FFEFE0"/>
<path d="M14.235 32.6352C14.235 29.5804 14.3708 26.7833 14.8822 24.298H4.55702C2.47345 24.298 0.846305 26.1296 1.1279 28.1939C1.30195 29.4701 1.56037 30.7175 1.89712 31.9298L14.4391 35.9732C14.3052 34.8538 14.235 33.7374 14.235 32.6352Z" fill="#FBE5C8"/>
<path d="M18.3751 47.9109L16.496 49.2389V52.2609C16.496 54.5336 18.3384 56.3759 20.611 56.3759H25.7947C22.8147 54.2652 20.2944 51.3011 18.3751 47.9109Z" fill="#FBE5C8"/>
<path d="M53.5464 37.1624C54.3904 35.5134 55.0784 33.7618 55.5867 31.9298H1.89706C2.40553 33.7617 3.09341 35.5133 3.9374 37.1624L8.48252 40.4351L10.2715 45.2603C12.1434 46.8803 14.2374 48.2261 16.4962 49.2384H40.9874C43.2462 48.2261 45.3402 46.8803 47.2122 45.2603L49.0012 40.4351L53.5464 37.1624Z" fill="#FC2429"/>
<path d="M32.6855 38.3098L32.6857 38.3049C32.801 36.2188 30.4956 34.8874 28.7463 36.03L28.7419 36.0329L28.7373 36.0299C26.9881 34.8873 24.6826 36.2187 24.7979 38.3048L24.7982 38.3097C22.9336 39.253 22.9336 41.9158 24.7982 42.859L24.7979 42.8639C24.6826 44.9501 26.988 46.2815 28.7373 45.1388L28.7419 45.1358L28.7464 45.1388C30.4956 46.2815 32.8012 44.9501 32.6858 42.8639L32.6856 42.859C34.5501 41.9159 34.5501 39.2531 32.6855 38.3098Z" fill="#F9D888"/>
<path d="M14.235 32.6352C14.235 32.3984 14.2359 32.1635 14.2377 31.9298H1.89706C2.40553 33.7617 3.09341 35.5133 3.9374 37.1622L8.48252 40.435L10.2715 45.2602C12.1435 46.8802 14.2374 48.226 16.4963 49.2383H19.1726C16.0431 44.311 14.235 38.2884 14.235 32.6352Z" fill="#F57275"/>
<path d="M11.6285 42.8587L11.6296 42.8642C11.6887 43.9458 11.0977 44.8243 10.2716 45.2603C7.69379 43.0304 5.53411 40.2809 3.9375 37.1623C4.52286 35.7865 6.28004 35.1153 7.68042 36.0295L7.68487 36.0329L7.68933 36.0295C9.43872 34.8878 11.7445 36.2191 11.6296 38.3052L11.6285 38.3096C12.5617 38.7812 13.0277 39.6833 13.0277 40.5842C13.0277 41.485 12.5617 42.3871 11.6285 42.8587Z" fill="#FCCB88"/>
<path d="M53.5465 37.1623C51.9499 40.2809 49.7903 43.0304 47.2125 45.2603C46.3863 44.8243 45.7954 43.9457 45.8544 42.8642L45.8556 42.8587C44.9223 42.3871 44.4563 41.485 44.4563 40.5842C44.4563 39.6833 44.9223 38.7813 45.8556 38.3096L45.8544 38.3052C45.7396 36.2191 48.0453 34.8879 49.7947 36.0295L49.7992 36.0329L49.8036 36.0295C51.204 35.1153 52.9612 35.7865 53.5465 37.1623Z" fill="#F9D888"/>
<path d="M33.5105 37.8347C33.2905 35.5332 30.8538 34.1193 28.7429 35.0812C26.6393 34.1209 24.1967 35.525 23.9747 37.8345C23.094 38.4639 22.5645 39.4772 22.5645 40.5845C22.5645 41.6916 23.0938 42.7048 23.9741 43.3343C24.0773 44.4138 24.6905 45.3815 25.6508 45.9361C26.6106 46.4904 27.7542 46.5382 28.7419 46.0879C29.7349 46.5413 30.8794 46.4871 31.8336 45.9361C32.793 45.3821 33.4059 44.4159 33.5098 43.3346C34.3905 42.7051 34.92 41.6917 34.92 40.5845C34.9201 39.4773 34.3908 38.4642 33.5105 37.8347ZM32.3086 42.1133C32.0125 42.2631 31.8333 42.5787 31.8516 42.91C31.8881 43.5686 31.5688 44.1586 30.9977 44.4885C30.4266 44.8182 29.756 44.7998 29.1978 44.4352C28.9202 44.2547 28.5577 44.2581 28.2806 44.4391C27.7285 44.7997 27.058 44.8182 26.4868 44.4884C25.9157 44.1585 25.5964 43.5685 25.6331 42.9051C25.6514 42.5738 25.472 42.2631 25.1759 42.1133C24.5873 41.8155 24.2359 41.244 24.2359 40.5843C24.2359 39.9246 24.5872 39.3532 25.1759 39.0555C25.472 38.9057 25.6512 38.59 25.6329 38.2586C25.5561 36.8715 27.087 35.9498 28.286 36.733C28.5637 36.9139 28.9265 36.9107 29.204 36.7295C30.3807 35.9609 31.9296 36.8529 31.8517 38.2586L31.8515 38.2635C31.8332 38.5949 32.0126 38.9056 32.3087 39.0555C32.8973 39.3532 33.2488 39.9247 33.2488 40.5843C33.2488 41.2439 32.8973 41.8155 32.3086 42.1133Z" fill="black"/>
<path d="M3.19362 37.5428C3.19362 37.5429 3.19362 37.5429 3.19362 37.5428C3.19362 37.5429 3.19373 37.5429 3.19362 37.5428C4.8397 40.7578 7.03705 43.5668 9.7247 45.8919C12.4123 48.2169 9.72481 45.8919 9.72481 45.892H9.72492C11.537 47.4602 13.5318 48.7636 15.6608 49.7724V52.2605C15.6608 54.9904 17.8817 57.2112 20.6116 57.2112H36.8725C39.6024 57.2112 41.8233 54.9904 41.8233 52.2605V49.7724C43.9522 48.7635 45.9471 47.4602 47.7591 45.892H47.7592C47.7592 45.892 47.7593 45.892 47.7593 45.8919C50.4469 43.5668 52.6444 40.7578 54.2904 37.5429C55.7658 34.6602 56.7429 31.542 57.1841 28.3067C57.4729 26.1892 56.136 24.1895 54.0767 23.6187C53.6286 20.3109 52.0403 17.2668 49.5613 14.991C47.6353 13.2229 45.2909 12.0327 42.772 11.5134C42.1189 8.43851 40.4556 5.64066 38.0451 3.58427C35.4551 1.37456 32.1512 0.157715 28.742 0.157715C27.027 0.157715 25.3482 0.458026 23.7525 1.05029C23.3198 1.21087 23.0992 1.69192 23.2599 2.12462C23.4205 2.55742 23.9015 2.77795 24.3342 2.61737C25.7431 2.09431 27.2261 1.82921 28.742 1.82921C31.7539 1.82921 34.6725 2.90409 36.9603 4.85583C38.9329 6.53858 40.3393 8.78228 40.9946 11.2613C40.6281 11.2326 40.1963 11.2169 39.8655 11.2169C39.4065 11.2169 38.9338 11.241 38.4858 11.2842C37.1079 7.10087 33.2024 4.23827 28.742 4.23827C24.2821 4.23827 20.3769 7.10054 18.9986 11.2833C18.5669 11.2417 18.062 11.2169 17.6187 11.2169C17.2988 11.2169 16.8708 11.2317 16.4903 11.2612C17.2465 8.41544 19.0062 5.86675 21.4323 4.14991C21.809 3.88325 21.8983 3.36174 21.6317 2.98488C21.3651 2.60812 20.8435 2.51886 20.4667 2.78541C17.5305 4.8633 15.4576 8.01964 14.713 11.5131C8.78454 12.7348 4.22448 17.5868 3.40735 23.6186C1.34796 24.1895 0.0112087 26.1892 0.300043 28.3065C0.741317 31.5415 1.71747 34.6589 3.19362 37.5428ZM4.88606 37.1728C5.12475 36.8462 5.45247 36.625 5.80037 36.5195C6.04039 36.4465 6.28543 36.4279 6.52423 36.462C7.18815 36.5541 7.27095 36.9329 7.80148 36.8585C7.92372 36.8413 8.04295 36.7974 8.14948 36.7271C8.71879 36.3572 9.3904 36.3625 9.94088 36.6805C10.5034 37.0054 10.8218 37.5827 10.7967 38.2291C10.7625 38.5815 10.959 38.9075 11.2517 39.0553C11.8347 39.3501 12.1922 39.9177 12.1922 40.584C12.1922 41.2434 11.8406 41.815 11.2517 42.1126C11.1529 42.1624 11.0484 42.2438 10.9688 42.3473C10.6496 42.7629 10.9285 43.0487 10.6659 43.67C10.5817 43.8688 10.4638 44.0405 10.3225 44.1877C8.12943 42.1897 6.30371 39.8343 4.88606 37.1728ZM40.1518 52.2606C40.1518 54.0688 38.6806 55.5398 36.8725 55.5398H20.6116C18.8034 55.5398 17.3323 54.0688 17.3323 52.2606V50.0743H40.1518V52.2606ZM40.8073 48.4023H16.6768C14.8742 47.5784 13.1705 46.5294 11.599 45.2763C11.904 44.9397 12.1368 44.542 12.2786 44.1377C12.3981 43.7974 12.4219 43.5579 12.4546 43.3325C13.3204 42.7134 13.8636 41.7049 13.8636 40.5838C13.8636 39.4878 13.3433 38.4703 12.4539 37.8345C12.3505 36.7552 11.7349 35.7862 10.7768 35.2329C9.79858 34.6678 8.64725 34.6414 7.68514 35.0802C6.94233 34.7414 6.10224 34.6806 5.3143 34.9201C5.31029 34.9213 5.30639 34.9227 5.30248 34.9241C4.84706 35.0643 4.43777 35.2948 4.10213 35.5753C3.69005 34.6604 3.32845 33.7212 3.02034 32.7652H54.4642C54.1561 33.7211 53.7945 34.6604 53.3824 35.5753C53.0487 35.2959 52.6365 35.063 52.1766 34.9223C52.1744 34.9216 52.1722 34.9207 52.1701 34.9201C51.3824 34.6807 50.5425 34.7413 49.7994 35.0802C48.78 34.6152 47.6324 34.6988 46.7075 35.2329C45.7465 35.7879 45.1338 36.7558 45.0305 37.8345C44.15 38.4639 43.6208 39.4768 43.6208 40.5838C43.6208 41.6904 44.1497 42.7031 45.0298 43.3325V43.3327C45.0988 44.0705 45.4109 44.7557 45.8854 45.2761C44.3136 46.5294 42.6099 47.5784 40.8073 48.4023ZM47.1612 44.1878C46.8319 43.8467 46.6686 43.4046 46.6876 42.9361C46.7193 42.599 46.543 42.2693 46.2324 42.1124C45.6435 41.8148 45.2919 41.2433 45.2919 40.5838C45.2919 39.9341 45.6355 39.3566 46.2324 39.0551C46.5378 38.9006 46.711 38.5778 46.6883 38.2482C46.6559 37.5896 46.979 37.0062 47.5432 36.6804C47.9507 36.445 48.4294 36.3774 48.8904 36.5186C48.8916 36.5189 48.8926 36.5191 48.8937 36.5195C49.3777 36.6686 49.6457 37.1114 50.3005 36.7055C51.1086 36.2065 52.096 36.4673 52.5979 37.1727C51.1803 39.8344 49.3544 42.1901 47.1612 44.1878ZM28.742 16.5054C27.5849 15.086 26.1455 13.8744 24.498 12.9727C25.1344 11.2127 26.8303 9.98999 28.7419 9.98999C30.6539 9.98999 32.35 11.213 32.9862 12.9733C31.3155 13.8886 29.8694 15.1229 28.742 16.5054ZM35.8712 23.4619C36.6351 22.0011 38.1544 21.049 39.8654 21.049C41.5763 21.049 43.0957 22.001 43.8596 23.4619H35.8712ZM13.6245 23.4619C14.3884 22.0011 15.9078 21.049 17.6187 21.049C19.3297 21.049 20.849 22.001 21.6129 23.4619H13.6245ZM23.4326 23.4619C22.5581 21.0272 20.2549 19.3775 17.6187 19.3775C14.9824 19.3775 12.6792 21.0272 11.8048 23.4619H9.28922C10.2367 19.7 13.6618 16.9686 17.6188 16.9686C21.5758 16.9686 25.0008 19.7 25.9484 23.4619H23.4326ZM52.3634 23.4619H49.9087C49.5893 21.936 48.9211 20.4934 47.9528 19.2534C47.6688 18.8897 47.1436 18.8249 46.7798 19.1091C46.416 19.3931 46.3514 19.9184 46.6355 20.2821C47.3735 21.2272 47.9037 22.3122 48.1944 23.4619H45.6794C44.8049 21.0272 42.5017 19.3775 39.8655 19.3775C37.2292 19.3775 34.926 21.0272 34.0516 23.4619H31.8082C31.7885 23.3281 31.742 23.0469 31.7094 22.8742C32.2544 21.2261 33.3132 19.7485 34.7077 18.6961C36.2053 17.566 37.9888 16.9687 39.8655 16.9687C41.4624 16.9687 43.0229 17.4134 44.3785 18.2547C44.7708 18.4981 45.2859 18.3775 45.5294 17.9854C45.7728 17.5932 45.6522 17.078 45.2601 16.8345C43.6397 15.8288 41.7743 15.2973 39.8656 15.2973C37.6227 15.2973 35.491 16.0113 33.7009 17.3621C32.6103 18.1851 31.6921 19.227 31.0051 20.4013C30.6717 19.5358 30.254 18.705 29.7588 17.9194C32.1608 14.7483 35.9009 12.8884 39.8656 12.8884C43.0246 12.8884 46.0726 14.0572 48.4311 16.2223C50.5258 18.1453 51.901 20.6883 52.3634 23.4619ZM28.742 5.90965C32.382 5.90965 35.582 8.18656 36.8093 11.5454C36.041 11.7121 35.198 11.9776 34.5018 12.2587C33.5895 9.92625 31.3081 8.3185 28.742 8.3185C26.1771 8.3185 23.8965 9.92491 22.9834 12.2558C22.2367 11.9546 21.4648 11.7165 20.675 11.5449C21.9024 8.18634 25.1023 5.90965 28.742 5.90965ZM17.6187 12.8882C23.5955 12.8882 29.0098 17.1202 30.1149 23.4619H27.6603C26.6789 18.7593 22.4869 15.2971 17.6187 15.2971C12.7504 15.2971 8.55844 18.7593 7.57716 23.4619H5.12085C6.13188 17.3958 11.4005 12.8882 17.6187 12.8882ZM4.55722 25.1334H52.927C54.5084 25.1334 55.7404 26.5241 55.528 28.0807C55.3899 29.0937 55.1939 30.1046 54.944 31.0938H2.54018C2.29034 30.1047 2.09433 29.0939 1.95605 28.0807C1.74399 26.5254 2.97398 25.1334 4.55722 25.1334Z" fill="black"/>
</svg>
