<svg width="50" height="58" viewBox="0 0 50 58" fill="none" xmlns="http://www.w3.org/2000/svg">
<path d="M41.6326 37.8556H20.7391C19.4311 37.8556 18.3706 36.7951 18.3706 35.4871V3.31887C18.3706 2.01079 19.4311 0.950317 20.7391 0.950317H41.6326C43.9889 0.950317 45.899 2.86054 45.899 5.21687V33.5891C45.899 35.9454 43.9889 37.8556 41.6326 37.8556Z" fill="#5EC783"/>
<path d="M40.699 34.8721H21.7894C20.6384 34.8721 19.7053 33.939 19.7053 32.788V6.01763C19.7053 4.86658 20.6384 3.93347 21.7894 3.93347H40.699C41.85 3.93347 42.7831 4.86658 42.7831 6.01763V32.788C42.7831 33.939 41.85 34.8721 40.699 34.8721Z" fill="#FCF2D0"/>
<path d="M33.9311 37.8556H9.81184C8.50376 37.8556 7.44329 36.7951 7.44329 35.4871V3.31887C7.44329 2.01079 8.50376 0.950317 9.81184 0.950317H33.9311C36.2875 0.950317 38.1976 2.86054 38.1976 5.21687V33.5891C38.1977 35.9454 36.2875 37.8556 33.9311 37.8556Z" fill="#89D47F"/>
<path d="M33.9311 37.8556H9.81184C8.50376 37.8556 7.44329 36.7951 7.44329 35.4871V3.31887C7.44329 2.01079 8.50376 0.950317 9.81184 0.950317H33.9311C36.2875 0.950317 38.1976 2.86054 38.1976 5.21687V33.5891C38.1977 35.9454 36.2875 37.8556 33.9311 37.8556Z" fill="#89D47F"/>
<path d="M15.1665 0.950317H9.81173C8.50365 0.950317 7.44318 2.01068 7.44318 3.31887V35.4871C7.44318 36.7951 8.50365 37.8556 9.81173 37.8556H19.7736C14.7373 32.2216 14.0976 13.9429 15.1665 0.950317Z" fill="#5EC783"/>
<path d="M31.3328 9.38229L30.19 8.67012C29.6661 8.3436 29.0021 8.3436 28.4781 8.67012L27.3352 9.38229C26.6819 9.78938 25.8357 9.31972 25.8357 8.54987V0.950317H32.8325V8.54987C32.8324 9.31972 31.9862 9.78949 31.3328 9.38229Z" fill="#F7EF87"/>
<path d="M13.6838 21.8814C15.5457 21.8814 17.0551 20.6794 17.0551 19.1967C17.0551 17.714 15.5457 16.512 13.6838 16.512C11.822 16.512 10.3126 17.714 10.3126 19.1967C10.3126 20.6794 11.822 21.8814 13.6838 21.8814Z" fill="white"/>
<path d="M31.9572 21.8814C33.8191 21.8814 35.3284 20.6794 35.3284 19.1967C35.3284 17.714 33.8191 16.512 31.9572 16.512C30.0953 16.512 28.586 17.714 28.586 19.1967C28.586 20.6794 30.0953 21.8814 31.9572 21.8814Z" fill="white"/>
<path d="M28.7176 26.3599H16.9235C15.6789 26.3599 14.6699 27.3689 14.6699 28.6135V30.2958C14.6699 31.5404 15.6789 32.5493 16.9235 32.5493H28.7176C29.9622 32.5493 30.9711 31.5404 30.9711 30.2958V28.6135C30.9712 27.3688 29.9622 26.3599 28.7176 26.3599Z" fill="white"/>
<path d="M15.7499 26.6921C15.103 27.0882 14.6699 27.7993 14.6699 28.6134V30.2956C14.6699 31.5403 15.6789 32.5493 16.9235 32.5493H17.0776C16.5312 30.816 16.0932 28.8348 15.7499 26.6921Z" fill="#FCF2D0"/>
<path d="M44.8682 46.869H5.66116C4.35108 46.869 3.28905 45.807 3.28905 44.4969V40.2275C3.28905 38.9174 4.35108 37.8553 5.66116 37.8553H44.8682C46.1783 37.8553 47.2403 38.9174 47.2403 40.2275V44.4969C47.2402 45.807 46.1783 46.869 44.8682 46.869Z" fill="#E8899E"/>
<path d="M18.1981 37.8555H5.66116C4.35108 37.8555 3.28905 38.9175 3.28905 40.2276V44.4969C3.28905 45.807 4.35108 46.869 5.66116 46.869H19.0994C17.744 45.1185 17.7208 39.8828 18.1981 37.8555Z" fill="#DE5C6E"/>
<path d="M34.2795 37.8556H38.9043V46.8691H34.2795V37.8556Z" fill="#F7EF87"/>
<path d="M45.7932 56.1854H3.60368C2.24959 56.1854 1.15189 55.0877 1.15189 53.7336V49.3208C1.15189 47.9667 2.24959 46.869 3.60368 46.869H45.7932C47.1473 46.869 48.245 47.9667 48.245 49.3208V53.7336C48.2449 55.0877 47.1472 56.1854 45.7932 56.1854Z" fill="#A3DEFE"/>
<path d="M45.7932 56.1854H3.60368C2.24959 56.1854 1.15189 55.0877 1.15189 53.7336V49.3208C1.15189 47.9667 2.24959 46.869 3.60368 46.869H45.7932C47.1473 46.869 48.245 47.9667 48.245 49.3208V53.7336C48.2449 55.0877 47.1472 56.1854 45.7932 56.1854Z" fill="#A3DEFE"/>
<path d="M17.1664 46.869H3.60368C2.24959 46.869 1.15189 47.9667 1.15189 49.3208V53.7336C1.15189 55.0877 2.24959 56.1854 3.60368 56.1854H18.0122C16.6045 54.3712 16.2534 49.9747 17.1664 46.869Z" fill="#7ACEFA"/>
<path d="M30.2595 49.9747H19.1373C18.5245 49.9747 18.0277 50.4715 18.0277 51.0843V51.9701C18.0277 52.5829 18.5245 53.0797 19.1373 53.0797H30.2595C30.8723 53.0797 31.3691 52.5829 31.3691 51.9701V51.0843C31.3692 50.4715 30.8723 49.9747 30.2595 49.9747Z" fill="white"/>
<path d="M7.43924 46.869H3.60368C2.24959 46.869 1.15189 47.9667 1.15189 49.3208V53.7336C1.15189 55.0877 2.24959 56.1854 3.60368 56.1854H7.43936V46.869H7.43924Z" fill="#F7EF87"/>
<path d="M41.9575 46.869H45.7931C47.1472 46.869 48.2449 47.9667 48.2449 49.3208V53.7336C48.2449 55.0877 47.1472 56.1854 45.7931 56.1854H41.9575V46.869Z" fill="#F7EF87"/>
<path d="M13.8278 43.1958H25.2646C25.725 43.1958 26.0982 42.8226 26.0982 42.3622C26.0982 41.9019 25.725 41.5287 25.2646 41.5287H13.8278C13.3675 41.5287 12.9943 41.9019 12.9943 42.3622C12.9943 42.8226 13.3675 43.1958 13.8278 43.1958ZM22.8204 19.7597C23.7137 19.7597 24.5631 19.3729 25.1509 18.6984C25.4533 18.3514 25.4172 17.8248 25.0701 17.5224C24.7232 17.22 24.1966 17.2561 23.8941 17.6032C23.623 17.9143 23.2316 18.0928 22.8203 18.0928C22.4091 18.0928 22.0177 17.9144 21.7466 17.6032C21.4442 17.256 20.9176 17.22 20.5706 17.5224C20.2236 17.8248 20.1874 18.3514 20.4899 18.6984C21.0777 19.3729 21.9271 19.7597 22.8204 19.7597ZM29.2212 16.2753C29.2212 15.85 29.5672 15.5042 29.9924 15.5042C30.4176 15.5042 30.7635 15.85 30.7635 16.2753C30.7635 16.7356 31.1367 17.1088 31.597 17.1088C32.0573 17.1088 32.4305 16.7356 32.4305 16.2753C32.4305 14.9308 31.3367 13.8371 29.9924 13.8371C28.6481 13.8371 27.5542 14.9308 27.5542 16.2753C27.5542 16.7356 27.9274 17.1088 28.3877 17.1088C28.848 17.1088 29.2212 16.7356 29.2212 16.2753ZM15.6485 13.8371C14.3041 13.8371 13.2104 14.9308 13.2104 16.2753C13.2104 16.7356 13.5836 17.1088 14.0439 17.1088C14.5042 17.1088 14.8774 16.7356 14.8774 16.2753C14.8774 15.85 15.2233 15.5042 15.6485 15.5042C16.0737 15.5042 16.4197 15.85 16.4197 16.2753C16.4197 16.7356 16.7929 17.1088 17.2532 17.1088C17.7135 17.1088 18.0867 16.7356 18.0867 16.2753C18.0867 14.9308 16.9929 13.8371 15.6485 13.8371ZM13.8363 28.6132V30.2955C13.8363 31.9977 15.2212 33.3826 16.9235 33.3826H28.7176C30.4198 33.3826 31.8047 31.9977 31.8047 30.2955V28.6132C31.8047 26.9111 30.4198 25.5262 28.7176 25.5262H16.9235C15.2212 25.5262 13.8363 26.9111 13.8363 28.6132ZM30.1375 28.6132V30.2955C30.1375 31.0785 29.5005 31.7155 28.7174 31.7155H16.9235C16.1404 31.7155 15.5034 31.0785 15.5034 30.2955V28.6132C15.5034 27.8303 16.1404 27.1933 16.9235 27.1933H28.7176C29.5005 27.1933 30.1375 27.8303 30.1375 28.6132ZM20.1618 30.288H25.4791C25.9395 30.288 26.3127 29.9148 26.3127 29.4544C26.3127 28.9941 25.9395 28.6209 25.4791 28.6209H20.1618C19.7014 28.6209 19.3282 28.9941 19.3282 29.4544C19.3282 29.9148 19.7014 30.288 20.1618 30.288ZM47.4015 46.4577C47.8223 45.9153 48.0737 45.2351 48.0737 44.497V40.2275C48.0737 38.6286 46.8969 37.2995 45.3639 37.0604C46.2121 36.1493 46.7324 34.9291 46.7324 33.589V5.21667C46.7325 2.40457 44.4447 0.116699 41.6326 0.116699H9.8118C8.04617 0.116699 6.60972 1.55315 6.60972 3.31878V5.14532C6.60972 5.60565 6.98292 5.97885 7.44325 5.97885C7.90358 5.97885 8.27677 5.60565 8.27677 5.14532V3.31878C8.27677 2.47236 8.96538 1.78376 9.8118 1.78376H25.0021V8.54978C25.0021 9.2086 25.36 9.81641 25.9359 10.1362C26.5119 10.4559 27.2171 10.4381 27.7761 10.0897L28.9189 9.37753C29.171 9.22038 29.497 9.22027 29.7491 9.37753L30.8919 10.0897C31.185 10.2723 31.5181 10.3641 31.8517 10.3641C32.1547 10.3641 32.4581 10.2884 32.7322 10.1363C33.3082 9.81652 33.6659 9.20871 33.6659 8.54989V1.78376H33.9311C35.824 1.78376 37.364 3.32378 37.364 5.21678V33.589C37.364 35.482 35.824 37.022 33.9311 37.022H9.8118C8.96538 37.022 8.27677 36.3334 8.27677 35.487V9.08768C8.27677 8.62735 7.90358 8.25416 7.44325 8.25416C6.98292 8.25416 6.60972 8.62735 6.60972 9.08768V35.487C6.60972 36.0429 6.75231 36.5659 7.00248 37.022H5.66105C3.89353 37.022 2.45553 38.46 2.45553 40.2275V44.497C2.45553 45.0862 2.61601 45.6384 2.89463 46.1134C1.42284 46.4385 0.318359 47.7527 0.318359 49.3209V53.7338C0.318359 55.5453 1.79215 57.019 3.60368 57.019H36.0622C36.5225 57.019 36.8957 56.6458 36.8957 56.1855C36.8957 55.7251 36.5225 55.3519 36.0622 55.3519H8.27277V47.7026H41.124V55.3518H39.9972C39.5369 55.3518 39.1637 55.725 39.1637 56.1854C39.1637 56.6457 39.5369 57.0189 39.9972 57.0189H45.7931C47.6046 57.0189 49.0783 55.5451 49.0783 53.7337V49.3208C49.0784 48.0934 48.4014 47.0217 47.4015 46.4577ZM31.9989 8.54978C31.9989 8.60735 31.9734 8.65069 31.9231 8.67859C31.8727 8.70648 31.8225 8.70526 31.7736 8.67481L30.6308 7.96264C29.8429 7.47175 28.8249 7.47175 28.0372 7.96264L26.8943 8.67481C26.8456 8.70526 26.7952 8.70648 26.7449 8.67859C26.6945 8.65058 26.6691 8.60724 26.6691 8.54978V1.78376H31.9989V8.54978ZM6.60572 55.3518H3.60357C2.71125 55.3518 1.9853 54.6259 1.9853 53.7337V49.3208C1.9853 48.4284 2.71125 47.7025 3.60357 47.7025H6.60572V55.3518ZM33.446 46.0354H5.66116C4.81285 46.0354 4.12269 45.3453 4.12269 44.4968V40.2274C4.12269 39.3791 4.81285 38.6889 5.66116 38.6889H33.446V46.0354ZM39.0102 4.76701H40.6989C41.3885 4.76701 41.9494 5.32803 41.9494 6.01763V32.788C41.9494 33.4776 41.3884 34.0386 40.6989 34.0386H39.0102C39.0232 33.8904 39.0312 33.7406 39.0312 33.589V5.21678C39.0311 5.06508 39.0232 4.91538 39.0102 4.76701ZM40.6989 35.7057C42.3077 35.7057 43.6165 34.3968 43.6165 32.788V6.01763C43.6165 4.40881 42.3076 3.09995 40.6989 3.09995H38.5692C38.3476 2.61617 38.0535 2.17229 37.6992 1.78376H41.6325C43.5255 1.78376 45.0655 3.32378 45.0655 5.21667V33.589C45.0655 35.4819 43.5255 37.0219 41.6325 37.0219C41.6321 37.0219 41.6318 37.0219 41.6313 37.0219H37.6992C38.0535 36.6333 38.3475 36.1894 38.5692 35.7056H40.6989V35.7057ZM38.0707 46.0354H35.113V38.689H38.0707V46.0354ZM39.7378 46.0354V38.689H44.8682C45.7165 38.689 46.4068 39.3792 46.4068 40.2275V44.497C46.4068 45.3453 45.7166 46.0355 44.8682 46.0355H39.7378V46.0354ZM47.4114 53.7337C47.4114 54.626 46.6854 55.3518 45.7932 55.3518H42.7911V47.7025H45.7932C46.6855 47.7025 47.4114 48.4284 47.4114 49.3208V53.7337ZM19.1373 49.1412C18.0658 49.1412 17.1942 50.0128 17.1942 51.0843V51.97C17.1942 53.0415 18.0658 53.9132 19.1373 53.9132H30.2595C31.3309 53.9132 32.2026 53.0415 32.2026 51.97V51.0843C32.2026 50.0128 31.3309 49.1412 30.2595 49.1412H19.1373ZM30.5355 51.0843V51.97C30.5355 52.1223 30.4117 52.2461 30.2595 52.2461H19.1373C18.9851 52.2461 18.8612 52.1223 18.8612 51.97V51.0843C18.8612 50.932 18.9851 50.8082 19.1373 50.8082H30.2595C30.4117 50.8082 30.5355 50.932 30.5355 51.0843Z" fill="black"/>
</svg>
