<svg width="54" height="54" viewBox="0 0 54 54" fill="none" xmlns="http://www.w3.org/2000/svg">
<path d="M33.0293 41.1963C31.7647 48.1517 29.7096 52.8941 27.1529 52.8941C24.5963 52.8941 22.5412 48.1517 21.2766 41.1963H33.0293Z" fill="#FAE0BD"/>
<path d="M22.9828 47.8584C24.3326 48.0613 25.7309 48.1678 27.1529 48.1678C28.5749 48.1678 29.9732 48.0613 31.3231 47.8584C31.9895 46.0227 32.5632 43.7601 33.0293 41.1963H21.2766C21.7427 43.7601 22.3164 46.0227 22.9828 47.8584Z" fill="#F8C7A5"/>
<path d="M27.1531 45.0495C35.049 45.0495 41.4498 41.4569 41.4498 37.0253C41.4498 32.5937 35.049 29.0011 27.1531 29.0011C19.2573 29.0011 12.8565 32.5937 12.8565 37.0253C12.8565 41.4569 19.2573 45.0495 27.1531 45.0495Z" fill="#E1B89A"/>
<path d="M28.0654 1.64697H26.2415C23.9109 1.64697 22.1041 3.68382 22.3822 5.99778L24.0468 19.8486H30.2601L31.9247 5.99778C32.2028 3.68382 30.396 1.64697 28.0654 1.64697Z" fill="#E1B89A"/>
<path d="M23.2499 13.2188L24.0467 19.8486H30.2599L31.0566 13.2188C29.7795 13.1427 28.4758 13.1039 27.1532 13.1039C25.8308 13.104 24.527 13.1428 23.2499 13.2188Z" fill="#DA9B85"/>
<path d="M51.0911 27.1886C51.0911 20.7563 40.3737 16.7421 27.1533 16.7421C13.9329 16.7421 3.21554 20.7563 3.21554 27.1886C3.21554 33.621 13.9329 40.0356 27.1533 40.0356C40.3737 40.0356 51.0911 33.621 51.0911 27.1886Z" fill="#FAE0BD"/>
<path d="M19.0042 17.2905C9.79581 18.5935 3.21554 22.1487 3.21554 27.1888C3.21554 33.6211 13.9329 40.0357 27.1533 40.0357C27.4851 40.0357 27.8149 40.0306 28.1434 40.0226C11.2543 36.5921 13.6756 20.853 19.0042 17.2905Z" fill="#F8C7A5"/>
<path d="M27.1533 32.7278C12.7529 32.7278 5.2031 30.7611 2.62563 29.9156C1.63252 29.5898 1.09147 28.5205 1.41724 27.5274C1.74312 26.5343 2.81242 25.9935 3.80543 26.319C11.2264 28.7534 23.5524 28.9426 27.1533 28.9426C30.7542 28.9426 43.0803 28.7534 50.5011 26.319C51.4941 25.9933 52.5634 26.5342 52.8894 27.5274C53.2151 28.5205 52.6742 29.5898 51.6811 29.9156C49.1035 30.7611 41.5538 32.7278 27.1533 32.7278Z" fill="#A3DEFE"/>
<path d="M3.80543 26.319C2.81242 25.9936 1.74312 26.5343 1.41724 27.5274C1.09147 28.5205 1.63252 29.5898 2.62563 29.9156C4.83565 30.6405 10.7016 32.1897 21.4067 32.6167C20.0522 31.7478 19.9709 29.7418 20.7135 28.7831C15.4926 28.5321 8.61797 27.8978 3.80543 26.319Z" fill="#7ACEFA"/>
<path d="M18.8746 27.1597C20.5616 27.1597 21.9292 26.0706 21.9292 24.7271C21.9292 23.3836 20.5616 22.2944 18.8746 22.2944C17.1875 22.2944 15.8199 23.3836 15.8199 24.7271C15.8199 26.0706 17.1875 27.1597 18.8746 27.1597Z" fill="#EDA1AB"/>
<path d="M35.432 27.1597C37.1191 27.1597 38.4867 26.0706 38.4867 24.7271C38.4867 23.3836 37.1191 22.2944 35.432 22.2944C33.745 22.2944 32.3774 23.3836 32.3774 24.7271C32.3774 26.0706 33.745 27.1597 35.432 27.1597Z" fill="#EDA1AB"/>
<path d="M29.6163 22.858C29.6163 21.3359 28.5137 21.1929 27.1535 21.1929C25.7933 21.1929 24.6906 21.3359 24.6906 22.858C24.6906 24.3801 25.7933 25.6139 27.1535 25.6139C28.5137 25.6139 29.6163 24.38 29.6163 22.858Z" fill="#565E75"/>
<path d="M19.385 19.7956C18.9545 19.7956 18.6054 20.1447 18.6054 20.5753V21.8226C18.6054 22.2532 18.9545 22.6022 19.385 22.6022C19.8156 22.6022 20.1646 22.2532 20.1646 21.8226V20.5753C20.1646 20.1447 19.8157 19.7956 19.385 19.7956ZM34.9215 22.6022C35.3521 22.6022 35.7011 22.2532 35.7011 21.8226V20.5753C35.7011 20.1447 35.3521 19.7956 34.9215 19.7956C34.4908 19.7956 34.1419 20.1447 34.1419 20.5753V21.8226C34.1419 22.2532 34.4908 22.6022 34.9215 22.6022ZM30.3957 22.8578C30.3957 21.6045 29.7712 21.0248 29.2474 20.7592C28.681 20.472 28.0006 20.4131 27.1533 20.4131C26.3059 20.4131 25.6256 20.4719 25.0592 20.7591C24.5353 21.0248 23.9109 21.6045 23.9109 22.8578C23.9109 24.8074 25.3654 26.3934 27.1533 26.3934C28.9412 26.3934 30.3957 24.8074 30.3957 22.8578ZM25.47 22.8578C25.47 22.2438 25.5381 21.9723 27.1532 21.9723C28.7683 21.9723 28.8364 22.2438 28.8364 22.8578C28.8364 23.9476 28.0812 24.8342 27.1532 24.8342C26.225 24.8342 25.47 23.9476 25.47 22.8578ZM53.63 27.2841C53.3228 26.3484 52.545 25.6967 51.6448 25.5043C50.8728 22.6576 48.1374 20.2645 43.6858 18.5563C40.3472 17.2751 36.1209 16.4355 31.494 16.1123L32.6985 6.09063C33.0311 3.32325 30.8716 0.867188 28.0652 0.867188H26.2413C24.3931 0.867188 22.7161 1.96082 21.969 3.65328C21.7951 4.04724 21.9735 4.50742 22.3674 4.68132C22.7611 4.85512 23.2215 4.67675 23.3954 4.28299C23.8933 3.15517 25.0103 2.42639 26.2412 2.42639H28.0651C29.9211 2.42639 31.3733 4.04911 31.1504 5.90457L29.9343 16.0234C29.019 15.9832 28.0911 15.9623 27.1532 15.9623C26.2153 15.9623 25.2872 15.9832 24.3721 16.0234L23.359 7.59423C23.3077 7.1668 22.9196 6.8613 22.492 6.91327C22.0646 6.96462 21.7597 7.35287 21.811 7.7803L22.8124 16.1122C18.1855 16.4353 13.9592 17.275 10.6205 18.5563C6.16887 20.2646 3.4334 22.6577 2.66148 25.5045C1.76141 25.6971 0.983362 26.3486 0.676302 27.2841C0.217064 28.6841 0.982531 30.1967 2.38249 30.656C2.69308 30.7579 3.07571 30.876 3.53163 31.0048C5.10632 33.7425 8.19407 36.1122 12.1405 37.8366C12.6526 41.1738 16.298 43.94 21.3427 45.1589C22.8077 50.8087 24.7615 53.6734 27.1532 53.6734C28.0728 53.6734 28.9421 53.237 29.7367 52.3764C30.0288 52.06 30.009 51.5669 29.6927 51.2748C29.3764 50.9827 28.8833 51.0023 28.591 51.3187C28.1037 51.8465 27.6198 52.1142 27.1531 52.1142C25.7291 52.1142 24.2247 49.6664 23.0515 45.5029C24.355 45.7151 25.7305 45.8286 27.1531 45.8286C28.5758 45.8286 29.9515 45.7151 31.2551 45.5028C30.9549 46.5717 30.6329 47.532 30.2932 48.3657C30.1307 48.7645 30.3222 49.2193 30.721 49.3818C31.1205 49.5445 31.5751 49.3519 31.7371 48.954C32.1789 47.8696 32.5904 46.5936 32.963 45.1589C38.0079 43.94 41.6536 41.1737 42.1657 37.8364C46.1121 36.112 49.1999 33.7422 50.7744 31.0045C51.2304 30.8757 51.6131 30.7576 51.9237 30.6557C53.3241 30.1968 54.0893 28.6842 53.63 27.2841ZM11.1791 20.012C15.3643 18.406 21.0374 17.5215 27.1532 17.5215C33.269 17.5215 38.9419 18.406 43.1273 20.012C47.7675 21.7926 49.4889 23.9474 50.0571 25.6423C42.7253 27.9793 30.6926 28.1628 27.1532 28.1628C23.6139 28.1628 11.5817 27.9793 4.24949 25.6424C4.81766 23.9476 6.53861 21.7928 11.1791 20.012ZM27.1532 44.2697C20.7706 44.2697 15.2924 41.8068 13.9514 38.5608C17.8646 39.9878 22.4429 40.8151 27.1532 40.8151C31.8631 40.8151 36.4412 39.9879 40.3543 38.5611C39.013 41.8069 33.5355 44.2697 27.1532 44.2697ZM41.4924 36.4321C37.2688 38.2794 32.3104 39.2558 27.1533 39.2558C21.9962 39.2558 17.0377 38.2793 12.8141 36.432C9.77739 35.1038 7.36935 33.421 5.83717 31.5827C9.85618 32.4796 16.7351 33.5071 27.1534 33.5071C37.5709 33.5071 44.4495 32.4797 48.4688 31.5828C46.9362 33.4211 44.5289 35.1039 41.4924 36.4321ZM51.4379 29.1747C48.8958 30.0086 41.4403 31.948 27.1532 31.948C12.8658 31.948 5.41057 30.0086 2.86844 29.1747C2.2854 28.9834 1.9666 28.3533 2.15776 27.7703C2.34996 27.1847 2.98195 26.8693 3.56219 27.0596C11.0929 29.5301 23.5228 29.7221 27.1531 29.7221C30.7833 29.7221 43.2133 29.5301 50.7438 27.0596C51.327 26.8685 51.9571 27.1872 52.1484 27.7702C52.3398 28.3534 52.0211 28.9834 51.4379 29.1747Z" fill="black"/>
</svg>
