<svg width="62" height="63" viewBox="0 0 62 63" fill="none" xmlns="http://www.w3.org/2000/svg">
<path d="M50.2495 20.0742H7.91145C4.53858 20.0742 1.80423 22.8085 1.80423 26.1814V46.1913C1.80423 49.5642 4.53858 52.2985 7.91145 52.2985H50.2497C53.6225 52.2985 56.3569 49.5643 56.3569 46.1913V26.1814C56.3568 22.8086 53.6225 20.0742 50.2495 20.0742Z" fill="#90D3F1"/>
<path d="M29.1946 14.4189C24.2944 14.4189 21.0781 13.7976 19.1254 13.2056C17.272 12.6437 15.2625 13.3277 14.1593 14.9194C11.9934 18.0446 9.18063 24.0933 9.18063 34.4327H49.2086C49.2086 23.397 40.2304 14.4189 29.1946 14.4189Z" fill="#F9D888"/>
<path d="M16.0226 33.6195C16.0226 25.5193 20.1362 18.4034 26.3403 14.343C23.0064 14.1602 20.6699 13.6738 19.1254 13.2056C17.272 12.6437 15.2625 13.3277 14.1593 14.9194C11.9934 18.0446 9.18063 24.0933 9.18063 34.4327H16.0381C16.0289 34.1627 16.0226 33.8919 16.0226 33.6195Z" fill="#EBB46B"/>
<path d="M45.3529 39.3147C48.0491 39.3147 50.2348 37.129 50.2348 34.4328C50.2348 31.7366 48.0491 29.5509 45.3529 29.5509C42.6567 29.5509 40.471 31.7366 40.471 34.4328C40.471 37.129 42.6567 39.3147 45.3529 39.3147Z" fill="#FFCABD"/>
<path d="M41.2793 24.0636C40.4859 23.14 39.2118 22.7786 38.0491 23.1398C29.4974 25.796 28.1242 21.5895 21.523 22.0763C19.5364 22.2227 17.7119 23.2237 16.5068 24.8099C14.4263 27.5481 13.2119 30.9801 13.2725 34.6982C13.4127 43.3086 20.4692 50.2964 29.0803 50.3567C37.9275 50.4187 45.1187 43.2655 45.1187 34.4328C45.1189 30.472 43.6723 26.8496 41.2793 24.0636Z" fill="#FFDCCE"/>
<path d="M8.95215 51.13H49.2085V61.5615H8.95215V51.13Z" fill="#04237E"/>
<path d="M47.7097 46.7584H10.4513C8.73372 46.7584 7.34131 48.1508 7.34131 49.8684V52.3918C7.34131 54.1093 8.73372 55.5017 10.4513 55.5017H47.7097C49.4273 55.5017 50.8197 54.1093 50.8197 52.3918V49.8684C50.8197 48.1508 49.4273 46.7584 47.7097 46.7584Z" fill="#04237E"/>
<path d="M12.212 48.4051C12.212 51.1539 14.4484 53.3901 17.197 53.3901H21.5457C24.2944 53.3901 26.5307 51.1539 26.5307 48.4051C26.5307 47.8383 26.4625 47.2875 26.3374 46.7584H12.4053C12.2802 47.2875 12.212 47.8383 12.212 48.4051Z" fill="#04237E"/>
<path d="M19.3716 44.2788C17.0926 44.2788 15.2453 46.1262 15.2453 48.4051C15.2453 49.4832 16.1192 50.357 17.1972 50.357H21.5459C22.6239 50.357 23.4978 49.4832 23.4978 48.4051C23.4977 46.1263 21.6503 44.2788 19.3716 44.2788Z" fill="#FFCABD"/>
<path d="M31.6308 48.4051C31.6308 51.1539 33.8671 53.3901 36.6158 53.3901H40.9644C43.7131 53.3901 45.9494 51.1539 45.9494 48.4051C45.9494 47.8383 45.8812 47.2875 45.7562 46.7584H31.824C31.699 47.2875 31.6308 47.8383 31.6308 48.4051Z" fill="#04237E"/>
<path d="M38.7898 44.2788C41.0687 44.2788 42.9161 46.1262 42.9161 48.4051C42.9161 49.4832 42.0422 50.357 40.9642 50.357H36.6155C35.5374 50.357 34.6635 49.4832 34.6635 48.4051C34.6635 46.1263 36.5109 44.2788 38.7898 44.2788Z" fill="#FFCABD"/>
<path d="M59.8946 12.2377C59.8887 12.2377 59.8829 12.2377 59.8769 12.2377C55.4092 12.2377 51.7874 8.61587 51.7874 4.14819C51.7874 3.53114 51.8569 2.93048 51.9882 2.35323C52.1531 1.62809 51.4176 1.03143 50.7478 1.35451C47.9967 2.68165 46.1116 5.51925 46.1706 8.7919C46.2486 13.1231 49.7906 16.6596 54.1219 16.7312C56.7461 16.7746 59.0893 15.5676 60.597 13.6672C61.0594 13.0843 60.6387 12.236 59.8946 12.2377Z" fill="#F9ED80"/>
<path d="M21.0939 48.1277C17.9256 44.1809 16.023 39.1278 16.023 33.6195C16.023 29.7795 16.9488 26.1616 18.582 22.9846C17.7848 23.4443 17.0763 24.0609 16.5072 24.8099C15.4085 26.2559 14.5517 27.8956 13.9963 29.6685C13.7193 29.5923 13.4026 29.5508 13.037 29.5508C10.3408 29.5508 8.15515 31.7365 8.15515 34.4327C8.15515 37.1289 10.3409 39.3146 13.037 39.3146C13.4054 39.3146 13.7241 39.2725 14.0026 39.1952C15.1924 42.9662 17.7539 46.1402 21.0939 48.1277Z" fill="#FFCABD"/>
<path d="M20.6568 35.0977C21.7027 35.0977 22.6975 34.6448 23.3857 33.8549C23.7158 33.4761 23.6764 32.9013 23.2975 32.5712C22.9186 32.2409 22.3439 32.2804 22.0137 32.6594C21.6711 33.0526 21.1764 33.278 20.6567 33.278C20.137 33.278 19.6423 33.0526 19.2997 32.6594C18.9695 32.2805 18.3948 32.2411 18.0159 32.5712C17.6371 32.9013 17.5976 33.4761 17.9277 33.8549C18.6162 34.6447 19.6108 35.0977 20.6568 35.0977Z" fill="black"/>
<path d="M37.5032 35.0977C38.5491 35.0977 39.5438 34.6447 40.2321 33.8549C40.5622 33.476 40.5228 32.9013 40.1439 32.5711C39.765 32.241 39.1903 32.2804 38.8602 32.6594C38.5176 33.0525 38.0229 33.2779 37.5032 33.2779C36.9833 33.2779 36.4887 33.0525 36.1462 32.6594C35.8161 32.2805 35.2413 32.2411 34.8625 32.5711C34.4836 32.9013 34.4442 33.476 34.7743 33.8549C35.4626 34.6447 36.4572 35.0977 37.5032 35.0977Z" fill="black"/>
<path d="M29.0799 37.7304C29.9523 37.7304 30.6595 36.9762 30.6595 36.0458C30.6595 35.1153 29.9523 34.3612 29.0799 34.3612C28.2076 34.3612 27.5003 35.1155 27.5003 36.0458C27.5003 36.9763 28.2076 37.7304 29.0799 37.7304Z" fill="black"/>
<path d="M59.8952 11.3291C59.893 11.3291 59.8908 11.3291 59.8885 11.3291H59.8754C55.2952 11.3291 51.8494 7.06196 52.8741 2.55655C53.2089 1.08491 51.7041 -0.116055 50.3511 0.536657C47.195 2.05913 45.1965 5.30655 45.2596 8.80972C45.3016 11.1415 46.2418 13.3413 47.9071 15.0041C51.7161 18.8073 57.9564 18.4587 61.3083 14.234C62.2424 13.0566 61.3997 11.3291 59.8952 11.3291ZM54.1354 15.8226C50.3133 15.7595 47.1477 12.5988 47.0789 8.77696C47.029 6.00257 48.5997 3.42921 51.0885 2.2018C49.8453 7.81512 54.1275 13.1307 59.8458 13.1489C58.4454 14.8856 56.3678 15.8586 54.1354 15.8226Z" fill="black"/>
<path d="M56.3554 39.7375C56.8579 39.7375 57.2653 39.3301 57.2653 38.8276V26.1824C57.2653 22.3132 54.1175 19.1655 50.2484 19.1655H43.4852C39.5922 15.5171 34.4718 13.5102 29.1941 13.5102C24.2906 13.5102 21.1557 12.8717 19.3892 12.3362C17.1422 11.655 14.7402 12.4853 13.4113 14.4024C12.5942 15.5814 11.6966 17.1482 10.8832 19.1656H7.91143C4.04223 19.1656 0.894531 22.3135 0.894531 26.1825V30.5244C0.894531 31.0269 1.30193 31.4343 1.80445 31.4343C2.30696 31.4343 2.71436 31.0269 2.71436 30.5244V26.1825C2.71436 23.3169 5.0458 20.9854 7.91155 20.9854H10.2182C9.15753 24.2046 8.59811 27.597 8.38107 30.9932C7.66781 31.9559 7.24513 33.1462 7.24513 34.4335C7.24513 37.7417 10.0366 40.4179 13.3921 40.2131C13.9895 41.8364 14.8377 43.3685 15.913 44.7495C15.5717 45.0725 15.2754 45.4422 15.0346 45.849H10.4513C8.23475 45.849 6.43154 47.6522 6.43154 49.8687V51.1766C4.25527 50.5408 2.71436 48.5476 2.71436 46.1917V34.1638C2.71436 33.6613 2.30696 33.2539 1.80445 33.2539C1.30193 33.2539 0.894531 33.6613 0.894531 34.1638V46.1917C0.894531 47.9516 1.54906 49.6349 2.73765 50.9313C3.74147 52.0261 5.0526 52.765 6.4882 53.0611C6.66266 54.0978 7.23457 55.0014 8.04233 55.608V61.5615C8.04233 62.064 8.44973 62.4714 8.95225 62.4714H49.2075C49.71 62.4714 50.1174 62.064 50.1174 61.5615V55.608C50.9252 55.0014 51.4971 54.0979 51.6716 53.0611C53.1073 52.765 54.4184 52.0261 55.4222 50.9313C56.6108 49.6348 57.2653 47.9517 57.2653 46.1917V42.4671C57.2653 41.9646 56.8579 41.5572 56.3554 41.5572C55.8529 41.5572 55.4455 41.9646 55.4455 42.4671V46.1917C55.4455 48.5475 53.9046 50.5407 51.7283 51.1766V49.8687C51.7283 47.6522 49.9251 45.849 47.7085 45.849H43.1251C42.9179 45.4988 42.6697 45.176 42.3869 44.8869C43.5107 43.4698 44.391 41.8913 45.0044 40.2138C48.3632 40.4151 51.1432 37.7314 51.1432 34.4337C51.1432 33.0165 50.6307 31.7174 49.7824 30.7097C49.1444 27.175 47.6126 23.8306 45.2129 20.9855H50.2483C53.114 20.9855 55.4455 23.3169 55.4455 26.1827V38.8277C55.4456 39.3301 55.853 39.7375 56.3554 39.7375ZM14.907 15.439C15.7787 14.1814 17.3642 13.6238 18.8611 14.0777C20.7453 14.649 24.0675 15.3299 29.194 15.3299C37.7685 15.3299 45.1711 21.045 47.5281 29.0678C46.6988 28.7302 45.8259 28.6011 45.0073 28.6521C44.4883 27.2299 43.7846 25.8957 42.9057 24.666C42.1704 23.6373 41.636 22.9935 40.8452 22.5672C39.9136 22.0648 38.8107 21.9516 37.7782 22.2719C29.5198 24.8371 28.3641 20.6602 21.4556 21.1699C19.2167 21.335 17.1489 22.4614 15.7819 24.2603C14.7948 25.5597 13.966 27.0364 13.3749 28.6518C12.6374 28.6064 11.8226 28.7117 11.0575 28.989C11.0575 28.989 11.0574 28.989 11.0573 28.989C10.8195 29.0752 10.5686 29.186 10.346 29.3027C10.8382 24.5281 12.182 19.3709 14.907 15.439ZM12.8347 38.4004C10.7381 38.2948 9.06471 36.5559 9.06471 34.4337C9.06471 32.2323 10.8432 30.5521 12.8263 30.4676C12.2114 33.0246 12.1974 35.783 12.8347 38.4004ZM17.2311 25.3614C18.2824 23.9779 19.871 23.1116 21.5896 22.9849C27.9257 22.5184 29.4432 26.7661 38.3182 24.0099C39.0889 23.7705 39.918 23.9804 40.4758 24.5368C40.6472 24.7045 41.0704 25.2462 41.2292 25.4581C45.3096 30.9261 45.1924 38.4942 40.9007 43.8336C40.2614 43.5375 39.5304 43.37 38.79 43.3695C38.7897 43.3695 38.7894 43.3695 38.7891 43.3695C37.0048 43.3695 35.35 44.3222 34.4501 45.849H23.7101C22.8209 44.3408 21.1725 43.3695 19.371 43.3695C18.7359 43.3695 18.078 43.4898 17.4437 43.7536C13.1846 38.3983 13.0733 30.8349 17.2311 25.3614ZM40.9633 49.4475H36.6147C36.0402 49.4475 35.5727 48.98 35.5727 48.4054C35.5727 46.6107 37.0368 45.1892 38.789 45.1892H38.7891C41.5664 45.1892 42.8142 48.5848 41.4595 49.3216C41.3097 49.4031 41.1403 49.4475 40.9633 49.4475ZM21.5452 49.4475H17.1967C16.6213 49.4475 16.1546 48.9792 16.1546 48.4054C16.1546 46.6261 17.6061 45.1892 19.3709 45.1892C21.1355 45.1892 22.5871 46.6234 22.5871 48.4054C22.5871 48.98 22.1197 49.4475 21.5452 49.4475ZM48.2977 56.3683V60.6516H9.86228V56.3682C9.87442 56.3693 10.1503 56.4116 10.4513 56.4116H47.7087C47.9574 56.4117 48.123 56.387 48.2977 56.3683ZM43.7715 47.6687H47.7087C48.9237 47.6687 49.9087 48.6573 49.9087 49.8686V52.3918C49.9087 53.6224 48.9022 54.5919 47.7087 54.5919H10.4513C10.1634 54.5919 9.86326 54.5338 9.57997 54.4111C8.12847 53.7822 8.25671 52.2887 8.25137 52.2714V49.8686C8.25137 48.6555 9.23833 47.6687 10.4513 47.6687H14.3884C14.3307 48.0609 14.3355 48.3915 14.3349 48.4054C14.3349 49.9834 15.6186 51.2672 17.1967 51.2672H21.5452C23.1231 51.2672 24.407 49.9834 24.407 48.4054C24.407 48.1694 24.3827 47.8684 24.3535 47.6687H33.8065C33.7758 47.8779 33.753 48.1753 33.753 48.4056C33.753 49.9835 35.0368 51.2673 36.6147 51.2673C41.1641 51.2563 41.0182 51.2925 41.3985 51.2343C42.7582 51.026 43.8248 49.8505 43.8248 48.4001C43.8245 48.1654 43.8002 47.8631 43.7715 47.6687ZM45.5568 38.4003C46.1781 35.831 46.1855 33.0673 45.5565 30.467C47.6472 30.5738 49.3235 32.3081 49.3235 34.4337C49.3235 36.5548 47.6519 38.293 45.5568 38.4003Z" fill="black"/>
</svg>
