<svg width="54" height="54" viewBox="0 0 54 54" fill="none" xmlns="http://www.w3.org/2000/svg">
<path d="M32.9863 41.0791C31.7217 48.0345 29.6667 52.7769 27.11 52.7769C24.5533 52.7769 22.4983 48.0345 21.2336 41.0791H32.9863Z" fill="#FAE0BD"/>
<path d="M22.9398 47.7412C24.2897 47.9441 25.688 48.0506 27.11 48.0506C28.532 48.0506 29.9303 47.9441 31.2801 47.7412C31.9465 45.9055 32.5202 43.643 32.9863 41.0791H21.2336C21.6997 43.643 22.2734 45.9055 22.9398 47.7412Z" fill="#F8C7A5"/>
<path d="M27.1102 44.9323C35.006 44.9323 41.4068 41.3398 41.4068 36.9081C41.4068 32.4765 35.006 28.8839 27.1102 28.8839C19.2143 28.8839 12.8135 32.4765 12.8135 36.9081C12.8135 41.3398 19.2143 44.9323 27.1102 44.9323Z" fill="#E1B89A"/>
<path d="M28.0225 1.52979H26.1985C23.8679 1.52979 22.0611 3.56663 22.3393 5.8806L24.0039 19.7314H30.2171L31.8817 5.8806C32.1599 3.56663 30.3531 1.52979 28.0225 1.52979Z" fill="#E1B89A"/>
<path d="M23.207 13.1017L24.0037 19.7314H30.2169L31.0136 13.1017C29.7366 13.0255 28.4329 12.9867 27.1103 12.9867C25.7878 12.9868 24.4841 13.0256 23.207 13.1017Z" fill="#DA9B85"/>
<path d="M51.0481 27.0715C51.0481 20.6391 40.3308 16.6249 27.1104 16.6249C13.8899 16.6249 3.17258 20.6391 3.17258 27.0715C3.17258 33.5038 13.8899 39.9184 27.1104 39.9184C40.3308 39.9184 51.0481 33.5038 51.0481 27.0715Z" fill="#FAE0BD"/>
<path d="M18.9612 17.1733C9.75285 18.4763 3.17258 22.0315 3.17258 27.0716C3.17258 33.504 13.8899 39.9185 27.1104 39.9185C27.4422 39.9185 27.772 39.9134 28.1005 39.9054C11.2113 36.4749 13.6327 20.7358 18.9612 17.1733Z" fill="#F8C7A5"/>
<path d="M27.1103 32.6106C12.7099 32.6106 5.16015 30.6439 2.58268 29.7984C1.58957 29.4726 1.04852 28.4033 1.37429 27.4102C1.70017 26.4171 2.76947 25.8763 3.76248 26.2018C11.1835 28.6362 23.5094 28.8254 27.1103 28.8254C30.7113 28.8254 43.0373 28.6362 50.4581 26.2018C51.4511 25.8761 52.5204 26.417 52.8464 27.4102C53.1722 28.4033 52.6312 29.4726 51.6381 29.7984C49.0606 30.6439 41.5109 32.6106 27.1103 32.6106Z" fill="#A3DEFE"/>
<path d="M3.76248 26.2018C2.76947 25.8764 1.70017 26.4171 1.37429 27.4102C1.04852 28.4033 1.58957 29.4726 2.58268 29.7984C4.7927 30.5233 10.6586 32.0725 21.3637 32.4995C20.0092 31.6306 19.9279 29.6246 20.6705 28.6659C15.4497 28.4149 8.57502 27.7806 3.76248 26.2018Z" fill="#7ACEFA"/>
<path d="M18.8316 27.0425C20.5186 27.0425 21.8862 25.9534 21.8862 24.6099C21.8862 23.2664 20.5186 22.1772 18.8316 22.1772C17.1445 22.1772 15.7769 23.2664 15.7769 24.6099C15.7769 25.9534 17.1445 27.0425 18.8316 27.0425Z" fill="#EDA1AB"/>
<path d="M35.3891 27.0425C37.0761 27.0425 38.4437 25.9534 38.4437 24.6099C38.4437 23.2664 37.0761 22.1772 35.3891 22.1772C33.702 22.1772 32.3344 23.2664 32.3344 24.6099C32.3344 25.9534 33.702 27.0425 35.3891 27.0425Z" fill="#EDA1AB"/>
<path d="M29.5734 22.7408C29.5734 21.2187 28.4707 21.0757 27.1106 21.0757C25.7503 21.0757 24.6477 21.2187 24.6477 22.7408C24.6477 24.2629 25.7503 25.4967 27.1106 25.4967C28.4707 25.4967 29.5734 24.2628 29.5734 22.7408Z" fill="#565E75"/>
<path d="M19.342 19.6785C18.9115 19.6785 18.5624 20.0275 18.5624 20.4581V21.7054C18.5624 22.136 18.9115 22.485 19.342 22.485C19.7726 22.485 20.1217 22.136 20.1217 21.7054V20.4581C20.1217 20.0275 19.7727 19.6785 19.342 19.6785ZM34.8785 22.485C35.3092 22.485 35.6581 22.136 35.6581 21.7054V20.4581C35.6581 20.0275 35.3092 19.6785 34.8785 19.6785C34.4479 19.6785 34.0989 20.0275 34.0989 20.4581V21.7054C34.0989 22.136 34.4479 22.485 34.8785 22.485ZM30.3528 22.7406C30.3528 21.4873 29.7282 20.9076 29.2044 20.6421C28.638 20.3548 27.9576 20.2959 27.1103 20.2959C26.263 20.2959 25.5826 20.3547 25.0162 20.6419C24.4923 20.9076 23.8679 21.4873 23.8679 22.7406C23.8679 24.6902 25.3224 26.2762 27.1103 26.2762C28.8982 26.2762 30.3528 24.6902 30.3528 22.7406ZM25.427 22.7406C25.427 22.1266 25.4951 21.8551 27.1102 21.8551C28.7254 21.8551 28.7934 22.1266 28.7934 22.7406C28.7934 23.8304 28.0383 24.717 27.1102 24.717C26.1821 24.717 25.427 23.8304 25.427 22.7406ZM53.587 27.1669C53.2799 26.2312 52.502 25.5795 51.6018 25.3871C50.8298 22.5404 48.0944 20.1473 43.6428 18.4391C40.3042 17.158 36.0779 16.3183 31.4511 15.9951L32.6555 5.97345C32.9881 3.20606 30.8286 0.75 28.0223 0.75H26.1983C24.3501 0.75 22.6731 1.84363 21.9261 3.5361C21.7522 3.93005 21.9305 4.39023 22.3244 4.56413C22.7181 4.73793 23.1785 4.55956 23.3524 4.16581C23.8503 3.03798 24.9674 2.30921 26.1982 2.30921H28.0222C29.8781 2.30921 31.3304 3.93193 31.1074 5.78738L29.8913 15.9062C28.9761 15.866 28.0481 15.8451 27.1102 15.8451C26.1723 15.8451 25.2443 15.866 24.3291 15.9062L23.3161 7.47704C23.2647 7.04961 22.8767 6.74411 22.449 6.79608C22.0216 6.84743 21.7167 7.23568 21.7681 7.66311L22.7694 15.995C18.1425 16.3182 13.9162 17.1578 10.5775 18.4391C6.1259 20.1474 3.39043 22.5405 2.61852 25.3873C1.71844 25.58 0.940393 26.2314 0.633334 27.1669C0.174095 28.5669 0.939562 30.0795 2.33952 30.5389C2.65012 30.6407 3.03275 30.7588 3.48866 30.8876C5.06335 33.6254 8.1511 35.995 12.0976 37.7194C12.6096 41.0566 16.255 43.8228 21.2997 45.0417C22.7647 50.6915 24.7185 53.5562 27.1102 53.5562C28.0298 53.5562 28.8992 53.1198 29.6937 52.2592C29.9858 51.9428 29.9661 51.4497 29.6498 51.1576C29.3334 50.8655 28.8403 50.8852 28.548 51.2015C28.0607 51.7293 27.5768 51.997 27.1101 51.997C25.6861 51.997 24.1817 49.5492 23.0086 45.3857C24.3121 45.5979 25.6875 45.7114 27.1101 45.7114C28.5328 45.7114 29.9085 45.5979 31.2121 45.3856C30.9119 46.4545 30.59 47.4148 30.2503 48.2485C30.0877 48.6473 30.2793 49.1022 30.678 49.2646C31.0776 49.4273 31.5321 49.2347 31.6941 48.8368C32.136 47.7524 32.5474 46.4764 32.92 45.0417C37.9649 43.8228 41.6106 41.0565 42.1227 37.7192C46.0691 35.9948 49.1569 33.625 50.7315 30.8873C51.1874 30.7585 51.5701 30.6404 51.8807 30.5385C53.2811 30.0796 54.0464 28.567 53.587 27.1669ZM11.1362 19.8948C15.3214 18.2888 20.9944 17.4043 27.1102 17.4043C33.2261 17.4043 38.899 18.2888 43.0843 19.8948C47.7245 21.6754 49.446 23.8302 50.0141 25.5251C42.6823 27.8621 30.6496 28.0456 27.1102 28.0456C23.5709 28.0456 11.5387 27.8621 4.20652 25.5252C4.77469 23.8304 6.49564 21.6756 11.1362 19.8948ZM27.1102 44.1525C20.7277 44.1525 15.2494 41.6896 13.9084 38.4436C17.8216 39.8706 22.4 40.6979 27.1102 40.6979C31.8202 40.6979 36.3982 39.8707 40.3113 38.4439C38.9701 41.6897 33.4926 44.1525 27.1102 44.1525ZM41.4494 36.3149C37.2258 38.1622 32.2675 39.1386 27.1103 39.1386C21.9532 39.1386 16.9947 38.1621 12.7711 36.3148C9.73442 34.9867 7.32639 33.3039 5.7942 31.4655C9.81322 32.3624 16.6921 33.3899 27.1104 33.3899C37.5279 33.3899 44.4065 32.3625 48.4258 31.4657C46.8932 33.304 44.4859 34.9868 41.4494 36.3149ZM51.395 29.0575C48.8528 29.8914 41.3973 31.8308 27.1102 31.8308C12.8228 31.8308 5.36761 29.8914 2.82547 29.0575C2.24244 28.8662 1.92363 28.2361 2.11479 27.6531C2.30699 27.0675 2.93898 26.7521 3.51922 26.9424C11.05 29.4129 23.4799 29.6049 27.1101 29.6049C30.7404 29.6049 43.1704 29.4129 50.7008 26.9424C51.2841 26.7513 51.9141 27.07 52.1055 27.653C52.2968 28.2362 51.9781 28.8662 51.395 29.0575Z" fill="black"/>
</svg>
