<svg width="282" height="481" viewBox="0 0 282 481" fill="none" xmlns="http://www.w3.org/2000/svg">
<path d="M196.789 82.8185C198.231 81.959 197.319 79.26 195.251 79.637C193.903 79.8386 192.465 80.1894 191.117 80.391C191.612 72.5225 189.533 64.5192 186.402 57.4077C192.447 52.5046 193.93 44.5221 190.86 37.1416C189.118 33.1209 186.533 29.8135 183.197 27.0705C183.139 26.8307 183.051 26.4711 182.753 26.2897C171.28 12.575 149.783 8.79813 133.315 4.8112C113.921 -0.240345 93.8735 -1.19537 74.2088 4.10709C39.1956 13.6597 9.97319 41.2337 0.399675 76.4646C0.215388 77.2716 0.931748 77.605 1.4113 77.4881C0.618203 85.1753 4.07371 93.0969 11.4186 96.1327C11.9859 96.3754 12.4976 95.8696 12.5298 95.4807C13.369 95.2761 14.0884 95.1007 14.9568 95.016C17.2075 104.247 19.8471 113.511 23.3873 122.301C23.475 122.661 23.7732 122.842 23.9223 122.933C22.6328 123.374 21.3433 123.815 20.083 124.377C19.3929 124.672 19.2992 125.33 19.4162 125.809C19.6852 125.871 19.6852 125.871 19.7144 125.991C20.0592 128.447 20.6438 130.845 21.1085 133.272C21.4271 135.099 21.6257 136.956 22.304 138.696C22.0612 139.263 22.3565 139.953 23.0144 140.047C23.6985 140.769 24.8974 140.477 25.2016 139.641C25.4414 139.582 25.801 139.495 26.0408 139.436L26.07 139.556C37.7178 189.935 51.1932 239.996 64.0399 290.083C70.4764 315.441 77.0327 340.769 83.44 366.007C89.6134 390.286 95.006 415.009 102.829 438.759C107.681 453.453 115.428 480.016 135.033 479.681C135.241 480.011 135.598 480.433 136.197 480.286C168.789 475.389 201.015 466.388 233.055 458.704C240.847 456.804 248.64 454.904 256.433 453.004C262.547 451.513 269.854 450.748 275.054 447.067C282.777 441.755 281.906 431.933 279.679 423.839C279.769 423.69 279.711 423.45 279.682 423.33C273.643 396.478 265.686 370.094 258.598 343.625C251.363 316.556 244.248 289.459 237.254 262.332C223.381 208.557 209.777 154.845 196.864 100.836C196.425 99.0381 193.548 99.7396 193.986 101.538C206.78 155.575 219.904 209.405 233.777 263.179C247.328 315.635 259.616 369.16 276.255 420.736C275.594 421.151 275.112 421.777 275.345 422.736C276.719 428.371 278.982 435.567 275.478 440.994C274.572 442.485 273.069 443.614 271.416 444.651C271.387 444.532 271.387 444.532 271.358 444.412C256.638 387.161 241.678 329.968 226.866 272.866L204.561 187.108C197.095 158.572 190.411 129.591 181.776 101.467C181.717 101.227 181.539 101.016 181.39 100.926C187.864 99.3473 194.367 97.8888 200.961 96.2811C202.519 95.9012 202.619 94.2257 201.847 93.1437C199.411 89.9271 197.874 86.7456 196.789 82.8185ZM75.0273 7.46396C93.6421 2.54446 112.493 3.28299 130.964 7.67069C141.634 10.277 154.04 12.7138 164.786 17.7149C141.628 11.2945 114.755 15.687 92.155 21.4512C66.9463 27.9783 39.8075 37.0082 18.7647 52.8079C15.2176 55.4509 11.5477 58.6319 8.50345 62.2955C22.395 35.9189 45.4704 15.4323 75.0273 7.46396ZM15.3313 92.3844C14.1324 92.6767 13.0827 93.0597 11.8838 93.352C11.644 93.4104 11.5241 93.4397 11.4335 93.5888C-18.953 59.0824 67.1009 32.2591 89.0142 26.2814C108.319 21.0666 128.39 17.9514 148.285 19.3245C157.589 19.9774 167.487 21.5017 175.539 26.3973C185.203 32.1702 194.699 46.1129 183.183 55.1442C182.859 54.3342 182.084 53.761 180.976 53.9042C126.316 65.7066 71.0298 77.0265 17.1004 91.8261C16.5332 91.5833 15.8138 91.7587 15.3313 92.3844ZM169.948 61.2923C169.416 60.1518 167.349 60.5288 167.431 61.9061C167.65 65.4091 169.006 68.8888 169.825 72.2457C170.731 75.9622 171.546 79.8279 172.572 83.5152C129.068 91.5817 85.5805 101.803 43.6865 115.955C43.7772 115.806 43.7187 115.566 43.6895 115.446C41.6727 107.174 39.3254 99.1089 37.4284 90.8074C37.37 90.5676 37.2208 90.477 37.1916 90.3571C85.5591 79.8348 133.725 67.9646 182.122 57.5623C182.361 57.5038 182.601 57.4453 182.812 57.267C183.019 57.5974 183.198 57.808 183.376 58.0185C183.314 58.2875 183.402 58.6472 183.461 58.887C186.472 66.0277 187.568 73.1274 188.631 80.616C184.137 81.4577 179.494 82.2088 174.879 83.0797C174.322 76.1029 173.235 67.4769 169.948 61.2923ZM41.0198 116.478C41.049 116.598 41.1981 116.688 41.2274 116.808C36.0692 118.574 31.0309 120.31 26.0219 122.167C26.2032 121.868 26.2646 121.599 26.1769 121.24C23.7157 112.187 21.0439 103.312 18.7026 94.2298C24.3958 93.0958 29.9399 91.8711 35.6038 90.6172C35.6331 90.7371 35.5132 90.7663 35.5424 90.8862C35.9715 99.4186 37.7426 108.767 41.0198 116.478ZM269.074 445.985C263.764 448.168 256.995 449.057 252.679 450.109C239.971 453.207 227.382 456.276 214.645 459.255C188.84 465.419 162.353 470.353 136.87 477.836C136.753 477.357 136.276 476.965 135.648 476.991C133.852 476.921 132.267 476.672 130.624 476.183C130.925 475.856 131.077 475.438 130.841 474.988C130.431 473.309 129.873 471.54 129.464 469.862C152.032 464.486 174.454 458.512 197.049 453.765C219.883 448.96 243.214 446.193 265.811 440.937C266.531 440.762 266.893 440.166 266.867 439.537C267.335 441.455 267.922 443.344 268.39 445.262C268.718 445.564 268.896 445.774 269.074 445.985ZM223.779 273.746C238.064 328.69 252.378 383.754 266.782 438.668C266.575 438.338 266.247 438.037 265.619 438.063C242.922 439.786 220.024 445.369 197.847 450.268C174.832 455.371 151.486 460.682 128.996 467.943C114.316 413.985 100.236 359.88 86.7554 305.629C79.8542 277.844 72.953 250.06 66.1425 222.126C59.8581 196.35 54.6557 169.802 46.9326 144.377C58.0471 142.556 69.0827 138.849 79.9341 135.95C91.0252 132.991 102.265 130.124 113.357 127.166C124.477 124.328 135.717 121.46 146.838 118.622C157.478 115.9 169.011 114.232 179.181 110.101C180.351 109.689 179.825 107.531 178.597 107.703C167.696 108.837 156.689 112.664 146.048 115.385C134.329 118.369 122.758 121.444 111.038 124.429C99.3475 127.533 87.7768 130.608 76.1155 133.832C66.2524 136.618 55.7637 138.921 46.1345 142.666C45.4885 140.537 44.8717 138.528 44.1058 136.429C43.7228 135.379 42.1643 135.759 42.4273 136.838C47.1676 165.658 56.0395 194.232 62.9669 222.646C69.8681 250.431 76.6494 278.245 83.5798 306.149C97.7359 362.649 111.892 419.148 127.697 475.119C118.803 470.937 113.868 460.073 110.208 451.313C104.276 436.882 100.324 421.715 96.5214 406.638C88.8836 376.874 81.3656 347.08 73.757 317.435C59.0193 258.029 44.5827 198.296 27.9882 139.088L27.959 138.968C78.5518 126.633 129.089 113.55 179.74 101.455C179.65 101.604 179.588 101.873 179.647 102.113C185.793 130.971 194.007 159.451 201.473 187.988C208.938 216.524 216.404 245.06 223.779 273.746ZM25.0936 137.635C24.8043 135.927 24.1553 134.307 23.6554 132.778C22.9801 130.529 22.454 128.371 21.6589 126.152C78.3838 109.273 134.772 93.6202 193.283 83.5463C193.283 83.5463 193.283 83.5463 193.312 83.6662C194.189 87.2628 195.578 90.3536 197.475 93.4474C139.754 106.758 81.9384 120.727 25.0936 137.635Z" fill="#9CCDEE"/>
<path d="M170.959 41.9937C161.258 32.4195 146.334 30.5965 133.29 29.7123C118.392 28.518 103.239 29.926 88.6422 33.6119C60.1088 40.5686 32.5717 56.3004 14.2681 79.6881C13.6043 80.6121 15.034 81.7877 15.847 80.9544C35.4486 60.8066 58.6142 45.3785 86.0131 37.9363C98.9932 34.3906 112.532 32.614 125.968 33.0217C138.985 33.2772 154.872 34.3576 165.748 42.502C164.818 42.8557 163.769 43.2387 162.929 43.4433C156.096 45.1094 149.499 47.2258 142.724 49.1317C128.574 53.0896 114.454 57.1673 100.275 61.0053C72.1855 68.7428 43.9241 75.2521 15.4843 81.5509C13.686 81.9893 14.4197 84.4777 16.1274 84.1884C42.8184 80.0942 69.0476 73.0642 95.1278 65.9436C107.868 62.4563 120.728 58.9399 133.439 55.3327C139.735 53.5438 145.911 51.7841 152.236 50.115C156.163 49.0305 165.865 48.1893 167.982 44.3707C167.982 44.3707 167.982 44.3707 168.131 44.4613C168.005 45.5081 169.166 46.6223 170.07 45.6399C170.28 45.4615 170.371 45.3124 170.552 45.0142C170.643 44.8651 170.763 44.8358 170.734 44.716C171.605 44.1225 171.941 42.8973 170.959 41.9937Z" fill="#9CCDEE"/>
<path d="M224.207 328.639C210.454 274.835 196.672 220.912 183.039 167.079C181.107 159.675 179.294 152.242 177.362 144.839C176.105 139.683 175.457 132.856 172.13 128.586C166.367 121.1 153.381 125.663 145.951 126.967C116.38 132.271 87.4484 140.722 59.52 151.723C57.9 152.372 58.6367 154.352 60.1308 154.749C59.8004 154.957 59.6483 155.375 59.7652 155.855C70.8805 210.301 86.879 263.938 100.962 317.534C107.96 344.152 115.107 370.861 122.225 397.45C123.835 403.535 124.851 419.164 132.138 421.96C136.079 423.54 141.211 421.145 144.898 420.119C151.703 418.333 158.358 416.457 165.163 414.671C178.172 411.245 191.152 407.699 204.161 404.273C210.486 402.604 216.691 400.964 223.016 399.295C226.703 398.269 233.379 398.039 236.122 394.703C238.263 392.022 237.418 388.036 237.047 384.951C236.392 379.141 235.469 373.27 234.215 367.606C231.178 354.628 227.512 341.678 224.207 328.639ZM232.506 378.31C232.939 381.126 234.433 386.732 233.76 389.182C232.473 394.322 228.973 394.033 224.926 395.146C219.68 396.552 214.314 397.988 209.068 399.394C197.018 402.586 184.997 405.897 172.947 409.089C162.695 411.843 151.776 416.029 141.112 417.613C135.6 418.449 131.767 418.875 129.796 412.878C128.826 409.939 128.215 406.913 127.394 404.065C125.578 397.14 123.763 390.216 121.828 383.321C115.795 360.659 109.762 337.997 103.699 315.216C89.5839 262.009 77.4481 208.065 61.5343 155.296C61.4466 154.937 61.2683 154.726 60.9993 154.665C83.9479 145.64 107.604 138.475 131.848 133.2C137.632 131.917 143.594 130.844 149.436 129.801C157.106 128.439 166.466 124.632 171.018 134.446C172.939 138.677 173.505 144.128 174.707 148.534C176.522 155.459 178.217 162.412 180.033 169.336C191.853 215.736 203.703 262.256 215.524 308.655C221.405 331.735 228.693 354.853 232.506 378.31Z" fill="#9CCDEE"/>
<path d="M212.847 259.645C212.204 257.008 208.128 258.002 208.771 260.639L208.8 260.759C208.619 261.057 208.467 261.475 208.464 261.984C209.401 270.519 211.36 278.552 214.096 286.649C214.95 289.108 218.426 288.26 218.052 285.684C218.354 285.357 218.596 284.79 218.45 284.19C217.691 275.865 214.805 267.678 212.847 259.645Z" fill="#9CCDEE"/>
<path d="M106.583 149.394C106.349 148.435 105.334 147.92 104.346 148.034C95.2373 149.747 86.2456 151.939 77.4879 155.09C77.0083 155.207 76.5872 155.564 76.4351 155.982C76.4059 155.862 76.3474 155.622 76.1983 155.532C75.6663 154.391 73.6866 155.128 74.0081 156.447C77.5365 167.272 80.6467 177.945 82.7364 189.121C82.941 189.96 83.8357 190.504 84.6749 190.299C94.0262 188.019 103.527 185.83 112.878 183.55C113.837 183.316 114.352 182.302 114.147 181.462C111.876 170.585 109.155 159.944 106.583 149.394ZM78.4846 158.658C86.7014 155.892 95.0352 153.606 103.515 151.92C105.824 161.391 108.133 170.862 110.472 180.453C102.199 182.47 93.9563 184.607 85.6841 186.624C84.0036 177.126 81.4547 167.714 77.6454 158.862C77.8852 158.804 78.125 158.745 78.4846 158.658Z" fill="#9CCDEE"/>
<path d="M136.145 140.408C135.824 139.089 134.45 138.662 133.309 139.194C127.309 141.673 121.192 143.673 114.837 145.222C114.478 145.31 114.147 145.517 113.937 145.695C112.984 144.912 111.244 145.59 111.624 147.149C114.105 157.848 116.947 168.459 119.788 179.071C120.022 180.03 121.065 180.665 122.025 180.431C127.42 179.116 133.768 178.584 138.838 176.459C140.789 175.602 141.449 175.187 141.85 173.184C142.833 168.88 140.804 162.643 140.17 158.479C139.068 152.397 137.727 146.373 136.145 140.408ZM137.316 165.525C137.517 166.873 138.777 171.52 138.113 172.444C137.45 173.368 135.444 173.476 134.365 173.739C130.528 174.674 126.692 175.61 122.975 176.516C120.485 167.343 117.994 158.17 115.264 149.055C115.384 149.026 115.653 149.088 115.773 149.058C121.647 147.626 127.405 145.714 132.955 143.472C134.829 150.636 136.401 158.128 137.316 165.525Z" fill="#9CCDEE"/>
<path d="M166.141 134.238C165.816 133.428 164.74 133.182 164.021 133.358C157.1 134.664 150.146 136.359 143.546 138.985C141.686 139.692 142.926 142.692 144.844 142.224C151.049 140.585 157.076 138.734 163.368 137.454C166.906 146.753 169.633 156.376 171.641 166.175C164.687 167.87 157.734 169.565 150.929 171.351C148.416 161.041 145.873 150.611 142.64 140.476C142.14 138.946 139.982 139.473 140.242 141.06C142.182 152.146 144.992 163.146 147.651 174.056C147.885 175.015 148.929 175.65 149.888 175.416C158.041 173.428 166.193 171.44 174.375 169.573C175.454 169.31 175.968 168.295 175.825 167.187C173.677 155.771 170.388 144.888 166.141 134.238Z" fill="#9CCDEE"/>
<path d="M116.764 215.118C115.563 210.712 114.332 206.185 113.011 201.808C112.394 199.799 112.061 195.307 109.824 193.948C108.333 193.041 105.663 194.073 104.225 194.424C98.5607 195.678 92.9552 197.171 87.3497 198.665C87.1099 198.723 86.99 198.753 86.7795 198.931C86.0631 198.598 84.8935 199.01 84.8875 200.027C85.5326 212.572 87.6164 224.765 90.8376 236.935C91.0714 237.894 92.1153 238.529 93.0744 238.295C97.9605 236.977 102.847 235.658 107.555 234.13C110.254 233.217 115.915 232.472 118.081 230.42C122.114 226.642 117.936 219.405 116.764 215.118ZM109.497 229.592C104.458 231.328 99.2416 232.854 94.1157 234.231C91.4236 223.71 89.48 213.133 87.8962 202.469C88.016 202.44 88.1359 202.411 88.3757 202.352C91.1331 201.68 93.9812 200.859 96.7386 200.186C98.7768 199.689 102.979 197.649 105.131 198.14C110.452 199.129 111.434 210.448 112.726 214.706C114.544 221.121 117.713 226.826 109.497 229.592Z" fill="#9CCDEE"/>
<path d="M148.695 205.428C146.965 199.372 145.205 193.196 143.355 187.17C143.121 186.211 142.048 185.456 141.118 185.81C135.062 187.54 128.886 189.3 122.831 191.031C122.591 191.089 122.38 191.267 122.17 191.446C121.515 190.843 120.374 191.375 120.518 192.484C122.157 203.896 125.384 215.049 127.983 226.228C128.216 227.187 129.289 227.941 130.219 227.588C135.647 225.883 141.044 224.059 146.472 222.355C149.171 221.443 151.238 221.066 151.943 218.227C152.622 214.759 149.634 208.756 148.695 205.428ZM147.908 217.305C147.212 218.618 143.317 219.314 142.027 219.755C138.369 220.901 134.74 222.167 131.082 223.313C128.744 213.722 126.496 203.981 123.468 194.686C123.588 194.656 123.588 194.656 123.708 194.627C129.313 193.134 134.74 191.429 140.346 189.936C142.547 197.401 144.748 204.866 146.709 212.39C146.914 213.229 148.241 216.589 147.908 217.305Z" fill="#9CCDEE"/>
<path d="M181.303 192.779C179.984 187.892 179.093 181.632 176.275 177.365C175.918 176.944 175.383 176.313 174.783 176.459C168.076 177.078 160.689 181.165 154.271 183.492C154.031 183.551 153.82 183.729 153.73 183.878C153.7 183.758 153.671 183.638 153.642 183.519C153.291 182.08 151.253 182.577 151.364 184.074C152.942 195.756 155.628 207.294 158.794 218.716C159.028 219.675 159.922 220.219 160.882 219.985C168.794 218.056 176.587 216.156 184.499 214.227C185.459 213.993 185.973 212.978 185.769 212.139C184.43 205.607 183.001 199.223 181.303 192.779ZM155.147 187.089C159.107 185.616 162.946 184.171 166.935 182.818C169.034 182.052 170.868 180.716 173.017 181.716C175.166 182.716 175.242 185.111 175.917 187.36C178.235 195.305 180.284 203.188 182.003 211.279C175.169 212.945 168.455 214.582 161.622 216.248C159.014 206.596 156.647 196.885 154.399 187.144C154.668 187.206 154.908 187.147 155.147 187.089Z" fill="#9CCDEE"/>
<path d="M128.273 253.465C126.72 247.62 125.168 241.775 123.616 235.929C123.382 234.97 122.28 234.096 121.23 234.479C114.391 237.162 107.522 239.726 100.682 242.41C98.7027 243.146 100.088 246.746 102.068 246.009C108.217 243.621 114.247 241.262 120.397 238.873C121.978 244.839 123.559 250.804 125.261 256.74C125.641 258.298 128.652 265.439 127.956 266.752C126.926 268.781 122.075 269.202 119.946 269.848C117.218 270.64 112.475 273.066 109.633 272.87C104.966 272.484 104.844 267.814 103.727 264.276C101.731 257.65 100.363 250.998 99.0857 244.196C98.884 242.848 96.5184 243.044 96.6002 244.421C97.0208 249.272 97.8011 254.036 98.8212 258.74C99.8705 263.565 100.908 270.425 103.516 274.87C106.717 280.186 114.887 275.146 119.385 273.795C123.402 272.562 131.365 272.399 131.546 266.893C131.959 262.855 129.416 257.632 128.273 253.465Z" fill="#9CCDEE"/>
<path d="M161.508 245.997C160.096 241.769 158.804 237.511 157.421 233.403C156.951 231.994 156.541 230.315 155.199 229.499C153.439 228.531 151.129 229.475 149.451 229.885C144.535 231.083 139.649 232.401 134.883 233.69C132.485 234.275 133.391 237.992 135.789 237.407C139.026 236.618 142.234 235.709 145.59 234.89C146.31 234.715 152.278 232.625 152.874 232.987C155.529 234.499 157.645 246.304 158.586 249.123C159.262 251.371 160.475 253.743 160.791 256.079C161.545 260.214 160.024 259.187 155.948 260.181C150.673 261.467 145.398 262.753 140.213 263.89C137.638 253.849 135.063 243.808 132.128 233.854C131.658 232.445 129.619 232.941 129.85 234.409C131.852 245.225 134.454 255.896 136.935 266.595C137.169 267.554 138.213 268.189 139.172 267.955C144.207 266.727 149.272 265.619 154.307 264.392C157.065 263.719 161.644 263.746 163.84 261.813C168.08 258.366 162.891 250.106 161.508 245.997Z" fill="#9CCDEE"/>
<path d="M189.617 239.906C188.325 235.648 187.633 226.037 182.826 224.034C178.048 222.15 169.618 225.603 164.735 226.412C163.656 226.675 163.203 227.421 163.287 228.289C163.316 228.409 163.226 228.558 163.255 228.678C165.079 239.284 167.622 249.714 170.615 259.908C170.878 260.987 171.893 261.501 172.852 261.267C177.466 260.397 181.931 259.435 186.399 257.965C188.168 257.406 191.224 256.915 192.461 255.216C195.175 251.761 190.763 243.564 189.617 239.906ZM186.812 253.926C182.94 255.76 178.177 256.54 173.922 257.323C171.101 248.358 168.611 239.185 166.12 230.012C169.986 229.196 175.595 227.194 179.273 227.694C184.118 228.291 184.667 236.794 185.781 240.841C186.485 243.21 187.161 245.458 187.865 247.827C188.836 250.766 190.444 252.152 186.812 253.926Z" fill="#9CCDEE"/>
<path d="M138.655 295.008C137.275 290.391 136.504 284.101 133.773 280.194C133.387 279.653 132.882 279.142 132.133 279.197C125.425 279.816 118.191 283.485 111.834 285.543C111.474 285.631 111.263 285.809 111.053 285.988L111.024 285.868C110.851 284.64 108.875 284.868 108.927 286.125C109.724 298.251 111.899 310.295 114.883 322.015C115.117 322.974 116.19 323.729 117.12 323.375C125.693 321.031 134.358 318.537 142.931 316.193C143.89 315.959 144.645 314.886 144.291 313.956C142.353 307.57 140.564 301.274 138.655 295.008ZM111.602 289.283C111.871 289.345 112.26 289.377 112.74 289.26C116.848 287.877 120.837 286.524 124.974 285.261C130.852 283.32 131.501 284.94 133.234 290.487C135.435 297.952 137.786 305.508 139.987 312.973C132.612 315.025 125.238 317.077 118.012 319.22C115.466 309.298 113.429 299.38 111.602 289.283Z" fill="#9CCDEE"/>
<path d="M172.363 293.648C170.575 287.353 168.876 280.908 167.087 274.612C166.853 273.653 165.78 272.899 164.701 273.162C158.347 274.711 151.873 276.289 145.519 277.839C143.122 278.423 143.998 282.02 146.425 281.555C152.18 280.152 157.964 278.869 163.838 277.437C165.832 284.571 167.826 291.706 169.79 298.721C170.641 301.689 171.328 301.903 169.19 304.075C167.535 305.622 165.377 306.148 163.397 306.885C159.888 308.121 156.379 309.358 152.99 310.565C149.582 299.711 146.802 288.83 143.633 277.917C143.341 276.718 141.543 277.157 141.715 278.385C143.471 290.277 146.576 301.968 149.89 313.48C150.124 314.439 151.197 315.194 152.127 314.84C158.095 312.75 165.347 311.236 170.962 308.216C172.523 307.327 174.202 306.918 174.751 305.005C175.728 301.719 173.185 296.496 172.363 293.648Z" fill="#9CCDEE"/>
<path d="M202 282.358C200.386 276.782 198.863 271.057 197.25 265.48C197.016 264.521 195.972 263.887 195.013 264.12C188.208 265.906 181.255 267.602 174.714 270.467C174.263 270.703 174.082 271.002 173.901 271.3C173.901 271.3 173.901 271.3 173.871 271.18C173.491 269.622 171.363 270.268 171.594 271.735C172.371 277.008 173.537 282.312 174.703 287.616C175.606 291.841 176.138 298.19 178.331 301.974C180.997 306.658 187.603 303.015 191.679 302.021C195.635 301.057 205.422 301.084 205.575 295.458C205.718 291.359 203.084 286.285 202 282.358ZM201.744 295.376C200.656 297.165 192.51 298.136 190.711 298.574C188.793 299.042 183.392 301.375 181.752 300.377C180.112 299.38 179.577 293.541 179.139 291.742C177.499 285.537 176.128 279.394 174.368 273.218C174.725 273.639 175.292 273.882 175.862 273.616C181.947 272.005 187.916 269.915 194.121 268.275C195.793 274.091 197.345 279.937 199.017 285.753C199.487 287.162 202.469 294.183 201.744 295.376Z" fill="#9CCDEE"/>
<path d="M148.183 344.507C145.675 338.387 143.886 332.091 142.427 325.588C142.193 324.629 141.12 323.874 140.191 324.228C134.255 325.929 128.205 326.642 122.21 328.104C121.97 328.162 121.851 328.191 121.64 328.37C121.374 327.799 121.199 327.08 120.933 326.51C120.52 325.34 118.541 326.077 118.833 327.276C120.622 333.571 121.393 339.861 121.983 346.449C122.346 351.06 122.164 356.566 123.514 361.063C125.54 367.809 131.57 365.45 137.383 364.287C141.248 363.472 153.044 362.882 153.586 357.288C154.086 353.61 149.452 347.627 148.183 344.507ZM146.246 358.443C144.351 360.048 139.082 360.316 136.655 360.781C135.336 361.103 133.868 361.333 132.52 361.535C128.356 362.169 126.389 360.871 126.679 357.371C125.079 354.458 125.738 349.344 125.428 345.99C124.949 340.899 124.11 335.896 122.672 331.039C128.269 331.072 133.933 329.818 139.389 328.234C140.85 334.228 142.552 340.164 144.972 345.925C146.475 350.004 150.638 354.577 146.246 358.443Z" fill="#9CCDEE"/>
<path d="M182.947 341.747C180.775 334.401 178.603 327.056 176.312 319.74C175.253 316.441 175.116 314.316 171.435 314.324C165.718 314.321 158.727 317.422 153.092 318.796C152.373 318.972 151.981 319.448 151.858 319.986C151.229 320.012 150.688 320.398 150.893 321.238C152.588 328.191 154.494 334.966 156.429 341.861C157.338 345.069 158.212 354.382 161.103 356.344C163.846 358.216 168.77 355.491 171.618 354.67C174.586 353.819 181.981 353.414 183.853 350.671C185.844 347.899 183.888 344.566 182.947 341.747ZM178.476 348.934C175.894 350.325 171.189 351.345 168.253 351.807C162.501 352.701 162.399 349.678 160.841 344.85C158.491 337.294 156.17 329.858 153.58 322.361C153.7 322.331 153.849 322.422 153.969 322.393C157.805 321.457 161.642 320.522 165.478 319.587C171.472 318.125 172.864 320.707 174.448 326.164C175.711 330.301 176.974 334.439 178.208 338.457C178.766 340.226 179.353 342.115 179.792 343.913C180.146 344.843 180.379 345.802 180.613 346.761C181.531 348.443 180.809 349.127 178.476 348.934Z" fill="#9CCDEE"/>
<path d="M215.32 328.138C213.388 320.734 211.485 313.45 209.553 306.047C209.319 305.087 208.276 304.453 207.316 304.687C200.123 306.44 192.93 308.194 185.856 309.919C183.579 310.474 184.456 314.071 186.733 313.515C193.327 311.908 199.921 310.3 206.515 308.693C208.301 315.497 209.938 322.211 211.724 329.015C212.542 332.372 215.296 337.416 212.346 340.422C210.6 342.118 205.208 342.924 202.898 343.868C199.868 344.988 195.871 347.868 192.985 344.888C191.289 343.142 190.79 336.405 190.205 334.007C188.302 326.723 186.519 319.41 184.286 312.334C183.874 311.164 182.345 311.664 182.488 312.772C183.435 319.781 184.981 326.644 186.527 333.507C187.693 338.811 188.283 345.399 190.95 350.084C191.216 350.654 191.812 351.017 192.441 350.99C198.429 350.546 204.824 347.082 210.433 345.08C212.532 344.314 216.936 343.621 218.027 341.323C219.51 338.548 216.083 330.746 215.32 328.138Z" fill="#9CCDEE"/>
<path d="M156.128 367.719C151.594 365.268 140.239 372.355 136.932 374.939C135.548 376.039 137.303 378.024 138.654 377.314C142.765 375.422 151.453 368.859 155.137 373.549C156.414 375.143 156.452 378.944 156.949 380.982C157.65 383.859 158.352 386.737 159.083 389.734C160.486 395.489 163.126 399.544 156.263 401.091C151.467 402.26 146.672 403.429 141.876 404.598C139.035 393.987 136.194 383.375 132.783 373.029C132.312 371.62 130.274 372.117 130.625 373.556C132.983 384.793 136.09 395.975 139.049 407.066C139.282 408.025 140.177 408.569 141.136 408.335C146.052 407.137 150.967 405.938 155.883 404.74C158.28 404.155 161.573 404.115 163.409 402.27C167.202 398.551 162.647 389.246 161.624 385.05C160.809 381.184 160.216 369.897 156.128 367.719Z" fill="#9CCDEE"/>
<path d="M188.213 377.932C186.336 371.277 184.46 364.622 182.612 358.086C182.349 357.007 181.036 356.311 179.925 356.963C174.878 360.226 169.568 362.41 164.018 364.652C163.6 364.5 163.149 364.737 162.877 365.184C161.886 365.807 162.237 367.245 163.012 367.819C164.596 378.483 166.659 389.03 168.363 399.665C168.447 400.533 169.64 401.258 170.45 400.934C176.088 399.051 182.98 397.625 188.264 394.813C190.276 393.687 190.966 393.392 191.458 391.24C192.315 387.982 188.973 381.049 188.213 377.932ZM187.782 390.231C187.115 391.663 183.758 392.482 182.349 392.952C178.779 394.458 175.121 395.604 171.462 396.75C169.724 387.013 167.835 377.185 165.257 367.652C170.383 366.275 175.036 363.998 179.571 361.241C181.711 368.975 183.85 376.709 186.11 384.415C186.522 385.584 188.206 389.365 187.782 390.231Z" fill="#9CCDEE"/>
<path d="M220.691 366.838C219.668 362.642 219.631 353.633 214.701 352.168C212.64 351.527 209.698 353.007 207.78 353.474C203.104 354.614 198.429 355.754 193.782 357.014C191.504 357.569 192.261 361.195 194.659 360.611C199.335 359.471 204.01 358.331 208.657 357.071C212.134 356.223 213.28 354.674 214.932 358.843C215.847 361.034 216.189 363.999 216.773 366.396C217.913 371.072 221.933 379.745 217.541 383.61C215.134 385.721 209.83 386.887 206.172 388.033C204.772 381.77 203.281 375.656 201.191 369.688C200.279 366.989 199.349 362.135 196.665 360.503C196.367 360.321 195.738 360.348 195.437 360.675C195.226 360.853 195.136 361.003 194.925 361.181C194.624 361.508 194.592 361.897 194.949 362.318C195.098 362.409 195.156 362.649 195.305 362.739C195.513 363.07 196.112 362.924 196.144 362.535C195.495 366.123 198.544 371.857 199.45 375.573C200.827 380.699 201.935 385.764 202.952 390.978C203.157 391.817 204.259 392.691 205.189 392.337C209.268 390.835 213.347 389.332 217.306 387.859C219.286 387.122 222.432 386.482 223.731 384.514C226.059 380.517 221.714 371.034 220.691 366.838Z" fill="#9CCDEE"/>
</svg>
