<svg width="19" height="19" viewBox="0 0 19 19" fill="none" xmlns="http://www.w3.org/2000/svg">
<path d="M17.9995 13.7703V16.3927C18.0004 16.6361 17.9506 16.8771 17.8531 17.1002C17.7555 17.3232 17.6125 17.5234 17.4331 17.688C17.2537 17.8526 17.0419 17.9779 16.8113 18.0559C16.5807 18.1339 16.3363 18.1629 16.0939 18.1409C13.404 17.8487 10.8203 16.9295 8.55016 15.4574C6.43812 14.1153 4.64748 12.3247 3.30541 10.2126C1.82812 7.93221 0.908767 5.33587 0.621841 2.63395C0.599997 2.39223 0.628725 2.1486 0.706195 1.91859C0.783664 1.68857 0.908179 1.47721 1.07181 1.29796C1.23544 1.1187 1.43461 0.97548 1.65662 0.877414C1.87864 0.779348 2.11864 0.728585 2.36135 0.728356H4.98373C5.40795 0.724181 5.81921 0.874404 6.14086 1.15102C6.46251 1.42765 6.67261 1.81179 6.73198 2.23185C6.84266 3.07107 7.04793 3.89508 7.34387 4.68815C7.46148 5.00102 7.48693 5.34104 7.41721 5.66794C7.3475 5.99483 7.18553 6.29489 6.95051 6.53255L5.84037 7.64269C7.08474 9.8311 8.89671 11.6431 11.0851 12.8874L12.1953 11.7773C12.4329 11.5423 12.733 11.3803 13.0599 11.3106C13.3868 11.2409 13.7268 11.2663 14.0397 11.3839C14.8327 11.6799 15.6567 11.8852 16.496 11.9958C16.9206 12.0557 17.3084 12.2696 17.5856 12.5968C17.8628 12.924 18.0101 13.3416 17.9995 13.7703Z" stroke="black" stroke-linecap="round" stroke-linejoin="round"/>
</svg>
