<svg width="41" height="41" viewBox="0 0 41 41" fill="none" xmlns="http://www.w3.org/2000/svg">
<circle cx="20.7695" cy="20.8267" r="19.5" stroke="#092640"/>
<path d="M24.9363 12.4932H16.6029C14.3018 12.4932 12.4363 14.3586 12.4363 16.6598V24.9932C12.4363 27.2944 14.3018 29.1598 16.6029 29.1598H24.9363C27.2375 29.1598 29.1029 27.2944 29.1029 24.9932V16.6598C29.1029 14.3586 27.2375 12.4932 24.9363 12.4932Z" stroke="#092640" stroke-linecap="round" stroke-linejoin="round"/>
<path d="M24.1028 20.3014C24.2056 20.995 24.0872 21.7033 23.7642 22.3256C23.4413 22.9479 22.9304 23.4526 22.3041 23.7678C21.6779 24.083 20.9682 24.1928 20.2759 24.0814C19.5837 23.97 18.9443 23.6432 18.4485 23.1474C17.9527 22.6516 17.6259 22.0122 17.5145 21.3199C17.4031 20.6277 17.5128 19.918 17.8281 19.2917C18.1433 18.6655 18.6479 18.1545 19.2703 17.8316C19.8926 17.5087 20.6009 17.3902 21.2945 17.4931C22.0019 17.598 22.6568 17.9276 23.1625 18.4333C23.6682 18.939 23.9979 19.594 24.1028 20.3014Z" stroke="#092640" stroke-linecap="round" stroke-linejoin="round"/>
<path d="M25.3528 16.2432H25.3611" stroke="#092640" stroke-linecap="round" stroke-linejoin="round"/>
</svg>
