<svg width="325" height="95" viewBox="0 0 325 95" fill="none" xmlns="http://www.w3.org/2000/svg">
<path d="M29.2727 60.8332C29.7727 54.2332 30.2727 47.5332 30.8727 40.9332C32.5727 39.7332 34.5727 39.6332 36.5727 39.5332C46.7727 39.5332 57.0727 39.5332 67.2727 39.5332C69.2727 39.5332 71.1727 39.9332 72.9727 40.8332C73.9727 54.1332 73.2727 67.3332 73.3727 80.6332C73.4727 93.3332 74.9727 92.0332 61.8727 91.8332C50.7727 91.6332 39.5727 91.2332 28.4727 90.9332C27.1727 90.0332 27.2727 88.6332 27.3727 87.3332C27.9727 80.1332 27.4727 73.0332 27.6727 65.8332C27.9727 64.1332 27.7727 62.1332 29.2727 60.8332Z" fill="#04237E"/>
<path d="M29.1727 65.1334C29.3727 73.7334 29.1727 82.3334 28.5727 90.9334C20.4727 91.0334 12.3727 91.0334 4.17274 91.1334C2.27274 91.1334 0.272742 91.1334 0.372742 88.4334C0.672742 76.7334 0.572742 65.0334 1.97274 53.3334C8.77274 51.6334 15.7727 51.8334 22.6727 51.7334C24.2727 51.7334 26.0727 51.8334 27.0727 53.4334C27.4727 55.6334 27.9727 57.7334 28.3727 59.9334C29.2727 61.5334 28.1727 63.4334 29.1727 65.1334Z" fill="#FC2429"/>
<path d="M194.073 67.0331C194.073 61.8331 194.273 57.3331 193.973 52.8331C193.773 49.3331 195.973 49.4331 198.073 49.8331C200.173 50.2331 203.973 47.8331 203.973 52.6331C203.973 65.2331 203.973 77.9331 203.973 90.5331C203.973 92.9331 198.373 94.8331 195.073 92.8331C193.273 91.7331 192.673 92.0331 191.173 92.7331C187.373 94.7331 183.473 94.4331 179.773 92.4331C174.373 89.4331 171.273 82.5331 172.273 75.7331C172.973 70.4331 177.273 65.9331 182.873 64.4331C186.973 63.2331 190.373 64.9331 194.073 67.0331Z" fill="#FC2429"/>
<path d="M132.273 78.6331C132.273 81.4331 132.273 84.3331 132.273 87.1331C132.273 92.9331 128.773 95.2331 123.273 92.7331C122.073 92.1331 121.673 91.3331 120.173 92.3331C115.573 95.2331 110.873 94.7331 106.673 91.6331C101.773 88.1331 99.9727 82.9331 100.573 77.1331C101.773 66.0331 109.973 61.3331 120.473 65.1331C122.973 66.0331 125.273 63.6331 128.073 63.9331C131.073 64.2331 132.573 64.6331 132.273 68.1331C131.973 71.6331 132.273 75.1331 132.273 78.6331Z" fill="#FC2429"/>
<path d="M72.9727 40.8332C58.9727 40.8332 44.8727 40.8332 30.8727 40.8332C33.7727 36.1332 36.1727 31.1332 39.5727 26.9332C44.4727 20.9332 45.3727 14.2332 44.9727 6.93324C44.5727 -0.766765 44.8727 -0.766765 51.9727 1.93324C54.8727 3.03324 57.8727 4.13323 61.5727 5.53324C58.8727 6.33324 56.8727 6.73323 55.0727 7.53324C52.9727 8.53324 49.2727 7.33324 49.0727 10.7332C48.7727 14.5332 48.1727 18.3332 52.0727 21.5332C59.3727 27.6332 66.5727 33.8332 72.9727 40.8332Z" fill="#FC2429"/>
<path d="M168.073 82.8331C168.073 84.6331 167.873 86.5331 168.073 88.3331C168.573 92.2331 167.173 93.3331 163.173 93.3331C158.973 93.4331 157.673 92.1331 158.073 88.0331C158.473 84.5331 158.273 81.0331 158.073 77.5331C157.973 74.6331 157.073 72.1331 153.573 72.0331C149.973 71.9331 148.573 74.3331 148.373 77.4331C148.173 81.5331 148.073 85.7331 148.373 89.9331C148.573 93.3331 146.573 93.4331 144.273 93.0331C142.173 92.6331 138.473 95.0331 138.473 90.1331C138.473 82.6331 138.373 75.1331 138.473 67.7331C138.473 65.0331 144.873 62.7331 147.473 65.2331C149.273 66.9331 149.673 66.3331 151.273 65.5331C159.773 61.1331 167.573 65.7331 167.873 75.3331C168.173 77.8331 168.073 80.3331 168.073 82.8331Z" fill="#FC2429"/>
<path d="M85.7727 71.7333C85.7727 65.5333 85.9728 59.4333 85.6728 53.2333C85.4728 49.1333 88.0727 49.5333 90.4727 49.7333C92.7727 49.9333 96.0727 48.2333 95.9727 53.0333C95.7727 65.5333 95.7727 78.0333 95.9727 90.5333C96.0727 95.3333 92.6727 93.5333 90.3727 93.8333C87.8727 94.1333 85.3727 94.3333 85.5727 90.2333C85.9727 84.1333 85.7727 77.9333 85.7727 71.7333Z" fill="#FC2429"/>
<path d="M27.0727 53.4335C18.6727 53.4335 10.2727 53.3335 1.97272 53.3335C4.67272 48.0335 7.57272 42.8335 10.1727 37.4335C11.5727 34.5335 14.5727 31.9335 11.6727 28.0335C10.7727 26.8335 12.1727 25.1335 13.4727 24.3335C14.7727 23.5335 16.3727 23.6335 17.6727 24.5335C19.2727 25.6335 19.8727 27.6335 18.8727 28.9335C16.8727 31.3335 18.2727 33.2335 19.1727 35.2335C21.7727 41.3335 24.3727 47.4335 27.0727 53.4335Z" fill="#05247E"/>
<path d="M163.473 44.0332C163.473 41.4332 163.573 39.3332 163.473 37.2332C163.273 34.9332 164.073 34.1332 166.473 34.0332C169.173 33.9332 169.373 35.2332 169.273 37.3332C169.173 44.1332 169.073 50.9332 169.273 57.7332C169.373 60.5332 168.273 61.1332 165.773 60.9332C164.373 60.8332 163.173 59.8332 161.473 60.5332C157.573 62.2332 154.173 61.0332 152.073 57.4332C149.973 53.8332 149.473 49.8332 152.173 46.2332C154.673 42.9332 158.073 42.2332 161.973 43.8332C162.373 44.0332 162.673 44.0332 163.473 44.0332Z" fill="#04277A"/>
<path d="M141.573 44.3333C141.573 41.4333 141.673 39.3333 141.573 37.2333C141.373 34.8333 142.273 34.1333 144.673 34.1333C146.973 34.1333 147.473 35.0333 147.373 37.0333C147.273 44.0333 147.373 50.9333 147.273 57.9333C147.273 58.8333 146.973 60.6333 146.673 60.6333C142.673 60.9333 138.673 61.3333 134.673 61.0333C131.873 60.8333 130.173 58.4333 129.273 55.7333C128.173 52.2333 128.073 48.8333 130.673 45.9333C133.673 42.4333 137.273 42.7333 141.573 44.3333Z" fill="#05277A"/>
<path d="M104.273 50.1333C107.973 45.6333 110.573 41.5333 116.073 43.7333C116.073 44.0333 116.173 44.4333 116.073 44.6333C114.473 47.5333 109.773 49.3333 111.173 52.8333C112.173 55.5333 115.873 57.2333 119.173 59.9333C111.673 61.3333 111.673 61.3333 104.673 55.1333C103.773 57.4333 105.873 61.9333 100.673 60.9333C98.9727 60.6333 98.3727 60.1333 98.3727 58.4333C98.3727 51.1333 98.4727 43.8333 98.3727 36.5333C98.3727 33.9333 99.7727 34.1333 101.573 34.0333C103.673 33.9333 104.573 34.5333 104.473 36.8333C104.173 40.7333 104.273 44.7333 104.273 50.1333Z" fill="#05277A"/>
<path d="M181.873 61.1333C176.273 61.1333 172.173 57.2333 172.273 51.9333C172.373 46.8333 176.673 43.0333 182.273 43.1333C187.773 43.2333 191.473 46.8333 191.573 52.0333C191.573 57.4333 187.573 61.1333 181.873 61.1333Z" fill="#04277A"/>
<path d="M318.073 53.033C318.773 51.933 319.473 50.833 320.173 49.733C320.873 48.733 321.973 48.933 322.873 49.033C324.273 49.233 323.973 50.433 324.073 51.333C324.073 53.133 324.173 54.933 324.073 56.833C323.973 58.033 324.673 59.833 322.573 59.833C320.773 59.833 321.473 58.133 321.273 57.133C321.173 56.333 321.173 55.533 321.173 54.733C319.773 54.633 319.573 55.833 318.973 56.533C317.673 57.833 316.773 60.933 314.673 59.733C312.173 58.333 313.873 55.233 313.573 52.933C313.373 51.133 312.773 48.533 316.273 49.133C317.673 50.033 315.373 52.733 318.073 53.033Z" fill="#1E3389"/>
<path d="M220.373 65.4334C223.373 64.8334 224.773 65.8334 224.373 69.0334C224.173 71.1334 224.273 73.2335 225.573 75.1335C226.073 75.8335 225.973 77.2335 225.173 77.8335C224.173 78.6335 223.673 77.6334 222.873 77.0334C221.173 75.7334 219.073 75.5335 217.573 77.1335C216.573 78.1335 215.873 78.8335 214.873 77.7335C214.073 76.8335 213.973 75.1334 214.773 74.5334C216.673 72.9334 216.373 71.0335 216.173 69.1335C215.673 65.7335 217.273 64.8334 220.373 65.4334Z" fill="#132A84"/>
<path d="M125.373 52.4333C125.373 54.4333 125.273 56.4333 125.373 58.4333C125.473 60.3333 124.573 61.0333 122.673 61.0333C120.873 61.0333 119.873 60.6333 119.873 58.5333C119.973 54.5333 119.973 50.5333 119.873 46.6333C119.773 44.3333 120.773 43.8333 122.873 43.9333C124.873 43.9333 125.473 44.7333 125.373 46.6333C125.273 48.4333 125.373 50.4333 125.373 52.4333Z" fill="#042679"/>
<path d="M301.373 49.4334C306.673 48.2334 303.073 52.8335 304.773 54.2335C304.773 54.2335 305.273 54.1334 305.573 53.9334C307.473 52.5334 308.273 47.6334 310.973 49.8334C313.073 51.5334 311.673 56.0334 311.473 59.3334C311.473 59.6334 310.773 60.0335 310.373 60.0335C309.573 60.1335 309.173 59.6334 309.173 58.9334C309.073 57.7334 309.073 56.4335 308.873 54.0335C305.773 59.1334 302.373 61.9335 297.073 59.2335C297.473 58.3335 298.273 58.0334 298.973 57.4334C301.273 55.2334 298.673 51.4334 301.373 49.4334Z" fill="#192E87"/>
<path d="M264.373 65.1333C268.273 65.3333 265.373 68.9333 266.873 70.3333C267.173 70.2333 267.573 70.1333 267.773 69.9333C269.673 68.4333 270.473 63.6333 273.273 65.6333C275.773 67.3333 273.873 71.7333 274.073 75.0333C274.173 75.7333 273.473 76.1333 272.773 76.1333C272.073 76.1333 271.373 75.9333 271.373 75.1333C271.273 73.9333 271.173 72.6333 271.073 71.1333C268.973 72.5333 268.173 74.2333 267.173 75.9333C264.973 77.4333 263.573 76.2333 263.173 74.2333C262.473 71.0333 261.973 67.8333 264.373 65.1333Z" fill="#23388C"/>
<path d="M276.473 49.1331C277.673 49.2331 279.273 48.4331 279.273 50.7331C279.273 52.0331 279.473 53.4331 279.273 54.7331C278.973 56.5331 280.473 59.5331 278.173 59.8331C274.673 60.2331 277.573 56.3331 275.873 54.9331C275.573 55.1331 275.173 55.4331 274.873 55.7331C273.073 57.1331 272.873 60.7331 269.473 59.7331C268.273 59.3331 268.973 50.5331 270.273 49.2331C270.473 49.0331 270.873 49.2331 271.273 49.1331C273.073 50.3331 272.173 52.4331 272.673 54.1331C272.573 54.6331 273.373 53.8331 272.773 54.0331C272.473 51.2331 274.173 50.0331 276.473 49.1331Z" fill="#132984"/>
<path d="M255.073 54.733C255.073 55.933 255.073 57.033 255.073 58.233C255.073 59.433 254.573 60.133 253.273 60.033C252.073 59.933 252.273 58.933 252.173 58.233C251.673 56.133 253.373 52.233 251.073 52.133C247.973 51.933 250.173 55.733 249.373 57.633C248.773 59.133 247.773 60.633 246.173 60.033C244.373 59.433 245.673 58.033 246.073 56.833C246.473 55.733 246.573 54.533 246.373 53.433C245.873 49.933 247.173 48.733 250.673 49.033C255.073 49.233 255.073 48.933 255.073 54.733Z" fill="#182E86"/>
<path d="M236.073 60.0335C233.973 60.5335 232.873 59.8335 233.173 57.5335C233.273 56.4335 232.973 55.5335 231.573 55.5335C230.273 55.5335 229.273 55.9335 229.273 57.4335C229.273 58.7335 229.473 60.4335 227.373 60.0335C225.373 59.6335 226.373 57.9335 226.273 56.7335C226.173 54.7335 226.273 52.7335 226.273 50.7335C226.273 49.8335 226.573 49.1335 227.673 49.1335C228.673 49.1335 229.273 49.5335 229.273 50.5335C229.373 51.8335 229.173 53.2335 231.173 53.3335C233.673 53.4335 232.973 51.6335 233.273 50.2335C233.573 48.3335 235.073 49.3335 236.073 49.1335C238.373 52.7335 238.373 56.4335 236.073 60.0335Z" fill="#172D86"/>
<path d="M283.373 71.4331C282.973 71.5331 282.673 71.5331 282.473 71.7331C280.673 73.1331 279.673 77.6331 277.273 75.7331C274.773 73.8331 276.573 69.6331 276.473 66.3331C276.473 66.0331 277.073 65.5331 277.473 65.4331C278.173 65.3331 278.873 65.6331 278.973 66.4331C279.173 67.7331 279.273 69.0331 279.373 70.4331C279.773 70.3331 280.173 70.3331 280.373 70.1331C282.373 68.7331 283.073 63.9331 285.973 65.9331C288.173 67.5331 286.573 71.9331 286.573 75.0331C286.573 75.7331 285.873 76.2331 285.173 76.0331C284.773 75.9331 284.373 75.5331 284.173 75.1331C283.473 74.0331 284.373 72.5331 283.373 71.4331Z" fill="#172D86"/>
<path d="M253.373 65.1333C255.973 64.5333 256.173 66.5333 256.573 68.7333C258.273 66.4333 259.873 64.4333 262.873 65.2333C262.973 68.4333 260.473 71.3333 262.973 75.1333C264.173 77.0333 260.873 76.5332 259.273 76.0332C258.473 75.0332 257.973 73.3332 256.673 73.4332C255.773 73.4332 256.273 75.0332 256.173 75.9332C253.973 77.4332 252.573 76.2333 252.173 74.1333C251.673 71.1333 251.073 67.9333 253.373 65.1333Z" fill="#283C8F"/>
<path d="M223.473 60.0334C221.373 57.5334 219.173 57.6334 216.673 59.9334C215.873 60.7334 214.573 59.9334 215.173 58.1334C216.073 55.6334 216.573 53.0334 217.573 50.5334C218.573 48.0334 221.373 48.2334 222.273 49.8334C223.873 52.4334 224.473 55.7334 225.273 58.7334C225.473 59.8334 224.673 60.1334 223.473 60.0334Z" fill="#122983"/>
<path d="M299.273 58.0333C298.773 58.9333 297.973 59.0333 297.073 59.1333C296.173 58.2333 295.173 57.3333 294.173 56.4333C292.473 56.9333 294.573 60.6333 291.573 59.9333C289.273 59.3333 290.673 57.2333 290.373 55.7333C290.173 54.8333 290.173 53.7333 290.373 52.8333C290.573 51.5333 289.373 49.5333 291.473 49.1333C294.173 48.5333 293.073 51.2333 293.573 52.5333C295.173 51.8333 295.873 50.7333 296.373 49.5333C297.273 48.0333 298.873 48.3333 299.873 49.0333C301.073 49.8333 300.173 51.3333 299.473 52.0333C297.473 54.0333 299.673 56.0333 299.273 58.0333Z" fill="#152B85"/>
<path d="M255.173 86.2334C256.373 88.4334 256.973 90.9334 254.173 92.0334C252.273 92.8334 249.073 94.0334 248.173 91.3334C247.273 88.6334 246.573 84.8334 248.773 82.5334C249.573 81.6334 253.773 80.1334 255.173 83.9334C254.273 85.4334 253.073 84.7334 251.773 84.4334C253.073 84.7334 254.373 85.0334 255.173 86.2334Z" fill="#1D3289"/>
<path d="M234.073 74.5332C232.873 77.5332 230.373 76.3332 228.573 75.9332C226.673 75.5332 227.173 73.2332 227.573 72.1332C228.373 69.7332 224.773 65.1332 230.673 65.1332C231.773 65.1332 233.273 64.6332 233.573 66.1332C233.973 68.2332 231.773 67.4332 230.573 68.5332C231.673 69.4332 234.373 69.5332 233.273 71.9332C232.073 73.3332 234.073 73.6332 234.073 74.5332Z" fill="#293D8F"/>
<path d="M224.073 84.0331C219.573 87.0331 224.273 89.2331 225.373 91.9331C223.473 93.0331 222.273 92.2331 221.373 90.9331C220.073 89.1331 219.273 88.9331 219.073 91.5331C218.973 92.3331 218.173 92.4331 217.473 92.4331C216.373 92.3331 216.173 91.5331 216.173 90.6331C216.173 88.8331 216.073 86.9331 216.173 85.1331C216.273 84.1331 215.473 82.6331 217.073 82.1331C218.573 81.7331 218.673 82.9331 219.273 83.9331C220.873 86.2331 221.773 80.3331 224.073 84.0331Z" fill="#152B85"/>
<path d="M264.073 54.1331C261.673 54.7331 261.973 57.5331 260.273 58.8331C259.473 59.4331 258.873 60.2331 257.773 59.8331C256.773 59.4331 256.973 58.5331 256.973 57.7331C256.973 55.7331 256.873 53.7331 256.973 51.8331C256.973 50.8331 256.473 49.2331 258.173 49.1331C260.073 49.0331 259.273 50.7331 259.473 51.7331C259.573 52.4331 259.473 53.2331 259.473 54.2331C262.473 53.1331 262.373 48.5331 266.273 49.2331C267.273 52.5331 266.673 55.7331 266.573 59.6331C263.773 57.9331 265.673 55.4331 264.073 54.1331Z" fill="#0F2682"/>
<path d="M280.373 53.8334C280.073 50.2334 282.873 49.6334 285.273 48.8334C286.373 48.5334 288.073 48.2334 288.373 50.1334C288.573 52.0334 287.173 51.5334 286.073 51.6334C284.373 51.8334 283.273 52.8334 283.473 54.6334C283.673 56.4334 284.873 57.2334 286.573 57.0334C287.773 56.9334 288.473 57.2334 288.373 58.5334C288.273 59.8334 287.373 59.9334 286.273 60.0334C283.073 60.4334 280.273 57.5334 280.373 53.8334Z" fill="#172D86"/>
<path d="M241.873 84.8331C243.273 84.0331 243.273 81.0331 245.473 82.2331C247.573 83.4331 245.473 85.0331 245.073 86.4331C244.673 88.0331 243.773 89.4331 243.273 91.0331C242.773 92.3331 241.773 92.8331 240.573 92.4331C238.973 91.9331 239.973 90.9331 240.173 90.1331C240.473 88.6331 239.373 87.7331 239.073 86.4331C238.673 85.0331 236.273 83.5331 238.173 82.3331C240.073 80.9331 240.873 83.5331 241.873 84.8331Z" fill="#172D86"/>
<path d="M228.273 82.333C230.573 81.833 232.873 81.833 235.173 82.333C235.973 85.533 235.973 88.733 235.173 91.933C230.773 92.033 233.573 88.733 232.873 87.133C232.473 86.133 233.373 84.133 231.273 84.333C229.673 84.433 230.173 86.133 230.273 87.033C230.373 88.733 229.873 90.233 229.073 91.633C228.573 92.533 227.373 92.933 226.573 92.233C225.573 91.433 225.973 90.533 227.073 90.033C228.773 87.633 226.873 84.733 228.273 82.333Z" fill="#122883"/>
<path d="M251.173 76.0333C246.273 76.8333 243.373 75.3333 243.173 71.5333C242.873 67.4333 244.873 65.0333 249.273 65.3333C251.873 66.9333 249.473 67.8333 248.773 69.0333C245.973 73.0333 250.873 72.0333 251.773 73.6333C252.073 74.4333 252.073 75.3333 251.173 76.0333Z" fill="#1A3087"/>
<path d="M238.373 65.1331C242.173 65.1331 241.973 65.0331 240.573 68.3331C239.973 69.9331 240.273 71.9331 240.173 73.7331C240.073 74.8331 240.373 76.2331 238.573 76.1331C237.173 76.0331 237.373 74.9331 237.273 74.0331C236.973 71.6331 237.573 69.4331 235.473 66.9331C233.773 64.8331 237.373 65.6331 238.373 65.1331Z" fill="#20358A"/>
<path d="M259.273 75.9332C260.373 76.0332 261.473 76.0332 264.373 76.1332C258.073 72.1332 259.473 68.6332 262.873 65.1332C263.373 65.1332 263.873 65.0332 264.473 65.0332C264.373 67.9332 264.373 70.8332 264.173 73.7332C263.973 76.3332 265.573 76.1332 267.273 75.7332C264.573 77.7332 261.973 77.6332 259.273 75.9332Z" fill="#F0F1F6"/>
<path d="M238.373 49.1333C239.873 49.1333 241.273 49.0333 242.773 49.1333C244.373 49.2333 244.873 50.9333 243.773 51.2333C240.073 52.1333 241.173 54.8333 241.173 57.0333C241.173 59.2333 240.773 60.6333 238.173 60.0333C236.773 56.4333 236.473 52.7333 238.373 49.1333Z" fill="#1B3088"/>
<path d="M299.273 58.0333C295.873 55.0333 296.773 52.2333 300.173 49.7333C298.673 48.5333 297.573 49.0333 296.373 49.4333C297.973 47.1333 299.673 47.5333 301.373 49.3333C301.473 51.9333 301.473 54.5333 301.573 57.2333C301.573 59.8333 300.373 58.8333 299.273 58.0333Z" fill="#F3F4F8"/>
<path d="M126.073 36.9332C125.773 38.9332 124.973 40.4332 122.973 40.5332C121.073 40.7332 119.773 39.5332 119.673 37.6332C119.473 35.5332 120.573 34.0332 122.773 33.9332C124.873 33.8332 125.373 35.6332 126.073 36.9332Z" fill="#0F307F"/>
<path d="M251.173 76.0333C251.173 75.1333 251.173 74.1333 251.073 73.2333C251.073 71.5333 250.273 69.9333 249.973 68.3333C250.573 67.4333 250.673 66.2333 251.073 65.2333C251.873 65.2333 252.673 65.1333 253.473 65.1333C253.373 68.0333 253.173 70.9333 253.073 73.8333C252.973 76.4333 254.573 76.2333 256.273 75.8333C254.573 78.2333 252.873 76.6333 251.173 76.0333Z" fill="#E8EAF2"/>
<path d="M238.373 49.1332C238.373 52.7332 238.273 56.4332 238.273 60.0332C237.573 60.0332 236.773 60.0332 236.073 59.9332C236.073 56.3332 236.073 52.7332 236.073 49.0332C236.873 49.1332 237.673 49.1332 238.373 49.1332Z" fill="#F5F6FA"/>
<path d="M276.473 49.133C275.173 50.933 273.773 52.833 271.773 55.533C271.473 52.733 271.273 50.933 271.173 49.133C271.573 48.733 271.873 48.433 272.273 48.033C273.373 47.333 274.373 47.133 275.273 48.233C275.673 48.633 276.073 48.833 276.473 49.133Z" fill="#E1E4EF"/>
<path d="M264.073 54.133C265.873 54.833 264.773 56.733 266.173 58.833C266.173 55.133 266.173 52.233 266.173 49.333C267.873 52.033 266.573 54.933 266.873 57.733C266.973 58.733 266.873 59.933 265.573 59.933C263.773 60.033 264.173 58.533 264.073 57.533C264.173 56.433 264.173 55.233 264.073 54.133Z" fill="#2A3E8F"/>
<path d="M320.973 47.7332C319.173 48.0332 317.573 49.0332 316.373 47.2332C316.173 46.9332 316.573 45.9332 316.573 45.9332C318.173 45.9332 319.973 45.5332 320.973 47.7332Z" fill="#394C98"/>
<path d="M235.173 91.933C235.173 88.733 235.173 85.533 235.173 82.333C236.473 85.533 236.573 88.733 235.173 91.933Z" fill="#283C8F"/>
<path d="M277.573 61.9331C280.473 62.3331 282.073 62.5331 284.573 62.9331C281.773 64.9331 280.173 64.6331 277.573 61.9331Z" fill="#2B3F90"/>
<path d="M275.273 48.3335C274.273 48.2335 273.273 48.2335 272.273 48.1335C271.973 47.3335 270.273 45.9335 272.873 46.3335C273.073 46.2335 277.373 44.4335 275.273 48.3335Z" fill="#263A8D"/>
<path d="M228.273 82.333C227.773 84.933 229.473 87.733 227.173 90.033C228.073 87.533 226.473 84.633 228.273 82.333Z" fill="#22368B"/>
<path d="M318.073 53.0334C317.773 53.4334 317.573 53.9334 317.273 54.1334C316.773 54.4334 316.473 54.0334 316.373 53.5334C316.273 52.1334 316.273 50.6334 316.173 49.2334C317.973 49.8334 316.673 52.0334 318.073 53.0334Z" fill="#E2E5EF"/>
<path d="M234.073 74.5332C233.173 73.4332 230.873 74.5332 230.773 72.7332C230.773 71.9332 232.373 72.1332 233.273 72.0332C233.473 72.8332 233.773 73.7332 234.073 74.5332Z" fill="#EFF1F6"/>
<path d="M255.173 86.2331C253.773 85.8331 252.373 85.4331 250.773 85.0331C252.073 83.5331 253.873 84.5331 255.173 83.9331C255.173 84.6331 255.173 85.4331 255.173 86.2331Z" fill="#DEE1ED"/>
<path d="M250.973 65.2334C251.073 66.3334 251.773 67.6334 250.273 68.4334C249.473 68.7334 248.773 68.6334 248.173 67.9334C248.773 67.2334 250.473 66.8334 249.173 65.3334C249.873 65.2334 250.373 65.2334 250.973 65.2334Z" fill="#283C8F"/>
<path d="M29.1727 65.1331C27.7727 63.6331 28.2727 61.7331 28.3727 59.9331C28.6727 60.2331 29.0727 60.5331 29.3727 60.8331C29.2727 62.2331 29.1727 63.6331 29.1727 65.1331Z" fill="#FC2429"/>
<path d="M66.5728 56.133C66.4728 60.333 63.3728 63.233 59.2728 63.233C55.0728 63.133 52.1728 60.133 52.2728 55.933C52.3728 51.733 55.3728 48.833 59.5728 48.833C63.6728 48.833 66.6728 51.933 66.5728 56.133Z" fill="#FC2429"/>
<path d="M13.3727 63.6332C13.3727 64.8332 13.4727 65.9332 13.3727 67.1332C13.1727 69.4332 10.2727 70.6332 8.37274 69.2332C7.57274 68.6332 5.57274 59.4332 6.27274 58.8332C7.67274 57.3332 9.57274 58.3332 11.3727 58.1332C12.8727 57.9332 13.4727 58.8332 13.3727 60.2332C13.2727 61.3332 13.3727 62.5332 13.3727 63.6332Z" fill="#09237C"/>
<path d="M14.0727 78.1332C13.8727 79.9332 14.7727 82.4332 11.4727 82.2332C7.47274 82.0332 9.67274 78.8332 8.97274 76.9332C8.17274 74.8332 9.17274 74.0332 11.3727 74.0332C14.6727 74.0332 13.9727 76.3332 14.0727 78.1332Z" fill="#162377"/>
<path d="M188.773 85.7332C185.273 85.7332 182.073 82.5332 182.473 79.2332C182.873 75.7332 184.973 73.5332 188.673 73.3332C192.073 73.1332 194.773 76.1332 194.573 79.8332C194.273 83.5332 192.173 85.4332 188.773 85.7332Z" fill="#FEFBFB"/>
<path d="M117.273 85.2333C112.773 85.2333 110.973 82.6332 110.473 79.0332C109.973 75.6332 113.473 71.9333 116.773 72.1333C120.673 72.4333 122.873 75.0333 122.973 78.6333C123.073 82.3333 120.873 84.8333 117.273 85.2333Z" fill="#FEFBFB"/>
<path d="M160.173 48.7334C162.573 48.9334 163.873 50.3334 163.873 52.6334C163.873 54.6334 162.673 56.1334 160.473 56.1334C158.273 56.2334 156.973 54.9334 156.873 52.8334C156.573 50.5334 157.773 49.0334 160.173 48.7334Z" fill="#F7F8FA"/>
<path d="M141.973 52.4333C141.473 54.7333 140.473 56.2333 138.073 56.1333C135.873 56.0333 134.773 54.5333 134.773 52.6333C134.773 50.4333 135.873 48.8333 138.273 48.8333C140.673 48.7333 141.573 50.4333 141.973 52.4333Z" fill="#F5F6F9"/>
<path d="M182.173 55.9331C179.873 55.6331 178.473 54.4331 178.373 52.1331C178.373 50.0331 179.373 48.5331 181.573 48.3331C183.973 48.1331 185.273 49.4331 185.473 51.8331C185.673 54.2331 184.273 55.4331 182.173 55.9331Z" fill="#EEF0F5"/>
<path d="M218.873 71.033C219.173 69.633 218.373 67.933 220.573 68.033C222.173 68.133 221.973 69.433 221.973 70.533C221.973 71.733 222.273 73.433 220.473 73.633C218.373 73.833 219.373 71.833 218.873 71.033Z" fill="#D5D9E9"/>
<path d="M220.473 53.733C220.573 54.033 220.973 54.533 221.073 55.133C221.173 56.033 220.273 56.233 219.873 55.933C219.473 55.733 219.373 54.933 219.373 54.333C219.273 53.933 219.373 53.233 220.473 53.733Z" fill="#BEC4DC"/>
<path d="M251.473 88.0332C252.173 88.0332 252.773 88.2332 252.873 88.9332C253.073 89.8332 252.273 90.0332 251.673 90.1332C251.273 90.1332 250.673 89.7332 250.573 89.4332C250.373 88.7332 250.673 88.1332 251.473 88.0332Z" fill="#FDFEFE"/>
<path d="M248.273 67.833C248.973 68.033 249.673 68.233 250.373 68.333C252.173 69.733 253.373 71.133 251.173 73.133C249.473 73.733 247.473 74.233 246.573 72.133C245.573 70.333 246.173 68.733 248.273 67.833Z" fill="#F6F7FA"/>
</svg>
