<svg width="122" height="122" viewBox="0 0 122 122" fill="none" xmlns="http://www.w3.org/2000/svg">
<path d="M12.9926 70.042C14.4785 67.2833 17.1197 65.5854 19.3769 64.0913C21.5215 62.7555 23.416 60.7646 25.4021 59.316C27.3882 57.8674 29.804 56.4861 31.3815 54.2697C31.8322 53.6364 33.3007 53.2505 34.3396 52.7973C35.4911 52.1858 36.3257 51.3487 37.6815 51.1211C40.2347 50.5532 39.2133 48.6336 38.8257 47.1652C38.1634 44.0701 36.0325 41.3609 34.8278 38.3568C33.8732 36.0078 33.3483 33.7261 32.6648 31.3315C32.4147 30.6765 32.4358 29.9759 32.073 29.4792C31.3017 28.2147 30.7346 27.334 32.4953 26.202C34.0976 24.9573 34.89 25.5213 36.4291 26.3782C38.2851 27.4607 39.8489 29.2892 41.726 29.6712C44.8921 30.255 46.8187 32.5802 49.3086 34.1139C50.8477 34.9708 51.9819 36.7321 53.5667 37.8601C54.6761 38.6497 55.2185 38.5587 56.0988 37.9927C57.7469 37.0191 59.2365 35.9326 60.8846 34.959C61.8776 34.2347 63.3003 33.5776 64.6103 33.0789C66.7339 32.4437 68.6531 31.4245 69.8468 29.4119C70.0721 29.0953 70.5229 28.462 70.6813 28.5748C73.3051 29.2496 74.8368 26.7621 77.3231 26.6236C78.8374 26.5088 80.644 25.6479 81.8624 24.607C82.8554 23.8827 83.3309 24.2211 84.0775 24.514C84.87 25.078 85.6624 25.642 85.3033 26.8175C84.9442 27.993 84.4724 29.3268 83.9548 30.3895C82.5816 32.9899 81.955 35.8831 80.3106 38.529C78.8247 41.2877 77.9727 44.4975 76.6453 47.369C75.5432 49.9239 76.0892 51.5051 77.9242 53.2881C80.5974 55.9063 83.158 58.6827 85.6058 61.6175C87.078 62.9039 88.8213 64.1447 90.0013 66.1771C90.6142 67.3288 91.7694 68.3896 92.7203 69.0664C95.8232 71.7518 97.3238 75.682 100.155 78.413C101.469 79.5865 100.906 80.3781 99.3246 80.9223C96.2749 81.8524 93.7391 80.0476 91.0696 79.1017C88.5585 78.2685 85.7094 77.9104 83.2442 77.3483C80.3493 76.719 77.3417 76.248 74.4468 75.6187C72.4112 75.124 70.5131 75.4426 68.7028 74.6312C67.6392 74.1127 66.7836 75.6504 66.604 76.2381C64.7838 81.144 62.1711 85.4858 60.0338 90.1661C58.1888 94.1002 56.4565 97.8761 54.9284 102.036C54.6362 102.782 54.5483 103.912 54.1434 104.816C53.7384 105.721 53.5378 107.009 52.4073 106.92C51.548 106.785 50.6429 106.38 49.7589 105.273C48.3078 103.287 48.1667 100.801 48.48 99.3544C49.2192 96.3028 47.9477 93.7282 47.7608 90.9715C47.6444 89.4576 48.1162 88.1238 47.8414 86.4971C47.5665 84.8704 47.834 83.1526 46.8583 81.5042C46.6541 81.1202 46.2913 80.6235 46.4708 80.0358C48.0694 77.1188 46.1639 74.0929 46.5193 71.2452C46.5862 70.8158 46.2692 70.5902 45.9981 70.6357C42.9942 71.8369 39.6907 70.4398 36.5283 71.5282C34.2921 72.3218 31.781 71.4886 29.3863 72.1694C25.252 73.2816 21.1597 72.9926 17.0922 73.6754C16.166 73.9702 14.4932 73.9722 12.9789 74.087C11.8942 74.2691 10.9223 74.2928 10.5137 73.525C10.3094 73.1411 11.2566 72.1456 11.5489 71.3996C11.8411 70.6535 12.9716 70.7426 12.9926 70.042ZM76.551 55.8885C75.4626 54.3983 74.0573 52.6825 72.6062 50.6957C72.0391 49.815 71.6764 49.3183 72.3066 48.0973C73.1623 46.5596 74.0179 45.022 74.8735 43.4843C75.2784 42.5799 74.3275 41.9031 75.1621 41.066C76.877 39.6629 76.3732 36.6806 78.4051 35.5032C78.5177 35.3448 78.5846 34.9154 78.5388 34.6443C78.4683 33.4015 78.5562 32.2715 79.6619 31.3889C80.0458 31.1851 80.993 30.1896 80.1548 29.3545C79.475 28.6322 78.7531 29.311 78.0981 29.5603C75.7951 30.7833 73.2877 31.6224 71.1431 32.9582C69.1112 34.1357 66.6249 34.2742 64.7972 35.8356C64.188 36.3561 63.8289 37.5316 62.8111 37.2842C60.8214 37.0606 59.2191 38.3054 57.8422 39.2335C54.5461 41.1808 52.3978 40.8444 49.6119 38.3845C47.9812 36.9854 46.3047 35.3152 43.998 34.8659C41.9624 34.3712 41.9761 30.3262 38.7927 32.1152C38.7927 32.1152 38.6342 32.0024 38.4757 31.8896C38.2714 31.5057 37.9086 31.0089 37.4121 31.3711C36.8029 31.8916 37.053 32.5466 37.2573 32.9305C37.3489 33.4728 37.7117 33.9695 37.6448 34.3989C38.265 38.8951 41.1215 42.5977 42.5552 46.9574C42.8053 47.6124 43.9816 47.9726 43.464 49.0353C43.0591 49.9397 42.7458 51.3863 41.9781 51.794C39.02 53.2663 37.1044 55.9577 34.259 57.2718C28.614 60.1709 24.8955 65.3954 19.2963 68.5657C19.2295 68.9951 19.0041 69.3118 19.2084 69.6957C19.3 70.2379 19.7965 69.8758 20.0677 69.8303C23.5718 69.9391 26.7342 68.8507 30.1467 68.4173C32.8583 67.9621 35.7954 67.1903 38.5529 67.0063C40.6095 66.8005 42.9373 66.5491 45.0856 66.8856C46.9627 67.2675 49.3327 65.6151 50.65 68.4608C50.8543 68.8447 51.5093 68.5954 50.9459 69.387C50.3157 70.608 49.6185 72.2584 51.3161 73.2281C52.1085 73.7921 51.5662 73.8832 51.3408 74.1998C50.7353 76.3925 49.8586 78.6307 52.0105 80.6393C52.3275 80.8649 52.1479 81.4527 51.7641 81.6565C51.1549 82.177 51.405 82.832 51.3839 83.5326C50.8031 86.6969 52.279 89.6555 52.2405 92.7288C52.1526 93.8588 52.0436 95.6894 52.6565 96.8411C52.7023 97.1122 52.6354 97.5417 53.1777 97.4506C53.4489 97.4051 53.6074 97.5179 53.6743 97.0885C53.9418 95.3707 54.7974 93.8331 55.8115 92.4082C57.9524 89.4002 58.6001 85.8064 60.424 82.5728C61.9099 79.8141 62.9662 76.9882 63.9766 73.8911C64.4484 72.5573 65.1245 71.6074 66.7973 71.6054C70.3683 71.2848 73.7386 72.2525 77.2217 73.0619C80.0708 73.4201 82.9657 74.0494 85.7479 74.837C86.4945 75.1299 87.1037 74.6094 88.1673 75.1279C89.9775 75.9393 91.9921 77.1346 94.253 77.3127C94.6827 77.38 94.9996 77.6056 95.3377 77.1306C95.4046 76.7012 95.0876 76.4756 94.8833 76.0917C92.9109 73.4953 90.4878 71.5322 88.29 69.2524C86.9763 68.0789 86.8142 66.2938 85.5005 65.1203C82.0806 62.2093 79.4743 59.1617 76.551 55.8885Z" fill="#9CCDEE"/>
<path d="M60.5623 52.8567C60.0657 53.2188 59.6819 53.4226 59.0479 52.9714C58.5267 52.3619 58.5193 49.0175 59.3997 48.4515C59.8962 48.0893 60.8013 48.495 61.2768 48.8334C61.7523 49.1718 61.2841 52.1779 60.5623 52.8567Z" fill="#9CCDEE"/>
<path d="M59.2952 62.6883C61.0559 61.5563 61.961 61.962 62.2817 63.8598C60.9716 64.3585 60.0665 63.9528 59.2952 62.6883Z" fill="#9CCDEE"/>
</svg>
