<svg width="311" height="316" viewBox="0 0 311 316" fill="none" xmlns="http://www.w3.org/2000/svg">
<path d="M258.837 194.586C264.839 164.28 271.304 134.039 278.67 104.053C278.855 103.243 278.166 102.712 277.504 102.715C277.377 102.69 277.331 102.655 277.204 102.63C262.701 101.778 248.676 98.218 234.976 93.6643C228.103 91.3697 220.868 91.0659 213.7 90.0088C206.232 88.8666 198.779 87.5157 191.375 85.9103C176.868 82.7846 162.559 78.6405 148.563 73.7117C135.041 68.9283 121.848 62.8615 107.396 61.7551C107.396 61.7551 107.396 61.7551 107.35 61.7197C105.374 60.1972 102.747 59.7102 100.289 59.5735C100.289 59.5735 100.243 59.5381 100.208 59.584C100.081 59.5592 99.9993 59.5697 99.872 59.5448C99.0374 59.4875 98.6901 60.3182 98.9016 60.9939C90.7341 89.2639 85.2254 118.265 79.2323 147.039C73.2039 175.859 67.2108 204.634 61.1824 233.454C61.1575 233.581 61.1786 233.744 61.1537 233.871C61.2064 234.278 61.4217 234.664 61.9309 234.763C64.3953 235.271 66.8847 235.652 69.3491 236.16C69.9042 236.295 70.5693 236.002 70.6937 235.365C76.1375 207.779 81.6167 180.146 87.0604 152.56C114.611 162.516 143.133 169.121 171.585 175.817C200.118 182.503 228.722 189.097 257.33 195.402C257.503 195.462 257.666 195.441 257.747 195.43C258.317 195.356 258.703 195.141 258.837 194.586ZM81.3962 147.462C87.3998 118.769 92.8837 89.8954 100.98 61.7173C102.777 61.8569 104.651 62.2759 106.039 63.4195C100.958 78.4696 97.541 93.9243 94.1349 109.46C92.4089 117.211 90.7183 124.915 88.8191 132.605C87.4203 138.411 86.7852 144.366 85.4677 150.161C85.3969 150.253 85.3366 150.426 85.3118 150.553C79.8431 178.267 74.2931 205.991 68.8245 233.705C67.0884 233.392 65.3522 233.079 63.5702 232.731C69.5345 204.374 75.4884 175.936 81.3962 147.462ZM87.6919 150.41C89.02 144.697 89.5948 138.915 91.0041 133.191C92.9033 125.501 94.6293 117.75 96.3199 110.046C99.6906 94.5558 103.143 79.0551 108.224 64.0051C123.289 65.3631 137.099 72.0529 151.258 76.9607C165.326 81.7977 179.648 85.7331 194.18 88.7315C201.574 90.2556 209.063 91.5605 216.52 92.6214C223.723 93.6325 230.604 94.3957 237.463 96.8989C243.883 99.2107 250.191 100.338 256.75 101.804C263.308 103.271 269.524 104.327 276.201 104.786C269.03 134.044 262.796 163.511 256.862 193.063C228.626 186.753 200.414 180.315 172.217 173.668C143.811 167.007 115.278 160.321 87.6919 150.41Z" fill="#9CCDEE"/>
<path d="M268.671 143.726C263.691 140.401 256.692 140.646 250.995 139.77C243.446 138.639 235.911 137.298 228.401 135.831C213.844 132.959 199.305 129.59 184.883 126.163C188.322 113.435 191.761 100.707 195.199 87.9792C195.334 87.4241 194.489 87.2854 194.354 87.8405C190.891 100.696 187.427 113.551 183.963 126.407C183.868 126.626 183.97 126.778 184.143 126.838C184.189 126.874 184.235 126.909 184.317 126.899C198.657 130.335 212.987 133.691 227.417 136.537C234.673 137.955 241.918 139.291 249.177 140.419C252.511 140.939 255.835 141.377 259.205 141.85C260.549 142.007 261.974 142.154 263.293 142.438C264.601 142.64 265.849 143.017 267.012 143.693C268.147 143.836 268.331 143.977 267.482 144.129C266.937 144.075 266.763 144.966 267.343 144.974C267.969 145.017 268.238 144.858 268.73 144.505C269.034 144.3 268.946 143.939 268.671 143.726Z" fill="#9CCDEE"/>
<path d="M265.283 154.297C265.838 154.432 266.013 153.541 265.422 153.452C237.439 148.143 209.901 140.832 182.252 133.948C181.951 133.863 181.739 134.139 181.735 134.429C181.699 134.475 181.664 134.521 181.675 134.602C178.151 147.631 174.637 160.741 171.113 173.769C170.978 174.324 171.823 174.463 171.958 173.908C175.447 160.925 178.971 147.897 182.459 134.914C209.981 141.772 237.428 149.012 265.283 154.297Z" fill="#9CCDEE"/>
<path d="M174.898 132.088C174.852 132.053 174.852 132.053 174.806 132.018C161.038 128.217 147.26 124.335 133.542 120.28C126.92 118.325 120.334 116.325 113.737 114.242C107.833 112.401 101.544 109.825 95.2481 110.392C94.6786 110.465 94.7485 111.325 95.318 111.251C101.974 110.596 108.942 113.623 115.192 115.584C121.744 117.631 128.33 119.632 134.952 121.586C147.942 125.446 161.027 129.087 174.112 132.728C170.206 145.682 168.994 159.321 164.233 172.055C164.052 172.574 164.847 172.968 165.028 172.448C169.85 159.541 171.076 145.693 175.159 132.509C175.219 132.336 175.071 132.149 174.898 132.088Z" fill="#9CCDEE"/>
<path d="M185.823 85.5125C182.674 98.2444 179.536 111.058 176.387 123.79L176.341 123.754C149.721 117.151 123.513 109.255 97.2333 101.45C96.7136 101.269 96.5395 102.16 97.0946 102.295C123.374 110.1 149.582 117.996 176.202 124.599C176.33 124.624 176.411 124.614 176.447 124.568C176.676 124.745 177.083 124.692 177.204 124.346C180.377 111.486 183.54 98.5459 186.714 85.6867C186.768 85.1421 185.922 85.0034 185.823 85.5125Z" fill="#9CCDEE"/>
<path d="M277.038 105.505C264.069 110.741 249.836 113.246 236.298 116.653C229.408 118.372 222.527 120.173 215.626 121.811C209.401 123.237 202.631 123.659 196.66 126.086C194.545 125.409 192.417 124.94 190.228 124.644C217.639 117.869 245.581 112.969 272.506 104.355C273.019 104.164 272.751 103.372 272.192 103.527C244.627 112.307 215.988 117.256 187.947 124.278C187.749 124.345 187.678 124.437 187.654 124.564C187.477 124.794 187.529 125.201 187.901 125.194C190.705 125.451 193.459 125.963 196.174 126.811C196.277 126.963 196.45 127.023 196.648 126.956C196.775 126.981 196.892 126.924 196.963 126.833C202.899 124.451 209.623 123.994 215.848 122.568C222.795 120.965 229.676 119.164 236.52 117.41C250.058 114.003 264.291 111.498 277.26 106.262C277.865 106.142 277.551 105.314 277.038 105.505Z" fill="#9CCDEE"/>
<path d="M137.058 93.7704C141.697 98.2979 146.521 102.016 151.56 106.119C153.913 108.006 155.786 110.328 157.916 112.41C160.471 114.891 163.238 117.097 166.04 119.257C166.061 119.419 166.164 119.572 166.383 119.667C168.96 120.409 171.502 121.196 174.08 121.938C174.253 121.998 174.405 121.896 174.476 121.804C174.801 121.762 175.074 121.313 174.752 121.065C169.636 116.682 165.719 111.027 160.779 106.414C155.221 101.179 149.207 96.2503 143.213 91.4846C140.355 89.2079 137.354 87.115 134.495 84.8384C131.453 82.4201 129.1 79.5817 126.563 76.6016C124.815 74.5947 122.677 73.0933 120.634 71.3726C117.8 68.9687 115.366 66.1408 112.907 63.4401C112.519 62.9942 111.988 63.6833 112.33 64.0938C117.043 69.1908 122.754 73.3727 127.127 78.7205C131.592 84.139 137.159 87.8434 142.647 92.2196C148.457 96.8437 154.195 101.56 159.651 106.643C164.488 111.104 168.327 116.479 173.2 120.894C171.178 120.287 169.201 119.716 167.179 119.109C162.023 115.062 157.805 110.273 152.837 106.078C150.278 103.887 147.284 102.165 144.726 99.9735C142.306 97.8883 140.016 95.5379 137.737 93.2689C127.784 83.4741 117.785 73.6439 108.197 63.4711C107.808 63.0251 107.231 63.6788 107.62 64.1248C117.106 74.1455 127.059 83.9402 137.058 93.7704Z" fill="#9CCDEE"/>
<path d="M258.305 192.711C252.528 187.38 246.549 182.405 240.276 177.717C237.392 175.568 234.615 173.281 231.756 171.004C229.346 169 226.482 167.965 224.002 166.053C221.521 164.141 219.734 161.519 217.288 159.561C214.659 157.461 211.52 156.213 208.986 153.894C206.555 151.728 204.545 149.3 201.891 147.328C198.559 144.906 195.141 142.784 192.527 139.524C192.506 139.362 192.404 139.21 192.195 139.195C189.19 138.344 186.241 137.609 183.14 136.976C182.712 136.866 182.496 137.432 182.736 137.69C182.676 137.864 182.662 138.072 182.799 138.178C193.304 148.398 205.423 156.713 216.716 166.004C228.01 175.294 239.279 184.711 251.529 192.761C252.024 193.07 252.382 192.32 251.923 191.966C239.27 183.679 227.704 173.886 216.043 164.312C205.311 155.528 193.87 147.663 183.892 137.996C186.53 138.564 189.097 139.224 191.71 139.92C195.726 145.066 201.838 147.872 206.406 152.492C208.925 155.019 211.374 156.687 214.343 158.536C217.496 160.526 219.63 163.269 222.347 165.729C224.64 167.79 227.539 168.779 230.009 170.61C233.296 172.997 236.345 175.786 239.643 178.254C245.915 182.942 251.94 187.952 257.672 193.248C258.188 193.719 258.765 193.065 258.305 192.711Z" fill="#9CCDEE"/>
<path d="M132.633 143.599C138.872 142.915 144.776 141.241 150.818 139.673C157.906 137.886 165.14 136.578 172.26 135.035C172.784 134.926 172.516 134.134 172.027 134.197C172.027 134.197 172.027 134.197 171.982 134.162C168.954 134.099 165.784 132.607 162.931 131.653C162.885 131.617 162.885 131.617 162.803 131.628C162.676 131.603 162.595 131.614 162.559 131.659C156.402 132.333 150.477 132.893 144.559 134.776C138.326 136.782 131.797 137.462 125.543 139.306C122.596 140.184 119.533 140.167 116.566 140.882C113.562 141.643 110.626 142.602 107.704 143.353C100.824 145.153 94.0112 147.152 87.332 149.547C86.8191 149.738 87.0871 150.53 87.646 150.375C94.0916 148.093 100.615 146.09 107.261 144.403C110.102 143.663 112.861 142.933 115.691 142.112C118.719 141.223 121.838 141.357 124.831 140.515C130.526 138.826 136.465 138.057 142.17 136.45C149.111 134.476 155.577 133.308 162.746 132.462C164.952 133.211 167.271 134.192 169.608 134.676C156.496 137.531 143.397 141.13 130.147 142.928C123.441 143.838 116.989 145.748 110.361 146.938C104.266 148.099 98.2454 149.83 92.26 151.515C91.7011 151.67 92.0151 152.497 92.574 152.342C99.4331 150.379 106.359 148.614 113.419 147.245C119.779 146.214 126.033 144.371 132.633 143.599Z" fill="#9CCDEE"/>
<path d="M123.701 66.6331C128.1 70.9022 132.333 75.4824 137.061 79.4194C138.873 80.963 140.959 82.0577 142.761 83.52C145.355 85.6655 147.138 88.5777 149.286 91.1119C156.415 99.5354 168.311 103.578 174.116 112.959C174.265 113.146 174.438 113.207 174.59 113.104C174.799 113.119 174.997 113.052 175.128 112.786C177.707 103.644 180.241 94.4652 182.821 85.3223C182.956 84.7672 182.111 84.6285 181.976 85.1836C179.492 94.1073 177.008 103.031 174.524 111.955C171.748 107.765 167.747 104.975 163.655 102.113C158.378 98.4126 153.208 94.5742 149.167 89.5557C147.592 87.6092 146.25 85.5497 144.416 83.8434C142.49 82.0662 140.186 80.8758 138.154 79.2365C133.217 75.2852 128.871 70.4715 124.37 66.0502C123.854 65.5794 123.277 66.2331 123.701 66.6331Z" fill="#9CCDEE"/>
<path d="M190.549 117.862C200.958 113.288 212.054 111.148 223.15 109.009C234.327 106.858 245.315 103.244 256.541 101.79C257.11 101.716 257.04 100.857 256.471 100.931C244.757 102.447 233.21 106.217 221.591 108.466C211.344 110.455 201.107 112.524 191.459 116.586C192.659 111.799 193.809 107.266 195.737 102.674C197.499 98.3927 198.15 93.8419 200.213 89.646C200.439 89.1617 199.679 88.7225 199.417 89.2527C197.093 93.9788 196.204 98.9326 194.226 103.779C192.465 108.06 191.513 112.526 190.433 116.967C190.352 116.977 190.317 117.023 190.2 117.08C189.768 117.26 190.036 118.052 190.549 117.862Z" fill="#9CCDEE"/>
<path d="M274.361 113.254C251.359 118.301 228.381 123.22 205.347 128.022C205.266 128.032 205.138 128.007 205.057 128.018C204.523 128.046 204.593 128.905 205.127 128.877L205.208 128.867C205.254 128.902 205.336 128.892 205.417 128.881C215.945 128.428 226.654 131.921 237.139 133.045C247.659 134.123 258.022 136.544 268.389 138.676C268.944 138.811 269.118 137.92 268.528 137.831C257.606 135.565 246.744 133.125 235.644 132.039C226.885 131.147 218.23 128.504 209.488 128.064C231.231 123.512 252.918 118.843 274.64 114.128C275.199 113.973 274.885 113.145 274.361 113.254Z" fill="#9CCDEE"/>
<path d="M99.043 98.8167C117.534 104.28 136.436 108.45 154.48 115.253C154.999 115.434 155.393 114.639 154.873 114.458C154.746 114.433 154.572 114.373 154.48 114.302C154.505 114.175 154.449 114.058 154.311 113.952C145.483 107.733 137.954 99.7338 130.28 92.208C126.397 88.4097 122.666 84.509 119.006 80.5164C115.152 76.3009 109.754 73.8981 106.416 69.202C106.109 68.7455 105.383 69.2117 105.691 69.6682C108.619 73.7556 112.797 75.365 116.256 78.7633C120.471 82.8908 124.297 87.5236 128.558 91.6865C136.105 99.1874 143.623 107.106 152.137 113.447C134.828 107.211 116.888 103.123 99.2171 97.9257C98.7079 97.8262 98.4879 98.6818 99.043 98.8167Z" fill="#9CCDEE"/>
<path d="M88.5424 144.841C93.941 142.777 99.399 141.492 105.129 140.708C109.918 140.006 114.404 138.556 119.073 137.249C130.311 133.974 141.927 132.015 153.461 130.067C153.985 129.957 153.961 129.133 153.391 129.207C153.275 129.264 153.147 129.239 153.031 129.295C152.974 129.178 152.882 129.108 152.755 129.083C147.458 127.783 142.031 126.749 136.976 124.757C132.97 123.208 129.006 122.935 124.937 121.849C114.949 119.131 104.978 116.865 95.2664 113.408C94.7468 113.227 94.3535 114.023 94.8732 114.204C104.284 117.576 113.983 119.339 123.504 122.283C125.873 123.01 128.306 123.274 130.76 123.701C133.468 124.177 135.889 125.311 138.488 126.215C142.645 127.662 147.019 128.543 151.287 129.562C140.927 131.317 130.496 133.164 120.4 136.002C114.613 137.619 109.034 139.252 103.071 140.148C98.0026 140.928 93.16 142.176 88.3557 144.038C87.7614 144.239 88.0294 145.032 88.5424 144.841Z" fill="#9CCDEE"/>
<path d="M218.732 147.711C224.116 149.371 229.714 149.804 235.134 151.419C239.652 152.777 244.388 152.619 248.871 154.024C254.128 155.659 259.46 156.912 264.852 157.993C265.407 158.128 265.581 157.236 264.991 157.147C259.807 156.082 254.74 154.959 249.702 153.42C244.919 151.93 240.046 151.982 235.273 150.574C230.153 149.045 224.764 148.626 219.645 147.097C214.444 145.578 209.566 143.356 204.155 142.775C203.947 142.76 203.83 142.817 203.724 142.955C203.321 142.717 202.861 143.315 203.239 143.679C211.988 151.521 222.634 157.09 231.712 164.599C235.833 167.995 240.488 170.411 244.467 173.99C246.806 176.086 248.745 178.606 251.145 180.528C252.35 181.53 253.661 182.394 254.855 183.315C255.269 183.634 255.693 184.034 256.106 184.352C256.792 185.173 257.689 185.719 258.647 186.091C258.414 186.204 258.237 186.434 258.36 186.749C258.406 186.784 258.371 186.83 258.417 186.865C258.519 187.018 258.738 187.113 258.936 187.046C259.018 187.036 259.053 186.99 259.099 187.025C259.297 186.958 259.428 186.693 259.361 186.495C258.663 184.931 256.74 183.815 255.397 182.707C252.987 180.703 250.654 178.979 248.503 176.735C244.005 172.023 238.961 169.161 233.908 165.266C229.049 161.595 224.331 157.739 219.295 154.297C214.386 150.879 209.173 147.667 204.618 143.79C209.565 144.308 213.994 146.257 218.732 147.711Z" fill="#9CCDEE"/>
<path d="M170.304 139.093C164.588 140.619 158.664 141.18 152.912 142.751C146.357 144.51 139.884 146.258 133.245 147.366C121.466 149.346 109.967 151.248 98.4639 154.392C97.905 154.547 98.2189 155.375 98.7779 155.22C111.283 151.822 123.871 150.027 136.593 147.677C141.966 146.691 147.241 145.264 152.504 143.755C157.977 142.261 163.6 141.616 169.048 140.249C165.873 150.544 162.617 160.85 159.187 171.095C159.006 171.615 159.897 171.789 160.032 171.234C163.487 160.861 166.849 150.417 170.003 139.959C170.201 139.892 170.445 139.861 170.643 139.794C171.096 139.777 170.863 138.938 170.304 139.093Z" fill="#9CCDEE"/>
<path d="M238.681 189.669C233.825 185.707 229.076 181.607 224.16 177.819C221.909 176.084 219.435 174.543 217.255 172.716C214.834 170.631 212.93 168.065 210.52 166.061C205.93 162.231 200.667 159.273 196.173 155.223C192.01 151.502 188.45 147 183.791 143.923C183.749 143.597 183.275 143.452 183.063 143.727C182.946 143.784 182.886 143.957 182.907 144.12C180.94 149.048 181.182 154.434 179.307 159.433C177.396 164.478 177.231 169.917 175.183 174.855C175.002 175.375 175.751 175.733 175.978 175.249C178.027 170.31 178.191 164.871 180.102 159.826C181.953 154.955 181.802 149.639 183.617 144.814C188.735 148.245 192.67 153.402 197.362 157.385C201.687 161.084 206.919 163.798 211.102 167.682C213.039 169.54 214.717 171.639 216.759 173.359C218.939 175.186 221.413 176.727 223.665 178.462C228.626 182.286 233.375 186.386 238.185 190.312C238.563 190.677 239.14 190.023 238.681 189.669Z" fill="#9CCDEE"/>
<path d="M109.931 65.6865C110.794 65.3266 111.703 65.0021 112.669 64.7944C113.193 64.6852 112.96 63.8469 112.355 63.9665C111.389 64.1743 110.516 64.4528 109.617 64.8587C109.15 65.0846 109.418 65.877 109.931 65.6865Z" fill="#9CCDEE"/>
<path d="M110.74 66.8225C111.755 66.3602 112.817 65.9333 113.888 65.5877C114.401 65.3972 114.133 64.6048 113.574 64.7599C112.503 65.1054 111.441 65.5323 110.426 65.9947C109.923 66.2665 110.191 67.0589 110.74 66.8225Z" fill="#9CCDEE"/>
<path d="M112.139 68.0474C113.094 67.7583 113.957 67.3984 114.846 66.9112C115.348 66.6394 114.882 65.914 114.379 66.1858C113.608 66.6165 112.745 66.9765 111.906 67.2091C111.302 67.3287 111.58 68.2025 112.139 68.0474Z" fill="#9CCDEE"/>
<path d="M113.04 69.2542C114.005 69.0465 114.95 68.676 115.803 68.2348C116.305 67.9629 115.804 67.2835 115.337 67.5094C114.519 67.9047 113.61 68.2292 112.726 68.4264C112.248 68.5709 112.516 69.3634 113.04 69.2542Z" fill="#9CCDEE"/>
<path d="M114.065 69.8246C113.552 70.015 113.83 70.8888 114.379 70.6524C114.81 70.4724 115.277 70.2465 115.755 70.102C115.953 70.035 116.187 69.922 116.385 69.855C116.466 69.8445 116.618 69.7421 116.735 69.6856C116.781 69.721 116.873 69.7918 116.954 69.7813C117.683 69.9765 117.86 68.7955 117.061 68.6922C116.644 68.6635 116.106 68.9813 115.756 69.1507C115.162 69.3517 114.613 69.5881 114.065 69.8246Z" fill="#9CCDEE"/>
<path d="M115.856 72.1568C116.917 71.7299 117.897 71.3135 118.958 70.8866C119.471 70.6961 119.193 69.8223 118.644 70.0587C117.583 70.4856 116.603 70.902 115.542 71.3289C115.075 71.5548 115.343 72.3473 115.856 72.1568Z" fill="#9CCDEE"/>
<path d="M117.633 73.7463C118.436 73.5596 119.274 73.327 120.067 73.059C120.205 73.1652 120.332 73.1901 120.519 73.0417C120.59 72.9499 120.707 72.8934 120.813 72.7556C121.188 72.4588 120.941 71.8291 120.464 71.9737C119.438 72.3546 118.401 72.6543 117.354 72.8726C116.796 73.0276 117.11 73.8555 117.633 73.7463Z" fill="#9CCDEE"/>
<path d="M119.233 75.5656C120.351 75.2554 121.458 74.8639 122.576 74.5537C123.135 74.3987 122.821 73.5708 122.262 73.7259C121.144 74.0361 120.037 74.4276 118.919 74.7377C118.406 74.9282 118.674 75.7207 119.233 75.5656Z" fill="#9CCDEE"/>
<path d="M121.075 76.6919C122.122 76.4736 123.215 76.2908 124.237 76.1998C124.806 76.126 124.736 75.2666 124.167 75.3403C122.982 75.4524 121.889 75.6353 120.761 75.8641C120.237 75.9732 120.551 76.8011 121.075 76.6919Z" fill="#9CCDEE"/>
<path d="M121.537 77.7073C120.978 77.8624 121.292 78.6902 121.851 78.5351C122.445 78.3341 123.05 78.2144 123.645 78.0134C123.924 77.9359 124.122 77.8689 124.402 77.7913C124.518 77.7349 124.915 77.6009 125.148 77.4879C125.194 77.5233 125.286 77.5941 125.332 77.6295L125.378 77.6649C125.505 77.6898 125.703 77.6228 125.774 77.5309C125.88 77.3931 125.986 77.2553 125.919 77.0572C125.898 76.8945 125.842 76.7777 125.669 76.7174C125.103 76.5012 124.448 76.8754 123.889 77.0305C123.168 77.2067 122.375 77.4747 121.537 77.7073Z" fill="#9CCDEE"/>
<path d="M123.872 80.0931C125.118 79.8078 126.352 79.4412 127.53 78.9578C128.043 78.7673 127.765 77.8935 127.216 78.1299C126.038 78.6133 124.804 78.98 123.559 79.2653C123.081 79.4098 123.349 80.2022 123.872 80.0931Z" fill="#9CCDEE"/>
<path d="M125.583 81.4845C126.488 81.45 127.418 81.2882 128.292 81.0096C128.43 81.1159 128.603 81.1762 128.837 81.0632C129.177 80.8124 129.18 80.5224 129.011 80.1722C128.908 80.02 128.689 79.9243 128.491 79.9913C127.547 80.3618 126.546 80.6155 125.513 80.6251C124.979 80.6529 125.049 81.5123 125.583 81.4845Z" fill="#9CCDEE"/>
<path d="M126.999 83.1622C127.944 82.7917 128.945 82.538 129.967 82.447C130.537 82.3733 130.467 81.5139 129.897 81.5876C128.794 81.6891 127.711 81.9533 126.685 82.3343C126.172 82.5248 126.486 83.3526 126.999 83.1622Z" fill="#9CCDEE"/>
<path d="M128.614 84.7728C129.82 84.8234 131.03 84.5841 132.126 84.1112C132.225 84.5534 133.003 84.494 132.975 83.9599C132.954 83.7972 132.933 83.6345 132.947 83.4259C132.916 83.1819 132.594 82.934 132.361 83.0469C131.158 83.6576 129.867 83.9075 128.58 83.8674C128.045 83.8952 128.115 84.7546 128.614 84.7728Z" fill="#9CCDEE"/>
<path d="M130.748 86.5642C131.912 86.2895 133.086 86.0961 134.25 85.8213C134.774 85.7122 134.506 84.9198 133.936 84.9935C132.772 85.2682 131.598 85.4616 130.434 85.7364C129.911 85.8455 130.225 86.6734 130.748 86.5642Z" fill="#9CCDEE"/>
<path d="M131.996 87.8916C133.17 87.6982 134.38 87.4588 135.508 87.23C136.031 87.1209 136.007 86.2969 135.438 86.3706C134.264 86.564 133.054 86.8033 131.926 87.0322C131.402 87.1413 131.472 88.0007 131.996 87.8916Z" fill="#9CCDEE"/>
<path d="M133.667 89.619C135.053 89.1499 136.405 88.7268 137.837 88.2932C138.35 88.1027 138.082 87.3102 137.523 87.4653C136.137 87.9344 134.785 88.3575 133.353 88.7911C132.84 88.9816 133.154 89.8094 133.667 89.619Z" fill="#9CCDEE"/>
<path d="M134.924 91.0277C136.551 90.817 138.168 90.525 139.795 90.3143C140.364 90.2406 140.294 89.3811 139.725 89.4549C138.098 89.6655 136.481 89.9576 134.854 90.1682C134.32 90.196 134.355 91.1014 134.924 91.0277Z" fill="#9CCDEE"/>
<path d="M136.383 93.0307C138.014 92.53 139.655 92.1107 141.353 91.8082C141.876 91.699 141.852 90.875 141.283 90.9487C139.504 91.2618 137.781 91.6916 136.069 92.2028C135.591 92.3474 135.86 93.1398 136.383 93.0307Z" fill="#9CCDEE"/>
<path d="M138.125 94.6662C139.689 93.9674 141.32 93.4668 142.971 93.1288C143.109 93.235 143.318 93.2494 143.541 93.0551C143.576 93.0091 143.658 92.9986 143.693 92.9526C144.216 92.8435 144.147 91.9841 143.623 92.0932C141.646 92.4733 139.736 93.0515 137.892 93.8278C137.309 94.1102 137.623 94.938 138.125 94.6662Z" fill="#9CCDEE"/>
<path d="M140.253 96.0863C141.731 95.688 143.164 95.2544 144.597 94.8208C145.11 94.6303 144.842 93.8378 144.283 93.9929C142.86 94.5079 141.382 94.9062 139.939 95.2585C139.415 95.3676 139.729 96.1954 140.253 96.0863Z" fill="#9CCDEE"/>
<path d="M141.312 97.562C142.451 97.4145 143.625 97.2211 144.754 96.9923C145.196 96.8937 145.684 96.8305 146.161 96.686C146.441 96.6084 146.72 96.5309 147 96.4533C147.127 96.4782 147.208 96.4677 147.29 96.4572C147.428 96.5634 147.565 96.6696 147.81 96.638C148.018 96.6523 148.16 96.4686 148.22 96.2953C148.405 95.4857 147.57 95.4283 147.011 95.5834C145.126 96.0343 143.276 96.4392 141.324 96.692C140.708 96.7304 140.743 97.6357 141.312 97.562Z" fill="#9CCDEE"/>
<path d="M142.616 99.0061C144.72 98.6509 146.743 98.3062 148.848 97.951C148.94 98.0218 149.021 98.0113 149.219 97.9443C149.301 97.9337 149.336 97.8878 149.417 97.8773C149.803 97.6619 149.79 96.9192 149.266 97.0284C147.08 97.3941 144.813 97.7704 142.627 98.1361C141.976 98.2204 142.046 99.0798 142.616 99.0061Z" fill="#9CCDEE"/>
<path d="M143.792 100.425C145.953 100.187 148.083 99.7044 150.201 99.1405C150.76 98.9854 150.446 98.1576 149.887 98.3127C147.85 98.866 145.802 99.338 143.722 99.5659C143.199 99.675 143.269 100.534 143.792 100.425Z" fill="#9CCDEE"/>
<path d="M146.698 101.786C148.456 101.31 150.168 100.799 151.961 100.277C152.52 100.122 152.206 99.2945 151.648 99.4496C149.889 99.9253 148.177 100.437 146.384 100.958C145.871 101.149 146.185 101.977 146.698 101.786Z" fill="#9CCDEE"/>
<path d="M148.129 103.255C150.071 102.921 151.991 102.424 153.891 101.765C154.404 101.574 154.136 100.782 153.577 100.937C151.759 101.586 149.919 102.072 148.059 102.396C147.535 102.505 147.605 103.364 148.129 103.255Z" fill="#9CCDEE"/>
<path d="M149.666 104.586C151.685 104.532 153.708 104.187 155.665 103.644C155.756 103.715 155.838 103.704 155.99 103.602C156.107 103.545 156.223 103.489 156.34 103.433C156.807 103.207 156.585 102.45 156.026 102.605C153.918 103.25 151.732 103.616 149.55 103.691C149.016 103.719 149.086 104.579 149.666 104.586Z" fill="#9CCDEE"/>
<path d="M151.967 106.067C153.537 105.739 155.143 105.366 156.76 105.074C156.897 105.18 157.152 105.23 157.34 105.081C157.41 104.99 157.527 104.933 157.633 104.795C158.008 104.499 157.528 103.982 157.167 104.07C155.317 104.475 153.503 104.834 151.653 105.239C151.129 105.348 151.443 106.176 151.967 106.067Z" fill="#9CCDEE"/>
<path d="M153.316 107.546C155.074 107.07 156.843 106.676 158.601 106.2C159.16 106.045 158.846 105.217 158.287 105.372C156.529 105.848 154.76 106.243 153.002 106.718C152.479 106.827 152.793 107.655 153.316 107.546Z" fill="#9CCDEE"/>
<path d="M155.122 108.718C157.032 108.14 158.999 107.679 160.987 107.38C161.079 107.451 161.242 107.43 161.404 107.409C161.521 107.352 161.638 107.296 161.719 107.285C162.105 107.07 161.858 106.44 161.451 106.493C159.219 106.823 157.009 107.316 154.854 107.926C154.295 108.081 154.563 108.873 155.122 108.718Z" fill="#9CCDEE"/>
<path d="M156.875 110.435C158.725 110.03 160.539 109.671 162.435 109.302C162.959 109.193 162.691 108.4 162.121 108.474C160.271 108.879 158.457 109.238 156.561 109.607C156.037 109.717 156.316 110.59 156.875 110.435Z" fill="#9CCDEE"/>
<path d="M158.419 112.138C160.212 111.616 161.96 111.059 163.661 110.466C164.174 110.276 163.906 109.483 163.347 109.639C161.61 110.277 159.863 110.834 158.105 111.31C157.592 111.5 157.86 112.293 158.419 112.138Z" fill="#9CCDEE"/>
<path d="M160.016 113.296C161.887 113.053 163.691 112.613 165.53 112.127C166.089 111.972 165.775 111.144 165.216 111.299C163.458 111.775 161.69 112.169 159.946 112.436C159.377 112.51 159.447 113.369 160.016 113.296Z" fill="#9CCDEE"/>
<path d="M161.747 114.85C163.353 114.476 164.888 114.195 166.515 113.984C167.085 113.911 167.015 113.051 166.445 113.125C164.783 113.381 163.085 113.684 161.479 114.057C160.91 114.131 161.224 114.959 161.747 114.85Z" fill="#9CCDEE"/>
<path d="M163.001 116.548C164.353 116.125 165.714 115.784 167.087 115.523C167.61 115.414 167.586 114.59 167.017 114.664C165.563 114.935 164.12 115.287 162.687 115.721C162.21 115.865 162.488 116.739 163.001 116.548Z" fill="#9CCDEE"/>
<path d="M164.712 117.94C166.028 117.563 167.389 117.221 168.772 117.042C169.342 116.968 169.272 116.109 168.702 116.183C167.238 116.372 165.83 116.678 164.398 117.112C163.839 117.267 164.153 118.095 164.712 117.94Z" fill="#9CCDEE"/>
<path d="M166.793 119.325C168.028 118.958 169.227 118.637 170.462 118.271C171.021 118.116 170.707 117.288 170.148 117.443C168.913 117.809 167.714 118.13 166.479 118.497C166.002 118.641 166.27 119.434 166.793 119.325Z" fill="#9CCDEE"/>
<path d="M168.632 119.79C169.481 119.638 170.365 119.441 171.214 119.29C171.737 119.181 171.668 118.321 171.144 118.43C170.295 118.582 169.411 118.779 168.562 118.93C168.038 119.039 168.108 119.899 168.632 119.79Z" fill="#9CCDEE"/>
<path d="M171.662 120.514C172.104 120.415 172.628 120.306 173.07 120.208C173.593 120.098 173.361 119.26 172.756 119.38C172.314 119.478 171.79 119.587 171.348 119.686C170.87 119.831 171.138 120.623 171.662 120.514Z" fill="#9CCDEE"/>
<path d="M89.2385 149.259C88.8145 148.859 88.2728 149.467 88.6614 149.913C89.2338 150.5 89.6186 151.236 89.922 151.983C90.1125 152.496 90.9049 152.228 90.7498 151.669C90.3899 150.805 89.8673 149.963 89.2385 149.259Z" fill="#9CCDEE"/>
<path d="M90.7449 149.395C90.4376 148.938 89.7122 149.404 90.0195 149.861C90.588 150.738 91.2025 151.651 91.7711 152.529C92.0783 152.986 92.8037 152.519 92.4965 152.063C91.882 151.15 91.3134 150.272 90.7449 149.395Z" fill="#9CCDEE"/>
<path d="M92.2838 148.823C91.9765 148.367 91.2511 148.833 91.5584 149.289C92.081 150.132 92.6744 150.882 93.3387 151.54C93.7627 151.94 94.3397 151.287 93.9157 150.887C93.3434 150.299 92.7959 149.584 92.2838 148.823Z" fill="#9CCDEE"/>
<path d="M93.8792 148.369C93.6887 147.856 92.8503 148.088 93.0513 148.683C93.4323 149.708 93.976 150.713 94.6259 151.58C94.9331 152.037 95.694 151.525 95.3513 151.114C94.7828 150.237 94.2956 149.349 93.8792 148.369Z" fill="#9CCDEE"/>
<path d="M95.4143 148.087C95.0716 147.677 94.3462 148.143 94.6889 148.553C95.3742 149.374 95.9781 150.206 96.4759 151.175C96.7477 151.678 97.4731 151.212 97.2013 150.709C96.7495 149.775 96.0996 148.908 95.4143 148.087Z" fill="#9CCDEE"/>
<path d="M96.9321 147.353C96.6249 146.896 95.8994 147.363 96.2067 147.819C96.7752 148.697 97.273 149.666 97.6894 150.646C97.8798 151.159 98.7536 150.88 98.5172 150.332C98.0903 149.271 97.5925 148.301 96.9321 147.353Z" fill="#9CCDEE"/>
<path d="M98.584 147.015C98.2413 146.604 97.5159 147.071 97.8586 147.481C98.4979 148.267 99.0665 149.144 99.4369 150.089C99.6274 150.602 100.42 150.334 100.265 149.775C99.8484 148.795 99.2693 147.836 98.584 147.015Z" fill="#9CCDEE"/>
<path d="M100.367 146.412C100.024 146.001 99.2988 146.467 99.6415 146.878C100.189 147.593 100.655 148.318 101.015 149.182C101.206 149.695 102.079 149.416 101.843 148.868C101.483 148.004 100.96 147.162 100.367 146.412Z" fill="#9CCDEE"/>
<path d="M102.16 145.89C101.736 145.49 101.159 146.144 101.583 146.544C102.237 147.121 102.703 147.846 102.982 148.72C103.172 149.233 103.965 148.965 103.81 148.406C103.485 147.497 102.917 146.619 102.16 145.89Z" fill="#9CCDEE"/>
<path d="M104.106 145.266C103.958 145.078 103.703 145.029 103.47 145.142C103.236 145.255 103.14 145.474 103.045 145.693C102.924 146.039 103.327 146.277 103.642 146.153C104.098 146.797 104.472 147.452 104.729 148.163C104.92 148.676 105.758 148.443 105.557 147.849C105.233 146.94 104.745 146.052 104.106 145.266Z" fill="#9CCDEE"/>
<path d="M105.567 144.415C105.26 143.959 104.535 144.425 104.842 144.881C105.594 145.9 106.23 146.976 106.911 148.087C107.183 148.59 107.944 148.078 107.637 147.621C107.037 146.499 106.32 145.434 105.567 144.415Z" fill="#9CCDEE"/>
<path d="M107.495 144.29C107.223 143.787 106.462 144.299 106.77 144.756C107.303 145.679 107.882 146.638 108.415 147.562C108.687 148.064 109.448 147.552 109.14 147.096C108.607 146.172 108.028 145.213 107.495 144.29Z" fill="#9CCDEE"/>
<path d="M109.094 143.545C108.787 143.088 108.061 143.555 108.369 144.011C109.086 145.076 109.757 146.106 110.438 147.217C110.745 147.674 111.471 147.207 111.163 146.751C110.528 145.675 109.811 144.61 109.094 143.545Z" fill="#9CCDEE"/>
<path d="M111.396 144.074C111.089 143.618 110.562 143.065 109.999 143.51C109.543 143.818 109.999 144.462 110.384 144.246C110.43 144.282 110.476 144.317 110.522 144.353C110.579 144.469 110.681 144.621 110.773 144.692C110.932 144.961 111.126 145.184 111.285 145.453C111.638 145.945 111.956 146.483 112.263 146.939C112.57 147.396 113.296 146.93 112.989 146.473C112.476 145.712 111.954 144.87 111.396 144.074Z" fill="#9CCDEE"/>
<path d="M113.235 143.588C112.918 143.05 112.366 142.625 111.849 143.105C111.52 143.438 111.955 143.919 112.351 143.785C112.581 143.962 113.089 145.013 113.191 145.165C113.463 145.667 113.77 146.124 114.088 146.662C114.36 147.164 115.121 146.652 114.814 146.196C114.281 145.272 113.758 144.43 113.235 143.588Z" fill="#9CCDEE"/>
<path d="M115.213 143.208C114.941 142.705 114.485 142.061 113.876 142.471C113.42 142.778 113.886 143.503 114.343 143.196C114.19 143.299 114.872 144.41 114.939 144.608C115.211 145.11 115.447 145.659 115.765 146.196C116.037 146.699 116.716 146.197 116.49 145.73C116.049 144.878 115.654 144.06 115.213 143.208Z" fill="#9CCDEE"/>
<path d="M116.452 141.6C116.145 141.143 115.419 141.609 115.726 142.066C116.464 143.294 117.05 144.624 117.519 146.011C117.71 146.524 118.502 146.256 118.347 145.697C117.878 144.31 117.246 142.944 116.452 141.6Z" fill="#9CCDEE"/>
<path d="M119.609 142.349C119.362 141.719 118.999 141.146 118.245 141.078C117.701 141.024 117.516 141.834 118.107 141.923C118.778 142.001 118.951 143.013 119.141 143.526C119.388 144.156 119.635 144.786 119.801 145.426C119.991 145.939 120.784 145.671 120.629 145.112C120.304 144.203 119.98 143.293 119.609 142.349Z" fill="#9CCDEE"/>
<path d="M120.604 140.773C120.145 140.418 119.568 141.072 120.027 141.426C121.095 142.322 121.833 143.55 122.093 144.922C122.202 145.446 123.061 145.376 122.952 144.852C122.66 143.236 121.901 141.845 120.604 140.773Z" fill="#9CCDEE"/>
<path d="M122.638 140.509C122.214 140.109 121.637 140.763 122.061 141.163C122.828 141.973 123.442 142.886 123.905 143.902C124.095 144.415 124.969 144.136 124.732 143.588C124.214 142.456 123.543 141.426 122.638 140.509Z" fill="#9CCDEE"/>
<path d="M124.714 140.571C124.407 140.115 123.681 140.581 123.989 141.037C124.695 142.021 125.331 143.097 125.849 144.229C126.075 144.696 126.914 144.463 126.677 143.915C126.077 142.793 125.431 141.636 124.714 140.571Z" fill="#9CCDEE"/>
<path d="M126.316 140.488C126.009 140.031 125.283 140.498 125.591 140.954C126.354 142.055 127.035 143.166 127.727 144.358C127.999 144.861 128.724 144.394 128.452 143.892C127.76 142.7 127.079 141.588 126.316 140.488Z" fill="#9CCDEE"/>
<path d="M127.459 140.05C127.035 139.65 126.458 140.304 126.882 140.704C127.73 141.504 128.309 142.463 128.736 143.524C128.926 144.037 129.719 143.769 129.564 143.21C129.08 142.032 128.363 140.967 127.459 140.05Z" fill="#9CCDEE"/>
<path d="M128.68 138.941C128.221 138.587 127.643 139.241 128.103 139.595C129.068 140.338 129.809 141.276 130.282 142.373C130.473 142.886 131.347 142.607 131.11 142.059C130.581 140.846 129.783 139.791 128.68 138.941Z" fill="#9CCDEE"/>
<path d="M130.816 138.83C130.509 138.373 129.783 138.84 130.091 139.296C130.808 140.361 131.408 141.483 131.927 142.615C132.117 143.128 132.991 142.849 132.754 142.301C132.19 141.133 131.543 139.976 130.816 138.83Z" fill="#9CCDEE"/>
<path d="M132.199 138.651C131.856 138.24 131.131 138.706 131.474 139.117C132.374 140.324 133.204 141.622 133.871 142.942C134.143 143.445 134.823 142.943 134.597 142.476C133.93 141.156 133.1 139.858 132.199 138.651Z" fill="#9CCDEE"/>
<path d="M133.759 138.242C133.416 137.832 132.691 138.298 133.034 138.708C133.924 139.834 134.651 140.98 135.237 142.31C135.427 142.823 136.301 142.545 136.065 141.996C135.479 140.666 134.695 139.403 133.759 138.242Z" fill="#9CCDEE"/>
<path d="M135.305 138.042C134.997 137.585 134.272 138.052 134.579 138.508C135.536 139.832 136.458 141.201 137.415 142.525C137.722 142.981 138.448 142.515 138.141 142.059C137.183 140.735 136.262 139.366 135.305 138.042Z" fill="#9CCDEE"/>
<path d="M137.438 137.27C137.095 136.859 136.37 137.325 136.712 137.736C137.751 139.049 138.556 140.475 139.163 141.968C139.353 142.481 140.227 142.202 139.991 141.654C139.338 140.125 138.441 138.628 137.438 137.27Z" fill="#9CCDEE"/>
<path d="M139.995 136.897C139.688 136.441 138.962 136.907 139.27 137.363C140.156 138.779 141.078 140.148 142.01 141.599C142.317 142.055 143.043 141.589 142.735 141.133C141.849 139.717 140.963 138.302 139.995 136.897Z" fill="#9CCDEE"/>
<path d="M143.764 137.898C143.344 137.208 143.04 136.461 142.326 136.058C141.842 135.831 141.403 136.591 141.933 136.853C142.637 137.175 142.982 138.247 143.356 138.902C143.741 139.638 144.161 140.328 144.546 141.064C144.818 141.566 145.543 141.1 145.272 140.598C144.738 139.674 144.251 138.786 143.764 137.898Z" fill="#9CCDEE"/>
<path d="M145.915 136.627C145.506 136.018 145.107 135.491 144.328 135.55C143.794 135.578 143.829 136.483 144.398 136.41C145.014 136.371 145.589 137.62 145.85 138.041C146.26 138.65 146.624 139.223 147.033 139.832C147.341 140.288 148.066 139.822 147.759 139.366C147.109 138.499 146.53 137.54 145.915 136.627Z" fill="#9CCDEE"/>
<path d="M147.063 134.948C146.756 134.491 146.03 134.958 146.337 135.414C147.259 136.784 148.064 138.21 148.834 139.681C149.105 140.184 149.785 139.682 149.559 139.215C148.789 137.743 147.939 136.282 147.063 134.948Z" fill="#9CCDEE"/>
<path d="M148.828 134.844C148.52 134.387 147.795 134.853 148.102 135.31C149.059 136.633 149.946 138.049 150.669 139.485C150.941 139.988 151.667 139.521 151.395 139.019C150.671 137.583 149.785 136.167 148.828 134.844Z" fill="#9CCDEE"/>
<path d="M150.879 134.082C150.572 133.625 149.847 134.091 150.154 134.548C150.994 135.928 151.835 137.308 152.675 138.688C152.982 139.144 153.708 138.678 153.401 138.222C152.56 136.842 151.72 135.462 150.879 134.082Z" fill="#9CCDEE"/>
<path d="M153.384 133.302C153.077 132.846 152.351 133.312 152.659 133.769C153.647 135.336 154.555 136.914 155.543 138.482C155.851 138.938 156.576 138.472 156.269 138.016C155.28 136.448 154.373 134.87 153.384 133.302Z" fill="#9CCDEE"/>
<path d="M158.459 137.36C158.427 137.116 158.208 137.02 157.999 137.006C157.932 136.808 157.773 136.539 157.763 136.457C157.65 136.224 157.537 135.99 157.343 135.767C157.035 135.311 156.682 134.819 156.339 134.409C155.94 133.881 155.301 133.096 154.621 133.597C154.165 133.904 154.631 134.63 155.088 134.322C155.427 134.072 157.351 137.751 157.673 137.999C157.811 138.106 158.009 138.039 158.126 137.982C158.161 137.936 158.207 137.972 158.242 137.926C158.359 137.869 158.455 137.65 158.444 137.569C158.423 137.406 158.459 137.36 158.459 137.36Z" fill="#9CCDEE"/>
<path d="M157.197 132.726C156.808 132.28 156.231 132.934 156.62 133.38C157.765 134.555 158.676 135.843 159.481 137.269C159.753 137.771 160.513 137.259 160.206 136.803C159.391 135.296 158.388 133.937 157.197 132.726Z" fill="#9CCDEE"/>
<path d="M159.284 131.918C158.789 131.61 158.431 132.359 158.891 132.713C160.156 133.542 161.067 134.83 161.501 136.263C161.656 136.822 162.484 136.508 162.329 135.949C161.818 134.237 160.733 132.888 159.284 131.918Z" fill="#9CCDEE"/>
<path d="M161.579 132.076C161.084 131.768 160.726 132.517 161.186 132.871C162.497 133.735 163.479 134.932 164.157 136.333C164.429 136.835 165.221 136.567 164.985 136.019C164.24 134.419 163.074 133.082 161.579 132.076Z" fill="#9CCDEE"/>
<path d="M164.538 132.892C164.114 132.492 163.537 133.146 163.961 133.546C164.901 134.417 165.547 135.574 165.868 136.773C166.023 137.332 166.851 137.018 166.696 136.459C166.319 135.143 165.535 133.88 164.538 132.892Z" fill="#9CCDEE"/>
<path d="M167.024 133.563C166.635 133.117 166.058 133.77 166.447 134.216C167.065 134.839 167.531 135.565 167.881 136.347C168.107 136.814 168.945 136.581 168.709 136.033C168.303 135.134 167.734 134.257 167.024 133.563Z" fill="#9CCDEE"/>
<path d="M192.735 125.478C193.007 125.98 193.799 125.712 193.563 125.164C193.326 124.615 192.973 124.123 192.549 123.723C192.125 123.323 191.548 123.977 191.972 124.377C192.258 124.671 192.519 125.092 192.735 125.478Z" fill="#9CCDEE"/>
<path d="M194.615 126.268C194.887 126.771 195.613 126.304 195.341 125.802C194.854 124.914 194.412 124.061 193.925 123.173C193.653 122.671 192.928 123.137 193.2 123.639C193.687 124.527 194.174 125.415 194.615 126.268Z" fill="#9CCDEE"/>
<path d="M196.115 126.033C196.306 126.546 197.179 126.267 196.943 125.719C196.572 124.774 196.167 123.875 195.796 122.931C195.606 122.418 194.732 122.696 194.968 123.245C195.374 124.143 195.745 125.088 196.115 126.033Z" fill="#9CCDEE"/>
<path d="M197.986 125.79C198.293 126.247 199.019 125.781 198.711 125.324C198.189 124.482 197.864 123.573 197.692 122.561C197.583 122.038 196.759 122.062 196.833 122.631C197.015 123.724 197.361 124.796 197.986 125.79Z" fill="#9CCDEE"/>
<path d="M199.903 125.583C200.21 126.04 200.936 125.574 200.628 125.117C199.993 124.042 199.276 122.976 198.64 121.901C198.333 121.444 197.608 121.91 197.915 122.367C198.551 123.443 199.232 124.554 199.903 125.583Z" fill="#9CCDEE"/>
<path d="M199.977 122.638C200.641 123.296 201.117 124.103 201.361 125.023C201.516 125.581 202.344 125.267 202.188 124.709C201.924 123.626 201.356 122.749 200.589 121.938C200.13 121.584 199.553 122.238 199.977 122.638Z" fill="#9CCDEE"/>
<path d="M203.907 124.569C204.215 125.025 204.94 124.559 204.633 124.103C203.972 123.154 203.358 122.241 202.814 121.236C202.542 120.734 201.781 121.246 202.089 121.702C202.632 122.707 203.247 123.62 203.907 124.569Z" fill="#9CCDEE"/>
<path d="M206.309 124.589C206.616 125.045 207.341 124.579 207.034 124.123C206.384 123.255 205.816 122.378 205.166 121.511C204.858 121.054 204.133 121.52 204.44 121.977C205.09 122.844 205.694 123.676 206.309 124.589Z" fill="#9CCDEE"/>
<path d="M206.421 121.307C206.467 121.342 206.467 121.342 206.421 121.307C206.478 121.424 206.534 121.54 206.591 121.657C206.704 121.891 206.817 122.124 206.93 122.358C207.145 122.743 207.371 123.21 207.586 123.596C207.858 124.099 208.537 123.597 208.312 123.13C207.927 122.394 207.613 121.566 207.147 120.841C206.931 120.455 206.065 120.154 206.033 120.861C206.018 121.07 206.248 121.247 206.421 121.307Z" fill="#9CCDEE"/>
<path d="M209.468 123.435C209.775 123.892 210.5 123.426 210.193 122.969C209.589 122.137 209.183 121.239 208.894 120.284C208.704 119.771 207.911 120.039 208.066 120.598C208.401 121.588 208.853 122.522 209.468 123.435Z" fill="#9CCDEE"/>
<path d="M210.734 123.313C210.924 123.826 211.798 123.547 211.562 122.999C211.237 122.089 210.831 121.191 210.39 120.338C210.118 119.836 209.326 120.104 209.562 120.652C209.968 121.551 210.374 122.449 210.734 123.313Z" fill="#9CCDEE"/>
<path d="M212.35 123.021C212.505 123.579 213.333 123.266 213.178 122.707C212.879 121.67 212.427 120.736 211.858 119.859C211.551 119.402 210.826 119.868 211.133 120.325C211.655 121.167 212.061 122.065 212.35 123.021Z" fill="#9CCDEE"/>
<path d="M214.116 121.965C214.19 122.534 215.049 122.464 214.975 121.895C214.793 120.802 214.33 119.787 213.564 118.976C213.221 118.565 212.644 119.219 212.987 119.63C213.605 120.253 214 121.07 214.116 121.965Z" fill="#9CCDEE"/>
<path d="M216.044 121.839C216.199 122.398 217.026 122.084 216.871 121.525C216.561 120.408 216.018 119.403 215.322 118.5C214.979 118.09 214.254 118.556 214.596 118.966C215.257 119.915 215.744 120.803 216.044 121.839Z" fill="#9CCDEE"/>
<path d="M216.23 119.127C217.021 119.81 217.473 120.744 217.61 121.802C217.684 122.371 218.543 122.301 218.47 121.732C218.347 120.466 217.747 119.344 216.807 118.473C216.429 118.109 215.852 118.762 216.23 119.127Z" fill="#9CCDEE"/>
<path d="M217.825 118.672L217.836 118.754C217.857 118.916 217.959 119.069 218.016 119.185C218.129 119.419 218.206 119.698 218.319 119.932C218.545 120.399 218.771 120.866 219.043 121.368C219.315 121.871 220.04 121.405 219.768 120.902C219.338 120.131 218.988 119.349 218.71 118.475C218.586 118.16 218.509 117.881 218.162 117.76C217.862 117.675 217.628 117.788 217.405 117.982C217.076 118.314 217.465 118.76 217.825 118.672Z" fill="#9CCDEE"/>
<path d="M221.289 120.829C221.561 121.332 222.286 120.866 222.014 120.363C221.527 119.475 221.005 118.633 220.447 117.837C220.139 117.38 219.414 117.846 219.721 118.303C220.325 119.134 220.848 119.977 221.289 120.829Z" fill="#9CCDEE"/>
<path d="M221.713 117.714C222.377 118.372 222.808 119.144 223.04 119.982C223.196 120.541 224.023 120.227 223.868 119.668C223.569 118.632 223.081 117.744 222.279 116.979C221.912 116.696 221.335 117.349 221.713 117.714Z" fill="#9CCDEE"/>
<path d="M224.745 120.051C224.9 120.61 225.728 120.296 225.573 119.737C225.309 118.655 224.765 117.65 223.917 116.85C223.493 116.45 222.916 117.103 223.34 117.503C224.015 118.243 224.456 119.096 224.745 120.051Z" fill="#9CCDEE"/>
<path d="M226.248 119.525C226.276 120.059 227.136 119.99 227.108 119.456C227.052 118.387 226.636 117.407 225.915 116.632C225.527 116.186 224.95 116.84 225.338 117.286C225.91 117.874 226.224 118.701 226.248 119.525Z" fill="#9CCDEE"/>
<path d="M227.735 118.547C228.007 119.05 228.732 118.584 228.46 118.081C228.132 117.462 227.803 116.843 227.521 116.259C227.249 115.756 226.524 116.223 226.796 116.725C227.078 117.309 227.406 117.928 227.735 118.547Z" fill="#9CCDEE"/>
<path d="M229.8 118.528C230.072 119.03 230.751 118.529 230.525 118.062C230.13 117.245 229.699 116.473 229.304 115.656C229.032 115.153 228.353 115.655 228.579 116.122C228.974 116.939 229.405 117.711 229.8 118.528Z" fill="#9CCDEE"/>
<path d="M231.406 118.155C231.596 118.668 232.389 118.4 232.234 117.841C231.909 116.931 231.468 116.079 230.793 115.339C230.451 114.928 229.725 115.395 230.068 115.805C230.661 116.555 231.092 117.327 231.406 118.155Z" fill="#9CCDEE"/>
<path d="M233.429 117.81C233.62 118.323 234.493 118.044 234.257 117.496C233.886 116.551 233.435 115.617 232.866 114.74C232.594 114.237 231.833 114.749 232.141 115.206C232.628 116.094 233.069 116.947 233.429 117.81Z" fill="#9CCDEE"/>
<path d="M234.816 117.341C235.006 117.854 235.799 117.586 235.644 117.027C235.365 116.153 235.051 115.325 234.727 114.416C234.536 113.903 233.744 114.171 233.899 114.73C234.223 115.639 234.502 116.513 234.816 117.341Z" fill="#9CCDEE"/>
<path d="M236.372 117.222C236.562 117.735 237.436 117.456 237.2 116.908C236.886 116.08 236.536 115.298 236.223 114.471C236.032 113.958 235.158 114.236 235.395 114.785C235.709 115.612 236.058 116.394 236.372 117.222Z" fill="#9CCDEE"/>
<path d="M237.784 116.626C238.01 117.093 238.848 116.86 238.611 116.312C238.262 115.53 237.913 114.748 237.482 113.977C237.256 113.51 236.418 113.742 236.654 114.291C237.085 115.062 237.434 115.844 237.784 116.626Z" fill="#9CCDEE"/>
<path d="M238.331 113.825C238.949 114.448 239.461 115.209 239.577 116.104C239.686 116.628 240.546 116.558 240.437 116.034C240.208 114.906 239.71 113.936 238.908 113.172C238.484 112.772 237.907 113.425 238.331 113.825Z" fill="#9CCDEE"/>
<path d="M240.935 116.052C241.207 116.555 241.999 116.287 241.763 115.738C241.311 114.804 240.941 113.86 240.687 112.859C240.532 112.3 239.704 112.614 239.859 113.173C240.148 114.128 240.483 115.118 240.935 116.052Z" fill="#9CCDEE"/>
<path d="M242.622 115.668C242.813 116.181 243.605 115.913 243.45 115.354C243.115 114.364 242.78 113.373 242.435 112.301C242.244 111.788 241.452 112.057 241.607 112.615C241.906 113.652 242.287 114.678 242.622 115.668Z" fill="#9CCDEE"/>
<path d="M244.437 115.309C244.627 115.822 245.42 115.554 245.265 114.995C244.94 114.086 244.616 113.177 244.337 112.303C244.147 111.79 243.354 112.058 243.509 112.617C243.788 113.491 244.112 114.4 244.437 115.309Z" fill="#9CCDEE"/>
<path d="M245.556 114.048C245.746 114.561 246.539 114.293 246.384 113.734C246.115 112.941 245.802 112.114 245.498 111.367C245.308 110.854 244.515 111.122 244.67 111.681C244.974 112.428 245.242 113.22 245.556 114.048Z" fill="#9CCDEE"/>
<path d="M247.869 113.707C248.141 114.209 248.902 113.697 248.594 113.241C248.164 112.469 247.697 111.744 247.267 110.973C246.995 110.47 246.234 110.982 246.541 111.439C246.972 112.21 247.438 112.936 247.869 113.707Z" fill="#9CCDEE"/>
<path d="M250.879 113.317C251.338 113.671 251.915 113.018 251.456 112.664C250.675 112.062 250.081 111.311 249.676 110.413C249.485 109.9 248.611 110.178 248.848 110.727C249.31 111.742 250.006 112.645 250.879 113.317Z" fill="#9CCDEE"/>
<path d="M253.486 112.69C253.945 113.044 254.522 112.391 254.063 112.037C253.236 111.399 252.526 110.705 251.922 109.874C251.614 109.417 250.889 109.883 251.196 110.34C251.892 111.242 252.613 112.017 253.486 112.69Z" fill="#9CCDEE"/>
<path d="M255.615 112.208C256.039 112.608 256.616 111.954 256.192 111.554C255.344 110.754 254.765 109.795 254.501 108.713C254.346 108.154 253.518 108.468 253.673 109.027C253.994 110.226 254.675 111.337 255.615 112.208Z" fill="#9CCDEE"/>
<path d="M257.398 111.605C257.67 112.107 258.395 111.641 258.124 111.139C257.636 110.25 257.185 109.316 256.651 108.393C256.38 107.89 255.654 108.357 255.926 108.859C256.424 109.828 256.911 110.717 257.398 111.605Z" fill="#9CCDEE"/>
<path d="M259.181 111.002C259.407 111.469 260.245 111.236 260.009 110.688C259.547 109.672 259.13 108.692 258.632 107.723C258.407 107.256 257.568 107.488 257.805 108.037C258.267 109.052 258.729 110.068 259.181 111.002Z" fill="#9CCDEE"/>
<path d="M260.829 110.954C261.101 111.456 261.78 110.955 261.555 110.487C261.113 109.635 260.789 108.726 260.581 107.76C260.472 107.236 259.634 107.469 259.753 108.074C260.007 109.075 260.377 110.02 260.829 110.954Z" fill="#9CCDEE"/>
<path d="M262.909 110.726C263.181 111.228 263.86 110.727 263.634 110.26C263.182 109.326 262.695 108.437 262.243 107.503C261.972 107.001 261.292 107.502 261.518 107.969C261.97 108.904 262.457 109.792 262.909 110.726Z" fill="#9CCDEE"/>
<path d="M264.543 109.935C264.617 110.505 265.477 110.435 265.403 109.865C265.266 108.808 264.895 107.863 264.21 107.042C263.867 106.631 263.142 107.097 263.485 107.508C264.078 108.258 264.428 109.04 264.543 109.935Z" fill="#9CCDEE"/>
<path d="M266.552 109.799C266.743 110.312 267.581 110.079 267.38 109.485C267.112 108.693 266.763 107.911 266.495 107.118C266.304 106.605 265.466 106.838 265.667 107.432C265.981 108.26 266.284 109.007 266.552 109.799Z" fill="#9CCDEE"/>
<path d="M268.516 108.676C268.707 109.189 269.58 108.911 269.344 108.362C268.938 107.464 268.568 106.519 268.208 105.656C268.017 105.143 267.143 105.421 267.38 105.97C267.786 106.868 268.11 107.778 268.516 108.676Z" fill="#9CCDEE"/>
<path d="M270.621 108.321C270.928 108.778 271.653 108.311 271.346 107.855C270.834 107.094 270.393 106.241 270.033 105.378C269.842 104.865 268.968 105.144 269.205 105.692C269.575 106.637 270.063 107.525 270.621 108.321Z" fill="#9CCDEE"/>
<path d="M272.138 107.587C272.329 108.1 273.167 107.867 272.966 107.273C272.596 106.328 272.225 105.384 271.901 104.475C271.71 103.962 270.872 104.194 271.073 104.789C271.398 105.698 271.768 106.642 272.138 107.587Z" fill="#9CCDEE"/>
<path d="M274.933 106.811C274.396 106.178 274.163 105.34 274.256 104.459C274.31 103.915 273.5 103.73 273.411 104.32C273.258 105.374 273.522 106.457 274.208 107.278C274.55 107.688 275.276 107.222 274.933 106.811Z" fill="#9CCDEE"/>
<path d="M187.159 139.268C187.682 139.159 187.45 138.321 186.845 138.44C186.042 138.627 185.317 139.093 184.821 139.736C184.467 140.196 185.12 140.773 185.475 140.314C185.945 139.798 186.483 139.48 187.159 139.268Z" fill="#9CCDEE"/>
<path d="M188.806 140.172C189.217 139.829 188.75 139.104 188.34 139.446C187.671 140.029 186.808 140.389 185.948 140.459C185.379 140.533 185.449 141.392 186.018 141.318C187.005 141.273 187.985 140.857 188.806 140.172Z" fill="#9CCDEE"/>
<path d="M191.448 139.499C190.104 140.293 188.724 141.133 187.379 141.928C186.877 142.2 187.389 142.961 187.845 142.653C189.19 141.859 190.57 141.019 191.915 140.224C192.452 139.906 191.951 139.227 191.448 139.499Z" fill="#9CCDEE"/>
<path d="M192.338 141.575C192.794 141.268 192.282 140.507 191.872 140.85C190.817 141.648 189.695 142.248 188.482 142.778C187.969 142.968 188.247 143.842 188.796 143.606C190.009 143.076 191.202 142.384 192.338 141.575Z" fill="#9CCDEE"/>
<path d="M193.544 141.626C192.015 142.279 190.635 143.119 189.358 144.112C188.947 144.454 189.413 145.18 189.824 144.837C191.066 143.891 192.365 143.061 193.858 142.454C194.406 142.217 194.092 141.39 193.544 141.626Z" fill="#9CCDEE"/>
<path d="M195.508 143.067C193.913 143.522 192.431 144.21 190.969 145.061C190.467 145.333 190.979 146.094 191.435 145.786C192.815 144.946 194.227 144.35 195.777 143.86C196.3 143.751 195.986 142.923 195.508 143.067Z" fill="#9CCDEE"/>
<path d="M196.621 144.95C195.142 145.348 193.755 145.817 192.39 146.449C191.877 146.639 192.155 147.513 192.704 147.277C194.115 146.68 195.502 146.211 196.935 145.778C197.412 145.633 197.098 144.805 196.621 144.95Z" fill="#9CCDEE"/>
<path d="M199.272 146.261C197.712 146.669 196.244 147.149 194.715 147.802C194.202 147.992 194.481 148.866 195.029 148.63C196.476 147.987 197.98 147.462 199.586 147.089C200.063 146.944 199.831 146.106 199.272 146.261Z" fill="#9CCDEE"/>
<path d="M200.728 147.602C199.549 148.086 198.371 148.569 197.193 149.053C196.68 149.243 196.959 150.117 197.507 149.88C198.685 149.397 199.863 148.914 201.042 148.43C201.555 148.24 201.241 147.412 200.728 147.602Z" fill="#9CCDEE"/>
<path d="M203.386 148.333C201.724 148.59 200.15 149.207 198.791 150.21C198.334 150.518 198.8 151.243 199.257 150.936C200.51 150.071 201.921 149.474 203.421 149.239C204.026 149.119 203.956 148.26 203.386 148.333Z" fill="#9CCDEE"/>
<path d="M205.362 149.856C203.692 150.692 201.944 151.25 200.13 151.609C199.606 151.718 199.676 152.577 200.2 152.468C202.096 152.099 203.924 151.531 205.676 150.684C206.143 150.458 205.864 149.584 205.362 149.856Z" fill="#9CCDEE"/>
<path d="M206.159 151.862C204.762 152.25 203.319 152.602 201.921 152.99C201.362 153.145 201.676 153.972 202.235 153.817C203.633 153.43 205.076 153.077 206.473 152.69C206.951 152.545 206.672 151.671 206.159 151.862Z" fill="#9CCDEE"/>
<path d="M207.467 153.016C206.14 153.312 204.814 153.608 203.452 153.949C202.928 154.058 203.161 154.897 203.766 154.777C205.092 154.481 206.419 154.186 207.781 153.844C208.304 153.735 207.99 152.907 207.467 153.016Z" fill="#9CCDEE"/>
<path d="M209.262 154.107C207.656 154.48 206.061 154.935 204.476 155.471C203.963 155.661 204.231 156.454 204.79 156.299C206.375 155.763 207.97 155.308 209.576 154.935C210.089 154.744 209.821 153.952 209.262 154.107Z" fill="#9CCDEE"/>
<path d="M210.916 155.382C209.367 155.872 207.807 156.28 206.257 156.771C205.698 156.926 206.012 157.753 206.571 157.598C208.121 157.108 209.681 156.7 211.23 156.209C211.707 156.065 211.475 155.226 210.916 155.382Z" fill="#9CCDEE"/>
<path d="M212.378 157.095C210.981 157.482 209.538 157.835 208.141 158.222C207.582 158.377 207.896 159.205 208.455 159.05C209.852 158.662 211.295 158.31 212.692 157.922C213.251 157.767 212.937 156.94 212.378 157.095Z" fill="#9CCDEE"/>
<path d="M214.725 158.61C213.328 158.998 211.931 159.386 210.498 159.819C209.939 159.975 210.253 160.802 210.812 160.647C212.209 160.26 213.607 159.872 215.039 159.438C215.563 159.329 215.249 158.501 214.725 158.61Z" fill="#9CCDEE"/>
<path d="M217.143 160.034C215.593 160.524 213.963 161.025 212.413 161.515C211.854 161.67 212.168 162.498 212.727 162.343C214.277 161.853 215.907 161.352 217.457 160.862C217.934 160.718 217.702 159.879 217.143 160.034Z" fill="#9CCDEE"/>
<path d="M218.868 161.217C217.074 161.739 215.383 162.413 213.667 163.214C213.165 163.486 213.433 164.278 213.981 164.042C215.651 163.205 217.388 162.567 219.182 162.045C219.695 161.854 219.381 161.027 218.868 161.217Z" fill="#9CCDEE"/>
<path d="M221.095 162.128C219.124 162.88 217.2 163.666 215.331 164.57C214.829 164.842 215.097 165.634 215.645 165.398C217.514 164.494 219.474 163.661 221.409 162.956C221.922 162.765 221.643 161.892 221.095 162.128Z" fill="#9CCDEE"/>
<path d="M221.283 164.544C219.872 165.14 218.393 165.538 216.837 165.657C216.268 165.731 216.337 166.59 216.907 166.516C218.499 166.352 220.058 165.943 221.551 165.336C222.064 165.146 221.75 164.318 221.283 164.544Z" fill="#9CCDEE"/>
<path d="M223.92 166.063C222.137 166.666 220.39 167.224 218.653 167.862C218.14 168.052 218.408 168.845 218.967 168.69C220.75 168.087 222.497 167.53 224.234 166.891C224.747 166.701 224.433 165.873 223.92 166.063Z" fill="#9CCDEE"/>
<path d="M225.655 167.327C224.29 167.959 222.903 168.428 221.414 168.745C220.89 168.854 221.123 169.693 221.728 169.573C223.217 169.256 224.604 168.787 225.969 168.155C226.436 167.929 226.158 167.056 225.655 167.327Z" fill="#9CCDEE"/>
<path d="M227.444 168.047C225.718 168.767 224.037 169.522 222.367 170.359C221.865 170.631 222.366 171.31 222.833 171.084C224.422 170.258 226.067 169.549 227.758 168.875C228.271 168.684 227.957 167.857 227.444 168.047Z" fill="#9CCDEE"/>
<path d="M228.465 169.859C227.018 170.501 225.514 171.027 223.954 171.435C223.395 171.59 223.709 172.418 224.268 172.263C225.828 171.854 227.296 171.375 228.779 170.687C229.246 170.461 228.978 169.668 228.465 169.859Z" fill="#9CCDEE"/>
<path d="M230.741 171.466C228.997 171.734 227.285 172.245 225.664 172.827C225.151 173.017 225.384 173.856 225.978 173.655C227.553 173.037 229.148 172.582 230.846 172.28C231.334 172.217 231.264 171.357 230.741 171.466Z" fill="#9CCDEE"/>
<path d="M232.313 172.752C230.905 173.058 229.473 173.492 228.096 174.042C227.583 174.232 227.862 175.106 228.41 174.87C229.787 174.319 231.138 173.896 232.627 173.579C233.105 173.435 232.837 172.642 232.313 172.752Z" fill="#9CCDEE"/>
<path d="M234.038 173.934C232.573 174.124 231.222 174.547 229.948 175.25C229.446 175.522 229.912 176.247 230.414 175.975C231.536 175.375 232.806 174.962 234.108 174.794C234.642 174.766 234.572 173.907 234.038 173.934Z" fill="#9CCDEE"/>
<path d="M235.394 175.785C234.092 175.954 232.858 176.32 231.644 176.85C231.177 177.076 231.41 177.914 231.958 177.678C233.09 177.159 234.244 176.803 235.464 176.645C236.033 176.571 235.963 175.712 235.394 175.785Z" fill="#9CCDEE"/>
<path d="M238.13 176.796C236.326 177.236 234.512 177.595 232.708 178.035C232.184 178.145 232.417 178.983 233.022 178.863C234.826 178.423 236.64 178.064 238.444 177.624C238.968 177.514 238.654 176.687 238.13 176.796Z" fill="#9CCDEE"/>
<path d="M239.926 177.887C238.214 178.398 236.491 178.828 234.779 179.339C234.22 179.494 234.534 180.322 235.093 180.167C236.805 179.656 238.528 179.226 240.24 178.714C240.717 178.57 240.485 177.732 239.926 177.887Z" fill="#9CCDEE"/>
<path d="M241.54 179.497C239.956 180.033 238.293 180.29 236.624 180.175C236.08 180.122 235.905 181.013 236.485 181.02C238.317 181.114 240.153 180.918 241.89 180.279C242.367 180.135 242.053 179.307 241.54 179.497Z" fill="#9CCDEE"/>
<path d="M244.085 180.946C242.306 181.259 240.573 181.608 238.794 181.921C238.27 182.03 238.34 182.889 238.864 182.78C240.643 182.467 242.376 182.119 244.155 181.806C244.725 181.732 244.655 180.872 244.085 180.946Z" fill="#9CCDEE"/>
<path d="M245.17 182.294C243.635 182.576 242.1 182.857 240.529 183.185C240.006 183.294 240.076 184.153 240.599 184.044C242.134 183.763 243.669 183.481 245.24 183.154C245.763 183.045 245.693 182.185 245.17 182.294Z" fill="#9CCDEE"/>
<path d="M246.336 183.632C244.903 184.066 243.516 184.535 242.084 184.969C241.525 185.124 241.839 185.952 242.397 185.797C243.83 185.363 245.217 184.894 246.65 184.46C247.127 184.316 246.895 183.477 246.336 183.632Z" fill="#9CCDEE"/>
<path d="M248.046 185.024C246.415 185.524 244.749 186.071 243.118 186.572C242.559 186.727 242.873 187.555 243.432 187.4C245.063 186.899 246.729 186.352 248.36 185.852C248.838 185.707 248.524 184.879 248.046 185.024Z" fill="#9CCDEE"/>
<path d="M249.64 186.472C247.921 186.612 246.336 187.148 244.839 188.044C244.337 188.316 244.849 189.077 245.305 188.77C246.65 187.975 248.118 187.496 249.674 187.377C250.244 187.303 250.174 186.444 249.64 186.472Z" fill="#9CCDEE"/>
<path d="M251.577 187.379C250.155 187.894 248.686 188.373 247.264 188.888C246.751 189.079 247.019 189.871 247.578 189.716C249 189.201 250.469 188.722 251.891 188.207C252.404 188.016 252.136 187.224 251.577 187.379Z" fill="#9CCDEE"/>
<path d="M253.362 188.388C251.625 189.027 250.001 189.899 248.535 191.04C248.079 191.347 248.591 192.108 249.002 191.765C250.431 190.67 251.974 189.809 253.676 189.216C254.143 188.99 253.875 188.198 253.362 188.388Z" fill="#9CCDEE"/>
<path d="M255.306 189.667C253.583 190.097 251.984 190.841 250.508 191.901C250.051 192.208 250.518 192.934 250.974 192.626C252.379 191.659 253.897 190.925 255.538 190.505C256.178 190.34 255.864 189.512 255.306 189.667Z" fill="#9CCDEE"/>
<path d="M257.306 191.062C256.082 191.51 254.858 191.958 253.634 192.406C253.121 192.597 253.389 193.389 253.948 193.234C255.172 192.786 256.396 192.338 257.62 191.89C258.133 191.7 257.854 190.826 257.306 191.062Z" fill="#9CCDEE"/>
<path d="M97.3398 104.827C98.3552 104.365 99.3917 104.065 100.509 103.755C101.068 103.6 100.754 102.772 100.196 102.927C99.1131 103.191 98.0872 103.572 97.0258 103.999C96.5588 104.225 96.7914 105.064 97.3398 104.827Z" fill="#9CCDEE"/>
<path d="M97.1964 106.913C98.8061 106.25 100.359 105.47 101.902 104.609C102.405 104.337 101.938 103.611 101.436 103.883C99.9746 104.734 98.4567 105.468 96.9284 106.121C96.4154 106.312 96.6834 107.104 97.1964 106.913Z" fill="#9CCDEE"/>
<path d="M104.809 105.018C104.982 105.078 105.145 105.057 105.251 104.919C105.403 104.817 105.509 104.679 105.697 104.531C106.107 104.188 105.546 103.682 105.114 103.862C102.16 105.32 99.2512 106.813 96.2969 108.271C95.7944 108.542 96.296 109.222 96.763 108.996C99.4484 107.697 102.088 106.363 104.809 105.018Z" fill="#9CCDEE"/>
<path d="M106.35 106.059C106.491 105.875 106.633 105.692 106.774 105.508C107.058 105.14 106.659 104.613 106.192 104.839C103.233 106.587 100.219 108.218 97.0913 109.615C96.5783 109.806 96.8569 110.68 97.4053 110.443C100.299 109.159 103.091 107.722 105.816 106.087C105.918 106.239 106.173 106.289 106.35 106.059Z" fill="#9CCDEE"/>
<path d="M101.153 111.281C102.462 110.533 103.772 109.784 105.116 108.99C105.771 108.616 106.425 108.241 107.08 107.867C107.349 107.708 108.216 107.058 108.683 106.832C108.775 106.903 108.867 106.974 108.983 106.917L109.065 106.907C109.309 106.875 109.451 106.692 109.5 106.437C109.536 106.391 109.49 106.356 109.525 106.31C109.504 106.147 109.356 105.959 109.182 105.899C108.928 105.849 108.811 105.906 108.578 106.019C107.668 106.343 106.731 107.085 105.842 107.572C104.112 108.582 102.382 109.592 100.641 110.52C100.185 110.828 100.686 111.507 101.153 111.281Z" fill="#9CCDEE"/>
<path d="M104.541 111.256C106.703 110.066 108.946 108.866 111.108 107.676C111.235 107.701 111.352 107.645 111.423 107.553C111.611 107.404 111.809 107.337 111.996 107.189C112.032 107.143 112.113 107.133 112.148 107.087C112.57 106.825 112.231 106.125 111.799 106.305C111.484 106.428 111.251 106.541 111.063 106.69C108.749 107.982 106.389 109.239 104.075 110.531C103.573 110.803 104.039 111.528 104.541 111.256Z" fill="#9CCDEE"/>
<path d="M105.46 111.964C106.839 112.075 108.049 111.836 109.344 111.296C110.09 110.993 110.791 110.654 111.537 110.35C112.004 110.124 112.553 109.888 113.02 109.662C113.218 109.595 113.451 109.482 113.603 109.38C113.883 109.302 114.07 109.154 114.201 108.889C114.314 109.122 114.58 109.253 114.848 109.094C114.884 109.048 114.93 109.084 114.965 109.038C115.117 108.935 115.167 108.681 115.146 108.518C115.136 108.437 115.136 108.437 115.125 108.356C115.104 108.193 114.839 108.062 114.676 108.083C113.364 108.17 111.888 109.23 110.675 109.759C109.076 110.504 107.476 111.248 105.68 111.109C105.054 111.066 104.915 111.911 105.46 111.964Z" fill="#9CCDEE"/>
<path d="M109.342 113.199C110.952 112.535 112.526 111.918 114.125 111.173C114.907 110.824 115.689 110.474 116.471 110.125C116.552 110.114 117.359 109.638 117.968 109.228C117.978 109.309 118.07 109.38 118.197 109.405C118.243 109.441 118.243 109.441 118.325 109.43C118.498 109.49 118.706 109.505 118.848 109.321C119.025 109.091 119.096 108.999 119.018 108.72C118.951 108.522 118.849 108.37 118.676 108.309C117.52 108.004 115.761 109.431 114.745 109.894C112.867 110.716 110.988 111.538 109.099 112.279C108.515 112.561 108.829 113.389 109.342 113.199Z" fill="#9CCDEE"/>
<path d="M112.672 114.008C115.241 112.766 117.81 111.523 120.378 110.281C120.481 110.433 120.7 110.529 120.923 110.334C121.415 109.981 121.344 110.073 121.734 109.568C121.981 109.246 121.699 108.662 121.267 108.842C118.313 110.3 115.348 111.676 112.394 113.134C111.856 113.452 112.17 114.28 112.672 114.008Z" fill="#9CCDEE"/>
<path d="M115.104 115.223C117.733 113.808 120.398 112.346 123.073 110.966C123.21 111.072 123.373 111.051 123.525 110.949C123.748 110.754 123.971 110.56 124.194 110.366C124.605 110.023 124.23 109.368 123.728 109.64C120.713 111.271 117.699 112.902 114.638 114.498C114.136 114.77 114.602 115.495 115.104 115.223Z" fill="#9CCDEE"/>
<path d="M116.783 116.371C119.84 115.065 122.784 113.526 125.579 111.799C125.727 111.987 126.028 112.072 126.205 111.842C126.605 111.418 126.97 111.04 127.37 110.616C127.734 110.238 127.208 109.686 126.787 109.947C123.51 112.109 120.028 113.965 116.423 115.507C116.002 115.769 116.316 116.597 116.783 116.371Z" fill="#9CCDEE"/>
<path d="M120.966 116.739C123.673 115.603 126.348 114.222 128.839 112.701C129.023 112.842 129.359 112.881 129.525 112.57C129.667 112.387 129.798 112.121 129.939 111.938C130.177 111.535 129.671 111.145 129.332 111.396C126.582 113.158 123.674 114.651 120.652 115.911C120.185 116.137 120.418 116.975 120.966 116.739Z" fill="#9CCDEE"/>
<path d="M123.19 117.94C126.144 116.482 129.144 115.06 132.134 113.556C132.318 113.698 132.7 113.772 132.866 113.461C133.008 113.277 133.068 113.104 133.21 112.92C133.376 112.609 132.988 112.163 132.673 112.287C129.404 113.868 126.18 115.485 122.911 117.066C122.409 117.338 122.723 118.166 123.19 117.94Z" fill="#9CCDEE"/>
<path d="M126.259 118.328C127.858 117.584 129.503 116.874 131.103 116.13C131.417 116.006 133.88 114.901 135.118 114.245C135.118 114.245 135.118 114.245 135.164 114.28C135.267 114.432 135.486 114.528 135.684 114.461C135.917 114.348 136.07 114.246 136.073 113.956C136.088 113.747 136.021 113.549 135.847 113.489C134.716 113.056 133.063 114.345 132.048 114.808C130.017 115.732 128.022 116.611 125.991 117.536C125.443 117.772 125.757 118.6 126.259 118.328Z" fill="#9CCDEE"/>
<path d="M129.483 119.275C132.332 117.956 135.19 116.717 138.059 115.56C138.172 115.793 138.529 115.995 138.777 115.673C139.036 115.433 139.283 115.112 139.542 114.871C139.836 114.585 139.472 114.012 139.076 114.146C135.729 115.448 132.439 116.866 129.205 118.402C128.702 118.674 128.971 119.466 129.483 119.275Z" fill="#9CCDEE"/>
<path d="M132.301 120.275C135.245 118.736 138.291 117.349 141.44 116.114C141.542 116.267 141.761 116.362 142.03 116.203C142.451 115.942 142.908 115.635 143.329 115.374C143.75 115.112 143.411 114.412 142.98 114.592C139.191 115.992 135.479 117.672 131.916 119.539C131.333 119.822 131.799 120.547 132.301 120.275Z" fill="#9CCDEE"/>
<path d="M135.427 120.781C138.53 119.51 141.586 118.205 144.689 116.934C144.837 117.122 145.057 117.218 145.28 117.023C145.538 116.783 145.842 116.578 146.101 116.338C146.476 116.041 146.218 115.33 145.751 115.556C142.217 117.006 138.729 118.492 135.194 119.942C134.646 120.179 134.96 121.006 135.427 120.781Z" fill="#9CCDEE"/>
<path d="M137.686 121.936C139.295 121.272 140.905 120.609 142.423 119.875C142.971 119.638 143.509 119.32 144.093 119.038C144.443 118.869 145.65 117.968 146.326 117.756C146.372 117.792 146.418 117.827 146.499 117.817C146.545 117.852 146.58 117.806 146.626 117.842C146.835 117.856 147.068 117.743 147.118 117.488C147.153 117.442 147.108 117.407 147.143 117.361C147.193 117.107 147.044 116.919 146.79 116.869C145.771 116.67 144.211 118.03 143.358 118.472C141.419 119.467 139.424 120.346 137.418 121.143C136.905 121.334 137.173 122.126 137.686 121.936Z" fill="#9CCDEE"/>
<path d="M140.86 123.137C143.973 121.949 146.995 120.689 150.087 119.337C150.271 119.479 150.525 119.529 150.748 119.334C150.971 119.14 151.113 118.956 151.336 118.762C151.63 118.476 151.266 117.903 150.87 118.037C147.463 119.512 144.091 120.941 140.582 122.264C140.079 122.535 140.312 123.374 140.86 123.137Z" fill="#9CCDEE"/>
<path d="M144.877 123.817C147.538 122.645 150.188 121.392 152.848 120.22C152.926 120.5 153.318 120.656 153.576 120.416C153.941 120.038 154.387 119.649 154.752 119.271C155.045 118.985 154.682 118.411 154.285 118.545C151.041 119.999 147.807 121.535 144.563 122.989C144.096 123.215 144.329 124.053 144.877 123.817Z" fill="#9CCDEE"/>
<path d="M148.314 124.488C151.208 123.204 154.148 121.955 157.042 120.67C157.155 120.903 157.547 121.059 157.714 120.748C157.88 120.437 158.139 120.197 158.489 120.028C158.91 119.766 158.571 119.066 158.14 119.246C154.814 120.71 151.407 122.185 148.081 123.65C147.533 123.886 147.811 124.76 148.314 124.488Z" fill="#9CCDEE"/>
<path d="M150.969 125.509C153.934 124.133 156.863 122.802 159.828 121.426C160.001 121.486 160.164 121.465 160.316 121.363C160.468 121.26 160.574 121.122 160.762 120.974C161.056 120.688 160.692 120.115 160.296 120.249C157.098 121.738 153.899 123.227 150.736 124.671C150.188 124.907 150.456 125.7 150.969 125.509Z" fill="#9CCDEE"/>
<path d="M153.33 126.816C156.702 125.387 160.027 123.923 163.399 122.494C163.512 122.727 163.731 122.823 163.954 122.629C164.294 122.378 164.365 122.286 164.52 121.894C164.687 121.582 164.38 121.126 163.984 121.26C160.343 122.848 156.657 124.401 153.016 125.989C152.549 126.214 152.817 127.007 153.33 126.816Z" fill="#9CCDEE"/>
<path d="M156.13 127.364C158.126 126.485 160.167 125.642 162.162 124.763C162.513 124.594 165.768 123.221 167.239 122.451C167.285 122.487 167.285 122.487 167.331 122.522C167.434 122.674 167.653 122.77 167.851 122.703C168.12 122.544 168.237 122.488 168.322 122.187C168.336 121.978 168.269 121.78 168.096 121.72C166.792 121.227 164.636 122.788 163.504 123.307C160.996 124.376 158.487 125.446 155.944 126.561C155.314 126.808 155.582 127.6 156.13 127.364Z" fill="#9CCDEE"/>
<path d="M159.146 128.297C162.808 126.871 166.434 125.492 170.117 124.229C170.63 124.039 170.361 123.246 169.803 123.401C166.084 124.71 162.458 126.089 158.832 127.469C158.365 127.695 158.633 128.487 159.146 128.297Z" fill="#9CCDEE"/>
<path d="M163.573 128.633C166.966 127.367 170.394 126.054 173.787 124.788C173.935 124.976 174.236 125.061 174.413 124.831C174.6 124.683 174.777 124.453 174.965 124.305C175.259 124.018 174.895 123.445 174.499 123.579C170.756 125.015 167.002 126.37 163.259 127.805C162.792 128.031 163.06 128.824 163.573 128.633Z" fill="#9CCDEE"/>
<path d="M187.317 121.01C187.434 120.953 187.505 120.861 187.53 120.734C187.555 120.607 187.534 120.444 187.396 120.338C187.12 120.125 186.759 120.213 186.685 120.595C186.695 120.677 186.706 120.758 186.716 120.839C185.156 121.248 182.054 122.518 181.785 122.677C180.023 123.443 178.307 124.244 176.545 125.01C173.021 126.541 169.487 127.992 165.953 129.442C165.44 129.632 165.718 130.506 166.267 130.27C173.36 127.242 180.372 124.225 187.317 121.01Z" fill="#9CCDEE"/>
<path d="M176.441 123.245C180.092 121.738 183.661 120.242 187.313 118.736C187.825 118.545 187.547 117.671 186.999 117.908C183.347 119.414 179.778 120.911 176.127 122.417C175.66 122.643 175.928 123.436 176.441 123.245Z" fill="#9CCDEE"/>
<path d="M177.331 119.904C179.521 119.248 181.608 118.44 183.71 117.424C184.563 116.982 185.37 116.506 186.243 116.227C186.64 116.093 186.707 116.291 187.036 115.959C187.142 115.821 187.192 115.567 187.089 115.415C186.976 115.181 186.803 115.121 186.513 115.117C186.386 115.092 186.28 115.23 186.209 115.322C185.965 115.353 185.767 115.42 185.685 115.431C184.755 115.593 183.523 116.621 182.625 117.027C180.827 117.838 178.974 118.533 177.063 119.111C176.54 119.221 176.808 120.013 177.331 119.904Z" fill="#9CCDEE"/>
<path d="M177.376 117.375C179.605 116.384 181.88 115.427 184.109 114.436C185.17 114.009 186.313 113.571 187.318 113.028C187.668 112.858 187.912 112.827 188.033 112.48C188.164 112.215 188.005 111.946 187.704 111.861C187.658 111.826 187.659 111.826 187.577 111.836C187.323 111.786 187.1 111.981 187.085 112.189L187.05 112.235C186.558 112.589 185.044 113.033 184.694 113.202C183.83 113.562 182.967 113.922 182.15 114.317C180.423 115.037 178.707 115.838 176.981 116.558C176.595 116.773 176.828 117.612 177.376 117.375Z" fill="#9CCDEE"/>
<path d="M179.49 114.538C182.378 112.882 185.332 111.424 188.481 110.189C188.993 109.999 188.725 109.206 188.167 109.361C187.968 109.428 187.77 109.495 187.572 109.562C187.455 109.619 187.42 109.665 187.349 109.757C184.526 110.949 181.724 112.305 179.024 113.812C178.522 114.084 179.034 114.845 179.49 114.538Z" fill="#9CCDEE"/>
<path d="M179.723 111.861C182.8 110.718 185.868 109.493 188.843 108.198C189.413 108.125 189.727 108.001 190.127 107.577C190.421 107.291 190.057 106.718 189.661 106.852C186.254 108.327 182.837 109.72 179.409 111.033C178.896 111.223 179.21 112.051 179.723 111.861Z" fill="#9CCDEE"/>
<path d="M180.089 109.58C183.015 108.539 185.919 107.336 188.732 106.062C188.845 106.296 189.121 106.508 189.389 106.349C189.892 106.077 190.023 105.812 190.112 105.222C190.116 104.932 189.865 104.592 189.55 104.716C186.352 106.205 183.132 107.532 179.775 108.752C179.308 108.978 179.576 109.77 180.089 109.58Z" fill="#9CCDEE"/>
<path d="M180.632 107.07C184.096 105.711 187.559 104.353 190.977 102.959C191.373 102.825 191.335 102.21 190.907 102.1C190.734 102.04 190.525 102.025 190.352 101.965C190.051 101.88 189.839 102.155 189.871 102.399C186.687 103.68 183.538 104.915 180.308 106.16C179.851 106.468 180.084 107.306 180.632 107.07Z" fill="#9CCDEE"/>
<path d="M180.971 104.255C184.608 102.957 188.177 101.461 191.691 99.8479C192.122 99.6679 192.038 99.0171 191.539 98.999C190.797 99.0124 190.995 98.9454 190.33 99.2383C190.132 99.3053 190.071 99.4785 190.092 99.6412C187.011 101.074 183.908 102.344 180.703 103.462C180.19 103.653 180.423 104.491 180.971 104.255Z" fill="#9CCDEE"/>
<path d="M181.737 101.55C184.953 100.513 188.056 99.2432 191.137 97.8103C191.742 97.6906 191.824 97.6801 192.224 97.2561C192.517 96.9699 192.154 96.3967 191.757 96.5307C188.372 98.1684 184.954 99.5621 181.423 100.722C180.911 100.913 181.179 101.705 181.737 101.55Z" fill="#9CCDEE"/>
<path d="M192.835 93.9925C192.637 94.0595 192.403 94.1725 192.159 94.2041C192.124 94.25 192.078 94.2146 192.043 94.2605C188.975 95.4848 185.873 96.755 182.851 98.0147C182.338 98.2052 182.617 99.079 183.165 98.8426C186.501 97.4594 189.848 96.1576 193.184 94.7744C193.662 94.6299 193.394 93.8374 192.835 93.9925Z" fill="#9CCDEE"/>
<path d="M191.733 92.1914C191.698 92.2374 191.698 92.2374 191.662 92.2833C188.942 93.6281 186.164 94.8562 183.331 95.9676C182.818 96.1581 183.096 97.0318 183.645 96.7954C186.91 95.5041 190.154 94.0501 193.342 92.4794C193.692 92.3099 193.537 91.751 193.201 91.7118C192.519 91.552 192.158 91.6401 191.733 92.1914Z" fill="#9CCDEE"/>
<path d="M183.331 95.0162C186.438 93.456 189.636 91.9666 192.799 90.5232C192.927 90.5481 193.089 90.527 193.16 90.4351C193.231 90.3432 193.348 90.2868 193.419 90.1949C193.712 89.9087 193.349 89.3354 192.952 89.4695C189.556 91.0259 186.205 92.6177 182.865 94.2908C182.317 94.5273 182.829 95.2881 183.331 95.0162Z" fill="#9CCDEE"/>
<path d="M184.286 91.2119C183.784 91.4837 184.296 92.2446 184.752 91.9373C186.868 90.7121 189.072 89.8478 191.4 89.2983C191.878 89.1537 191.737 88.3862 191.249 88.4494C191.167 88.4599 191.086 88.4704 191.005 88.481C190.923 88.4915 190.923 88.4915 190.888 88.5374C188.56 89.0869 186.356 89.9513 184.286 91.2119Z" fill="#9CCDEE"/>
<path d="M184.479 89.8222C186.085 89.4489 187.736 89.1109 189.363 88.9003C189.933 88.8265 189.863 87.9671 189.293 88.0408C187.585 88.262 185.852 88.6105 184.211 89.0298C183.687 89.1389 183.92 89.9773 184.479 89.8222Z" fill="#9CCDEE"/>
<path d="M184.213 124.182C178.808 125.875 173.572 127.918 168.526 130.473C168.024 130.745 168.525 131.425 168.992 131.199C174.002 128.689 179.157 126.657 184.527 125.01C185.005 124.866 184.726 123.992 184.213 124.182Z" fill="#9CCDEE"/>
<path d="M184.784 126.673C180.202 128.341 175.61 129.928 170.962 131.399C170.403 131.554 170.717 132.381 171.276 132.226C175.924 130.756 180.516 129.169 185.098 127.5C185.565 127.275 185.297 126.482 184.784 126.673Z" fill="#9CCDEE"/>
<path d="M173.333 133.738C178.014 131.561 182.864 129.733 187.668 127.871C187.796 127.896 187.877 127.885 187.994 127.829C188.344 127.659 188.73 127.444 189.08 127.274C189.547 127.048 189.162 126.313 188.73 126.492C183.505 128.617 178.167 130.507 173.054 132.865C172.552 133.136 172.785 133.975 173.333 133.738Z" fill="#9CCDEE"/>
<path d="M172.154 135.173C171.641 135.364 171.919 136.237 172.468 136.001C177.952 133.637 183.492 131.389 189.089 129.258C189.216 129.283 189.333 129.227 189.403 129.135C189.485 129.124 189.556 129.032 189.637 129.022C189.835 128.955 189.952 128.898 190.15 128.831C190.582 128.651 190.487 127.919 189.999 127.983C189.429 128.056 189.302 128.031 188.973 128.363C183.295 130.505 177.719 132.798 172.154 135.173Z" fill="#9CCDEE"/>
<path d="M191.878 129.724C192.055 129.495 192.013 129.169 191.748 129.038C191.702 129.003 191.702 129.003 191.656 128.967C191.437 128.872 191.158 128.949 191.062 129.168L191.027 129.214C190.92 129.352 190.977 129.469 190.987 129.55C190.245 129.564 189.488 129.786 188.844 130.241C188.062 130.591 187.244 130.986 186.463 131.335C184.863 132.08 183.3 132.779 181.7 133.523C178.537 134.967 175.385 136.492 172.187 137.981C171.684 138.253 171.952 139.045 172.501 138.809C176.237 137.002 179.984 135.276 183.766 133.504C185.563 132.692 187.36 131.881 189.158 131.069C190.021 130.709 191.231 130.47 191.878 129.724Z" fill="#9CCDEE"/>
<path d="M195.687 129.438C191.849 131.093 188.01 132.748 184.172 134.403C183.659 134.593 183.937 135.467 184.486 135.231C188.324 133.576 192.163 131.921 196.001 130.266C196.468 130.04 196.2 129.247 195.687 129.438Z" fill="#9CCDEE"/>
<path d="M199.904 131.663C200.304 131.239 200.258 131.203 200.312 130.659C200.316 130.369 199.959 130.167 199.725 130.28C195.947 131.762 192.133 133.289 188.355 134.771C187.842 134.962 188.12 135.835 188.669 135.599C192.168 134.195 195.631 132.836 199.176 131.467C199.254 131.747 199.646 131.903 199.904 131.663Z" fill="#9CCDEE"/>
<path d="M192.346 136.529C195.997 135.022 199.659 133.597 203.377 132.288C203.89 132.098 203.622 131.305 203.063 131.461C199.345 132.769 195.683 134.194 192.032 135.701C191.565 135.927 191.833 136.719 192.346 136.529Z" fill="#9CCDEE"/>
<path d="M194.286 138.097C196.632 137.049 198.942 136.047 201.298 135.08C202.476 134.597 203.654 134.113 204.832 133.63C205.812 133.214 207.192 132.373 208.328 132.516C208.872 132.569 209.092 131.714 208.466 131.671C206.497 131.471 204.133 133.018 202.325 133.748C199.537 134.895 196.76 136.123 193.983 137.351C193.505 137.495 193.773 138.288 194.286 138.097Z" fill="#9CCDEE"/>
<path d="M199.775 138.007C203.019 136.553 206.228 135.145 209.518 133.726C209.621 133.879 209.794 133.939 209.992 133.872C210.54 133.635 210.622 133.625 210.919 133.049C211.086 132.738 210.779 132.281 210.382 132.415C206.742 134.003 203.137 135.545 199.542 137.169C198.994 137.405 199.308 138.233 199.775 138.007Z" fill="#9CCDEE"/>
<path d="M201.977 139.045C205.628 137.539 209.279 136.032 212.93 134.525C213.057 134.55 213.139 134.54 213.256 134.483C213.408 134.381 213.56 134.278 213.712 134.176C214.133 133.915 213.794 133.214 213.363 133.394C209.478 135.014 205.583 136.552 201.698 138.171C201.15 138.408 201.464 139.236 201.977 139.045Z" fill="#9CCDEE"/>
<path d="M205.626 139.441C209.107 138.536 212.418 137.28 215.652 135.744C215.836 135.886 216.044 135.9 216.267 135.706C216.374 135.568 216.515 135.384 216.667 135.282C216.986 134.869 216.516 134.433 216.085 134.613C212.663 136.297 209.118 137.666 205.404 138.684C204.789 138.723 205.103 139.55 205.626 139.441Z" fill="#9CCDEE"/>
<path d="M208.167 141.18C212.049 138.899 216.146 137.004 220.321 135.388C220.469 135.576 220.688 135.671 220.922 135.558C221.424 135.287 221.413 135.205 221.421 134.625C221.425 134.335 221.068 134.133 220.834 134.246C216.253 135.915 211.852 138.015 207.62 140.465C207.163 140.772 207.665 141.452 208.167 141.18Z" fill="#9CCDEE"/>
<path d="M211.841 141.449C215.949 139.635 220.113 137.938 224.369 136.311L224.334 136.357C224.28 136.902 225.09 137.087 225.179 136.496C225.228 136.241 225.232 135.951 225.282 135.697C225.321 135.361 225.035 135.067 224.72 135.191C220.302 136.838 215.904 138.648 211.563 140.575C211.06 140.847 211.339 141.721 211.841 141.449Z" fill="#9CCDEE"/>
<path d="M215.589 142.287C219.46 140.876 223.263 139.267 227.055 137.576C227.193 137.683 227.448 137.732 227.625 137.503C227.813 137.354 227.954 137.171 228.142 137.022C228.436 136.736 228.072 136.163 227.676 136.297C223.614 138.146 219.496 139.879 215.311 141.413C214.762 141.649 215.03 142.442 215.589 142.287Z" fill="#9CCDEE"/>
<path d="M218.29 143.343C222.694 141.904 227.032 140.268 231.302 138.433C231.44 138.539 231.613 138.599 231.801 138.451C232.024 138.257 232.293 138.098 232.48 137.949C232.855 137.653 232.562 136.987 232.131 137.167C227.556 139.207 222.869 141.013 218.068 142.586C217.463 142.706 217.731 143.498 218.29 143.343Z" fill="#9CCDEE"/>
<path d="M221.394 144.637C225.898 142.689 230.458 140.858 235.075 139.144C235.121 139.179 235.156 139.133 235.202 139.168C235.609 139.116 235.726 139.059 235.973 138.738C236.303 138.406 235.903 137.878 235.507 138.012C230.647 139.758 225.807 141.667 221.115 143.763C220.578 144.081 220.892 144.909 221.394 144.637Z" fill="#9CCDEE"/>
<path d="M226.334 144.783C230.569 142.994 234.85 141.24 239.095 139.533C239.608 139.342 239.33 138.468 238.781 138.705C234.49 140.377 230.209 142.131 226.02 143.955C225.518 144.227 225.832 145.055 226.334 144.783Z" fill="#9CCDEE"/>
<path d="M229.735 146.452C234.105 144.108 238.562 142.124 243.215 140.364C243.261 140.4 243.342 140.389 243.423 140.378C243.947 140.269 244.028 140.259 244.301 139.81C244.503 139.453 244.125 139.088 243.764 139.176C238.751 141.025 233.943 143.178 229.223 145.691C228.766 145.998 229.232 146.724 229.735 146.452Z" fill="#9CCDEE"/>
<path d="M233.076 147.343C237.771 144.956 242.646 143.002 247.737 141.433C247.829 141.504 247.966 141.61 248.165 141.543C248.723 141.388 248.723 141.388 249.078 140.928C249.361 140.561 249.054 140.104 248.611 140.203C243.079 141.871 237.726 143.97 232.645 146.571C232.143 146.843 232.609 147.569 233.076 147.343Z" fill="#9CCDEE"/>
<path d="M236.771 147.774C241.926 145.742 247.147 143.908 252.436 142.272C252.528 142.343 252.691 142.322 252.843 142.219C252.959 142.163 253.03 142.071 253.147 142.014C253.568 141.753 253.275 141.088 252.798 141.233C247.311 142.935 241.891 144.837 236.539 146.936C235.944 147.137 236.223 148.011 236.771 147.774Z" fill="#9CCDEE"/>
<path d="M240.127 148.456C245.409 146.449 250.711 144.604 256.117 142.912C256.255 143.018 256.428 143.078 256.615 142.93C256.966 142.761 257.351 142.545 257.702 142.376C258.169 142.15 257.749 141.46 257.352 141.594C251.469 143.431 245.654 145.466 239.894 147.618C239.346 147.854 239.614 148.647 240.127 148.456Z" fill="#9CCDEE"/>
<path d="M243.338 148.661C249.291 146.732 255.199 144.768 261.153 142.839C261.63 142.694 261.49 141.927 261.002 141.99C260.107 142.106 260.223 142.049 259.452 142.48C253.976 144.264 248.546 146.084 243.105 147.822C242.511 148.024 242.779 148.816 243.338 148.661Z" fill="#9CCDEE"/>
<path d="M246.109 149.625C251.296 146.886 257.487 145.505 263.044 143.711C263.557 143.52 263.289 142.728 262.73 142.883C262.451 142.96 262.171 143.038 261.846 143.08C261.764 143.09 261.729 143.136 261.694 143.182C256.37 144.864 250.551 146.238 245.679 148.854C245.095 149.136 245.607 149.897 246.109 149.625Z" fill="#9CCDEE"/>
<path d="M248.892 150.671C254.011 148.685 259.211 146.688 264.33 144.702C264.479 144.89 264.79 145.056 264.956 144.745C265.098 144.561 265.204 144.423 265.346 144.24C265.594 143.918 265.311 143.334 264.88 143.514C259.446 145.624 254.047 147.688 248.613 149.797C248.065 150.034 248.379 150.862 248.892 150.671Z" fill="#9CCDEE"/>
<path d="M252.562 151.23C257.151 148.981 261.828 147.094 266.618 145.44C266.72 145.592 266.975 145.642 267.162 145.493C267.431 145.334 267.736 145.13 267.959 144.935C268.38 144.674 268.041 143.973 267.609 144.153C262.377 145.906 257.268 147.974 252.248 150.402C251.781 150.628 252.095 151.456 252.562 151.23Z" fill="#9CCDEE"/>
<path d="M267.735 146.081C267.236 146.063 266.875 146.151 266.582 146.437C262.411 147.763 258.342 149.241 254.295 150.881C253.782 151.072 254.061 151.946 254.609 151.709C258.494 150.09 262.445 148.668 266.418 147.409C266.556 147.516 266.81 147.565 266.987 147.336C267.221 147.223 267.536 147.099 267.769 146.986C267.851 146.976 267.886 146.93 267.967 146.919C268.41 146.821 268.233 146.099 267.735 146.081Z" fill="#9CCDEE"/>
<path d="M267.051 147.824C266.736 147.947 266.41 147.989 266.095 148.113C266.014 148.123 265.979 148.169 265.943 148.215C262.703 149.379 259.494 150.787 256.479 152.418C255.977 152.69 256.443 153.416 256.945 153.144C260.31 151.343 263.799 149.858 267.365 148.652C267.877 148.461 267.609 147.669 267.051 147.824Z" fill="#9CCDEE"/>
<path d="M265.963 150.281C265.846 150.337 265.81 150.383 265.694 150.439C265.039 150.814 264.165 151.092 263.465 151.431C262.647 151.826 261.841 152.303 261.034 152.78C260.577 153.087 261.044 153.812 261.5 153.505C262.378 152.937 263.266 152.449 264.2 151.998C264.667 151.772 265.307 151.606 265.809 151.334C265.809 151.334 265.845 151.288 265.891 151.324C265.926 151.278 266.008 151.267 266.043 151.221C266.16 151.165 266.277 151.108 266.347 151.017C266.875 150.617 266.465 150.009 265.963 150.281Z" fill="#9CCDEE"/>
<path d="M171.876 141.33C175.379 139.636 178.927 137.977 182.394 136.329C182.897 136.057 182.629 135.264 182.08 135.501C178.578 137.195 175.029 138.854 171.562 140.502C171.141 140.763 171.373 141.602 171.876 141.33Z" fill="#9CCDEE"/>
<path d="M182.103 138.227C180.763 137.781 178.643 139.296 177.429 139.825C174.84 140.905 172.25 141.984 169.625 143.11C169.112 143.301 169.391 144.174 169.939 143.938C172.016 143.049 174.092 142.159 176.134 141.316C177.195 140.889 178.21 140.427 179.272 140C179.785 139.81 180.333 139.573 180.8 139.347C181.09 139.351 181.288 139.284 181.43 139.1C181.476 139.136 181.522 139.171 181.603 139.161C181.649 139.196 181.685 139.15 181.73 139.185C181.985 139.235 182.173 139.087 182.222 138.832C182.258 138.786 182.247 138.705 182.283 138.659C182.435 138.557 182.276 138.288 182.103 138.227Z" fill="#9CCDEE"/>
<path d="M180.042 140.521C176.766 141.731 173.547 143.057 170.384 144.501C169.917 144.727 170.15 145.565 170.698 145.329C173.394 144.111 176.182 142.964 178.98 141.899C179.093 142.132 179.485 142.288 179.744 142.048C180.038 141.762 180.331 141.476 180.625 141.19C180.838 140.914 180.439 140.387 180.042 140.521Z" fill="#9CCDEE"/>
<path d="M180.221 141.904C176.906 143.449 173.616 144.868 170.188 146.18C169.675 146.371 169.908 147.209 170.502 147.008C173.417 145.886 176.322 144.683 179.17 143.363C179.283 143.597 179.675 143.753 179.887 143.477C180.181 143.191 180.429 142.869 180.687 142.629C181.017 142.297 180.653 141.724 180.221 141.904Z" fill="#9CCDEE"/>
<path d="M179.508 144.064C176.487 145.323 173.43 146.629 170.409 147.889C169.896 148.079 170.175 148.953 170.723 148.716C173.196 147.693 175.658 146.589 178.131 145.565C178.269 145.672 178.432 145.651 178.584 145.548C179.005 145.287 179.472 145.061 179.893 144.8C180.325 144.62 179.986 143.919 179.508 144.064Z" fill="#9CCDEE"/>
<path d="M177.256 147.747C177.358 147.899 177.531 147.959 177.73 147.892C178.278 147.656 178.618 147.405 179.018 146.981C179.312 146.695 178.948 146.121 178.552 146.255C175.647 147.459 172.753 148.743 169.859 150.028C169.392 150.254 169.625 151.092 170.173 150.856C172.473 149.772 174.864 148.759 177.256 147.747Z" fill="#9CCDEE"/>
<path d="M179.038 148.095C176.006 149.273 172.949 150.579 169.984 151.955C169.517 152.181 169.75 153.019 170.298 152.783C172.563 151.745 174.792 150.754 177.112 149.833C177.155 150.158 177.43 150.371 177.735 150.166C178.297 149.721 178.906 149.311 179.433 148.912C179.808 148.615 179.515 147.95 179.038 148.095Z" fill="#9CCDEE"/>
<path d="M177.808 150.735C174.96 152.055 172.204 153.446 169.469 155C168.966 155.271 169.432 155.997 169.935 155.725C172.132 154.489 174.421 153.324 176.721 152.241C176.834 152.474 177.181 152.595 177.439 152.355C177.733 152.069 177.981 151.747 178.274 151.461C178.522 151.139 178.194 150.52 177.808 150.735Z" fill="#9CCDEE"/>
<path d="M168.57 158.921C170.711 157.568 172.898 156.251 175.095 155.016C175.102 155.387 175.668 155.603 175.905 155.2C176.142 154.797 176.426 154.43 176.698 153.981C176.936 153.578 176.395 153.234 176.091 153.439C173.391 154.947 170.702 156.536 168.104 158.195C167.648 158.503 168.114 159.228 168.57 158.921Z" fill="#9CCDEE"/>
<path d="M176.548 155.696C173.265 157.486 169.992 159.357 166.8 161.218C166.298 161.49 166.81 162.25 167.266 161.943C169.686 160.513 172.153 159.119 174.665 157.759C174.767 157.912 174.986 158.007 175.209 157.813C175.808 157.322 176.452 156.866 177.014 156.421C177.506 156.068 177.051 155.424 176.548 155.696Z" fill="#9CCDEE"/>
<path d="M174.736 161.183C175.366 160.936 175.578 160.66 175.784 160.013C175.869 159.713 175.537 159.383 175.222 159.507C172.048 160.869 168.942 162.429 165.881 164.025C165.379 164.297 165.845 165.022 166.348 164.75C168.941 163.381 171.591 162.128 174.206 160.921C174.319 161.154 174.502 161.296 174.736 161.183Z" fill="#9CCDEE"/>
<path d="M175.325 162.223C172.177 163.458 169.106 164.972 166.183 166.674C165.681 166.946 166.193 167.707 166.649 167.399C168.953 166.026 171.323 164.85 173.75 163.792C173.828 164.071 174.231 164.309 174.525 164.022C174.971 163.634 175.381 163.291 175.827 162.903C176.121 162.616 175.676 162.054 175.325 162.223Z" fill="#9CCDEE"/>
<path d="M165.628 170.054C167.9 168.437 170.366 167.042 172.91 165.927C173.013 166.079 173.232 166.175 173.455 165.981C173.794 165.73 174.053 165.49 174.393 165.239C174.768 164.942 174.475 164.277 174.043 164.457C170.859 165.738 167.926 167.358 165.162 169.329C164.706 169.636 165.172 170.362 165.628 170.054Z" fill="#9CCDEE"/>
<path d="M173.732 167.806C174.143 167.463 174.32 167.233 174.455 166.678C174.54 166.378 174.208 166.049 173.893 166.172C170.659 167.707 167.492 169.441 164.418 171.245C163.915 171.517 164.427 172.278 164.884 171.97C167.573 170.382 170.319 168.909 173.075 167.519C173.152 167.798 173.474 168.046 173.732 167.806Z" fill="#9CCDEE"/>
<path d="M172.598 170.227C173.055 169.92 173.338 169.552 173.519 169.033C173.675 168.64 173.297 168.276 172.911 168.491C170.587 169.702 168.308 170.948 166.086 172.311C165.629 172.618 166.095 173.344 166.552 173.037C168.353 171.935 170.165 170.914 171.987 169.975C172.018 170.22 172.34 170.467 172.598 170.227Z" fill="#9CCDEE"/>
<path d="M172.969 171.172C171.444 171.535 170.033 172.131 168.745 173.042C168.288 173.349 168.754 174.075 169.211 173.768C170.463 172.902 171.794 172.316 173.283 172C173.806 171.89 173.528 171.017 172.969 171.172Z" fill="#9CCDEE"/>
</svg>
