<svg width="21" height="22" viewBox="0 0 21 22" fill="none" xmlns="http://www.w3.org/2000/svg">
<path d="M20.4721 15.4926V18.5013C20.4732 18.7806 20.416 19.0571 20.3041 19.313C20.1922 19.5689 20.0281 19.7987 19.8223 19.9875C19.6165 20.1763 19.3735 20.3201 19.1089 20.4095C18.8443 20.499 18.564 20.5323 18.2858 20.5071C15.1997 20.1718 12.2353 19.1172 9.63079 17.4282C7.20761 15.8884 5.15319 13.834 3.6134 11.4108C1.91848 8.79448 0.863701 5.81566 0.534507 2.71571C0.509446 2.43838 0.542405 2.15886 0.631287 1.89496C0.72017 1.63107 0.863027 1.38857 1.05076 1.1829C1.2385 0.977241 1.46701 0.812923 1.72173 0.70041C1.97645 0.587898 2.25181 0.529656 2.53027 0.529394H5.53897C6.02568 0.524604 6.49753 0.696957 6.86656 1.01433C7.2356 1.3317 7.47664 1.77243 7.54476 2.25438C7.67175 3.21723 7.90726 4.16262 8.24679 5.07252C8.38172 5.43148 8.41093 5.8216 8.33094 6.19665C8.25095 6.5717 8.06513 6.91596 7.79549 7.18863L6.52181 8.46231C7.94949 10.9731 10.0284 13.052 12.5392 14.4797L13.8129 13.206C14.0855 12.9364 14.4298 12.7506 14.8049 12.6706C15.1799 12.5906 15.57 12.6198 15.929 12.7547C16.8389 13.0942 17.7843 13.3298 18.7471 13.4567C19.2343 13.5255 19.6792 13.7709 19.9973 14.1462C20.3153 14.5216 20.4843 15.0008 20.4721 15.4926Z" stroke="#04237E" stroke-linecap="round" stroke-linejoin="round"/>
</svg>
