<svg width="14" height="14" viewBox="0 0 14 14" fill="none" xmlns="http://www.w3.org/2000/svg">
<path d="M13.1595 10.2376V12.1232C13.1602 12.2982 13.1243 12.4715 13.0542 12.6319C12.9841 12.7923 12.8812 12.9362 12.7522 13.0546C12.6232 13.1729 12.471 13.263 12.3051 13.3191C12.1393 13.3752 11.9636 13.396 11.7893 13.3802C9.85518 13.1701 7.99734 12.5092 6.36505 11.4507C4.84641 10.4857 3.55887 9.19812 2.59387 7.67948C1.53164 6.03977 0.870592 4.1729 0.664281 2.23012C0.648575 2.05631 0.669231 1.88114 0.724935 1.71575C0.780639 1.55036 0.870169 1.39838 0.987827 1.26949C1.10549 1.1406 1.24869 1.03762 1.40833 0.967102C1.56797 0.896589 1.74054 0.860089 1.91506 0.859924H3.80065C4.10568 0.856922 4.40139 0.964938 4.63267 1.16384C4.86395 1.36274 5.01502 1.63895 5.05771 1.941C5.13729 2.54443 5.28489 3.13692 5.49768 3.70717C5.58224 3.93213 5.60055 4.17663 5.55042 4.41167C5.50029 4.64672 5.38383 4.86248 5.21484 5.03337L4.41661 5.8316C5.31136 7.40515 6.61424 8.70803 8.18779 9.60278L8.98602 8.80455C9.15691 8.63556 9.37267 8.5191 9.60771 8.46897C9.84276 8.41884 10.0873 8.43714 10.3122 8.52171C10.8825 8.7345 11.475 8.88209 12.0784 8.96168C12.3837 9.00475 12.6625 9.15854 12.8619 9.39379C13.0612 9.62904 13.1671 9.92935 13.1595 10.2376Z" stroke="#04237E" stroke-linecap="round" stroke-linejoin="round"/>
</svg>
