<svg width="307" height="308" viewBox="0 0 307 308" fill="none" xmlns="http://www.w3.org/2000/svg">
<circle cx="169.372" cy="260.796" r="10.5084" fill="#9CCDEE"/>
<circle cx="225.134" cy="67.5956" r="5.50233" fill="#9CCDEE"/>
<circle cx="74.3805" cy="62.0933" r="19.893" fill="#9CCDEE"/>
<path d="M35.4528 141.714C37.9541 132.384 41.8478 123.666 47.6267 116.178C54.8349 106.956 63.7312 99.7229 74.5374 95.513C85.6885 91.2318 97.9117 89.427 107.855 82.8772C117.663 76.5353 118.021 67.2889 124.391 57.5202C135.352 33.608 170.376 19.9666 194.465 50.7832C198.408 55.7243 197.755 63.5929 201.562 68.7419C208.474 78.2856 220.673 79.7233 230.629 84.1422C241.977 89.1727 252.254 96.7627 259.314 106.995C268.42 120.043 270.219 135.139 266.621 150.27C262.099 168.65 247.608 181.714 243.222 199.886C239.094 216.746 238.157 234.205 221.412 244.318C211.53 250.316 198.679 251.71 187.761 247.85C179.001 244.803 172.593 236.774 163.636 234.487C155.577 232.194 148.012 235.555 140.434 238.019C108.052 248.303 74.9931 244.519 51.853 217.283C34.8367 197.596 28.8853 167.35 35.4528 141.714Z" fill="#9CCDEE"/>
</svg>
