<svg width="240" height="1388" viewBox="0 0 240 1388" fill="none" xmlns="http://www.w3.org/2000/svg">
<path d="M160.026 370.32C159.839 368.638 157.596 368.638 157.409 370.32C155.166 389.2 155.539 409.574 155.913 428.454C155.913 429.762 157.783 429.575 157.783 428.454C159.278 409.574 161.147 389.2 160.026 370.32Z" fill="#9CCDEE"/>
<path d="M198.906 468.829C198.158 465.651 196.849 460.044 192.55 459.857C187.69 459.67 187.316 466.96 186.943 470.137C185.634 478.923 185.821 487.708 187.69 496.494C187.877 497.802 190.12 497.428 189.933 496.12C189.373 491.447 188.999 486.587 188.999 481.727C188.999 479.484 189.186 477.427 189.373 475.184C189.373 475.371 190.307 465.838 191.055 465.277C192.363 465.838 193.859 466.399 195.167 466.96C195.541 468.268 195.728 469.577 195.915 470.885C196.476 473.689 196.849 476.68 197.223 479.484C197.784 484.717 197.971 489.951 198.158 495.185C198.158 497.241 201.523 497.428 201.523 495.185C201.709 486.4 200.775 477.427 198.906 468.829Z" fill="#9CCDEE"/>
<path d="M229.561 1129.04C227.692 1044.74 225.823 960.624 224.14 876.322C223.206 830.152 223.953 783.795 221.897 737.812C225.075 736.503 227.879 734.447 229.561 731.082C232.178 726.035 231.43 720.428 227.131 716.876C228.626 715.941 229.748 714.633 230.496 712.577C231.991 708.651 231.056 703.418 231.056 699.492C231.056 693.324 231.056 686.968 230.869 680.8C230.869 667.715 230.683 654.631 230.683 641.546C230.496 612.947 230.309 584.348 230.122 555.748C229.935 541.355 230.122 527.149 229.748 512.756C229.748 507.522 229.748 501.167 225.075 498.363C224.701 497.802 224.327 497.428 223.393 497.428C218.719 497.241 213.859 497.054 209.186 497.054C209.56 496.867 209.747 496.494 209.934 495.933C210.869 485.652 211.429 475.371 212.177 465.277C212.364 461.539 213.299 456.866 211.056 453.875C211.243 453.314 211.056 452.567 210.495 452.38C211.616 445.464 212.738 437.987 211.99 431.257C211.803 429.201 209.56 429.014 208.626 430.51C208.626 430.51 208.626 430.51 208.626 430.323C208.252 411.07 207.878 391.256 205.448 372.003C205.261 369.947 202.083 369.76 202.083 372.003C202.083 390.508 204.139 409.574 206.009 427.893C195.915 418.547 186.943 408.453 179.466 397.05C179.466 396.49 179.466 395.929 179.279 395.368C179.092 394.62 178.344 394.06 177.596 394.247C175.914 391.63 174.419 388.826 172.923 386.022C163.577 367.89 160.399 349.572 158.343 329.571C158.156 328.637 157.596 328.076 156.848 327.889C157.222 326.767 157.409 325.459 157.409 323.59C157.783 316.113 156.848 308.075 156.848 300.411C156.848 286.018 157.596 271.438 158.343 257.045C158.53 257.045 158.717 257.045 158.904 257.045C160.96 257.045 161.334 254.802 160.213 253.68C160.213 251.437 160.213 249.381 160.399 247.138C160.586 244.521 161.334 241.904 161.334 239.1C161.334 237.605 159.652 237.044 158.717 237.605C158.343 237.231 157.969 236.857 157.222 236.857C152.549 236.857 147.689 236.857 143.016 236.857C143.763 232.184 144.511 227.137 144.511 222.09C145.819 224.894 147.315 227.511 148.81 230.315L144.885 230.502C143.576 230.502 143.576 232.371 144.885 232.558C146.193 232.558 147.502 232.558 148.997 232.745C149.371 232.745 149.745 232.745 150.119 232.745C150.679 233.68 151.053 234.614 151.614 235.362C152.175 236.483 153.483 236.483 154.231 235.923C154.979 235.923 155.913 235.549 155.913 234.427C155.913 225.642 156.1 216.67 155.726 207.697C156.287 207.697 157.035 207.884 157.596 208.071C158.904 208.632 160.026 207.323 159.839 206.015C159.652 204.893 158.156 203.959 157.222 204.706C156.848 204.893 156.287 205.08 155.726 205.08C155.726 204.893 155.726 204.893 155.539 204.706C155.166 197.416 154.418 190.313 153.109 183.397C152.362 182.089 149.745 182.649 149.745 184.332C149.745 190.874 149.932 197.603 150.493 204.146C148.249 204.146 145.819 204.706 144.137 205.828C143.389 206.202 143.763 207.323 144.511 207.51C146.006 207.51 147.689 207.323 149.184 207.323C149.745 207.323 150.119 207.323 150.679 207.323C151.24 214.8 151.801 222.464 152.175 229.941C123.576 177.229 120.211 115.544 99.6494 59.8409C99.2755 59.0932 98.5278 58.7194 97.7802 58.7194C98.9017 49.3732 99.8363 39.4663 99.8363 29.5594C102.64 30.6809 104.136 33.4848 106.379 35.7278C107.313 36.6625 108.996 35.9148 108.996 34.6063C108.996 29.9332 104.322 26.7555 99.8363 25.634C99.8363 21.7086 99.4625 17.7832 99.0886 14.0447C100.584 13.2971 101.706 11.9886 102.453 10.4932C104.136 6.75474 102.453 2.26858 98.5278 1.14705C95.3501 0.212429 89.7424 1.89474 89.5555 5.82013C89.5555 6.19397 89.7424 6.3809 89.9294 6.75474C89.5555 9.18474 90.6771 11.9886 92.7332 13.484C93.6678 14.0447 94.6025 14.4186 95.5371 14.6055C95.1632 18.1571 94.9763 21.8955 94.7894 25.4471C89.3686 26.5686 85.6301 31.0548 84.8824 36.4755C84.6955 37.9709 87.1255 38.3448 87.4994 36.8494C88.434 33.2978 91.0509 29.9332 94.6025 28.9986C94.4155 39.2794 94.7894 49.7471 94.7894 60.0279C94.7894 60.9625 95.3501 61.3363 96.0978 61.3363C94.6025 120.965 82.4524 179.098 62.4517 234.801C62.6386 225.642 62.6386 216.109 62.0778 206.763C63.0124 206.763 64.134 206.576 65.0686 206.389C66.1901 206.015 66.7509 204.146 65.4424 203.398C64.3209 202.837 63.0124 202.65 61.704 202.65C60.9563 194.613 59.8347 186.762 57.9655 179.472C57.5917 177.976 55.5355 178.35 55.3486 179.846C55.1617 187.509 56.2832 195.36 57.0309 203.024C56.844 203.024 56.4701 203.024 56.2832 203.024C53.2924 203.398 50.3016 203.585 47.6847 205.08C46.7501 205.641 47.3109 206.763 48.2455 206.95C51.0493 207.323 54.0401 206.576 56.844 206.576C57.0309 206.576 57.2178 206.576 57.4047 206.576C57.5917 208.071 57.7786 209.566 57.7786 211.062C58.5263 221.156 58.9001 231.436 59.4609 241.53C55.9093 241.904 52.5447 242.278 49.1801 242.839C48.2455 243.026 48.0586 243.96 48.4324 244.708C47.4978 244.334 46.0024 244.895 45.8155 246.203C45.4416 249.381 45.8155 252.933 47.124 255.923C47.6847 257.606 50.1147 256.858 49.7409 255.176C49.7409 254.989 49.7409 254.989 49.7409 254.802C50.6755 254.802 51.797 254.802 52.7317 254.802C53.2924 265.643 54.0401 276.298 54.9747 287.14C54.7878 287.14 54.414 287.14 54.227 287.14C52.9186 287.327 52.9186 289.196 54.227 289.196C54.6009 289.196 54.7878 289.196 55.1617 289.196C56.2832 303.028 57.5917 316.673 59.087 330.319C59.087 330.693 59.274 331.067 59.4609 331.253C56.657 365.087 37.5909 394.62 20.9547 423.594C21.8893 416.117 21.1416 408.079 20.9547 400.602C20.7678 390.321 20.7678 380.04 20.3939 369.76C20.3939 367.33 16.4685 367.33 16.4685 369.76C16.6555 380.04 17.0293 390.321 17.4032 400.602C17.5901 409.2 17.0293 418.36 19.0855 426.771C18.5247 427.893 17.777 429.014 17.2162 430.136C16.2816 429.762 15.1601 430.323 15.1601 431.631C14.9732 437.613 14.7862 443.594 14.0385 449.576C13.8516 450.697 15.1601 450.884 15.9078 450.324C14.7862 465.838 14.7862 481.54 15.7209 497.054C14.5993 497.241 13.6647 497.615 12.7301 497.989C12.5432 497.989 12.3562 497.989 12.1693 498.176C11.9824 498.176 11.7955 498.363 11.6085 498.55C-2.03685 505.653 0.580071 527.149 0.766994 540.234C1.32776 565.094 1.88853 589.768 2.4493 614.629C3.01007 640.611 3.75777 666.781 4.50546 692.763C4.69238 699.118 2.63623 709.586 7.30931 714.633C7.68315 715.194 8.24392 715.568 8.80469 715.941C6.56161 717.063 5.06623 719.68 5.25315 722.671C5.44007 726.97 8.24392 729.774 11.7955 731.456C12.3562 834.264 15.1601 937.072 15.347 1039.88C14.5993 1040.44 14.5993 1041.56 15.347 1042.12C15.347 1098.95 14.5993 1155.96 11.9824 1212.78C11.9824 1212.97 11.9824 1213.34 11.9824 1213.53C11.6085 1221.57 11.2347 1229.61 10.8608 1237.64C8.057 1286.24 5.81392 1334.1 7.68315 1381.95C7.68315 1383.07 8.43085 1383.63 9.17854 1384.01C8.99162 1384.57 9.36546 1385.5 10.3001 1385.5C47.4978 1388.68 85.4432 1387.18 122.641 1386.44C160.026 1385.5 197.41 1384.01 234.795 1381.2C235.543 1381.2 236.103 1380.64 236.477 1380.08C237.786 1380.27 239.094 1379.71 239.094 1378.02C232.926 1295.22 231.43 1212.04 229.561 1129.04ZM222.458 986.793C222.832 1002.31 223.019 1017.82 223.393 1033.52C223.206 1032.78 222.458 1032.03 221.523 1032.03C213.673 1031.84 205.635 1032.4 197.597 1033.15C197.597 989.036 197.784 944.736 198.158 900.622C205.261 899.874 212.364 898.939 219.093 897.07C221.149 896.509 220.776 893.332 218.533 893.332C211.803 893.332 204.887 893.892 198.158 894.64C198.158 894.453 198.158 894.266 198.158 894.079C198.158 886.229 198.345 878.191 198.345 870.34C205.448 869.405 212.738 868.284 219.841 867.162C220.589 906.977 221.523 946.792 222.458 986.793ZM19.6462 1040.25C19.2724 994.831 18.3378 949.222 17.777 903.799C23.1978 904.173 28.6186 904.547 34.0393 904.921C34.2262 931.838 34.787 958.755 35.3478 985.485C35.7216 1003.62 36.0955 1021.75 36.2824 1039.88C30.6747 1040.07 25.067 1040.25 19.6462 1040.25ZM36.0955 1043.99C36.2824 1053.15 36.4693 1062.12 36.6563 1071.28C31.0486 1071.66 25.4409 1072.03 19.6462 1072.4C19.6462 1062.68 19.6462 1053.15 19.4593 1043.43C25.067 1043.62 30.6747 1043.8 36.0955 1043.99ZM19.4593 1128.11C19.6462 1110.54 19.8332 1092.78 19.8332 1075.21C25.4409 1075.39 31.2355 1075.39 36.8432 1075.39C37.5909 1120.44 38.5255 1165.49 39.4601 1210.54C31.7962 1210.91 23.9455 1211.66 16.2816 1212.41C17.5901 1184.18 18.8985 1156.15 19.4593 1128.11ZM37.7778 905.108C47.8716 905.669 57.9655 906.042 68.2463 906.229C68.994 935.95 69.9286 965.671 70.6763 995.392C71.0501 1010.16 71.424 1024.74 71.7978 1039.51C61.1432 1039.69 50.4886 1039.88 39.834 1040.07C38.5255 995.018 37.7778 949.969 37.7778 905.108ZM66.564 878.939C66.9378 878.939 67.1247 878.939 67.4986 878.939C67.6855 886.602 67.8724 894.266 68.0594 901.743C57.9655 901.743 47.8716 901.556 37.7778 901.182C37.7778 894.079 37.7778 886.976 37.7778 879.873C47.4978 879.873 57.5917 879.125 66.564 878.939ZM37.9647 874.639C38.5255 830.712 41.8901 786.785 54.6009 744.541C54.9747 744.541 55.1617 744.541 55.5355 744.167C56.0963 743.606 56.844 743.045 57.5917 742.858H57.7786C59.8347 743.045 60.7693 745.288 61.1432 746.971C61.704 749.775 60.9563 752.952 62.2647 755.382C62.4517 763.42 63.1994 771.271 64.134 779.308C64.134 779.682 64.3209 780.056 64.5078 780.243C64.8817 810.898 66.377 841.367 67.1247 871.835C67.1247 872.583 67.1247 873.518 67.1247 874.266C66.9378 874.266 66.564 874.266 66.3771 874.266C57.7786 874.452 49.1801 874.452 40.5816 874.452C39.8339 874.639 38.8993 874.639 37.9647 874.639ZM109.182 905.855C109.182 936.885 109.369 968.101 109.369 999.13C109.369 1012.21 109.369 1025.3 109.556 1038.57C103.014 1038.76 96.2848 1038.94 89.7425 1039.13C88.8078 994.831 88.2471 950.53 87.8732 906.229C94.9763 906.229 102.079 906.042 109.182 905.855ZM87.6863 901.743C87.6863 897.444 87.4994 893.145 87.4994 888.845C87.4994 885.294 87.4994 881.929 87.4994 878.378C94.6025 878.191 101.892 877.817 108.996 877.443C108.996 885.481 108.996 893.332 108.996 901.369C102.079 901.556 94.9763 901.743 87.6863 901.743ZM109.556 1043.06C109.556 1051.66 109.743 1060.25 109.743 1068.85C103.388 1069.04 96.8455 1069.23 90.3032 1069.41C90.1163 1060.81 89.9294 1052.4 89.7425 1043.8C96.4717 1043.43 103.014 1043.24 109.556 1043.06ZM109.743 1073.15C110.117 1118.01 110.678 1162.87 111.612 1207.55C105.631 1207.74 99.8363 1207.92 93.8548 1208.11C92.5463 1163.25 91.4248 1118.57 90.4901 1073.71C96.8455 1073.71 103.388 1073.34 109.743 1073.15ZM109.182 872.957C101.892 873.331 94.7894 873.705 87.4994 873.892C87.3124 833.329 87.1255 792.767 86.7517 752.205L86.9386 752.018C90.1163 746.036 97.7801 736.69 103.201 746.41C106.192 751.831 106.566 757.999 108.435 763.794C108.809 769.028 108.996 774.635 110.304 779.869C109.369 810.712 109.182 841.741 109.182 872.957ZM89.7425 1208.48C86.3778 1208.67 82.8263 1208.67 79.4617 1208.86C78.9009 1164 77.9663 1119.32 76.6578 1074.46C79.8355 1074.27 83.0132 1074.27 86.1909 1074.09C87.3124 1118.95 88.434 1163.62 89.7425 1208.48ZM76.4709 1069.6C76.284 1061 75.9101 1052.4 75.7232 1043.99C78.9009 1043.99 82.2655 1043.8 85.4432 1043.8C85.6301 1052.4 85.8171 1060.81 86.004 1069.41C83.0132 1069.41 79.8355 1069.41 76.4709 1069.6ZM75.7232 1039.32C74.4147 994.831 73.1063 950.53 71.7978 906.229C75.7232 906.229 79.6486 906.229 83.574 906.229C83.9478 950.53 84.5086 994.831 85.4432 1039.13C82.2655 1039.32 78.9009 1039.32 75.7232 1039.32ZM74.7886 1208.86C64.134 1209.23 53.2924 1209.61 42.6378 1210.17C42.264 1183.81 41.8901 1157.45 41.3293 1131.1C40.9555 1112.41 40.5816 1093.71 40.2078 1075.02C50.8624 1075.02 61.517 1074.65 72.3586 1074.27C73.4801 1119.32 74.2278 1164.18 74.7886 1208.86ZM71.6109 901.743C71.424 896.696 71.2371 891.836 71.2371 886.789C71.2371 884.172 71.0501 881.369 71.0501 878.752C75.1624 878.752 79.2747 878.565 83.3871 878.378C83.3871 886.229 83.574 893.892 83.574 901.743C79.6486 901.743 75.5363 901.743 71.6109 901.743ZM71.6109 1043.99C71.7978 1052.59 71.9847 1061.19 72.1717 1069.79C61.517 1070.16 50.8624 1070.53 40.0209 1071.1C39.8339 1062.12 39.647 1053.15 39.4601 1044.18C50.3016 1044.18 60.9563 1044.18 71.6109 1043.99ZM42.8247 1215.4C53.4793 1215.03 64.134 1214.65 74.9755 1214.09C75.1624 1223.81 75.1624 1233.34 75.3494 1243.06C75.3494 1243.25 75.3494 1243.25 75.3494 1243.44C64.6947 1243.81 54.0401 1244.37 43.3855 1244.93C43.0116 1235.03 43.0116 1225.31 42.8247 1215.4ZM79.4617 1213.9C83.0132 1213.72 86.3778 1213.53 89.9294 1213.34C90.3032 1223.25 90.4901 1232.97 90.864 1242.88C87.1255 1243.06 83.574 1243.06 79.8355 1243.25C79.8355 1233.34 79.6486 1223.62 79.4617 1213.9ZM94.0417 1213.16C100.023 1212.78 105.818 1212.6 111.799 1212.22C111.986 1222.13 112.173 1232.22 112.547 1242.13C106.752 1242.32 100.771 1242.5 94.9763 1242.69C94.6025 1232.78 94.2286 1223.06 94.0417 1213.16ZM146.754 815.758C147.128 833.89 147.502 852.022 147.876 870.153C141.333 870.714 134.978 871.275 128.436 871.649C127.501 839.311 126.94 806.973 124.51 774.822C124.51 774.635 124.697 774.635 124.697 774.448C125.632 769.589 126.192 764.168 128.622 759.868C131.613 754.635 136.286 753.513 141.707 754.635C148.436 759.121 146.006 778 146.006 783.982C146.38 794.636 146.567 805.104 146.754 815.758ZM120.585 1042.68C123.762 1042.5 127.127 1042.31 130.305 1042.31C130.492 1050.91 130.866 1059.51 131.052 1068.29L119.089 1068.67C117.407 1068.67 115.725 1068.85 113.856 1068.85C113.856 1060.25 113.669 1051.66 113.669 1043.06C116.099 1042.68 118.342 1042.68 120.585 1042.68ZM113.669 1038.38C113.295 994.27 113.108 949.969 113.108 905.855C115.351 905.855 117.407 905.669 119.65 905.669C121.706 905.669 123.762 905.482 125.819 905.482C126.94 940.062 128.062 974.83 129.183 1009.41C129.557 1018.94 129.744 1028.29 130.118 1037.82C126.379 1038.01 122.454 1038.2 118.716 1038.38C117.033 1038.2 115.351 1038.38 113.669 1038.38ZM121.146 1072.78C124.51 1072.59 127.875 1072.59 131.426 1072.4C132.922 1117.08 134.23 1161.75 135.539 1206.61C129.557 1206.8 123.576 1207.18 117.407 1207.36C117.033 1207.36 116.846 1207.36 116.472 1207.36C115.538 1162.5 114.79 1117.83 114.229 1072.96C116.472 1072.96 118.716 1072.96 121.146 1072.78ZM134.604 1072.4L150.866 1071.84C151.24 1116.52 151.614 1161.19 151.614 1205.87C147.128 1206.05 142.829 1206.24 138.342 1206.43C137.782 1185.49 137.034 1164.56 136.473 1143.62C135.912 1119.88 135.352 1096.14 134.604 1072.4ZM134.604 1067.92C134.417 1059.32 134.23 1050.53 133.856 1041.94C139.464 1041.75 145.072 1041.37 150.493 1041.19C150.679 1049.97 150.679 1058.57 150.679 1067.36C145.446 1067.54 140.025 1067.73 134.604 1067.92ZM133.669 1037.45C132.361 993.896 131.052 950.156 129.557 906.603C129.557 906.042 129.557 905.669 129.557 905.108C135.912 904.734 142.268 904.547 148.623 903.986C149.184 935.202 149.745 966.419 150.119 997.635C150.306 1010.53 150.493 1023.43 150.493 1036.33C144.885 1036.89 139.277 1037.26 133.669 1037.45ZM129.37 900.622C129.183 892.584 128.809 884.546 128.622 876.322C135.165 875.948 141.52 875.574 148.062 875.013C148.062 875.2 148.062 875.574 148.062 875.761C148.249 883.612 148.249 891.462 148.436 899.313C142.081 899.874 135.726 900.248 129.37 900.622ZM125.445 891.649C125.632 894.64 125.632 897.631 125.819 900.622C123.202 900.809 120.585 900.809 117.968 900.995C116.472 900.995 114.79 900.995 113.295 901.182C113.295 898.379 113.295 895.575 113.295 892.771C113.295 887.537 113.295 882.49 113.295 877.256C115.538 877.069 117.781 877.069 119.837 876.882C121.519 876.695 123.202 876.695 124.884 876.509C125.071 881.555 125.258 886.602 125.445 891.649ZM116.472 1212.04C117.407 1212.04 118.342 1212.04 119.276 1211.85C124.697 1211.66 130.118 1211.47 135.539 1211.29C135.726 1221.38 136.099 1231.48 136.286 1241.57C130.305 1241.76 124.136 1241.94 118.155 1242.13C117.781 1242.13 117.407 1242.13 117.22 1242.13C117.033 1232.04 116.659 1222.13 116.472 1212.04ZM138.529 1211.1C142.829 1210.91 147.315 1210.73 151.614 1210.54C151.614 1220.82 151.614 1230.92 151.614 1241.2C147.502 1241.38 143.389 1241.38 139.277 1241.57C139.09 1231.29 138.903 1221.19 138.529 1211.1ZM173.297 1071.28C180.026 1071.1 186.943 1071.1 193.859 1071.1C193.859 1115.21 194.046 1159.51 194.419 1203.62C186.756 1204.18 179.092 1204.75 171.428 1205.12C171.054 1180.45 170.867 1155.96 170.68 1131.28C170.493 1111.28 170.306 1091.47 170.119 1071.47C171.054 1071.28 172.176 1071.28 173.297 1071.28ZM169.933 1066.8C169.933 1057.82 169.746 1049.04 169.746 1040.07C170.493 1040.07 171.241 1040.07 171.989 1039.88C179.092 1039.51 186.382 1039.13 193.672 1038.76C193.672 1047.73 193.672 1056.52 193.672 1065.49C185.821 1066.05 177.783 1066.42 169.933 1066.8ZM193.859 1002.31C193.859 1012.59 193.859 1023.06 193.859 1033.34C186.008 1034.08 178.157 1035.02 170.306 1035.39C170.119 1035.39 169.933 1035.39 169.933 1035.39C169.559 991.092 169.185 946.792 168.811 902.678C169.559 902.678 170.493 902.491 171.241 902.491C178.718 901.93 186.756 901.369 194.606 900.809C194.046 934.642 193.859 968.475 193.859 1002.31ZM168.624 898.005C168.624 892.584 168.624 886.976 168.437 881.555C168.437 878.939 168.437 876.135 168.437 873.518C177.223 872.77 186.008 871.836 194.606 870.714C194.606 874.079 194.419 877.443 194.419 880.808C194.419 885.481 194.419 890.154 194.233 894.827C185.821 895.949 177.223 897.257 168.624 898.005ZM168.437 868.284L167.876 810.712C167.689 799.496 167.689 788.281 167.503 777.065C167.316 767.345 166.755 752.952 177.97 748.84C178.344 748.653 178.718 748.466 178.905 748.092C183.204 748.092 187.316 751.27 189.559 754.822C191.803 758.373 192.55 762.672 194.419 766.411C196.289 799.309 195.354 832.208 194.793 865.106C186.008 866.415 177.223 867.349 168.437 868.284ZM167.503 1205.31C163.577 1205.49 159.839 1205.68 155.913 1205.87C155.726 1161.19 155.539 1116.52 154.979 1072.03C158.717 1071.84 162.456 1071.84 166.194 1071.66C166.568 1116.14 166.942 1160.63 167.503 1205.31ZM154.979 1067.36C154.792 1058.57 154.792 1049.79 154.605 1041C158.343 1040.81 162.082 1040.63 165.82 1040.44C165.82 1049.23 166.007 1058.2 166.007 1066.98C162.456 1066.98 158.717 1067.17 154.979 1067.36ZM154.605 1036.33C154.044 992.214 153.296 947.913 152.549 903.799C156.661 903.612 160.586 903.239 164.699 902.865C164.886 924.361 165.073 945.67 165.259 967.166C165.446 989.971 165.633 1012.78 165.82 1035.58C162.082 1035.95 158.343 1036.14 154.605 1036.33ZM152.362 899.313C152.175 891.089 151.988 883.051 151.988 874.826C156.1 874.452 160.213 874.265 164.325 873.892C164.325 882.116 164.512 890.154 164.512 898.379C160.586 898.565 156.474 898.939 152.362 899.313ZM155.913 1210.35C159.839 1210.17 163.577 1209.98 167.503 1209.98C167.503 1217.27 167.689 1224.56 167.689 1231.85C167.689 1234.84 167.689 1237.83 167.689 1240.82C163.764 1240.82 159.839 1241.01 155.913 1241.01C155.913 1230.91 155.913 1220.63 155.913 1210.35ZM171.428 1209.79C178.905 1209.42 186.569 1209.42 194.419 1209.42C194.419 1219.89 194.606 1230.35 194.793 1240.82C187.129 1240.82 179.466 1240.82 171.989 1240.82C171.615 1230.54 171.428 1220.07 171.428 1209.79ZM226.757 688.464C226.757 693.324 227.318 698.558 226.944 703.418C226.757 705.474 226.383 706.969 226.009 708.465C226.383 699.118 226.009 689.585 225.262 680.052C224.701 673.697 223.953 667.715 218.906 663.416C218.346 662.855 217.037 662.855 216.663 663.603C209.934 679.678 213.673 697.436 213.299 714.446C211.803 714.446 210.495 714.446 208.999 714.446C209.934 702.857 209.373 691.268 207.878 679.865C207.13 674.071 207.317 663.603 201.709 660.051C203.205 660.051 204.7 660.051 206.196 660.051C212.551 660.051 218.906 660.986 225.449 660.986C226.196 660.986 226.757 660.612 226.944 660.051C226.57 669.585 226.57 679.118 226.757 688.464ZM218.159 666.968C223.393 672.949 222.645 683.417 223.019 690.894C223.393 698.184 223.206 705.287 223.206 712.39C221.336 713.885 218.906 714.446 215.542 714.446C215.355 714.446 215.168 714.446 215.168 714.446C216.85 698.558 212.925 682.295 218.159 666.968ZM194.419 714.446C192.176 714.446 190.12 714.446 187.877 714.446C187.69 705.287 186.943 695.941 185.073 686.781C184.513 683.417 183.391 679.865 180.587 678.37C182.643 678.37 184.699 678.37 186.756 678.37C189.186 678.37 189.186 674.445 186.756 674.445C140.025 673.697 92.9201 672.762 46.0024 673.697C44.8809 672.015 43.5724 671.08 41.5163 670.893H41.3293C40.5816 645.284 39.647 619.489 38.7124 593.881C38.3386 580.796 37.7778 567.711 37.4039 554.627C37.0301 543.224 37.5909 530.888 35.7216 519.672C62.0778 519.672 88.434 518.924 114.79 518.177C140.772 517.429 167.876 518.737 193.859 515.934C190.868 541.916 191.803 568.646 190.868 594.815C190.307 615.19 189.559 635.565 188.999 655.939C188.064 656.313 187.69 657.808 188.999 658.369C188.812 664.351 188.625 670.145 188.438 676.127C188.438 678.557 192.176 678.557 192.176 676.127C192.363 670.519 192.55 664.911 192.737 659.304C194.606 659.678 196.476 659.865 198.532 659.865C193.485 665.285 192.55 672.015 192.55 679.305C192.924 691.268 193.859 702.857 194.419 714.446ZM177.596 699.492C177.596 696.315 176.849 684.912 180.213 684.725C183.017 684.538 182.456 686.408 182.83 688.838C183.391 692.389 183.952 695.754 184.326 699.305C184.886 704.352 185.073 709.399 185.26 714.446C182.643 714.446 180.213 714.446 177.596 714.446C177.97 709.586 177.409 704.539 177.596 699.492ZM176.101 714.633C169.559 714.633 163.203 714.633 156.661 714.633C156.661 710.147 156.474 705.848 156.661 701.362C156.661 699.492 157.222 680.239 162.643 683.043C164.325 683.791 164.699 697.81 164.886 699.118C165.446 703.792 165.633 708.465 166.568 713.138C166.755 714.259 168.437 713.885 168.437 712.951C168.624 704.539 167.129 696.128 165.82 687.903C165.446 685.099 165.446 679.865 162.456 678.37C167.129 678.37 171.989 678.37 176.662 678.37C176.475 678.557 176.475 678.744 176.475 679.118C174.979 690.333 173.297 703.418 176.101 714.633ZM154.979 714.633C152.549 714.633 150.119 714.633 147.876 714.633C147.876 706.221 146.941 697.623 145.072 689.398C144.511 686.781 143.95 681.174 141.52 678.37C147.315 678.37 153.109 678.37 158.904 678.37C156.1 679.491 155.726 683.978 155.353 686.408C154.418 695.941 154.418 705.287 154.979 714.633ZM127.875 714.82C119.837 714.82 111.986 714.82 103.949 714.82C103.762 709.96 103.388 705.1 103.575 700.053C103.762 697.062 103.949 693.885 104.322 690.894C104.509 689.959 105.257 683.417 106.005 682.856C108.622 683.23 111.052 683.604 113.669 684.165C113.856 685.473 114.229 686.595 114.416 687.903C114.79 690.333 115.164 692.763 115.725 695.193C116.659 700.988 117.407 706.782 118.902 712.39C119.276 713.698 121.332 713.511 121.332 712.016C120.585 702.67 119.089 692.389 116.659 683.417C116.099 681.548 115.351 679.678 114.042 678.183C121.146 678.183 128.249 678.37 135.539 678.37C133.109 680.613 131.8 685.099 131.052 687.529C127.688 696.315 126.753 705.661 127.875 714.82ZM102.266 714.82C99.4625 714.82 96.6586 714.82 93.8548 714.82C93.8548 705.474 92.7332 696.128 90.1163 686.968C89.5555 684.725 88.6209 680.426 86.7517 677.809C92.7332 677.996 98.9017 677.996 104.883 677.996C102.266 680.987 101.892 686.968 101.519 690.146C100.584 698.371 100.397 706.782 102.266 714.82ZM77.2186 715.007C75.1624 715.007 73.1063 715.007 70.8632 715.007C71.0501 706.035 69.9286 696.875 68.0594 688.09C67.1247 684.165 66.1901 680.239 63.5732 677.435C68.8071 677.622 74.0409 677.809 79.0878 677.809C77.9663 679.305 77.5924 681.548 77.2186 683.417C75.7232 693.511 76.284 704.726 77.2186 715.007ZM52.7317 715.007H48.6193C49.9278 705.848 50.3017 696.688 49.1801 687.529C48.9932 685.286 48.6193 680.613 47.3109 676.875C50.6755 677.061 54.0401 677.061 57.4047 677.248C53.4793 682.856 53.1055 690.52 52.7317 697.249C52.3578 701.361 50.3016 710.147 52.7317 715.007ZM55.1617 697.249C55.5355 693.885 55.9093 690.707 56.4701 687.342C57.0309 684.165 56.657 680.239 60.7694 680.426C68.2463 680.8 68.0594 708.838 68.2463 715.007C66.0032 715.007 63.5732 715.007 61.3301 715.007C59.087 715.007 56.844 715.007 54.7878 715.007C52.7317 710.147 54.7878 701.548 55.1617 697.249ZM78.9009 697.623C78.9009 695.193 79.0878 692.763 79.2747 690.52C79.4617 689.025 79.4617 687.716 79.6486 686.221C78.714 682.295 79.8355 680.987 83.0132 682.108C87.1255 682.482 86.5648 684.351 87.4994 687.716C88.2471 690.52 88.8078 693.324 89.3686 696.128C90.4901 702.296 90.864 708.465 90.864 714.82C86.7517 714.82 82.8263 714.82 78.714 714.82C78.714 709.212 78.714 703.418 78.9009 697.623ZM130.679 696.501C131.239 693.324 135.912 676.501 140.772 683.417C143.389 687.155 143.763 696.688 144.324 700.988C144.885 705.661 145.072 710.147 145.072 714.82C139.838 714.82 134.604 714.82 129.557 714.82C129.37 708.651 129.557 702.483 130.679 696.501ZM36.6563 695.38C36.6563 692.015 36.2824 670.893 45.2547 679.118C47.8716 681.548 47.124 692.202 47.3109 695.754C47.4978 702.296 46.937 708.651 46.0024 715.194C43.3855 715.194 40.9555 715.194 38.3386 715.194V715.007C37.4039 708.278 36.6563 701.922 36.6563 695.38ZM33.1047 531.822C33.1047 529.953 30.1139 529.953 30.3009 531.822C31.9832 573.132 31.4224 614.442 29.5532 655.752C27.497 655.939 25.4409 655.939 23.3847 656.126C22.637 656.126 22.0762 656.126 21.3286 656.126C24.5062 614.255 24.8801 572.011 24.6932 530.14C27.1232 530.14 29.5532 529.953 31.7962 529.953C32.5439 529.953 33.1047 529.392 33.2916 528.831C33.2916 537.617 34.0393 546.589 34.2263 555.001C34.6001 568.085 34.9739 581.17 35.5347 594.254C36.2824 614.816 36.8432 635.565 37.5909 656.126C35.5347 655.752 33.2916 655.752 31.0486 655.752C34.6001 614.629 35.1609 573.132 33.1047 531.822ZM20.0201 656.126C17.2162 656.126 14.5993 656.313 11.7955 656.313C13.2908 635.565 14.0385 614.629 14.5993 593.694C15.1601 572.758 16.4685 551.636 15.1601 530.701C15.1601 530.514 15.1601 530.327 14.9732 530.14C15.1601 530.14 15.347 530.14 15.347 530.14C17.4032 530.14 19.6462 530.14 21.7024 529.953C21.1416 572.198 19.6462 614.255 20.0201 656.126ZM199.84 655.752C200.027 656.874 201.709 657.061 201.709 655.752C200.214 615.003 199.653 574.254 201.336 533.691C201.336 533.318 201.149 532.944 200.962 532.757C205.448 533.131 210.308 533.318 214.794 533.131C214.794 533.318 214.607 533.504 214.607 533.691C212.925 553.879 214.42 574.628 214.794 594.815C215.355 615.19 215.542 635.565 217.224 655.939C217.224 656.313 217.411 656.5 217.598 656.687C209.373 656.313 200.962 657.621 192.924 656.687C193.485 636.125 194.046 615.751 194.793 595.189C195.354 574.441 197.036 553.318 197.036 532.383C197.597 532.383 198.158 532.383 198.719 532.57C198.345 532.757 198.158 533.131 198.158 533.691C196.476 574.254 196.476 615.19 199.84 655.752ZM197.41 667.715C197.784 664.725 199.466 664.351 202.457 666.407C203.018 668.65 203.392 671.08 203.766 673.51C204.7 678.744 205.261 683.791 205.822 689.025C206.569 697.436 206.383 706.035 206.009 714.446C202.644 714.446 199.466 714.446 196.102 714.446C196.102 706.969 195.915 699.492 195.728 692.202C195.728 686.595 193.298 672.201 197.41 667.715ZM225.449 657.621C223.393 657.061 221.523 656.874 219.467 656.687C219.654 656.5 219.841 656.313 219.841 655.939C219.841 635.565 218.719 615.19 218.346 594.815C217.972 574.628 219.093 553.879 217.411 533.691C217.411 533.504 217.411 533.318 217.224 533.131C220.215 532.944 223.019 532.57 225.636 531.822C225.636 543.037 225.823 554.066 225.823 565.281C226.009 585.282 226.196 605.096 226.196 625.097C226.196 636.125 226.383 647.341 226.383 658.369C226.383 657.995 226.009 657.621 225.449 657.621ZM207.691 475.184C207.317 482.101 206.943 489.204 206.756 496.12C206.756 496.681 206.943 497.054 207.317 497.241C197.41 497.054 187.503 497.241 177.596 497.428C177.596 497.241 177.596 497.241 177.596 497.054C177.596 487.708 176.849 478.362 175.727 469.016C175.353 465.091 174.979 460.604 170.493 459.857C169.746 459.67 168.998 460.044 168.624 460.791C164.699 472.754 163.39 485.091 165.446 497.615C163.577 497.615 161.708 497.615 159.839 497.802C161.147 485.278 158.156 471.633 154.418 459.857C154.044 458.922 153.109 458.361 152.175 458.922C148.249 461.352 147.128 464.904 146.567 469.39C145.446 478.549 146.006 487.895 146.941 497.054C146.941 497.615 147.315 497.802 147.689 497.989C145.632 497.989 143.763 497.989 141.707 498.176C143.202 488.83 142.268 478.923 140.399 469.577C139.838 466.212 139.09 455.557 133.482 455.37C128.249 455.184 127.875 463.408 127.127 466.773C125.258 477.054 124.51 487.521 125.071 497.989C125.071 498.176 125.071 498.176 125.258 498.363C123.389 498.363 121.519 498.363 119.463 498.363C119.837 489.391 119.276 480.605 117.968 471.633C117.033 465.651 116.472 459.483 110.865 456.118C110.117 455.744 108.809 456.118 108.622 457.053C106.192 470.511 105.444 484.157 106.566 497.802C106.566 497.989 106.566 498.176 106.752 498.176C104.696 498.176 102.453 498.176 100.397 498.176C101.892 488.269 101.892 478.362 100.771 468.455C100.21 462.847 99.4625 457.614 94.4155 454.062C93.4809 453.501 92.5463 454.062 92.3594 454.997C86.5648 468.642 84.5086 483.783 87.1255 498.363C84.5086 498.363 81.8917 498.363 79.0878 498.363C80.7701 488.269 79.8355 477.427 78.5271 467.334C78.1532 463.969 77.5924 457.24 72.5455 457.24C67.4986 457.24 67.6855 464.904 67.3117 468.268C66.0032 478.362 65.6294 488.269 66.0032 498.363C65.0686 498.363 64.3209 498.363 63.3863 498.363C61.704 498.363 60.2086 498.363 58.5263 498.176C58.9001 497.989 59.087 497.615 59.087 497.054C59.274 491.447 61.1432 448.08 49.367 452.006C45.0678 453.501 44.8809 462.1 44.3201 465.464C42.6378 476.119 43.0116 486.961 43.5724 497.615C40.9555 497.428 38.3386 497.428 35.7216 497.428C35.7216 488.456 35.9086 479.11 35.3478 470.137C34.9739 464.53 33.6655 459.857 29.3662 456.118C28.6186 455.37 27.497 455.557 26.9362 456.492C19.0855 467.334 21.8893 485.278 24.1324 497.615C21.8893 497.802 19.6462 497.802 17.5901 498.176C17.5901 482.101 18.1509 466.025 19.0855 450.137C50.4886 450.884 81.7048 450.697 113.108 451.445C144.324 452.38 175.914 455.744 207.317 455.744C209.747 461.539 208.065 469.203 207.691 475.184ZM174.793 497.428C172.549 497.428 170.119 497.428 167.876 497.615C167.503 492.381 167.129 487.334 167.503 482.101C167.689 477.988 168.063 469.016 170.493 465.464C172.923 462.1 172.923 469.764 173.297 471.82C173.671 474.624 173.858 477.427 174.045 480.231C174.419 485.839 174.606 491.447 174.793 497.054C174.793 497.241 174.793 497.428 174.793 497.428ZM152.362 463.034C155.726 474.624 156.287 486.026 156.848 497.989C154.231 497.989 151.614 498.176 148.997 498.176C149.371 497.989 149.558 497.615 149.558 497.241C149.184 489.577 146.38 469.764 152.362 463.034ZM139.464 498.176C135.539 498.176 131.8 498.363 127.875 498.363C127.875 498.176 127.875 498.176 127.875 497.989C128.062 492.194 127.688 461.913 133.669 461.539C140.212 461.165 139.09 492.381 139.277 497.989C139.277 498.176 139.277 498.176 139.464 498.176ZM116.659 498.55C116.472 498.55 116.099 498.55 115.912 498.55C113.482 498.55 111.239 498.55 108.809 498.55C108.809 498.363 108.996 498.363 108.996 498.176C108.809 485.465 109.743 473.128 111.612 460.604C116.099 465.464 115.912 476.306 116.286 481.727C116.846 487.147 116.846 492.755 116.659 498.55ZM97.9671 498.363C95.1632 498.363 92.3594 498.363 89.5555 498.363C88.9948 493.316 88.8078 488.082 89.1817 482.848C89.5555 477.614 90.3032 464.53 94.0417 460.23C98.154 455.557 98.9017 473.689 99.0886 476.68C99.2755 483.783 98.7148 490.886 98.154 497.989C97.9671 498.176 97.9671 498.363 97.9671 498.363ZM71.424 462.474L75.9101 464.53C76.284 466.96 76.6578 469.39 76.8447 471.82C77.0317 474.437 77.2186 476.867 77.4055 479.484C77.7794 485.652 77.2186 491.821 77.5924 497.989C77.5924 498.176 77.5924 498.176 77.5924 498.363C74.6017 498.363 71.424 498.363 68.4332 498.363C68.4332 493.316 68.6201 488.082 68.994 483.035C69.1809 480.418 69.3678 477.614 69.7417 474.997C69.5547 475.745 70.8632 462.847 71.424 462.474ZM57.0309 498.176C53.2924 497.989 49.554 497.802 45.8155 497.802C45.8155 491.634 45.8155 485.652 46.0024 479.484C46.1893 474.25 45.6286 462.1 49.1801 457.987C52.5447 454.249 53.4793 459.296 54.414 462.287C55.7224 465.651 55.7224 472.007 56.0963 475.932C56.657 483.035 56.657 489.951 56.4701 497.054C56.657 497.615 56.844 497.802 57.0309 498.176ZM33.4786 497.428C31.0486 497.428 28.8055 497.428 26.3755 497.615C25.8147 486.026 23.3847 470.324 29.1793 459.67C33.6655 464.717 33.1047 472.007 33.1047 478.549C33.2916 484.717 33.2916 491.073 33.4786 497.428ZM179.466 405.088C186.756 414.995 195.354 423.594 204.7 430.323C195.728 429.575 186.756 429.575 177.596 429.575C178.157 421.537 179.279 413.126 179.466 405.088ZM176.101 400.041C174.979 409.574 175.727 419.855 175.54 429.388C170.493 429.388 165.633 429.575 160.586 429.388C154.418 429.388 148.249 429.201 142.081 429.201C144.137 396.677 143.95 362.844 140.025 330.319C140.399 330.319 140.772 330.319 141.146 330.319C141.333 330.506 141.707 330.506 141.894 330.319C144.698 330.132 147.315 329.945 150.119 329.758C152.362 329.571 152.362 326.393 150.119 326.207C147.689 326.02 145.259 326.02 142.829 326.02C144.698 314.617 145.819 302.654 146.006 290.504C147.128 290.504 148.062 290.504 149.184 290.317C150.866 290.13 151.427 287.513 149.558 287.14C148.436 286.953 147.128 286.766 146.006 286.579C146.193 276.485 145.819 266.391 144.885 256.858C148.436 257.045 151.988 257.045 155.539 257.232C154.044 268.073 153.296 279.102 152.923 289.943C152.736 295.925 152.549 301.72 152.736 307.701C152.736 313.122 154.979 324.337 151.614 328.823C150.306 330.506 152.923 332.188 154.418 330.88C154.605 330.693 154.605 330.693 154.792 330.506C153.857 354.432 162.269 379.48 176.101 400.041ZM122.828 379.667C122.828 364.339 123.576 348.45 121.519 333.31C121.332 331.814 119.089 332.375 119.089 333.683C117.968 349.385 119.65 365.834 119.837 381.536C120.024 397.424 119.65 413.313 120.024 429.014C117.033 429.014 114.042 429.014 111.239 428.827C109.369 428.827 107.5 428.827 105.631 428.64C105.818 397.237 106.005 364.713 103.201 333.497C103.014 331.627 100.21 331.627 100.21 333.497C99.4625 364.9 101.519 397.237 103.575 428.64C97.2194 428.454 90.864 428.454 84.5086 428.267C86.5648 396.677 85.4432 364.152 84.5086 332.562C84.5086 330.506 81.3309 330.506 81.3309 332.562C80.7701 364.152 80.3963 396.677 82.8263 428.267C76.6578 428.08 70.4894 428.08 64.3209 428.08C64.8817 397.424 65.6293 366.021 64.3209 335.366C64.3209 334.431 63.7601 334.057 63.0124 334.057C63.0124 333.31 63.1994 332.375 63.1994 331.627C63.1994 331.253 63.0124 330.88 63.0124 330.506C87.3124 331.067 112.173 331.814 136.66 330.506C138.342 363.404 139.838 396.116 139.464 429.201C133.669 429.201 127.688 429.014 121.893 429.014C123.015 412.752 122.828 396.116 122.828 379.667ZM103.201 285.831C100.397 285.831 97.4063 285.831 94.6025 285.831C94.4155 276.298 94.2286 266.952 93.6678 257.606C93.4809 255.55 90.4901 255.55 90.4901 257.606C90.3032 266.952 90.3032 276.485 90.6771 286.018C88.0601 286.018 85.4432 286.205 82.8263 286.205C82.8263 276.111 83.2001 265.643 81.5178 255.736C88.8078 255.923 95.9109 255.923 103.201 256.11C102.453 265.83 102.64 275.924 103.201 285.831ZM141.707 286.392C137.969 286.018 134.23 285.831 130.492 285.831C131.052 277.046 131.613 268.26 131.239 259.475C131.239 257.98 128.809 257.606 128.622 259.101C127.314 267.7 126.753 276.672 126.566 285.644C124.136 285.644 121.893 285.644 119.65 285.644C119.463 276.298 118.902 267.139 117.594 258.166C117.407 256.671 115.164 257.045 114.977 258.54C114.416 267.513 114.416 276.485 114.79 285.644C112.547 285.644 110.304 285.644 108.061 285.644C107.687 275.737 106.939 265.643 105.818 256.11C117.781 256.297 129.744 256.671 141.894 257.045C141.333 266.765 141.707 276.672 141.707 286.392ZM119.65 290.13C121.893 290.317 124.136 290.317 126.566 290.504C126.566 302.467 127.127 314.617 127.688 326.02C125.071 326.02 122.454 326.02 119.837 326.02C119.65 314.243 119.837 302.093 119.65 290.13ZM117.22 326.02C114.229 326.02 111.239 326.207 108.435 326.207C108.435 314.243 108.435 301.72 108.061 289.383C110.304 289.383 112.547 289.57 114.977 289.757C115.538 301.906 116.472 314.243 117.22 326.02ZM106.192 326.393C102.266 326.58 98.154 326.767 94.2286 326.954C94.6025 314.617 94.7894 301.906 94.6025 289.383C97.0325 289.383 99.4625 289.383 101.892 289.383C102.453 289.383 102.827 289.383 103.388 289.383C103.949 301.906 105.257 314.243 106.192 326.393ZM92.1725 326.954C89.1817 327.141 86.004 327.328 83.0132 327.515C83.0132 314.991 82.6394 302.654 82.4524 290.13C82.4524 289.943 82.4524 289.757 82.4524 289.383C85.0694 289.383 87.6863 289.383 90.4901 289.383C90.864 301.906 91.4248 314.43 92.1725 326.954ZM129.557 325.833C129.931 314.804 129.931 303.776 130.305 292.747C130.305 292 130.305 291.252 130.305 290.504C134.043 290.691 137.969 290.691 141.707 290.691C141.707 291.439 141.707 292 141.707 292.747C141.52 303.776 140.772 314.804 140.772 326.02C137.034 326.02 133.296 325.833 129.557 325.833ZM140.025 214.053C139.09 214.053 138.156 214.053 137.221 214.053C135.726 214.053 134.23 214.053 132.922 214.613C132.548 214.8 132.548 215.548 132.922 215.735C134.23 216.296 135.726 216.296 137.221 216.296C138.529 216.296 139.838 216.296 141.146 216.296C141.333 216.67 141.333 216.856 141.52 217.23C141.146 223.96 141.707 230.689 141.146 237.418C137.969 237.418 134.604 237.418 131.426 237.418C132.735 232.745 132.735 227.885 132.361 222.651C131.987 213.492 131.8 204.146 130.492 194.986C130.492 194.426 129.931 194.239 129.37 194.239C129.37 193.865 129.183 193.491 128.809 193.491C127.501 193.117 126.006 193.304 124.697 193.304C123.949 193.304 123.202 193.304 122.454 193.304C122.454 193.117 122.454 192.743 122.454 192.37C122.08 178.537 122.08 164.331 120.211 150.686C119.837 149.938 117.968 150.312 117.968 151.433C117.781 157.228 117.968 163.023 118.155 168.817C116.659 168.63 114.977 168.817 113.482 169.004C112.734 169.004 111.986 169.004 111.239 169.004C111.052 156.106 110.491 143.209 110.117 130.311C111.239 130.124 112.173 129.937 113.295 129.937C114.042 129.937 114.603 130.124 115.351 130.124C121.706 158.723 128.249 187.323 140.025 214.053ZM129.183 223.212C128.249 222.277 126.94 222.651 125.632 222.651C124.884 222.651 123.949 222.651 123.202 222.651C123.202 213.679 122.828 204.706 122.454 195.734C124.51 195.921 126.566 195.921 128.436 195.547C128.062 208.632 132.922 224.707 129.557 237.605C127.127 237.605 124.884 237.605 122.454 237.605C122.828 233.306 123.015 229.006 123.202 224.707H125.632C126.94 224.707 128.062 225.081 129.183 224.146C129.557 224.146 129.557 223.586 129.183 223.212ZM119.65 195.36C119.837 199.846 119.837 204.52 120.024 209.006L119.837 208.819C118.716 208.258 117.407 208.445 116.099 208.445C114.79 208.445 113.295 208.445 111.986 208.632C111.986 196.295 111.799 183.771 111.612 171.434C112.36 171.434 113.108 171.434 113.856 171.434C115.351 171.434 117.033 171.621 118.529 171.434C118.902 178.911 119.463 186.388 119.837 193.865C119.089 194.426 119.089 194.986 119.65 195.36ZM111.799 210.688C113.295 210.688 114.603 210.688 116.099 210.875C117.407 210.875 118.529 211.062 119.837 210.501C120.024 210.501 120.024 210.314 120.024 210.314C120.024 214.613 120.211 218.913 120.398 223.025C120.024 223.399 120.024 224.146 120.398 224.52C120.585 229.006 120.959 233.493 121.519 237.792C118.155 237.792 114.79 237.979 111.426 237.979C111.612 229.006 111.799 219.847 111.799 210.688ZM114.79 127.507C114.042 127.507 113.482 127.507 112.921 127.694C111.986 127.881 111.052 128.068 110.117 128.255C109.93 120.217 109.556 112.179 109.369 104.142C111.239 111.993 112.921 119.656 114.79 127.507ZM102.266 228.633C103.388 228.446 104.883 228.446 106.005 228.633C107.126 228.633 108.061 229.006 109.182 229.193C109.369 232.184 109.556 235.175 109.743 238.166C106.192 238.353 102.827 238.353 99.2755 238.54C101.519 222.09 103.014 205.454 103.762 188.631C103.949 188.631 104.136 188.818 104.136 188.818C104.696 189.005 105.257 189.005 105.818 189.005C106.379 189.005 106.752 189.192 107.313 189.192C107.687 201.716 108.061 214.053 108.809 226.39C107.874 226.016 106.939 226.016 106.192 226.016C105.444 226.016 104.696 226.016 103.949 226.203C102.827 226.39 102.453 226.95 101.519 227.324C101.145 227.698 101.519 228.82 102.266 228.633ZM93.1071 168.63C94.6025 168.817 96.0978 168.817 97.4063 168.817C98.5278 168.817 99.6494 169.004 100.771 168.817C100.584 180.967 100.023 192.93 99.4625 205.08C98.7148 205.08 97.9671 205.267 97.2194 205.454C95.9109 205.641 94.6025 205.828 93.294 206.202C93.6678 193.491 93.4809 180.967 93.1071 168.63ZM104.322 148.629C105.07 148.816 106.005 148.816 106.752 148.816C106.752 161.527 106.939 174.051 107.313 186.762C106.939 186.762 106.566 186.762 106.192 186.762C105.631 186.762 105.07 186.762 104.509 186.762C104.322 186.762 104.136 186.762 103.762 186.949C104.322 174.238 104.509 161.527 104.322 148.629ZM99.4625 69.374C102.827 79.4679 105.818 89.9356 108.435 100.403C107.126 100.403 105.631 101.151 104.696 101.525C104.136 101.712 103.575 101.899 103.201 102.273C103.014 102.459 102.827 103.02 103.014 103.207C103.949 104.142 105.07 103.768 106.192 103.581C106.379 103.581 106.566 103.581 106.566 103.581C106.752 117.787 106.752 132.18 106.752 146.573C106.005 146.573 105.07 146.76 104.322 146.76C103.949 122.834 102.453 98.9079 100.397 75.3556C100.397 74.6079 99.6494 74.234 99.0886 74.0471C99.2755 72.5517 99.2755 71.0563 99.4625 69.374ZM94.6025 11.4278C92.9201 10.4932 91.9855 8.25013 92.3594 6.3809C93.6678 5.07243 94.7894 4.13782 96.8455 4.32474C99.2755 4.69859 100.397 6.75474 99.6494 8.99782C98.9017 11.054 96.8455 12.7363 94.6025 11.4278ZM98.5278 85.6363C99.2755 97.2256 99.8363 108.815 100.21 120.404C99.2755 120.591 98.154 120.965 97.2194 121.152C96.4717 121.339 95.724 121.526 94.9763 121.713C96.4717 109.749 97.7801 97.5994 98.5278 85.6363ZM94.6025 123.582C95.5371 123.395 96.4717 123.395 97.4063 123.208C98.3409 123.021 99.2755 123.021 100.397 122.834C100.771 134.61 100.958 146.386 100.958 158.163C100.958 160.779 100.958 163.583 100.771 166.2C99.6494 166.013 98.5278 166.2 97.4063 166.2C95.9109 166.2 94.4155 166.2 92.9201 166.387C92.5463 159.097 92.1724 151.807 91.4248 144.517C92.5463 137.414 93.6678 130.498 94.6025 123.582ZM93.1071 207.697C94.9763 207.697 97.2194 207.697 99.0886 207.51C98.5278 217.978 98.154 228.259 97.7802 238.726C95.5371 238.913 93.4809 238.913 91.2378 239.1C92.1725 228.633 92.9201 218.165 93.1071 207.697ZM90.3032 220.782C89.1817 220.595 88.2471 220.782 87.1255 220.782C85.6301 220.782 84.1348 220.782 82.6394 220.969C82.6394 211.062 82.4524 200.968 81.8917 191.061C84.6955 191.248 87.6863 191.435 90.4901 191.248C90.4901 200.968 90.4901 210.875 90.3032 220.782ZM90.3032 223.025C90.1163 228.446 90.1163 233.68 89.7425 239.1C87.3125 239.287 84.8824 239.474 82.6394 239.661C82.6394 234.053 82.6394 228.633 82.6394 223.025C84.1348 223.025 85.6301 223.025 87.1255 223.212C88.0601 223.025 89.1817 223.212 90.3032 223.025ZM89.5555 154.424C90.1163 165.826 90.3032 177.416 90.4901 188.818C87.6863 188.631 84.5086 189.005 81.7048 189.379V189.192C81.7048 189.005 81.5178 188.818 81.5178 188.631C84.5086 177.229 87.1255 165.826 89.5555 154.424ZM74.4147 211.81C76.284 206.202 77.9663 200.594 79.6486 194.986C79.6486 201.529 79.6486 208.258 80.0224 214.8C79.2747 214.987 78.714 215.174 77.9663 215.361C77.2186 215.548 76.4709 215.548 75.7232 215.548C75.3494 215.548 74.9755 215.548 74.4147 215.735C74.4147 214.426 74.4147 213.118 74.4147 211.81ZM75.3494 217.23C76.284 217.23 77.2186 217.23 78.1532 217.23C78.714 217.23 79.4617 217.043 80.0224 217.043C80.3963 224.52 80.7701 232.184 80.9571 239.661C78.9009 239.848 76.8447 240.035 74.7886 240.222C74.7886 240.035 74.7886 240.035 74.7886 239.848C74.7886 238.726 74.6017 237.418 74.6017 236.296C74.6017 236.296 74.7886 236.296 74.7886 236.11C75.3494 235.549 75.1624 234.988 74.6017 234.614C74.4147 228.82 74.2278 223.025 74.2278 217.043C74.6017 217.043 74.9755 217.23 75.3494 217.23ZM71.9847 219.1C71.9847 224.146 72.3586 229.193 72.9194 234.24C71.9847 234.24 71.0501 234.614 70.1155 234.801C68.6201 235.175 66.9378 235.549 65.6294 236.296C67.6855 230.689 69.9286 224.894 71.9847 219.1ZM65.0686 237.231C65.2555 237.605 65.6294 237.979 66.0032 237.979C67.4986 238.166 69.1809 237.792 70.6763 237.418C71.424 237.231 72.3586 237.231 73.1063 237.044C73.2932 237.979 73.2932 238.913 73.4801 239.848C73.4801 240.035 73.6671 240.222 73.6671 240.222C70.3024 240.596 66.9378 240.783 63.5732 241.156C64.134 239.848 64.5078 238.54 65.0686 237.231ZM49.554 253.12C49.1801 250.876 49.367 248.633 49.554 246.39C49.554 246.016 49.554 245.643 49.367 245.456C49.554 245.456 49.554 245.456 49.7409 245.456C75.9101 244.708 102.079 243.026 128.436 242.278C128.622 242.652 129.37 242.839 129.557 242.278C138.716 241.904 147.689 241.904 156.848 241.717C156.848 241.717 156.848 241.717 157.035 241.717C156.287 245.456 156.474 249.755 157.035 253.493C121.706 250.69 84.8824 249.755 49.554 253.12ZM55.5355 255.176C63.1994 255.363 70.8632 255.55 78.5271 255.55C77.4055 265.456 78.3401 275.924 78.9009 286.018C75.9101 286.205 72.9194 286.205 69.7417 286.392C69.3678 276.298 69.5547 265.83 67.3117 256.11C66.9378 254.802 65.2555 255.176 65.2555 256.484C64.3209 266.204 65.6294 276.672 66.564 286.579C64.134 286.766 61.517 286.766 59.087 286.953C58.1524 276.485 57.0309 265.83 55.5355 255.176ZM59.4609 289.57C61.8909 289.57 64.5078 289.57 66.9378 289.57C66.9378 290.13 67.1247 290.878 67.1247 291.439C67.8724 303.028 68.6201 314.617 69.9286 326.207C70.1155 327.515 71.9847 327.515 71.9847 326.207C71.7978 314.057 71.0501 301.72 70.3024 289.57C70.3024 289.57 70.3024 289.57 70.3024 289.383C73.2932 289.383 76.4709 289.383 79.4617 289.383C79.4617 290.13 79.4617 291.065 79.6486 291.813C80.0224 303.776 80.3963 315.552 81.144 327.515C75.1624 327.889 69.1809 328.263 63.1994 328.45C61.8909 315.552 60.7694 302.654 59.4609 289.57ZM60.9563 348.45C59.8347 374.807 60.9563 401.91 62.8255 428.08C48.6193 428.08 34.4132 428.64 20.207 430.323C36.2824 405.649 54.414 377.984 60.9563 348.45ZM18.5247 433.314C49.9278 430.697 81.5178 432.192 112.921 432.566C128.809 432.753 144.698 432.94 160.586 433.314C176.101 433.687 192.363 434.996 207.878 433.687C207.317 439.669 207.504 446.024 207.317 452.006C177.223 448.08 145.632 448.454 115.351 447.707C83.3871 446.959 51.4232 446.211 19.4593 447.707C19.2724 446.585 17.9639 446.211 17.0293 446.585C18.1509 442.286 18.7116 437.613 18.5247 433.314ZM13.8516 500.793C29.7401 503.784 47.8716 502.101 63.947 502.288C81.3309 502.475 98.5278 502.475 115.912 502.475C151.053 502.475 186.943 503.971 222.084 501.541C227.879 503.597 226.383 520.981 225.823 528.831C221.149 528.271 216.289 529.018 211.616 529.018C206.756 529.205 202.083 529.205 197.223 529.018C197.223 524.345 197.036 519.672 196.849 514.999C197.223 514.251 197.036 513.504 196.476 512.943C196.289 512.756 195.915 512.569 195.541 512.569H195.354C168.998 510.887 141.52 513.878 115.164 514.625C88.6209 515.373 62.2647 516.121 35.7216 517.616V517.429C35.5347 516.681 34.4132 516.681 34.4132 517.429C34.4132 517.616 34.4132 517.803 34.4132 517.99C33.8524 518.364 33.8524 519.298 34.2263 519.672C34.0393 522.289 33.8524 524.719 33.8524 527.336C33.6655 526.775 33.1047 526.401 32.357 526.401C26.9362 526.401 21.5155 526.775 16.0947 527.149C12.3562 527.336 8.61777 527.149 4.87931 527.897C4.50546 517.803 5.44008 507.335 13.8516 500.793ZM6.93546 635.938C6.37469 612.947 5.81392 589.955 5.25315 566.964C5.06623 555.748 4.69238 544.72 4.50546 533.504C4.50546 532.383 4.50546 531.448 4.50546 530.327C7.30931 530.701 10.1132 530.514 12.917 530.327C12.917 530.514 12.7301 530.514 12.7301 530.701C11.4216 551.636 12.1693 572.758 11.6085 593.694C11.0478 614.629 10.3001 635.378 9.73931 656.313C8.80469 656.313 8.057 656.313 7.12238 656.313C7.30931 649.584 7.12238 642.855 6.93546 635.938ZM8.80469 708.465C7.87008 706.595 8.61777 699.492 8.43085 697.249C8.057 684.351 7.68315 671.641 7.49623 658.743C11.7955 658.93 16.0947 658.93 20.3939 659.117C21.3286 659.117 22.2632 659.117 23.0109 659.117C27.8709 659.304 32.7309 660.051 37.4039 659.117C37.5909 663.416 37.7778 667.902 37.9647 672.201C29.927 678.37 34.787 708.465 36.0955 714.82C35.1609 714.82 34.2263 714.82 33.2916 714.82C28.8055 714.82 22.8239 715.941 18.5247 714.82C17.4032 714.633 16.0947 714.072 14.7862 713.325C13.8516 706.595 13.1039 699.679 13.2909 692.95C13.2909 689.398 13.4778 685.847 13.8516 682.295C14.2255 678.931 14.5993 675.566 15.347 672.201C14.9732 668.276 16.6555 667.341 20.5809 669.024C25.067 667.902 26.9362 669.958 25.8147 674.818C26.0016 676.501 26.1886 678.183 26.3755 680.052C26.7493 683.417 27.1232 686.968 27.3101 690.333C27.8709 697.81 27.6839 705.287 27.8709 712.764C27.8709 714.446 30.3009 714.446 30.4878 712.764C31.2355 700.053 30.3009 686.968 28.6186 674.445C27.8709 669.211 26.9362 660.051 19.6462 660.799C12.3562 661.36 12.1693 673.136 11.6085 678.37C10.1132 689.585 10.487 700.988 12.7301 712.016C10.8608 711.081 9.55239 709.773 8.80469 708.465ZM13.8516 718.745C18.5247 719.493 24.1324 718.745 27.8709 718.745C67.1247 718.558 106.379 718.558 145.633 718.558C146.006 718.932 146.754 718.932 147.128 718.558C158.156 718.558 168.998 718.558 180.026 718.558C191.803 718.558 203.579 718.558 215.355 718.558C217.785 718.558 220.402 718.558 222.645 718.185C222.832 718.558 223.019 719.119 223.579 719.306C235.169 726.97 218.159 734.634 212.738 735.195C208.626 735.568 204.326 735.381 200.027 735.381C191.616 735.381 183.017 735.008 174.606 734.634C156.474 733.886 138.156 732.391 120.024 731.269C101.892 729.961 83.7609 729.026 65.4424 728.652C57.0309 728.465 48.4324 728.652 40.0209 728.839C35.1609 729.026 30.3009 729.4 25.4409 729.587C23.5716 729.774 21.5155 729.774 19.6462 729.774C12.917 731.082 10.8608 727.157 13.8516 718.745ZM14.2255 733.325C16.0947 733.886 18.1509 734.26 19.8332 734.26C34.9739 734.821 50.3017 732.765 65.4424 732.952C81.144 733.138 97.0325 734.073 112.734 735.195C144.137 737.438 175.727 740.802 207.317 740.055C211.056 740.055 215.355 739.868 219.28 738.746C217.411 779.495 218.906 820.805 219.654 861.555C219.654 861.929 219.654 862.489 219.654 862.863C212.551 863.611 205.448 864.172 198.345 864.919C198.532 852.209 198.719 839.311 198.719 826.6C198.906 806.786 200.027 786.412 197.036 766.785C197.223 766.598 197.41 766.224 197.41 765.85C196.476 756.13 188.812 743.232 177.783 745.662C177.409 745.475 177.223 745.475 176.662 745.662C165.82 749.214 163.577 760.99 163.203 771.084C162.456 792.206 163.39 813.702 163.577 834.825C163.764 846.04 163.764 857.255 163.951 868.471C159.839 868.845 155.726 869.219 151.614 869.592C151.614 866.041 151.427 862.302 151.427 858.751C151.053 835.012 150.492 811.272 149.932 787.346C149.745 780.056 153.109 757.252 143.763 752.392C143.763 752.018 143.576 751.831 143.202 751.457C138.716 747.158 131.426 749.962 127.501 753.513C122.828 757.999 121.893 764.355 122.267 770.523C121.706 770.71 121.332 771.084 121.332 771.832C121.146 805.104 123.202 838.376 124.51 871.649C122.267 871.836 120.024 872.022 117.781 872.022C116.286 872.022 114.603 872.209 113.108 872.209C113.108 842.489 113.295 812.581 112.921 782.86C113.108 782.673 113.108 782.486 113.108 782.112C113.108 780.617 112.921 779.122 112.734 777.626C112.547 770.71 112.547 763.607 112.36 756.691C112.36 755.756 111.426 755.569 110.865 755.943C110.117 752.952 109.182 749.962 108.061 747.345C106.752 743.793 104.883 740.055 101.145 738.372C93.1071 734.634 88.0601 742.298 85.4432 748.84C84.6955 748.653 83.7609 749.214 83.7609 750.148C83.2001 791.272 83.0132 832.395 83.2001 873.518C79.0878 873.705 74.9755 873.705 70.8632 873.892C70.1155 841.741 69.9286 809.59 68.4332 777.439C68.994 777.252 69.3678 776.878 69.3678 776.131C69.1809 773.327 68.994 770.71 68.8071 767.906C69.1809 767.532 69.5547 767.158 69.3678 766.411C68.994 765.289 68.807 764.168 68.4332 763.046C68.2463 760.242 68.0593 757.252 67.6855 754.448C68.994 752.578 68.807 749.588 68.4332 747.531C68.0594 745.102 66.7509 742.485 64.6947 740.989C63.0124 739.681 60.7693 739.12 58.7132 739.307C57.4047 739.12 56.0963 739.681 54.9747 740.428C54.0401 739.494 52.1709 739.494 51.6101 741.176C39.0863 778.935 35.3478 818.749 34.2263 858.19C34.0393 863.611 34.0393 869.032 33.8524 874.452C28.6186 874.266 23.3847 874.266 18.3378 875.387C17.0293 875.574 17.2162 877.443 18.3378 877.817C23.1978 879.125 28.4316 879.499 33.8524 879.686C33.8524 886.789 33.8524 893.892 33.8524 900.995C28.4316 900.809 23.0109 900.622 17.5901 900.435C17.4032 891.836 17.4032 883.425 17.2162 874.826C16.6555 827.909 17.2162 780.43 14.2255 733.325ZM16.0947 1215.59C23.9455 1215.77 31.6093 1215.59 39.4601 1215.4C39.647 1223.44 39.834 1231.48 39.834 1239.51C39.834 1241.38 39.834 1243.06 39.834 1244.93C31.2355 1245.49 22.8239 1246.06 14.2255 1246.8C14.9732 1236.52 15.5339 1226.05 16.0947 1215.59ZM11.6085 1383.26C11.7955 1382.88 11.9824 1382.51 11.9824 1382.14C10.3001 1338.02 11.9824 1293.91 14.2255 1249.98C22.8239 1249.79 31.4224 1249.42 40.0209 1249.23C40.7686 1293.72 40.5816 1338.4 43.1986 1382.7C32.7309 1382.51 22.0762 1382.7 11.6085 1383.26ZM44.8809 1382.51C46.0024 1341.2 44.1332 1299.7 43.5724 1258.39C43.5724 1255.21 43.3855 1252.04 43.3855 1248.86C54.0401 1248.49 64.6947 1248.11 75.3494 1247.74C75.7232 1292.41 75.3494 1337.27 75.5363 1381.95C75.5363 1382.14 75.5363 1382.32 75.7232 1382.51C65.2555 1382.32 54.9747 1382.32 44.8809 1382.51ZM79.0878 1382.51C79.0878 1382.32 79.2747 1382.14 79.2747 1381.95C80.2094 1337.09 80.3963 1292.41 80.0224 1247.55C83.7609 1247.36 87.3124 1247.36 91.0509 1247.18C92.3594 1292.04 93.8548 1336.9 95.724 1381.76C95.724 1382.14 95.724 1382.32 95.9109 1382.51C90.3032 1382.51 84.6955 1382.51 79.0878 1382.51ZM99.0886 1382.51C99.0886 1382.32 99.2755 1381.95 99.2755 1381.76C97.7802 1336.9 96.2848 1291.85 94.9763 1246.99C100.771 1246.8 106.752 1246.62 112.547 1246.43C113.856 1291.48 115.164 1336.71 117.968 1381.58C117.968 1381.76 117.968 1381.95 118.155 1382.14C111.799 1382.32 105.444 1382.51 99.0886 1382.51ZM122.454 1382.14C122.267 1382.14 121.893 1382.14 121.706 1382.14C121.706 1381.95 121.706 1381.76 121.706 1381.58C119.837 1336.53 118.342 1291.29 117.22 1246.24C117.594 1246.24 117.781 1246.24 118.155 1246.24C124.136 1246.06 130.305 1246.06 136.286 1246.06V1246.24C137.408 1291.1 137.969 1335.97 139.838 1380.64C139.838 1381.01 140.025 1381.39 140.399 1381.39C134.604 1381.76 128.436 1381.95 122.454 1382.14ZM141.52 1381.58C141.707 1381.39 141.894 1381.2 141.894 1380.83C141.894 1335.97 140.772 1291.1 139.464 1246.24C143.576 1246.24 147.502 1246.24 151.614 1246.24C151.614 1291.1 151.427 1336.15 151.24 1381.01C151.24 1381.2 151.24 1381.2 151.24 1381.39C148.062 1381.2 144.885 1381.39 141.52 1381.58ZM155.166 1381.01C155.353 1380.83 155.353 1381.01 155.166 1381.01C155.726 1335.97 155.913 1291.1 155.913 1246.06C159.839 1246.06 163.764 1246.06 167.689 1246.06C168.063 1290.73 168.25 1335.59 169.372 1380.27C164.699 1380.64 160.026 1380.83 155.166 1381.01ZM172.549 1380.27C172.736 1335.59 172.363 1290.92 171.989 1246.24C179.653 1246.24 187.316 1246.24 194.793 1246.24C195.354 1290.54 195.915 1334.84 196.849 1379.15C188.625 1379.52 180.587 1379.89 172.549 1380.27ZM200.775 1378.77C200.027 1334.47 199.466 1290.36 198.906 1246.06C207.317 1246.06 215.916 1245.87 224.327 1245.68C227.131 1245.68 227.131 1241.57 224.327 1241.38C215.916 1241.01 207.317 1240.63 198.906 1240.63C198.719 1230.17 198.719 1219.51 198.532 1209.04C206.383 1208.86 214.42 1208.3 221.897 1206.99C224.14 1206.61 223.393 1203.44 221.336 1203.25C213.859 1202.69 206.196 1202.69 198.345 1203.06C197.971 1158.95 197.597 1114.84 197.597 1070.72C205.822 1070.53 214.046 1070.16 222.084 1069.04C224.327 1068.67 223.579 1065.3 221.523 1065.3C213.673 1064.74 205.635 1064.74 197.597 1065.11C197.597 1056.14 197.597 1047.36 197.597 1038.38C205.822 1037.82 214.046 1037.08 222.084 1035.58C222.832 1035.39 223.206 1034.83 223.393 1034.27C224.701 1102.31 226.009 1170.16 227.879 1238.2C229.187 1284.38 230.869 1330.55 234.421 1376.72C223.206 1377.65 211.99 1378.21 200.775 1378.77Z" fill="#9CCDEE"/>
<path d="M185.447 592.385C185.447 569.767 186.382 546.776 184.886 524.345C184.886 523.411 183.952 523.037 183.204 523.411C182.83 523.224 182.643 523.037 182.083 523.037C136.847 519.859 90.864 518.924 45.6286 523.037C45.0678 522.85 44.3201 522.85 43.9463 523.224C43.1986 523.411 42.8247 524.345 43.1986 524.906C43.0116 548.645 43.1986 572.571 43.5724 596.311C43.9463 618.741 42.8247 642.481 46.3763 664.724C46.3763 665.098 46.5632 665.285 46.7501 665.285C46.7501 665.846 47.124 666.407 47.8716 666.594C61.517 667.902 75.5363 668.65 89.3686 668.837C89.5555 668.837 89.5555 668.837 89.7425 668.837C120.398 669.584 151.053 667.902 181.335 664.164C183.391 663.977 183.578 660.612 181.335 660.799C180.4 660.799 179.466 660.986 178.531 660.986C178.718 660.799 179.092 660.425 179.279 660.051C180.4 660.238 181.522 659.864 182.269 659.117C182.269 659.678 182.456 660.051 182.456 660.612C182.643 662.294 184.886 662.294 185.073 660.612C187.69 638.368 185.26 614.629 185.447 592.385ZM181.522 549.58C181.522 551.075 181.522 552.571 181.522 554.253C180.774 553.131 180.213 551.823 179.466 550.701C180.213 550.514 180.961 550.141 181.522 549.58ZM180.4 543.037C180.961 542.664 181.335 541.916 181.709 541.355C181.709 542.29 181.709 543.411 181.709 544.346C181.335 543.972 180.774 543.598 180.4 543.037ZM181.522 563.412C181.522 569.394 181.709 575.375 181.709 581.357C181.148 578.74 180.587 576.31 179.839 573.88C177.596 566.216 174.045 558.739 169.372 552.197C172.176 555.561 175.166 558.926 177.97 562.477C178.905 563.973 180.4 563.973 181.522 563.412ZM180.961 632.387C180.587 632.013 180.026 631.639 179.466 631.452C180.026 629.77 180.587 628.274 181.148 626.592C180.961 628.461 180.961 630.331 180.961 632.387ZM157.596 657.995V658.182C157.783 658.743 157.969 659.304 158.156 659.678C157.409 659.678 156.474 659.678 155.726 659.491C155.726 659.304 155.726 659.117 155.539 658.93C156.287 658.743 157.035 658.369 157.596 657.995ZM182.083 526.775C182.269 526.775 182.269 526.775 182.269 526.775C182.269 527.336 182.269 527.897 182.269 528.458C181.522 527.897 180.4 527.523 179.279 527.149C178.531 526.962 177.97 526.962 177.409 527.149C176.849 526.775 176.288 526.588 175.54 526.214C177.596 526.401 179.839 526.588 182.083 526.775ZM171.241 526.027C170.119 526.588 169.372 527.523 169.185 528.644C167.876 527.71 166.381 526.588 165.073 525.654C166.942 525.654 169.185 525.841 171.241 526.027ZM160.026 525.28C158.53 526.588 158.156 529.205 159.652 530.888L159.839 531.074C157.783 529.018 155.726 526.962 153.67 524.906C155.913 525.093 157.969 525.28 160.026 525.28ZM148.062 533.131C148.81 533.878 149.558 534.439 150.306 535.187C151.614 536.495 153.109 536.495 154.418 535.747C157.222 538.551 160.026 541.542 162.643 544.533C160.586 542.477 158.156 540.794 155.726 539.299C152.736 537.43 149.558 535.934 146.38 534.813C146.941 534.626 147.689 534.065 148.062 533.131ZM137.782 531.822C138.716 532.383 139.651 532.757 140.586 533.318C139.464 533.131 138.342 532.944 137.034 532.757C137.221 532.383 137.595 532.196 137.782 531.822ZM132.361 532.196C130.866 532.009 129.183 532.009 127.688 532.009C128.809 531.448 129.744 530.514 132.361 532.196ZM115.912 530.701C116.099 530.887 116.286 531.074 116.659 531.261C118.342 532.383 120.211 531.448 121.332 530.14C122.641 530.888 123.949 531.448 125.258 532.009C122.08 532.009 118.902 532.196 115.538 532.383C115.725 531.822 115.912 531.261 115.912 530.701ZM106.379 524.158C106.379 524.532 106.379 524.719 106.379 525.093C105.257 524.906 103.949 524.906 102.64 524.906C101.892 524.906 101.145 525.28 100.397 525.841C99.4625 525.28 98.5278 524.906 97.5932 524.345C100.584 524.158 103.575 524.158 106.379 524.158ZM91.4248 524.158C91.0509 524.345 90.6771 524.719 90.4901 524.906C89.9294 524.719 89.3686 524.345 88.8078 524.158C89.5555 524.158 90.4901 524.158 91.4248 524.158ZM80.3963 524.345C80.2094 524.719 80.0224 525.28 80.0224 525.654C79.2747 525.28 78.3401 524.719 77.4055 524.345C78.5271 524.345 79.4617 524.345 80.3963 524.345ZM79.0878 539.486C79.2747 539.673 79.2747 539.486 79.0878 539.486C81.5178 541.729 85.0694 539.112 83.574 536.308C83.3871 535.934 83.2001 535.747 83.0132 535.561C83.3871 535.934 83.9478 536.121 84.3217 536.495C86.5648 538.364 91.6117 536.682 90.1163 533.131L89.9294 532.757C90.6771 533.131 91.2378 533.504 91.7986 534.065C93.6678 535.374 95.5371 534.252 96.4717 532.757C97.7802 532.944 98.9017 532.57 99.6494 531.822C100.397 532.383 101.145 533.131 101.892 533.878C92.9202 535.561 84.3217 539.486 77.0317 544.907C77.2186 543.785 77.0317 542.477 76.284 541.542C76.0971 541.168 75.7232 540.981 75.5363 540.608C77.0317 540.981 78.3401 540.421 79.0878 539.486ZM71.7978 547.15C72.3586 547.524 72.9194 547.711 73.2932 547.711C72.5455 548.458 71.6109 549.206 70.8632 549.954C71.237 548.832 71.2371 547.337 70.3024 546.215C70.8632 546.589 71.237 546.776 71.7978 547.15ZM67.1247 524.532C66.377 524.719 65.8163 525.467 66.1901 526.214C66.377 526.401 66.377 526.588 66.564 526.775C66.377 527.523 66.1901 528.271 66.1901 528.831C65.0686 527.336 63.947 526.027 62.8255 524.532C64.3209 524.532 65.8163 524.532 67.1247 524.532ZM63.0124 551.075C62.2647 550.141 61.704 549.206 60.9563 548.271C62.6386 549.393 64.3209 550.514 65.8163 551.636C66.7509 552.197 67.6855 552.384 68.4332 552.197C66.0032 554.814 63.7601 557.431 61.704 560.421C60.9563 559.113 60.2086 557.991 59.4609 556.683C62.6386 557.991 65.4424 554.253 63.0124 551.075ZM54.414 566.777C54.227 565.655 53.8532 564.721 53.6663 563.599C54.7878 564.16 56.0963 564.534 57.2178 565.094C57.7786 565.281 58.1524 565.468 58.7132 565.468C56.4701 569.394 54.7878 573.506 53.2924 577.805C53.2924 576.871 53.4793 575.936 53.2924 575.001C52.7317 570.328 52.5447 572.571 49.7409 570.328C52.1709 572.198 54.9747 569.207 54.414 566.777ZM53.4793 639.677C53.2924 639.677 53.2924 639.677 53.4793 639.677C52.1709 638.181 50.3016 638.368 48.9932 639.303C48.9932 636.873 48.8063 634.443 48.8063 632.013C49.1801 632.948 49.7409 633.882 50.3016 634.63C50.3016 635.191 50.4886 635.751 50.8624 636.125C51.6101 637.434 52.5447 638.555 53.4793 639.677ZM46.7501 525.093C46.937 525.093 47.3109 525.093 47.4978 525.093C46.3763 526.775 46.7501 529.766 49.367 530.701C49.367 531.074 49.367 531.448 49.367 531.635C48.4324 531.261 47.4978 531.448 46.7501 531.822C46.7501 529.766 46.7501 527.336 46.7501 525.093ZM46.7501 539.673C47.124 540.421 47.4978 541.168 48.0586 541.729C47.6847 541.729 47.124 541.916 46.7501 542.103C46.7501 541.355 46.7501 540.421 46.7501 539.673ZM46.7501 555.561C46.7501 553.318 46.7501 551.262 46.7501 549.019C48.0586 551.075 49.367 553.131 50.6755 555.188C50.3016 555.001 50.1147 555.001 49.7409 554.814C48.6193 554.44 47.4978 554.814 46.7501 555.561ZM48.4324 664.164C48.4324 663.603 48.4324 663.042 48.4324 662.481C48.8063 662.855 48.9932 663.416 49.367 663.79C49.367 663.977 49.554 663.977 49.554 664.164C49.1801 664.164 48.8063 664.164 48.4324 664.164ZM48.9932 649.584C48.9932 648.275 48.9932 646.78 48.9932 645.471C49.9278 646.593 50.6755 647.714 51.6101 648.836C50.6755 648.649 49.7409 648.836 48.9932 649.584ZM53.1055 664.164C53.4793 663.977 53.6663 663.603 53.6663 663.042C53.8532 663.229 54.0401 663.229 54.0401 663.416C56.0963 664.911 58.1524 663.229 58.7132 661.36C60.3955 662.481 61.8909 663.416 63.5732 664.538C60.2086 664.538 56.657 664.351 53.1055 664.164ZM59.274 634.63C60.0217 634.63 60.7693 634.443 61.517 634.069C63.947 637.808 66.564 641.359 69.5547 644.537C66.0032 641.359 62.6386 637.994 59.274 634.63ZM67.8724 664.724C68.6201 664.164 69.1809 663.416 69.3678 662.481C70.1155 663.042 71.0501 663.603 71.7978 664.164C74.0409 665.659 77.2186 663.416 77.2186 660.986C79.0878 662.294 80.7701 663.79 82.6394 664.911C77.7794 664.911 72.7324 664.911 67.8724 664.724ZM86.1909 658.369C84.6955 657.248 83.2001 656.126 81.5178 655.004C83.2001 656.126 85.0694 657.248 86.9386 658.182C86.7517 658.182 86.5648 658.182 86.1909 658.369ZM97.4063 664.911C97.5932 663.977 97.5932 663.229 97.0325 662.481C99.6494 663.416 102.453 664.164 105.257 664.911C102.827 664.911 100.023 664.911 97.4063 664.911ZM54.7878 602.853C51.6101 570.889 74.6017 542.477 105.631 536.308C106.752 536.682 107.874 536.308 108.809 535.374C125.819 534.252 144.324 533.878 158.156 545.281C171.428 556.122 177.97 574.067 179.839 590.703C181.709 607.526 179.653 627.34 170.306 641.92C160.399 657.247 139.464 663.042 122.267 662.855C87.6863 662.481 58.1524 637.434 54.7878 602.853ZM150.866 661.36C150.866 661.921 151.053 662.481 151.614 663.042C149.558 663.229 147.502 663.416 145.446 663.416C147.315 662.855 148.997 662.108 150.866 661.36ZM171.802 661.547C171.989 661.173 172.176 660.612 171.989 660.238C172.549 660.612 173.297 660.986 173.858 661.36C173.297 661.36 172.549 661.547 171.802 661.547Z" fill="#9CCDEE"/>
<path d="M174.419 587.525C168.811 556.496 143.202 539.299 112.921 541.916C112.734 541.542 112.173 541.355 111.612 541.355C89.1817 543.224 69.1809 559.487 62.0778 580.796C54.414 603.974 63.0124 631.078 82.2655 645.845C100.771 660.238 127.501 662.855 148.249 651.827C171.428 639.677 178.905 612.012 174.419 587.525ZM157.035 640.985C146.567 650.705 131.8 655.378 117.594 654.631C88.434 653.135 64.8817 630.331 63.5732 600.984C62.2647 572.011 84.3217 549.206 112.173 544.907C112.547 544.907 112.734 544.72 112.921 544.533C128.249 543.785 143.576 546.589 154.979 557.804C166.381 568.833 171.802 584.348 171.802 599.862C171.989 614.629 168.25 630.518 157.035 640.985Z" fill="#9CCDEE"/>
<path d="M162.082 620.984C166.007 610.704 166.381 599.114 163.203 587.899C160.212 577.058 153.857 566.59 144.698 559.861C134.23 552.197 121.332 551.262 108.809 552.01C108.622 552.01 108.435 552.01 108.435 552.197C108.809 550.888 107.874 549.393 106.192 549.954C82.2655 556.496 69.7417 577.805 69.9286 599.301C69.7417 599.301 69.5547 599.301 69.3678 599.301C68.6201 599.488 68.4332 600.61 68.994 600.984C69.3678 601.358 69.7417 601.544 70.1155 601.918C71.0501 617.62 78.9009 633.135 94.2286 642.481C110.117 652.201 131.052 651.079 146.38 640.611C152.923 636.125 157.783 630.331 160.96 623.601C162.269 623.975 163.577 622.106 162.456 621.171C162.269 621.171 162.269 621.171 162.082 620.984ZM155.539 578.553C157.969 583.413 159.652 588.834 160.586 594.254C157.969 594.441 155.539 595.189 152.923 595.189C151.053 595.376 149.371 595.376 147.502 595.376C147.502 593.881 147.502 592.385 147.128 590.703C146.754 588.834 146.38 587.151 145.819 585.656C147.315 584.721 148.623 583.6 150.119 582.665C151.801 581.544 153.67 580.422 154.979 579.114C155.353 578.927 155.539 578.74 155.539 578.553ZM146.193 565.655C149.371 568.646 152.175 572.384 154.418 576.31C154.044 576.123 153.67 576.31 153.109 576.497C151.427 577.431 149.932 578.927 148.249 580.235C147.128 581.17 145.819 582.104 144.698 583.039C142.081 577.805 137.969 574.254 133.109 572.198C133.109 572.198 133.109 572.198 133.296 572.011C134.604 570.141 135.912 568.085 137.034 566.216C137.969 564.721 139.464 563.038 140.025 561.169C142.268 562.291 144.324 563.786 146.193 565.655ZM115.164 554.627C123.015 555.001 130.492 556.122 137.221 559.487C135.912 560.795 135.165 562.851 134.23 564.347C133.109 566.403 131.987 568.459 130.866 570.515C130.679 570.702 130.679 570.889 130.679 571.076C126.566 569.581 122.08 569.02 117.407 569.02C117.22 568.646 116.846 568.459 116.286 568.272C114.79 564.16 114.416 560.048 114.977 555.748C115.351 555.374 115.351 555.001 115.164 554.627ZM77.4055 580.422C79.4617 581.544 81.7047 582.478 83.9478 583.226C86.1909 583.974 88.9948 585.282 91.4248 584.721C92.5463 584.534 92.5463 583.039 91.7986 582.478C89.9294 581.17 87.1255 581.17 84.8824 580.422C82.8263 579.861 80.7701 578.927 78.714 578.179C84.5086 566.964 94.9763 557.991 107.5 553.505C107.687 553.505 107.687 553.318 107.874 553.318C107.874 554.066 108.248 554.627 109.182 554.627C110.304 554.627 111.426 554.627 112.547 554.627C112.547 554.814 112.547 554.814 112.36 554.814C111.612 559.674 112.173 564.347 114.416 568.646C113.295 568.833 111.986 569.207 110.865 569.581H110.678C110.491 569.581 110.304 569.581 110.304 569.768C107.5 570.702 104.883 572.011 102.453 573.693C102.453 573.506 102.266 573.132 102.079 572.945C100.397 571.076 98.3409 569.394 96.2848 567.711C95.3501 566.964 94.6024 566.216 93.6678 565.468C93.294 565.094 92.9201 564.721 92.5463 564.534C91.9855 564.347 91.6117 564.347 91.0509 563.973C90.4901 563.599 89.7424 564.347 90.1163 564.908C90.6771 565.655 90.6771 566.403 91.4248 567.151C92.1724 568.085 93.1071 569.02 94.0417 569.954C95.9109 571.824 97.5932 573.88 99.4624 575.375C99.6494 575.375 99.6494 575.562 99.8363 575.562C93.1071 580.983 88.6209 589.021 88.0601 597.993C87.8732 597.806 87.6863 597.806 87.4994 597.806C84.3217 597.432 81.144 598.18 77.9663 598.367C76.4709 598.554 74.9755 598.554 73.4801 598.741C73.2932 592.198 74.7886 586.03 77.4055 580.422ZM113.856 635.938C113.669 638.929 113.108 641.733 113.669 644.724C97.9671 642.854 84.3217 632.2 77.5924 617.62C79.4617 616.685 81.3309 615.751 83.2001 614.816C85.2563 613.881 87.4994 613.134 89.1817 611.451C90.1163 610.517 89.1817 609.021 87.8732 609.395C85.6301 609.769 83.7609 611.451 81.7048 612.386C80.0224 613.321 78.3401 614.255 76.6578 615.19C75.9101 613.321 75.3494 611.451 74.7886 609.582C74.0409 606.778 73.6671 603.974 73.4801 601.171C78.1532 601.358 83.3871 601.171 87.6863 600.236H87.8732C87.8732 601.358 87.8732 602.666 88.0601 603.788C88.9948 610.517 91.9855 615.938 96.4717 619.676C94.9763 621.171 94.0417 623.228 92.9201 624.723C91.4248 626.966 89.7424 629.022 88.8078 631.826C88.6209 632.574 89.5555 633.508 90.3032 632.948C92.3594 631.452 93.6678 629.209 95.1632 627.153C96.2848 625.471 98.154 623.601 99.0886 621.545C103.388 624.349 108.622 625.844 114.042 626.031C114.042 629.396 114.042 632.574 113.856 635.938ZM91.9855 599.675C92.1724 584.908 102.827 574.441 116.846 572.011C117.033 572.011 117.22 571.824 117.407 571.824C128.996 572.384 139.838 576.31 143.202 589.208C143.763 591.451 143.95 593.694 143.95 595.75C143.763 595.937 143.763 596.311 143.95 596.498C143.202 608.834 132.922 619.115 120.398 621.171C105.818 623.788 91.7986 615.564 91.9855 599.675ZM122.828 644.724C120.772 644.911 118.716 644.911 116.659 644.724C117.781 641.733 117.407 638.181 117.22 635.004C117.22 632.013 117.033 628.835 116.659 625.845C118.155 625.845 119.837 625.658 121.332 625.284C124.884 624.723 128.249 623.414 131.239 621.732C133.296 624.723 135.539 627.527 137.595 630.331C139.277 632.574 140.959 635.751 143.202 637.434C137.408 641.546 130.492 643.976 122.828 644.724ZM145.633 635.938C144.324 633.321 141.707 631.078 139.838 628.835C137.595 626.218 135.352 623.414 132.922 620.798C136.473 618.555 139.464 615.751 141.894 612.386C141.894 612.386 141.894 612.386 141.894 612.573C144.324 615.19 148.062 616.685 151.053 618.368C152.923 619.489 154.979 620.798 157.035 621.919C154.231 627.527 150.493 632.2 145.633 635.938ZM158.343 618.741C156.287 617.62 153.857 616.685 151.801 615.751C148.81 614.255 145.632 612.199 142.455 611.825C145.259 607.713 146.941 603.04 147.502 597.993C151.801 598.928 157.035 598.928 160.96 597.619C161.895 605.096 160.96 612.386 158.343 618.741Z" fill="#9CCDEE"/>
<path d="M129.744 583.974C131.052 581.918 127.875 579.301 126.192 581.357C122.454 585.469 118.902 589.955 115.538 594.441C111.052 593.133 106.566 591.824 102.079 590.516C100.023 589.955 99.0886 591.824 99.4625 593.32C99.2755 594.254 99.6494 595.189 100.771 595.75C100.958 596.124 101.332 596.498 102.079 596.498C102.453 596.498 103.014 596.498 103.388 596.685C105.07 597.245 106.566 597.806 108.248 598.18C109.556 598.554 110.678 598.928 111.986 599.488C111.239 600.61 110.491 601.544 109.743 602.666C109.182 603.414 109.369 604.348 109.93 605.096C109.743 605.47 109.369 605.844 109.182 606.404C108.061 608.087 110.678 609.395 111.799 607.9C112.921 606.404 114.042 604.722 115.164 603.227C115.725 603.227 116.286 603.227 116.846 602.853C117.781 602.666 118.342 602.105 118.716 601.544C120.959 602.105 123.202 602.479 125.258 602.853C126.94 603.04 127.688 600.423 126.192 599.675C126.006 599.488 125.819 599.488 125.632 599.488C125.632 598.741 125.258 597.806 124.136 597.432C123.015 597.058 121.893 596.871 120.959 596.498C124.697 592.946 127.314 588.086 129.744 583.974Z" fill="#9CCDEE"/>
<path d="M210.121 534.626C209.934 532.757 207.13 532.757 207.317 534.626C207.878 555.188 208.999 575.936 208.999 596.498C208.999 606.218 208.813 615.938 208.626 625.658C208.252 635.191 206.569 645.471 208.252 655.005C208.439 655.752 209.373 655.565 209.56 655.005C212.177 646.406 211.616 636.499 211.99 627.527C212.364 617.246 212.551 606.965 212.551 596.498C212.364 575.936 212.177 555.188 210.121 534.626Z" fill="#9CCDEE"/>
</svg>
