<svg width="662" height="902" viewBox="0 0 662 902" fill="none" xmlns="http://www.w3.org/2000/svg">
<path d="M268.072 172.331C281.818 196.846 317.835 182.346 339.156 194.205C358.977 205.474 363.742 230.8 375.512 249.326C394.234 281.01 425.539 282.897 457.479 291.983C516.56 309.137 561.305 364.951 569.24 426.269C582.161 527.767 504.304 622.23 400.361 617.836C385.834 617.335 371.148 615.035 356.325 615.286C305.579 618.782 278.891 673.433 245.8 704.72C202.566 744.178 143.22 765.14 85.1098 763.135C7.67573 759.611 -66.0815 711.497 -104.888 644.988C-156.828 556.81 -152.179 404.025 -56.6251 346.054C-42.1399 337.852 -25.1084 329.783 -19.1917 314.738C-9.27074 291.712 -25.8373 272.168 -34.4693 252.27C-43.2597 230.572 -46.6617 208.388 -44.3796 184.964C-39.6568 139.916 -12.3134 96.8145 26.2082 73.744C90.2665 36.3946 233.47 46.6728 257.243 131.591C261.511 147.167 261.733 162.021 268.072 172.331Z" fill="#9CCDEE"/>
<circle cx="309.522" cy="429.087" r="20.1737" fill="white"/>
</svg>
