<svg width="34" height="34" viewBox="0 0 34 34" fill="none" xmlns="http://www.w3.org/2000/svg">
<path d="M25.0357 8.86552C24.8829 8.69853 24.6417 8.65375 24.4419 8.73893L7.81053 15.843C7.62628 15.9218 7.50516 16.0979 7.50068 16.2945C7.49619 16.4908 7.60902 16.6719 7.78983 16.7588L11.761 18.6645L12.7506 24.4575C12.7827 24.6774 12.9597 24.8541 13.1902 24.8861C13.3558 24.9093 13.5204 24.8524 13.6343 24.738L16.7694 21.6788L21.2433 24.7972C21.3868 24.8969 21.5718 24.9188 21.7346 24.8558C21.8979 24.7928 22.0172 24.6531 22.0517 24.4851L25.1572 9.30052C25.1879 9.15002 25.1482 8.98875 25.0357 8.86552ZM12.1709 17.7355L9.24663 16.3322L20.7996 11.3974L12.1709 17.7355ZM13.7906 19.2368L13.3092 21.5852L12.7899 18.5449L19.1378 13.8822L13.9317 18.9793C13.8586 19.0506 13.8099 19.1436 13.7906 19.2368ZM14.1056 22.8495L14.6487 20.2008L15.9154 21.0836L14.1056 22.8495ZM21.1933 23.5208L15.0952 19.2708L23.8067 10.7422L21.1933 23.5208Z" fill="#4388C8"/>
<circle cx="17.438" cy="17.1621" r="16.0625" stroke="#4388C8"/>
</svg>
