<svg width="31" height="34" viewBox="0 0 31 34" fill="none" xmlns="http://www.w3.org/2000/svg">
<path d="M27.0971 3.67935C26.8922 3.47027 26.5564 3.46676 26.3474 3.67195C26.1383 3.87687 26.1349 4.21251 26.34 4.4216C28.3269 6.44857 29.4212 9.1284 29.4212 11.9673V17.0569C29.4212 23.001 24.5853 27.837 18.6412 27.837H12.4206C12.28 27.837 12.1452 27.8928 12.0456 27.9922L7.86116 32.1768V27.4251C7.86116 27.2144 7.73632 27.0236 7.5433 26.9393C3.61393 25.2223 1.07502 21.3433 1.07502 17.0569V11.9673C1.07502 6.0232 5.91089 1.18726 11.8551 1.18726H18.6412C20.7597 1.18726 22.81 1.80129 24.5703 2.9627C24.8147 3.12404 25.1435 3.05653 25.3048 2.8122C25.466 2.56774 25.3987 2.23897 25.1543 2.07769C23.2199 0.801554 20.9679 0.126953 18.6412 0.126953H11.855C5.32629 0.126953 0.0146484 5.43859 0.0146484 11.9673V17.0569C0.0146484 21.648 2.66676 25.8138 6.80079 27.7664V33.4567C6.80079 33.918 7.37839 34.1589 7.7059 33.8317L12.6402 28.8973H18.6412C25.1699 28.8973 30.4816 23.5857 30.4816 17.057V11.9674C30.4815 8.84915 29.2796 5.90569 27.0971 3.67935Z" fill="#6C1CD2"/>
<path d="M23.7512 21.1763L23.2427 18.422C23.2033 18.2087 23.0379 18.0409 22.8253 17.9983L18.8266 17.1986C18.6528 17.164 18.4731 17.2183 18.3477 17.3436L16.7059 18.9855C13.9386 17.7503 12.4095 16.2181 11.0626 13.3323L12.6994 11.6955C12.8246 11.5702 12.8791 11.3905 12.8444 11.2166L12.0447 7.21781C12.0021 7.00509 11.8344 6.83978 11.621 6.80044L8.86683 6.29207C8.79608 6.27885 8.72334 6.2805 8.65319 6.29644C7.93243 6.46016 7.27476 6.82338 6.75132 7.34689C5.84515 8.25312 5.49899 9.5772 5.75052 11.1758C5.86505 11.9035 6.03526 12.6575 6.25644 13.4168C6.33844 13.6981 6.63315 13.8591 6.91378 13.7776C7.19495 13.6957 7.35642 13.4014 7.27456 13.1203C7.06587 12.404 6.90558 11.6943 6.79807 11.0108C6.59864 9.7431 6.83516 8.76261 7.50123 8.09654C7.85837 7.73934 8.30094 7.48449 8.78656 7.35535L11.0755 7.77795L11.7492 11.1463L10.0527 12.8427C9.89738 12.9981 9.85394 13.2331 9.94347 13.4338C11.4857 16.8875 13.2949 18.6954 16.6187 20.1037C16.8178 20.188 17.0478 20.1431 17.2005 19.9905L18.8969 18.294L22.2652 18.9677L22.6879 21.2566C22.5587 21.7422 22.3038 22.1847 21.9468 22.5419C21.2805 23.2079 20.2998 23.4445 19.0322 23.2449C16.4979 22.8462 12.9825 21.6158 10.7169 19.3592L10.6843 19.3266C9.64208 18.2802 8.71309 16.837 7.99796 15.1529C7.88343 14.8833 7.57225 14.7578 7.30273 14.8721C7.03321 14.9866 6.9075 15.2978 7.02196 15.5673C7.7896 17.3748 8.79628 18.9335 9.93507 20.077L9.96787 20.1096C12.4139 22.546 16.1689 23.8678 18.8674 24.2924C19.206 24.3456 19.5322 24.3721 19.8449 24.3721C21.0081 24.3721 21.9819 24.0057 22.6963 23.2915C23.2197 22.768 23.583 22.1103 23.7467 21.3897C23.7627 21.3197 23.7643 21.247 23.7512 21.1763Z" fill="#6C1CD2"/>
<path d="M16.3792 9.74072C16.0863 9.74072 15.849 9.97804 15.849 10.2709C15.849 10.5638 16.0863 10.8011 16.3792 10.8011C17.646 10.8011 18.6765 11.8316 18.6765 13.0985C18.6765 13.3874 18.9178 13.6286 19.2067 13.6286C19.4956 13.6286 19.7369 13.3874 19.7369 13.0985C19.7369 11.247 18.2306 9.74072 16.3792 9.74072Z" fill="#6C1CD2"/>
<path d="M16.3789 7.47852C16.1711 7.47852 15.9612 7.49002 15.7553 7.5127C15.4642 7.54484 15.2544 7.80682 15.2864 8.09784C15.3186 8.38878 15.5804 8.59794 15.8716 8.56666C16.0391 8.54814 16.2097 8.53875 16.3789 8.53875C18.8929 8.53875 20.9383 10.5841 20.9383 13.0982C20.9383 13.2674 20.9289 13.4381 20.9104 13.6055C20.8784 13.8966 21.0883 14.1586 21.3793 14.1907C21.6664 14.2217 21.9327 14.0096 21.9644 13.7219C21.9871 13.516 21.9986 13.3061 21.9986 13.0982C21.9987 9.99951 19.4777 7.47852 16.3789 7.47852Z" fill="#6C1CD2"/>
<path d="M16.3793 5.2168C16.178 5.2168 15.9743 5.22453 15.7737 5.23968C15.4818 5.26183 15.263 5.51641 15.2852 5.80841C15.3074 6.10042 15.5607 6.31869 15.8539 6.29694C16.0279 6.28371 16.2047 6.2771 16.3793 6.2771C20.1407 6.2771 23.2008 9.3372 23.2008 13.0986C23.2008 13.6308 23.1394 14.1605 23.0183 14.6732C22.9526 14.9509 23.1265 15.2373 23.4025 15.3085C23.6861 15.3816 23.9829 15.2018 24.0501 14.917C24.1901 14.3246 24.261 13.7129 24.261 13.0986C24.2611 8.7526 20.7253 5.2168 16.3793 5.2168Z" fill="#6C1CD2"/>
</svg>
