<svg width="41" height="41" viewBox="0 0 41 41" fill="none" xmlns="http://www.w3.org/2000/svg">
<circle cx="20.0273" cy="20.7051" r="19.5" stroke="#092640"/>
<path d="M29.7773 24.4163C29.3049 23.8502 28.7713 23.3448 28.2552 22.856C28.0738 22.6842 27.8862 22.5065 27.7055 22.3301C27.7055 22.3301 27.7055 22.3301 27.7054 22.33C27.4624 22.093 27.3434 21.9247 27.331 21.8005C27.3188 21.6783 27.4023 21.4971 27.5943 21.2292C27.8813 20.8263 28.1873 20.4227 28.4834 20.0324C28.7465 19.6855 29.0185 19.3267 29.2793 18.9659L29.3378 18.8849C29.8465 18.1808 30.3725 17.4527 30.6544 16.5655C30.7349 16.3111 30.8185 15.9346 30.6169 15.6042C30.4152 15.2736 30.0412 15.1756 29.7777 15.1308C29.6489 15.1087 29.5268 15.1069 29.4131 15.1069L26.1132 15.104C25.5427 15.0945 25.1469 15.3649 24.9312 15.9079C24.7586 16.3416 24.5547 16.8442 24.3185 17.321C23.8666 18.2415 23.2924 19.3017 22.4601 20.185L22.4231 20.2243C22.3665 20.2848 22.2739 20.3837 22.2264 20.4064C22.1362 20.3498 22.0321 20.0257 22.0369 19.8559C22.037 19.8517 22.0371 19.8476 22.0371 19.8434L22.0341 16.0304C22.0341 16.0111 22.0328 15.9917 22.0302 15.9725C21.9562 15.4285 21.8119 14.8832 20.9509 14.7133C20.9233 14.7078 20.8953 14.7051 20.8672 14.7051H17.4346C16.7888 14.7051 16.4472 15.0008 16.1733 15.3214C16.0941 15.4149 15.8834 15.6631 15.9907 15.9665C16.0993 16.2736 16.4228 16.3348 16.529 16.3549C16.9031 16.4259 17.0966 16.6374 17.1564 17.0415C17.2748 17.8269 17.2893 18.667 17.2022 19.6842C17.1779 19.9573 17.1326 20.1648 17.0597 20.3375C17.0395 20.3853 17.0218 20.4149 17.0094 20.4323C16.9896 20.4243 16.9589 20.4091 16.9163 20.3799C16.6534 20.2 16.4553 19.9204 16.2638 19.6501C15.4986 18.5697 14.8549 17.3765 14.2958 16.0017C14.0655 15.4384 13.6327 15.1237 13.0778 15.1156C12.0205 15.098 11.0427 15.0984 10.0895 15.1169C9.63987 15.1247 9.32458 15.2663 9.15222 15.5377C8.97964 15.8096 8.98596 16.1562 9.17105 16.5682C10.4941 19.5103 11.6955 21.6506 13.0662 23.508C14.0314 24.8156 15.003 25.7233 16.1238 26.3646C17.3014 27.0383 18.6295 27.3685 20.1702 27.3685C20.3454 27.3685 20.5237 27.3642 20.7043 27.3556C21.6549 27.3123 22.0416 26.9342 22.0838 26.0084C22.1075 25.519 22.162 25.1227 22.3509 24.7783C22.4038 24.6819 22.4634 24.6172 22.5104 24.6054C22.5603 24.5929 22.6489 24.6235 22.7475 24.6875C22.9276 24.8045 23.0827 24.9631 23.2102 25.1023C23.3395 25.2439 23.4701 25.3901 23.5966 25.5314C23.8656 25.8324 24.1438 26.1437 24.4352 26.4406C25.0944 27.1125 25.8543 27.4207 26.6948 27.3562L29.7148 27.3576C29.7148 27.3576 29.7149 27.3576 29.7149 27.3576C29.7245 27.3576 29.7341 27.3573 29.7437 27.3566C30.092 27.3334 30.3932 27.1406 30.57 26.8274C30.783 26.4503 30.7798 25.9726 30.5613 25.5491C30.3333 25.1088 30.0374 24.7299 29.7773 24.4163ZM29.8168 26.4021C29.7751 26.4758 29.7238 26.4893 29.6972 26.4925L26.6779 26.4911C26.6779 26.4911 26.6778 26.4911 26.6776 26.4911C26.6657 26.4911 26.6538 26.4915 26.642 26.4926C26.0472 26.5421 25.5416 26.333 25.0526 25.8347C24.7753 25.5521 24.504 25.2486 24.2416 24.955C24.1137 24.812 23.9815 24.664 23.8486 24.5186C23.6839 24.3387 23.4803 24.1319 23.2187 23.962C22.8269 23.7078 22.5023 23.7154 22.299 23.7667C22.0979 23.8174 21.8119 23.962 21.5925 24.3625C21.3081 24.8807 21.2454 25.4398 21.2199 25.968C21.2051 26.291 21.1505 26.3763 21.1277 26.398C21.0978 26.4264 20.9979 26.4764 20.6645 26.4916C19.0623 26.5669 17.7178 26.28 16.5534 25.6138C15.5405 25.0343 14.6536 24.2019 13.7623 22.9944C12.4296 21.1885 11.2569 19.0973 9.96012 16.2137C9.91313 16.1093 9.89862 16.0441 9.89442 16.0092C9.92751 15.9983 9.99214 15.984 10.1055 15.9819C11.049 15.9637 12.0166 15.9631 13.0643 15.9806C13.2078 15.9827 13.3711 16.0258 13.4948 16.3284C14.0789 17.7648 14.7538 19.0149 15.5579 20.1502C15.7714 20.4515 16.0371 20.8266 16.4277 21.0939C16.7855 21.3388 17.0758 21.3271 17.2564 21.2742C17.437 21.2212 17.6878 21.0741 17.8567 20.6742C17.9656 20.4165 18.0315 20.1262 18.0641 19.7596C18.1573 18.6716 18.1407 17.767 18.0121 16.9138C17.9215 16.3025 17.6059 15.8609 17.1087 15.6354C17.197 15.5895 17.2965 15.5703 17.4347 15.5703H20.8224C21.013 15.613 21.0507 15.6632 21.0637 15.6804C21.1186 15.7534 21.1499 15.9261 21.1691 16.061L21.172 19.8388C21.1644 20.2009 21.3404 21.0041 21.9396 21.2244C21.9446 21.2262 21.9495 21.2279 21.9545 21.2295C22.5001 21.4078 22.861 21.0227 23.0547 20.8157L23.0892 20.779C24.0009 19.8114 24.6148 18.6808 25.0945 17.7038C25.3444 17.1993 25.5562 16.6775 25.7352 16.2277C25.8247 16.0021 25.9063 15.9649 26.1008 15.969C26.1034 15.9691 26.1061 15.9691 26.1088 15.9691L29.4129 15.972C29.4897 15.972 29.5699 15.9729 29.6321 15.9836C29.7896 16.0104 29.8544 16.043 29.8758 16.0566C29.878 16.0816 29.8775 16.1537 29.8299 16.3042C29.5902 17.0587 29.1271 17.6997 28.6367 18.3784L28.5782 18.4595C28.3234 18.812 28.0544 19.1667 27.7943 19.5098C27.4944 19.9051 27.1845 20.3138 26.8906 20.7263C26.2623 21.6029 26.3175 22.1847 27.1016 22.9494C27.2869 23.1303 27.4768 23.3102 27.6605 23.4842C28.1814 23.9776 28.6734 24.4436 29.1125 24.9697C29.3424 25.2468 29.603 25.5797 29.7929 25.9464C29.892 26.1384 29.8677 26.3119 29.8168 26.4021Z" fill="#092640"/>
</svg>
