<svg width="34" height="34" viewBox="0 0 34 34" fill="none" xmlns="http://www.w3.org/2000/svg">
<path d="M28.1899 4.96108C25.0725 1.84376 20.9279 0.126953 16.5193 0.126953C12.1108 0.126953 7.9661 1.84376 4.84878 4.96108C1.73146 8.0784 0.0146484 12.2231 0.0146484 16.6316C0.0146484 19.9572 0.995387 23.1514 2.85384 25.8885L0.0564259 32.4158C-0.126866 32.8434 0.331848 33.287 0.753684 33.0861L6.99728 30.113C9.79225 32.092 13.0777 33.1363 16.5193 33.1363C20.9279 33.1363 25.0725 31.4195 28.1899 28.3022C31.3072 25.1849 33.024 21.0402 33.024 16.6316C33.024 12.2231 31.3072 8.0784 28.1899 4.96108ZM16.5193 32.1026C13.1956 32.1026 10.0277 31.0639 7.35794 29.0985C7.20604 28.9867 6.9996 28.9671 6.82934 29.0482L1.54623 31.5638L3.91658 26.0332C3.98724 25.8683 3.96739 25.6786 3.86398 25.532C2.02196 22.9176 1.04832 19.84 1.04832 16.6316C1.04832 8.1009 7.9886 1.16062 16.5193 1.16062C25.05 1.16062 31.9903 8.1009 31.9903 16.6316C31.9903 25.1623 25.05 32.1026 16.5193 32.1026Z" fill="#1BA92A"/>
<path d="M25.613 6.32027C25.3991 6.1313 25.0724 6.15181 24.8835 6.36579C24.6946 6.57977 24.715 6.90638 24.9289 7.09528C27.6646 9.5098 29.2337 12.9856 29.2337 16.6314C29.2337 23.6422 23.53 29.3459 16.5193 29.3459C9.50847 29.3459 3.80482 23.6422 3.80482 16.6314C3.80482 9.62062 9.50847 3.91697 16.5193 3.91697C18.7547 3.91697 20.9528 4.50508 22.8762 5.61766C23.1233 5.76066 23.4394 5.67614 23.5824 5.42902C23.7253 5.1819 23.6409 4.8658 23.3939 4.7228C21.3133 3.51944 18.9361 2.8833 16.5193 2.8833C8.93848 2.8833 2.77115 9.05063 2.77115 16.6314C2.77115 24.2122 8.93848 30.3796 16.5193 30.3796C24.1001 30.3796 30.2674 24.2122 30.2674 16.6314C30.2674 12.6891 28.5709 8.93091 25.613 6.32027Z" fill="#1BA92A"/>
<path d="M25.297 22.2353L24.8013 19.5502C24.7629 19.3423 24.6017 19.1788 24.3944 19.1372L20.4962 18.3577C20.3267 18.324 20.1515 18.3769 20.0293 18.4991L18.4288 20.0997C15.731 18.8955 14.2403 17.4017 12.9272 14.5885L14.523 12.9927C14.6451 12.8706 14.6982 12.6954 14.6643 12.5259L13.8847 8.62757C13.8432 8.42023 13.6796 8.25905 13.4717 8.22062L10.7866 7.7249C10.7177 7.71214 10.6467 7.71362 10.5783 7.72916C9.87573 7.88885 9.23456 8.243 8.7244 8.75322C7.84095 9.63667 7.5035 10.9275 7.74869 12.4859C7.97208 13.9062 8.42267 15.451 9.01736 16.8356C9.13005 17.0979 9.43404 17.2193 9.69624 17.1065C9.95851 16.9938 10.0798 16.69 9.96715 16.4276C9.40541 15.1199 8.98022 13.6629 8.76979 12.3253C8.57541 11.0893 8.80602 10.1334 9.45531 9.48413C9.80339 9.13599 10.2348 8.88758 10.7084 8.7616L12.9399 9.17358L13.5966 12.4574L11.9428 14.1112C11.7914 14.2626 11.7489 14.4918 11.8364 14.6874C13.3398 18.0543 15.1036 19.8166 18.3439 21.1898C18.538 21.2719 18.7621 21.2282 18.9111 21.0794L20.5648 19.4256L23.8485 20.0823L24.2606 22.3138C24.1347 22.7872 23.8862 23.2187 23.5381 23.5669C22.8888 24.2161 21.9327 24.4468 20.6969 24.2523C18.2263 23.8636 14.7993 22.6642 12.5905 20.4642L12.5588 20.4324C11.9589 19.8302 11.4003 19.0997 10.8986 18.261C10.7522 18.0161 10.4348 17.9363 10.1898 18.0828C9.94478 18.2293 9.86503 18.5467 10.0116 18.7917C10.5564 19.7025 11.167 20.5 11.8282 21.164L11.8602 21.1959C14.2449 23.5711 17.9056 24.8597 20.5362 25.2734C21.5851 25.4385 22.712 25.3611 23.6363 24.7962C23.866 24.6559 24.0786 24.4881 24.2689 24.2978C24.7792 23.7874 25.1333 23.1463 25.2929 22.4437C25.3084 22.3752 25.3098 22.3043 25.297 22.2353Z" fill="#1BA92A"/>
</svg>
