<svg width="160" height="547" viewBox="0 0 160 547" fill="none" xmlns="http://www.w3.org/2000/svg">
<path d="M159.523 332.651C159.523 326.941 159.237 321.232 158.95 315.523C159.237 315.237 159.237 315.237 159.237 314.952V314.666C159.237 314.666 159.237 314.381 158.95 314.381C157.519 288.974 153.511 263.567 146.641 239.016C140.057 215.322 132.042 188.487 104.847 183.063C104.847 182.778 104.561 182.492 104.561 182.492C104.561 176.783 104.561 171.073 104.274 165.364C106.564 163.651 108.568 161.653 110.286 159.084C117.156 149.092 119.733 136.246 120.591 124.256C121.164 124.541 121.736 124.256 122.023 123.971C122.023 123.971 122.309 123.971 122.309 123.685C126.603 119.688 128.034 114.55 128.893 108.84C129.752 99.7054 129.752 90.5703 130.038 81.4351C130.61 63.1649 130.324 44.6092 124.885 26.9099C124.599 25.1971 124.313 23.4842 123.74 21.7714C124.313 21.2005 123.74 20.6295 123.454 20.6295C122.881 19.2021 122.309 17.4893 121.736 16.3474C122.023 15.7765 121.736 15.2055 121.164 15.2055C120.591 14.3491 120.305 13.4927 119.732 12.6363C120.019 12.0653 119.446 11.4944 119.16 11.4944C118.301 10.3525 117.442 9.21061 116.297 8.35419C116.297 7.78325 116.011 7.2123 115.152 7.49777C114.007 6.35588 112.862 5.49947 111.431 4.92852C111.717 4.35758 110.858 3.50116 110.286 4.0721C106.278 2.0738 101.698 0.931907 96.2591 0.646435C79.3697 0.0754896 62.4803 6.64136 55.3238 22.3423C47.3085 40.0416 47.0222 61.7375 44.4459 80.5787C43.0145 91.7121 35.858 114.264 48.7398 121.401C47.881 134.248 47.5947 147.665 53.8925 159.369C55.3238 161.938 56.7551 163.937 58.4726 165.364C58.4726 171.073 58.7589 177.068 58.7589 182.778C58.4726 182.778 58.4726 182.778 58.1864 183.063C37.0031 197.622 21.2587 218.747 12.6709 242.727C2.36548 271.845 1.79296 303.818 0.93418 334.364C0.647919 335.22 0.647919 336.362 1.79296 336.647C1.22044 341.786 1.22044 347.21 5.51436 350.921C10.6671 355.489 18.3961 357.202 24.9801 358.058C25.2664 358.058 25.8389 358.058 26.1251 357.772C28.129 413.725 31.8504 469.678 46.1634 524.203C45.8772 524.488 45.8772 524.488 45.5909 524.774H45.3046C40.4382 527.058 29.5603 531.34 28.4152 537.62C26.9839 544.757 38.7206 544.757 43.0145 545.328C49.5986 546.184 60.7627 548.754 66.488 544.471C71.9269 540.475 70.4956 531.34 69.9231 525.63C69.9231 525.059 69.6368 524.774 69.3506 524.488C69.3506 523.346 69.6368 522.49 69.6368 521.348C69.6368 521.348 69.6368 521.348 69.6368 521.063C69.6368 520.777 69.6368 520.492 69.6368 520.492C71.9269 502.507 73.6445 484.237 75.0758 465.967C75.0758 465.681 75.362 465.681 75.362 465.396C75.6483 465.11 75.362 464.539 75.0758 464.539C75.362 460.828 75.6483 456.831 75.6483 453.12L75.9346 452.835C76.5071 452.549 76.2208 451.978 75.6483 451.693C76.7934 428.284 77.3659 404.875 76.7934 381.467C77.9384 381.181 78.7972 381.181 79.9422 380.896C81.6598 418.578 84.8087 455.975 89.9614 493.372C89.6751 493.657 89.9614 493.943 89.9614 494.228C91.3927 505.362 93.1102 516.495 94.8278 527.343C94.8278 527.914 95.114 528.2 95.4003 528.485C95.4003 534.194 95.114 541.902 101.126 544.186C105.133 545.613 110.572 545.613 114.58 545.613C118.874 545.899 124.313 546.184 128.607 544.186C133.187 541.902 135.477 536.764 132.328 532.482C128.607 527.629 121.164 525.63 114.866 524.774C115.725 521.634 115.439 518.208 115.725 515.353C116.87 506.789 118.015 497.939 118.874 489.375C121.164 471.676 123.454 453.691 125.458 435.992C128.893 409.728 133.187 383.18 134.332 356.345C140.63 355.203 146.355 353.205 152.08 350.35C155.229 348.637 156.374 348.352 157.519 344.926C158.664 341.501 158.664 338.075 158.378 334.649C158.378 334.364 158.378 334.364 158.664 334.078C159.237 334.078 159.523 333.507 159.523 332.651ZM94.5415 497.654C101.698 492.516 109.713 489.09 116.011 483.38C115.725 484.522 115.725 486.235 115.439 487.948C108.855 493.086 101.984 497.654 94.8278 501.651C94.8278 500.223 94.8278 498.796 94.5415 497.654ZM115.439 489.946C115.439 491.088 115.152 492.23 114.866 493.657C108.855 498.51 101.412 500.794 95.6866 505.933C95.6866 505.076 95.4003 504.22 95.4003 503.363C102.271 499.081 108.855 494.799 115.439 489.946ZM111.431 524.774C111.145 524.774 111.145 524.774 110.858 524.774C110.286 524.774 109.427 525.059 109.141 525.63C107.423 525.916 105.706 525.916 103.702 526.201C105.419 524.774 106.851 523.632 108.568 522.205C109.427 521.634 110.572 520.777 111.717 519.921C111.717 521.919 111.717 523.346 111.431 524.774ZM99.1217 526.772L98.8354 526.487C98.8354 525.916 98.8354 525.63 98.5492 525.059C103.129 521.634 107.71 518.493 112.29 515.068C112.29 515.924 112.003 517.066 112.003 517.922C111.145 518.493 110.286 519.064 109.713 519.635C108.282 520.777 107.137 521.919 105.706 523.061C104.274 524.203 102.557 525.63 101.126 526.772C100.553 526.487 99.6942 526.487 99.1217 526.772ZM112.576 512.784C107.71 516.21 103.129 519.635 98.2629 523.061C97.9767 522.205 97.9767 521.063 97.6904 520.206C101.698 517.637 105.706 515.068 109.713 512.784C110.572 512.213 111.431 511.928 112.576 511.071C112.862 511.642 112.576 512.213 112.576 512.784ZM99.408 530.483C101.698 530.198 103.702 530.198 105.992 529.912C103.988 531.34 101.698 532.767 99.408 534.194C99.408 533.053 99.408 531.911 99.408 530.483ZM113.148 509.073C110.858 511.071 106.564 513.069 105.419 513.64C102.843 515.353 100.267 516.781 97.6904 518.493C97.4041 517.352 97.4041 516.21 97.1179 515.068C103.129 511.928 108.568 508.216 113.721 503.934C113.435 505.933 113.148 507.36 113.148 509.073ZM114.007 500.509C113.435 500.794 113.435 501.365 113.721 501.651C108.568 506.218 102.843 510.215 96.8316 513.64C96.8316 513.069 96.5454 512.499 96.5454 512.213C102.271 507.931 108.282 503.649 114.007 499.367C114.007 499.938 114.007 500.223 114.007 500.509ZM114.294 497.368C108.282 501.651 102.271 506.218 96.2591 510.5C96.2591 509.644 95.9728 508.787 95.9728 507.646C101.412 502.507 108.568 499.938 114.58 495.656C114.58 496.227 114.58 496.798 114.294 497.368ZM116.584 479.384C116.584 479.669 116.584 480.24 116.297 480.811C109.713 487.377 101.698 490.803 94.2553 495.941C94.2553 495.085 93.969 493.943 93.969 493.086C102.557 488.233 110.286 482.524 117.156 475.387C116.87 476.814 116.87 478.242 116.584 479.384ZM117.442 473.103C110.286 480.526 102.557 486.521 93.6827 491.659C93.3965 490.232 93.3965 489.09 93.1102 487.662C101.126 481.097 111.145 477.1 117.729 469.107C117.729 470.249 117.442 471.676 117.442 473.103ZM118.587 464.254C118.015 464.254 117.729 465.396 118.301 465.681C118.301 465.681 118.301 465.681 118.301 465.967C117.442 466.823 112.862 471.961 112.003 472.818C109.713 474.816 107.137 476.529 104.561 477.956C100.553 480.526 96.8316 482.809 93.1102 485.664C92.824 483.951 92.824 482.524 92.5377 480.811C99.1217 476.814 105.706 472.818 111.717 467.679C113.148 466.538 116.584 464.254 118.874 461.97C118.587 463.112 118.587 463.683 118.587 464.254ZM119.16 459.115C116.584 462.255 105.706 470.534 105.133 471.105C101.126 473.96 96.5454 476.814 92.2514 479.384C91.9652 477.671 91.9652 475.958 91.6789 474.245C101.126 467.394 110.572 460.543 120.019 453.691C119.446 455.69 119.446 457.402 119.16 459.115ZM90.8201 468.25C97.1179 463.968 103.416 459.401 109.713 455.119C113.721 452.549 117.442 449.98 120.591 446.554C120.305 448.267 120.305 449.695 120.019 451.407C118.015 452.549 114.58 455.404 113.721 456.26C110.858 458.259 107.996 460.257 105.133 462.541C100.553 465.967 95.6866 469.392 91.1064 472.818C91.1064 471.105 91.1064 469.678 90.8201 468.25ZM121.164 443.985C116.87 449.409 110.572 452.835 105.133 456.831C100.267 459.972 95.6866 463.397 90.8201 466.537C90.5339 464.825 90.5339 463.397 90.2476 461.684C101.698 454.833 112.003 447.125 122.023 437.99C121.45 439.989 121.164 441.987 121.164 443.985ZM122.595 431.995C122.309 433.137 122.309 434.279 122.023 435.421C112.003 444.556 101.412 452.549 89.9614 459.686C89.6751 457.973 89.6751 456.26 89.3888 454.548C100.553 446.84 113.435 441.416 122.595 431.424C122.595 431.71 122.595 431.995 122.595 431.995ZM122.881 428.855C114.007 439.703 100.553 445.127 89.1026 453.12C88.8163 451.122 88.8163 448.838 88.5301 446.84C100.839 438.847 112.862 429.997 124.026 420.291C123.74 422.86 123.454 426 122.881 428.855ZM72.2132 447.696C62.4803 457.688 48.7398 462.541 39.0069 472.532C38.7206 470.249 38.4344 468.25 38.1481 465.967C48.7398 456.26 61.9078 450.551 72.7857 440.845C72.4994 443.129 72.4994 445.413 72.2132 447.696ZM39.2932 474.531C48.7398 464.539 62.194 459.686 72.2132 450.266C72.2132 451.693 71.9269 453.406 71.9269 454.833C61.6215 463.112 50.7436 471.105 39.8657 478.813C39.8657 477.385 39.5794 475.958 39.2932 474.531ZM72.7857 438.847C62.194 448.838 48.7398 454.833 37.8619 464.254C37.5756 461.97 37.2893 459.686 37.0031 457.688C49.8848 449.124 61.9078 439.418 73.072 428.855C73.072 431.995 72.7857 435.421 72.7857 438.847ZM4.94183 326.941C9.23575 321.803 13.8159 316.664 18.6824 312.097C19.2549 312.097 20.1137 312.097 20.9725 312.097C15.5335 318.092 10.0945 324.087 4.94183 330.082C4.94183 329.225 4.94183 328.083 4.94183 326.941ZM4.94183 324.658C4.94183 323.801 4.94183 322.945 4.94183 322.088C8.09071 318.948 11.2396 315.808 14.3884 312.382C14.3884 312.382 14.3884 312.382 14.3884 312.097C14.961 312.097 15.5335 312.097 15.8198 312.097C12.3846 316.093 8.66323 320.376 4.94183 324.658ZM5.2281 319.805C5.2281 318.663 5.2281 317.521 5.51436 316.379C6.94566 314.952 8.37697 313.524 9.80827 312.097C9.80827 312.097 9.80827 312.097 9.80827 311.811C10.6671 312.097 11.5258 312.097 12.6709 312.097C10.0945 314.666 7.80444 317.235 5.2281 319.805ZM5.51436 314.095C5.51436 312.953 5.51436 312.097 5.80062 310.955C6.6594 311.24 7.51818 311.526 8.37697 311.526C7.23192 312.382 6.37314 313.239 5.51436 314.095ZM4.65557 333.222C4.65557 332.936 4.65557 332.651 4.65557 332.365C10.3808 325.514 16.6785 318.663 22.69 311.811C22.69 311.811 22.9763 311.811 22.9763 311.526C23.5488 311.526 23.8351 311.24 24.1213 311.24C24.1213 311.811 24.1213 312.382 24.1213 312.953C24.1213 312.953 23.8351 312.953 23.8351 313.239C18.1098 319.805 12.3846 326.656 6.6594 333.507C6.08688 333.507 5.51436 333.507 4.65557 333.222ZM132.328 323.23C132.328 326.656 132.328 330.082 132.042 333.222C131.755 333.222 131.183 333.507 130.897 333.793C98.2629 346.924 61.3353 337.789 27.8427 332.365C27.8427 329.511 27.5565 326.656 27.5565 323.801C62.4803 329.225 97.6904 329.225 132.328 323.23ZM154.943 312.668C152.08 314.381 149.79 316.664 147.5 319.519C143.778 323.801 140.343 328.083 136.622 332.08C136.336 332.08 136.336 332.08 136.049 331.794C136.049 331.509 136.049 331.224 136.049 330.938C140.63 324.658 145.782 318.948 151.507 313.81C151.794 313.524 151.794 312.953 151.507 312.668C152.653 312.382 153.798 312.382 154.943 312.097C154.943 312.382 154.943 312.668 154.943 312.668ZM130.897 353.776C130.038 354.632 130.038 356.06 130.897 356.631C130.61 361.769 130.324 367.193 130.038 372.332C122.309 375.186 114.007 374.901 105.992 375.472C99.1217 375.757 92.5377 376.328 85.6674 376.614C83.6636 365.48 82.2323 354.347 81.0873 343.213C81.0873 342.071 80.2285 341.501 79.3697 341.501C96.8316 342.928 114.294 342.071 130.897 335.506C130.897 341.501 130.897 347.781 130.897 353.776ZM84.5224 393.742C90.5339 388.603 96.8316 383.75 103.416 379.468C105.133 379.468 106.564 379.183 108.282 379.183C100.553 385.463 92.5377 391.744 84.8087 398.024C84.8087 396.597 84.8087 395.169 84.5224 393.742ZM85.0949 399.737C93.6827 392.886 102.557 385.749 111.145 378.897C113.721 378.897 116.011 378.612 118.587 378.327C107.71 386.891 96.5454 395.169 85.3812 403.448C85.0949 402.306 85.0949 401.164 85.0949 399.737ZM75.6483 377.756C75.0758 377.47 74.5033 377.756 73.9307 378.041C73.6445 377.756 73.3582 377.47 73.072 377.47C73.072 376.899 73.3582 376.614 73.3582 376.043C73.6445 376.043 73.9307 376.043 74.217 375.757C76.2208 373.759 78.2246 371.475 80.2285 369.477C80.5147 370.619 80.5147 371.475 80.801 372.617C79.3697 374.33 77.6521 376.043 75.6483 377.756ZM73.3582 395.74C63.3391 410.299 47.5947 420.862 34.1405 431.995C33.8542 429.712 33.8542 427.713 33.5679 425.429C48.1672 414.867 61.6215 402.592 73.3582 388.889C73.3582 391.173 73.3582 393.457 73.3582 395.74ZM60.7627 381.752C63.6253 381.752 66.488 381.752 69.3506 381.467C66.7742 384.036 63.6253 385.749 60.7627 388.033C57.6139 390.602 55.0375 393.742 52.4612 396.882C46.4497 403.734 39.5794 410.014 32.7092 416.009C32.4229 414.011 32.4229 412.012 32.1366 410.014C37.2893 404.875 42.442 400.022 47.5947 394.884C50.1711 392.315 52.7474 389.745 55.3238 387.462C57.0413 385.463 59.3314 383.75 60.7627 381.752ZM30.7053 385.463C32.9954 383.18 35.2855 380.896 37.5756 378.612C39.2932 378.897 41.0107 379.183 42.7283 379.468C38.7206 382.609 34.713 386.034 30.9916 389.745C30.9916 388.604 30.9916 387.176 30.7053 385.463ZM31.2778 392.029C35.5718 387.747 40.1519 383.75 45.0184 380.039C47.0222 380.325 48.7398 380.61 50.7436 380.896C43.8733 386.605 37.5756 393.171 31.8504 399.737C31.5641 397.168 31.2778 394.598 31.2778 392.029ZM30.1328 373.473C29.5603 361.198 29.274 348.637 28.7015 336.362C28.7015 335.791 28.4152 335.22 28.129 334.935C28.129 334.649 28.129 334.078 28.129 333.793C44.4459 336.647 61.9078 340.073 79.0834 341.501C78.2246 341.501 77.3659 341.786 77.0796 342.928C74.5033 354.347 71.6406 366.051 69.0643 377.756C56.1826 379.183 43.3008 375.757 30.1328 373.473ZM79.3697 362.055C79.3697 362.055 79.3697 362.34 79.3697 362.055C78.2247 363.196 77.0796 364.338 75.9346 365.48C76.7933 361.769 77.6521 358.343 78.5109 354.632C78.7972 357.202 79.0834 359.771 79.3697 362.055ZM75.362 368.049C76.7934 366.622 78.2247 365.48 79.656 364.053C79.9422 365.195 79.9422 366.337 80.2285 367.479C78.2246 369.477 76.2208 371.761 74.217 373.759C74.5033 371.761 74.7895 370.048 75.362 368.049ZM136.336 328.369C136.336 326.941 136.336 325.514 136.336 324.372C139.198 320.376 142.347 316.664 146.641 314.381C147.214 314.095 147.214 313.81 146.927 313.239C148.072 313.239 149.217 312.953 150.362 312.953C145.21 317.806 140.343 322.945 136.336 328.369ZM136.336 321.517C136.336 320.376 136.336 318.948 136.336 317.806C137.481 316.093 138.912 314.666 140.343 313.524C140.63 313.524 140.63 313.239 140.63 313.239C142.061 313.239 143.492 313.524 145.21 313.239C141.488 315.523 138.626 318.377 136.336 321.517ZM136.049 315.523C136.049 314.666 136.049 313.81 136.049 312.953C136.908 312.953 137.767 313.239 138.626 313.239C137.767 313.81 136.908 314.666 136.049 315.523ZM24.4076 315.523C24.4076 316.664 24.4076 318.092 24.1213 319.234C20.1137 324.372 15.8198 329.225 11.2396 334.078C10.3808 334.078 9.52201 333.793 8.66323 333.793C13.8159 327.798 18.9686 321.517 24.4076 315.523ZM24.1213 321.803C24.1213 322.659 24.1213 323.23 24.1213 324.087C22.9763 325.229 21.8312 326.941 20.9725 328.083C19.2549 330.082 17.5373 332.08 15.8198 334.078C15.8198 334.364 15.5335 334.364 15.5335 334.649C14.6747 334.649 13.8159 334.364 13.2434 334.364C16.9648 330.367 20.6862 326.085 24.1213 321.803ZM21.545 329.796C22.4038 328.94 22.9763 328.083 23.8351 327.227C23.8351 326.941 24.1213 326.941 24.1213 326.656C24.1213 328.083 24.1213 329.225 24.1213 330.653C22.69 332.365 20.9725 333.793 19.2549 335.22C18.3961 335.22 17.8236 334.935 16.9648 334.935C18.6824 333.222 20.1137 331.509 21.545 329.796ZM24.1213 332.936C24.1213 334.078 24.1213 334.935 24.4076 336.077C23.5488 336.077 22.4038 335.791 21.545 335.791C22.4038 334.649 23.2625 333.793 24.1213 332.936ZM35.858 378.327C34.1405 380.039 32.4229 381.752 30.7053 383.465C30.7053 381.467 30.4191 379.468 30.4191 377.47C32.1366 377.756 34.1405 378.041 35.858 378.327ZM31.8504 402.021C38.1481 394.313 45.0184 387.462 52.7474 381.181C55.0375 381.467 57.3276 381.752 59.6177 381.752C58.7589 382.323 57.6139 382.894 57.0413 383.465C55.61 384.607 54.1787 386.32 52.7474 387.747C50.1711 390.316 47.5947 392.886 45.0184 395.169C40.7245 399.451 36.4305 403.448 32.1366 407.73C31.8504 405.732 31.8504 404.019 31.8504 402.021ZM34.1405 433.994C47.5947 423.146 63.0528 412.583 73.3582 398.595C73.3582 401.164 73.3582 403.448 73.3582 406.017C62.4803 419.149 47.3085 427.713 34.713 438.847C34.713 437.134 34.4267 435.706 34.1405 433.994ZM35.858 448.553C49.026 439.418 61.6215 429.426 73.3582 418.578C73.3582 421.147 73.3582 423.717 73.072 426.286C61.9078 437.134 49.5986 447.125 36.7168 455.69C36.4305 453.406 36.1443 451.122 35.858 448.553ZM73.3582 416.58C61.6215 427.713 49.026 437.705 35.5718 446.84C35.2855 444.842 34.9992 442.843 34.9992 440.56C47.5947 429.426 62.4803 420.862 73.3582 408.016C73.3582 410.87 73.3582 413.725 73.3582 416.58ZM33.2817 423.717C32.9954 421.718 32.9954 419.72 32.7092 417.722C40.4382 410.585 47.881 403.734 55.0375 395.74C58.7589 391.458 62.4803 388.318 67.0605 385.178C68.778 384.036 70.2093 382.609 71.6406 380.896C71.9269 380.896 71.9269 380.896 72.2132 380.896C72.4994 381.467 72.7857 381.752 73.3582 382.038C73.3582 383.465 73.3582 385.178 73.3582 386.605C61.6215 400.593 48.1672 413.154 33.2817 423.717ZM81.0873 374.33C81.0873 375.186 81.3735 376.043 81.3735 376.899C81.0873 376.899 80.801 376.899 80.801 376.899C80.2285 376.899 79.9422 377.185 79.656 377.185C79.0834 377.47 78.5109 377.47 77.6521 377.47C79.0834 376.614 80.2285 375.472 81.0873 374.33ZM88.8163 380.325C87.385 381.752 85.6674 382.894 84.2361 384.321C84.2361 383.18 84.2361 381.752 83.9499 380.61C85.6674 380.61 87.0987 380.325 88.8163 380.325ZM84.2361 386.32C86.5262 384.321 88.8163 382.323 91.1064 380.325C94.2553 380.039 97.4041 380.039 100.267 379.754C94.8278 383.465 89.3888 387.462 84.2361 391.744C84.5224 389.745 84.2361 388.033 84.2361 386.32ZM85.3812 405.446C97.4041 396.597 109.427 387.462 121.45 378.327C123.454 378.041 125.744 377.756 127.748 377.185C114.294 388.603 99.9805 398.881 85.6674 408.872C85.3812 407.73 85.3812 406.588 85.3812 405.446ZM87.9575 438.847C100.839 430.568 114.294 422.86 125.171 412.012C124.885 414.011 124.599 415.723 124.313 417.722C112.862 427.713 100.839 436.563 88.2438 444.842C88.2438 442.843 87.9575 440.845 87.9575 438.847ZM125.458 409.443C114.58 420.576 100.839 428.57 87.6713 437.134C87.385 435.421 87.385 433.994 87.385 432.281C100.553 423.717 115.439 415.723 126.317 404.304C126.03 406.017 125.744 407.73 125.458 409.443ZM126.603 401.735C115.725 413.725 100.839 422.004 87.0987 430.568C86.8125 428.855 86.8125 427.142 86.8125 425.429C101.698 416.294 115.152 405.732 127.748 393.742C127.175 396.311 126.889 398.881 126.603 401.735ZM127.748 390.887C115.152 403.163 101.412 414.011 86.5262 423.431C86.24 421.433 86.24 419.72 85.9537 417.722C101.126 408.301 115.439 397.453 128.32 385.178C128.32 387.176 128.034 389.174 127.748 390.887ZM128.893 383.18C115.725 395.74 101.698 406.874 86.24 416.294C86.24 414.296 85.9537 412.583 85.9537 410.585C100.839 400.022 115.725 389.46 129.465 377.756C129.179 379.468 128.893 381.181 128.893 383.18ZM146.641 322.945C149.217 319.805 151.794 316.379 155.229 314.381C155.229 314.666 155.229 315.237 155.229 315.523C152.653 317.521 150.649 320.947 148.931 322.945C146.355 326.37 143.492 329.796 140.63 332.651C140.057 332.651 139.198 332.365 138.626 332.365C141.202 329.225 143.778 326.085 146.641 322.945ZM142.347 333.222C144.351 330.938 146.355 328.654 148.359 326.37C149.79 324.658 150.935 322.945 152.366 321.232C152.939 320.376 153.798 319.519 154.656 318.948C154.943 318.663 154.943 318.377 155.229 318.092C155.229 320.09 155.515 321.803 155.515 323.801C151.507 326.656 148.072 329.796 144.923 333.507C144.065 333.222 143.206 333.222 142.347 333.222ZM155.515 325.514C155.515 326.37 155.515 326.941 155.515 327.798C153.511 329.225 151.507 330.938 149.79 332.936C149.79 332.936 149.79 332.936 149.79 333.222C148.931 333.222 148.072 333.222 147.214 333.222C149.504 330.367 152.366 327.798 155.515 325.514ZM155.515 329.796C155.515 330.653 155.515 331.509 155.515 332.08C154.37 332.365 153.225 332.651 151.794 332.651C153.225 331.794 154.37 330.653 155.515 329.796ZM154.943 310.669C148.645 312.097 142.347 312.097 136.049 311.24C134.904 280.124 129.179 249.007 119.16 219.318C118.301 217.035 114.58 217.891 115.439 220.46C126.603 253.004 132.328 287.261 132.328 321.517C114.007 324.658 95.6866 326.37 77.0796 326.085V325.8C77.6521 280.695 78.2246 235.59 78.7972 190.486C84.8087 190.771 90.5339 190.2 96.2591 188.487C96.2591 188.487 96.2591 188.773 96.5454 188.773C105.133 194.482 117.156 197.051 121.45 207.328C121.45 207.328 121.45 207.614 121.736 207.614C121.736 208.185 122.309 208.47 122.881 208.185C124.885 207.043 126.889 205.616 128.893 204.188C137.481 216.749 141.488 234.163 145.21 248.722C150.362 268.991 153.511 289.83 154.943 310.669ZM66.7742 170.217C67.3467 170.503 67.9193 170.503 68.778 170.788C67.9193 171.359 67.3467 172.215 67.0605 172.786C65.6292 174.499 64.1979 176.212 62.7666 177.639C62.7666 176.783 62.7666 175.927 62.7666 175.07C63.6253 173.072 65.0566 171.644 66.7742 170.217ZM62.4803 179.638C63.9116 178.496 65.0566 177.068 66.488 175.641C67.0605 174.785 67.9193 173.928 68.778 173.072C69.0643 172.786 69.6368 172.215 69.9231 171.93C70.2093 171.644 70.4956 171.644 70.7819 171.359C70.7819 171.359 70.7819 171.359 71.0681 171.359C71.9269 171.359 73.072 171.644 73.9307 171.644C70.2093 175.356 66.488 179.067 62.7666 182.778C62.4803 181.636 62.4803 180.494 62.4803 179.638ZM75.362 171.93C75.6483 171.93 76.2208 171.93 76.2208 171.359C77.3659 171.359 78.2247 171.359 79.3697 171.359C75.0758 175.927 70.7819 180.209 66.488 184.491C65.3429 184.205 64.4841 183.92 63.3391 183.634C67.3467 179.923 71.3544 175.927 75.362 171.93ZM68.2055 185.062C72.7857 180.78 77.0796 176.212 81.6598 171.644C81.946 171.644 81.946 171.644 82.2323 171.644C83.0911 171.644 83.9499 171.644 85.0949 171.644C81.0873 176.497 77.0796 181.35 72.4994 185.918C71.0681 185.633 69.6368 185.347 68.2055 185.062ZM86.8125 171.359C88.2438 171.359 89.3888 171.073 90.8201 170.788C86.5262 176.212 81.946 181.636 77.3659 186.489C76.2208 186.489 75.362 186.204 74.217 186.204C78.5109 181.35 82.8048 176.497 86.8125 171.359ZM83.6636 186.774C82.2323 186.774 80.801 186.774 79.3697 186.774C83.3773 182.207 87.385 177.639 91.1064 173.072C91.3927 173.072 91.6789 173.072 91.9652 172.786C92.2514 172.215 92.5377 171.644 92.824 170.788V170.503C93.6827 170.217 94.8278 169.932 95.6866 169.646C91.6789 175.356 87.6713 181.065 83.6636 186.774ZM100.267 173.072H100.553C100.553 174.214 100.553 175.356 100.553 176.212C98.5492 179.067 96.5454 182.207 94.2553 185.062C93.1102 185.347 91.9652 185.633 90.8201 185.918C93.969 181.636 97.1179 177.354 100.267 173.072ZM96.8316 184.205C97.9767 182.492 99.408 180.78 100.553 178.781C100.553 179.923 100.553 181.065 100.553 182.207C99.408 183.063 98.2629 183.634 96.8316 184.205ZM128.034 202.761C126.316 204.188 124.599 205.33 122.881 206.472C118.301 196.481 107.137 193.34 98.2629 187.916C99.408 187.345 100.839 186.774 101.984 186.204C102.271 186.204 102.271 186.489 102.557 186.489C114.294 188.487 122.309 194.482 128.034 202.761ZM100.553 170.217C100.553 170.217 100.267 170.217 100.267 170.503C96.5454 175.927 92.5377 181.065 88.8163 186.489C87.6713 186.774 86.5262 186.774 85.3812 186.774C89.6751 180.78 93.969 175.07 97.9767 169.075C98.2629 169.075 98.8354 169.075 98.8354 168.504V168.219C99.408 167.933 99.6942 167.933 99.9805 167.648C100.553 168.504 100.553 169.361 100.553 170.217ZM85.6674 156.8C84.5224 155.087 82.5186 155.372 80.801 155.372C78.7972 155.372 76.2208 155.658 74.5033 157.085C73.072 158.227 72.4994 160.511 71.9269 162.224C61.049 158.798 58.1864 151.661 57.3276 140.813C56.7551 133.677 56.4688 126.54 56.7551 119.403C65.6292 113.979 79.3697 115.121 89.1026 116.263C96.5454 117.119 103.702 119.118 110.572 121.116C108.855 128.538 106.851 135.96 104.561 143.383C101.412 153.089 97.4041 159.369 87.385 162.224C87.0987 160.511 86.8125 158.227 85.6674 156.8ZM45.5909 109.982C56.7551 95.7088 71.3544 85.1463 85.0949 73.1564C98.8354 61.1666 109.713 46.6075 123.168 34.6177C123.454 35.4741 123.454 36.616 123.74 37.4724C111.717 50.8896 99.9805 64.8777 85.9537 76.2966C72.2132 88.001 59.0452 99.9908 46.4497 113.123C46.1634 112.266 45.8772 111.124 45.5909 109.982ZM55.8963 32.3339C56.1826 31.7629 56.1826 31.192 56.4688 30.621C56.4688 30.621 56.4688 30.621 56.7551 30.3356C63.3391 20.344 73.9307 12.9217 83.3773 5.78494C83.3773 5.78494 83.3773 5.78494 83.6636 5.49947C85.3812 5.21399 86.8125 4.92852 88.5301 4.64305C76.7934 14.0636 65.9154 24.0552 55.61 34.9031C55.3238 34.3322 55.61 33.1903 55.8963 32.3339ZM52.7474 46.893C68.2055 33.1903 83.3773 19.2021 97.9767 4.64305C99.9805 4.92852 101.984 5.21399 103.988 5.78494C88.2438 22.9133 70.7819 38.3288 52.1749 52.0315C52.4612 50.3186 52.4612 48.6058 52.7474 46.893ZM50.4573 64.0213C50.7436 64.0213 50.7436 63.7358 50.4573 64.0213C59.0452 52.3169 71.3544 44.8947 82.2323 35.7595C91.9652 27.1954 100.553 17.4893 108.855 7.78325C110 8.35419 110.858 8.92513 111.717 9.49608C107.996 12.0653 104.847 15.491 101.698 19.4876C96.2591 26.0535 91.1064 31.7629 84.5224 36.9014C72.2132 46.322 60.7627 56.3136 49.8848 67.447C50.4573 66.0196 50.4573 65.1632 50.4573 64.0213ZM49.8848 69.7308C61.6215 57.7409 74.217 46.893 87.6713 36.616C97.4041 29.1937 103.416 17.2038 113.435 10.638C114.58 11.4944 115.439 12.6363 116.297 13.7782C111.717 17.2038 107.996 21.2004 104.561 25.768C98.8354 32.6193 92.5377 38.3288 85.3812 44.0382C72.7857 52.8879 60.7627 62.8794 49.3123 73.4419C49.5985 72.3 49.8848 70.8727 49.8848 69.7308ZM118.587 17.4893C96.2591 40.0416 72.7857 61.4521 48.4535 81.4351C48.7398 79.7223 49.026 77.724 49.3123 76.0112C61.6215 64.3068 74.7895 53.7443 88.2438 43.4673C93.3965 39.4707 98.2629 35.1886 102.557 30.3356C107.137 24.9116 111.431 19.2021 117.156 14.9201C117.729 15.491 118.015 16.6329 118.587 17.4893ZM47.881 83.7189C72.7857 63.4504 96.5454 41.7545 119.16 18.9167C119.733 20.344 120.019 21.4859 120.305 22.9133C95.6866 45.4656 71.3544 68.3034 46.7359 90.8557C47.3085 88.5719 47.5947 86.2882 47.881 83.7189ZM46.4497 93.425C71.3544 70.5872 95.9728 47.7494 120.878 24.6261C121.164 25.4825 121.164 26.339 121.45 27.4808C121.45 27.7663 121.45 27.7663 121.45 28.0518V28.3373C107.996 41.1835 95.6866 56.3136 80.801 67.7325C68.2055 77.724 56.7551 88.5719 45.5909 99.9908C45.8772 97.9925 46.1634 95.7088 46.4497 93.425ZM45.5909 102.56C57.6139 90.2848 69.9231 78.8659 83.3773 68.3034C97.4041 57.17 109.427 42.8964 122.309 30.3356C122.595 31.192 122.881 32.0484 122.881 33.1903C108.855 45.1801 97.9767 60.0247 83.9499 72.0145C70.7819 83.4334 56.4688 93.9959 45.3046 107.699C45.3046 105.986 45.3046 104.273 45.5909 102.56ZM125.744 51.1751C102.843 70.8727 84.8087 95.9942 59.6177 113.123C59.3314 113.408 59.3314 113.694 59.3314 113.979C57.3276 114.835 55.3238 115.692 53.3199 116.834C65.6292 103.987 77.6521 91.4267 91.6789 80.5787C104.561 70.3017 112.003 55.1717 124.885 45.1801C125.458 47.1784 125.744 49.1768 125.744 51.1751ZM121.164 119.688C121.164 119.403 121.164 119.118 120.878 118.832C121.736 117.69 122.595 116.834 123.454 115.977C122.881 117.405 122.023 118.547 121.164 119.688ZM105.992 115.692C112.862 109.697 119.446 103.417 126.03 96.8506C126.03 97.4216 126.03 97.9925 126.03 98.849C126.03 99.4199 126.03 100.276 126.03 100.847C120.878 106.557 115.152 111.981 109.427 116.834C107.996 116.263 106.851 115.977 105.992 115.692ZM126.317 83.148C126.317 84.5753 126.317 86.0027 126.317 87.4301C117.156 96.5652 107.71 105.415 97.9767 113.979C96.8316 113.694 95.9728 113.694 94.8278 113.408C105.706 103.987 116.297 93.7104 126.317 83.148ZM126.03 89.7138C126.03 91.4267 126.03 92.854 125.744 94.5669C118.874 101.704 111.431 108.555 103.988 115.406C102.843 115.121 101.698 114.835 100.553 114.55C100.267 114.55 99.9805 114.55 99.9805 114.55C108.855 106.271 117.442 97.9925 126.03 89.7138ZM126.317 80.8642C126.317 81.1497 126.317 81.1497 126.317 80.8642C125.458 81.4351 124.885 82.0061 124.313 82.577L124.026 82.8625C114.007 93.425 103.702 103.417 92.5377 112.837C91.3927 112.552 89.9613 112.552 88.8163 112.266C101.984 101.133 114.294 89.1429 126.317 76.8676C126.603 78.2949 126.317 79.7223 126.317 80.8642ZM126.603 65.7341C111.431 81.7206 95.6866 97.1361 79.3697 111.981C77.3659 111.981 75.0758 111.981 72.7857 111.981C81.946 105.129 91.3927 98.5635 99.1217 90.2848C108.282 80.5787 116.87 71.1581 126.603 62.3085C126.603 63.1649 126.603 64.3068 126.603 65.7341ZM126.603 67.7325C126.603 70.0162 126.603 72.3 126.603 74.2983C126.603 74.2983 126.603 74.2983 126.317 74.5838C126.03 74.5838 126.03 74.8693 126.03 75.1547C125.744 75.1547 125.458 75.7257 125.171 76.0112C124.599 76.5821 123.74 77.4385 123.168 78.0095C121.45 79.7223 119.732 81.4351 118.301 83.148C114.866 86.5736 111.431 89.9993 107.996 93.1395C101.126 99.7054 93.969 105.986 86.8125 112.266C85.3812 112.266 83.6636 111.981 82.2323 111.981C81.946 111.981 81.6598 111.981 81.6598 111.981C97.1179 97.7071 112.29 83.148 126.603 67.7325ZM126.317 60.0247C116.87 68.5889 108.282 77.4385 99.6942 86.8591C91.1064 96.5652 80.2285 103.987 69.9231 111.695C67.3467 111.981 64.7704 112.266 62.4803 112.837C86.5262 95.9942 103.988 72.0145 126.03 52.8879C126.316 55.4571 126.317 57.7409 126.317 60.0247ZM110.572 117.119C115.725 112.837 120.878 107.984 125.458 102.846C125.458 104.273 125.458 105.415 125.171 106.842C124.026 107.413 122.881 108.84 122.023 109.982C119.446 113.123 116.584 115.692 113.435 117.976C112.576 117.69 111.717 117.405 110.572 117.119ZM120.305 114.55C120.878 113.979 123.454 110.268 125.458 108.84C125.171 110.268 125.171 111.41 124.599 112.837C122.881 114.55 121.164 116.263 119.732 117.976C118.874 117.69 118.015 118.261 117.442 119.118C116.87 118.832 116.297 118.832 115.439 118.547C117.156 117.405 118.587 115.977 120.305 114.55ZM79.0834 36.3305C69.3506 44.3237 58.7589 51.1751 51.0299 61.1666C51.3161 58.8828 51.6024 56.599 51.8886 54.3153C71.3544 40.0416 89.3888 24.0552 105.992 6.35588C106.564 6.35588 107.137 6.64136 107.423 6.92683C98.5492 17.2038 89.6751 27.4808 79.0834 36.3305ZM96.2591 4.64305C82.2323 18.0603 67.9193 31.4775 53.3199 44.3237C53.6062 42.3254 54.1787 40.0416 54.465 38.0433C65.9154 26.0535 77.9384 14.9201 91.1064 4.64305C92.824 4.64305 94.5415 4.64305 96.2591 4.64305ZM79.3697 6.92683C71.9269 12.3508 64.1979 18.3457 58.4726 25.4825C62.7666 16.0619 69.9231 10.067 79.3697 6.92683ZM47.3085 114.835C59.9039 101.418 73.072 89.1429 87.385 77.4385C100.839 66.0196 112.576 52.3169 124.313 39.4707C124.599 40.898 124.885 42.3254 124.885 43.7528C112.29 53.1734 105.133 68.0179 93.1102 78.0095C78.5109 90.2848 65.0566 103.131 51.8886 116.834C51.8886 116.834 51.8886 116.834 51.8886 117.119C51.0299 116.834 50.1711 117.119 49.5986 117.976C48.4535 116.548 47.881 115.692 47.3085 114.835ZM54.7512 152.232C51.6024 142.526 51.8886 132.249 52.4612 122.258C52.7474 122.258 53.0337 121.972 53.0337 121.972C53.6062 121.401 54.1787 120.83 54.7512 120.545C54.465 130.536 53.6062 142.526 57.3276 151.661C60.1902 159.084 64.1979 161.367 71.3544 163.651C71.6406 163.651 71.6406 163.651 71.9269 163.651C72.2132 163.937 73.072 163.937 73.3582 163.366C73.6445 162.224 73.9307 161.082 74.5033 159.94C75.6483 157.656 77.6521 157.371 79.9422 157.085C81.946 157.085 83.6636 156.8 84.8087 159.084C85.3812 160.511 85.3812 162.224 85.3812 163.651C85.3812 164.222 85.9537 164.508 86.5262 164.222C94.5415 162.224 99.6942 159.084 103.129 151.376C107.137 142.241 109.427 131.678 111.717 121.972C113.435 122.543 115.152 122.829 116.584 123.4C115.725 133.391 114.007 143.668 109.427 152.518C103.702 163.937 93.969 167.648 81.6598 167.933C76.5071 167.933 70.7819 168.504 65.9154 166.506C60.1902 163.937 57.0413 158.227 54.7512 152.232ZM65.0566 169.646C64.1979 170.503 63.3391 171.359 62.4803 172.215C62.4803 170.788 62.4803 169.646 62.4803 168.219C63.3391 169.075 64.1979 169.361 65.0566 169.646ZM59.9039 187.06C61.6215 187.631 63.3391 187.916 65.0566 188.487C56.7551 193.626 47.881 200.763 43.8733 209.898C41.8695 209.041 39.5794 208.185 37.5756 207.614C43.5871 199.621 51.0299 193.055 59.9039 187.06ZM36.4305 208.47C39.0069 209.327 41.0107 210.183 43.3008 211.04C43.3008 211.611 44.4459 211.896 44.7321 211.04C48.4535 201.619 58.4726 193.911 67.0605 188.773C70.4956 189.629 73.9307 190.2 77.6521 190.486C77.0796 235.59 76.5071 280.695 75.9346 326.085V326.37C59.9039 326.085 43.8733 324.943 28.129 322.374C28.7015 286.69 40.4382 252.433 52.1749 219.033C53.0337 216.749 49.3123 215.607 48.4535 218.176C37.8619 247.58 27.2702 278.126 24.6938 309.528C24.4076 309.528 24.4076 309.813 24.1213 309.813C23.8351 309.528 23.2625 309.242 22.9763 309.813C22.69 310.099 22.69 310.099 22.4038 310.384C19.5411 310.955 15.5335 310.669 14.1022 310.669C11.2396 310.669 8.66323 310.099 5.80062 309.242C7.80444 272.987 14.1022 236.161 36.4305 208.47ZM24.6938 354.347C19.5411 353.776 14.1022 352.348 9.52201 349.494C4.94183 346.639 4.94183 342.071 5.51436 337.218C12.0984 338.075 18.6824 338.931 25.2664 339.788C25.5526 344.641 25.5526 349.779 25.8389 354.632C25.2664 354.632 24.9801 354.347 24.6938 354.347ZM71.0681 468.821C67.0605 473.103 62.194 476.529 57.9001 479.955C52.7474 483.951 47.5947 487.948 42.442 491.945C42.1558 490.517 41.8695 488.804 41.5832 487.377C51.8886 479.669 61.9078 471.676 71.3544 463.397C71.3544 465.396 71.0681 467.108 71.0681 468.821ZM65.6292 523.917C64.7704 524.488 64.1979 525.059 63.3391 525.63C61.3353 525.345 59.3314 525.345 57.3276 525.059C60.4765 522.776 63.6253 520.206 66.488 517.352C66.2017 519.635 65.9154 521.634 65.6292 523.917ZM68.4918 498.51C65.9154 500.794 58.4726 505.362 57.6139 506.218C54.1787 508.787 50.7436 511.071 47.0222 513.355C46.7359 512.499 46.4497 511.357 46.4497 510.5C51.6024 505.933 57.0413 501.651 62.7666 497.654C64.7704 496.227 67.0605 495.085 69.0643 493.657C68.778 495.37 68.778 497.083 68.4918 498.51ZM69.9231 485.093C64.7704 487.091 59.3314 492.801 55.0375 495.941C51.6024 498.51 48.1672 500.794 45.0184 503.934C44.7321 502.507 44.4459 501.08 44.1596 499.938C50.7436 495.085 57.0413 489.946 63.0528 484.522C64.1979 483.666 67.633 481.382 70.2093 479.098C70.2093 481.097 69.9231 483.095 69.9231 485.093ZM57.3276 495.941C61.3353 492.801 65.3429 489.661 69.6368 486.806C69.6368 488.233 69.3506 489.661 69.3506 491.088C65.9154 492.801 58.1864 499.367 56.7551 500.223C53.0337 503.078 49.5986 505.933 46.1634 508.787C45.8772 507.646 45.5909 506.789 45.3046 505.647C48.7398 501.936 53.3199 499.081 57.3276 495.941ZM67.0605 510.5C63.6253 513.07 60.1902 515.353 56.7551 517.922C54.465 519.635 51.6024 521.063 49.3123 522.776C49.026 521.634 48.7398 520.492 48.4535 519.35C55.0375 515.068 61.3353 510.786 67.633 505.933C67.633 507.646 67.3467 509.073 67.0605 510.5ZM49.8848 524.488C52.7474 522.205 55.8963 520.492 58.7589 518.493C61.3353 516.495 64.1979 514.497 66.7742 512.499C66.7742 513.355 66.488 513.926 66.488 514.782C62.7666 518.493 58.7589 521.634 54.465 524.774C53.0337 524.774 51.6024 524.488 49.8848 524.488ZM67.9193 503.934C61.6215 508.787 55.0375 513.355 48.1672 517.922C47.881 517.066 47.5947 516.21 47.5947 515.068C53.0337 511.357 58.4726 507.646 63.6253 503.934C64.4841 503.363 66.488 502.222 68.2055 501.08C68.2055 501.936 67.9193 503.078 67.9193 503.934ZM70.4956 476.529C66.7742 480.24 59.3314 485.379 58.1864 486.521C53.3199 490.517 48.4535 494.228 43.5871 498.225C43.3008 496.798 43.0145 495.37 42.7283 493.943C49.3123 488.804 55.8963 483.666 62.4803 478.242C65.3429 475.958 68.2055 473.674 70.7819 471.105C70.7819 473.103 70.7819 474.816 70.4956 476.529ZM47.0222 528.485C47.3085 528.77 47.881 529.056 48.4535 529.056C44.1596 531.911 39.8657 534.48 35.5718 537.335C36.4305 532.767 43.3008 530.198 47.0222 528.485ZM34.713 539.618C40.4382 535.907 46.4497 532.482 52.1749 528.485C54.1787 528.77 56.4688 528.771 58.4726 529.056C56.7551 530.483 55.0375 531.625 53.0337 532.767C48.1672 535.907 43.0145 538.477 37.8619 541.046H37.5756C35.5718 541.617 34.4267 541.046 34.713 539.618ZM40.7245 541.617C46.4497 538.477 52.4612 535.622 57.9001 531.625C59.0452 530.769 59.9039 529.912 61.049 529.056C62.7666 529.056 64.1979 529.341 65.9154 529.341C64.4841 530.198 63.0528 531.34 62.4803 531.911C61.049 533.053 59.3314 533.909 57.9001 535.051C54.7512 537.335 51.3161 539.333 48.1672 541.617C47.881 541.902 47.881 542.188 47.881 542.473C45.3046 542.188 43.0145 541.902 40.7245 541.617ZM49.3123 542.759C52.7474 540.475 56.1826 538.191 59.9039 535.907C61.9078 534.48 64.4841 533.338 66.488 531.625C66.488 532.482 66.488 533.338 66.488 534.194C62.194 537.049 58.1864 540.189 53.8925 543.044C52.4612 543.044 51.0299 542.759 49.8848 542.759C49.5986 542.759 49.3123 542.759 49.3123 542.759ZM65.6292 538.762C64.1979 542.759 60.1902 543.33 56.1826 543.33C59.6177 541.046 62.7666 538.477 66.2017 536.193C66.2017 537.049 66.2017 537.906 65.6292 538.762ZM71.6406 461.399C61.9078 469.963 51.8886 478.242 41.297 485.95C41.0107 484.237 40.7245 482.238 40.1519 480.526C50.7436 472.818 61.3353 465.11 71.6406 456.831C71.6406 458.259 71.6406 459.972 71.6406 461.399ZM121.736 530.198C116.584 534.48 111.431 538.191 105.419 541.331C104.847 541.331 104.274 541.046 103.988 540.76C103.416 540.475 102.843 540.189 102.557 539.904C107.996 536.764 112.862 533.053 117.729 529.056C118.874 529.341 120.305 529.627 121.736 530.198ZM125.744 531.911C121.736 535.336 117.442 538.762 113.148 541.902C111.431 541.902 109.427 541.902 107.71 541.617C113.148 538.477 118.301 534.765 123.168 530.769C124.313 531.054 124.885 531.625 125.744 531.911ZM115.725 541.902C119.446 539.047 123.454 535.907 126.889 532.767C127.175 532.767 127.175 533.053 127.462 533.338C124.885 536.478 122.309 539.333 119.446 542.188C118.301 542.188 117.156 542.188 116.297 542.188C116.011 541.902 115.725 541.902 115.725 541.902ZM123.454 541.617C122.881 541.902 122.309 541.902 121.736 541.902C123.74 539.904 125.458 538.191 127.175 535.907C126.889 536.193 126.889 536.478 126.603 537.049C127.175 540.76 126.03 542.188 123.454 541.617ZM115.725 529.056C111.145 532.767 106.278 535.907 101.412 539.047C100.839 538.191 100.267 537.049 99.9805 536.193C103.129 534.194 106.278 532.196 109.141 529.912C109.713 529.912 110 529.912 110.572 529.912C111.145 530.198 112.003 530.198 112.576 529.912C112.862 529.627 113.148 529.341 113.435 529.056C114.007 528.771 114.866 528.771 115.725 529.056ZM154.37 342.642C153.798 346.068 151.794 346.639 148.931 348.066C144.351 350.065 139.771 351.778 134.904 352.634C134.904 347.21 134.904 341.786 134.904 336.362C135.191 336.362 135.477 336.077 135.763 335.791C138.053 336.362 140.343 336.933 142.633 336.933C142.92 337.504 143.778 337.789 144.065 337.218C147.786 337.504 151.221 337.218 154.943 336.362C154.943 338.36 154.656 340.644 154.37 342.642Z" fill="#9CCDEE"/>
</svg>
