<svg width="124" height="114" viewBox="0 0 124 114" fill="none" xmlns="http://www.w3.org/2000/svg">
<path d="M3.98882 62.8118C6.01268 59.0544 9.60998 56.7417 12.6845 54.7067C15.6055 52.8873 18.1858 50.1757 20.891 48.2026C23.5961 46.2296 26.8865 44.3482 29.0351 41.3293C29.649 40.4668 31.6492 39.9412 33.0642 39.3239C34.6326 38.4911 35.7693 37.3509 37.616 37.0409C41.0935 36.2673 39.7023 33.6528 39.1744 31.6528C38.2723 27.4371 35.3699 23.7471 33.7291 19.6555C32.4289 16.456 31.7139 13.3482 30.7831 10.0867C30.4424 9.19456 30.4711 8.24039 29.977 7.56384C28.9264 5.84147 28.154 4.642 30.5522 3.10022C32.7345 1.40481 33.8139 2.173 35.9101 3.34012C38.4381 4.81451 40.568 7.30508 43.1247 7.82529C47.437 8.62044 50.0611 11.7876 53.4525 13.8765C55.5488 15.0436 57.0935 17.4425 59.2522 18.9789C60.7632 20.0544 61.5019 19.9304 62.701 19.1595C64.9458 17.8334 66.9746 16.3536 69.2193 15.0274C70.5719 14.0409 72.5097 13.146 74.294 12.4668C77.1863 11.6016 79.8004 10.2134 81.4262 7.47218C81.7332 7.04092 82.347 6.17839 82.5629 6.33203C86.1365 7.25117 88.2228 3.86302 91.6092 3.67435C93.6718 3.51801 96.1324 2.3455 97.7919 0.927709C99.1445 -0.0588137 99.7921 0.402105 100.809 0.801028C101.888 1.56922 102.968 2.33741 102.479 3.93849C101.989 5.53957 101.347 7.35628 100.642 8.80373C98.7714 12.3455 97.918 16.2862 95.6783 19.89C93.6544 23.6474 92.494 28.0193 90.686 31.9304C89.185 35.4102 89.9287 37.5638 92.428 39.9924C96.069 43.5584 99.5565 47.3401 102.891 51.3374C104.896 53.0894 107.27 54.7795 108.877 57.5477C109.712 59.1164 111.286 60.5611 112.581 61.483C116.807 65.1406 118.851 70.4937 122.708 74.2134C124.497 75.8118 123.73 76.89 121.576 77.6312C117.422 78.898 113.968 76.4398 110.332 75.1514C106.912 74.0167 103.032 73.5288 99.6739 72.7633C95.731 71.9061 91.6346 71.2646 87.6916 70.4075C84.9191 69.7336 82.3337 70.1676 79.8681 69.0625C78.4194 68.3563 77.254 70.4506 77.0095 71.2512C74.5302 77.9331 70.9716 83.8468 68.0606 90.2215C65.5476 95.58 63.1881 100.723 61.1069 106.389C60.7089 107.405 60.5891 108.944 60.0376 110.176C59.4861 111.407 59.2128 113.162 57.6731 113.041C56.5027 112.858 55.2699 112.305 54.0658 110.798C52.0893 108.092 51.8971 104.707 52.3238 102.736C53.3308 98.58 51.5988 95.0733 51.3443 91.3185C51.1858 89.2565 51.8284 87.4398 51.454 85.2242C51.0797 83.0086 51.444 80.6689 50.1151 78.4237C49.8369 77.9008 49.3428 77.2242 49.5873 76.4237C51.7647 72.4506 49.1693 68.3293 49.6534 64.4506C49.7445 63.8657 49.3127 63.5584 48.9434 63.6204C44.852 65.2566 40.3525 63.3536 36.0452 64.8361C32.9994 65.9169 29.5793 64.7822 26.3176 65.7094C20.6865 67.2242 15.1127 66.8307 9.57261 67.7606C8.31112 68.1622 6.0327 68.1649 3.97014 68.3212C2.49279 68.5692 1.1689 68.6016 0.612392 67.5557C0.334137 67.0328 1.62432 65.677 2.02235 64.6609C2.42038 63.6447 3.96013 63.766 3.98882 62.8118ZM90.5576 43.5342C89.0752 41.5045 87.1611 39.1676 85.1846 36.4614C84.4123 35.2619 83.9182 34.5854 84.7766 32.9223C85.942 30.828 87.1074 28.7336 88.2728 26.6393C88.8243 25.4075 87.5291 24.4857 88.6658 23.3455C91.0017 21.4345 90.3154 17.3725 93.0829 15.7687C93.2364 15.553 93.3275 14.9681 93.2651 14.5989C93.169 12.9062 93.2888 11.3671 94.7948 10.1649C95.3176 9.88728 96.6078 8.53149 95.4661 7.39402C94.5402 6.41019 93.557 7.33473 92.6648 7.67435C89.528 9.34012 86.1128 10.483 83.1918 12.3024C80.4243 13.9062 77.0378 14.0948 74.5486 16.2215C73.7188 16.9304 73.2297 18.5315 71.8434 18.1946C69.1333 17.89 66.9509 19.5854 65.0755 20.8495C60.5861 23.5018 57.6601 23.0436 53.8656 19.6932C51.6445 17.7876 49.3611 15.5126 46.2192 14.9008C43.4467 14.2269 43.4654 8.71748 39.1294 11.1541C39.1294 11.1541 38.9135 11.0005 38.6977 10.8469C38.4194 10.3239 37.9253 9.64739 37.249 10.1407C36.4192 10.8495 36.7599 11.7417 37.0381 12.2646C37.1629 13.0032 37.657 13.6797 37.566 14.2646C38.4107 20.3886 42.3013 25.4318 44.2541 31.3698C44.5947 32.2619 46.1969 32.7525 45.4919 34.2C44.9404 35.4318 44.5137 37.4021 43.468 37.9574C39.439 39.9627 36.83 43.6285 32.9544 45.4183C25.2657 49.3671 20.201 56.483 12.5747 60.801C12.4836 61.3859 12.1767 61.8172 12.4549 62.3401C12.5797 63.0787 13.256 62.5854 13.6253 62.5234C18.398 62.6716 22.7053 61.1892 27.3533 60.5989C31.0466 59.9789 35.047 58.9277 38.8028 58.677C41.604 58.3967 44.7746 58.0544 47.7006 58.5126C50.2573 59.0328 53.4852 56.7822 55.2795 60.6582C55.5578 61.1811 56.45 60.8415 55.6826 61.9196C54.8241 63.5827 53.8746 65.8307 56.1867 67.1514C57.266 67.9196 56.5274 68.0436 56.2204 68.4749C55.3957 71.4614 54.2016 74.5099 57.1326 77.2458C57.5643 77.553 57.3198 78.3536 56.7969 78.6312C55.9672 79.3401 56.3078 80.2323 56.2791 81.1865C55.4881 85.4964 57.4983 89.5261 57.4459 93.7121C57.3261 95.2512 57.1776 97.7444 58.0124 99.3132C58.0748 99.6824 57.9837 100.267 58.7224 100.143C59.0917 100.081 59.3076 100.235 59.3987 99.6501C59.763 97.3105 60.9284 95.2161 62.3097 93.2754C65.2257 89.1784 66.1078 84.2835 68.5921 79.8792C70.616 76.1218 72.0546 72.2727 73.4309 68.0544C74.0735 66.2377 74.9943 64.9439 77.2727 64.9412C82.1365 64.5045 86.7271 65.8226 91.4711 66.925C95.3516 67.4129 99.2946 68.27 103.084 69.3428C104.101 69.7417 104.931 69.0328 106.379 69.739C108.845 70.8441 111.589 72.4722 114.668 72.7148C115.254 72.8064 115.685 73.1137 116.146 72.4668C116.237 71.8819 115.805 71.5746 115.527 71.0517C112.84 67.5153 109.54 64.8414 106.547 61.7363C104.757 60.138 104.536 57.7067 102.747 56.1083C98.0892 52.1433 94.5392 47.9924 90.5576 43.5342Z" fill="white"/>
<path d="M68.7804 39.4048C68.1041 39.898 67.5813 40.1757 66.7178 39.5611C66.0078 38.7309 65.9978 34.1757 67.1969 33.4048C67.8732 32.9115 69.106 33.4641 69.7536 33.925C70.4012 34.3859 69.7636 38.4802 68.7804 39.4048Z" fill="white"/>
<path d="M67.0545 52.7958C69.4527 51.254 70.6855 51.8066 71.1223 54.3915C69.338 55.0707 68.1052 54.5182 67.0545 52.7958Z" fill="white"/>
</svg>
