<svg width="519" height="530" viewBox="0 0 519 530" fill="none" xmlns="http://www.w3.org/2000/svg">
<path d="M8.55069 390.324C1.82147 368.527 -1.35486 346.202 0.783686 323.965C3.59967 296.464 12.2921 270.817 28.6036 248.814C45.5153 226.234 67.684 207.257 79.3291 181.659C90.9646 156.648 80.0533 137.712 80.5071 110.172C72.3557 48.5833 125.228 -22.7265 212.135 8.59777C226.231 13.519 234.819 30.0719 248.905 35.5792C274.724 45.9687 300.921 33.5057 326.381 29.8224C355.395 25.6116 385.484 27.8657 412.465 39.4466C447.075 54.0838 469.652 82.0036 481.484 116.78C495.552 159.212 483.008 203.551 497.086 245.397C510.031 284.295 530.111 320.379 509.347 361.651C497.13 386.067 473.19 405.015 446.51 411.022C425.163 415.946 402.258 407.948 381.473 414.639C362.479 420.188 351.579 436.419 339.527 450.874C287.717 512.149 216.863 546.149 136.355 520.791C77.581 502.825 27.6538 449.837 8.55069 390.324Z" fill="#9CCDEE"/>
</svg>
