<svg width="88" height="88" viewBox="0 0 88 88" fill="none" xmlns="http://www.w3.org/2000/svg">
<path d="M9.04577 36.5331C10.8457 35.089 13.1244 34.6959 15.0843 34.3309C16.9223 34.0409 18.7788 33.2348 20.5417 32.8228C22.3046 32.4108 24.3396 32.1678 26.0459 31.1177C26.5335 30.8177 27.6402 30.9777 28.4748 30.9687C29.4314 30.8847 30.2378 30.5567 31.2226 30.7917C33.1172 31.1397 32.9757 29.5446 33.1346 28.4375C33.5742 26.1483 32.9072 23.6991 32.9529 21.3158C32.9801 19.4487 33.2794 17.7505 33.5035 15.9304C33.522 15.4143 33.7375 14.9453 33.6341 14.5042C33.4742 13.4251 33.3425 12.6651 34.8617 12.403C36.3057 12.019 36.6812 12.6291 37.4788 13.6522C38.4267 14.9193 38.962 16.6084 40.1253 17.4065C42.1048 18.7117 42.7436 20.8419 43.9918 22.597C44.7894 23.6201 45.0528 25.1403 45.8036 26.3604C46.3292 27.2144 46.7232 27.3085 47.4828 27.1774C48.88 26.9904 50.2022 26.6814 51.5995 26.4944C52.4809 26.2884 53.6345 26.2514 54.6661 26.2894C56.2886 26.4684 57.8829 26.3284 59.2703 25.3063C59.5141 25.1563 60.0016 24.8563 60.0767 24.9783C61.6622 26.1894 63.4154 24.9423 65.1413 25.5624C66.2012 25.9194 67.6736 25.8544 68.7988 25.4984C69.6802 25.2924 69.9055 25.6584 70.3277 26.0715C70.7032 26.6815 71.0786 27.2916 70.4975 27.9857C69.9164 28.6797 69.2134 29.4488 68.5572 30.0208C66.8791 31.3899 65.6233 33.1721 63.7483 34.4942C61.9484 35.9383 60.4488 37.8705 58.724 39.4366C57.2429 40.8527 57.1591 42.0819 57.8915 43.818C58.9525 46.3613 59.8916 48.9795 60.7089 51.6727C61.3378 52.9679 62.1638 54.31 62.3803 56.0271C62.4652 56.9842 62.944 58.0353 63.3946 58.7674C64.7276 61.4796 64.6166 64.5759 65.7527 67.2412C66.3066 68.4143 65.6972 68.7893 64.4686 68.7043C62.1333 68.4593 60.9319 66.5071 59.3931 65.0989C57.9295 63.8128 56.1002 62.7517 54.5898 61.6626C52.8073 60.4045 50.9029 59.2214 49.1204 57.9632C47.882 57.0432 46.5032 56.7141 45.5086 55.644C44.9362 54.9869 43.9144 55.784 43.6238 56.131C40.9805 58.9353 37.9618 61.1295 35.1683 63.6897C32.7873 65.8279 30.5282 67.891 28.2973 70.2732C27.8849 70.6953 27.5007 71.4363 26.9664 71.9334C26.4321 72.4304 25.9261 73.2465 25.185 72.8615C24.6409 72.5234 24.1436 71.9884 23.8617 70.9843C23.4482 69.2201 24.0663 67.494 24.6942 66.6029C26.0719 64.7457 25.949 62.6345 26.6139 60.7114C26.9697 59.6513 27.6727 58.8822 27.9535 57.7001C28.2342 56.518 28.9089 55.4299 28.7207 54.0318C28.6924 53.7127 28.589 53.2717 28.8796 52.9247C30.8014 51.4056 30.3781 48.8063 31.4369 46.9772C31.6056 46.7051 31.4554 46.4611 31.2584 46.4141C28.8763 46.3661 27.0372 44.4699 24.58 44.2999C22.8356 44.1959 21.372 42.9097 19.5525 42.6837C16.4293 42.2506 13.7371 40.8795 10.7825 40.1744C10.0698 40.1084 8.93475 39.6294 7.87483 39.2723C7.08696 39.0843 6.42097 38.8213 6.36439 38.1832C6.3361 37.8642 7.26435 37.4612 7.67679 37.0391C8.08922 36.6171 8.8303 37.0021 9.04577 36.5331ZM56.2135 45.1871C55.9033 43.864 55.443 42.2969 55.0295 40.5327C54.8978 39.7726 54.7944 39.3316 55.5725 38.6845C56.5944 37.8875 57.6162 37.0904 58.638 36.2933C59.1724 35.7963 58.7218 35.0642 59.5282 34.7362C61.0942 34.2772 61.6089 32.11 63.325 31.895C63.4469 31.82 63.6156 31.5479 63.6624 31.3509C63.9714 30.4878 64.3556 29.7468 65.3589 29.4658C65.6778 29.4378 66.606 29.0347 66.2774 28.2276C66.0238 27.5426 65.3393 27.7956 64.8235 27.7766C62.9104 27.9446 60.969 27.7936 59.131 28.0836C57.4149 28.2986 55.689 27.6785 54.0012 28.2126C53.4386 28.3906 52.8575 29.0847 52.2383 28.6246C50.9531 27.9015 49.509 28.2856 48.3087 28.5196C45.5142 28.8936 44.1539 28.0485 42.971 25.5803C42.2669 24.1631 41.6097 22.549 40.1743 21.5819C38.9359 20.6618 40.1068 17.9226 37.4342 18.2216C37.4342 18.2216 37.3591 18.0996 37.284 17.9776C37.2557 17.6585 37.1523 17.2175 36.7116 17.3205C36.149 17.4985 36.1305 18.0146 36.1588 18.3336C36.0652 18.7276 36.1686 19.1687 35.9999 19.4407C35.1293 22.668 36.0031 25.9993 35.7235 29.3676C35.705 29.8836 36.3992 30.4657 35.743 31.0377C35.2087 31.5348 34.5808 32.4259 33.9431 32.4819C31.5142 32.6309 29.4422 33.906 27.1352 33.98C22.4744 34.325 18.4523 36.8002 13.7447 37.3422C13.576 37.6142 13.3323 37.7642 13.3605 38.0832C13.267 38.4773 13.7077 38.3743 13.9047 38.4213C16.2498 39.5014 18.707 39.6714 21.1456 40.3575C23.1153 40.8276 25.3288 41.1476 27.2516 41.8147C28.7055 42.2657 30.3563 42.7638 31.7166 43.6089C32.8799 44.4069 34.9616 43.9669 35.0378 46.2751C35.0661 46.5941 35.5819 46.6131 34.9725 46.9882C34.1944 47.6352 33.2477 48.5543 34.1204 49.6994C34.4959 50.3095 34.1019 50.2155 33.8582 50.3655C32.8178 51.6786 31.5805 52.9447 32.4631 54.9249C32.6132 55.1689 32.3227 55.5159 32.0038 55.5439C31.4412 55.7219 31.4227 56.238 31.2072 56.707C29.9046 58.6862 30.0559 61.1164 29.1472 63.1896C28.7631 63.9307 28.1635 65.1408 28.2483 66.0979C28.2016 66.2949 28.0329 66.5669 28.4268 66.6609C28.6238 66.7079 28.6989 66.8299 28.8675 66.5579C29.5422 65.4698 30.5641 64.6727 31.661 63.9977C33.9767 62.5726 35.448 60.3214 37.6136 58.6522C39.4135 57.2081 40.9414 55.595 42.516 53.7848C43.219 53.0158 43.9503 52.5657 45.0853 53.0448C47.5991 53.8529 49.6068 55.477 51.7365 57.0262C53.5658 58.0873 55.3483 59.3454 57.0089 60.6785C57.4311 61.0916 57.9937 60.9136 58.5661 61.5706C59.5607 62.6407 60.5837 64.0299 62.0658 64.7999C62.3379 64.969 62.488 65.213 62.8537 64.988C63.0224 64.7159 62.8722 64.4719 62.8439 64.1529C62.2519 61.8257 61.1724 59.7985 60.3367 57.6213C59.7828 56.4482 60.1854 55.1911 59.6315 54.0179C58.1483 51.0617 57.256 48.2464 56.2135 45.1871Z" fill="#9CCDEE"/>
<path d="M46.2411 38.5395C45.8004 38.6425 45.4815 38.6705 45.1812 38.1824C45.0027 37.6194 45.9582 35.3492 46.7178 35.2182C47.1585 35.1152 47.6558 35.6502 47.8811 36.0163C48.1063 36.3823 46.9256 38.2865 46.2411 38.5395Z" fill="#9CCDEE"/>
<path d="M42.5584 44.8431C44.0775 44.581 44.5748 45.1161 44.2473 46.4952C43.2157 46.4572 42.7183 45.9222 42.5584 44.8431Z" fill="#9CCDEE"/>
</svg>
