<svg width="264" height="257" viewBox="0 0 264 257" fill="none" xmlns="http://www.w3.org/2000/svg">
<path fill-rule="evenodd" clip-rule="evenodd" d="M110.938 14.3071C118.02 17.9077 123.478 23.2556 127.203 30.3866L126.869 31.0437L122.708 28.9279C118.624 36.9587 114.894 47.0066 111.406 59.1072C110.382 58.9538 109.428 59.2038 108.618 59.7112L110.43 62.6536C105.201 83.0573 101.491 95.596 99.115 100.269C98.896 100.157 98.7488 100.266 98.6374 100.485C99.1485 100.745 97.879 104.326 94.7931 111.118C94.0546 117.45 90.8723 127.685 85.2463 141.822L82.4252 147.371C83.5933 147.965 82.4612 152.902 79.1762 162.074C78.6194 163.169 79.5277 164.274 81.8639 165.462C81.6783 165.827 82.297 166.417 83.9032 167.233L83.5691 167.891C80.2417 167.026 77.392 165.944 74.9097 164.682L71.0403 162.715C64.8346 159.56 69.0536 142.226 83.6243 110.677C82.4995 109.094 80.3872 107.285 77.2862 105.433C68.8446 102.519 62.8171 100.098 59.2397 98.2787L57.6335 97.4621C56.5347 97.4547 55.8368 97.743 55.5028 98.4001L54.9187 98.1032C54.6997 97.9918 54.5908 97.8446 54.7021 97.6255C54.2257 97.659 53.8236 97.5464 53.6776 97.4721C53.4548 97.9102 53.6355 98.2777 54.2196 98.5746C51.266 102.034 48.9088 103.96 47.3695 104.096L47.1839 104.461C47.841 104.795 48.0216 105.163 47.836 105.528L47.3535 106.477C47.0936 106.988 45.339 106.463 42.0153 105.049C41.9027 105.451 42.0104 105.782 42.3024 105.93L43.2515 106.413L44.0942 106.382C43.457 108.539 43.6315 109.822 44.5806 110.304C41.6555 114.973 39.8811 117.379 39.2946 117.448C39.1833 117.667 39.0707 118.069 39.1771 118.583C36.3646 122.849 34.6298 124.816 34.1188 124.556L33.5347 124.259L32.9037 125.5C33.1227 125.611 33.4135 125.943 33.6672 126.347C31.3026 129.372 29.7485 131.706 28.9319 133.312C28.5026 137.228 28.1574 139.533 27.8605 140.117L27.0178 140.148C24.0628 138.37 21.5088 136.888 19.3916 135.812L19.7256 135.155L18.6305 134.598L18.6986 135.367L18.5501 135.659L16.5059 134.62C16.0679 134.397 16.0332 134.104 16.2188 133.739C20.781 130.73 23.768 127.746 25.2157 124.899L25.7997 125.196L25.9853 124.831L25.8838 123.585C56.6058 75.9907 77.7546 46.6835 89.3673 35.5898C89.59 35.1518 90.4339 34.9377 91.8631 34.8374C91.206 34.5033 91.0254 34.1358 91.211 33.7708L92.2466 32.276L94.4344 33.7558L95.2882 32.0767C94.2673 31.3738 93.9047 30.822 94.1645 30.3109C98.5559 25.4688 101.216 22.0436 102.181 20.1454C102.33 19.8534 102.008 18.6791 101.106 16.6585C101.266 14.7182 101.679 13.1826 102.31 11.9414C104.436 11.736 107.288 12.4511 110.938 14.3071ZM109.48 24.2237C104.794 29.2836 98.8508 36.0932 91.7607 44.6166L91.3957 44.431L89.4294 42.6962L89.2809 42.9883C89.1695 43.2073 89.5655 44.2355 90.5419 46.1102C86.3968 52.4557 83.6313 55.1842 82.2442 54.479L82.0586 54.844C82.4966 55.0667 82.9334 55.4726 83.1871 55.8772L69.6208 74.2468L68.8511 74.3149L68.3995 76.1067C62.2883 86.1385 58.9957 90.988 58.4847 90.7281C57.9353 90.7244 57.6061 90.649 57.3871 90.5376L57.2015 90.9026C57.053 91.1947 57.3413 91.8926 58.1395 93.0334C60.0377 93.9985 67.3422 97.1611 80.272 102.633L80.8164 103.369C83.0834 103.97 84.546 104.346 85.0571 104.606L109.845 24.4093L109.48 24.2237ZM90.4958 36.623L91.9535 37.7317L92.6527 37.2602L92.0711 36.597L91.487 36.3C91.0118 36.1503 90.6814 36.258 90.4958 36.623ZM105.314 44.5246L105.892 45.7373C106.257 45.9229 106.735 45.7063 107.324 45.2707L106.852 44.5716L106.268 44.2746C105.83 44.0519 105.5 44.1596 105.314 44.5246ZM108.515 47.8061C108.403 48.2083 108.51 48.5386 108.875 48.7242C109.386 48.9841 109.717 48.8764 109.902 48.5114C110.125 48.0733 110.017 47.743 109.506 47.4831C108.994 47.4064 108.701 47.4411 108.515 47.8061ZM107.46 46.81L107.274 47.1751L108.223 47.6576L108.409 47.2926L107.46 46.81ZM107.73 50.255L107.544 50.62L108.493 51.1025L109.013 50.0804L108.648 49.8948C108.246 49.7822 107.915 49.8899 107.73 50.255ZM102.212 53.6976C102.062 54.1727 102.207 54.4301 102.572 54.6157L102.937 54.8013L103.234 54.2172L102.212 53.6976ZM103.89 60.1555L103.705 60.5206L105.125 61.7022L105.979 60.0231L105.249 59.6519C105.067 59.4675 104.589 59.684 103.89 60.1555ZM108.93 62.3505L108.633 62.9346L109.29 63.2687C109.403 62.8665 109.295 62.5361 108.93 62.3505ZM83.375 49.7248C83.1882 50.273 83.2958 50.6034 83.7339 50.8261L84.0259 50.9746L84.3971 50.2445L83.375 49.7248ZM76.8146 61.1821L76.6662 61.4742C76.4793 62.0224 76.587 62.3527 76.879 62.5012L77.6153 61.9567L77.1797 61.3677L76.8146 61.1821ZM97.2297 75.6047L97.7742 76.3409C98.2123 76.5636 98.5426 76.456 98.8025 75.9449L98.2939 75.3188C97.7457 75.132 97.4153 75.2396 97.2297 75.6047ZM101.459 78.4902L101.125 79.1472C100.975 79.6224 101.046 80.0258 101.411 80.2114C101.849 80.4341 102.252 80.3636 102.512 79.8525C102.735 79.4145 102.627 79.0841 102.116 78.8243L101.459 78.4902ZM100.567 85.8466L102.061 87.0653L102.724 86.4837L102.216 85.8576L101.631 85.5607C101.046 85.4469 100.716 85.5545 100.567 85.8466ZM65.2576 69.4558C65.1462 69.6748 64.8146 69.9656 64.41 70.2193L64.9544 70.9555L65.2465 71.104C65.6845 71.3267 65.9419 71.1819 66.1275 70.8169L65.6226 69.6414L65.2576 69.4558ZM100.481 87.8239L100.295 88.189L100.879 88.4859L101.065 88.1209L100.481 87.8239ZM64.4348 71.9776L64.1007 72.6347C63.951 73.1098 64.0586 73.4402 64.4237 73.6258L65.0918 72.3117L64.4348 71.9776ZM58.6575 75.9313L58.2863 76.6614L58.9433 76.9954L59.3145 76.2654L58.6575 75.9313ZM56.9561 78.374L56.5849 79.104C57.0229 79.3268 57.4263 79.2562 57.6862 78.7452L56.9561 78.374ZM59.9693 82.3868L60.6214 83.4534L60.9135 83.6019C61.2785 83.7875 61.6089 83.6798 61.7945 83.3148C61.9095 82.5463 61.9491 82.1071 61.7301 81.9957C60.6684 81.9153 60.1178 82.0947 59.9693 82.3868ZM90.9332 96.8436C90.124 97.351 89.6451 97.7507 89.4595 98.1157L90.1166 98.4498C90.4816 98.6354 90.812 98.5277 90.9976 98.1627L91.1461 97.8707C91.3688 97.4326 91.2983 97.0292 90.9332 96.8436ZM93.8053 100.05L94.7544 100.532L95.0514 99.9481L94.6864 99.7625C94.3213 99.5769 93.9909 99.6846 93.8053 100.05ZM51.5526 86.6523C51.4029 87.1275 51.5836 87.495 51.9486 87.6806L52.2406 87.8291C52.6787 88.0518 53.0821 87.9813 53.3048 87.5432C52.8668 87.3205 52.6118 87.099 52.7232 86.88C52.1738 86.8763 51.7716 86.7637 51.5526 86.6523ZM86.8068 105.863C86.6212 106.228 86.8365 106.889 87.4528 107.845L90.008 109.145L90.1936 108.78C88.8485 107.269 87.866 106.31 87.1359 105.939L86.8439 105.79L86.8068 105.863ZM52.07 91.4176L52.685 92.5572L53.3421 92.8913C53.7071 93.0769 54.0375 92.9692 54.2602 92.5312L54.7428 91.5821L54.4508 91.4336C53.1725 90.8755 52.3298 90.9065 52.07 91.4176ZM70.8379 100.225L70.541 100.809C70.3913 101.284 70.4989 101.614 70.864 101.8L72.0766 101.222C71.3849 100.595 70.9109 100.262 70.8379 100.225ZM76.0896 103.63L75.7555 104.287L76.9966 104.918C77.108 104.699 77.4396 104.408 77.8442 104.155L77.1872 103.821C76.6378 103.817 76.3086 103.741 76.0896 103.63ZM51.8423 92.5881L50.7027 93.2032C50.5542 93.4952 50.8438 94.01 51.5343 94.8204C51.8671 94.3465 52.1975 94.2388 52.5626 94.4244C52.6764 93.8391 52.3881 93.1413 51.8423 92.5881ZM51.1891 97.1257C51.0035 97.4908 51.1459 98.1144 51.7621 99.0709L52.9438 97.6503L52.5453 96.9883L52.1803 96.8027C51.7051 96.653 51.3747 96.7607 51.1891 97.1257ZM42.0028 101.459L41.8172 101.824C42.4743 102.159 42.7292 102.38 42.6549 102.526C43.1672 102.603 43.4964 102.678 43.7154 102.79L43.901 102.424C43.2439 102.09 43.0261 101.796 43.1375 101.577C42.5881 101.573 42.2218 101.571 42.0028 101.459ZM45.2771 104.778L44.9801 105.362L46.2212 105.993L46.4068 105.628L46.4489 104.823C45.8252 104.965 45.4961 104.889 45.2771 104.778ZM38.1262 106.012L37.9406 106.377L38.8897 106.86L39.2609 106.129C38.7114 106.126 38.3452 106.123 38.1262 106.012ZM35.9732 110.246L35.7876 110.611L36.7367 111.094L36.9223 110.729L35.9732 110.246ZM34.7074 113.278L34.0813 113.787L34.4798 114.449L34.8448 114.634L35.0304 114.269C35.3262 113.868 35.2185 113.538 34.7074 113.278ZM33.1583 114.879C33.1917 115.356 33.1521 115.795 33.0407 116.014L33.9898 116.497L34.4724 115.547L33.1583 114.879Z" fill="white"/>
<path fill-rule="evenodd" clip-rule="evenodd" d="M149.848 34.6414C154.252 38.8101 156.545 40.9866 156.691 41.0608C162.093 43.8077 167.116 48.5666 171.686 55.3004C174.826 62.3176 174.483 69.6777 170.623 77.2705L169.385 76.09C169.091 76.3078 168.906 76.4897 168.832 76.6357C168.684 76.9278 169.008 77.7358 169.769 78.9497L169.657 79.1687C166.948 84.4983 161.498 88.7105 153.346 91.7325C154.684 94.3422 156.46 97.1745 158.637 100.303C159.22 106.204 159.085 109.902 158.268 111.509C157.976 111.36 157.756 111.432 157.607 111.724L157.385 112.162C158.407 112.682 157.397 115.752 154.465 121.519C152.574 124.876 151.499 126.81 151.239 127.321C150.946 127.356 150.617 127.281 150.251 127.095L150.029 127.533L150.686 127.867C146.72 134.763 142.45 137.921 137.877 137.158C135.314 136.958 132.609 136.134 129.762 134.686C128.374 133.981 125.856 132.608 122.207 130.569C113.15 126.516 107.601 123.878 105.337 122.727C102.636 121.354 101.253 120.099 101.296 119.11L101.556 118.599C104.123 118.067 105.481 117.747 105.592 117.528L140.114 49.6303L141.001 48.4275C140.966 48.1343 141.042 47.8051 141.301 47.2941C141.71 46.491 142.674 44.7759 144.193 42.1489C144.564 41.4188 144.249 39.3288 143.026 35.9508C143.319 35.9161 145.483 35.4545 149.848 34.6414ZM151.459 45.5676C149.633 50.2438 146.921 55.9396 143.394 62.8754L143.283 63.0944C139.385 70.7602 137.088 74.7373 136.463 75.0627C135.452 78.3159 135.513 80.1844 136.681 80.7783C136.532 81.0703 137.735 81.9575 140.18 83.2926L141.275 83.8494C145.875 86.1879 150.299 87.4265 154.363 87.5637L155.02 87.8978C155.243 87.4597 155.463 87.3879 155.755 87.5364L156.093 86.3299C164.12 69.2783 167.811 59.6698 167.313 57.3954C167.209 56.5156 167.323 55.9304 167.471 55.6383L168.567 56.1951C168.861 55.9773 169.083 55.7224 169.231 55.4304L168.797 54.6583C168.21 54.7276 167.698 54.6509 167.333 54.4653C166.364 51.4918 163.488 48.8352 158.816 46.4595C154.688 44.8201 152.382 44.4749 151.937 45.351L151.459 45.5676ZM166.806 51.1651L166.327 51.5648L166.653 52.0066L166.872 52.1179L166.984 51.8989C167.169 51.5339 167.098 51.3136 166.806 51.1651ZM146.148 45.5319C146.073 45.861 146.145 46.0813 146.364 46.1926L146.948 46.4896L147.17 46.0515L146.148 45.5319ZM171.19 58.264C171.041 58.556 171.113 58.7763 171.405 58.9247L171.92 58.6352L171.19 58.264ZM172.207 59.5162L172.096 59.7352L172.534 59.9579L172.831 59.3739C172.539 59.2254 172.318 59.2972 172.207 59.5162ZM146.576 47.2197L146.903 47.6614L147.56 47.9955L147.672 47.7765C147.82 47.4844 147.748 47.2642 147.383 47.0786L147.164 46.9672C146.908 46.9289 146.688 47.0006 146.576 47.2197ZM169.013 60.5569L169.34 60.9987L169.637 60.4146C169.272 60.229 169.125 60.3379 169.013 60.5569ZM146.76 52.642C146.684 52.9711 146.756 53.1914 146.975 53.3027L147.417 52.976L146.76 52.642ZM166.331 67.2786L167.207 67.724L167.318 67.505C167.467 67.213 167.395 66.9927 167.03 66.8071L166.665 66.6215L166.331 67.2786ZM169.291 68.3241C169.142 68.6161 168.922 68.6879 168.63 68.5394C168.628 68.9057 168.589 69.1619 168.515 69.3079L169.391 69.7533C169.683 69.9018 169.903 69.83 170.052 69.538L170.163 69.319C170.239 68.9898 170.021 68.6953 169.291 68.3241ZM142.159 55.9076L141.717 56.2343L142.375 56.5684C142.56 56.2033 142.451 56.0561 142.159 55.9076ZM171.067 71.1565L170.844 71.5945L171.428 71.8915C171.576 71.5994 171.505 71.3792 171.213 71.2307L171.067 71.1565ZM140.782 59.1583L141.001 59.2697C141.731 59.6409 142.281 59.6445 142.649 59.2807L142.761 59.0617L142.177 58.7648C141.885 58.6163 141.444 58.7598 140.782 59.1583ZM164.26 70.2682L164.111 70.5602L164.914 70.9686L165.063 70.6765L164.26 70.2682ZM165.453 78.0415L165.341 78.2606C165.487 78.3348 165.669 78.5192 165.814 78.7765L166.329 78.487C166.477 78.1949 166.406 77.9747 166.04 77.7891C165.784 77.7507 165.564 77.8225 165.453 78.0415ZM162.044 78.4215C161.895 78.7136 161.967 78.9338 162.259 79.0823L163.031 78.6479L162.812 78.5366C162.446 78.5341 162.19 78.4958 162.044 78.4215ZM132.113 68.2572L131.89 68.6952L132.986 69.252C133.134 68.96 133.062 68.7397 132.77 68.5913L132.113 68.2572ZM162.696 84.9092L163.791 85.466L164.014 85.0279L163.357 84.6939C163.065 84.5454 162.844 84.6172 162.696 84.9092ZM136.12 71.5807L135.678 71.9074L136.005 72.3491L136.447 72.0225L136.12 71.5807ZM159.044 83.2363C158.97 83.3824 158.786 83.5643 158.528 83.709L158.928 84.1879L159.147 84.2993C159.439 84.4477 159.659 84.376 159.808 84.0839L159.447 83.3489L159.081 83.1633L159.044 83.2363ZM160.17 84.6358L159.948 85.0739L160.386 85.2966L160.609 84.8585L160.17 84.6358ZM158.484 84.8809L158.298 85.2459C158.15 85.5379 158.222 85.7582 158.514 85.9067L158.922 85.1036L158.484 84.8809ZM134.605 73.4752L134.383 73.9133L134.821 74.136L135.043 73.6979L134.605 73.4752ZM130.105 72.749C130.031 72.895 129.921 72.9309 129.775 72.8567C129.661 73.442 129.804 73.8825 130.205 74.1782L130.651 73.3021C130.506 73.0447 130.324 72.8604 130.105 72.749ZM158.102 87.2592C157.953 87.5512 157.988 87.8445 158.28 87.9929L158.54 87.4819L158.102 87.2592ZM131.081 74.6236L130.97 74.8427L131.627 75.1767L131.738 74.9577L131.081 74.6236ZM135.18 80.6583L135.068 80.8773L135.579 81.1372L135.691 80.9182L135.18 80.6583ZM133.081 82.2559L130 88.3155C129.926 88.4615 129.816 88.4974 129.67 88.4232L129.666 88.9726L127.847 92.55C124.618 98.9017 120.425 106.968 115.23 116.823C113.448 120.328 113.58 122.599 115.697 123.676C129.791 130.291 137.358 132.576 138.36 130.605C140.978 127.985 142.976 125.141 144.497 122.148L144.609 121.929C145.611 119.958 147.359 115.977 149.854 109.987C150.513 109.955 151.172 110.106 151.756 110.402L151.978 109.964C151.321 109.63 151.142 109.08 151.476 108.423C151.622 108.497 151.732 108.461 151.806 108.315C151.188 107.725 150.934 107.32 151.045 107.101L151.454 106.298L152.768 106.966C152.842 106.82 153.026 106.638 153.284 106.493C152.994 105.979 152.703 105.647 152.484 105.536C152.41 105.682 152.3 105.718 152.081 105.606C152.967 99.1656 152.807 95.6848 151.566 95.0538C150.771 93.3635 149.315 92.0717 147.198 90.9952L143.182 88.9536C141.138 87.9143 138.075 85.8058 134.03 82.7384L133.081 82.2559ZM147.533 90.155L147.86 90.5967L148.298 90.8195L148.595 90.2354L148.157 90.0127C147.792 89.8271 147.682 89.863 147.533 90.155ZM126.752 81.1511L126.64 81.3701L127.663 81.8898L127.997 81.2327L127.413 80.9357C127.048 80.7501 126.9 80.859 126.752 81.1511ZM124.395 83.0765L124.172 83.5146C124.096 83.8437 124.168 84.064 124.387 84.1753L124.679 84.3238C124.971 84.4723 125.192 84.4005 125.34 84.1085L125.563 83.6705L124.395 83.0765ZM156.137 101.604L155.695 101.931L155.584 102.15L156.168 102.447L156.279 102.228C156.428 101.936 156.356 101.716 156.137 101.604ZM154.27 101.482L154.158 101.701C154.047 101.92 154.155 102.25 154.481 102.692L155.365 102.039L154.931 101.267C154.601 101.191 154.381 101.263 154.27 101.482ZM123.056 86.0711C122.98 86.4002 123.015 86.6935 123.307 86.842L123.526 86.9533C123.675 86.6613 123.64 86.368 123.348 86.2196L123.056 86.0711ZM125.704 89.8983C125.629 90.2274 125.7 90.4477 125.992 90.5962L126.211 90.7075C126.503 90.856 126.724 90.7842 126.872 90.4922L126.984 90.2732L125.704 89.8983ZM123.294 88.8565C123.182 89.0755 122.888 89.2933 122.41 89.5098L122.771 90.2448L123.428 90.5789L124.235 90.4378C124.313 89.7424 124.243 89.339 124.097 89.2648L123.294 88.8565ZM155.444 106.581L155.222 107.019L155.66 107.242L155.882 106.804L155.444 106.581ZM157.669 107.988L157.446 108.426L157.884 108.649L158.107 108.211L157.669 107.988ZM122.978 92.1876L122.867 92.4066C122.718 92.6986 122.79 92.9189 123.082 93.0673L123.228 93.1416C123.339 92.9226 123.305 92.6293 122.978 92.1876ZM122.091 93.3903L121.868 93.8284C121.757 94.0474 121.864 94.3778 122.118 94.7824L122.556 95.0051C122.848 95.1536 123.069 95.0818 123.217 94.7898L123.328 94.5708C123.477 94.2788 123.405 94.0585 123.113 93.91L122.091 93.3903ZM152.753 109.164L152.53 109.602L153.187 109.936L153.41 109.498L152.753 109.164ZM155.416 110.793L155.193 111.231L155.631 111.454L155.854 111.016L155.416 110.793ZM119.699 95.0225L120.137 95.2453L120.397 94.7342L119.959 94.5115L119.699 95.0225ZM149.79 114.089L149.348 114.415L149.051 115L150.035 115.775L150.662 115.084C150.299 114.532 150.009 114.2 149.79 114.089ZM152.929 115.685L152.706 116.123C152.998 116.271 153.218 116.2 153.367 115.908L152.929 115.685ZM119.624 100.773C119.688 102.092 120.269 102.938 121.218 103.421L121.437 103.532C121.732 103.131 121.116 102.175 119.624 100.773ZM153.2 118.947L153.784 119.244L153.895 119.025C154.044 118.733 154.009 118.439 153.717 118.291L153.571 118.217L153.2 118.947ZM115.159 100.157L114.717 100.483L115.375 100.817C115.523 100.525 115.451 100.305 115.159 100.157ZM153.702 120.488C153.627 120.818 153.699 121.038 153.991 121.186L154.21 121.298L154.432 120.86L153.702 120.488ZM148.174 125.579L148.612 125.802C148.904 125.951 149.124 125.879 149.273 125.587L148.835 125.364C148.468 125.362 148.248 125.433 148.174 125.579ZM116.847 110.571L117.174 111.012L117.393 111.124L117.727 110.467L117.508 110.355C117.143 110.17 116.996 110.279 116.847 110.571ZM141.887 129.09L141.627 129.601C141.993 129.604 142.286 129.569 142.359 129.606L142.471 129.387L141.887 129.09ZM142.248 129.825L141.951 130.409L142.462 130.669C142.754 130.817 142.974 130.746 143.123 130.454L142.248 129.825ZM139.825 130.615L139.528 131.199L140.331 131.607L140.628 131.023L139.825 130.615ZM138.415 133.389L138.303 133.608C138.595 133.756 138.85 133.978 138.995 134.235L139.437 133.909L139.548 133.69L138.415 133.389ZM139.099 135.115C139.024 135.444 139.095 135.664 139.314 135.776L139.606 135.924C139.898 136.073 140.119 136.001 140.267 135.709L139.833 134.937C139.358 134.787 139.248 134.823 139.099 135.115ZM126.018 130.302L126.675 130.636L126.898 130.198L126.679 130.087C126.35 130.011 126.167 130.01 126.018 130.302Z" fill="white"/>
<path fill-rule="evenodd" clip-rule="evenodd" d="M232.384 81.9349C233.844 82.6773 236.534 85.6989 240.638 91.0011L241.003 91.1866L240.631 91.9167C239.609 91.397 238.913 91.5022 238.542 92.2323L239.518 94.107L240.759 94.738L241.539 93.2048L241.545 92.2892L241.91 92.4748C244.643 94.5077 246.357 95.6547 246.941 95.9517L248.845 96.0011C249.364 100.583 248.713 104.755 246.82 108.478C246.528 108.329 245.905 108.472 245.095 108.979C245.898 109.387 246.078 109.938 245.707 110.668C242.148 116.944 239.858 119.823 238.909 119.34C237.375 118.561 237.03 115.445 237.873 109.993C238.165 110.141 238.312 110.032 238.423 109.813C237.915 109.187 237.86 106.403 238.369 101.608C237.187 97.6076 235.921 95.2183 234.68 94.5872L230.81 92.6199L230.094 90.2342L229.729 90.0486L229.723 90.9643L228.807 90.9581L222.309 87.6544C216.303 92.9618 212.953 95.3934 212.296 95.0593C211.931 94.8737 211.381 95.0532 210.607 95.6707C211.081 96.0035 211.152 96.4069 210.966 96.7719C206.877 100.297 200.567 107.105 192.039 117.01C189.164 119.775 187.58 121.083 187.069 120.823C185.973 120.449 185.276 120.554 184.905 121.284L184.719 121.649L186.017 124.698L184.681 127.327C184.236 128.203 183.755 128.786 183.314 129.112L182.714 131.196C170.564 151.297 163.301 163.775 160.777 168.74C150.755 188.452 144.875 207.606 143.065 226.164C144.023 230.786 146.382 234.098 150.105 235.991C153.098 237.513 157.963 238.608 164.808 239.24C165.098 239.755 165.571 240.088 166.229 240.422C166.34 240.203 166.487 240.094 166.779 240.243L166.822 239.254L167.008 238.889C176.536 238.22 182.227 236.244 183.897 232.959C185.81 231.726 188.579 228.448 192.241 223.235L193.044 223.643C192.824 229.136 190.208 236.811 185.234 246.594L182.487 251.996L181.641 252.577C180.152 250.625 179.431 248.972 179.366 247.653L179.737 246.923C179.886 246.631 180.069 246.632 180.288 246.743C180.515 245.756 180.193 244.582 179.14 243.219L178.775 243.034C168.97 246.777 159.997 246.534 151.747 242.339C137.876 235.286 131.78 221.253 133.496 200.35C135.455 192.158 138.44 184.12 142.523 176.089C143.377 174.41 149.273 163.717 160.173 144.084L160.539 144.27C160.687 143.978 160.578 143.831 160.359 143.719C176.025 118.148 186.2 103.015 191.214 98.2141C197.977 89.2489 204.313 83.8339 210.224 81.7858C217.753 78.9061 222.047 77.6896 223.069 78.2093C228.038 80.0009 231.143 81.3038 232.384 81.9349ZM224.735 80.8944L224.55 81.2595C224.326 81.8807 224.396 82.284 224.835 82.5068L226.918 83.1068C227.178 82.5958 227.035 82.1553 226.597 81.9326L224.698 80.9674L224.735 80.8944ZM232.315 86.7694L232.859 87.5056L233.224 87.6912C233.192 87.0317 233.305 86.6295 233.416 86.4105C232.978 86.1878 232.537 86.3313 232.315 86.7694ZM231.709 89.7689L231.523 90.1339L233.236 91.4641L233.607 90.734C233.096 90.4742 232.878 90.1796 232.989 89.9606C232.44 89.9569 232.001 89.9173 231.709 89.7689ZM218.348 82.9759L218.162 83.341C218.747 83.6379 219.183 84.0438 219.51 84.4855L220.246 83.9411L218.348 82.9759ZM219.374 88.3673L219.919 89.1035L220.475 88.0084C220.037 87.7857 219.597 87.9292 219.374 88.3673ZM245.067 102.349C244.918 102.641 244.735 102.64 244.516 102.529C244.475 103.151 244.436 103.59 244.324 103.809L245.857 104.589C246.006 104.297 246.3 104.079 246.779 103.679L245.067 102.349ZM216.325 89.6654L215.954 90.3955L216.757 90.8038L217.128 90.0737L216.325 89.6654ZM206.381 92.2358L205.788 93.4039C206.299 93.6637 206.739 93.5202 206.999 93.0091L207.185 92.6441L206.381 92.2358ZM197.558 91.7002C197.372 92.0653 197.514 92.6889 198.096 93.3522C198.607 93.612 198.974 93.4313 199.197 92.9933L199.605 92.1902L197.78 91.2622L197.558 91.7002ZM199.586 95.1204L200.316 95.4916L200.724 94.6885C200.249 94.5388 199.808 94.6823 199.586 95.1204ZM191.451 106.421C192.654 107.308 193.31 107.825 193.529 107.936L193.9 107.206C194.16 106.695 194.09 106.292 193.578 106.032C192.444 105.914 191.637 106.056 191.451 106.421ZM187.467 110.643C187.388 111.521 187.421 111.998 187.713 112.146C188.373 112.114 188.775 112.227 188.994 112.338L189.365 111.608C189.625 111.097 189.482 110.656 188.971 110.396C188.092 110.317 187.578 110.424 187.467 110.643ZM185.494 115.428L185.085 116.231L186.18 116.788C186.44 116.277 186.297 115.836 185.859 115.613L185.494 115.428ZM177.164 123.137L176.978 123.502C176.792 123.867 176.935 124.491 177.515 125.337L177.775 124.826C177.886 124.607 177.707 124.056 177.164 123.137ZM180.005 130.921L179.269 131.466L180.364 132.023C180.624 131.512 180.516 131.181 180.005 130.921ZM168.96 139.272L168.552 140.075L169.72 140.669L170.128 139.866L168.96 139.272ZM170.45 141.04C170.336 141.625 170.444 141.956 170.809 142.141L171.32 142.401L171.691 141.671L170.45 141.04ZM150.094 166.8L149.909 167.165L151.515 167.981L151.144 168.711L150.779 168.526C150.379 168.047 150.088 167.715 149.723 167.53C149.463 168.041 149.79 168.482 150.593 168.891C151.18 168.821 151.582 168.934 151.947 169.12L152.318 168.39C152.578 167.879 152.324 167.474 151.521 167.066C150.899 167.025 150.459 166.985 150.094 166.8ZM154.717 171.08L153.944 171.697L153.758 172.062C153.534 172.683 153.605 173.087 154.043 173.309C154.554 173.569 154.922 173.389 155.219 172.805L155.59 172.074C155.408 171.89 155.117 171.558 154.717 171.08ZM147.661 174.658L147.104 175.754L148.451 176.898L148.229 177.336L146.905 178.133L146.719 178.498L147.449 178.869C147.814 179.055 148.438 178.913 149.101 178.331L150.289 175.995C150.549 175.484 150.478 175.08 149.967 174.82L148.872 174.264C148.214 174.113 147.883 174.22 147.661 174.658ZM149.681 179.177L149.31 179.907C149.602 180.056 149.82 180.35 150.22 180.829L150.405 180.464C150.665 179.953 150.484 179.586 150.046 179.363L149.681 179.177ZM152.55 182.933L152.141 183.736L152.507 183.921L152.915 183.118L152.55 182.933ZM146.372 186.591L146.916 187.327L148.157 187.958C148.668 188.218 149.109 188.074 149.331 187.636L148.499 186.202C147.254 186.12 146.557 186.226 146.372 186.591ZM140.688 187.468C140.465 187.906 140.717 188.677 141.405 189.854L142.135 190.225L143.638 189.979C143.83 188.698 143.725 188.001 143.36 187.816L142.63 187.445C141.676 187.695 141.053 187.654 140.688 187.468ZM146.512 193.002L146.14 193.732L147.236 194.289C147.495 193.778 147.315 193.41 146.804 193.15L146.512 193.002ZM187.234 232.359L186.678 233.454L187.773 234.01L188.33 232.915L187.234 232.359ZM187.902 236.649L187.493 237.452L188.223 237.823L188.632 237.02L187.902 236.649ZM140.809 218.494L140.438 219.224L141.971 220.003C142.231 219.492 142.05 219.125 141.612 218.902L140.809 218.494ZM165.85 242.251L166.467 243.024L167.563 243.581L167.748 243.216C168.008 242.705 167.827 242.337 167.316 242.078L166.951 241.892C166.403 241.705 166.073 241.813 165.85 242.251ZM143.241 232.685L142.684 233.78C143.307 233.821 143.746 233.861 143.965 233.972L144.151 233.607C143.859 233.459 143.568 233.127 143.241 232.685Z" fill="white"/>
</svg>
