<svg width="197" height="160" viewBox="0 0 197 160" fill="none" xmlns="http://www.w3.org/2000/svg">
<path d="M146.804 54.4073C152.098 53.5128 157.182 52.8964 162.197 51.7925C164.217 51.3092 166.306 51.3134 168.187 50.8994C169.44 50.6235 170.761 51.5313 171.873 52.7172C173.957 55.1583 176.599 56.9739 178.962 58.9282C179.519 59.3471 179.517 60.0434 180.073 60.4623C182.508 61.8597 183.616 64.4381 185.423 66.3217C187.299 68.3446 189.314 70.2982 190.772 72.5292C191.952 74.2026 193.481 75.5286 194.522 77.2714C195.355 78.596 195.214 79.3616 193.612 79.6368C191.244 80.1195 188.735 81.0195 186.368 80.8059C184.558 80.663 182.678 80.7288 180.868 80.934C178.361 81.1379 175.854 81.3417 173.486 81.4762C170.77 81.6099 167.985 81.9525 165.2 81.9468C163.32 82.0127 161.3 82.1479 159.419 82.5618C158.166 82.8378 156.913 82.4175 155.659 82.6935C154.057 82.9688 153.637 84.2212 153.078 85.1948C152.938 85.6123 152.728 86.2385 152.518 86.5166C151.193 87.6976 150.841 89.4375 150.003 90.898C149.444 91.8717 148.746 92.9146 148.187 93.8883C146.929 95.9049 145.671 98.2697 144.414 100.286C143.575 101.747 142.946 103.277 141.69 104.598C140.504 105.709 139.804 107.449 139.314 108.91C138.544 110.858 137.01 111.969 134.923 111.268C133.322 110.847 131.792 110.217 130.26 109.936C128.172 109.584 126.224 109.162 124.135 108.809C122.187 108.388 120.099 107.687 118.22 107.405C116.341 107.123 114.462 106.492 112.722 106.141C111.191 105.859 109.8 105.16 108.268 105.227C105.831 105.222 103.814 103.964 101.587 103.681C99.9162 103.469 98.3857 102.839 96.9245 102.349C95.2546 101.789 93.4453 101.298 91.7054 100.946C90.1742 100.664 88.783 99.9652 87.2518 99.6836C85.0944 99.1919 83.0063 98.8396 80.9189 98.1391C78.2053 97.2285 75.4903 97.0141 72.9161 96.0341C71.1769 95.3344 69.1574 95.4695 67.4182 94.7698C64.9834 93.7205 62.4078 93.4368 59.8336 92.4568C56.8419 91.3367 53.8495 90.5648 50.7878 89.6535C50.1616 89.4434 49.6054 89.0245 48.9792 88.8143C45.9174 87.903 42.7142 88.1054 39.6511 87.8904C35.5436 87.6732 31.436 87.456 27.3979 87.3783C25.4485 87.3047 23.3597 87.3005 21.4796 87.3663C20.0871 87.3635 18.4165 87.1513 17.024 87.1485C14.4477 87.2129 12.0122 86.5117 9.43584 86.5761C8.04332 86.5733 6.7909 86.153 5.53846 85.7328C3.65982 85.1023 3.52323 83.7792 4.77987 82.1107C5.75703 80.929 7.15095 80.2355 8.2668 79.3326C10.289 77.8049 12.5887 76.8348 14.4022 75.237C15.8669 73.9867 17.887 73.5034 19.1436 71.8349C20.1208 70.6532 22.0716 70.0305 23.4662 68.9889C25.3491 67.5306 27.5093 66.6298 29.3221 65.3802C33.2265 62.7422 37.7558 61.0107 41.5908 58.2334C42.079 57.8166 42.7753 57.818 43.2635 57.4013C45.7033 56.0136 48.0043 54.3472 50.374 53.1684C53.7194 51.5041 57.2035 50.1186 60.4103 48.1755C61.2466 47.7594 62.221 47.9703 63.058 47.2061C63.7557 46.5112 65.0095 46.2352 65.8459 45.8192C68.8425 44.5023 71.4916 42.8366 74.4882 41.5198C76.0216 40.757 77.833 40.2036 79.2283 38.8139C80.1347 38.1891 81.4593 37.3562 82.7124 37.4284C83.4087 37.4298 83.5495 36.6642 84.2464 36.3175C86.0585 35.416 88.1487 34.7239 89.8221 33.5436C92.5414 31.6692 95.6059 31.188 98.3244 29.6617C99.1608 29.2456 100.136 29.1083 101.042 28.4835C104.528 26.4018 108.569 25.087 112.193 23.284C113.866 22.4519 115.747 21.6898 117.42 20.8577C117.838 20.6496 118.465 20.5116 118.674 20.2335C119.652 18.7037 120.835 19.3328 121.948 19.8224C124.869 21.1512 127.652 22.5493 130.574 23.53C133.287 24.4406 135.722 25.4899 138.226 26.6786C139.757 27.3083 141.359 27.0331 142.61 28.1496C143.792 29.1268 145.533 28.7822 146.924 29.4812C148.037 29.9709 149.429 30.3218 150.333 31.0895C151.167 31.7178 152.003 31.3018 152.838 31.582C153.742 32.0015 154.507 32.4905 155.412 32.91C157.011 33.6792 158.682 33.8914 160.072 34.9386C161.185 35.7764 161.393 36.1946 160.624 37.4463C159.158 39.741 157.135 41.6168 155.529 43.6328C153.295 46.4829 150.645 48.8449 148.689 51.9045C148.061 52.7388 147.363 53.4336 146.804 54.4073ZM7.56141 83.8569C11.6689 84.0741 15.6371 84.3606 19.3965 84.5771C22.1115 84.7914 24.8979 84.1008 27.7509 84.942C27.9596 85.0121 28.2384 84.8734 28.5172 84.7347C30.606 84.7389 32.6254 84.6038 34.7836 84.7474C35.6886 84.8188 36.5936 84.8903 37.5679 85.1011C38.9597 85.452 40.215 84.4798 41.5375 84.6913C43.2774 85.043 45.1568 85.3253 46.8974 85.3288C53.0937 85.5502 59.3601 85.5628 65.6264 85.5755C66.6708 85.5776 67.8553 85.1622 68.6209 85.303C70.7783 85.7947 72.7291 85.172 74.7479 85.385C78.1592 85.6007 81.7119 84.7028 85.1925 85.0579C85.7494 85.1287 86.3063 85.1994 86.7244 84.9914C87.8396 84.4366 89.0927 84.5088 90.2065 84.6503C92.9215 84.8646 95.3605 83.8251 98.0054 84.2482C100.233 84.5312 102.254 83.3517 104.552 83.4259C106.71 83.5695 108.661 82.9468 110.75 82.951C112.49 82.9546 114.232 82.6099 115.903 82.474C118.619 82.3403 121.334 82.2065 123.981 81.9333C124.816 81.8654 125.653 81.4493 126.418 81.5901C130.038 81.8759 133.521 81.1867 137.142 81.1244C140.206 80.9913 143.34 80.6495 146.473 80.3077C148.632 80.1031 150.86 80.038 153.019 79.8335C156.222 79.6311 159.564 79.7074 162.768 79.505C165.623 79.3019 168.547 79.2382 171.472 79.1744C174.396 79.1107 177.391 78.4901 180.316 78.4264C183.519 78.224 186.792 77.8128 189.995 77.6104C190.344 77.6111 190.9 77.6818 191.041 77.2644C191.181 76.8469 190.833 76.4981 190.486 76.1492C189.652 75.1728 188.4 74.4043 187.915 73.4286C187.222 72.0347 185.901 71.1269 185.137 69.9417C184.374 68.7565 183.052 67.8487 182.219 66.8722C181.177 65.8257 180.064 64.988 179.092 63.7327C177.981 62.1987 176.173 61.0114 174.923 59.5467C173.465 57.6639 171.587 56.3372 170.059 54.6631C169.295 53.826 168.39 53.4064 167.276 53.613C165.605 53.7489 164.002 54.3723 162.262 54.0207C161.357 53.9492 160.311 54.6434 159.406 54.5719C156.691 54.3576 154.253 55.0489 151.676 55.4615C149.238 55.8047 146.939 56.4267 144.571 56.9093C142.203 57.3919 139.626 57.4564 137.258 58.2871C134.819 58.9784 132.313 58.8341 129.805 59.3861C126.044 60.214 122.075 60.2756 118.314 60.7554C115.877 61.0987 113.299 61.5112 110.792 62.0632C109.886 62.3399 109.052 61.7115 108.216 62.1276C106.403 63.0291 104.315 62.6768 102.364 63.6476C101.388 64.133 99.8569 63.8514 98.7424 64.058C97.1405 64.3333 95.6078 64.748 94.0059 65.0233C91.0107 65.6439 87.9462 66.1251 84.951 66.7457C82.8615 67.0896 80.7026 67.2941 78.6825 67.7774C77.1499 68.1921 75.6873 68.398 74.0853 68.6733C72.4834 68.9486 70.7427 68.945 69.0014 69.2897C66.4243 69.7022 64.0561 70.1848 61.5484 70.7368C59.4589 71.0807 57.2994 71.6334 55.3493 71.9079C53.3992 72.1825 51.5871 73.084 49.6377 73.0104C48.0364 72.9376 46.5031 73.7004 44.9011 73.9757C43.5079 74.321 42.1154 74.3182 40.6521 74.8722C39.0494 75.4956 37.1694 75.5615 35.428 75.9061C32.2241 76.4566 29.0195 77.3553 25.8849 78.0453C22.4022 78.7345 18.9874 80.2594 15.574 81.088C13.0657 81.9881 10.4179 82.9575 7.56141 83.8569ZM157.423 36.6043C156.102 36.0446 155.059 35.3463 153.875 35.0654C150.814 34.154 147.892 32.8253 144.9 31.7052C142.744 30.8653 140.448 30.0948 138.291 29.2549C136.343 28.4851 134.604 27.4372 132.865 26.7374C129.387 25.3379 126.047 23.869 122.569 22.4694C120.621 21.6996 119.506 22.2544 117.972 23.0172C116.439 23.78 114.836 24.4034 113.373 25.3056C111.7 26.1377 109.958 26.8305 108.216 27.5232C106.613 28.1466 105.218 29.1882 103.616 29.8116C102.013 30.435 100.271 31.1278 98.7377 31.8906C93.9983 34.2483 89.1896 36.4667 84.5196 38.9638C82.0799 40.3514 79.3621 41.5296 76.853 42.7778C74.4833 43.9567 72.253 45.0662 69.8833 46.2451C66.5379 47.9094 63.6093 50.0619 60.0558 51.308C58.7319 51.7927 57.7548 52.9744 56.2221 53.3891C55.3164 53.6657 54.5494 54.2212 53.7824 54.7767C52.4578 55.6095 50.9252 56.0242 49.6707 56.6483C47.8586 57.5498 46.1852 58.73 44.5124 59.5622C41.864 60.8798 39.3542 62.4761 36.9145 63.8637C35.2418 64.6959 33.8471 65.7374 32.3832 66.6396C31.1286 67.2637 29.8741 67.8878 28.7582 68.7907C27.2242 69.9017 25.6209 70.8732 24.0175 71.8447C22.6929 72.6776 21.2289 73.5798 19.835 74.2732C17.3953 75.6608 15.2336 77.2579 12.7246 78.5061C11.6094 79.0609 10.703 79.6857 9.65721 80.3798C12.5824 79.968 15.4382 79.4167 18.1553 78.5867C21.1505 77.9661 23.7289 76.8573 26.446 76.0272C27.4911 75.6812 28.5362 75.3352 29.6506 75.1285C33.2034 74.2306 36.8255 73.472 40.3096 72.0865C45.0475 70.425 49.9242 69.0423 54.5921 67.5896C58.2149 66.4829 61.699 65.0973 65.3211 64.3388C68.1076 63.6481 70.7553 62.6787 73.4024 62.0574C77.8609 60.8827 82.1807 59.4293 86.5698 58.1152C91.0282 56.9406 95.2086 55.5565 99.5977 54.2424C102.524 53.4824 105.38 52.5831 108.237 51.6837C110.187 51.061 112.207 50.9258 113.88 50.0936C116.389 48.8454 119.314 48.4336 121.891 47.6729C125.862 46.5669 129.833 45.4608 133.874 44.4942C138.889 43.3903 143.767 41.3114 148.783 39.8593C150.316 39.4447 151.641 38.2637 153.312 38.1278C154.984 37.9919 156.168 37.5765 157.423 36.6043ZM54.4113 88.1986C56.706 89.6654 59.2116 90.1579 61.5077 90.9284C64.0125 91.769 66.7962 92.4708 69.3711 93.1027C72.1547 93.8046 74.7289 94.7845 77.5133 95.1383C79.7408 95.4213 82.0369 96.1918 84.2637 96.8229C86.5598 97.5934 89.066 97.7378 91.3622 98.5083C92.6146 98.9286 93.9371 99.1401 95.3289 99.491C97.6257 99.9134 99.8532 100.196 101.871 101.106C103.192 101.665 104.654 101.808 105.977 102.019C108.482 102.512 110.708 103.839 113.354 103.566C113.354 103.566 113.423 103.705 113.632 103.775C115.511 104.406 117.599 104.758 119.408 105.249C121.217 105.74 123.167 105.814 124.906 106.513C126.923 107.423 129.151 107.357 131.308 108.197C132.63 108.757 134.441 108.552 135.762 109.111C137.084 109.671 137.225 108.905 137.575 108.21C138.623 106.123 139.533 103.758 140.651 101.811C142.118 99.5158 142.889 96.8715 144.634 94.7863C146.868 91.9361 148.059 88.3875 150.154 85.2586C150.573 84.7024 151.27 84.0075 151.064 82.8931C150.297 83.4486 149.6 83.4472 148.834 83.6545C147.371 83.8604 145.77 83.7876 144.238 84.2022C142.844 84.5476 141.312 84.9622 139.71 84.8894C137.831 84.6071 135.881 84.8816 133.932 84.8081C132.33 84.7352 130.658 85.2192 128.987 85.3551C128.151 85.4231 127.247 85.0035 126.481 85.2108C123.486 85.8314 120.63 86.0345 117.567 86.1676C114.851 86.3014 112.066 86.2958 109.42 86.5689C107.261 86.7735 104.963 86.6992 102.735 86.7643C100.019 86.8981 97.3736 86.8231 94.6579 86.9569C91.9422 87.0907 89.2951 87.712 86.5101 87.7064C84.2819 87.7715 81.9837 88.0454 79.6862 87.9711C78.2936 87.9683 76.9704 88.1049 75.7173 88.0327C74.8123 87.9613 73.9774 87.6811 73.0023 87.8184C71.4704 87.8849 69.9385 87.9515 68.4066 88.018C67.2228 88.0852 65.9696 88.0131 64.7859 88.0803C63.1146 88.2162 61.444 88.0039 59.7726 88.1398C58.1013 88.2757 56.2913 88.1328 54.4113 88.1986ZM154.91 39.9413C154.841 39.8019 154.771 39.6625 154.702 39.5231C153.099 40.1465 151.219 40.2124 149.895 41.0452C148.57 41.8781 147.038 41.9446 145.714 42.4293C143.206 43.3294 140.698 43.8814 138.121 44.642C135.543 45.4027 132.894 46.7203 130.247 47.3416C127.948 47.9636 125.441 48.5156 123.142 49.1376C119.937 50.0362 116.662 51.1437 113.458 52.0423C111.298 52.595 109.139 53.1476 107.049 53.8397C104.192 54.7391 101.127 55.5684 98.2703 56.4678C95.2745 57.4365 92.0698 58.3352 88.9352 59.0251C86.1488 59.7158 83.4317 60.5458 80.854 61.3065C79.8089 61.6526 78.8345 61.4417 77.7894 61.7877C75.4898 62.7579 73.1208 63.5886 70.4738 64.2099C67.618 64.7612 64.9695 66.0787 62.113 66.9781C60.5804 67.3928 59.1864 68.0862 57.5151 68.2221C57.0276 68.2907 56.4007 68.4287 56.5387 69.0557C56.6767 69.6826 57.3736 69.3358 57.6524 69.1971C59.6025 68.9226 61.4833 68.5086 63.5034 68.0253C66.3592 67.4741 69.4237 66.9928 72.2795 66.4416C74.9959 65.9597 77.7817 65.6172 80.4988 64.7871C81.4045 64.5105 82.5869 65.1395 83.2159 63.9571C85.234 64.5182 87.3241 63.8261 89.2049 63.4122C91.225 62.9289 93.4532 62.8637 95.5434 62.1717C98.2605 61.3416 101.116 61.1385 103.832 60.6566C107.036 60.1061 110.24 59.5555 113.513 59.1443C115.811 58.8705 118.249 58.5273 120.478 58.114C121.105 57.976 121.872 57.4206 122.429 57.4913C124.726 57.5656 126.886 57.0129 128.975 56.669C132.04 56.1878 135.104 55.7066 138.238 55.3648C139.909 55.2289 141.441 55.1623 142.905 54.6083C145.344 53.5688 146.394 50.7859 147.86 48.8393C149.116 47.1708 150.165 45.0841 151.561 43.3463C152.816 42.374 153.793 41.1923 154.91 39.9413Z" fill="#9CCDEE"/>
<path d="M167.167 72.969C165.567 72.548 163.895 73.032 162.293 72.9592C159.996 72.8849 157.628 73.0194 155.33 73.2933C153.171 73.4978 150.944 73.2148 148.785 73.4193C146.696 73.7632 144.468 73.4802 142.448 73.9635C141.194 74.2395 139.802 73.8886 138.479 74.0252C135.833 74.2983 133.048 74.2927 130.471 74.3571C127.895 74.4216 125.249 74.3466 122.603 74.6198C121.28 74.7564 119.819 74.266 118.494 75.0989C118.215 75.2376 117.311 74.818 116.754 74.7472C115.501 74.6751 114.178 74.8117 113.063 75.0183C111.461 75.2936 109.931 74.6638 108.259 75.1478C106.587 75.6319 104.776 75.8371 103.175 75.7642C100.808 75.5506 98.369 76.5901 96.0028 76.0283C95.0285 75.8174 94.3315 76.1642 93.4959 76.2321C91.6158 76.2979 89.9438 76.7819 88.0638 76.8478C86.3925 76.9837 84.6518 76.9802 82.8411 77.1854C80.2641 77.5979 77.6878 77.6624 75.1108 78.0749C73.0213 78.4188 70.8624 78.6234 68.9124 78.8979C64.3852 79.5851 59.8582 80.2722 55.2617 80.8199C52.7547 81.0238 50.177 81.7845 47.6007 81.8489C45.5813 81.9841 43.5618 82.1193 41.6818 82.1851C41.3336 82.1844 40.9855 82.1837 41.0563 81.6268C41.057 81.2787 41.4051 81.2794 41.6138 81.3494C43.0757 81.4916 44.4689 81.1463 45.7228 80.8703C48.9267 80.3198 52.1993 80.2568 55.4739 79.1493C57.2853 78.596 59.2347 78.6695 61.1848 78.395C62.9955 78.1897 64.8069 77.6364 66.687 77.5705C69.0546 77.4361 71.4228 76.9535 73.8605 76.6102C76.5068 76.3371 79.2919 76.3427 81.9389 75.7214C83.1928 75.4454 84.5853 75.4482 86.0478 75.2423C87.5104 75.0364 88.9036 74.6911 90.3655 74.8333C92.3149 74.9068 94.265 74.6322 96.0757 74.427C98.8615 74.0845 101.786 74.0208 104.641 73.8176C107.844 73.6152 110.977 73.6215 114.251 73.2104C116.549 72.9365 118.707 73.0801 120.935 73.015C123.512 72.9506 125.95 72.2592 128.525 72.8911C129.499 73.1019 130.684 72.6865 131.798 72.4799C133.957 72.2754 136.254 72.3496 138.413 72.1451C142.313 71.9441 146.352 71.6737 150.39 71.7515C152.687 71.8258 154.917 71.0644 157.144 71.3474C160.416 71.6325 163.481 70.8031 166.684 70.9489C168.285 71.0217 169.678 70.6764 171.14 70.8186C171.697 70.8893 171.767 71.0287 171.766 71.3769C171.765 71.725 171.695 71.9337 171.347 71.933C169.814 72.3477 168.491 72.4843 167.167 72.969Z" fill="#9CCDEE"/>
<path d="M154.45 61.0372C155.216 60.8299 155.215 61.178 155.284 61.6655C155.352 62.5012 155.072 62.988 154.167 62.9166C153.611 62.8458 153.123 62.9144 153.124 62.2182C153.335 61.592 153.475 60.8264 154.45 61.0372Z" fill="#9CCDEE"/>
<path d="M91.6922 72.956C91.4148 72.3984 90.5799 72.1182 91.1381 71.4927C91.3476 71.2147 92.1139 71.0073 92.2526 71.2861C92.53 71.8437 91.833 72.1904 91.6922 72.956Z" fill="#9CCDEE"/>
<path d="M35.9282 69.5711C35.7909 68.596 36.6966 68.3194 37.1148 68.1113C40.8784 66.239 44.1559 63.7391 47.7801 61.9361C50.2892 60.6879 52.7289 59.3002 55.1686 57.9126C57.3989 56.8031 59.5599 55.5542 61.7901 54.4447C63.0447 53.8206 64.786 53.4759 65.7625 52.6424C67.7154 50.9753 70.1537 50.284 72.3147 49.035C74.615 47.7168 77.1934 46.6079 79.5631 45.4291C81.3752 44.5276 83.4654 43.8355 85.1388 42.6553C85.6971 42.0298 86.5334 41.6137 87.5085 41.4764C88.4835 41.3391 89.3899 40.7143 90.1569 40.1588C92.1785 38.9793 94.4774 38.3573 96.499 37.1777C98.73 35.72 101.377 35.0987 103.886 33.8505C106.256 32.6716 108.904 31.7022 111.413 30.454C112.946 29.6912 114.757 29.1378 116.152 28.0963C116.361 27.8182 116.78 27.6101 117.266 27.8896C117.753 28.1691 118.171 28.3092 117.404 28.8647C115.521 30.323 113.569 31.642 111.339 32.4034C110.294 32.7494 109.318 33.2348 108.482 33.6509C105.693 35.3859 102.697 36.3547 99.8402 37.6022C97.8193 38.4336 96.0065 39.6832 93.8463 40.584C91.6167 41.3454 89.7338 42.8038 87.5736 43.7046C85.4827 44.7448 83.3918 45.7849 81.2316 46.6857C79.3501 47.4478 77.6074 48.4887 75.6559 49.4595C73.635 50.291 71.6135 51.4706 69.662 52.4414C67.4317 53.5509 65.2708 54.7998 63.0405 55.9094C60.5314 57.1576 58.0917 58.5452 55.4439 59.5146C54.12 59.9993 52.8648 60.9716 51.4709 61.665C48.8224 62.9826 46.3126 64.5789 43.5941 66.1052C41.5726 67.2848 39.2036 68.1155 37.2514 69.4345C36.9033 69.4338 36.3464 69.363 35.9282 69.5711Z" fill="#9CCDEE"/>
<path d="M120.958 27.2704C120.68 27.061 120.122 27.3384 120.332 26.7122C120.472 26.2947 120.196 25.389 121.24 25.3911C121.588 25.3918 122.215 25.2538 122.074 26.0194C121.864 26.6456 121.376 27.0624 120.958 27.2704Z" fill="#9CCDEE"/>
<path d="M134.597 100.127C134.667 99.9185 134.25 99.7784 134.529 99.2916C136.484 96.5801 138.508 94.008 140.325 91.0177C140.814 90.2528 141.442 89.4186 141.931 88.6537C142.28 88.3063 142.698 88.0982 142.907 88.1683C143.324 88.3084 143.045 88.7952 142.765 89.282C141.857 90.9512 140.739 92.5504 139.483 93.8707C138.018 95.4692 137.387 97.696 135.643 99.085C135.364 99.5718 135.015 99.9192 134.597 100.127Z" fill="#9CCDEE"/>
<path d="M114.068 94.8639C113.096 93.6086 113.446 92.5649 113.727 91.3818C113.797 90.825 114.216 90.2688 114.913 90.2702C115.261 90.2709 115.678 90.411 116.026 90.4117C115.956 90.9686 115.885 91.5255 115.605 92.0123C114.838 92.9159 114.14 93.6107 114.068 94.8639Z" fill="#9CCDEE"/>
<path d="M127.435 95.5175C127.85 96.702 126.666 97.1173 126.178 97.186C125.412 97.3933 125.693 96.2102 125.136 95.7913C125.695 95.1658 125.628 93.982 126.463 93.9141C127.508 93.9162 127.576 94.7519 127.435 95.5175Z" fill="#9CCDEE"/>
</svg>
