<svg width="548" height="548" viewBox="0 0 548 548" fill="none" xmlns="http://www.w3.org/2000/svg">
<path fill-rule="evenodd" clip-rule="evenodd" d="M178.494 419.317C143.077 392.934 114.105 383.611 97.5181 342.633C80.9475 301.695 92.6731 278.901 105.718 236.612C118.838 194.078 115.878 142.731 149.94 114.07C184.456 85.0275 234.852 85.5628 279.605 90.2973C320.473 94.6209 348.389 108.939 384.047 129.306C424.37 152.338 480.225 162.87 495.767 206.683C511.311 250.505 476.721 295.021 457.957 337.673C441.446 375.202 423.244 410.646 393.582 438.951C360.333 470.678 324.333 512.915 278.677 508.748C232.943 504.573 215.291 446.729 178.494 419.317Z" fill="#04237E"/>
</svg>
