<svg width="515" height="515" viewBox="0 0 515 515" fill="none" xmlns="http://www.w3.org/2000/svg">
<path fill-rule="evenodd" clip-rule="evenodd" d="M171.27 397.022C137.022 373.129 81.9231 374.835 65.0409 336.596C48.1753 298.394 86.0288 266.843 97.1123 226.491C108.26 185.908 103.951 137.468 135.299 109.378C167.065 80.9139 214.709 79.9364 257.143 83.0936C295.894 85.9768 322.699 98.6865 356.998 116.886C395.785 137.466 448.883 145.775 464.86 186.725C480.841 227.683 449.461 270.773 432.983 311.634C418.484 347.588 402.325 381.622 375.124 409.246C344.635 440.209 311.856 481.187 268.584 478.592C225.238 475.993 206.853 421.845 171.27 397.022Z" fill="#04237E"/>
</svg>
