<svg width="594" height="595" viewBox="0 0 594 595" fill="none" xmlns="http://www.w3.org/2000/svg">
<path fill-rule="evenodd" clip-rule="evenodd" d="M123.373 389.219C102.533 343.804 44.6628 312.151 50.4372 262.469C56.206 212.835 114.386 203.244 150.289 168.342C186.399 133.238 211.329 80.6582 260.7 70.6928C310.728 60.5946 360.467 88.4784 402.324 117.468C440.549 143.942 460.491 173.307 484.836 212.879C512.365 257.629 562.098 298.4 553.747 350.33C545.393 402.271 486.894 427.69 445.117 459.847C408.357 488.142 371.05 513.449 326.24 525.449C276.014 538.9 217.351 561.291 174.289 532.374C131.153 503.407 145.024 436.403 123.373 389.219Z" fill="#9CCDEE"/>
</svg>
