<svg width="41" height="41" viewBox="0 0 41 41" fill="none" xmlns="http://www.w3.org/2000/svg">
<circle cx="20.5352" cy="20.6035" r="19.5" stroke="white"/>
<path d="M24.7018 12.27H16.3685C14.0673 12.27 12.2018 14.1355 12.2018 16.4367V24.77C12.2018 27.0712 14.0673 28.9367 16.3685 28.9367H24.7018C27.003 28.9367 28.8685 27.0712 28.8685 24.77V16.4367C28.8685 14.1355 27.003 12.27 24.7018 12.27Z" stroke="white" stroke-linecap="round" stroke-linejoin="round"/>
<path d="M23.8685 20.0783C23.9713 20.7718 23.8529 21.4801 23.53 22.1025C23.207 22.7248 22.6961 23.2295 22.0699 23.5447C21.4436 23.8599 20.7339 23.9696 20.0417 23.8582C19.3494 23.7468 18.71 23.42 18.2142 22.9242C17.7184 22.4285 17.3916 21.789 17.2802 21.0968C17.1688 20.4046 17.2786 19.6949 17.5938 19.0686C17.909 18.4423 18.4137 17.9314 19.036 17.6085C19.6583 17.2856 20.3666 17.1671 21.0602 17.2699C21.7676 17.3748 22.4225 17.7045 22.9282 18.2102C23.4339 18.7159 23.7636 19.3708 23.8685 20.0783Z" stroke="white" stroke-linecap="round" stroke-linejoin="round"/>
<path d="M25.1185 16.02H25.1268" stroke="white" stroke-linecap="round" stroke-linejoin="round"/>
</svg>
