<svg width="223" height="65" viewBox="0 0 223 65" fill="none" xmlns="http://www.w3.org/2000/svg">
<g clip-path="url(#clip0)">
<path d="M50.1037 28.1962C50.7894 37.3172 50.3094 46.3696 50.378 55.4905C50.4466 64.2 51.4752 63.3085 42.4914 63.1714C34.8792 63.0342 27.1984 62.7599 19.5861 62.5541C18.6946 61.9369 18.7632 60.9768 18.8318 60.0853C19.2432 55.1476 18.9003 50.2786 19.0375 45.3409C19.1747 44.1065 19.0375 42.8035 20.1348 41.912C20.4777 37.3858 20.8205 32.791 21.232 28.2648C22.3979 27.4418 23.7694 27.3733 25.141 27.3047C32.136 27.3047 39.1996 27.3047 46.1947 27.3047C47.5663 27.3047 48.8692 27.579 50.1037 28.1962Z" fill="white"/>
<path d="M20.0662 44.8609C20.2034 50.7587 20.0662 56.6565 19.6547 62.5543C14.0998 62.6228 8.54497 62.6228 2.92151 62.6914C1.61852 62.6914 0.246941 62.6914 0.315519 60.8398C0.521256 52.8161 0.452677 44.7924 1.41278 36.7686C6.21329 35.3971 11.0824 35.8085 15.9515 35.6714C16.9802 35.6714 18.0088 35.8085 18.626 36.8372C18.9004 38.346 19.2432 39.7861 19.5176 41.2948C20.1348 42.3921 19.3804 43.6951 20.0662 44.8609Z" fill="#FB2429"/>
<path d="M50.1036 28.1963C40.5026 28.1963 30.833 28.1963 21.2319 28.1963C23.2207 24.9731 24.8666 21.5441 27.1983 18.6638C30.5586 14.5491 31.1758 9.95432 30.9015 4.94808C30.6272 -0.332486 30.833 -0.332486 35.702 1.51914C37.6908 2.27351 39.7482 3.02787 42.2856 3.98797C40.434 4.5366 39.0624 4.81092 37.828 5.35955C36.3878 6.04534 33.8504 5.22239 33.7133 7.55407C33.5075 10.1601 33.0961 12.7661 35.7706 14.9606C40.7769 19.1439 45.7145 23.3958 50.1036 28.1963Z" fill="#FB242A"/>
<path d="M95.1598 54.5306C95.1598 52.6103 95.0912 50.6216 95.1598 48.7014C95.2284 47.3984 94.4055 45.4782 95.777 44.9295C97.5601 44.2437 100.029 43.7637 101.538 45.2038C102.635 46.2325 102.909 45.6839 103.664 45.2724C109.973 42.0492 115.185 45.2038 115.322 52.1989C115.391 55.2849 115.116 58.371 115.391 61.457C115.665 64.4745 113.745 64.063 111.962 64.063C110.247 64.063 108.19 64.6116 108.533 61.5256C108.807 58.9196 108.601 56.3136 108.533 53.639C108.464 51.5817 107.984 49.6615 105.378 49.5929C102.703 49.5929 101.949 51.4445 101.881 53.7076C101.812 56.4508 101.743 59.1939 101.881 61.937C102.018 64.6802 100.166 64.063 98.7259 63.9944C97.2858 63.9258 95.0227 65.0917 95.0912 62.0056C95.2284 59.5368 95.1598 56.9994 95.1598 54.5306Z" fill="#F12B2B"/>
<path d="M58.8818 49.3871C58.8818 45.2724 59.0876 41.1576 58.8132 37.0429C58.6075 33.8197 60.5277 34.2312 62.5165 34.2998C64.2995 34.2998 66.0826 33.8197 66.014 36.9057C65.8083 45.2724 65.8083 53.5704 66.014 61.937C66.0826 65.2973 63.9566 64.4058 62.1736 64.543C60.1162 64.7487 58.6761 64.543 58.8132 61.7312C59.0876 57.6165 58.8818 53.5018 58.8818 49.3871Z" fill="#F12B2B"/>
<path d="M18.626 36.8372C12.8654 36.8372 7.10482 36.7686 1.41278 36.7686C3.26441 33.134 5.25319 29.5679 7.03624 25.8646C7.99634 23.8758 10.0537 22.0928 8.06492 19.4182C7.44771 18.5953 8.40781 17.4294 9.29934 16.8808C10.1909 16.3322 11.2881 16.4007 12.1796 17.018C13.2769 17.7723 13.6884 19.1439 13.0026 20.0354C11.631 21.6813 12.5911 22.9843 13.2083 24.3559C14.9914 28.5392 16.7744 32.6539 18.626 36.8372Z" fill="white"/>
<path d="M71.5688 34.2996C74.1748 31.7622 75.7521 28.4704 79.5925 30.3221C79.5925 30.3221 79.7297 30.5964 79.6611 30.7335C78.6324 32.7909 75.3406 34.0253 76.1636 36.357C76.7808 38.2086 79.4554 39.3744 81.5813 41.1575C76.575 42.5976 76.575 42.5976 72.0489 38.2086C70.6773 39.1687 72.9404 42.5291 69.4429 42.1176C68.0713 41.9804 67.3855 41.7747 67.3855 40.1974C67.4541 35.3283 67.4541 30.3906 67.3855 25.453C67.3855 23.8757 68.0713 23.6699 69.4429 23.6013C71.0888 23.5328 71.6374 24.0814 71.5688 25.7273C71.4316 28.2647 71.5688 30.8707 71.5688 34.2996Z" fill="white"/>
<path d="M218.19 36.563C218.67 35.8087 219.15 35.0543 219.63 34.2999C220.11 33.6142 220.865 33.7513 221.482 33.8199C222.442 33.9571 222.236 34.78 222.305 35.3972C222.305 36.6316 222.373 37.866 222.305 39.169C222.236 39.992 222.716 41.2264 221.276 41.2264C220.042 41.2264 220.522 40.0606 220.385 39.3748C220.316 38.8261 220.316 38.2775 220.316 37.7289C219.356 37.6603 219.219 38.4832 218.807 38.9633C217.916 39.8548 217.299 41.9808 215.858 41.1578C214.144 40.1977 215.31 38.0718 215.104 36.4945C214.967 35.26 214.555 33.477 216.956 33.8885C217.916 34.5057 216.338 36.3573 218.19 36.563Z" fill="white"/>
<path d="M151.189 45.0667C153.246 44.6552 154.206 45.341 153.932 47.5355C153.795 48.9757 153.863 50.4158 154.755 51.7188C155.098 52.1989 155.029 53.159 154.48 53.5704C153.795 54.1191 153.452 53.4333 152.903 53.0218C151.737 52.1303 150.297 51.9931 149.268 53.0904C148.583 53.7762 148.103 54.2562 147.417 53.5019C146.868 52.8847 146.8 51.7188 147.348 51.3073C148.651 50.2101 148.445 48.9071 148.308 47.6041C147.965 45.2724 149.063 44.6552 151.189 45.0667Z" fill="white"/>
<path d="M86.0389 36.1512C86.0389 37.5228 85.9703 38.8943 86.0389 40.2659C86.1075 41.5689 85.5589 42.049 84.2559 42.049C83.0214 42.049 82.3356 41.7746 82.3356 40.4031C82.4042 37.5913 82.4042 34.711 82.3356 31.8993C82.2671 30.322 83.2272 30.3906 84.3244 30.3906C85.3531 30.3906 86.1075 30.5277 86.0389 31.8307C86.0389 33.2023 86.0389 34.6425 86.0389 36.1512Z" fill="white"/>
<path d="M206.737 34.094C210.372 33.2711 207.903 36.4257 209.069 37.3858C209.069 37.3858 209.412 37.3172 209.618 37.1801C210.921 36.22 211.469 32.8596 213.321 34.3683C214.761 35.5342 213.801 38.6202 213.664 40.8833C213.664 41.089 213.184 41.3634 212.909 41.3634C212.361 41.4319 212.086 41.089 212.086 40.609C212.018 39.786 212.018 38.8945 211.881 37.2486C209.755 40.7461 207.423 42.6664 203.788 40.8147C204.063 40.1975 204.611 39.9918 205.091 39.5803C206.669 38.0716 204.886 35.4656 206.737 34.094Z" fill="white"/>
<path d="M181.363 44.8608C184.106 44.998 181.98 47.4668 183.146 48.4269C183.352 48.3584 183.558 48.3584 183.764 48.2212C185.067 47.1925 185.615 43.9007 187.535 45.2723C189.25 46.4381 187.947 49.4556 188.084 51.7187C188.153 52.1988 187.672 52.4731 187.192 52.4731C186.712 52.4731 186.232 52.3359 186.232 51.7873C186.164 50.9643 186.095 50.0728 186.027 49.0441C184.586 50.0042 184.038 51.1701 183.352 52.3359C181.843 53.3646 180.883 52.5417 180.609 51.1701C180.06 48.907 179.717 46.7125 181.363 44.8608Z" fill="white"/>
<path d="M189.661 33.8883C190.484 33.9569 191.582 33.4083 191.582 34.9856C191.582 35.8771 191.719 36.8372 191.582 37.7287C191.376 38.9631 192.405 41.0205 190.827 41.2262C188.427 41.5006 190.416 38.826 189.25 37.8659C189.044 38.003 188.77 38.2088 188.564 38.4145C187.33 39.3746 187.193 41.8434 184.861 41.1577C184.038 40.8833 184.518 34.8484 185.41 33.9569C185.547 33.8197 185.821 33.9569 186.095 33.8883C187.33 34.7113 186.713 36.1514 187.055 37.3173C186.987 37.6601 187.536 37.1115 187.124 37.2487C186.918 35.3285 188.084 34.5055 189.661 33.8883Z" fill="white"/>
<path d="M174.986 37.3857C174.986 38.2772 174.986 38.963 174.986 39.6488C174.986 40.4717 175.054 41.3632 173.888 41.2947C172.654 41.2261 173.065 40.1974 172.997 39.443C172.928 39.2373 173.065 38.963 172.997 38.7573C172.722 37.66 173.751 35.6712 172.105 35.6712C170.391 35.6712 171.351 37.66 171.214 38.7573C171.008 40.1288 170.528 41.569 169.088 41.2261C167.442 40.8832 168.813 39.7174 168.951 38.8258C169.088 38.2772 169.088 37.7286 169.088 37.1114C169.225 33.8882 170.871 32.7223 173.957 33.6824C176.083 34.5054 174.437 36.357 174.986 37.3857Z" fill="white"/>
<path d="M161.956 41.3636C160.516 41.7065 159.761 41.2264 159.967 39.6491C160.036 38.8948 159.83 38.2776 158.87 38.2776C157.978 38.2776 157.292 38.5519 157.292 39.5806C157.292 40.4721 157.43 41.6379 155.989 41.3636C154.618 41.0893 155.304 39.9235 155.235 39.1005C155.166 37.7289 155.235 36.3574 155.235 34.9858C155.235 34.3686 155.441 33.8885 156.195 33.8885C156.881 33.8885 157.292 34.1628 157.292 34.8486C157.361 35.7401 157.224 36.7002 158.595 36.7688C160.31 36.8374 159.83 35.603 160.035 34.6429C160.241 33.3399 161.27 34.0257 161.956 33.8885C163.533 36.3574 163.533 38.8948 161.956 41.3636Z" fill="white"/>
<path d="M191.787 48.4956C191.925 48.4956 192.062 48.4956 192.13 48.427C193.571 47.4669 193.913 44.2437 195.971 45.4095C197.479 46.2325 196.382 48.9756 196.519 50.8958C196.588 51.513 196.657 52.4045 195.696 52.4045C194.668 52.4731 194.805 51.5816 194.736 50.9644C194.736 50.4158 194.736 49.8671 194.736 49.3871C194.256 49.3871 194.051 49.3185 193.913 49.3871C192.473 50.2786 191.993 53.5704 190.004 52.1302C188.564 51.033 189.662 48.0841 189.593 45.9581C189.593 45.4095 189.936 45.1352 190.484 45.2038C191.033 45.2724 191.239 45.5467 191.376 46.0267C191.582 46.7811 191.102 47.7412 191.787 48.4956Z" fill="white"/>
<path d="M177.866 52.2673C177.317 51.5815 176.974 50.4157 176.083 50.4843C175.466 50.4843 175.809 51.5815 175.74 52.1987C174.231 53.2274 173.271 52.4045 172.997 50.9643C172.654 48.8384 172.174 46.6439 173.751 44.7922C175.534 44.3808 175.671 45.7523 175.946 47.2611C177.112 45.6838 178.209 44.3122 180.266 44.8608C180.335 47.0553 178.62 49.0441 180.335 51.6501C181.226 52.9531 178.963 52.6788 177.866 52.2673Z" fill="white"/>
<path d="M154.48 40.1974C154.755 41.5004 153.726 41.7747 153.177 41.226C151.669 39.7173 150.434 39.5802 148.926 41.226C148.72 41.4318 148.034 41.4318 147.691 41.226C147.074 40.9517 147.554 40.4717 147.623 40.0602C148.103 38.3457 148.446 36.4941 149.268 34.8482C150.091 33.1337 151.737 33.0652 152.629 34.6425C153.52 36.357 153.863 38.3457 154.48 40.1974Z" fill="white"/>
<path d="M205.297 39.9916C204.954 40.6088 204.406 40.6774 203.789 40.746C203.171 40.1288 202.486 39.5116 201.8 38.8944C200.634 39.2373 202.074 41.7747 200.017 41.2946C198.439 40.8832 199.399 39.443 199.194 38.4143C199.057 37.7971 199.057 37.0428 199.194 36.4255C199.331 35.534 198.508 34.231 199.948 33.8881C201.868 33.4081 200.84 35.534 201.594 36.0827C202.486 35.6712 202.966 34.9168 203.308 34.0939C203.926 33.0652 205.023 33.2709 205.709 33.751C206.532 34.2996 205.914 35.3283 205.434 35.8083C204.063 37.2485 205.572 38.6201 205.297 39.9916Z" fill="white"/>
<path d="M175.054 59.3311C175.877 60.8399 176.289 62.5543 174.368 63.3087C173.065 63.8573 170.871 64.6803 170.254 62.8287C169.637 60.977 169.156 58.371 170.665 56.7937C171.214 56.1765 174.094 55.1478 175.054 57.7538C174.437 58.7825 173.614 58.3025 172.723 58.0967C173.614 58.3025 174.506 58.5082 175.054 59.3311Z" fill="white"/>
<path d="M160.584 51.3074C159.761 53.3648 158.047 52.5418 156.812 52.2675C155.509 51.9932 155.852 50.4159 156.126 49.6615C156.675 48.0156 154.206 44.861 158.252 44.861C159.007 44.861 160.035 44.5181 160.241 45.5468C160.516 46.987 159.007 46.4383 158.184 47.1927C158.938 47.8099 160.79 47.8785 160.035 49.5244C159.213 50.4845 160.584 50.6902 160.584 51.3074Z" fill="white"/>
<path d="M153.932 57.4108C151.394 59.6053 153.178 61.3197 154.755 63.1028C152.492 64.5429 152.012 62.2113 150.777 61.5941C150.16 62.2113 150.64 63.9257 149.131 63.5828C147.828 63.3085 148.446 62.0741 148.377 61.2512C148.308 60.2225 148.308 59.1938 148.377 58.1651C148.377 57.5479 148.171 56.725 149.131 56.5192C149.886 56.3821 150.366 56.6564 150.503 57.5479C150.709 58.9881 151.326 58.0965 151.669 57.6165C152.149 56.8621 152.903 57.0679 153.932 57.4108Z" fill="white"/>
<path d="M181.158 37.3171C179.512 37.7286 179.717 39.6488 178.552 40.5403C178.003 40.9518 177.591 41.5004 176.837 41.2261C176.151 40.9518 176.288 40.3345 176.288 39.7859C176.288 38.4143 176.22 37.0428 176.288 35.7398C176.288 35.054 175.946 33.9567 177.111 33.8881C178.414 33.8196 177.866 34.9854 178.003 35.6712C178.072 36.1512 178.003 36.6999 178.003 37.3857C180.06 36.6313 179.992 33.4767 182.666 33.9567C183.352 36.2198 182.941 38.4143 182.872 41.0889C180.952 39.9231 182.255 38.2086 181.158 37.3171Z" fill="white"/>
<path d="M192.267 36.9743C192.13 34.6427 193.982 34.2312 195.696 33.7511C196.451 33.5454 197.616 33.3397 197.754 34.7112C197.891 36.0142 196.862 35.6028 196.108 35.6714C195.079 35.8085 194.393 36.3571 194.325 37.3858C194.256 38.6202 194.942 39.306 196.176 39.306C196.931 39.306 197.891 39.1003 197.685 40.4033C197.479 41.7749 196.313 41.5005 195.559 41.3634C193.433 40.8833 192.199 39.5118 192.267 36.9743Z" fill="white"/>
<path d="M162.847 56.725C163.944 56.3821 164.767 56.3136 165.179 57.2051C165.796 58.7138 166.276 58.6452 166.825 57.2051C167.167 56.3136 167.922 56.3821 168.539 56.6564C169.225 56.9308 168.951 57.6165 168.745 58.0966C168.128 59.6739 167.442 61.2512 166.825 62.76C166.55 63.5143 165.933 63.7886 165.179 63.6515C164.081 63.5143 164.493 62.8971 164.63 62.2113C165.042 60.0854 163.053 58.7138 162.847 56.725Z" fill="white"/>
<path d="M156.606 56.6566C158.184 56.3137 159.761 56.3137 161.338 56.6566C161.887 58.8511 161.887 61.0456 161.338 63.2401C158.321 63.3087 160.241 61.0456 159.761 59.9484C159.487 59.2626 160.104 57.891 158.664 58.0282C157.567 58.0967 157.909 59.2626 157.978 59.8798C158.047 61.0456 157.704 62.0743 157.155 63.0344C156.812 63.6516 155.989 63.9259 155.441 63.4459C154.755 62.8973 155.029 62.28 155.783 61.9371C156.949 60.2913 155.646 58.3025 156.606 56.6566Z" fill="white"/>
<path d="M172.311 52.3361C168.951 52.8848 166.962 51.8561 166.825 49.2501C166.619 46.4384 167.99 44.7925 171.008 44.9982C172.791 46.0955 171.145 46.7127 170.665 47.5356C168.745 50.2788 172.105 49.593 172.722 50.6903C172.928 51.2389 172.928 51.8561 172.311 52.3361Z" fill="white"/>
<path d="M163.602 44.7925C165.179 44.9982 167.648 44.3124 165.11 46.987C164.424 47.6728 164.836 49.3873 164.767 50.6217C164.699 51.376 164.973 52.3362 163.807 52.4047C162.504 52.4733 162.847 51.4446 162.779 50.7588C162.504 49.2501 162.916 47.8785 161.681 46.2326C160.31 44.381 163.121 45.4783 163.602 44.7925Z" fill="white"/>
<path d="M163.533 33.8884C164.562 33.8884 165.522 33.8198 166.55 33.8884C167.648 33.957 167.99 35.1228 167.236 35.3285C164.699 35.9458 165.453 37.7974 165.453 39.3061C165.453 40.8148 165.179 41.7749 163.396 41.3635C162.436 38.8946 162.23 36.3572 163.533 33.8884Z" fill="white"/>
<path d="M86.519 25.5215C86.3133 26.8931 85.6961 27.9218 84.3931 27.9904C83.0901 28.0589 82.1986 27.3046 82.13 26.0016C81.9928 24.5614 82.7472 23.5327 84.2559 23.4642C85.6961 23.3956 86.039 24.63 86.519 25.5215Z" fill="white"/>
<path d="M181.157 37.3172C182.323 37.8658 181.706 39.1002 182.598 39.9232C182.598 37.9344 182.598 36.0142 182.598 34.0254C183.763 35.877 182.872 37.8658 183.078 39.786C183.146 40.4718 183.078 41.2947 182.186 41.2947C180.952 41.3633 181.226 40.3346 181.157 39.6489C181.226 38.8945 181.226 38.0715 181.157 37.3172Z" fill="white"/>
<path d="M221.002 32.311C219.013 33.4083 217.984 33.5454 217.024 32.7911C216.887 32.6539 217.093 31.9681 217.161 31.5566C218.122 31.7624 219.15 31.9681 221.002 32.311Z" fill="white"/>
<path d="M161.338 63.2398C161.338 61.0453 161.338 58.8508 161.338 56.6562C162.23 58.8508 162.298 61.0453 161.338 63.2398Z" fill="white"/>
<path d="M190.827 42.7349C192.336 43.0092 193.433 43.1463 194.462 43.3521C194.668 43.4206 194.599 43.9693 194.188 44.1064C192.953 44.5179 191.924 44.5179 190.827 42.7349Z" fill="white"/>
<path d="M188.838 33.3396C188.153 33.2711 187.467 33.2711 186.781 33.2025C186.575 32.6538 185.409 31.7623 187.193 31.8309C188.153 31.7623 188.907 32.4481 188.838 33.3396Z" fill="white"/>
<path d="M156.606 56.6562C156.264 58.4393 157.429 60.3595 155.852 61.9368C156.469 60.2223 155.372 58.2336 156.606 56.6562Z" fill="white"/>
<path d="M172.174 44.9297C172.242 45.6841 172.722 46.5756 171.694 47.1242C171.145 47.3299 170.665 47.2614 170.254 46.7813C170.665 46.3013 171.831 46.0269 170.939 44.9983C171.419 44.9297 171.762 44.9297 172.174 44.9297Z" fill="white"/>
<path d="M20.0663 44.861C19.1061 43.8323 19.449 42.5293 19.5176 41.2949C19.7234 41.5007 19.9977 41.7064 20.2034 41.9121C20.1348 42.8722 20.0663 43.8323 20.0663 44.861Z" fill="#FB4A4D"/>
<path d="M45.7146 38.6889C45.646 41.5692 43.5886 43.6265 40.7083 43.558C37.828 43.558 35.8392 41.432 35.8392 38.5517C35.8392 35.6714 37.8966 33.6826 40.8455 33.6826C43.7258 33.6826 45.7831 35.8086 45.7146 38.6889Z" fill="#F92429"/>
<path d="M9.23066 44.3807C8.88776 45.6837 10.3279 48.1526 7.03614 47.9468C5.25309 47.8783 5.11593 46.7124 4.97878 45.4094C4.9102 44.5179 4.49873 43.6264 4.49873 42.7349C4.43015 41.569 3.33289 39.8545 5.8703 39.9231C7.58477 39.9917 9.77929 39.3745 9.23066 42.4605C9.16208 43.0777 9.23066 43.695 9.23066 44.3807Z" fill="white"/>
<path d="M9.71079 53.6389C9.64221 55.1477 10.0537 56.7936 7.85916 56.5192C5.25317 56.2449 6.69333 54.119 6.21328 52.816C5.66465 51.2387 6.55617 50.9644 7.99632 50.9644C10.2594 51.0329 9.50505 52.6788 9.71079 53.6389Z" fill="white"/>
<path d="M140.01 36.357C140.01 33.271 137.816 34.3682 136.376 34.3682C135.004 34.2996 133.015 33.5453 133.153 36.357C133.29 39.5116 133.153 42.6662 133.153 45.958C132.673 45.8209 132.33 45.7523 132.055 45.6151C127.529 43.2835 123.414 43.9692 120.397 47.4668C117.448 50.9643 117.448 57.2049 120.466 61.1139C123.277 64.7486 127.118 65.5715 131.712 63.5142C132.398 63.1713 132.673 63.1027 133.496 63.6513C136.033 65.2286 139.873 63.9942 139.942 62.0054C140.01 53.5017 140.01 44.9293 140.01 36.357ZM129.587 58.988C127.323 59.1937 125.129 57.1364 125.06 54.8047C124.992 52.6102 127.186 50.4156 129.381 50.4156C131.644 50.4156 133.358 52.2673 133.358 54.5989C133.358 57.1364 132.124 58.7137 129.587 58.988Z" fill="#F12A2A"/>
<path d="M87.8219 44.1067C85.9017 43.9695 84.4616 45.6154 82.61 44.9296C75.4778 42.1865 69.58 45.8897 68.8942 53.5706C68.2084 61.5257 75.4092 66.8063 82.5414 63.5145C83.2958 63.1716 83.5701 63.2402 84.393 63.6516C88.1648 65.6404 90.7023 63.9945 90.7023 59.8798C90.7023 57.9596 90.7023 55.9708 90.7023 54.0506C90.7023 51.7875 90.5651 49.4558 90.7708 47.1927C90.9766 44.8611 90.2222 44.2439 87.8219 44.1067ZM84.4616 54.3935C84.1187 56.8623 82.8157 58.5768 80.004 58.6454C77.1922 58.4397 75.8892 56.588 75.8892 54.1192C75.8892 51.6504 77.398 49.7987 80.0726 49.6616C82.2671 49.5244 84.7359 52.1304 84.4616 54.3935Z" fill="#F12A2A"/>
<path d="M116.213 25.3843C116.282 23.807 115.528 23.5327 114.156 23.5327C112.716 23.5327 111.962 23.8756 112.167 25.4529C112.236 26.0015 112.167 26.6188 112.236 27.1674C112.304 29.0876 112.785 30.8706 109.493 29.9105C106.407 29.019 103.526 31.8307 103.321 35.1225C103.046 38.9629 105.447 42.049 108.738 42.1861C116.213 42.4604 116.213 42.4604 116.213 34.9168C116.213 34.231 116.213 33.5452 116.213 32.8594C116.145 30.3906 116.076 27.8532 116.213 25.3843ZM110.041 38.6886C108.533 38.7572 107.71 37.7971 107.573 36.4255C107.435 34.8482 108.258 33.8195 109.904 33.6138C111.55 33.7509 112.442 34.711 112.373 36.2884C112.373 37.6599 111.55 38.62 110.041 38.6886Z" fill="white"/>
<path d="M101.058 26.0019C101.058 24.4931 101.058 23.4644 99.0004 23.533C96.7373 23.6016 97.0802 24.9046 97.1487 26.2762C97.1487 27.6477 97.1487 28.9507 97.1487 30.6652C94.0627 29.3622 91.3196 29.3622 89.3993 32.1054C87.6849 34.5056 87.9592 37.1116 89.3308 39.5119C91.0452 42.4607 93.5827 42.9408 96.6687 41.5692C97.1488 41.3635 97.9031 41.9121 98.5889 41.9807C100.372 42.3236 101.263 41.775 101.195 39.7176C100.989 35.1228 101.058 30.528 101.058 26.0019ZM94.8856 38.6889C93.1712 38.6203 92.4168 37.5231 92.4854 36.0143C92.4854 34.6428 93.3083 33.6141 94.7485 33.6141C96.3944 33.5455 97.2859 34.5742 97.3545 36.0829C97.4231 37.5917 96.5315 38.6203 94.8856 38.6889Z" fill="white"/>
<path d="M124.923 29.7734C121.083 29.7734 118.202 32.448 118.202 35.9455C118.202 39.5116 121.083 42.1176 124.923 42.049C128.695 41.9805 131.301 39.5802 131.37 36.0141C131.438 32.3794 128.832 29.842 124.923 29.7734ZM124.786 38.4829C123.414 38.4829 122.454 37.5228 122.386 36.0827C122.317 34.5054 123.14 33.5453 124.717 33.271C126.295 33.4767 127.255 34.2996 127.255 35.8769C127.323 37.5914 126.295 38.4829 124.786 38.4829Z" fill="white"/>
</g>
<defs>
<clipPath id="clip0">
<rect width="221.989" height="64.2583" fill="white" transform="translate(0.31543 0.421875)"/>
</clipPath>
</defs>
</svg>
