<svg width="41" height="41" viewBox="0 0 41 41" fill="none" xmlns="http://www.w3.org/2000/svg">
<circle cx="20.5352" cy="20.8887" r="19.5" stroke="white"/>
<path d="M30.2851 24.5999C29.8127 24.0338 29.2791 23.5284 28.763 23.0396C28.5817 22.8678 28.394 22.6901 28.2134 22.5137C28.2133 22.5137 28.2133 22.5136 28.2132 22.5136C27.9702 22.2766 27.8512 22.1083 27.8388 21.9841C27.8266 21.8619 27.9101 21.6807 28.1021 21.4128C28.3892 21.0099 28.6952 20.6063 28.9912 20.216C29.2543 19.8691 29.5263 19.5103 29.7871 19.1495L29.8456 19.0685C30.3543 18.3644 30.8803 17.6363 31.1622 16.7491C31.2427 16.4947 31.3263 16.1182 31.1247 15.7878C30.923 15.4572 30.549 15.3592 30.2855 15.3144C30.1568 15.2923 30.0346 15.2905 29.9209 15.2905L26.621 15.2876C26.0505 15.2781 25.6547 15.5485 25.439 16.0915C25.2664 16.5252 25.0625 17.0278 24.8263 17.5046C24.3744 18.4251 23.8002 19.4853 22.9679 20.3686L22.931 20.4079C22.8743 20.4684 22.7817 20.5673 22.7342 20.59C22.644 20.5334 22.54 20.2093 22.5447 20.0395C22.5448 20.0353 22.5449 20.0312 22.5449 20.027L22.542 16.214C22.542 16.1947 22.5406 16.1753 22.538 16.1561C22.464 15.6121 22.3197 15.0668 21.4588 14.8969C21.4311 14.8914 21.4031 14.8887 21.375 14.8887H17.9424C17.2966 14.8887 16.955 15.1844 16.6811 15.505C16.6019 15.5985 16.3913 15.8467 16.4986 16.1501C16.6071 16.4571 16.9307 16.5184 17.0369 16.5385C17.4109 16.6095 17.6044 16.821 17.6643 17.2251C17.7826 18.0105 17.7971 18.8506 17.71 19.8678C17.6857 20.1409 17.6405 20.3484 17.5675 20.5211C17.5473 20.5689 17.5296 20.5985 17.5172 20.6159C17.4974 20.6079 17.4667 20.5926 17.4241 20.5635C17.1612 20.3836 16.9631 20.104 16.7716 19.8337C16.0064 18.7533 15.3627 17.5601 14.8036 16.1853C14.5734 15.622 14.1405 15.3073 13.5856 15.2992C12.5283 15.2816 11.5505 15.282 10.5973 15.3005C10.1477 15.3083 9.83239 15.4499 9.66003 15.7213C9.48745 15.9932 9.49377 16.3398 9.67886 16.7518C11.0019 19.6939 12.2033 21.8342 13.5741 23.6916C14.5392 24.9992 15.5108 25.9069 16.6316 26.5482C17.8092 27.2219 19.1373 27.5521 20.678 27.5521C20.8532 27.5521 21.0315 27.5478 21.2121 27.5392C22.1627 27.4959 22.5495 27.1178 22.5917 26.1919C22.6153 25.7026 22.6698 25.3063 22.8587 24.9619C22.9116 24.8655 22.9712 24.8008 23.0182 24.789C23.0682 24.7765 23.1568 24.8071 23.2553 24.8711C23.4354 24.9881 23.5905 25.1467 23.718 25.2859C23.8473 25.4275 23.9779 25.5737 24.1044 25.715C24.3734 26.016 24.6516 26.3273 24.943 26.6242C25.6022 27.2961 26.3622 27.6043 27.2026 27.5398L30.2226 27.5412C30.2227 27.5412 30.2227 27.5412 30.2227 27.5412C30.2323 27.5412 30.2419 27.5409 30.2515 27.5402C30.5998 27.517 30.901 27.3242 31.0779 27.011C31.2908 26.6339 31.2876 26.1562 31.0691 25.7327C30.8411 25.2924 30.5452 24.9135 30.2851 24.5999ZM30.3246 26.5857C30.2829 26.6594 30.2316 26.6729 30.2051 26.6761L27.1858 26.6747C27.1857 26.6747 27.1856 26.6747 27.1855 26.6747C27.1735 26.6747 27.1616 26.6751 27.1498 26.6762C26.555 26.7257 26.0494 26.5166 25.5605 26.0183C25.2831 25.7357 25.0118 25.4322 24.7494 25.1386C24.6215 24.9955 24.4893 24.8476 24.3565 24.7022C24.1917 24.5223 23.9881 24.3155 23.7265 24.1456C23.3348 23.8914 23.0101 23.899 22.8069 23.9503C22.6057 24.0009 22.3198 24.1456 22.1003 24.5461C21.8159 25.0643 21.7532 25.6234 21.7277 26.1516C21.7129 26.4746 21.6583 26.5599 21.6355 26.5816C21.6056 26.61 21.5057 26.66 21.1723 26.6752C19.5701 26.7505 18.2256 26.4636 17.0612 25.7974C16.0484 25.2179 15.1614 24.3855 14.2702 23.178C12.9374 21.3721 11.7647 19.2809 10.4679 16.3973C10.4209 16.2928 10.4064 16.2277 10.4022 16.1928C10.4353 16.1819 10.5 16.1676 10.6133 16.1655C11.5569 16.1472 12.5244 16.1467 13.5721 16.1642C13.7156 16.1663 13.8789 16.2094 14.0026 16.512C14.5868 17.9484 15.2616 19.1985 16.0657 20.3338C16.2792 20.6351 16.545 21.0102 16.9355 21.2775C17.2933 21.5224 17.5836 21.5107 17.7642 21.4578C17.9448 21.4048 18.1956 21.2577 18.3645 20.8578C18.4734 20.6001 18.5393 20.3098 18.5719 19.9431C18.6651 18.8552 18.6485 17.9506 18.52 17.0974C18.4293 16.4861 18.1137 16.0445 17.6165 15.819C17.7048 15.773 17.8043 15.7539 17.9425 15.7539H21.3302C21.5208 15.7966 21.5586 15.8468 21.5715 15.864C21.6264 15.937 21.6578 16.1097 21.6769 16.2446L21.6798 20.0224C21.6722 20.3845 21.8482 21.1877 22.4475 21.408C22.4524 21.4098 22.4573 21.4115 22.4623 21.4131C23.0079 21.5914 23.3688 21.2063 23.5625 20.9993L23.597 20.9626C24.5087 19.995 25.1226 18.8644 25.6023 17.8874C25.8522 17.3829 26.064 16.8611 26.243 16.4113C26.3326 16.1857 26.4141 16.1485 26.6086 16.1526C26.6112 16.1527 26.6139 16.1527 26.6166 16.1527L29.9207 16.1556C29.9975 16.1556 30.0777 16.1565 30.14 16.1672C30.2974 16.194 30.3622 16.2266 30.3836 16.2402C30.3858 16.2652 30.3853 16.3373 30.3377 16.4878C30.0981 17.2423 29.6349 17.8833 29.1446 18.562L29.086 18.6431C28.8312 18.9956 28.5622 19.3503 28.3021 19.6934C28.0022 20.0887 27.6923 20.4974 27.3984 20.9099C26.7701 21.7865 26.8253 22.3683 27.6094 23.133C27.7947 23.3139 27.9846 23.4938 28.1684 23.6678C28.6892 24.1612 29.1812 24.6272 29.6203 25.1533C29.8502 25.4304 30.1108 25.7632 30.3007 26.13C30.3998 26.322 30.3755 26.4955 30.3246 26.5857Z" fill="white"/>
</svg>
